<svg width="62" height="68" viewBox="0 0 62 68" fill="none" xmlns="http://www.w3.org/2000/svg">
<path d="M58.5555 20.4569L37.8889 2.59426C35.9944 0.923617 33.5419 0 31.0001 0C28.4584 0 26.0058 0.923617 24.1113 2.59426L3.44475 20.4569C2.35069 21.4216 1.47764 22.605 0.883723 23.9284C0.289808 25.2517 -0.011341 26.6846 0.000326511 28.1317V57.8122C0.000326511 60.5142 1.08901 63.1055 3.02687 65.0161C4.96473 66.9266 7.59304 68 10.3336 68H51.6666C54.4072 68 57.0355 66.9266 58.9734 65.0161C60.9112 63.1055 61.9999 60.5142 61.9999 57.8122V28.0977C62.0067 26.6564 61.7031 25.23 61.1094 23.9129C60.5156 22.5957 59.6452 21.4178 58.5555 20.4569ZM37.8889 61.2081H24.1113V44.2284C24.1113 43.3278 24.4742 42.464 25.1201 41.8272C25.7661 41.1903 26.6422 40.8325 27.5557 40.8325H34.4445C35.358 40.8325 36.2341 41.1903 36.8801 41.8272C37.5261 42.464 37.8889 43.3278 37.8889 44.2284V61.2081ZM55.111 57.8122C55.111 58.7129 54.7482 59.5766 54.1022 60.2135C53.4562 60.8503 52.5801 61.2081 51.6666 61.2081H44.7778V44.2284C44.7778 41.5265 43.6891 38.9352 41.7512 37.0246C39.8134 35.114 37.1851 34.0406 34.4445 34.0406H27.5557C24.8151 34.0406 22.1868 35.114 20.249 37.0246C18.3111 38.9352 17.2224 41.5265 17.2224 44.2284V61.2081H10.3336C9.42007 61.2081 8.54397 60.8503 7.89801 60.2135C7.25206 59.5766 6.88917 58.7129 6.88917 57.8122V28.0977C6.88979 27.6156 6.99454 27.1391 7.19647 26.6999C7.39839 26.2608 7.69286 25.869 8.06027 25.5508L28.7268 7.72213C29.3554 7.17769 30.1634 6.87744 31.0001 6.87744C31.8368 6.87744 32.6449 7.17769 33.2734 7.72213L53.9399 25.5508C54.3074 25.869 54.6018 26.2608 54.8037 26.6999C55.0057 27.1391 55.1104 27.6156 55.111 28.0977V57.8122Z" fill="black"/>
</svg>
