<svg width="716" height="335" viewBox="0 0 716 335" fill="none" xmlns="http://www.w3.org/2000/svg">
<path d="M356.185 2.73094C456.426 0.584609 544.825 14.0822 608.571 42.4437C672.325 70.8089 711.892 114.31 713.132 172.22L713.167 173.85L711.691 174.539C689.617 184.851 669.101 199.484 647.501 215.839C625.952 232.154 603.319 250.188 577.234 267.031C524.944 300.796 458.693 329.846 358.123 331.999C157.108 336.303 98.4712 228.712 4.41791 172.998L3.22277 172.289L3.19305 170.901C1.95062 112.876 40.6733 71.8462 104.053 44.926C167.412 18.0143 256.024 4.87557 356.185 2.73094Z" fill="#B9CCF0" stroke="#FFF7CB" stroke-width="5"/>
</svg>
