<svg width="137" height="82" viewBox="0 0 137 82" fill="none" xmlns="http://www.w3.org/2000/svg">
<path d="M68.5 2.5C87.0416 2.5 103.707 7.00308 115.653 14.1533C127.65 21.3339 134.5 30.9044 134.5 41C134.5 51.0956 127.65 60.6661 115.653 67.8467C103.707 74.9969 87.0416 79.5 68.5 79.5C49.9584 79.5 33.2928 74.9969 21.3467 67.8467C9.34992 60.6661 2.5 51.0956 2.5 41C2.5 30.9044 9.34992 21.3339 21.3467 14.1533C33.2928 7.00308 49.9584 2.5 68.5 2.5Z" fill="#FCEA8C" stroke="#FF7F11" stroke-width="5"/>
<path d="M13.2825 49.7C13.2825 49.31 13.2875 48.69 13.2975 47.84C13.3075 46.98 13.3225 45.98 13.3425 44.84C13.3625 43.69 13.3825 42.485 13.4025 41.225C13.4225 39.965 13.4425 38.73 13.4625 37.52C13.4825 36.3 13.5025 35.19 13.5225 34.19C13.5425 33.19 13.5575 32.38 13.5675 31.76C13.5775 31.13 13.5825 30.785 13.5825 30.725C14.0525 30.685 14.6225 30.64 15.2925 30.59C15.9725 30.54 16.7025 30.5 17.4825 30.47C18.2725 30.43 19.0675 30.41 19.8675 30.41C20.9875 30.41 21.9775 30.565 22.8375 30.875C23.7075 31.175 24.3925 31.655 24.8925 32.315C25.3925 32.975 25.6425 33.845 25.6425 34.925C25.6425 35.685 25.4725 36.39 25.1325 37.04C24.7925 37.69 24.3625 38.23 23.8425 38.66C23.3325 39.09 22.8175 39.365 22.2975 39.485C22.3475 39.475 22.3975 39.47 22.4475 39.47C22.5075 39.47 22.5725 39.475 22.6425 39.485C23.5125 39.515 24.2975 39.715 24.9975 40.085C25.6975 40.445 26.2475 40.94 26.6475 41.57C27.0575 42.2 27.2625 42.935 27.2625 43.775C27.2625 45.065 26.9925 46.115 26.4525 46.925C25.9225 47.735 25.1725 48.36 24.2025 48.8C23.2425 49.24 22.1175 49.545 20.8275 49.715C19.5475 49.875 18.1525 49.955 16.6425 49.955C16.0125 49.955 15.4025 49.935 14.8125 49.895C14.2325 49.855 13.7225 49.79 13.2825 49.7ZM17.0175 46.595C17.0875 46.605 17.1825 46.61 17.3025 46.61C17.4325 46.61 17.5775 46.61 17.7375 46.61C18.5075 46.61 19.2575 46.57 19.9875 46.49C20.7275 46.41 21.3925 46.265 21.9825 46.055C22.5725 45.835 23.0425 45.535 23.3925 45.155C23.7425 44.765 23.9175 44.255 23.9175 43.625C23.9175 43.185 23.8125 42.815 23.6025 42.515C23.4025 42.205 23.1125 41.96 22.7325 41.78C22.3525 41.59 21.8975 41.455 21.3675 41.375C20.8475 41.285 20.2725 41.24 19.6425 41.24C19.4725 41.24 19.2175 41.245 18.8775 41.255C18.5475 41.255 18.2075 41.265 17.8575 41.285C17.5075 41.295 17.2225 41.315 17.0025 41.345L17.0175 46.595ZM16.9425 38.465C17.8525 38.455 18.5625 38.425 19.0725 38.375C19.5825 38.325 20.0075 38.215 20.3475 38.045C20.9375 37.865 21.4525 37.54 21.8925 37.07C22.3325 36.59 22.5525 36.03 22.5525 35.39C22.5525 34.53 22.2875 33.92 21.7575 33.56C21.2275 33.2 20.5225 33.02 19.6425 33.02C19.1525 33.02 18.6525 33.05 18.1425 33.11C17.6325 33.16 17.2125 33.205 16.8825 33.245L16.9425 38.465ZM39.364 50.765C37.384 50.765 35.759 50.315 34.489 49.415C33.229 48.515 32.294 47.3 31.684 45.77C31.084 44.23 30.784 42.51 30.784 40.61C30.784 38.57 31.109 36.77 31.759 35.21C32.409 33.65 33.369 32.425 34.639 31.535C35.919 30.645 37.494 30.2 39.364 30.2C40.904 30.2 42.219 30.48 43.309 31.04C44.399 31.59 45.284 32.35 45.964 33.32C46.654 34.28 47.159 35.39 47.479 36.65C47.799 37.91 47.959 39.245 47.959 40.655C47.959 42.005 47.789 43.29 47.449 44.51C47.119 45.72 46.604 46.795 45.904 47.735C45.214 48.665 44.324 49.405 43.234 49.955C42.154 50.495 40.864 50.765 39.364 50.765ZM39.349 47.165C40.569 47.165 41.569 46.855 42.349 46.235C43.139 45.605 43.719 44.775 44.089 43.745C44.459 42.715 44.644 41.6 44.644 40.4C44.644 39.49 44.559 38.61 44.389 37.76C44.219 36.9 43.939 36.135 43.549 35.465C43.169 34.785 42.654 34.245 42.004 33.845C41.364 33.445 40.559 33.245 39.589 33.245C38.429 33.245 37.464 33.57 36.694 34.22C35.934 34.87 35.364 35.75 34.984 36.86C34.604 37.97 34.414 39.22 34.414 40.61C34.414 41.82 34.584 42.92 34.924 43.91C35.274 44.9 35.809 45.69 36.529 46.28C37.259 46.87 38.199 47.165 39.349 47.165ZM50.6764 33.41C50.6364 33.24 50.6014 33.005 50.5714 32.705C50.5414 32.395 50.5164 32.075 50.4964 31.745C50.4764 31.405 50.4614 31.1 50.4514 30.83C50.4414 30.55 50.4364 30.35 50.4364 30.23C51.5764 30.16 52.8764 30.095 54.3364 30.035C55.7964 29.975 57.2714 29.945 58.7614 29.945C59.8514 29.945 60.9164 29.97 61.9564 30.02C62.9964 30.06 63.9464 30.135 64.8064 30.245C64.8264 30.845 64.8164 31.425 64.7764 31.985C64.7364 32.535 64.6914 32.96 64.6414 33.26C64.4314 33.25 64.1214 33.245 63.7114 33.245C63.3014 33.235 62.8464 33.225 62.3464 33.215C61.8464 33.205 61.3464 33.2 60.8464 33.2C60.3464 33.19 59.9114 33.185 59.5414 33.185C59.5514 33.555 59.5664 34.115 59.5864 34.865C59.6164 35.615 59.6464 36.485 59.6764 37.475C59.7164 38.455 59.7564 39.49 59.7964 40.58C59.8364 41.67 59.8714 42.745 59.9014 43.805C59.9414 44.855 59.9764 45.82 60.0064 46.7C60.0464 47.58 60.0764 48.31 60.0964 48.89C60.1164 49.47 60.1314 49.825 60.1414 49.955C59.8414 50.005 59.4464 50.05 58.9564 50.09C58.4664 50.13 57.9764 50.16 57.4864 50.18C57.0064 50.2 56.6214 50.21 56.3314 50.21C56.3014 49.61 56.2714 48.86 56.2414 47.96C56.2114 47.06 56.1814 46.075 56.1514 45.005C56.1314 43.935 56.1114 42.835 56.0914 41.705C56.0714 40.575 56.0564 39.48 56.0464 38.42C56.0364 37.35 56.0314 36.38 56.0314 35.51C56.0314 35.06 56.0314 34.645 56.0314 34.265C56.0414 33.875 56.0464 33.53 56.0464 33.23C55.6764 33.25 55.2514 33.27 54.7714 33.29C54.3014 33.3 53.8164 33.315 53.3164 33.335C52.8264 33.355 52.3514 33.37 51.8914 33.38C51.4414 33.39 51.0364 33.4 50.6764 33.41ZM67.4623 33.41C67.4223 33.24 67.3873 33.005 67.3573 32.705C67.3273 32.395 67.3023 32.075 67.2823 31.745C67.2623 31.405 67.2473 31.1 67.2373 30.83C67.2273 30.55 67.2223 30.35 67.2223 30.23C68.3623 30.16 69.6623 30.095 71.1223 30.035C72.5823 29.975 74.0573 29.945 75.5473 29.945C76.6373 29.945 77.7023 29.97 78.7423 30.02C79.7823 30.06 80.7323 30.135 81.5923 30.245C81.6123 30.845 81.6023 31.425 81.5623 31.985C81.5223 32.535 81.4773 32.96 81.4273 33.26C81.2173 33.25 80.9073 33.245 80.4973 33.245C80.0873 33.235 79.6323 33.225 79.1323 33.215C78.6323 33.205 78.1323 33.2 77.6323 33.2C77.1323 33.19 76.6973 33.185 76.3273 33.185C76.3373 33.555 76.3523 34.115 76.3723 34.865C76.4023 35.615 76.4323 36.485 76.4623 37.475C76.5023 38.455 76.5423 39.49 76.5823 40.58C76.6223 41.67 76.6573 42.745 76.6873 43.805C76.7273 44.855 76.7623 45.82 76.7923 46.7C76.8323 47.58 76.8623 48.31 76.8823 48.89C76.9023 49.47 76.9173 49.825 76.9273 49.955C76.6273 50.005 76.2323 50.05 75.7423 50.09C75.2523 50.13 74.7623 50.16 74.2723 50.18C73.7923 50.2 73.4073 50.21 73.1173 50.21C73.0873 49.61 73.0573 48.86 73.0273 47.96C72.9973 47.06 72.9673 46.075 72.9373 45.005C72.9173 43.935 72.8973 42.835 72.8773 41.705C72.8573 40.575 72.8423 39.48 72.8323 38.42C72.8223 37.35 72.8173 36.38 72.8173 35.51C72.8173 35.06 72.8173 34.645 72.8173 34.265C72.8273 33.875 72.8323 33.53 72.8323 33.23C72.4623 33.25 72.0373 33.27 71.5573 33.29C71.0873 33.3 70.6023 33.315 70.1023 33.335C69.6123 33.355 69.1373 33.37 68.6773 33.38C68.2273 33.39 67.8223 33.4 67.4623 33.41ZM92.6515 50.765C90.6715 50.765 89.0465 50.315 87.7765 49.415C86.5165 48.515 85.5815 47.3 84.9715 45.77C84.3715 44.23 84.0715 42.51 84.0715 40.61C84.0715 38.57 84.3965 36.77 85.0465 35.21C85.6965 33.65 86.6565 32.425 87.9265 31.535C89.2065 30.645 90.7815 30.2 92.6515 30.2C94.1915 30.2 95.5065 30.48 96.5965 31.04C97.6865 31.59 98.5715 32.35 99.2515 33.32C99.9415 34.28 100.447 35.39 100.767 36.65C101.087 37.91 101.247 39.245 101.247 40.655C101.247 42.005 101.077 43.29 100.737 44.51C100.407 45.72 99.8915 46.795 99.1915 47.735C98.5015 48.665 97.6115 49.405 96.5215 49.955C95.4415 50.495 94.1515 50.765 92.6515 50.765ZM92.6365 47.165C93.8565 47.165 94.8565 46.855 95.6365 46.235C96.4265 45.605 97.0065 44.775 97.3765 43.745C97.7465 42.715 97.9315 41.6 97.9315 40.4C97.9315 39.49 97.8465 38.61 97.6765 37.76C97.5065 36.9 97.2265 36.135 96.8365 35.465C96.4565 34.785 95.9415 34.245 95.2915 33.845C94.6515 33.445 93.8465 33.245 92.8765 33.245C91.7165 33.245 90.7515 33.57 89.9815 34.22C89.2215 34.87 88.6515 35.75 88.2715 36.86C87.8915 37.97 87.7015 39.22 87.7015 40.61C87.7015 41.82 87.8715 42.92 88.2115 43.91C88.5615 44.9 89.0965 45.69 89.8165 46.28C90.5465 46.87 91.4865 47.165 92.6365 47.165ZM106.159 50.105C106.159 49.205 106.164 48.115 106.174 46.835C106.184 45.555 106.199 44.195 106.219 42.755C106.249 41.305 106.279 39.86 106.309 38.42C106.349 36.98 106.384 35.64 106.414 34.4C106.454 33.15 106.494 32.1 106.534 31.25C106.904 31.21 107.339 31.18 107.839 31.16C108.339 31.13 108.829 31.11 109.309 31.1C109.799 31.08 110.214 31.07 110.554 31.07C110.894 31.07 111.089 31.07 111.139 31.07C111.159 31.11 111.244 31.38 111.394 31.88C111.544 32.37 111.739 33.015 111.979 33.815C112.219 34.615 112.479 35.5 112.759 36.47C113.039 37.43 113.319 38.41 113.599 39.41C113.889 40.4 114.154 41.34 114.394 42.23C114.644 43.12 114.849 43.885 115.009 44.525C115.169 45.155 115.264 45.59 115.294 45.83L114.874 45.875C114.994 45.555 115.169 45.03 115.399 44.3C115.639 43.57 115.909 42.72 116.209 41.75C116.509 40.78 116.819 39.765 117.139 38.705C117.469 37.635 117.779 36.6 118.069 35.6C118.369 34.59 118.629 33.69 118.849 32.9C119.069 32.1 119.224 31.495 119.314 31.085C119.644 31.085 120.064 31.095 120.574 31.115C121.084 31.125 121.594 31.15 122.104 31.19C122.614 31.22 123.029 31.26 123.349 31.31C123.549 32.24 123.684 33.46 123.754 34.97C123.834 36.48 123.874 38.075 123.874 39.755C123.874 41.015 123.859 42.3 123.829 43.61C123.809 44.91 123.774 46.12 123.724 47.24C123.684 48.36 123.634 49.28 123.574 50C123.204 50 122.799 49.995 122.359 49.985C121.919 49.965 121.499 49.945 121.099 49.925C120.709 49.895 120.394 49.87 120.154 49.85C120.234 48.97 120.294 47.935 120.334 46.745C120.384 45.555 120.419 44.335 120.439 43.085C120.449 42.315 120.454 41.52 120.454 40.7C120.464 39.88 120.469 39.13 120.469 38.45C120.479 37.76 120.484 37.23 120.484 36.86C120.374 37.31 120.199 37.915 119.959 38.675C119.729 39.425 119.464 40.26 119.164 41.18C118.864 42.09 118.554 43.015 118.234 43.955C117.914 44.885 117.609 45.765 117.319 46.595C117.029 47.425 116.774 48.135 116.554 48.725C116.334 49.315 116.169 49.71 116.059 49.91C115.939 49.92 115.769 49.93 115.549 49.94C115.329 49.94 115.149 49.94 115.009 49.94C114.779 49.94 114.544 49.93 114.304 49.91C114.074 49.89 113.824 49.865 113.554 49.835C113.534 49.725 113.464 49.445 113.344 48.995C113.224 48.545 113.069 47.97 112.879 47.27C112.689 46.56 112.479 45.785 112.249 44.945C112.019 44.105 111.784 43.245 111.544 42.365C111.304 41.475 111.069 40.62 110.839 39.8C110.609 38.98 110.399 38.24 110.209 37.58C110.029 36.92 109.879 36.4 109.759 36.02C109.759 37.01 109.759 38.095 109.759 39.275C109.769 40.445 109.774 41.625 109.774 42.815C109.774 43.995 109.774 45.1 109.774 46.13C109.774 47.15 109.774 48.01 109.774 48.71C109.774 49.41 109.774 49.85 109.774 50.03C109.504 50.04 109.159 50.05 108.739 50.06C108.329 50.08 107.894 50.09 107.434 50.09C106.984 50.1 106.559 50.105 106.159 50.105Z" fill="black"/>
</svg>
