<svg width="137" height="82" viewBox="0 0 137 82" fill="none" xmlns="http://www.w3.org/2000/svg">
<path d="M68.5 2.5C87.0416 2.5 103.707 7.00308 115.653 14.1533C127.65 21.3339 134.5 30.9044 134.5 41C134.5 51.0956 127.65 60.6661 115.653 67.8467C103.707 74.9969 87.0416 79.5 68.5 79.5C49.9584 79.5 33.2928 74.9969 21.3467 67.8467C9.34992 60.6661 2.5 51.0956 2.5 41C2.5 30.9044 9.34992 21.3339 21.3467 14.1533C33.2928 7.00308 49.9584 2.5 68.5 2.5Z" fill="#FCEA8C" stroke="#FF7F11" stroke-width="5"/>
<path d="M35.6636 49.97C35.6136 49.53 35.5586 48.865 35.4986 47.975C35.4486 47.085 35.3936 46.055 35.3336 44.885C35.2836 43.715 35.2386 42.485 35.1986 41.195C35.1586 39.905 35.1236 38.635 35.0936 37.385C35.0736 36.135 35.0636 34.99 35.0636 33.95C35.0636 33.28 35.0686 32.675 35.0786 32.135C35.0886 31.585 35.1086 31.13 35.1386 30.77C35.2386 30.76 35.4336 30.745 35.7236 30.725C36.0236 30.705 36.3636 30.685 36.7436 30.665C37.1336 30.645 37.5086 30.63 37.8686 30.62C38.2386 30.61 38.5386 30.605 38.7686 30.605C38.7386 31.145 38.7186 31.765 38.7086 32.465C38.6986 33.155 38.6936 33.815 38.6936 34.445C38.6936 35.305 38.7036 36.145 38.7236 36.965C38.7436 37.775 38.7636 38.32 38.7836 38.6C39.0036 38.58 39.2886 38.555 39.6386 38.525C39.9986 38.495 40.3886 38.47 40.8086 38.45C41.2386 38.43 41.6586 38.41 42.0686 38.39C42.4886 38.37 42.8736 38.355 43.2236 38.345C43.5736 38.335 43.8536 38.325 44.0636 38.315C44.0736 37.925 44.0886 37.405 44.1086 36.755C44.1286 36.095 44.1486 35.385 44.1686 34.625C44.1986 33.855 44.2286 33.105 44.2586 32.375C44.2886 31.635 44.3236 30.99 44.3636 30.44C44.5236 30.42 44.7186 30.41 44.9486 30.41C45.1886 30.41 45.4286 30.41 45.6686 30.41C46.1386 30.41 46.5986 30.42 47.0486 30.44C47.5086 30.45 47.8586 30.475 48.0986 30.515C48.0386 30.885 47.9836 31.415 47.9336 32.105C47.8836 32.795 47.8336 33.59 47.7836 34.49C47.7336 35.39 47.6886 36.35 47.6486 37.37C47.6086 38.39 47.5686 39.42 47.5286 40.46C47.4986 41.5 47.4736 42.5 47.4536 43.46C47.4336 44.34 47.4136 45.195 47.3936 46.025C47.3836 46.845 47.3736 47.59 47.3636 48.26C47.3536 48.92 47.3536 49.465 47.3636 49.895C47.1736 49.905 46.8936 49.92 46.5236 49.94C46.1636 49.96 45.7636 49.975 45.3236 49.985C44.8836 49.995 44.4586 50 44.0486 50C44.0486 49.34 44.0486 48.63 44.0486 47.87C44.0486 47.11 44.0436 46.35 44.0336 45.59C44.0336 44.82 44.0336 44.09 44.0336 43.4C44.0336 42.7 44.0336 42.09 44.0336 41.57C43.8236 41.58 43.5436 41.59 43.1936 41.6C42.8536 41.6 42.4786 41.61 42.0686 41.63C41.6586 41.64 41.2486 41.65 40.8386 41.66C40.4286 41.66 40.0536 41.665 39.7136 41.675C39.3836 41.675 39.1186 41.675 38.9186 41.675C38.9586 42.345 38.9986 43.11 39.0386 43.97C39.0786 44.82 39.1186 45.665 39.1586 46.505C39.1986 47.335 39.2336 48.05 39.2636 48.65C39.2936 49.25 39.3136 49.635 39.3236 49.805C39.1536 49.825 38.9086 49.845 38.5886 49.865C38.2686 49.885 37.9236 49.905 37.5536 49.925C37.1836 49.945 36.8286 49.96 36.4886 49.97C36.1486 49.97 35.8736 49.97 35.6636 49.97ZM63.4249 50.18C62.3849 50.11 61.3599 50.05 60.3499 50C59.3499 49.96 58.3199 49.925 57.2599 49.895C56.5699 49.875 55.8499 49.85 55.0999 49.82C54.3599 49.79 53.6449 49.765 52.9549 49.745C52.8949 48.135 52.8499 46.56 52.8199 45.02C52.7899 43.47 52.7749 42.005 52.7749 40.625C52.7749 38.215 52.7949 36.205 52.8349 34.595C52.8749 32.985 52.9149 31.865 52.9549 31.235C54.7749 30.915 56.4649 30.68 58.0249 30.53C59.5849 30.37 60.8849 30.265 61.9249 30.215C62.9749 30.165 63.6349 30.14 63.9049 30.14C63.9049 30.65 63.8899 31.14 63.8599 31.61C63.8299 32.07 63.7899 32.565 63.7399 33.095L56.5099 33.68C56.4999 33.88 56.4899 34.175 56.4799 34.565C56.4699 34.945 56.4599 35.355 56.4499 35.795C56.4399 36.235 56.4349 36.65 56.4349 37.04C56.4349 37.42 56.4349 37.71 56.4349 37.91C56.6649 37.9 56.9899 37.89 57.4099 37.88C57.8299 37.87 58.2949 37.86 58.8049 37.85C59.3249 37.83 59.8449 37.815 60.3649 37.805C60.8949 37.795 61.3799 37.785 61.8199 37.775C62.2699 37.765 62.6299 37.76 62.8999 37.76L62.9149 40.895C62.7749 40.885 62.4899 40.875 62.0599 40.865C61.6299 40.855 61.1299 40.845 60.5599 40.835C59.9899 40.825 59.4149 40.82 58.8349 40.82C58.2649 40.81 57.7549 40.805 57.3049 40.805C56.8549 40.795 56.5349 40.79 56.3449 40.79C56.3449 40.91 56.3399 41.14 56.3299 41.48C56.3299 41.81 56.3299 42.2 56.3299 42.65C56.3299 43.09 56.3249 43.55 56.3149 44.03C56.3149 44.5 56.3149 44.94 56.3149 45.35C56.3149 45.76 56.3149 46.09 56.3149 46.34C56.5049 46.33 56.8799 46.325 57.4399 46.325C57.9999 46.325 58.5449 46.325 59.0749 46.325C59.6849 46.325 60.2899 46.335 60.8899 46.355C61.4999 46.365 62.0599 46.385 62.5699 46.415C63.0899 46.445 63.5049 46.47 63.8149 46.49C63.8149 46.79 63.7999 47.13 63.7699 47.51C63.7399 47.89 63.7049 48.265 63.6649 48.635C63.6249 49.005 63.5849 49.33 63.5449 49.61C63.5049 49.88 63.4649 50.07 63.4249 50.18ZM71.2704 50.225C71.0604 50.225 70.7854 50.22 70.4454 50.21C70.1154 50.2 69.7604 50.185 69.3804 50.165C69.0104 50.155 68.6504 50.14 68.3004 50.12C67.9604 50.1 67.6754 50.08 67.4454 50.06C67.5454 49.51 67.6904 48.765 67.8804 47.825C68.0704 46.875 68.2904 45.805 68.5404 44.615C68.8004 43.425 69.0754 42.18 69.3654 40.88C69.6654 39.58 69.9654 38.29 70.2654 37.01C70.5754 35.73 70.8704 34.525 71.1504 33.395C71.4304 32.255 71.6854 31.265 71.9154 30.425C72.6654 30.315 73.4954 30.215 74.4054 30.125C75.3154 30.035 76.2304 29.99 77.1504 29.99C77.5904 29.99 78.0354 30.005 78.4854 30.035C78.9454 30.055 79.3854 30.095 79.8054 30.155C80.0054 31.035 80.2004 32.07 80.3904 33.26C80.5904 34.45 80.7854 35.845 80.9754 37.445C81.1654 39.035 81.3554 40.865 81.5454 42.935C81.7454 45.005 81.9404 47.355 82.1304 49.985C81.8604 50.025 81.4954 50.065 81.0354 50.105C80.5854 50.145 80.1104 50.175 79.6104 50.195C79.1204 50.215 78.6804 50.225 78.2904 50.225C78.2704 49.935 78.2504 49.57 78.2304 49.13C78.2104 48.69 78.1854 48.21 78.1554 47.69C78.1254 47.17 78.0954 46.65 78.0654 46.13C78.0454 45.6 78.0254 45.105 78.0054 44.645C77.9854 44.175 77.9654 43.785 77.9454 43.475C77.6254 43.475 77.2504 43.485 76.8204 43.505C76.3904 43.525 75.9454 43.55 75.4854 43.58C75.0254 43.61 74.5854 43.645 74.1654 43.685C73.7454 43.725 73.3804 43.765 73.0704 43.805C72.7604 43.835 72.5504 43.86 72.4404 43.88C72.2704 44.67 72.1054 45.47 71.9454 46.28C71.7854 47.09 71.6454 47.84 71.5254 48.53C71.4154 49.21 71.3304 49.775 71.2704 50.225ZM72.9204 40.775C73.2404 40.705 73.7004 40.64 74.3004 40.58C74.9004 40.52 75.5254 40.47 76.1754 40.43C76.8254 40.38 77.3854 40.345 77.8554 40.325C77.8354 40.055 77.8004 39.595 77.7504 38.945C77.7104 38.295 77.6604 37.585 77.6004 36.815C77.5504 36.035 77.4954 35.31 77.4354 34.64C77.3754 33.96 77.3204 33.45 77.2704 33.11C77.0604 33.11 76.7604 33.125 76.3704 33.155C75.9804 33.175 75.6054 33.2 75.2454 33.23C74.8854 33.26 74.6304 33.285 74.4804 33.305C74.4204 33.565 74.3304 33.96 74.2104 34.49C74.1004 35.01 73.9704 35.615 73.8204 36.305C73.6804 36.995 73.5304 37.725 73.3704 38.495C73.2104 39.255 73.0604 40.015 72.9204 40.775ZM87.4624 50.45C87.4024 49.96 87.3274 49.26 87.2374 48.35C87.1574 47.44 87.0624 46.405 86.9524 45.245C86.8524 44.075 86.7474 42.855 86.6374 41.585C86.5374 40.315 86.4374 39.065 86.3374 37.835C86.2374 36.605 86.1474 35.475 86.0674 34.445C85.9874 33.405 85.9174 32.54 85.8574 31.85C85.8074 31.15 85.7774 30.705 85.7674 30.515C86.0974 30.465 86.5524 30.41 87.1324 30.35C87.7224 30.29 88.3474 30.24 89.0074 30.2C89.6674 30.15 90.2724 30.125 90.8224 30.125C92.6224 30.125 94.1374 30.35 95.3674 30.8C96.5974 31.25 97.5774 31.915 98.3074 32.795C99.0474 33.665 99.5774 34.74 99.8974 36.02C100.217 37.29 100.377 38.755 100.377 40.415C100.377 42.345 100.127 43.95 99.6274 45.23C99.1374 46.51 98.3724 47.525 97.3324 48.275C96.2924 49.025 94.9524 49.57 93.3124 49.91C91.6824 50.24 89.7324 50.42 87.4624 50.45ZM90.8074 46.745C92.2974 46.655 93.4774 46.375 94.3474 45.905C95.2174 45.425 95.8374 44.745 96.2074 43.865C96.5774 42.975 96.7624 41.87 96.7624 40.55C96.7624 39.16 96.5874 37.915 96.2374 36.815C95.8974 35.715 95.3174 34.845 94.4974 34.205C93.6774 33.555 92.5624 33.23 91.1524 33.23C90.9324 33.23 90.6974 33.235 90.4474 33.245C90.2074 33.255 89.9824 33.265 89.7724 33.275C89.8624 34.645 89.9624 36.11 90.0724 37.67C90.1824 39.23 90.2974 40.79 90.4174 42.35C90.5474 43.91 90.6774 45.375 90.8074 46.745Z" fill="black"/>
</svg>
