<svg width="137" height="82" viewBox="0 0 137 82" fill="none" xmlns="http://www.w3.org/2000/svg">
<path d="M68.5 2.5C87.0416 2.5 103.707 7.00308 115.653 14.1533C127.65 21.3339 134.5 30.9044 134.5 41C134.5 51.0956 127.65 60.6661 115.653 67.8467C103.707 74.9969 87.0416 79.5 68.5 79.5C49.9584 79.5 33.2928 74.9969 21.3467 67.8467C9.34992 60.6661 2.5 51.0956 2.5 41C2.5 30.9044 9.34992 21.3339 21.3467 14.1533C33.2928 7.00308 49.9584 2.5 68.5 2.5Z" fill="#FCEA8C" stroke="#FF7F11" stroke-width="5"/>
<path d="M42.5867 49.22C42.0867 49.9 41.4817 50.54 40.7717 51.14C40.0617 51.74 39.2467 52.225 38.3267 52.595C37.4167 52.965 36.4117 53.15 35.3117 53.15C34.0017 53.15 32.8367 52.895 31.8167 52.385C30.8067 51.865 29.9517 51.145 29.2517 50.225C28.5617 49.305 28.0317 48.23 27.6617 47C27.3017 45.76 27.1217 44.42 27.1217 42.98C27.1217 41.11 27.4367 39.43 28.0667 37.94C28.6967 36.45 29.6167 35.275 30.8267 34.415C32.0467 33.545 33.5317 33.11 35.2817 33.11C36.7317 33.11 38.0767 33.43 39.3167 34.07C40.5567 34.7 41.5017 35.6 42.1517 36.77C41.9617 36.99 41.6967 37.245 41.3567 37.535C41.0167 37.815 40.6717 38.085 40.3217 38.345C39.9717 38.595 39.6717 38.8 39.4217 38.96C39.3617 38.82 39.2417 38.61 39.0617 38.33C38.8917 38.04 38.6467 37.745 38.3267 37.445C38.0067 37.135 37.5917 36.87 37.0817 36.65C36.5817 36.43 35.9767 36.32 35.2667 36.32C34.7067 36.32 34.1717 36.455 33.6617 36.725C33.1517 36.995 32.7017 37.4 32.3117 37.94C31.9217 38.47 31.6117 39.145 31.3817 39.965C31.1517 40.775 31.0367 41.725 31.0367 42.815C31.0367 43.755 31.1367 44.63 31.3367 45.44C31.5467 46.25 31.8367 46.965 32.2067 47.585C32.5767 48.195 33.0217 48.675 33.5417 49.025C34.0617 49.365 34.6267 49.535 35.2367 49.535C35.9767 49.535 36.6417 49.39 37.2317 49.1C37.8317 48.8 38.3617 48.435 38.8217 48.005C39.2917 47.565 39.6967 47.135 40.0367 46.715C40.3067 46.895 40.6067 47.135 40.9367 47.435C41.2767 47.725 41.5967 48.03 41.8967 48.35C42.2067 48.67 42.4367 48.96 42.5867 49.22ZM46.8125 52.97C46.7625 52.53 46.7075 51.865 46.6475 50.975C46.5975 50.085 46.5425 49.055 46.4825 47.885C46.4325 46.715 46.3875 45.485 46.3475 44.195C46.3075 42.905 46.2725 41.635 46.2425 40.385C46.2225 39.135 46.2125 37.99 46.2125 36.95C46.2125 36.28 46.2175 35.675 46.2275 35.135C46.2375 34.585 46.2575 34.13 46.2875 33.77C46.3875 33.76 46.5825 33.745 46.8725 33.725C47.1725 33.705 47.5125 33.685 47.8925 33.665C48.2825 33.645 48.6575 33.63 49.0175 33.62C49.3875 33.61 49.6875 33.605 49.9175 33.605C49.8875 34.145 49.8675 34.765 49.8575 35.465C49.8475 36.155 49.8425 36.815 49.8425 37.445C49.8425 38.305 49.8525 39.145 49.8725 39.965C49.8925 40.775 49.9125 41.32 49.9325 41.6C50.1525 41.58 50.4375 41.555 50.7875 41.525C51.1475 41.495 51.5375 41.47 51.9575 41.45C52.3875 41.43 52.8075 41.41 53.2175 41.39C53.6375 41.37 54.0225 41.355 54.3725 41.345C54.7225 41.335 55.0025 41.325 55.2125 41.315C55.2225 40.925 55.2375 40.405 55.2575 39.755C55.2775 39.095 55.2975 38.385 55.3175 37.625C55.3475 36.855 55.3775 36.105 55.4075 35.375C55.4375 34.635 55.4725 33.99 55.5125 33.44C55.6725 33.42 55.8675 33.41 56.0975 33.41C56.3375 33.41 56.5775 33.41 56.8175 33.41C57.2875 33.41 57.7475 33.42 58.1975 33.44C58.6575 33.45 59.0075 33.475 59.2475 33.515C59.1875 33.885 59.1325 34.415 59.0825 35.105C59.0325 35.795 58.9825 36.59 58.9325 37.49C58.8825 38.39 58.8375 39.35 58.7975 40.37C58.7575 41.39 58.7175 42.42 58.6775 43.46C58.6475 44.5 58.6225 45.5 58.6025 46.46C58.5825 47.34 58.5625 48.195 58.5425 49.025C58.5325 49.845 58.5225 50.59 58.5125 51.26C58.5025 51.92 58.5025 52.465 58.5125 52.895C58.3225 52.905 58.0425 52.92 57.6725 52.94C57.3125 52.96 56.9125 52.975 56.4725 52.985C56.0325 52.995 55.6075 53 55.1975 53C55.1975 52.34 55.1975 51.63 55.1975 50.87C55.1975 50.11 55.1925 49.35 55.1825 48.59C55.1825 47.82 55.1825 47.09 55.1825 46.4C55.1825 45.7 55.1825 45.09 55.1825 44.57C54.9725 44.58 54.6925 44.59 54.3425 44.6C54.0025 44.6 53.6275 44.61 53.2175 44.63C52.8075 44.64 52.3975 44.65 51.9875 44.66C51.5775 44.66 51.2025 44.665 50.8625 44.675C50.5325 44.675 50.2675 44.675 50.0675 44.675C50.1075 45.345 50.1475 46.11 50.1875 46.97C50.2275 47.82 50.2675 48.665 50.3075 49.505C50.3475 50.335 50.3825 51.05 50.4125 51.65C50.4425 52.25 50.4625 52.635 50.4725 52.805C50.3025 52.825 50.0575 52.845 49.7375 52.865C49.4175 52.885 49.0725 52.905 48.7025 52.925C48.3325 52.945 47.9775 52.96 47.6375 52.97C47.2975 52.97 47.0225 52.97 46.8125 52.97ZM74.5737 53.18C73.5337 53.11 72.5087 53.05 71.4987 53C70.4987 52.96 69.4687 52.925 68.4087 52.895C67.7187 52.875 66.9987 52.85 66.2487 52.82C65.5087 52.79 64.7937 52.765 64.1037 52.745C64.0437 51.135 63.9987 49.56 63.9687 48.02C63.9387 46.47 63.9237 45.005 63.9237 43.625C63.9237 41.215 63.9437 39.205 63.9837 37.595C64.0237 35.985 64.0637 34.865 64.1037 34.235C65.9237 33.915 67.6137 33.68 69.1737 33.53C70.7337 33.37 72.0337 33.265 73.0737 33.215C74.1237 33.165 74.7837 33.14 75.0537 33.14C75.0537 33.65 75.0387 34.14 75.0087 34.61C74.9787 35.07 74.9387 35.565 74.8887 36.095L67.6587 36.68C67.6487 36.88 67.6387 37.175 67.6287 37.565C67.6187 37.945 67.6087 38.355 67.5987 38.795C67.5887 39.235 67.5837 39.65 67.5837 40.04C67.5837 40.42 67.5837 40.71 67.5837 40.91C67.8137 40.9 68.1387 40.89 68.5587 40.88C68.9787 40.87 69.4437 40.86 69.9537 40.85C70.4737 40.83 70.9937 40.815 71.5137 40.805C72.0437 40.795 72.5287 40.785 72.9687 40.775C73.4187 40.765 73.7787 40.76 74.0487 40.76L74.0637 43.895C73.9237 43.885 73.6387 43.875 73.2087 43.865C72.7787 43.855 72.2787 43.845 71.7087 43.835C71.1387 43.825 70.5637 43.82 69.9837 43.82C69.4137 43.81 68.9037 43.805 68.4537 43.805C68.0037 43.795 67.6837 43.79 67.4937 43.79C67.4937 43.91 67.4887 44.14 67.4787 44.48C67.4787 44.81 67.4787 45.2 67.4787 45.65C67.4787 46.09 67.4737 46.55 67.4637 47.03C67.4637 47.5 67.4637 47.94 67.4637 48.35C67.4637 48.76 67.4637 49.09 67.4637 49.34C67.6537 49.33 68.0287 49.325 68.5887 49.325C69.1487 49.325 69.6937 49.325 70.2237 49.325C70.8337 49.325 71.4387 49.335 72.0387 49.355C72.6487 49.365 73.2087 49.385 73.7187 49.415C74.2387 49.445 74.6537 49.47 74.9637 49.49C74.9637 49.79 74.9487 50.13 74.9187 50.51C74.8887 50.89 74.8537 51.265 74.8137 51.635C74.7737 52.005 74.7337 52.33 74.6937 52.61C74.6537 52.88 74.6137 53.07 74.5737 53.18ZM86.3342 53.195C85.4542 53.195 84.6042 53.075 83.7842 52.835C82.9642 52.595 82.1942 52.27 81.4742 51.86C80.7642 51.44 80.1342 50.97 79.5842 50.45C79.0442 49.92 78.6142 49.375 78.2942 48.815C78.3542 48.725 78.4842 48.585 78.6842 48.395C78.8942 48.205 79.1292 48 79.3892 47.78C79.6492 47.55 79.9042 47.34 80.1542 47.15C80.4142 46.96 80.6242 46.82 80.7842 46.73C81.0442 47.06 81.3542 47.43 81.7142 47.84C82.0742 48.25 82.4892 48.645 82.9592 49.025C83.4292 49.395 83.9542 49.7 84.5342 49.94C85.1142 50.18 85.7492 50.3 86.4392 50.3C87.2792 50.3 87.9542 50.14 88.4642 49.82C88.9842 49.5 89.3592 49.1 89.5892 48.62C89.8292 48.14 89.9492 47.655 89.9492 47.165C89.9492 46.735 89.8342 46.345 89.6042 45.995C89.3742 45.635 89.0492 45.315 88.6292 45.035C88.2192 44.745 87.7342 44.48 87.1742 44.24C86.6142 44 86.0042 43.775 85.3442 43.565C84.1642 43.155 83.1092 42.71 82.1792 42.23C81.2592 41.75 80.5292 41.155 79.9892 40.445C79.4592 39.735 79.1942 38.84 79.1942 37.76C79.1942 36.65 79.4992 35.725 80.1092 34.985C80.7292 34.245 81.5392 33.69 82.5392 33.32C83.5492 32.95 84.6442 32.765 85.8242 32.765C86.8242 32.765 87.7742 32.895 88.6742 33.155C89.5842 33.405 90.3892 33.74 91.0892 34.16C91.7992 34.57 92.3542 35.02 92.7542 35.51C92.6542 35.68 92.4842 35.915 92.2442 36.215C92.0042 36.505 91.7492 36.795 91.4792 37.085C91.2192 37.375 90.9942 37.6 90.8042 37.76C90.4842 37.43 90.0742 37.095 89.5742 36.755C89.0842 36.405 88.5092 36.11 87.8492 35.87C87.1992 35.63 86.4792 35.51 85.6892 35.51C84.8092 35.51 84.0942 35.715 83.5442 36.125C83.0042 36.535 82.7342 37.1 82.7342 37.82C82.7342 38.18 82.8242 38.5 83.0042 38.78C83.1842 39.05 83.4192 39.285 83.7092 39.485C84.0092 39.685 84.3442 39.86 84.7142 40.01C85.0842 40.16 85.4642 40.29 85.8542 40.4C86.8542 40.72 87.8142 41.05 88.7342 41.39C89.6542 41.73 90.4742 42.135 91.1942 42.605C91.9142 43.075 92.4842 43.65 92.9042 44.33C93.3242 45.01 93.5342 45.85 93.5342 46.85C93.5342 47.71 93.3642 48.525 93.0242 49.295C92.6942 50.055 92.2142 50.73 91.5842 51.32C90.9542 51.9 90.1942 52.36 89.3042 52.7C88.4242 53.03 87.4342 53.195 86.3342 53.195ZM95.7174 36.41C95.6774 36.24 95.6424 36.005 95.6124 35.705C95.5824 35.395 95.5574 35.075 95.5374 34.745C95.5174 34.405 95.5024 34.1 95.4924 33.83C95.4824 33.55 95.4774 33.35 95.4774 33.23C96.6174 33.16 97.9174 33.095 99.3774 33.035C100.837 32.975 102.312 32.945 103.802 32.945C104.892 32.945 105.957 32.97 106.997 33.02C108.037 33.06 108.987 33.135 109.847 33.245C109.867 33.845 109.857 34.425 109.817 34.985C109.777 35.535 109.732 35.96 109.682 36.26C109.472 36.25 109.162 36.245 108.752 36.245C108.342 36.235 107.887 36.225 107.387 36.215C106.887 36.205 106.387 36.2 105.887 36.2C105.387 36.19 104.952 36.185 104.582 36.185C104.592 36.555 104.607 37.115 104.627 37.865C104.657 38.615 104.687 39.485 104.717 40.475C104.757 41.455 104.797 42.49 104.837 43.58C104.877 44.67 104.912 45.745 104.942 46.805C104.982 47.855 105.017 48.82 105.047 49.7C105.087 50.58 105.117 51.31 105.137 51.89C105.157 52.47 105.172 52.825 105.182 52.955C104.882 53.005 104.487 53.05 103.997 53.09C103.507 53.13 103.017 53.16 102.527 53.18C102.047 53.2 101.662 53.21 101.372 53.21C101.342 52.61 101.312 51.86 101.282 50.96C101.252 50.06 101.222 49.075 101.192 48.005C101.172 46.935 101.152 45.835 101.132 44.705C101.112 43.575 101.097 42.48 101.087 41.42C101.077 40.35 101.072 39.38 101.072 38.51C101.072 38.06 101.072 37.645 101.072 37.265C101.082 36.875 101.087 36.53 101.087 36.23C100.717 36.25 100.292 36.27 99.8124 36.29C99.3424 36.3 98.8574 36.315 98.3574 36.335C97.8674 36.355 97.3924 36.37 96.9324 36.38C96.4824 36.39 96.0774 36.4 95.7174 36.41Z" fill="black"/>
</svg>
