<svg width="137" height="82" viewBox="0 0 137 82" fill="none" xmlns="http://www.w3.org/2000/svg">
<path d="M68.5 2.5C87.0416 2.5 103.707 7.00308 115.653 14.1533C127.65 21.3339 134.5 30.9044 134.5 41C134.5 51.0956 127.65 60.6661 115.653 67.8467C103.707 74.9969 87.0416 79.5 68.5 79.5C49.9584 79.5 33.2928 74.9969 21.3467 67.8467C9.34992 60.6661 2.5 51.0956 2.5 41C2.5 30.9044 9.34992 21.3339 21.3467 14.1533C33.2928 7.00308 49.9584 2.5 68.5 2.5Z" fill="#FCEA8C" stroke="#FF7F11" stroke-width="5"/>
<path d="M19.9437 33.41C19.9037 33.24 19.8687 33.005 19.8387 32.705C19.8087 32.395 19.7837 32.075 19.7637 31.745C19.7437 31.405 19.7287 31.1 19.7187 30.83C19.7087 30.55 19.7037 30.35 19.7037 30.23C20.8437 30.16 22.1437 30.095 23.6037 30.035C25.0637 29.975 26.5387 29.945 28.0287 29.945C29.1187 29.945 30.1837 29.97 31.2237 30.02C32.2637 30.06 33.2137 30.135 34.0737 30.245C34.0937 30.845 34.0837 31.425 34.0437 31.985C34.0037 32.535 33.9587 32.96 33.9087 33.26C33.6987 33.25 33.3887 33.245 32.9787 33.245C32.5687 33.235 32.1137 33.225 31.6137 33.215C31.1137 33.205 30.6137 33.2 30.1137 33.2C29.6137 33.19 29.1787 33.185 28.8087 33.185C28.8187 33.555 28.8337 34.115 28.8537 34.865C28.8837 35.615 28.9137 36.485 28.9437 37.475C28.9837 38.455 29.0237 39.49 29.0637 40.58C29.1037 41.67 29.1387 42.745 29.1687 43.805C29.2087 44.855 29.2437 45.82 29.2737 46.7C29.3137 47.58 29.3437 48.31 29.3637 48.89C29.3837 49.47 29.3987 49.825 29.4087 49.955C29.1087 50.005 28.7137 50.05 28.2237 50.09C27.7337 50.13 27.2437 50.16 26.7537 50.18C26.2737 50.2 25.8887 50.21 25.5987 50.21C25.5687 49.61 25.5387 48.86 25.5087 47.96C25.4787 47.06 25.4487 46.075 25.4187 45.005C25.3987 43.935 25.3787 42.835 25.3587 41.705C25.3387 40.575 25.3237 39.48 25.3137 38.42C25.3037 37.35 25.2987 36.38 25.2987 35.51C25.2987 35.06 25.2987 34.645 25.2987 34.265C25.3087 33.875 25.3137 33.53 25.3137 33.23C24.9437 33.25 24.5187 33.27 24.0387 33.29C23.5687 33.3 23.0837 33.315 22.5837 33.335C22.0937 33.355 21.6187 33.37 21.1587 33.38C20.7087 33.39 20.3037 33.4 19.9437 33.41ZM44.8897 50.525C43.1497 50.525 41.7847 50.095 40.7947 49.235C39.8047 48.365 39.0747 47.15 38.6047 45.59C38.2247 44.39 37.9797 42.965 37.8697 41.315C37.7597 39.665 37.7047 37.82 37.7047 35.78C37.7047 35.31 37.7097 34.805 37.7197 34.265C37.7297 33.725 37.7447 33.18 37.7647 32.63C37.7847 32.08 37.8047 31.56 37.8247 31.07C37.8447 30.57 37.8597 30.13 37.8697 29.75C38.1697 29.72 38.4747 29.695 38.7847 29.675C39.1047 29.645 39.4097 29.63 39.6997 29.63C40.0997 29.63 40.4947 29.645 40.8847 29.675C41.2747 29.705 41.6147 29.735 41.9047 29.765C41.8347 30.565 41.7697 31.44 41.7097 32.39C41.6597 33.33 41.6197 34.285 41.5897 35.255C41.5697 36.215 41.5597 37.125 41.5597 37.985C41.5597 39.065 41.5897 40.03 41.6497 40.88C41.7197 41.72 41.8297 42.455 41.9797 43.085C42.2397 44.185 42.6297 45 43.1497 45.53C43.6797 46.06 44.3547 46.325 45.1747 46.325C45.9847 46.325 46.6297 46.04 47.1097 45.47C47.5897 44.9 47.9347 44.085 48.1447 43.025C48.3647 41.965 48.4747 40.695 48.4747 39.215C48.4747 38.785 48.4697 38.26 48.4597 37.64C48.4497 37.02 48.4297 36.355 48.3997 35.645C48.3797 34.935 48.3497 34.23 48.3097 33.53C48.2797 32.83 48.2397 32.18 48.1897 31.58C48.1497 30.97 48.1047 30.465 48.0547 30.065C48.3547 30.065 48.6997 30.08 49.0897 30.11C49.4797 30.13 49.8647 30.155 50.2447 30.185C50.6347 30.215 50.9747 30.255 51.2647 30.305C51.5647 30.345 51.7697 30.38 51.8797 30.41C51.9697 30.97 52.0447 31.6 52.1047 32.3C52.1647 32.99 52.2097 33.71 52.2397 34.46C52.2697 35.21 52.2847 35.95 52.2847 36.68C52.2847 38.66 52.1897 40.49 51.9997 42.17C51.8097 43.85 51.4497 45.315 50.9197 46.565C50.3997 47.815 49.6547 48.79 48.6847 49.49C47.7147 50.18 46.4497 50.525 44.8897 50.525ZM57.293 50.105C57.293 49.205 57.298 48.115 57.308 46.835C57.318 45.555 57.333 44.195 57.353 42.755C57.383 41.305 57.413 39.86 57.443 38.42C57.483 36.98 57.518 35.64 57.548 34.4C57.588 33.15 57.628 32.1 57.668 31.25C58.038 31.21 58.473 31.18 58.973 31.16C59.473 31.13 59.963 31.11 60.443 31.1C60.933 31.08 61.348 31.07 61.688 31.07C62.028 31.07 62.223 31.07 62.273 31.07C62.293 31.11 62.378 31.38 62.528 31.88C62.678 32.37 62.873 33.015 63.113 33.815C63.353 34.615 63.613 35.5 63.893 36.47C64.173 37.43 64.453 38.41 64.733 39.41C65.023 40.4 65.288 41.34 65.528 42.23C65.778 43.12 65.983 43.885 66.143 44.525C66.303 45.155 66.398 45.59 66.428 45.83L66.008 45.875C66.128 45.555 66.303 45.03 66.533 44.3C66.773 43.57 67.043 42.72 67.343 41.75C67.643 40.78 67.953 39.765 68.273 38.705C68.603 37.635 68.913 36.6 69.203 35.6C69.503 34.59 69.763 33.69 69.983 32.9C70.203 32.1 70.358 31.495 70.448 31.085C70.778 31.085 71.198 31.095 71.708 31.115C72.218 31.125 72.728 31.15 73.238 31.19C73.748 31.22 74.163 31.26 74.483 31.31C74.683 32.24 74.818 33.46 74.888 34.97C74.968 36.48 75.008 38.075 75.008 39.755C75.008 41.015 74.993 42.3 74.963 43.61C74.943 44.91 74.908 46.12 74.858 47.24C74.818 48.36 74.768 49.28 74.708 50C74.338 50 73.933 49.995 73.493 49.985C73.053 49.965 72.633 49.945 72.233 49.925C71.843 49.895 71.528 49.87 71.288 49.85C71.368 48.97 71.428 47.935 71.468 46.745C71.518 45.555 71.553 44.335 71.573 43.085C71.583 42.315 71.588 41.52 71.588 40.7C71.598 39.88 71.603 39.13 71.603 38.45C71.613 37.76 71.618 37.23 71.618 36.86C71.508 37.31 71.333 37.915 71.093 38.675C70.863 39.425 70.598 40.26 70.298 41.18C69.998 42.09 69.688 43.015 69.368 43.955C69.048 44.885 68.743 45.765 68.453 46.595C68.163 47.425 67.908 48.135 67.688 48.725C67.468 49.315 67.303 49.71 67.193 49.91C67.073 49.92 66.903 49.93 66.683 49.94C66.463 49.94 66.283 49.94 66.143 49.94C65.913 49.94 65.678 49.93 65.438 49.91C65.208 49.89 64.958 49.865 64.688 49.835C64.668 49.725 64.598 49.445 64.478 48.995C64.358 48.545 64.203 47.97 64.013 47.27C63.823 46.56 63.613 45.785 63.383 44.945C63.153 44.105 62.918 43.245 62.678 42.365C62.438 41.475 62.203 40.62 61.973 39.8C61.743 38.98 61.533 38.24 61.343 37.58C61.163 36.92 61.013 36.4 60.893 36.02C60.893 37.01 60.893 38.095 60.893 39.275C60.903 40.445 60.908 41.625 60.908 42.815C60.908 43.995 60.908 45.1 60.908 46.13C60.908 47.15 60.908 48.01 60.908 48.71C60.908 49.41 60.908 49.85 60.908 50.03C60.638 50.04 60.293 50.05 59.873 50.06C59.463 50.08 59.028 50.09 58.568 50.09C58.118 50.1 57.693 50.105 57.293 50.105ZM80.0262 50.105C80.0262 49.205 80.0312 48.115 80.0412 46.835C80.0512 45.555 80.0662 44.195 80.0862 42.755C80.1162 41.305 80.1462 39.86 80.1762 38.42C80.2162 36.98 80.2512 35.64 80.2812 34.4C80.3212 33.15 80.3612 32.1 80.4012 31.25C80.7712 31.21 81.2062 31.18 81.7062 31.16C82.2062 31.13 82.6962 31.11 83.1762 31.1C83.6662 31.08 84.0812 31.07 84.4212 31.07C84.7612 31.07 84.9562 31.07 85.0062 31.07C85.0262 31.11 85.1112 31.38 85.2612 31.88C85.4112 32.37 85.6062 33.015 85.8462 33.815C86.0862 34.615 86.3462 35.5 86.6262 36.47C86.9062 37.43 87.1862 38.41 87.4662 39.41C87.7562 40.4 88.0212 41.34 88.2612 42.23C88.5112 43.12 88.7162 43.885 88.8762 44.525C89.0362 45.155 89.1312 45.59 89.1612 45.83L88.7412 45.875C88.8612 45.555 89.0362 45.03 89.2662 44.3C89.5062 43.57 89.7762 42.72 90.0762 41.75C90.3762 40.78 90.6862 39.765 91.0062 38.705C91.3362 37.635 91.6462 36.6 91.9362 35.6C92.2362 34.59 92.4962 33.69 92.7162 32.9C92.9362 32.1 93.0912 31.495 93.1812 31.085C93.5112 31.085 93.9312 31.095 94.4412 31.115C94.9512 31.125 95.4612 31.15 95.9712 31.19C96.4812 31.22 96.8962 31.26 97.2162 31.31C97.4162 32.24 97.5512 33.46 97.6212 34.97C97.7012 36.48 97.7412 38.075 97.7412 39.755C97.7412 41.015 97.7262 42.3 97.6962 43.61C97.6762 44.91 97.6412 46.12 97.5912 47.24C97.5512 48.36 97.5012 49.28 97.4412 50C97.0712 50 96.6662 49.995 96.2262 49.985C95.7862 49.965 95.3662 49.945 94.9662 49.925C94.5762 49.895 94.2612 49.87 94.0212 49.85C94.1012 48.97 94.1612 47.935 94.2012 46.745C94.2512 45.555 94.2862 44.335 94.3062 43.085C94.3162 42.315 94.3212 41.52 94.3212 40.7C94.3312 39.88 94.3362 39.13 94.3362 38.45C94.3462 37.76 94.3512 37.23 94.3512 36.86C94.2412 37.31 94.0662 37.915 93.8262 38.675C93.5962 39.425 93.3312 40.26 93.0312 41.18C92.7312 42.09 92.4212 43.015 92.1012 43.955C91.7812 44.885 91.4762 45.765 91.1862 46.595C90.8962 47.425 90.6412 48.135 90.4212 48.725C90.2012 49.315 90.0362 49.71 89.9262 49.91C89.8062 49.92 89.6362 49.93 89.4162 49.94C89.1962 49.94 89.0162 49.94 88.8762 49.94C88.6462 49.94 88.4112 49.93 88.1712 49.91C87.9412 49.89 87.6912 49.865 87.4212 49.835C87.4012 49.725 87.3312 49.445 87.2112 48.995C87.0912 48.545 86.9362 47.97 86.7462 47.27C86.5562 46.56 86.3462 45.785 86.1162 44.945C85.8862 44.105 85.6512 43.245 85.4112 42.365C85.1712 41.475 84.9362 40.62 84.7062 39.8C84.4762 38.98 84.2662 38.24 84.0762 37.58C83.8962 36.92 83.7462 36.4 83.6262 36.02C83.6262 37.01 83.6262 38.095 83.6262 39.275C83.6362 40.445 83.6412 41.625 83.6412 42.815C83.6412 43.995 83.6412 45.1 83.6412 46.13C83.6412 47.15 83.6412 48.01 83.6412 48.71C83.6412 49.41 83.6412 49.85 83.6412 50.03C83.3712 50.04 83.0262 50.05 82.6062 50.06C82.1962 50.08 81.7612 50.09 81.3012 50.09C80.8512 50.1 80.4262 50.105 80.0262 50.105ZM107.589 41.96C107.379 41.65 107.114 41.225 106.794 40.685C106.484 40.145 106.144 39.535 105.774 38.855C105.414 38.175 105.044 37.465 104.664 36.725C104.284 35.985 103.914 35.255 103.554 34.535C103.194 33.805 102.869 33.13 102.579 32.51C102.289 31.89 102.054 31.365 101.874 30.935C102.564 30.675 103.229 30.49 103.869 30.38C104.519 30.26 105.074 30.19 105.534 30.17C105.604 30.37 105.734 30.715 105.924 31.205C106.124 31.685 106.359 32.25 106.629 32.9C106.899 33.54 107.184 34.2 107.484 34.88C107.784 35.55 108.069 36.185 108.339 36.785C108.619 37.385 108.859 37.88 109.059 38.27C109.179 38.02 109.364 37.64 109.614 37.13C109.864 36.62 110.149 36.045 110.469 35.405C110.789 34.755 111.114 34.105 111.444 33.455C111.784 32.805 112.094 32.21 112.374 31.67C112.654 31.12 112.874 30.7 113.034 30.41C113.464 30.46 113.894 30.56 114.324 30.71C114.754 30.86 115.154 31.03 115.524 31.22C115.904 31.4 116.224 31.575 116.484 31.745C116.054 32.345 115.544 33.13 114.954 34.1C114.374 35.07 113.734 36.2 113.034 37.49C112.334 38.77 111.599 40.18 110.829 41.72C110.839 42.14 110.849 42.645 110.859 43.235C110.879 43.815 110.889 44.385 110.889 44.945C110.899 45.495 110.904 45.955 110.904 46.325C110.904 46.765 110.904 47.245 110.904 47.765C110.904 48.275 110.904 48.73 110.904 49.13C110.904 49.53 110.904 49.795 110.904 49.925C110.784 49.955 110.579 49.98 110.289 50C109.999 50.03 109.684 50.045 109.344 50.045C108.984 50.045 108.619 50.03 108.249 50C107.879 49.97 107.559 49.935 107.289 49.895C107.289 49.455 107.299 48.905 107.319 48.245C107.339 47.575 107.364 46.865 107.394 46.115C107.424 45.355 107.454 44.61 107.484 43.88C107.524 43.15 107.559 42.51 107.589 41.96Z" fill="black"/>
</svg>
