<svg width="401" height="106" viewBox="0 0 401 106" fill="none" xmlns="http://www.w3.org/2000/svg">
<path d="M22.6065 44.45C22.2865 43.45 21.9365 42.34 21.5565 41.12C21.1965 39.9 20.8265 38.66 20.4465 37.4C20.0865 36.12 19.7465 34.88 19.4265 33.68C19.1265 32.48 18.8465 31.38 18.5865 30.38C18.3465 29.38 18.1765 28.55 18.0765 27.89L19.2165 27.74C19.1365 28.02 18.9665 28.53 18.7065 29.27C18.4465 29.99 18.1365 30.86 17.7765 31.88C17.4165 32.9 17.0165 33.99 16.5765 35.15C16.1565 36.29 15.7165 37.42 15.2565 38.54C14.8165 39.66 14.3965 40.7 13.9965 41.66C13.6165 42.6 13.2865 43.38 13.0065 44L2.38648 43.58C2.20648 41.98 2.01648 40.07 1.81648 37.85C1.63648 35.61 1.45648 33.15 1.27648 30.47C1.09648 27.77 0.936478 24.93 0.796478 21.95C0.656478 18.97 0.546478 15.91 0.466478 12.77C0.386478 9.63 0.346478 6.51 0.346478 3.41L10.7865 3.8C10.7865 5.5 10.7665 7.42 10.7265 9.56C10.6865 11.68 10.6365 13.87 10.5765 16.13C10.5365 18.37 10.4965 20.56 10.4565 22.7C10.4165 24.84 10.3765 26.79 10.3365 28.55C10.3165 30.31 10.3165 31.76 10.3365 32.9L9.79648 33.44C10.0165 32.84 10.2865 32.02 10.6065 30.98C10.9465 29.92 11.3165 28.75 11.7165 27.47C12.1165 26.17 12.5165 24.83 12.9165 23.45C13.3165 22.07 13.6865 20.72 14.0265 19.4C14.3665 18.08 14.6565 16.89 14.8965 15.83C15.1365 14.75 15.2765 13.88 15.3165 13.22L22.3965 13.07C22.4165 13.45 22.4965 14.19 22.6365 15.29C22.7965 16.37 22.9965 17.66 23.2365 19.16C23.4965 20.66 23.7765 22.24 24.0765 23.9C24.3765 25.54 24.6665 27.14 24.9465 28.7C25.2465 30.24 25.5265 31.61 25.7865 32.81C26.0665 33.99 26.3065 34.84 26.5065 35.36L25.1865 35.45C25.5665 33.37 25.8965 30.92 26.1765 28.1C26.4765 25.28 26.7265 22.35 26.9265 19.31C27.1265 16.27 27.2665 13.37 27.3465 10.61C27.4465 7.83 27.4965 5.47 27.4965 3.53L36.9465 2.57C36.9465 6.05 36.8065 9.59 36.5265 13.19C36.2465 16.79 35.8865 20.27 35.4465 23.63C35.0065 26.99 34.5565 30.06 34.0965 32.84C33.6365 35.62 33.2165 37.95 32.8365 39.83C32.4565 41.69 32.1965 42.93 32.0565 43.55L22.6065 44.45ZM52.959 44.33C52.499 44.41 51.849 44.47 51.009 44.51C50.189 44.55 49.339 44.57 48.459 44.57C47.419 44.57 46.449 44.53 45.549 44.45C44.649 44.39 43.989 44.28 43.569 44.12C43.729 42.92 43.869 41.36 43.989 39.44C44.129 37.5 44.239 35.33 44.319 32.93C44.419 30.53 44.469 28.01 44.469 25.37C44.469 22.67 44.419 19.92 44.319 17.12C44.239 14.32 44.129 11.62 43.989 9.02C43.849 6.4 43.719 4.01 43.599 1.85C43.739 1.79 44.179 1.7 44.919 1.58C45.659 1.46 46.519 1.34 47.499 1.22C48.479 1.08 49.409 0.959997 50.289 0.859998C51.169 0.759998 51.829 0.709998 52.269 0.709998C52.589 2.21 52.869 4 53.109 6.08C53.349 8.16 53.549 10.44 53.709 12.92C53.869 15.38 53.979 17.96 54.039 20.66C54.719 19.9 55.579 19.22 56.619 18.62C57.659 18 58.789 17.52 60.009 17.18C61.249 16.82 62.479 16.64 63.699 16.64C66.139 16.64 68.009 17.11 69.309 18.05C70.609 18.97 71.509 20.32 72.009 22.1C72.529 23.86 72.789 26.01 72.789 28.55C72.789 30.15 72.719 31.87 72.579 33.71C72.459 35.55 72.299 37.36 72.099 39.14C71.899 40.92 71.679 42.52 71.439 43.94C70.739 44.04 70.019 44.12 69.279 44.18C68.539 44.24 67.799 44.27 67.059 44.27C66.239 44.27 65.429 44.23 64.629 44.15C63.849 44.09 63.139 44 62.499 43.88C62.639 42.98 62.789 41.92 62.949 40.7C63.109 39.48 63.259 38.23 63.399 36.95C63.539 35.65 63.649 34.42 63.729 33.26C63.829 32.08 63.879 31.08 63.879 30.26C63.879 29.08 63.759 28.08 63.519 27.26C63.299 26.44 62.929 25.82 62.409 25.4C61.909 24.96 61.229 24.74 60.369 24.74C59.629 24.74 58.929 24.88 58.269 25.16C57.609 25.42 56.999 25.76 56.439 26.18C55.899 26.58 55.419 27 54.999 27.44C54.579 27.86 54.249 28.23 54.009 28.55C54.009 30.61 53.959 32.67 53.859 34.73C53.759 36.77 53.629 38.63 53.469 40.31C53.309 41.99 53.139 43.33 52.959 44.33ZM92.6504 44.51C90.1904 44.51 87.9404 44.18 85.9004 43.52C83.8604 42.84 82.2304 41.75 81.0104 40.25C79.8104 38.73 79.2104 36.72 79.2104 34.22C79.2104 31.72 79.9104 29.71 81.3104 28.19C82.7304 26.65 84.5904 25.54 86.8904 24.86C89.2104 24.16 91.7004 23.81 94.3604 23.81C95.4004 23.81 96.4004 23.89 97.3604 24.05C98.3204 24.21 99.1604 24.4 99.8804 24.62C100.62 24.84 101.15 25.05 101.47 25.25C101.45 24.73 101.34 24.18 101.14 23.6C100.96 23.02 100.7 22.53 100.36 22.13C99.7604 21.31 98.9404 20.63 97.9004 20.09C96.8804 19.53 95.5304 19.25 93.8504 19.25C92.1504 19.25 90.6504 19.64 89.3504 20.42C88.0504 21.18 87.0604 22.04 86.3804 23L79.0604 18.29C79.9604 17.01 81.1704 15.89 82.6904 14.93C84.2304 13.97 85.9704 13.22 87.9104 12.68C89.8704 12.14 91.9204 11.87 94.0604 11.87C97.6004 11.87 100.47 12.45 102.67 13.61C104.87 14.77 106.5 16.39 107.56 18.47C108.06 19.47 108.47 20.57 108.79 21.77C109.11 22.97 109.33 24.35 109.45 25.91C109.53 27.25 109.59 28.5 109.63 29.66C109.67 30.82 109.71 31.92 109.75 32.96C109.79 34.48 109.96 35.47 110.26 35.93C110.56 36.39 110.99 36.62 111.55 36.62C112.07 36.62 112.53 36.48 112.93 36.2C113.35 35.9 113.62 35.51 113.74 35.03L116.86 41C116.64 41.92 116.02 42.69 115 43.31C113.98 43.93 112.69 44.24 111.13 44.24C109.99 44.24 108.91 44.05 107.89 43.67C106.87 43.27 106.03 42.74 105.37 42.08C104.71 41.4 104.32 40.63 104.2 39.77C103.88 40.53 103.21 41.28 102.19 42.02C101.17 42.74 99.8604 43.34 98.2604 43.82C96.6604 44.28 94.7904 44.51 92.6504 44.51ZM94.6604 37.46C95.6004 37.46 96.5604 37.32 97.5404 37.04C98.5404 36.74 99.4404 36.37 100.24 35.93C101.06 35.49 101.69 35.04 102.13 34.58C102.09 33.96 102.05 33.32 102.01 32.66C101.99 32 101.99 31.44 102.01 30.98C101.57 30.8 100.73 30.61 99.4904 30.41C98.2704 30.19 96.9904 30.08 95.6504 30.08C94.4304 30.08 93.2904 30.21 92.2304 30.47C91.1704 30.73 90.3004 31.13 89.6204 31.67C88.9604 32.21 88.6304 32.91 88.6304 33.77C88.6304 34.69 88.8804 35.42 89.3804 35.96C89.8804 36.5 90.5804 36.89 91.4804 37.13C92.3804 37.35 93.4404 37.46 94.6604 37.46ZM141.916 40.07C141.536 40.81 140.936 41.6 140.116 42.44C139.316 43.26 138.266 43.96 136.966 44.54C135.686 45.14 134.126 45.44 132.286 45.44C129.866 45.44 127.886 44.93 126.346 43.91C124.826 42.89 123.696 41.53 122.956 39.83C122.236 38.13 121.876 36.27 121.876 34.25C121.876 33.15 121.886 31.98 121.906 30.74C121.946 29.48 121.986 28.24 122.026 27.02C122.066 25.78 122.106 24.61 122.146 23.51C122.206 22.39 122.256 21.41 122.296 20.57C122.356 19.73 122.396 19.08 122.416 18.62C120.836 18.78 119.376 18.96 118.036 19.16C116.696 19.34 115.766 19.49 115.246 19.61C115.046 18.49 114.896 17.35 114.796 16.19C114.696 15.03 114.616 14.02 114.556 13.16C114.516 12.3 114.496 11.77 114.496 11.57C115.656 11.41 116.896 11.27 118.216 11.15C119.536 11.01 120.926 10.91 122.386 10.85C122.366 10.37 122.346 9.62 122.326 8.6C122.306 7.58 122.276 6.66 122.236 5.84C122.216 5.1 122.176 4.36 122.116 3.62C122.056 2.86 122.006 2.25 121.966 1.79L130.846 1.01C130.846 1.25 130.846 1.81 130.846 2.69C130.866 3.57 130.876 4.63 130.876 5.87C130.876 6.49 130.886 7.21 130.906 8.03C130.926 8.83 130.946 9.62 130.966 10.4C131.626 10.36 132.396 10.32 133.276 10.28C134.156 10.24 134.856 10.21 135.376 10.19C136.216 10.15 136.976 10.13 137.656 10.13C138.336 10.11 138.896 10.1 139.336 10.1C139.796 10.1 140.106 10.11 140.266 10.13C140.386 11.07 140.466 12.27 140.506 13.73C140.546 15.17 140.566 16.45 140.566 17.57C140.366 17.55 139.716 17.56 138.616 17.6C137.516 17.62 136.436 17.66 135.376 17.72C134.636 17.74 133.816 17.78 132.916 17.84C132.016 17.9 131.306 17.96 130.786 18.02C130.766 18.44 130.736 19.02 130.696 19.76C130.676 20.48 130.646 21.3 130.606 22.22C130.586 23.12 130.556 24.06 130.516 25.04C130.496 26 130.476 26.93 130.456 27.83C130.436 28.73 130.426 29.53 130.426 30.23C130.426 31.55 130.486 32.74 130.606 33.8C130.746 34.84 131.036 35.67 131.476 36.29C131.936 36.89 132.636 37.19 133.576 37.19C134.196 37.19 134.726 37.01 135.166 36.65C135.606 36.29 135.966 35.87 136.246 35.39C136.546 34.89 136.806 34.45 137.026 34.07C137.286 34.43 137.646 34.91 138.106 35.51C138.586 36.09 139.086 36.7 139.606 37.34C140.146 37.98 140.626 38.55 141.046 39.05C141.486 39.55 141.776 39.89 141.916 40.07ZM152.712 16.43C152.132 16.07 151.502 15.56 150.822 14.9C150.142 14.24 149.612 13.58 149.232 12.92C149.572 12.72 150.032 12.4 150.612 11.96C151.212 11.52 151.772 11.05 152.292 10.55C152.812 10.05 153.102 9.61 153.162 9.23C153.042 9.35 152.832 9.46 152.532 9.56C152.252 9.66 151.912 9.71 151.512 9.71C150.212 9.71 149.222 9.32 148.542 8.54C147.862 7.74 147.522 6.81 147.522 5.75C147.522 4.15 148.072 2.89 149.172 1.97C150.292 1.03 151.632 0.559998 153.192 0.559998C154.972 0.559998 156.442 1.08 157.602 2.12C158.762 3.16 159.342 4.51 159.342 6.17C159.342 7.79 159.032 9.27 158.412 10.61C157.792 11.95 156.972 13.11 155.952 14.09C154.952 15.07 153.872 15.85 152.712 16.43ZM174.985 46.37C172.645 46.37 170.495 46.08 168.535 45.5C166.595 44.94 164.945 44.28 163.585 43.52C162.245 42.74 161.275 42.04 160.675 41.42C160.795 41.04 161.025 40.49 161.365 39.77C161.725 39.03 162.145 38.23 162.625 37.37C163.105 36.51 163.585 35.71 164.065 34.97C164.545 34.23 164.975 33.68 165.355 33.32C166.315 34.14 167.355 34.95 168.475 35.75C169.595 36.53 170.745 37.17 171.925 37.67C173.105 38.17 174.205 38.42 175.225 38.42C176.025 38.42 176.745 38.32 177.385 38.12C178.025 37.9 178.525 37.58 178.885 37.16C179.265 36.74 179.455 36.22 179.455 35.6C179.455 34.88 179.105 34.19 178.405 33.53C177.725 32.85 176.845 32.21 175.765 31.61C174.685 31.01 173.555 30.47 172.375 29.99C170.755 29.33 169.245 28.56 167.845 27.68C166.445 26.78 165.315 25.68 164.455 24.38C163.595 23.06 163.165 21.42 163.165 19.46C163.165 17.46 163.755 15.78 164.935 14.42C166.115 13.06 167.655 12.03 169.555 11.33C171.475 10.63 173.525 10.28 175.705 10.28C177.765 10.28 179.855 10.57 181.975 11.15C184.095 11.71 185.825 12.52 187.165 13.58C187.045 13.96 186.785 14.54 186.385 15.32C186.005 16.1 185.535 16.94 184.975 17.84C184.435 18.72 183.855 19.53 183.235 20.27C182.415 19.57 181.385 18.9 180.145 18.26C178.905 17.62 177.605 17.3 176.245 17.3C175.565 17.3 174.885 17.37 174.205 17.51C173.545 17.65 172.995 17.9 172.555 18.26C172.135 18.62 171.925 19.11 171.925 19.73C171.925 20.33 172.155 20.87 172.615 21.35C173.075 21.81 173.745 22.26 174.625 22.7C175.525 23.14 176.575 23.6 177.775 24.08C178.975 24.56 180.195 25.13 181.435 25.79C182.675 26.43 183.815 27.2 184.855 28.1C185.915 29 186.765 30.05 187.405 31.25C188.045 32.43 188.365 33.79 188.365 35.33C188.365 37.79 187.755 39.84 186.535 41.48C185.315 43.12 183.685 44.34 181.645 45.14C179.625 45.96 177.405 46.37 174.985 46.37ZM226.029 43.94C225.689 43.96 225.039 44 224.079 44.06C223.139 44.14 222.139 44.18 221.079 44.18C220.299 44.18 219.509 44.15 218.709 44.09C217.929 44.05 217.159 43.99 216.399 43.91C216.499 43.39 216.609 42.33 216.729 40.73C216.869 39.11 216.999 37.21 217.119 35.03C217.259 32.85 217.389 30.6 217.509 28.28C217.649 25.94 217.749 23.75 217.809 21.71C217.889 19.67 217.929 18.03 217.929 16.79C218.329 16.77 218.919 16.74 219.699 16.7C220.479 16.66 221.319 16.63 222.219 16.61C223.119 16.57 223.979 16.54 224.799 16.52C225.619 16.48 226.269 16.46 226.749 16.46C226.849 17.08 226.929 18.08 226.989 19.46C227.049 20.84 227.079 22.38 227.079 24.08C227.079 25.9 227.049 27.83 226.989 29.87C226.949 31.91 226.879 33.89 226.779 35.81C226.699 37.71 226.589 39.39 226.449 40.85C226.309 42.29 226.169 43.32 226.029 43.94ZM222.669 12.59C220.869 12.59 219.359 12.07 218.139 11.03C216.919 9.97 216.309 8.58 216.309 6.86C216.309 5.68 216.599 4.67 217.179 3.83C217.759 2.99 218.509 2.35 219.429 1.91C220.369 1.45 221.359 1.22 222.399 1.22C224.059 1.22 225.429 1.76 226.509 2.84C227.609 3.92 228.159 5.31 228.159 7.01C228.159 8.59 227.639 9.92 226.599 11C225.559 12.06 224.249 12.59 222.669 12.59ZM246.753 44.39C246.153 44.41 245.413 44.41 244.533 44.39C243.653 44.39 242.753 44.38 241.833 44.36C241.093 44.34 240.243 44.31 239.283 44.27C238.323 44.23 237.653 44.19 237.273 44.15C237.453 42.47 237.603 40.57 237.723 38.45C237.863 36.33 237.973 33.98 238.053 31.4C238.133 28.82 238.193 26 238.233 22.94C238.273 19.88 238.293 16.57 238.293 13.01C239.053 12.91 239.953 12.83 240.993 12.77C242.033 12.71 243.083 12.68 244.143 12.68C244.883 12.68 245.593 12.7 246.273 12.74C246.973 12.76 247.593 12.82 248.133 12.92C248.133 13.1 248.133 13.47 248.133 14.03C248.153 14.57 248.153 15.17 248.133 15.83C248.133 16.47 248.123 17.05 248.103 17.57C248.623 16.81 249.473 16.02 250.653 15.2C251.833 14.36 253.203 13.65 254.763 13.07C256.323 12.49 257.933 12.2 259.593 12.2C262.653 12.2 264.993 12.82 266.613 14.06C268.233 15.28 269.343 17.12 269.943 19.58C270.543 22.02 270.843 25.08 270.843 28.76C270.843 30.04 270.803 31.54 270.723 33.26C270.663 34.96 270.563 36.75 270.423 38.63C270.283 40.51 270.103 42.33 269.883 44.09C269.483 44.13 268.843 44.16 267.963 44.18C267.103 44.22 266.193 44.24 265.233 44.24C264.213 44.24 263.243 44.22 262.323 44.18C261.403 44.16 260.723 44.13 260.283 44.09C260.503 42.97 260.743 41.57 261.003 39.89C261.263 38.21 261.483 36.42 261.663 34.52C261.843 32.6 261.933 30.77 261.933 29.03C261.933 27.35 261.793 25.89 261.513 24.65C261.253 23.41 260.743 22.45 259.983 21.77C259.243 21.07 258.143 20.72 256.683 20.72C255.483 20.72 254.333 20.93 253.233 21.35C252.133 21.77 251.133 22.29 250.233 22.91C249.333 23.51 248.563 24.1 247.923 24.68C247.903 27.84 247.823 30.7 247.683 33.26C247.543 35.8 247.393 38.01 247.233 39.89C247.073 41.75 246.913 43.25 246.753 44.39ZM291.636 46.37C289.296 46.37 287.146 46.08 285.186 45.5C283.246 44.94 281.596 44.28 280.236 43.52C278.896 42.74 277.926 42.04 277.326 41.42C277.446 41.04 277.676 40.49 278.016 39.77C278.376 39.03 278.796 38.23 279.276 37.37C279.756 36.51 280.236 35.71 280.716 34.97C281.196 34.23 281.626 33.68 282.006 33.32C282.966 34.14 284.006 34.95 285.126 35.75C286.246 36.53 287.396 37.17 288.576 37.67C289.756 38.17 290.856 38.42 291.876 38.42C292.676 38.42 293.396 38.32 294.036 38.12C294.676 37.9 295.176 37.58 295.536 37.16C295.916 36.74 296.106 36.22 296.106 35.6C296.106 34.88 295.756 34.19 295.056 33.53C294.376 32.85 293.496 32.21 292.416 31.61C291.336 31.01 290.206 30.47 289.026 29.99C287.406 29.33 285.896 28.56 284.496 27.68C283.096 26.78 281.966 25.68 281.106 24.38C280.246 23.06 279.816 21.42 279.816 19.46C279.816 17.46 280.406 15.78 281.586 14.42C282.766 13.06 284.306 12.03 286.206 11.33C288.126 10.63 290.176 10.28 292.356 10.28C294.416 10.28 296.506 10.57 298.626 11.15C300.746 11.71 302.476 12.52 303.816 13.58C303.696 13.96 303.436 14.54 303.036 15.32C302.656 16.1 302.186 16.94 301.626 17.84C301.086 18.72 300.506 19.53 299.886 20.27C299.066 19.57 298.036 18.9 296.796 18.26C295.556 17.62 294.256 17.3 292.896 17.3C292.216 17.3 291.536 17.37 290.856 17.51C290.196 17.65 289.646 17.9 289.206 18.26C288.786 18.62 288.576 19.11 288.576 19.73C288.576 20.33 288.806 20.87 289.266 21.35C289.726 21.81 290.396 22.26 291.276 22.7C292.176 23.14 293.226 23.6 294.426 24.08C295.626 24.56 296.846 25.13 298.086 25.79C299.326 26.43 300.466 27.2 301.506 28.1C302.566 29 303.416 30.05 304.056 31.25C304.696 32.43 305.016 33.79 305.016 35.33C305.016 37.79 304.406 39.84 303.186 41.48C301.966 43.12 300.336 44.34 298.296 45.14C296.276 45.96 294.056 46.37 291.636 46.37ZM321.823 43.94C321.483 43.96 320.833 44 319.873 44.06C318.933 44.14 317.933 44.18 316.873 44.18C316.093 44.18 315.303 44.15 314.503 44.09C313.723 44.05 312.953 43.99 312.193 43.91C312.293 43.39 312.403 42.33 312.523 40.73C312.663 39.11 312.793 37.21 312.913 35.03C313.053 32.85 313.183 30.6 313.303 28.28C313.443 25.94 313.543 23.75 313.603 21.71C313.683 19.67 313.723 18.03 313.723 16.79C314.123 16.77 314.713 16.74 315.493 16.7C316.273 16.66 317.113 16.63 318.013 16.61C318.913 16.57 319.773 16.54 320.593 16.52C321.413 16.48 322.063 16.46 322.543 16.46C322.643 17.08 322.723 18.08 322.783 19.46C322.843 20.84 322.873 22.38 322.873 24.08C322.873 25.9 322.843 27.83 322.783 29.87C322.743 31.91 322.673 33.89 322.573 35.81C322.493 37.71 322.383 39.39 322.243 40.85C322.103 42.29 321.963 43.32 321.823 43.94ZM318.463 12.59C316.663 12.59 315.153 12.07 313.933 11.03C312.713 9.97 312.103 8.58 312.103 6.86C312.103 5.68 312.393 4.67 312.973 3.83C313.553 2.99 314.303 2.35 315.223 1.91C316.163 1.45 317.153 1.22 318.193 1.22C319.853 1.22 321.223 1.76 322.303 2.84C323.403 3.92 323.953 5.31 323.953 7.01C323.953 8.59 323.433 9.92 322.393 11C321.353 12.06 320.043 12.59 318.463 12.59ZM354.007 43.91C353.967 43.63 353.937 43.23 353.917 42.71C353.897 42.19 353.877 41.66 353.857 41.12C353.857 40.56 353.857 40.11 353.857 39.77C353.617 40.11 353.237 40.52 352.717 41C352.217 41.46 351.567 41.92 350.767 42.38C349.967 42.84 348.997 43.23 347.857 43.55C346.717 43.85 345.387 44 343.867 44C341.347 44 339.177 43.39 337.357 42.17C335.537 40.95 334.137 39.29 333.157 37.19C332.177 35.07 331.687 32.69 331.687 30.05C331.687 27.45 332.177 25.03 333.157 22.79C334.157 20.53 335.647 18.71 337.627 17.33C339.607 15.93 342.097 15.23 345.097 15.23C346.597 15.23 347.957 15.4 349.177 15.74C350.417 16.08 351.467 16.51 352.327 17.03C353.187 17.53 353.797 18.04 354.157 18.56C354.217 17.46 354.297 16.2 354.397 14.78C354.497 13.34 354.607 11.87 354.727 10.37C354.867 8.85 354.997 7.41 355.117 6.05C355.237 4.69 355.337 3.53 355.417 2.57C355.517 1.59 355.587 0.939998 355.627 0.619997C356.787 0.619997 358.087 0.689998 359.527 0.83C360.987 0.949998 362.277 1.16 363.397 1.46C363.057 6.04 362.787 10.62 362.587 15.2C362.387 19.76 362.247 24.43 362.167 29.21C362.107 33.97 362.077 38.96 362.077 44.18C361.617 44.18 360.857 44.17 359.797 44.15C358.757 44.13 357.687 44.1 356.587 44.06C355.487 44.02 354.627 43.97 354.007 43.91ZM346.357 35.27C347.237 35.27 348.047 35.17 348.787 34.97C349.527 34.77 350.207 34.5 350.827 34.16C351.447 33.8 351.987 33.42 352.447 33.02C352.927 32.6 353.327 32.18 353.647 31.76C353.647 31.36 353.647 30.87 353.647 30.29C353.647 29.69 353.647 29.09 353.647 28.49C353.667 27.89 353.677 27.32 353.677 26.78C353.697 26.24 353.717 25.82 353.737 25.52C353.297 25.1 352.687 24.69 351.907 24.29C351.127 23.89 350.267 23.57 349.327 23.33C348.407 23.07 347.467 22.94 346.507 22.94C344.547 22.94 343.017 23.53 341.917 24.71C340.837 25.87 340.297 27.38 340.297 29.24C340.297 31.2 340.817 32.7 341.857 33.74C342.917 34.76 344.417 35.27 346.357 35.27ZM400.036 38.63C399.476 39.31 398.776 39.98 397.936 40.64C397.096 41.3 396.086 41.9 394.906 42.44C393.746 42.96 392.416 43.38 390.916 43.7C389.416 44 387.736 44.15 385.876 44.15C382.856 44.15 380.176 43.58 377.836 42.44C375.496 41.28 373.666 39.57 372.346 37.31C371.046 35.03 370.396 32.2 370.396 28.82C370.396 25.44 371.076 22.5 372.436 20C373.796 17.48 375.696 15.53 378.136 14.15C380.576 12.75 383.426 12.05 386.686 12.05C390.806 12.05 394.046 13.2 396.406 15.5C398.786 17.78 400.026 20.94 400.126 24.98C400.146 25.72 400.136 26.39 400.096 26.99C400.056 27.59 399.976 28.23 399.856 28.91C399.556 28.89 398.916 28.87 397.936 28.85C396.956 28.83 395.846 28.81 394.606 28.79C393.386 28.75 392.226 28.72 391.126 28.7C390.046 28.68 389.246 28.67 388.726 28.67C386.986 28.67 385.296 28.75 383.656 28.91C382.036 29.07 380.676 29.24 379.576 29.42C379.576 29.78 379.596 30.14 379.636 30.5C379.696 30.84 379.776 31.17 379.876 31.49C380.136 32.31 380.586 33.01 381.226 33.59C381.886 34.17 382.666 34.62 383.566 34.94C384.486 35.24 385.456 35.39 386.476 35.39C387.396 35.39 388.236 35.28 388.996 35.06C389.776 34.82 390.486 34.51 391.126 34.13C391.766 33.75 392.346 33.34 392.866 32.9C393.406 32.44 393.906 31.99 394.366 31.55C394.486 31.65 394.796 31.95 395.296 32.45C395.796 32.93 396.356 33.53 396.976 34.25C397.596 34.95 398.186 35.69 398.746 36.47C399.306 37.25 399.736 37.97 400.036 38.63ZM379.906 23.81C380.806 23.67 381.916 23.54 383.236 23.42C384.556 23.3 386.086 23.24 387.826 23.24C388.766 23.24 389.596 23.25 390.316 23.27C391.056 23.29 391.576 23.31 391.876 23.33C391.876 22.91 391.816 22.45 391.696 21.95C391.536 21.27 391.216 20.62 390.736 20C390.276 19.38 389.676 18.88 388.936 18.5C388.216 18.12 387.346 17.93 386.326 17.93C385.046 17.93 383.926 18.21 382.966 18.77C382.026 19.33 381.296 20.06 380.776 20.96C380.256 21.86 379.966 22.81 379.906 23.81ZM27.4414 104.66C22.1414 104.66 18.1514 103.26 15.4714 100.46C12.7914 97.64 11.4514 93.55 11.4514 88.19C11.4514 84.61 12.1414 81.64 13.5214 79.28C14.9014 76.9 16.8114 75.11 19.2514 73.91C21.7114 72.71 24.5514 72.11 27.7714 72.11C31.0514 72.11 33.7714 72.86 35.9314 74.36C38.1114 75.86 39.7414 77.93 40.8214 80.57C41.9014 83.21 42.4414 86.26 42.4414 89.72C42.4414 92.74 41.8614 95.37 40.7014 97.61C39.5414 99.85 37.8414 101.59 35.6014 102.83C33.3814 104.05 30.6614 104.66 27.4414 104.66ZM27.1114 96.05C28.2114 96.05 29.1814 95.86 30.0214 95.48C30.8814 95.1 31.6014 94.56 32.1814 93.86C32.7814 93.14 33.2314 92.3 33.5314 91.34C33.8314 90.38 33.9814 89.33 33.9814 88.19C33.9814 86.41 33.7214 84.84 33.2014 83.48C32.7014 82.1 31.9514 81.03 30.9514 80.27C29.9714 79.49 28.7514 79.1 27.2914 79.1C25.7114 79.1 24.4214 79.5 23.4214 80.3C22.4214 81.1 21.6814 82.15 21.2014 83.45C20.7414 84.73 20.5114 86.1 20.5114 87.56C20.5114 90.02 21.0714 92.05 22.1914 93.65C23.3314 95.25 24.9714 96.05 27.1114 96.05ZM69.0177 74.66C69.5177 74.48 70.2277 74.35 71.1477 74.27C72.0877 74.17 72.9977 74.12 73.8777 74.12C74.6177 74.12 75.4377 74.15 76.3377 74.21C77.2377 74.27 77.9677 74.34 78.5277 74.42C78.7877 76.04 78.9877 77.68 79.1277 79.34C79.2677 80.98 79.3377 82.6 79.3377 84.2C79.3377 87.14 79.0777 89.91 78.5577 92.51C78.0577 95.11 77.2277 97.4 76.0677 99.38C74.9077 101.36 73.3577 102.91 71.4177 104.03C69.4777 105.17 67.0877 105.74 64.2477 105.74C61.2277 105.74 58.7377 105.15 56.7777 103.97C54.8177 102.77 53.2877 101.11 52.1877 98.99C51.0877 96.85 50.3177 94.36 49.8777 91.52C49.4577 88.66 49.2477 85.58 49.2477 82.28C49.2477 80.82 49.2777 79.34 49.3377 77.84C49.4177 76.32 49.5177 74.81 49.6377 73.31C50.1577 73.27 50.8377 73.24 51.6777 73.22C52.5377 73.18 53.3177 73.17 54.0177 73.19C55.0177 73.19 56.0177 73.25 57.0177 73.37C58.0377 73.47 58.8377 73.61 59.4177 73.79C59.2777 75.15 59.1577 76.62 59.0577 78.2C58.9577 79.76 58.9077 81.33 58.9077 82.91C58.9077 85.55 59.0777 87.93 59.4177 90.05C59.7777 92.17 60.3677 93.85 61.1877 95.09C62.0077 96.33 63.1177 96.95 64.5177 96.95C65.8377 96.95 66.8877 96.39 67.6677 95.27C68.4677 94.15 69.0377 92.65 69.3777 90.77C69.7377 88.87 69.9177 86.75 69.9177 84.41C69.9177 82.65 69.8277 80.92 69.6477 79.22C69.4877 77.5 69.2777 75.98 69.0177 74.66ZM95.4997 77.12C95.9597 76.22 96.6597 75.36 97.5997 74.54C98.5597 73.72 99.6897 73.05 100.99 72.53C102.31 72.01 103.71 71.75 105.19 71.75C106.09 71.75 107 71.84 107.92 72.02C108.84 72.2 109.51 72.44 109.93 72.74L108.07 82.28C107.63 82.1 107.06 81.9 106.36 81.68C105.66 81.46 104.86 81.35 103.96 81.35C103.04 81.35 102.14 81.51 101.26 81.83C100.4 82.13 99.5997 82.56 98.8597 83.12C98.1197 83.68 97.4697 84.35 96.9097 85.13C97.1097 86.29 97.3297 87.77 97.5697 89.57C97.8297 91.37 98.0697 93.22 98.2897 95.12C98.5097 97.02 98.6897 98.75 98.8297 100.31C98.9697 101.87 99.0397 103.01 99.0397 103.73C97.6397 103.91 96.0197 104.03 94.1797 104.09C92.3397 104.15 90.5697 104.17 88.8697 104.15C88.8697 102.47 88.8197 100.56 88.7197 98.42C88.6397 96.28 88.5197 94.05 88.3597 91.73C88.1997 89.39 87.9997 87.09 87.7597 84.83C87.5397 82.55 87.2797 80.44 86.9797 78.5C86.6997 76.56 86.3997 74.91 86.0797 73.55C87.0397 73.27 88.0997 73.01 89.2597 72.77C90.4197 72.53 91.4697 72.34 92.4097 72.2C93.3497 72.04 93.9497 71.95 94.2097 71.93C94.4497 72.49 94.7197 73.32 95.0197 74.42C95.3197 75.5 95.4797 76.4 95.4997 77.12ZM137.282 104.21C137.222 103.51 137.162 102.34 137.102 100.7C137.042 99.04 136.972 97.09 136.892 94.85C136.812 92.59 136.732 90.17 136.652 87.59C136.572 84.99 136.502 82.39 136.442 79.79C136.382 77.17 136.322 74.69 136.262 72.35C136.202 70.01 136.152 67.94 136.112 66.14C136.072 64.34 136.052 62.99 136.052 62.09C136.332 62.03 137.292 61.86 138.932 61.58C140.592 61.28 142.622 60.95 145.022 60.59C145.022 61.85 145.032 63.57 145.052 65.75C145.092 67.93 145.152 70.33 145.232 72.95C145.312 75.55 145.422 78.14 145.562 80.72C146.002 80.26 146.552 79.78 147.212 79.28C147.872 78.78 148.622 78.32 149.462 77.9C150.302 77.46 151.202 77.11 152.162 76.85C153.142 76.57 154.152 76.43 155.192 76.43C157.532 76.43 159.572 76.97 161.312 78.05C163.072 79.13 164.432 80.74 165.392 82.88C166.372 85 166.862 87.62 166.862 90.74C166.862 94.8 165.782 98.02 163.622 100.4C161.482 102.76 158.582 103.94 154.922 103.94C153.482 103.94 152.192 103.75 151.052 103.37C149.932 102.97 148.992 102.51 148.232 101.99C147.492 101.45 146.962 100.98 146.642 100.58C146.662 100.96 146.682 101.44 146.702 102.02C146.742 102.6 146.772 103.13 146.792 103.61C146.832 104.09 146.852 104.41 146.852 104.57C145.132 104.59 143.422 104.57 141.722 104.51C140.022 104.45 138.542 104.35 137.282 104.21ZM146.372 93.86C146.692 94.06 147.152 94.3 147.752 94.58C148.352 94.86 149.052 95.11 149.852 95.33C150.652 95.53 151.482 95.63 152.342 95.63C154.422 95.63 155.932 95.16 156.872 94.22C157.812 93.26 158.282 91.88 158.282 90.08C158.282 89 158.112 88.01 157.772 87.11C157.432 86.19 156.902 85.46 156.182 84.92C155.462 84.38 154.522 84.11 153.362 84.11C152.082 84.11 150.962 84.33 150.002 84.77C149.042 85.21 148.232 85.74 147.572 86.36C146.932 86.98 146.422 87.54 146.042 88.04C146.042 88.2 146.052 88.48 146.072 88.88C146.092 89.26 146.112 89.7 146.132 90.2C146.172 90.7 146.202 91.2 146.222 91.7C146.262 92.2 146.292 92.64 146.312 93.02C146.332 93.4 146.352 93.68 146.372 93.86ZM189.969 104.66C184.669 104.66 180.679 103.26 177.999 100.46C175.319 97.64 173.979 93.55 173.979 88.19C173.979 84.61 174.669 81.64 176.049 79.28C177.429 76.9 179.339 75.11 181.779 73.91C184.239 72.71 187.079 72.11 190.299 72.11C193.579 72.11 196.299 72.86 198.459 74.36C200.639 75.86 202.269 77.93 203.349 80.57C204.429 83.21 204.969 86.26 204.969 89.72C204.969 92.74 204.389 95.37 203.229 97.61C202.069 99.85 200.369 101.59 198.129 102.83C195.909 104.05 193.189 104.66 189.969 104.66ZM189.639 96.05C190.739 96.05 191.709 95.86 192.549 95.48C193.409 95.1 194.129 94.56 194.709 93.86C195.309 93.14 195.759 92.3 196.059 91.34C196.359 90.38 196.509 89.33 196.509 88.19C196.509 86.41 196.249 84.84 195.729 83.48C195.229 82.1 194.479 81.03 193.479 80.27C192.499 79.49 191.279 79.1 189.819 79.1C188.239 79.1 186.949 79.5 185.949 80.3C184.949 81.1 184.209 82.15 183.729 83.45C183.269 84.73 183.039 86.1 183.039 87.56C183.039 90.02 183.599 92.05 184.719 93.65C185.859 95.25 187.499 96.05 189.639 96.05ZM235.304 100.07C234.924 100.81 234.324 101.6 233.504 102.44C232.704 103.26 231.654 103.96 230.354 104.54C229.074 105.14 227.514 105.44 225.674 105.44C223.254 105.44 221.274 104.93 219.734 103.91C218.214 102.89 217.084 101.53 216.344 99.83C215.624 98.13 215.264 96.27 215.264 94.25C215.264 93.15 215.274 91.98 215.294 90.74C215.334 89.48 215.374 88.24 215.414 87.02C215.454 85.78 215.494 84.61 215.534 83.51C215.594 82.39 215.644 81.41 215.684 80.57C215.744 79.73 215.784 79.08 215.804 78.62C214.224 78.78 212.764 78.96 211.424 79.16C210.084 79.34 209.154 79.49 208.634 79.61C208.434 78.49 208.284 77.35 208.184 76.19C208.084 75.03 208.004 74.02 207.944 73.16C207.904 72.3 207.884 71.77 207.884 71.57C209.044 71.41 210.284 71.27 211.604 71.15C212.924 71.01 214.314 70.91 215.774 70.85C215.754 70.37 215.734 69.62 215.714 68.6C215.694 67.58 215.664 66.66 215.624 65.84C215.604 65.1 215.564 64.36 215.504 63.62C215.444 62.86 215.394 62.25 215.354 61.79L224.234 61.01C224.234 61.25 224.234 61.81 224.234 62.69C224.254 63.57 224.264 64.63 224.264 65.87C224.264 66.49 224.274 67.21 224.294 68.03C224.314 68.83 224.334 69.62 224.354 70.4C225.014 70.36 225.784 70.32 226.664 70.28C227.544 70.24 228.244 70.21 228.764 70.19C229.604 70.15 230.364 70.13 231.044 70.13C231.724 70.11 232.284 70.1 232.724 70.1C233.184 70.1 233.494 70.11 233.654 70.13C233.774 71.07 233.854 72.27 233.894 73.73C233.934 75.17 233.954 76.45 233.954 77.57C233.754 77.55 233.104 77.56 232.004 77.6C230.904 77.62 229.824 77.66 228.764 77.72C228.024 77.74 227.204 77.78 226.304 77.84C225.404 77.9 224.694 77.96 224.174 78.02C224.154 78.44 224.124 79.02 224.084 79.76C224.064 80.48 224.034 81.3 223.994 82.22C223.974 83.12 223.944 84.06 223.904 85.04C223.884 86 223.864 86.93 223.844 87.83C223.824 88.73 223.814 89.53 223.814 90.23C223.814 91.55 223.874 92.74 223.994 93.8C224.134 94.84 224.424 95.67 224.864 96.29C225.324 96.89 226.024 97.19 226.964 97.19C227.584 97.19 228.114 97.01 228.554 96.65C228.994 96.29 229.354 95.87 229.634 95.39C229.934 94.89 230.194 94.45 230.414 94.07C230.674 94.43 231.034 94.91 231.494 95.51C231.974 96.09 232.474 96.7 232.994 97.34C233.534 97.98 234.014 98.55 234.434 99.05C234.874 99.55 235.164 99.89 235.304 100.07ZM265.771 100.07C265.391 100.81 264.791 101.6 263.971 102.44C263.171 103.26 262.121 103.96 260.821 104.54C259.541 105.14 257.981 105.44 256.141 105.44C253.721 105.44 251.741 104.93 250.201 103.91C248.681 102.89 247.551 101.53 246.811 99.83C246.091 98.13 245.731 96.27 245.731 94.25C245.731 93.15 245.741 91.98 245.761 90.74C245.801 89.48 245.841 88.24 245.881 87.02C245.921 85.78 245.961 84.61 246.001 83.51C246.061 82.39 246.111 81.41 246.151 80.57C246.211 79.73 246.251 79.08 246.271 78.62C244.691 78.78 243.231 78.96 241.891 79.16C240.551 79.34 239.621 79.49 239.101 79.61C238.901 78.49 238.751 77.35 238.651 76.19C238.551 75.03 238.471 74.02 238.411 73.16C238.371 72.3 238.351 71.77 238.351 71.57C239.511 71.41 240.751 71.27 242.071 71.15C243.391 71.01 244.781 70.91 246.241 70.85C246.221 70.37 246.201 69.62 246.181 68.6C246.161 67.58 246.131 66.66 246.091 65.84C246.071 65.1 246.031 64.36 245.971 63.62C245.911 62.86 245.861 62.25 245.821 61.79L254.701 61.01C254.701 61.25 254.701 61.81 254.701 62.69C254.721 63.57 254.731 64.63 254.731 65.87C254.731 66.49 254.741 67.21 254.761 68.03C254.781 68.83 254.801 69.62 254.821 70.4C255.481 70.36 256.251 70.32 257.131 70.28C258.011 70.24 258.711 70.21 259.231 70.19C260.071 70.15 260.831 70.13 261.511 70.13C262.191 70.11 262.751 70.1 263.191 70.1C263.651 70.1 263.961 70.11 264.121 70.13C264.241 71.07 264.321 72.27 264.361 73.73C264.401 75.17 264.421 76.45 264.421 77.57C264.221 77.55 263.571 77.56 262.471 77.6C261.371 77.62 260.291 77.66 259.231 77.72C258.491 77.74 257.671 77.78 256.771 77.84C255.871 77.9 255.161 77.96 254.641 78.02C254.621 78.44 254.591 79.02 254.551 79.76C254.531 80.48 254.501 81.3 254.461 82.22C254.441 83.12 254.411 84.06 254.371 85.04C254.351 86 254.331 86.93 254.311 87.83C254.291 88.73 254.281 89.53 254.281 90.23C254.281 91.55 254.341 92.74 254.461 93.8C254.601 94.84 254.891 95.67 255.331 96.29C255.791 96.89 256.491 97.19 257.431 97.19C258.051 97.19 258.581 97.01 259.021 96.65C259.461 96.29 259.821 95.87 260.101 95.39C260.401 94.89 260.661 94.45 260.881 94.07C261.141 94.43 261.501 94.91 261.961 95.51C262.441 96.09 262.941 96.7 263.461 97.34C264.001 97.98 264.481 98.55 264.901 99.05C265.341 99.55 265.631 99.89 265.771 100.07ZM284.825 104.66C279.525 104.66 275.535 103.26 272.855 100.46C270.175 97.64 268.835 93.55 268.835 88.19C268.835 84.61 269.525 81.64 270.905 79.28C272.285 76.9 274.195 75.11 276.635 73.91C279.095 72.71 281.935 72.11 285.155 72.11C288.435 72.11 291.155 72.86 293.315 74.36C295.495 75.86 297.125 77.93 298.205 80.57C299.285 83.21 299.825 86.26 299.825 89.72C299.825 92.74 299.245 95.37 298.085 97.61C296.925 99.85 295.225 101.59 292.985 102.83C290.765 104.05 288.045 104.66 284.825 104.66ZM284.495 96.05C285.595 96.05 286.565 95.86 287.405 95.48C288.265 95.1 288.985 94.56 289.565 93.86C290.165 93.14 290.615 92.3 290.915 91.34C291.215 90.38 291.365 89.33 291.365 88.19C291.365 86.41 291.105 84.84 290.585 83.48C290.085 82.1 289.335 81.03 288.335 80.27C287.355 79.49 286.135 79.1 284.675 79.1C283.095 79.1 281.805 79.5 280.805 80.3C279.805 81.1 279.065 82.15 278.585 83.45C278.125 84.73 277.895 86.1 277.895 87.56C277.895 90.02 278.455 92.05 279.575 93.65C280.715 95.25 282.355 96.05 284.495 96.05ZM308.401 104.24C308.301 102.94 308.201 101.28 308.101 99.26C308.021 97.24 307.941 95.05 307.861 92.69C307.801 90.31 307.741 87.95 307.681 85.61C307.641 83.27 307.611 81.11 307.591 79.13C307.571 77.13 307.561 75.52 307.561 74.3C308.041 74.18 308.681 74.06 309.481 73.94C310.281 73.8 311.131 73.68 312.031 73.58C312.931 73.46 313.781 73.37 314.581 73.31C315.401 73.23 316.061 73.19 316.561 73.19C316.581 73.51 316.601 73.92 316.621 74.42C316.641 74.9 316.651 75.4 316.651 75.92C316.671 76.44 316.681 76.91 316.681 77.33C316.681 77.75 316.681 78.07 316.681 78.29C316.801 77.91 317.081 77.42 317.521 76.82C317.961 76.22 318.561 75.62 319.321 75.02C320.101 74.42 321.041 73.92 322.141 73.52C323.241 73.1 324.511 72.89 325.951 72.89C327.331 72.89 328.501 73.15 329.461 73.67C330.421 74.19 331.221 74.87 331.861 75.71C332.501 76.55 333.001 77.46 333.361 78.44C333.541 78.92 333.681 79.41 333.781 79.91C333.901 80.41 333.991 80.9 334.051 81.38C334.491 79.92 335.221 78.53 336.241 77.21C337.281 75.87 338.571 74.78 340.111 73.94C341.651 73.08 343.421 72.65 345.421 72.65C347.821 72.65 349.791 73.08 351.331 73.94C352.891 74.8 354.101 76.07 354.961 77.75C355.821 79.43 356.421 81.49 356.761 83.93C357.101 86.37 357.271 89.16 357.271 92.3C357.271 93.54 357.241 94.84 357.181 96.2C357.141 97.56 357.081 98.93 357.001 100.31C356.921 101.69 356.841 103.03 356.761 104.33C356.041 104.37 355.291 104.4 354.511 104.42C353.731 104.46 352.951 104.48 352.171 104.48C351.391 104.48 350.591 104.46 349.771 104.42C348.971 104.4 348.161 104.36 347.341 104.3C347.741 101.32 348.071 98.58 348.331 96.08C348.591 93.56 348.721 91.35 348.721 89.45C348.721 86.67 348.401 84.55 347.761 83.09C347.141 81.63 346.071 80.9 344.551 80.9C343.171 80.9 342.051 81.32 341.191 82.16C340.331 83 339.661 84.16 339.181 85.64C338.701 87.12 338.351 88.84 338.131 90.8C337.931 92.74 337.791 94.82 337.711 97.04C337.671 98.16 337.631 99.33 337.591 100.55C337.551 101.77 337.531 103.01 337.531 104.27C337.131 104.29 336.561 104.31 335.821 104.33C335.101 104.37 334.341 104.39 333.541 104.39C332.601 104.39 331.691 104.37 330.811 104.33C329.951 104.31 329.321 104.27 328.921 104.21C328.901 102.85 328.891 101.57 328.891 100.37C328.891 99.17 328.891 97.94 328.891 96.68C328.891 94.4 328.831 92.3 328.711 90.38C328.611 88.44 328.391 86.76 328.051 85.34C327.711 83.9 327.201 82.78 326.521 81.98C325.861 81.18 324.961 80.78 323.821 80.78C323.041 80.78 322.281 80.95 321.541 81.29C320.801 81.63 320.121 82.07 319.501 82.61C318.901 83.15 318.391 83.75 317.971 84.41C317.571 85.05 317.291 85.69 317.131 86.33C317.251 89.51 317.381 92.41 317.521 95.03C317.661 97.65 317.791 99.79 317.911 101.45C318.031 103.09 318.111 104.08 318.151 104.42C317.931 104.44 317.471 104.46 316.771 104.48C316.071 104.5 315.461 104.51 314.941 104.51C313.681 104.51 312.421 104.48 311.161 104.42C309.901 104.36 308.981 104.3 308.401 104.24ZM382.064 90.8C380.704 90.8 379.484 90.78 378.404 90.74C377.324 90.7 376.284 90.65 375.284 90.59C374.304 90.53 373.244 90.44 372.104 90.32C372.104 87.64 372.634 85.24 373.694 83.12C374.774 81 376.304 79.06 378.284 77.3C379.384 76.32 380.254 75.38 380.894 74.48C381.554 73.56 381.884 72.64 381.884 71.72C381.884 70.6 381.504 69.73 380.744 69.11C380.004 68.49 378.994 68.18 377.714 68.18C376.714 68.18 375.814 68.33 375.014 68.63C374.214 68.93 373.494 69.37 372.854 69.95C372.234 70.51 371.684 71.19 371.204 71.99C370.744 72.77 370.334 73.66 369.974 74.66L362.384 70.34C362.904 68.08 363.914 66.17 365.414 64.61C366.934 63.05 368.774 61.87 370.934 61.07C373.114 60.25 375.414 59.84 377.834 59.84C380.454 59.84 382.804 60.24 384.884 61.04C386.984 61.82 388.644 63.01 389.864 64.61C391.084 66.19 391.694 68.18 391.694 70.58C391.694 72.36 391.464 73.87 391.004 75.11C390.544 76.33 389.934 77.38 389.174 78.26C388.434 79.14 387.634 79.96 386.774 80.72C385.994 81.42 385.244 82.26 384.524 83.24C383.824 84.22 383.244 85.34 382.784 86.6C382.344 87.84 382.104 89.24 382.064 90.8ZM377.744 104.3C376.084 104.3 374.634 103.83 373.394 102.89C372.174 101.93 371.564 100.59 371.564 98.87C371.564 97.93 371.844 97.05 372.404 96.23C372.964 95.39 373.704 94.72 374.624 94.22C375.544 93.7 376.514 93.44 377.534 93.44C379.354 93.44 380.864 93.91 382.064 94.85C383.284 95.77 383.894 96.99 383.894 98.51C383.894 99.59 383.604 100.57 383.024 101.45C382.464 102.33 381.714 103.03 380.774 103.55C379.854 104.05 378.844 104.3 377.744 104.3Z" fill="black"/>
</svg>
