<svg width="400" height="150" viewBox="0 0 400 150" fill="none" xmlns="http://www.w3.org/2000/svg">
<rect x="25" y="21" width="350" height="107" rx="30" fill="#FFE600"/>
<path d="M142.816 79.5781V72.3594H155.531C156.88 72.3594 157.974 71.9128 158.812 71.0195C159.651 70.1081 160.07 68.9141 160.07 67.4375C160.07 65.9245 159.651 64.7214 158.812 63.8281C157.992 62.9167 156.898 62.4609 155.531 62.4609H142.816V55.2422H155.34C157.855 55.2422 160.043 55.7526 161.902 56.7734C163.78 57.776 165.238 59.1888 166.277 61.0117C167.316 62.8346 167.836 64.9766 167.836 67.4375C167.836 69.8802 167.316 72.013 166.277 73.8359C165.238 75.6589 163.78 77.0716 161.902 78.0742C160.025 79.0768 157.837 79.5781 155.34 79.5781H142.816ZM139.398 95V55.2422H146.891V95H139.398ZM173.742 95V55.2422H181.234V95H173.742ZM177.078 95V87.7812H200.375V95H177.078ZM202.562 95L217.766 55.2422H222.523L237.727 95H229.66L220.145 67.8477L210.629 95H202.562ZM209.863 88.6289V81.4102H230.781V88.6289H209.863ZM265.344 55.2422L253.641 79.6602V95H246.148V79.6602L234.445 55.2422H242.293L249.895 72.3594L257.496 55.2422H265.344Z" fill="#9E6DD0"/>
</svg>
