<svg width="784" height="55" viewBox="0 0 784 55" fill="none" xmlns="http://www.w3.org/2000/svg">
<mask id="mask0_42_289" style="mask-type:alpha" maskUnits="userSpaceOnUse" x="0" y="0" width="784" height="55">
<rect width="784" height="55" rx="27.5" fill="#D9D9D9"/>
</mask>
<g mask="url(#mask0_42_289)">
<g filter="url(#filter0_i_42_289)">
<rect width="784" height="55" rx="27.5" fill="#FFFEE7"/>
</g>
<g filter="url(#filter1_di_42_289)">
<rect x="-33" width="287" height="55" fill="#FFBB37"/>
</g>
<path d="M365.164 35.1758C364.203 35.1758 363.359 35.0039 362.633 34.6602C361.914 34.3086 361.336 33.8047 360.898 33.1484C360.461 32.4922 360.18 31.6953 360.055 30.7578H362.492C362.602 31.4922 362.891 32.0312 363.359 32.375C363.828 32.7109 364.43 32.8789 365.164 32.8789C365.953 32.8789 366.566 32.668 367.004 32.2461C367.441 31.8242 367.66 31.2305 367.66 30.4648V29.9492C367.66 29.0977 367.453 28.4414 367.039 27.9805C366.625 27.5117 366.039 27.2773 365.281 27.2773H364.074V25.0039H365.281C365.953 25.0039 366.469 24.8047 366.828 24.4062C367.195 24.0078 367.379 23.4453 367.379 22.7188V22.1914C367.379 21.5195 367.184 21 366.793 20.6328C366.41 20.2656 365.863 20.082 365.152 20.082C364.551 20.082 364.039 20.2539 363.617 20.5977C363.203 20.9336 362.918 21.4688 362.762 22.2031H360.336C360.578 20.7969 361.117 19.7109 361.953 18.9453C362.797 18.1719 363.863 17.7852 365.152 17.7852C366.621 17.7852 367.758 18.1719 368.562 18.9453C369.367 19.7188 369.77 20.8086 369.77 22.2148V22.4961C369.77 23.3477 369.539 24.0898 369.078 24.7227C368.617 25.3477 367.965 25.8086 367.121 26.1055C368.051 26.3008 368.77 26.7578 369.277 27.4766C369.793 28.1875 370.051 29.0938 370.051 30.1953V30.4766C370.051 31.9688 369.625 33.125 368.773 33.9453C367.922 34.7656 366.719 35.1758 365.164 35.1758ZM373.203 35V32.9258L379.145 25.0039C379.488 24.5508 379.754 24.082 379.941 23.5977C380.137 23.1133 380.234 22.6562 380.234 22.2266V22.2031C380.234 21.5234 380.035 20.9961 379.637 20.6211C379.238 20.2461 378.672 20.0586 377.938 20.0586C377.25 20.0586 376.688 20.2656 376.25 20.6797C375.82 21.0859 375.559 21.6641 375.465 22.4141V22.4258H372.992V22.4141C373.203 20.9453 373.738 19.8086 374.598 19.0039C375.457 18.1914 376.562 17.7852 377.914 17.7852C379.445 17.7852 380.629 18.1719 381.465 18.9453C382.301 19.7188 382.719 20.8125 382.719 22.2266V22.2383C382.719 22.8398 382.594 23.4727 382.344 24.1367C382.094 24.793 381.746 25.4219 381.301 26.0234L376.367 32.7266H382.812V35H373.203ZM385.566 35V32.4922H388.074V35H385.566ZM395.41 17.9609V35H393.02V20.5625L390.594 22.0508V19.5781L393.02 17.9609H395.41ZM400.027 35L409.285 17.9609H411.383L402.125 35H400.027ZM410.012 35.1758C409.105 35.1758 408.406 34.9141 407.914 34.3906C407.422 33.8594 407.176 33.1211 407.176 32.1758V30.7109C407.176 29.7656 407.422 29.0312 407.914 28.5078C408.406 27.9766 409.105 27.7109 410.012 27.7109C410.918 27.7109 411.617 27.9766 412.109 28.5078C412.602 29.0391 412.848 29.7812 412.848 30.7344V32.1758C412.848 33.1211 412.602 33.8594 412.109 34.3906C411.617 34.9141 410.918 35.1758 410.012 35.1758ZM410.012 33.3125C410.598 33.3125 410.891 32.9727 410.891 32.293V30.5703C410.891 29.9141 410.598 29.5859 410.012 29.5859C409.426 29.5859 409.133 29.918 409.133 30.582V32.293C409.133 32.9727 409.426 33.3125 410.012 33.3125ZM401.539 25.2617C400.633 25.2617 399.934 25 399.441 24.4766C398.949 23.9453 398.703 23.207 398.703 22.2617V20.7969C398.703 19.8516 398.949 19.1172 399.441 18.5938C399.934 18.0625 400.633 17.7969 401.539 17.7969C402.445 17.7969 403.145 18.0625 403.637 18.5938C404.129 19.125 404.375 19.8672 404.375 20.8203V22.2617C404.375 23.207 404.129 23.9453 403.637 24.4766C403.145 25 402.445 25.2617 401.539 25.2617ZM401.539 23.3984C402.125 23.3984 402.418 23.0586 402.418 22.3789V20.6562C402.418 20 402.125 19.6719 401.539 19.6719C400.953 19.6719 400.66 20.0039 400.66 20.668V22.3789C400.66 23.0586 400.953 23.3984 401.539 23.3984Z" fill="black"/>
</g>
<defs>
<filter id="filter0_i_42_289" x="0" y="0" width="784" height="59" filterUnits="userSpaceOnUse" color-interpolation-filters="sRGB">
<feFlood flood-opacity="0" result="BackgroundImageFix"/>
<feBlend mode="normal" in="SourceGraphic" in2="BackgroundImageFix" result="shape"/>
<feColorMatrix in="SourceAlpha" type="matrix" values="0 0 0 0 0 0 0 0 0 0 0 0 0 0 0 0 0 0 127 0" result="hardAlpha"/>
<feMorphology radius="2" operator="erode" in="SourceAlpha" result="effect1_innerShadow_42_289"/>
<feOffset dy="4"/>
<feGaussianBlur stdDeviation="4"/>
<feComposite in2="hardAlpha" operator="arithmetic" k2="-1" k3="1"/>
<feColorMatrix type="matrix" values="0 0 0 0 0 0 0 0 0 0 0 0 0 0 0 0 0 0 0.2 0"/>
<feBlend mode="normal" in2="shape" result="effect1_innerShadow_42_289"/>
</filter>
<filter id="filter1_di_42_289" x="-33" y="-2" width="297" height="63" filterUnits="userSpaceOnUse" color-interpolation-filters="sRGB">
<feFlood flood-opacity="0" result="BackgroundImageFix"/>
<feColorMatrix in="SourceAlpha" type="matrix" values="0 0 0 0 0 0 0 0 0 0 0 0 0 0 0 0 0 0 127 0" result="hardAlpha"/>
<feOffset dx="4" dy="2"/>
<feGaussianBlur stdDeviation="2"/>
<feComposite in2="hardAlpha" operator="out"/>
<feColorMatrix type="matrix" values="0 0 0 0 0 0 0 0 0 0 0 0 0 0 0 0 0 0 0.25 0"/>
<feBlend mode="normal" in2="BackgroundImageFix" result="effect1_dropShadow_42_289"/>
<feBlend mode="normal" in="SourceGraphic" in2="effect1_dropShadow_42_289" result="shape"/>
<feColorMatrix in="SourceAlpha" type="matrix" values="0 0 0 0 0 0 0 0 0 0 0 0 0 0 0 0 0 0 127 0" result="hardAlpha"/>
<feMorphology radius="2" operator="erode" in="SourceAlpha" result="effect2_innerShadow_42_289"/>
<feOffset dx="16" dy="4"/>
<feGaussianBlur stdDeviation="4"/>
<feComposite in2="hardAlpha" operator="arithmetic" k2="-1" k3="1"/>
<feColorMatrix type="matrix" values="0 0 0 0 0 0 0 0 0 0 0 0 0 0 0 0 0 0 0.2 0"/>
<feBlend mode="normal" in2="shape" result="effect2_innerShadow_42_289"/>
</filter>
</defs>
</svg>
