<svg width="522" height="400" viewBox="0 0 522 400" fill="none" xmlns="http://www.w3.org/2000/svg">
<rect width="522" height="400" rx="50" fill="url(#paint0_linear_42_447)"/>
<path d="M64.4219 123.961L59.2305 134.074V141H56.8398V134.074L51.6484 123.961H54.3086L58.0352 131.648L61.7617 123.961H64.4219ZM69.5547 141.176C67.9609 141.176 66.7266 140.715 65.8516 139.793C64.9766 138.863 64.5391 137.559 64.5391 135.879V133.898C64.5391 132.234 64.9766 130.945 65.8516 130.031C66.7266 129.117 67.9609 128.66 69.5547 128.66C71.1484 128.66 72.3828 129.117 73.2578 130.031C74.1328 130.945 74.5703 132.234 74.5703 133.898V135.914C74.5703 137.586 74.1328 138.883 73.2578 139.805C72.3828 140.719 71.1484 141.176 69.5547 141.176ZM69.5547 138.902C70.3906 138.902 71.0352 138.641 71.4883 138.117C71.9492 137.594 72.1797 136.859 72.1797 135.914V133.898C72.1797 132.953 71.9492 132.223 71.4883 131.707C71.0352 131.191 70.3906 130.934 69.5547 130.934C68.7266 130.934 68.082 131.191 67.6211 131.707C67.1602 132.223 66.9297 132.953 66.9297 133.898V135.914C66.9297 136.859 67.1602 137.594 67.6211 138.117C68.082 138.641 68.7266 138.902 69.5547 138.902ZM85 141V128.836H87.3789V141H85ZM80.0547 128.836V136.23C80.0547 137.082 80.2695 137.742 80.6992 138.211C81.1367 138.672 81.75 138.902 82.5391 138.902C83.3281 138.902 83.9336 138.695 84.3555 138.281C84.7852 137.859 85 137.27 85 136.512L85.1641 139.055C84.9453 139.602 84.5625 140.094 84.0156 140.531C83.4688 140.961 82.7539 141.176 81.8711 141.176C80.5273 141.176 79.4883 140.746 78.7539 139.887C78.0273 139.02 77.6641 137.801 77.6641 136.23V128.836H80.0547ZM89.5586 130.359V123.961H92.0664V127.758L89.5586 130.359ZM98.5352 137.52L101.512 128.836H104.008L99.4375 141H97.6328L93.0625 128.836H95.5586L98.5352 137.52ZM111.098 141.176C109.402 141.176 108.09 140.703 107.16 139.758C106.23 138.812 105.766 137.469 105.766 135.727V134.355C105.766 132.543 106.211 131.141 107.102 130.148C108 129.156 109.262 128.66 110.887 128.66C112.418 128.66 113.602 129.223 114.438 130.348C115.281 131.473 115.703 133.051 115.703 135.082V135.879H107.5V133.957H113.43C113.359 132.973 113.102 132.203 112.656 131.648C112.219 131.094 111.629 130.816 110.887 130.816C109.988 130.816 109.289 131.113 108.789 131.707C108.289 132.301 108.039 133.141 108.039 134.227V135.773C108.039 136.781 108.305 137.555 108.836 138.094C109.375 138.633 110.129 138.902 111.098 138.902C111.582 138.902 112.062 138.805 112.539 138.609C113.016 138.414 113.441 138.141 113.816 137.789L115.387 139.359C114.785 139.938 114.109 140.387 113.359 140.707C112.609 141.02 111.855 141.176 111.098 141.176ZM147.52 141.176C146.441 141.176 145.461 141.02 144.578 140.707C143.703 140.387 142.918 139.91 142.223 139.277L143.641 137.531C144.305 138.031 144.957 138.406 145.598 138.656C146.246 138.906 146.887 139.031 147.52 139.031C148.465 139.031 149.172 138.887 149.641 138.598C150.117 138.301 150.355 137.859 150.355 137.273C150.355 136.82 150.195 136.5 149.875 136.312C149.562 136.125 149.148 136.004 148.633 135.949C148.125 135.887 147.578 135.836 146.992 135.797C146.5 135.758 146.012 135.699 145.527 135.621C145.043 135.535 144.602 135.387 144.203 135.176C143.805 134.957 143.484 134.637 143.242 134.215C143.008 133.793 142.891 133.227 142.891 132.516C142.891 131.227 143.285 130.262 144.074 129.621C144.863 128.98 146.039 128.66 147.602 128.66C148.555 128.66 149.441 128.789 150.262 129.047C151.082 129.305 151.852 129.699 152.57 130.23L151.129 131.977C150.52 131.586 149.918 131.293 149.324 131.098C148.738 130.902 148.164 130.805 147.602 130.805C146.789 130.805 146.18 130.945 145.773 131.227C145.367 131.5 145.164 131.914 145.164 132.469C145.164 132.836 145.305 133.102 145.586 133.266C145.867 133.422 146.238 133.523 146.699 133.57C147.16 133.617 147.656 133.66 148.188 133.699C148.695 133.73 149.207 133.789 149.723 133.875C150.246 133.953 150.727 134.109 151.164 134.344C151.602 134.578 151.953 134.926 152.219 135.387C152.484 135.848 152.617 136.477 152.617 137.273C152.617 138.578 152.191 139.555 151.34 140.203C150.496 140.852 149.223 141.176 147.52 141.176ZM163 141V128.836H165.379V141H163ZM158.055 128.836V136.23C158.055 137.082 158.27 137.742 158.699 138.211C159.137 138.672 159.75 138.902 160.539 138.902C161.328 138.902 161.934 138.695 162.355 138.281C162.785 137.859 163 137.27 163 136.512L163.164 139.055C162.945 139.602 162.562 140.094 162.016 140.531C161.469 140.961 160.754 141.176 159.871 141.176C158.527 141.176 157.488 140.746 156.754 139.887C156.027 139.02 155.664 137.801 155.664 136.23V128.836H158.055ZM173.934 141.176C172.262 141.176 170.965 140.715 170.043 139.793C169.129 138.871 168.672 137.57 168.672 135.891V133.887C168.672 132.223 169.129 130.938 170.043 130.031C170.965 129.117 172.262 128.66 173.934 128.66C174.887 128.66 175.746 128.828 176.512 129.164C177.277 129.5 177.887 129.98 178.34 130.605L176.617 132.152C176.281 131.762 175.883 131.461 175.422 131.25C174.961 131.039 174.477 130.934 173.969 130.934C173.047 130.934 172.332 131.191 171.824 131.707C171.316 132.223 171.062 132.949 171.062 133.887V135.891C171.062 136.852 171.316 137.594 171.824 138.117C172.332 138.641 173.047 138.902 173.969 138.902C174.477 138.902 174.961 138.789 175.422 138.562C175.883 138.336 176.281 138.016 176.617 137.602L178.34 139.266C177.887 139.875 177.273 140.348 176.5 140.684C175.734 141.012 174.879 141.176 173.934 141.176ZM185.887 141.176C184.215 141.176 182.918 140.715 181.996 139.793C181.082 138.871 180.625 137.57 180.625 135.891V133.887C180.625 132.223 181.082 130.938 181.996 130.031C182.918 129.117 184.215 128.66 185.887 128.66C186.84 128.66 187.699 128.828 188.465 129.164C189.23 129.5 189.84 129.98 190.293 130.605L188.57 132.152C188.234 131.762 187.836 131.461 187.375 131.25C186.914 131.039 186.43 130.934 185.922 130.934C185 130.934 184.285 131.191 183.777 131.707C183.27 132.223 183.016 132.949 183.016 133.887V135.891C183.016 136.852 183.27 137.594 183.777 138.117C184.285 138.641 185 138.902 185.922 138.902C186.43 138.902 186.914 138.789 187.375 138.562C187.836 138.336 188.234 138.016 188.57 137.602L190.293 139.266C189.84 139.875 189.227 140.348 188.453 140.684C187.688 141.012 186.832 141.176 185.887 141.176ZM197.91 141.176C196.215 141.176 194.902 140.703 193.973 139.758C193.043 138.812 192.578 137.469 192.578 135.727V134.355C192.578 132.543 193.023 131.141 193.914 130.148C194.812 129.156 196.074 128.66 197.699 128.66C199.23 128.66 200.414 129.223 201.25 130.348C202.094 131.473 202.516 133.051 202.516 135.082V135.879H194.312V133.957H200.242C200.172 132.973 199.914 132.203 199.469 131.648C199.031 131.094 198.441 130.816 197.699 130.816C196.801 130.816 196.102 131.113 195.602 131.707C195.102 132.301 194.852 133.141 194.852 134.227V135.773C194.852 136.781 195.117 137.555 195.648 138.094C196.188 138.633 196.941 138.902 197.91 138.902C198.395 138.902 198.875 138.805 199.352 138.609C199.828 138.414 200.254 138.141 200.629 137.789L202.199 139.359C201.598 139.938 200.922 140.387 200.172 140.707C199.422 141.02 198.668 141.176 197.91 141.176ZM210.098 141.176C209.02 141.176 208.039 141.02 207.156 140.707C206.281 140.387 205.496 139.91 204.801 139.277L206.219 137.531C206.883 138.031 207.535 138.406 208.176 138.656C208.824 138.906 209.465 139.031 210.098 139.031C211.043 139.031 211.75 138.887 212.219 138.598C212.695 138.301 212.934 137.859 212.934 137.273C212.934 136.82 212.773 136.5 212.453 136.312C212.141 136.125 211.727 136.004 211.211 135.949C210.703 135.887 210.156 135.836 209.57 135.797C209.078 135.758 208.59 135.699 208.105 135.621C207.621 135.535 207.18 135.387 206.781 135.176C206.383 134.957 206.062 134.637 205.82 134.215C205.586 133.793 205.469 133.227 205.469 132.516C205.469 131.227 205.863 130.262 206.652 129.621C207.441 128.98 208.617 128.66 210.18 128.66C211.133 128.66 212.02 128.789 212.84 129.047C213.66 129.305 214.43 129.699 215.148 130.23L213.707 131.977C213.098 131.586 212.496 131.293 211.902 131.098C211.316 130.902 210.742 130.805 210.18 130.805C209.367 130.805 208.758 130.945 208.352 131.227C207.945 131.5 207.742 131.914 207.742 132.469C207.742 132.836 207.883 133.102 208.164 133.266C208.445 133.422 208.816 133.523 209.277 133.57C209.738 133.617 210.234 133.66 210.766 133.699C211.273 133.73 211.785 133.789 212.301 133.875C212.824 133.953 213.305 134.109 213.742 134.344C214.18 134.578 214.531 134.926 214.797 135.387C215.062 135.848 215.195 136.477 215.195 137.273C215.195 138.578 214.77 139.555 213.918 140.203C213.074 140.852 211.801 141.176 210.098 141.176ZM222.543 141.176C221.465 141.176 220.484 141.02 219.602 140.707C218.727 140.387 217.941 139.91 217.246 139.277L218.664 137.531C219.328 138.031 219.98 138.406 220.621 138.656C221.27 138.906 221.91 139.031 222.543 139.031C223.488 139.031 224.195 138.887 224.664 138.598C225.141 138.301 225.379 137.859 225.379 137.273C225.379 136.82 225.219 136.5 224.898 136.312C224.586 136.125 224.172 136.004 223.656 135.949C223.148 135.887 222.602 135.836 222.016 135.797C221.523 135.758 221.035 135.699 220.551 135.621C220.066 135.535 219.625 135.387 219.227 135.176C218.828 134.957 218.508 134.637 218.266 134.215C218.031 133.793 217.914 133.227 217.914 132.516C217.914 131.227 218.309 130.262 219.098 129.621C219.887 128.98 221.062 128.66 222.625 128.66C223.578 128.66 224.465 128.789 225.285 129.047C226.105 129.305 226.875 129.699 227.594 130.23L226.152 131.977C225.543 131.586 224.941 131.293 224.348 131.098C223.762 130.902 223.188 130.805 222.625 130.805C221.812 130.805 221.203 130.945 220.797 131.227C220.391 131.5 220.188 131.914 220.188 132.469C220.188 132.836 220.328 133.102 220.609 133.266C220.891 133.422 221.262 133.523 221.723 133.57C222.184 133.617 222.68 133.66 223.211 133.699C223.719 133.73 224.23 133.789 224.746 133.875C225.27 133.953 225.75 134.109 226.188 134.344C226.625 134.578 226.977 134.926 227.242 135.387C227.508 135.848 227.641 136.477 227.641 137.273C227.641 138.578 227.215 139.555 226.363 140.203C225.52 140.852 224.246 141.176 222.543 141.176ZM231.039 141V127.184C231.039 126.113 231.285 125.309 231.777 124.77C232.27 124.23 233.035 123.961 234.074 123.961H235.832V126.234H234.121C233.879 126.234 233.703 126.328 233.594 126.516C233.484 126.695 233.43 126.91 233.43 127.16V141H231.039ZM229.75 130.875V128.836H235.832V130.875H229.75ZM245.172 141V128.836H247.551V141H245.172ZM240.227 128.836V136.23C240.227 137.082 240.441 137.742 240.871 138.211C241.309 138.672 241.922 138.902 242.711 138.902C243.5 138.902 244.105 138.695 244.527 138.281C244.957 137.859 245.172 137.27 245.172 136.512L245.336 139.055C245.117 139.602 244.734 140.094 244.188 140.531C243.641 140.961 242.926 141.176 242.043 141.176C240.699 141.176 239.66 140.746 238.926 139.887C238.199 139.02 237.836 137.801 237.836 136.23V128.836H240.227ZM253.586 123.961V137.859C253.586 138.148 253.648 138.375 253.773 138.539C253.906 138.703 254.09 138.785 254.324 138.785H255.449V141.059H254.043C253.145 141.059 252.445 140.777 251.945 140.215C251.445 139.652 251.195 138.859 251.195 137.836V123.961H253.586ZM260.547 123.961V137.859C260.547 138.148 260.609 138.375 260.734 138.539C260.867 138.703 261.051 138.785 261.285 138.785H262.41V141.059H261.004C260.105 141.059 259.406 140.777 258.906 140.215C258.406 139.652 258.156 138.859 258.156 137.836V123.961H260.547ZM272.16 128.836H274.598L269.418 143.848C269.129 144.684 268.711 145.262 268.164 145.582C267.617 145.91 266.867 146.074 265.914 146.074H265.434V143.777H265.914C266.359 143.777 266.711 143.688 266.969 143.508C267.234 143.328 267.465 143.02 267.66 142.582L272.16 128.836ZM268.68 141.996L263.828 128.836H266.266L270.004 139.406L268.68 141.996ZM300.953 141V123.961H303.344V141H300.953ZM308.336 141V133.629C308.336 132.77 308.113 132.105 307.668 131.637C307.23 131.168 306.605 130.934 305.793 130.934C305.012 130.934 304.406 131.137 303.977 131.543C303.555 131.949 303.344 132.523 303.344 133.266L303.098 130.922C303.473 130.203 303.961 129.648 304.562 129.258C305.172 128.859 305.844 128.66 306.578 128.66C307.898 128.66 308.918 129.094 309.637 129.961C310.363 130.82 310.727 132.039 310.727 133.617V141H308.336ZM319.34 141.176C317.645 141.176 316.332 140.703 315.402 139.758C314.473 138.812 314.008 137.469 314.008 135.727V134.355C314.008 132.543 314.453 131.141 315.344 130.148C316.242 129.156 317.504 128.66 319.129 128.66C320.66 128.66 321.844 129.223 322.68 130.348C323.523 131.473 323.945 133.051 323.945 135.082V135.879H315.742V133.957H321.672C321.602 132.973 321.344 132.203 320.898 131.648C320.461 131.094 319.871 130.816 319.129 130.816C318.23 130.816 317.531 131.113 317.031 131.707C316.531 132.301 316.281 133.141 316.281 134.227V135.773C316.281 136.781 316.547 137.555 317.078 138.094C317.617 138.633 318.371 138.902 319.34 138.902C319.824 138.902 320.305 138.805 320.781 138.609C321.258 138.414 321.684 138.141 322.059 137.789L323.629 139.359C323.027 139.938 322.352 140.387 321.602 140.707C320.852 141.02 320.098 141.176 319.34 141.176ZM329.617 123.961V137.859C329.617 138.148 329.68 138.375 329.805 138.539C329.938 138.703 330.121 138.785 330.355 138.785H331.48V141.059H330.074C329.176 141.059 328.477 140.777 327.977 140.215C327.477 139.652 327.227 138.859 327.227 137.836V123.961H329.617ZM334.07 145.945V128.836H336.461V145.945H334.07ZM339.52 141.176C338.762 141.176 338.102 140.996 337.539 140.637C336.977 140.27 336.562 139.754 336.297 139.09L336.461 136.547C336.461 137.07 336.555 137.516 336.742 137.883C336.93 138.25 337.199 138.531 337.551 138.727C337.91 138.922 338.344 139.02 338.852 139.02C339.641 139.02 340.25 138.781 340.68 138.305C341.117 137.82 341.336 137.141 341.336 136.266V133.629C341.336 132.738 341.117 132.047 340.68 131.555C340.25 131.062 339.641 130.816 338.852 130.816C338.344 130.816 337.91 130.91 337.551 131.098C337.199 131.285 336.93 131.559 336.742 131.918C336.555 132.277 336.461 132.715 336.461 133.23L336.215 130.887C336.582 130.176 337.062 129.629 337.656 129.246C338.25 128.855 338.91 128.66 339.637 128.66C340.941 128.66 341.949 129.094 342.66 129.961C343.371 130.82 343.727 132.039 343.727 133.617V136.266C343.727 137.82 343.359 139.027 342.625 139.887C341.891 140.746 340.855 141.176 339.52 141.176ZM352.105 141.176C350.41 141.176 349.098 140.703 348.168 139.758C347.238 138.812 346.773 137.469 346.773 135.727V134.355C346.773 132.543 347.219 131.141 348.109 130.148C349.008 129.156 350.27 128.66 351.895 128.66C353.426 128.66 354.609 129.223 355.445 130.348C356.289 131.473 356.711 133.051 356.711 135.082V135.879H348.508V133.957H354.438C354.367 132.973 354.109 132.203 353.664 131.648C353.227 131.094 352.637 130.816 351.895 130.816C350.996 130.816 350.297 131.113 349.797 131.707C349.297 132.301 349.047 133.141 349.047 134.227V135.773C349.047 136.781 349.312 137.555 349.844 138.094C350.383 138.633 351.137 138.902 352.105 138.902C352.59 138.902 353.07 138.805 353.547 138.609C354.023 138.414 354.449 138.141 354.824 137.789L356.395 139.359C355.793 139.938 355.117 140.387 354.367 140.707C353.617 141.02 352.863 141.176 352.105 141.176ZM366.906 141V123.961H369.297V141H366.906ZM363.848 141.211C362.504 141.211 361.465 140.781 360.73 139.922C360.004 139.055 359.641 137.836 359.641 136.266V133.582C359.641 132.004 359.996 130.785 360.707 129.926C361.426 129.059 362.434 128.625 363.73 128.625C364.449 128.625 365.105 128.812 365.699 129.188C366.301 129.562 366.785 130.09 367.152 130.77L366.906 133.254C366.906 132.738 366.812 132.297 366.625 131.93C366.438 131.562 366.164 131.285 365.805 131.098C365.453 130.902 365.023 130.805 364.516 130.805C363.727 130.805 363.113 131.051 362.676 131.543C362.246 132.035 362.031 132.727 362.031 133.617V136.266C362.031 137.148 362.246 137.832 362.676 138.316C363.113 138.793 363.727 139.031 364.516 139.031C365.023 139.031 365.453 138.934 365.805 138.738C366.164 138.535 366.438 138.246 366.625 137.871C366.812 137.496 366.906 137.047 366.906 136.523L367.07 139.09C366.852 139.637 366.473 140.129 365.934 140.566C365.402 140.996 364.707 141.211 363.848 141.211ZM397.516 144.82V121.945H399.789V144.82H397.516ZM398.688 144.82V142.664H401.992V144.82H398.688ZM398.688 124.102V121.945H401.992V124.102H398.688ZM404.219 141V128.836H406.609V141H404.219ZM411.602 141V133.629C411.602 132.77 411.379 132.105 410.934 131.637C410.496 131.168 409.871 130.934 409.059 130.934C408.277 130.934 407.672 131.141 407.242 131.555C406.82 131.969 406.609 132.551 406.609 133.301L406.363 130.957C406.738 130.223 407.227 129.656 407.828 129.258C408.438 128.859 409.109 128.66 409.844 128.66C411.164 128.66 412.184 129.094 412.902 129.961C413.629 130.82 413.992 132.039 413.992 133.617V141H411.602ZM424.492 141V133.289C424.492 132.492 424.277 131.875 423.848 131.438C423.426 130.992 422.824 130.77 422.043 130.77C421.566 130.77 421.094 130.844 420.625 130.992C420.164 131.133 419.75 131.34 419.383 131.613L417.637 130.418C418.098 129.863 418.703 129.434 419.453 129.129C420.211 128.816 421.051 128.66 421.973 128.66C423.496 128.66 424.676 129.055 425.512 129.844C426.348 130.633 426.766 131.746 426.766 133.184V141H424.492ZM421.516 141.176C420.023 141.176 418.902 140.867 418.152 140.25C417.41 139.633 417.039 138.688 417.039 137.414C417.039 136.203 417.379 135.301 418.059 134.707C418.746 134.105 419.773 133.805 421.141 133.805H424.598L424.762 135.727H421.152C420.535 135.727 420.07 135.867 419.758 136.148C419.445 136.422 419.289 136.844 419.289 137.414C419.289 138.031 419.496 138.488 419.91 138.785C420.324 139.082 420.945 139.23 421.773 139.23C422.68 139.23 423.359 139.133 423.812 138.938C424.266 138.742 424.492 138.438 424.492 138.023L424.738 139.734C424.527 140.062 424.266 140.332 423.953 140.543C423.641 140.754 423.281 140.91 422.875 141.012C422.477 141.121 422.023 141.176 421.516 141.176ZM444.93 141V133.629C444.93 132.77 444.707 132.105 444.262 131.637C443.824 131.168 443.199 130.934 442.387 130.934C441.645 130.934 441.07 131.16 440.664 131.613C440.258 132.066 440.055 132.707 440.055 133.535L439.574 131.191C439.965 130.379 440.473 129.754 441.098 129.316C441.723 128.879 442.414 128.66 443.172 128.66C444.492 128.66 445.512 129.094 446.23 129.961C446.957 130.82 447.32 132.039 447.32 133.617V141H444.93ZM430.398 141V128.836H432.789V141H430.398ZM437.664 141V133.629C437.664 132.77 437.453 132.105 437.031 131.637C436.609 131.168 436.012 130.934 435.238 130.934C434.457 130.934 433.852 131.141 433.422 131.555C433 131.969 432.789 132.551 432.789 133.301L432.543 130.957C432.918 130.223 433.406 129.656 434.008 129.258C434.617 128.859 435.289 128.66 436.023 128.66C437.305 128.66 438.297 129.094 439 129.961C439.703 130.82 440.055 132.039 440.055 133.617V141H437.664ZM455.934 141.176C454.238 141.176 452.926 140.703 451.996 139.758C451.066 138.812 450.602 137.469 450.602 135.727V134.355C450.602 132.543 451.047 131.141 451.938 130.148C452.836 129.156 454.098 128.66 455.723 128.66C457.254 128.66 458.438 129.223 459.273 130.348C460.117 131.473 460.539 133.051 460.539 135.082V135.879H452.336V133.957H458.266C458.195 132.973 457.938 132.203 457.492 131.648C457.055 131.094 456.465 130.816 455.723 130.816C454.824 130.816 454.125 131.113 453.625 131.707C453.125 132.301 452.875 133.141 452.875 134.227V135.773C452.875 136.781 453.141 137.555 453.672 138.094C454.211 138.633 454.965 138.902 455.934 138.902C456.418 138.902 456.898 138.805 457.375 138.609C457.852 138.414 458.277 138.141 458.652 137.789L460.223 139.359C459.621 139.938 458.945 140.387 458.195 140.707C457.445 141.02 456.691 141.176 455.934 141.176ZM464.5 144.82V121.945H466.773V144.82H464.5ZM462.297 144.82V142.664H465.602V144.82H462.297ZM462.297 124.102V121.945H465.602V124.102H462.297ZM53.875 174.945V157.836H56.2656V174.945H53.875ZM59.3242 170.176C58.5664 170.176 57.9062 169.996 57.3438 169.637C56.7812 169.27 56.3672 168.754 56.1016 168.09L56.2656 165.547C56.2656 166.07 56.3594 166.516 56.5469 166.883C56.7344 167.25 57.0039 167.531 57.3555 167.727C57.7148 167.922 58.1484 168.02 58.6562 168.02C59.4453 168.02 60.0547 167.781 60.4844 167.305C60.9219 166.82 61.1406 166.141 61.1406 165.266V162.629C61.1406 161.738 60.9219 161.047 60.4844 160.555C60.0547 160.062 59.4453 159.816 58.6562 159.816C58.1484 159.816 57.7148 159.91 57.3555 160.098C57.0039 160.285 56.7344 160.559 56.5469 160.918C56.3594 161.277 56.2656 161.715 56.2656 162.23L56.0195 159.887C56.3867 159.176 56.8672 158.629 57.4609 158.246C58.0547 157.855 58.7148 157.66 59.4414 157.66C60.7461 157.66 61.7539 158.094 62.4648 158.961C63.1758 159.82 63.5312 161.039 63.5312 162.617V165.266C63.5312 166.82 63.1641 168.027 62.4297 168.887C61.6953 169.746 60.6602 170.176 59.3242 170.176ZM73.7969 170V162.289C73.7969 161.492 73.582 160.875 73.1523 160.438C72.7305 159.992 72.1289 159.77 71.3477 159.77C70.8711 159.77 70.3984 159.844 69.9297 159.992C69.4688 160.133 69.0547 160.34 68.6875 160.613L66.9414 159.418C67.4023 158.863 68.0078 158.434 68.7578 158.129C69.5156 157.816 70.3555 157.66 71.2773 157.66C72.8008 157.66 73.9805 158.055 74.8164 158.844C75.6523 159.633 76.0703 160.746 76.0703 162.184V170H73.7969ZM70.8203 170.176C69.3281 170.176 68.207 169.867 67.457 169.25C66.7148 168.633 66.3438 167.688 66.3438 166.414C66.3438 165.203 66.6836 164.301 67.3633 163.707C68.0508 163.105 69.0781 162.805 70.4453 162.805H73.9023L74.0664 164.727H70.457C69.8398 164.727 69.375 164.867 69.0625 165.148C68.75 165.422 68.5938 165.844 68.5938 166.414C68.5938 167.031 68.8008 167.488 69.2148 167.785C69.6289 168.082 70.25 168.23 71.0781 168.23C71.9844 168.23 72.6641 168.133 73.1172 167.938C73.5703 167.742 73.7969 167.438 73.7969 167.023L74.043 168.734C73.832 169.062 73.5703 169.332 73.2578 169.543C72.9453 169.754 72.5859 169.91 72.1797 170.012C71.7812 170.121 71.3281 170.176 70.8203 170.176ZM84.0039 170.176C82.9258 170.176 81.9453 170.02 81.0625 169.707C80.1875 169.387 79.4023 168.91 78.707 168.277L80.125 166.531C80.7891 167.031 81.4414 167.406 82.082 167.656C82.7305 167.906 83.3711 168.031 84.0039 168.031C84.9492 168.031 85.6562 167.887 86.125 167.598C86.6016 167.301 86.8398 166.859 86.8398 166.273C86.8398 165.82 86.6797 165.5 86.3594 165.312C86.0469 165.125 85.6328 165.004 85.1172 164.949C84.6094 164.887 84.0625 164.836 83.4766 164.797C82.9844 164.758 82.4961 164.699 82.0117 164.621C81.5273 164.535 81.0859 164.387 80.6875 164.176C80.2891 163.957 79.9688 163.637 79.7266 163.215C79.4922 162.793 79.375 162.227 79.375 161.516C79.375 160.227 79.7695 159.262 80.5586 158.621C81.3477 157.98 82.5234 157.66 84.0859 157.66C85.0391 157.66 85.9258 157.789 86.7461 158.047C87.5664 158.305 88.3359 158.699 89.0547 159.23L87.6133 160.977C87.0039 160.586 86.4023 160.293 85.8086 160.098C85.2227 159.902 84.6484 159.805 84.0859 159.805C83.2734 159.805 82.6641 159.945 82.2578 160.227C81.8516 160.5 81.6484 160.914 81.6484 161.469C81.6484 161.836 81.7891 162.102 82.0703 162.266C82.3516 162.422 82.7227 162.523 83.1836 162.57C83.6445 162.617 84.1406 162.66 84.6719 162.699C85.1797 162.73 85.6914 162.789 86.207 162.875C86.7305 162.953 87.2109 163.109 87.6484 163.344C88.0859 163.578 88.4375 163.926 88.7031 164.387C88.9688 164.848 89.1016 165.477 89.1016 166.273C89.1016 167.578 88.6758 168.555 87.8242 169.203C86.9805 169.852 85.707 170.176 84.0039 170.176ZM96.4492 170.176C95.3711 170.176 94.3906 170.02 93.5078 169.707C92.6328 169.387 91.8477 168.91 91.1523 168.277L92.5703 166.531C93.2344 167.031 93.8867 167.406 94.5273 167.656C95.1758 167.906 95.8164 168.031 96.4492 168.031C97.3945 168.031 98.1016 167.887 98.5703 167.598C99.0469 167.301 99.2852 166.859 99.2852 166.273C99.2852 165.82 99.125 165.5 98.8047 165.312C98.4922 165.125 98.0781 165.004 97.5625 164.949C97.0547 164.887 96.5078 164.836 95.9219 164.797C95.4297 164.758 94.9414 164.699 94.457 164.621C93.9727 164.535 93.5312 164.387 93.1328 164.176C92.7344 163.957 92.4141 163.637 92.1719 163.215C91.9375 162.793 91.8203 162.227 91.8203 161.516C91.8203 160.227 92.2148 159.262 93.0039 158.621C93.793 157.98 94.9688 157.66 96.5312 157.66C97.4844 157.66 98.3711 157.789 99.1914 158.047C100.012 158.305 100.781 158.699 101.5 159.23L100.059 160.977C99.4492 160.586 98.8477 160.293 98.2539 160.098C97.668 159.902 97.0938 159.805 96.5312 159.805C95.7188 159.805 95.1094 159.945 94.7031 160.227C94.2969 160.5 94.0938 160.914 94.0938 161.469C94.0938 161.836 94.2344 162.102 94.5156 162.266C94.7969 162.422 95.168 162.523 95.6289 162.57C96.0898 162.617 96.5859 162.66 97.1172 162.699C97.625 162.73 98.1367 162.789 98.6523 162.875C99.1758 162.953 99.6562 163.109 100.094 163.344C100.531 163.578 100.883 163.926 101.148 164.387C101.414 164.848 101.547 165.477 101.547 166.273C101.547 167.578 101.121 168.555 100.27 169.203C99.4258 169.852 98.1523 170.176 96.4492 170.176ZM109.574 170.176C107.879 170.176 106.566 169.703 105.637 168.758C104.707 167.812 104.242 166.469 104.242 164.727V163.355C104.242 161.543 104.688 160.141 105.578 159.148C106.477 158.156 107.738 157.66 109.363 157.66C110.895 157.66 112.078 158.223 112.914 159.348C113.758 160.473 114.18 162.051 114.18 164.082V164.879H105.977V162.957H111.906C111.836 161.973 111.578 161.203 111.133 160.648C110.695 160.094 110.105 159.816 109.363 159.816C108.465 159.816 107.766 160.113 107.266 160.707C106.766 161.301 106.516 162.141 106.516 163.227V164.773C106.516 165.781 106.781 166.555 107.312 167.094C107.852 167.633 108.605 167.902 109.574 167.902C110.059 167.902 110.539 167.805 111.016 167.609C111.492 167.414 111.918 167.141 112.293 166.789L113.863 168.359C113.262 168.938 112.586 169.387 111.836 169.707C111.086 170.02 110.332 170.176 109.574 170.176ZM124.375 170V152.961H126.766V170H124.375ZM121.316 170.211C119.973 170.211 118.934 169.781 118.199 168.922C117.473 168.055 117.109 166.836 117.109 165.266V162.582C117.109 161.004 117.465 159.785 118.176 158.926C118.895 158.059 119.902 157.625 121.199 157.625C121.918 157.625 122.574 157.812 123.168 158.188C123.77 158.562 124.254 159.09 124.621 159.77L124.375 162.254C124.375 161.738 124.281 161.297 124.094 160.93C123.906 160.562 123.633 160.285 123.273 160.098C122.922 159.902 122.492 159.805 121.984 159.805C121.195 159.805 120.582 160.051 120.145 160.543C119.715 161.035 119.5 161.727 119.5 162.617V165.266C119.5 166.148 119.715 166.832 120.145 167.316C120.582 167.793 121.195 168.031 121.984 168.031C122.492 168.031 122.922 167.934 123.273 167.738C123.633 167.535 123.906 167.246 124.094 166.871C124.281 166.496 124.375 166.047 124.375 165.523L124.539 168.09C124.32 168.637 123.941 169.129 123.402 169.566C122.871 169.996 122.176 170.211 121.316 170.211ZM146.861 170.059C145.861 170.059 145.134 169.781 144.681 169.227C144.236 168.672 144.013 167.875 144.013 166.836V154.297H146.404V166.859C146.404 167.148 146.463 167.375 146.58 167.539C146.697 167.703 146.869 167.785 147.095 167.785H148.244V170.059H146.861ZM142.759 159.992V157.836H148.244V159.992H142.759ZM151.525 170V152.961H153.916V170H151.525ZM158.908 170V162.629C158.908 161.77 158.685 161.105 158.24 160.637C157.802 160.168 157.177 159.934 156.365 159.934C155.584 159.934 154.978 160.137 154.548 160.543C154.127 160.949 153.916 161.523 153.916 162.266L153.67 159.922C154.045 159.203 154.533 158.648 155.134 158.258C155.744 157.859 156.416 157.66 157.15 157.66C158.47 157.66 159.49 158.094 160.209 158.961C160.935 159.82 161.298 161.039 161.298 162.617V170H158.908ZM169.912 170.176C168.216 170.176 166.904 169.703 165.974 168.758C165.045 167.812 164.58 166.469 164.58 164.727V163.355C164.58 161.543 165.025 160.141 165.916 159.148C166.814 158.156 168.076 157.66 169.701 157.66C171.232 157.66 172.416 158.223 173.252 159.348C174.095 160.473 174.517 162.051 174.517 164.082V164.879H166.314V162.957H172.244C172.173 161.973 171.916 161.203 171.47 160.648C171.033 160.094 170.443 159.816 169.701 159.816C168.802 159.816 168.103 160.113 167.603 160.707C167.103 161.301 166.853 162.141 166.853 163.227V164.773C166.853 165.781 167.119 166.555 167.65 167.094C168.189 167.633 168.943 167.902 169.912 167.902C170.396 167.902 170.877 167.805 171.353 167.609C171.83 167.414 172.255 167.141 172.63 166.789L174.201 168.359C173.599 168.938 172.923 169.387 172.173 169.707C171.423 170.02 170.67 170.176 169.912 170.176ZM196.546 170.176C195.788 170.176 195.128 169.996 194.566 169.637C194.003 169.27 193.589 168.754 193.323 168.09L193.488 165.547C193.488 166.07 193.581 166.516 193.769 166.883C193.956 167.25 194.226 167.531 194.577 167.727C194.937 167.922 195.37 168.02 195.878 168.02C196.667 168.02 197.277 167.781 197.706 167.305C198.144 166.82 198.363 166.141 198.363 165.266V162.629C198.363 161.738 198.144 161.047 197.706 160.555C197.277 160.062 196.667 159.816 195.878 159.816C195.37 159.816 194.937 159.91 194.577 160.098C194.226 160.285 193.956 160.559 193.769 160.918C193.581 161.277 193.488 161.715 193.488 162.23L193.241 159.887C193.609 159.176 194.089 158.629 194.683 158.246C195.277 157.855 195.937 157.66 196.663 157.66C197.968 157.66 198.976 158.094 199.687 158.961C200.398 159.82 200.753 161.039 200.753 162.617V165.266C200.753 166.82 200.386 168.027 199.652 168.887C198.917 169.746 197.882 170.176 196.546 170.176ZM191.097 170V152.961H193.488V170H191.097ZM211.019 170V162.289C211.019 161.492 210.804 160.875 210.374 160.438C209.952 159.992 209.351 159.77 208.57 159.77C208.093 159.77 207.62 159.844 207.152 159.992C206.691 160.133 206.277 160.34 205.909 160.613L204.163 159.418C204.624 158.863 205.23 158.434 205.98 158.129C206.738 157.816 207.577 157.66 208.499 157.66C210.023 157.66 211.202 158.055 212.038 158.844C212.874 159.633 213.292 160.746 213.292 162.184V170H211.019ZM208.042 170.176C206.55 170.176 205.429 169.867 204.679 169.25C203.937 168.633 203.566 167.688 203.566 166.414C203.566 165.203 203.905 164.301 204.585 163.707C205.273 163.105 206.3 162.805 207.667 162.805H211.124L211.288 164.727H207.679C207.062 164.727 206.597 164.867 206.284 165.148C205.972 165.422 205.816 165.844 205.816 166.414C205.816 167.031 206.023 167.488 206.437 167.785C206.851 168.082 207.472 168.23 208.3 168.23C209.206 168.23 209.886 168.133 210.339 167.938C210.792 167.742 211.019 167.438 211.019 167.023L211.265 168.734C211.054 169.062 210.792 169.332 210.48 169.543C210.167 169.754 209.808 169.91 209.402 170.012C209.003 170.121 208.55 170.176 208.042 170.176ZM219.316 152.961V166.859C219.316 167.148 219.378 167.375 219.503 167.539C219.636 167.703 219.82 167.785 220.054 167.785H221.179V170.059H219.773C218.874 170.059 218.175 169.777 217.675 169.215C217.175 168.652 216.925 167.859 216.925 166.836V152.961H219.316ZM230.636 170V162.289C230.636 161.492 230.421 160.875 229.991 160.438C229.57 159.992 228.968 159.77 228.187 159.77C227.71 159.77 227.238 159.844 226.769 159.992C226.308 160.133 225.894 160.34 225.527 160.613L223.78 159.418C224.241 158.863 224.847 158.434 225.597 158.129C226.355 157.816 227.195 157.66 228.116 157.66C229.64 157.66 230.82 158.055 231.655 158.844C232.491 159.633 232.909 160.746 232.909 162.184V170H230.636ZM227.659 170.176C226.167 170.176 225.046 169.867 224.296 169.25C223.554 168.633 223.183 167.688 223.183 166.414C223.183 165.203 223.523 164.301 224.202 163.707C224.89 163.105 225.917 162.805 227.284 162.805H230.741L230.905 164.727H227.296C226.679 164.727 226.214 164.867 225.902 165.148C225.589 165.422 225.433 165.844 225.433 166.414C225.433 167.031 225.64 167.488 226.054 167.785C226.468 168.082 227.089 168.23 227.917 168.23C228.823 168.23 229.503 168.133 229.956 167.938C230.409 167.742 230.636 167.438 230.636 167.023L230.882 168.734C230.671 169.062 230.409 169.332 230.097 169.543C229.784 169.754 229.425 169.91 229.019 170.012C228.62 170.121 228.167 170.176 227.659 170.176ZM236.542 170V157.836H238.933V170H236.542ZM243.925 170V162.629C243.925 161.77 243.702 161.105 243.257 160.637C242.82 160.168 242.195 159.934 241.382 159.934C240.601 159.934 239.995 160.141 239.566 160.555C239.144 160.969 238.933 161.551 238.933 162.301L238.687 159.957C239.062 159.223 239.55 158.656 240.152 158.258C240.761 157.859 241.433 157.66 242.167 157.66C243.488 157.66 244.507 158.094 245.226 158.961C245.952 159.82 246.316 161.039 246.316 162.617V170H243.925ZM254.859 170.176C253.187 170.176 251.89 169.715 250.968 168.793C250.054 167.871 249.597 166.57 249.597 164.891V162.887C249.597 161.223 250.054 159.938 250.968 159.031C251.89 158.117 253.187 157.66 254.859 157.66C255.812 157.66 256.671 157.828 257.437 158.164C258.202 158.5 258.812 158.98 259.265 159.605L257.542 161.152C257.206 160.762 256.808 160.461 256.347 160.25C255.886 160.039 255.402 159.934 254.894 159.934C253.972 159.934 253.257 160.191 252.749 160.707C252.241 161.223 251.988 161.949 251.988 162.887V164.891C251.988 165.852 252.241 166.594 252.749 167.117C253.257 167.641 253.972 167.902 254.894 167.902C255.402 167.902 255.886 167.789 256.347 167.562C256.808 167.336 257.206 167.016 257.542 166.602L259.265 168.266C258.812 168.875 258.198 169.348 257.425 169.684C256.659 170.012 255.804 170.176 254.859 170.176ZM266.882 170.176C265.187 170.176 263.874 169.703 262.945 168.758C262.015 167.812 261.55 166.469 261.55 164.727V163.355C261.55 161.543 261.995 160.141 262.886 159.148C263.784 158.156 265.046 157.66 266.671 157.66C268.202 157.66 269.386 158.223 270.222 159.348C271.066 160.473 271.488 162.051 271.488 164.082V164.879H263.284V162.957H269.214C269.144 161.973 268.886 161.203 268.441 160.648C268.003 160.094 267.413 159.816 266.671 159.816C265.773 159.816 265.073 160.113 264.573 160.707C264.073 161.301 263.823 162.141 263.823 163.227V164.773C263.823 165.781 264.089 166.555 264.62 167.094C265.159 167.633 265.913 167.902 266.882 167.902C267.366 167.902 267.847 167.805 268.323 167.609C268.8 167.414 269.226 167.141 269.601 166.789L271.171 168.359C270.57 168.938 269.894 169.387 269.144 169.707C268.394 170.02 267.64 170.176 266.882 170.176ZM293.516 170.176C292.759 170.176 292.098 169.996 291.536 169.637C290.973 169.27 290.559 168.754 290.294 168.09L290.458 165.547C290.458 166.07 290.552 166.516 290.739 166.883C290.927 167.25 291.196 167.531 291.548 167.727C291.907 167.922 292.341 168.02 292.848 168.02C293.637 168.02 294.247 167.781 294.677 167.305C295.114 166.82 295.333 166.141 295.333 165.266V162.629C295.333 161.738 295.114 161.047 294.677 160.555C294.247 160.062 293.637 159.816 292.848 159.816C292.341 159.816 291.907 159.91 291.548 160.098C291.196 160.285 290.927 160.559 290.739 160.918C290.552 161.277 290.458 161.715 290.458 162.23L290.212 159.887C290.579 159.176 291.059 158.629 291.653 158.246C292.247 157.855 292.907 157.66 293.634 157.66C294.938 157.66 295.946 158.094 296.657 158.961C297.368 159.82 297.723 161.039 297.723 162.617V165.266C297.723 166.82 297.356 168.027 296.622 168.887C295.887 169.746 294.852 170.176 293.516 170.176ZM288.067 170V152.961H290.458V170H288.067ZM306.102 170.176C304.407 170.176 303.095 169.703 302.165 168.758C301.235 167.812 300.77 166.469 300.77 164.727V163.355C300.77 161.543 301.216 160.141 302.106 159.148C303.005 158.156 304.266 157.66 305.891 157.66C307.423 157.66 308.606 158.223 309.442 159.348C310.286 160.473 310.708 162.051 310.708 164.082V164.879H302.505V162.957H308.434C308.364 161.973 308.106 161.203 307.661 160.648C307.223 160.094 306.634 159.816 305.891 159.816C304.993 159.816 304.294 160.113 303.794 160.707C303.294 161.301 303.044 162.141 303.044 163.227V164.773C303.044 165.781 303.309 166.555 303.841 167.094C304.38 167.633 305.134 167.902 306.102 167.902C306.587 167.902 307.067 167.805 307.544 167.609C308.02 167.414 308.446 167.141 308.821 166.789L310.391 168.359C309.79 168.938 309.114 169.387 308.364 169.707C307.614 170.02 306.86 170.176 306.102 170.176ZM320.856 170V162.289C320.856 161.492 320.641 160.875 320.212 160.438C319.79 159.992 319.188 159.77 318.407 159.77C317.93 159.77 317.458 159.844 316.989 159.992C316.528 160.133 316.114 160.34 315.747 160.613L314.001 159.418C314.462 158.863 315.067 158.434 315.817 158.129C316.575 157.816 317.415 157.66 318.337 157.66C319.86 157.66 321.04 158.055 321.876 158.844C322.712 159.633 323.13 160.746 323.13 162.184V170H320.856ZM317.88 170.176C316.388 170.176 315.266 169.867 314.516 169.25C313.774 168.633 313.403 167.688 313.403 166.414C313.403 165.203 313.743 164.301 314.423 163.707C315.11 163.105 316.138 162.805 317.505 162.805H320.962L321.126 164.727H317.516C316.899 164.727 316.434 164.867 316.122 165.148C315.809 165.422 315.653 165.844 315.653 166.414C315.653 167.031 315.86 167.488 316.274 167.785C316.688 168.082 317.309 168.23 318.138 168.23C319.044 168.23 319.723 168.133 320.177 167.938C320.63 167.742 320.856 167.438 320.856 167.023L321.102 168.734C320.891 169.062 320.63 169.332 320.317 169.543C320.005 169.754 319.645 169.91 319.239 170.012C318.841 170.121 318.388 170.176 317.88 170.176ZM341.294 170V162.629C341.294 161.77 341.071 161.105 340.626 160.637C340.188 160.168 339.563 159.934 338.751 159.934C338.009 159.934 337.434 160.16 337.028 160.613C336.622 161.066 336.419 161.707 336.419 162.535L335.938 160.191C336.329 159.379 336.837 158.754 337.462 158.316C338.087 157.879 338.778 157.66 339.536 157.66C340.856 157.66 341.876 158.094 342.595 158.961C343.321 159.82 343.684 161.039 343.684 162.617V170H341.294ZM326.763 170V157.836H329.153V170H326.763ZM334.028 170V162.629C334.028 161.77 333.817 161.105 333.395 160.637C332.973 160.168 332.376 159.934 331.602 159.934C330.821 159.934 330.216 160.141 329.786 160.555C329.364 160.969 329.153 161.551 329.153 162.301L328.907 159.957C329.282 159.223 329.77 158.656 330.372 158.258C330.981 157.859 331.653 157.66 332.388 157.66C333.669 157.66 334.661 158.094 335.364 158.961C336.067 159.82 336.419 161.039 336.419 162.617V170H334.028ZM346.907 170V167.492H349.415V170H346.907ZM366.288 169.988V152.961H368.455L376.788 166.133L376.506 166.438V152.961H378.873V169.988H376.682L368.373 157.016L368.655 156.711V169.988H366.288ZM387.522 170.176C385.928 170.176 384.694 169.715 383.819 168.793C382.944 167.863 382.506 166.559 382.506 164.879V162.898C382.506 161.234 382.944 159.945 383.819 159.031C384.694 158.117 385.928 157.66 387.522 157.66C389.116 157.66 390.35 158.117 391.225 159.031C392.1 159.945 392.538 161.234 392.538 162.898V164.914C392.538 166.586 392.1 167.883 391.225 168.805C390.35 169.719 389.116 170.176 387.522 170.176ZM387.522 167.902C388.358 167.902 389.002 167.641 389.455 167.117C389.916 166.594 390.147 165.859 390.147 164.914V162.898C390.147 161.953 389.916 161.223 389.455 160.707C389.002 160.191 388.358 159.934 387.522 159.934C386.694 159.934 386.049 160.191 385.588 160.707C385.127 161.223 384.897 161.953 384.897 162.898V164.914C384.897 165.859 385.127 166.594 385.588 167.117C386.049 167.641 386.694 167.902 387.522 167.902ZM398.163 170L394.413 157.836H396.909L399.065 166.52L402.1 157.836H403.764L406.799 166.52L408.955 157.836H411.452L407.702 170H405.897L402.932 161.598L399.967 170H398.163ZM429.719 152.961V166.859C429.719 167.148 429.781 167.375 429.906 167.539C430.039 167.703 430.223 167.785 430.457 167.785H431.582V170.059H430.176C429.277 170.059 428.578 169.777 428.078 169.215C427.578 168.652 427.328 167.859 427.328 166.836V152.961H429.719ZM439.27 170.176C437.574 170.176 436.262 169.703 435.332 168.758C434.402 167.812 433.938 166.469 433.938 164.727V163.355C433.938 161.543 434.383 160.141 435.273 159.148C436.172 158.156 437.434 157.66 439.059 157.66C440.59 157.66 441.773 158.223 442.609 159.348C443.453 160.473 443.875 162.051 443.875 164.082V164.879H435.672V162.957H441.602C441.531 161.973 441.273 161.203 440.828 160.648C440.391 160.094 439.801 159.816 439.059 159.816C438.16 159.816 437.461 160.113 436.961 160.707C436.461 161.301 436.211 162.141 436.211 163.227V164.773C436.211 165.781 436.477 166.555 437.008 167.094C437.547 167.633 438.301 167.902 439.27 167.902C439.754 167.902 440.234 167.805 440.711 167.609C441.188 167.414 441.613 167.141 441.988 166.789L443.559 168.359C442.957 168.938 442.281 169.387 441.531 169.707C440.781 170.02 440.027 170.176 439.27 170.176ZM450.32 170.059C449.32 170.059 448.594 169.781 448.141 169.227C447.695 168.672 447.473 167.875 447.473 166.836V154.297H449.863V166.859C449.863 167.148 449.922 167.375 450.039 167.539C450.156 167.703 450.328 167.785 450.555 167.785H451.703V170.059H450.32ZM446.219 159.992V157.836H451.703V159.992H446.219ZM453.988 159.359V152.961H456.496V156.758L453.988 159.359ZM462.73 170.176C461.652 170.176 460.672 170.02 459.789 169.707C458.914 169.387 458.129 168.91 457.434 168.277L458.852 166.531C459.516 167.031 460.168 167.406 460.809 167.656C461.457 167.906 462.098 168.031 462.73 168.031C463.676 168.031 464.383 167.887 464.852 167.598C465.328 167.301 465.566 166.859 465.566 166.273C465.566 165.82 465.406 165.5 465.086 165.312C464.773 165.125 464.359 165.004 463.844 164.949C463.336 164.887 462.789 164.836 462.203 164.797C461.711 164.758 461.223 164.699 460.738 164.621C460.254 164.535 459.812 164.387 459.414 164.176C459.016 163.957 458.695 163.637 458.453 163.215C458.219 162.793 458.102 162.227 458.102 161.516C458.102 160.227 458.496 159.262 459.285 158.621C460.074 157.98 461.25 157.66 462.812 157.66C463.766 157.66 464.652 157.789 465.473 158.047C466.293 158.305 467.062 158.699 467.781 159.23L466.34 160.977C465.73 160.586 465.129 160.293 464.535 160.098C463.949 159.902 463.375 159.805 462.812 159.805C462 159.805 461.391 159.945 460.984 160.227C460.578 160.5 460.375 160.914 460.375 161.469C460.375 161.836 460.516 162.102 460.797 162.266C461.078 162.422 461.449 162.523 461.91 162.57C462.371 162.617 462.867 162.66 463.398 162.699C463.906 162.73 464.418 162.789 464.934 162.875C465.457 162.953 465.938 163.109 466.375 163.344C466.812 163.578 467.164 163.926 467.43 164.387C467.695 164.848 467.828 165.477 467.828 166.273C467.828 167.578 467.402 168.555 466.551 169.203C465.707 169.852 464.434 170.176 462.73 170.176ZM58.8555 199.176C57.1602 199.176 55.8477 198.703 54.918 197.758C53.9883 196.812 53.5234 195.469 53.5234 193.727V192.355C53.5234 190.543 53.9688 189.141 54.8594 188.148C55.7578 187.156 57.0195 186.66 58.6445 186.66C60.1758 186.66 61.3594 187.223 62.1953 188.348C63.0391 189.473 63.4609 191.051 63.4609 193.082V193.879H55.2578V191.957H61.1875C61.1172 190.973 60.8594 190.203 60.4141 189.648C59.9766 189.094 59.3867 188.816 58.6445 188.816C57.7461 188.816 57.0469 189.113 56.5469 189.707C56.0469 190.301 55.7969 191.141 55.7969 192.227V193.773C55.7969 194.781 56.0625 195.555 56.5938 196.094C57.1328 196.633 57.8867 196.902 58.8555 196.902C59.3398 196.902 59.8203 196.805 60.2969 196.609C60.7734 196.414 61.1992 196.141 61.5742 195.789L63.1445 197.359C62.543 197.938 61.8672 198.387 61.1172 198.707C60.3672 199.02 59.6133 199.176 58.8555 199.176ZM73.5156 199L69.8828 193.469L65.4062 186.836H68.0664L71.5586 192.285L76.1641 199H73.5156ZM65.2188 199L69.8125 192.285L70.9609 194.488L67.8672 199H65.2188ZM71.6641 193.398L70.6562 191.148L73.3164 186.836H75.9766L71.6641 193.398ZM78.8125 203.945V186.836H81.2031V203.945H78.8125ZM84.2617 199.176C83.5039 199.176 82.8438 198.996 82.2812 198.637C81.7188 198.27 81.3047 197.754 81.0391 197.09L81.2031 194.547C81.2031 195.07 81.2969 195.516 81.4844 195.883C81.6719 196.25 81.9414 196.531 82.293 196.727C82.6523 196.922 83.0859 197.02 83.5938 197.02C84.3828 197.02 84.9922 196.781 85.4219 196.305C85.8594 195.82 86.0781 195.141 86.0781 194.266V191.629C86.0781 190.738 85.8594 190.047 85.4219 189.555C84.9922 189.062 84.3828 188.816 83.5938 188.816C83.0859 188.816 82.6523 188.91 82.293 189.098C81.9414 189.285 81.6719 189.559 81.4844 189.918C81.2969 190.277 81.2031 190.715 81.2031 191.23L80.957 188.887C81.3242 188.176 81.8047 187.629 82.3984 187.246C82.9922 186.855 83.6523 186.66 84.3789 186.66C85.6836 186.66 86.6914 187.094 87.4023 187.961C88.1133 188.82 88.4688 190.039 88.4688 191.617V194.266C88.4688 195.82 88.1016 197.027 87.3672 197.887C86.6328 198.746 85.5977 199.176 84.2617 199.176ZM94.2578 181.961V195.859C94.2578 196.148 94.3203 196.375 94.4453 196.539C94.5781 196.703 94.7617 196.785 94.9961 196.785H96.1211V199.059H94.7148C93.8164 199.059 93.1172 198.777 92.6172 198.215C92.1172 197.652 91.8672 196.859 91.8672 195.836V181.961H94.2578ZM103.492 199.176C101.898 199.176 100.664 198.715 99.7891 197.793C98.9141 196.863 98.4766 195.559 98.4766 193.879V191.898C98.4766 190.234 98.9141 188.945 99.7891 188.031C100.664 187.117 101.898 186.66 103.492 186.66C105.086 186.66 106.32 187.117 107.195 188.031C108.07 188.945 108.508 190.234 108.508 191.898V193.914C108.508 195.586 108.07 196.883 107.195 197.805C106.32 198.719 105.086 199.176 103.492 199.176ZM103.492 196.902C104.328 196.902 104.973 196.641 105.426 196.117C105.887 195.594 106.117 194.859 106.117 193.914V191.898C106.117 190.953 105.887 190.223 105.426 189.707C104.973 189.191 104.328 188.934 103.492 188.934C102.664 188.934 102.02 189.191 101.559 189.707C101.098 190.223 100.867 190.953 100.867 191.898V193.914C100.867 194.859 101.098 195.594 101.559 196.117C102.02 196.641 102.664 196.902 103.492 196.902ZM111.906 199V186.836H114.297V199H111.906ZM118.598 189.719C118.387 189.461 118.121 189.266 117.801 189.133C117.48 189 117.109 188.934 116.688 188.934C115.93 188.934 115.34 189.145 114.918 189.566C114.504 189.98 114.297 190.559 114.297 191.301L114.051 188.957C114.418 188.238 114.898 187.676 115.492 187.27C116.094 186.863 116.754 186.66 117.473 186.66C118.027 186.66 118.527 186.742 118.973 186.906C119.426 187.062 119.82 187.297 120.156 187.609L118.598 189.719ZM126.895 199.176C125.199 199.176 123.887 198.703 122.957 197.758C122.027 196.812 121.562 195.469 121.562 193.727V192.355C121.562 190.543 122.008 189.141 122.898 188.148C123.797 187.156 125.059 186.66 126.684 186.66C128.215 186.66 129.398 187.223 130.234 188.348C131.078 189.473 131.5 191.051 131.5 193.082V193.879H123.297V191.957H129.227C129.156 190.973 128.898 190.203 128.453 189.648C128.016 189.094 127.426 188.816 126.684 188.816C125.785 188.816 125.086 189.113 124.586 189.707C124.086 190.301 123.836 191.141 123.836 192.227V193.773C123.836 194.781 124.102 195.555 124.633 196.094C125.172 196.633 125.926 196.902 126.895 196.902C127.379 196.902 127.859 196.805 128.336 196.609C128.812 196.414 129.238 196.141 129.613 195.789L131.184 197.359C130.582 197.938 129.906 198.387 129.156 198.707C128.406 199.02 127.652 199.176 126.895 199.176ZM155.125 199.059C154.125 199.059 153.398 198.781 152.945 198.227C152.5 197.672 152.277 196.875 152.277 195.836V183.297H154.668V195.859C154.668 196.148 154.727 196.375 154.844 196.539C154.961 196.703 155.133 196.785 155.359 196.785H156.508V199.059H155.125ZM151.023 188.992V186.836H156.508V188.992H151.023ZM159.789 199V181.961H162.18V199H159.789ZM167.172 199V191.629C167.172 190.77 166.949 190.105 166.504 189.637C166.066 189.168 165.441 188.934 164.629 188.934C163.848 188.934 163.242 189.137 162.812 189.543C162.391 189.949 162.18 190.523 162.18 191.266L161.934 188.922C162.309 188.203 162.797 187.648 163.398 187.258C164.008 186.859 164.68 186.66 165.414 186.66C166.734 186.66 167.754 187.094 168.473 187.961C169.199 188.82 169.562 190.039 169.562 191.617V199H167.172ZM178.176 199.176C176.48 199.176 175.168 198.703 174.238 197.758C173.309 196.812 172.844 195.469 172.844 193.727V192.355C172.844 190.543 173.289 189.141 174.18 188.148C175.078 187.156 176.34 186.66 177.965 186.66C179.496 186.66 180.68 187.223 181.516 188.348C182.359 189.473 182.781 191.051 182.781 193.082V193.879H174.578V191.957H180.508C180.438 190.973 180.18 190.203 179.734 189.648C179.297 189.094 178.707 188.816 177.965 188.816C177.066 188.816 176.367 189.113 175.867 189.707C175.367 190.301 175.117 191.141 175.117 192.227V193.773C175.117 194.781 175.383 195.555 175.914 196.094C176.453 196.633 177.207 196.902 178.176 196.902C178.66 196.902 179.141 196.805 179.617 196.609C180.094 196.414 180.52 196.141 180.895 195.789L182.465 197.359C181.863 197.938 181.188 198.387 180.438 198.707C179.688 199.02 178.934 199.176 178.176 199.176ZM203.594 199V185.184C203.594 184.113 203.84 183.309 204.332 182.77C204.824 182.23 205.59 181.961 206.629 181.961H208.387V184.234H206.676C206.434 184.234 206.258 184.328 206.148 184.516C206.039 184.695 205.984 184.91 205.984 185.16V199H203.594ZM202.305 188.875V186.836H208.387V188.875H202.305ZM217.727 199V186.836H220.105V199H217.727ZM212.781 186.836V194.23C212.781 195.082 212.996 195.742 213.426 196.211C213.863 196.672 214.477 196.902 215.266 196.902C216.055 196.902 216.66 196.695 217.082 196.281C217.512 195.859 217.727 195.27 217.727 194.512L217.891 197.055C217.672 197.602 217.289 198.094 216.742 198.531C216.195 198.961 215.48 199.176 214.598 199.176C213.254 199.176 212.215 198.746 211.48 197.887C210.754 197.02 210.391 195.801 210.391 194.23V186.836H212.781ZM223.75 199V186.836H226.141V199H223.75ZM231.133 199V191.629C231.133 190.77 230.91 190.105 230.465 189.637C230.027 189.168 229.402 188.934 228.59 188.934C227.809 188.934 227.203 189.141 226.773 189.555C226.352 189.969 226.141 190.551 226.141 191.301L225.895 188.957C226.27 188.223 226.758 187.656 227.359 187.258C227.969 186.859 228.641 186.66 229.375 186.66C230.695 186.66 231.715 187.094 232.434 187.961C233.16 188.82 233.523 190.039 233.523 191.617V199H231.133ZM242.066 199.176C240.395 199.176 239.098 198.715 238.176 197.793C237.262 196.871 236.805 195.57 236.805 193.891V191.887C236.805 190.223 237.262 188.938 238.176 188.031C239.098 187.117 240.395 186.66 242.066 186.66C243.02 186.66 243.879 186.828 244.645 187.164C245.41 187.5 246.02 187.98 246.473 188.605L244.75 190.152C244.414 189.762 244.016 189.461 243.555 189.25C243.094 189.039 242.609 188.934 242.102 188.934C241.18 188.934 240.465 189.191 239.957 189.707C239.449 190.223 239.195 190.949 239.195 191.887V193.891C239.195 194.852 239.449 195.594 239.957 196.117C240.465 196.641 241.18 196.902 242.102 196.902C242.609 196.902 243.094 196.789 243.555 196.562C244.016 196.336 244.414 196.016 244.75 195.602L246.473 197.266C246.02 197.875 245.406 198.348 244.633 198.684C243.867 199.012 243.012 199.176 242.066 199.176ZM252.273 199.059C251.273 199.059 250.547 198.781 250.094 198.227C249.648 197.672 249.426 196.875 249.426 195.836V183.297H251.816V195.859C251.816 196.148 251.875 196.375 251.992 196.539C252.109 196.703 252.281 196.785 252.508 196.785H253.656V199.059H252.273ZM248.172 188.992V186.836H253.656V188.992H248.172ZM256.938 184.352V181.961H259.328V184.352H256.938ZM256.938 199V186.836H259.328V199H256.938ZM267.625 199.176C266.031 199.176 264.797 198.715 263.922 197.793C263.047 196.863 262.609 195.559 262.609 193.879V191.898C262.609 190.234 263.047 188.945 263.922 188.031C264.797 187.117 266.031 186.66 267.625 186.66C269.219 186.66 270.453 187.117 271.328 188.031C272.203 188.945 272.641 190.234 272.641 191.898V193.914C272.641 195.586 272.203 196.883 271.328 197.805C270.453 198.719 269.219 199.176 267.625 199.176ZM267.625 196.902C268.461 196.902 269.105 196.641 269.559 196.117C270.02 195.594 270.25 194.859 270.25 193.914V191.898C270.25 190.953 270.02 190.223 269.559 189.707C269.105 189.191 268.461 188.934 267.625 188.934C266.797 188.934 266.152 189.191 265.691 189.707C265.23 190.223 265 190.953 265 191.898V193.914C265 194.859 265.23 195.594 265.691 196.117C266.152 196.641 266.797 196.902 267.625 196.902ZM276.039 199V186.836H278.43V199H276.039ZM283.422 199V191.629C283.422 190.77 283.199 190.105 282.754 189.637C282.316 189.168 281.691 188.934 280.879 188.934C280.098 188.934 279.492 189.141 279.062 189.555C278.641 189.969 278.43 190.551 278.43 191.301L278.184 188.957C278.559 188.223 279.047 187.656 279.648 187.258C280.258 186.859 280.93 186.66 281.664 186.66C282.984 186.66 284.004 187.094 284.723 187.961C285.449 188.82 285.812 190.039 285.812 191.617V199H283.422ZM311.289 199.176C309.695 199.176 308.461 198.715 307.586 197.793C306.711 196.863 306.273 195.559 306.273 193.879V191.898C306.273 190.234 306.711 188.945 307.586 188.031C308.461 187.117 309.695 186.66 311.289 186.66C312.883 186.66 314.117 187.117 314.992 188.031C315.867 188.945 316.305 190.234 316.305 191.898V193.914C316.305 195.586 315.867 196.883 314.992 197.805C314.117 198.719 312.883 199.176 311.289 199.176ZM311.289 196.902C312.125 196.902 312.77 196.641 313.223 196.117C313.684 195.594 313.914 194.859 313.914 193.914V191.898C313.914 190.953 313.684 190.223 313.223 189.707C312.77 189.191 312.125 188.934 311.289 188.934C310.461 188.934 309.816 189.191 309.355 189.707C308.895 190.223 308.664 190.953 308.664 191.898V193.914C308.664 194.859 308.895 195.594 309.355 196.117C309.816 196.641 310.461 196.902 311.289 196.902ZM320.055 199V185.184C320.055 184.113 320.301 183.309 320.793 182.77C321.285 182.23 322.051 181.961 323.09 181.961H324.848V184.234H323.137C322.895 184.234 322.719 184.328 322.609 184.516C322.5 184.695 322.445 184.91 322.445 185.16V199H320.055ZM318.766 188.875V186.836H324.848V188.875H318.766ZM349.949 199.176C349.191 199.176 348.531 198.996 347.969 198.637C347.406 198.27 346.992 197.754 346.727 197.09L346.891 194.547C346.891 195.07 346.984 195.516 347.172 195.883C347.359 196.25 347.629 196.531 347.98 196.727C348.34 196.922 348.773 197.02 349.281 197.02C350.07 197.02 350.68 196.781 351.109 196.305C351.547 195.82 351.766 195.141 351.766 194.266V191.629C351.766 190.738 351.547 190.047 351.109 189.555C350.68 189.062 350.07 188.816 349.281 188.816C348.773 188.816 348.34 188.91 347.98 189.098C347.629 189.285 347.359 189.559 347.172 189.918C346.984 190.277 346.891 190.715 346.891 191.23L346.645 188.887C347.012 188.176 347.492 187.629 348.086 187.246C348.68 186.855 349.34 186.66 350.066 186.66C351.371 186.66 352.379 187.094 353.09 187.961C353.801 188.82 354.156 190.039 354.156 191.617V194.266C354.156 195.82 353.789 197.027 353.055 197.887C352.32 198.746 351.285 199.176 349.949 199.176ZM344.5 199V181.961H346.891V199H344.5ZM357.555 199V186.836H359.945V199H357.555ZM364.246 189.719C364.035 189.461 363.77 189.266 363.449 189.133C363.129 189 362.758 188.934 362.336 188.934C361.578 188.934 360.988 189.145 360.566 189.566C360.152 189.98 359.945 190.559 359.945 191.301L359.699 188.957C360.066 188.238 360.547 187.676 361.141 187.27C361.742 186.863 362.402 186.66 363.121 186.66C363.676 186.66 364.176 186.742 364.621 186.906C365.074 187.062 365.469 187.297 365.805 187.609L364.246 189.719ZM374.664 199V191.289C374.664 190.492 374.449 189.875 374.02 189.438C373.598 188.992 372.996 188.77 372.215 188.77C371.738 188.77 371.266 188.844 370.797 188.992C370.336 189.133 369.922 189.34 369.555 189.613L367.809 188.418C368.27 187.863 368.875 187.434 369.625 187.129C370.383 186.816 371.223 186.66 372.145 186.66C373.668 186.66 374.848 187.055 375.684 187.844C376.52 188.633 376.938 189.746 376.938 191.184V199H374.664ZM371.688 199.176C370.195 199.176 369.074 198.867 368.324 198.25C367.582 197.633 367.211 196.688 367.211 195.414C367.211 194.203 367.551 193.301 368.23 192.707C368.918 192.105 369.945 191.805 371.312 191.805H374.77L374.934 193.727H371.324C370.707 193.727 370.242 193.867 369.93 194.148C369.617 194.422 369.461 194.844 369.461 195.414C369.461 196.031 369.668 196.488 370.082 196.785C370.496 197.082 371.117 197.23 371.945 197.23C372.852 197.23 373.531 197.133 373.984 196.938C374.438 196.742 374.664 196.438 374.664 196.023L374.91 197.734C374.699 198.062 374.438 198.332 374.125 198.543C373.812 198.754 373.453 198.91 373.047 199.012C372.648 199.121 372.195 199.176 371.688 199.176ZM380.57 184.352V181.961H382.961V184.352H380.57ZM380.57 199V186.836H382.961V199H380.57ZM386.594 199V186.836H388.984V199H386.594ZM393.977 199V191.629C393.977 190.77 393.754 190.105 393.309 189.637C392.871 189.168 392.246 188.934 391.434 188.934C390.652 188.934 390.047 189.141 389.617 189.555C389.195 189.969 388.984 190.551 388.984 191.301L388.738 188.957C389.113 188.223 389.602 187.656 390.203 187.258C390.812 186.859 391.484 186.66 392.219 186.66C393.539 186.66 394.559 187.094 395.277 187.961C396.004 188.82 396.367 190.039 396.367 191.617V199H393.977ZM421.48 199.176C420.402 199.176 419.422 199.02 418.539 198.707C417.664 198.387 416.879 197.91 416.184 197.277L417.602 195.531C418.266 196.031 418.918 196.406 419.559 196.656C420.207 196.906 420.848 197.031 421.48 197.031C422.426 197.031 423.133 196.887 423.602 196.598C424.078 196.301 424.316 195.859 424.316 195.273C424.316 194.82 424.156 194.5 423.836 194.312C423.523 194.125 423.109 194.004 422.594 193.949C422.086 193.887 421.539 193.836 420.953 193.797C420.461 193.758 419.973 193.699 419.488 193.621C419.004 193.535 418.562 193.387 418.164 193.176C417.766 192.957 417.445 192.637 417.203 192.215C416.969 191.793 416.852 191.227 416.852 190.516C416.852 189.227 417.246 188.262 418.035 187.621C418.824 186.98 420 186.66 421.562 186.66C422.516 186.66 423.402 186.789 424.223 187.047C425.043 187.305 425.812 187.699 426.531 188.23L425.09 189.977C424.48 189.586 423.879 189.293 423.285 189.098C422.699 188.902 422.125 188.805 421.562 188.805C420.75 188.805 420.141 188.945 419.734 189.227C419.328 189.5 419.125 189.914 419.125 190.469C419.125 190.836 419.266 191.102 419.547 191.266C419.828 191.422 420.199 191.523 420.66 191.57C421.121 191.617 421.617 191.66 422.148 191.699C422.656 191.73 423.168 191.789 423.684 191.875C424.207 191.953 424.688 192.109 425.125 192.344C425.562 192.578 425.914 192.926 426.18 193.387C426.445 193.848 426.578 194.477 426.578 195.273C426.578 196.578 426.152 197.555 425.301 198.203C424.457 198.852 423.184 199.176 421.48 199.176ZM432.789 199.059C431.789 199.059 431.062 198.781 430.609 198.227C430.164 197.672 429.941 196.875 429.941 195.836V183.297H432.332V195.859C432.332 196.148 432.391 196.375 432.508 196.539C432.625 196.703 432.797 196.785 433.023 196.785H434.172V199.059H432.789ZM428.688 188.992V186.836H434.172V188.992H428.688ZM442.434 199.176C440.738 199.176 439.426 198.703 438.496 197.758C437.566 196.812 437.102 195.469 437.102 193.727V192.355C437.102 190.543 437.547 189.141 438.438 188.148C439.336 187.156 440.598 186.66 442.223 186.66C443.754 186.66 444.938 187.223 445.773 188.348C446.617 189.473 447.039 191.051 447.039 193.082V193.879H438.836V191.957H444.766C444.695 190.973 444.438 190.203 443.992 189.648C443.555 189.094 442.965 188.816 442.223 188.816C441.324 188.816 440.625 189.113 440.125 189.707C439.625 190.301 439.375 191.141 439.375 192.227V193.773C439.375 194.781 439.641 195.555 440.172 196.094C440.711 196.633 441.465 196.902 442.434 196.902C442.918 196.902 443.398 196.805 443.875 196.609C444.352 196.414 444.777 196.141 445.152 195.789L446.723 197.359C446.121 197.938 445.445 198.387 444.695 198.707C443.945 199.02 443.191 199.176 442.434 199.176ZM464.852 199V191.629C464.852 190.77 464.629 190.105 464.184 189.637C463.746 189.168 463.121 188.934 462.309 188.934C461.566 188.934 460.992 189.16 460.586 189.613C460.18 190.066 459.977 190.707 459.977 191.535L459.496 189.191C459.887 188.379 460.395 187.754 461.02 187.316C461.645 186.879 462.336 186.66 463.094 186.66C464.414 186.66 465.434 187.094 466.152 187.961C466.879 188.82 467.242 190.039 467.242 191.617V199H464.852ZM450.32 199V186.836H452.711V199H450.32ZM457.586 199V191.629C457.586 190.77 457.375 190.105 456.953 189.637C456.531 189.168 455.934 188.934 455.16 188.934C454.379 188.934 453.773 189.141 453.344 189.555C452.922 189.969 452.711 190.551 452.711 191.301L452.465 188.957C452.84 188.223 453.328 187.656 453.93 187.258C454.539 186.859 455.211 186.66 455.945 186.66C457.227 186.66 458.219 187.094 458.922 187.961C459.625 188.82 459.977 190.039 459.977 191.617V199H457.586ZM57.0391 228.059C56.0391 228.059 55.3125 227.781 54.8594 227.227C54.4141 226.672 54.1914 225.875 54.1914 224.836V212.297H56.582V224.859C56.582 225.148 56.6406 225.375 56.7578 225.539C56.875 225.703 57.0469 225.785 57.2734 225.785H58.4219V228.059H57.0391ZM52.9375 217.992V215.836H58.4219V217.992H52.9375ZM66.3672 228.176C64.7734 228.176 63.5391 227.715 62.6641 226.793C61.7891 225.863 61.3516 224.559 61.3516 222.879V220.898C61.3516 219.234 61.7891 217.945 62.6641 217.031C63.5391 216.117 64.7734 215.66 66.3672 215.66C67.9609 215.66 69.1953 216.117 70.0703 217.031C70.9453 217.945 71.3828 219.234 71.3828 220.898V222.914C71.3828 224.586 70.9453 225.883 70.0703 226.805C69.1953 227.719 67.9609 228.176 66.3672 228.176ZM66.3672 225.902C67.2031 225.902 67.8477 225.641 68.3008 225.117C68.7617 224.594 68.9922 223.859 68.9922 222.914V220.898C68.9922 219.953 68.7617 219.223 68.3008 218.707C67.8477 218.191 67.2031 217.934 66.3672 217.934C65.5391 217.934 64.8945 218.191 64.4336 218.707C63.9727 219.223 63.7422 219.953 63.7422 220.898V222.914C63.7422 223.859 63.9727 224.594 64.4336 225.117C64.8945 225.641 65.5391 225.902 66.3672 225.902ZM78.8594 232.945C77.9453 232.945 77.125 232.773 76.3984 232.43C75.6797 232.094 75.1211 231.617 74.7227 231L76.3398 229.535C76.6523 229.965 77.0234 230.297 77.4531 230.531C77.8906 230.766 78.3477 230.883 78.8242 230.883C79.7383 230.883 80.4453 230.629 80.9453 230.121C81.4453 229.621 81.6953 228.91 81.6953 227.988V215.836H84.0859V227.637C84.0859 229.324 83.6289 230.629 82.7148 231.551C81.8086 232.48 80.5234 232.945 78.8594 232.945ZM78.6367 228.211C77.293 228.211 76.2539 227.781 75.5195 226.922C74.793 226.055 74.4297 224.836 74.4297 223.266V220.582C74.4297 219.004 74.7852 217.785 75.4961 216.926C76.2148 216.059 77.2227 215.625 78.5195 215.625C79.2383 215.625 79.8945 215.812 80.4883 216.188C81.0898 216.562 81.5742 217.09 81.9414 217.77L81.6953 220.254C81.6953 219.738 81.6016 219.297 81.4141 218.93C81.2266 218.562 80.9531 218.285 80.5938 218.098C80.2422 217.902 79.8125 217.805 79.3047 217.805C78.5156 217.805 77.9023 218.051 77.4648 218.543C77.0352 219.035 76.8203 219.727 76.8203 220.617V223.266C76.8203 224.148 77.0352 224.832 77.4648 225.316C77.9023 225.793 78.5156 226.031 79.3047 226.031C79.8125 226.031 80.2422 225.934 80.5938 225.738C80.9531 225.535 81.2266 225.246 81.4141 224.871C81.6016 224.496 81.6953 224.047 81.6953 223.523L81.8594 226.09C81.6406 226.637 81.2617 227.129 80.7227 227.566C80.1914 227.996 79.4961 228.211 78.6367 228.211ZM92.6992 228.176C91.0039 228.176 89.6914 227.703 88.7617 226.758C87.832 225.812 87.3672 224.469 87.3672 222.727V221.355C87.3672 219.543 87.8125 218.141 88.7031 217.148C89.6016 216.156 90.8633 215.66 92.4883 215.66C94.0195 215.66 95.2031 216.223 96.0391 217.348C96.8828 218.473 97.3047 220.051 97.3047 222.082V222.879H89.1016V220.957H95.0312C94.9609 219.973 94.7031 219.203 94.2578 218.648C93.8203 218.094 93.2305 217.816 92.4883 217.816C91.5898 217.816 90.8906 218.113 90.3906 218.707C89.8906 219.301 89.6406 220.141 89.6406 221.227V222.773C89.6406 223.781 89.9062 224.555 90.4375 225.094C90.9766 225.633 91.7305 225.902 92.6992 225.902C93.1836 225.902 93.6641 225.805 94.1406 225.609C94.6172 225.414 95.043 225.141 95.418 224.789L96.9883 226.359C96.3867 226.938 95.7109 227.387 94.9609 227.707C94.2109 228.02 93.457 228.176 92.6992 228.176ZM103.75 228.059C102.75 228.059 102.023 227.781 101.57 227.227C101.125 226.672 100.902 225.875 100.902 224.836V212.297H103.293V224.859C103.293 225.148 103.352 225.375 103.469 225.539C103.586 225.703 103.758 225.785 103.984 225.785H105.133V228.059H103.75ZM99.6484 217.992V215.836H105.133V217.992H99.6484ZM108.414 228V210.961H110.805V228H108.414ZM115.797 228V220.629C115.797 219.77 115.574 219.105 115.129 218.637C114.691 218.168 114.066 217.934 113.254 217.934C112.473 217.934 111.867 218.137 111.438 218.543C111.016 218.949 110.805 219.523 110.805 220.266L110.559 217.922C110.934 217.203 111.422 216.648 112.023 216.258C112.633 215.859 113.305 215.66 114.039 215.66C115.359 215.66 116.379 216.094 117.098 216.961C117.824 217.82 118.188 219.039 118.188 220.617V228H115.797ZM126.801 228.176C125.105 228.176 123.793 227.703 122.863 226.758C121.934 225.812 121.469 224.469 121.469 222.727V221.355C121.469 219.543 121.914 218.141 122.805 217.148C123.703 216.156 124.965 215.66 126.59 215.66C128.121 215.66 129.305 216.223 130.141 217.348C130.984 218.473 131.406 220.051 131.406 222.082V222.879H123.203V220.957H129.133C129.062 219.973 128.805 219.203 128.359 218.648C127.922 218.094 127.332 217.816 126.59 217.816C125.691 217.816 124.992 218.113 124.492 218.707C123.992 219.301 123.742 220.141 123.742 221.227V222.773C123.742 223.781 124.008 224.555 124.539 225.094C125.078 225.633 125.832 225.902 126.801 225.902C127.285 225.902 127.766 225.805 128.242 225.609C128.719 225.414 129.145 225.141 129.52 224.789L131.09 226.359C130.488 226.938 129.812 227.387 129.062 227.707C128.312 228.02 127.559 228.176 126.801 228.176ZM134.688 228V215.836H137.078V228H134.688ZM141.379 218.719C141.168 218.461 140.902 218.266 140.582 218.133C140.262 218 139.891 217.934 139.469 217.934C138.711 217.934 138.121 218.145 137.699 218.566C137.285 218.98 137.078 219.559 137.078 220.301L136.832 217.957C137.199 217.238 137.68 216.676 138.273 216.27C138.875 215.863 139.535 215.66 140.254 215.66C140.809 215.66 141.309 215.742 141.754 215.906C142.207 216.062 142.602 216.297 142.938 216.609L141.379 218.719ZM142.996 228V225.492H145.504V228H142.996Z" fill="white"/>
<path d="M143.869 76.2637C142.088 76.2637 140.529 75.8711 139.193 75.0859C137.857 74.2891 136.82 73.1758 136.082 71.7461C135.344 70.3164 134.975 68.6465 134.975 66.7363V59.7227C134.975 57.8008 135.344 56.125 136.082 54.6953C136.82 53.2656 137.857 52.1582 139.193 51.373C140.529 50.5762 142.088 50.1777 143.869 50.1777C145.346 50.1777 146.693 50.4941 147.912 51.127C149.143 51.7598 150.168 52.6445 150.988 53.7812C151.82 54.918 152.383 56.248 152.676 57.7715H149.002C148.779 56.9512 148.404 56.2363 147.877 55.627C147.361 55.0059 146.752 54.5254 146.049 54.1855C145.346 53.8457 144.619 53.6758 143.869 53.6758C142.299 53.6758 141.033 54.2324 140.072 55.3457C139.123 56.4473 138.648 57.9062 138.648 59.7227V66.7363C138.648 68.5527 139.123 70.0117 140.072 71.1133C141.033 72.2148 142.299 72.7656 143.869 72.7656C144.982 72.7656 146.031 72.4141 147.016 71.7109C148 71.0078 148.662 69.9941 149.002 68.6699H152.676C152.383 70.1934 151.82 71.5234 150.988 72.6602C150.156 73.7969 149.131 74.6816 147.912 75.3145C146.693 75.9473 145.346 76.2637 143.869 76.2637ZM164.436 76.2637C162.045 76.2637 160.193 75.5723 158.881 74.1895C157.568 72.7949 156.912 70.8379 156.912 68.3184V65.3477C156.912 62.8516 157.568 60.918 158.881 59.5469C160.193 58.1758 162.045 57.4902 164.436 57.4902C166.826 57.4902 168.678 58.1758 169.99 59.5469C171.303 60.918 171.959 62.8516 171.959 65.3477V68.3711C171.959 70.8789 171.303 72.8242 169.99 74.207C168.678 75.5781 166.826 76.2637 164.436 76.2637ZM164.436 72.8535C165.689 72.8535 166.656 72.4609 167.336 71.6758C168.027 70.8906 168.373 69.7891 168.373 68.3711V65.3477C168.373 63.9297 168.027 62.834 167.336 62.0605C166.656 61.2871 165.689 60.9004 164.436 60.9004C163.193 60.9004 162.227 61.2871 161.535 62.0605C160.844 62.834 160.498 63.9297 160.498 65.3477V68.3711C160.498 69.7891 160.844 70.8906 161.535 71.6758C162.227 72.4609 163.193 72.8535 164.436 72.8535ZM177.057 76V57.7539H180.643V76H177.057ZM188.131 76V64.9434C188.131 63.6543 187.797 62.6582 187.129 61.9551C186.473 61.252 185.535 60.9004 184.316 60.9004C183.145 60.9004 182.236 61.2109 181.592 61.832C180.959 62.4531 180.643 63.3262 180.643 64.4512L180.273 60.9355C180.836 59.834 181.568 58.9844 182.471 58.3867C183.385 57.7891 184.393 57.4902 185.494 57.4902C187.475 57.4902 189.004 58.1406 190.082 59.4414C191.172 60.7305 191.717 62.5586 191.717 64.9258V76H188.131ZM203.283 83.418C201.912 83.418 200.682 83.1602 199.592 82.6445C198.514 82.1406 197.676 81.4258 197.078 80.5L199.504 78.3027C199.973 78.9473 200.529 79.4453 201.174 79.7969C201.83 80.1484 202.516 80.3242 203.23 80.3242C204.602 80.3242 205.662 79.9434 206.412 79.1816C207.162 78.4316 207.537 77.3652 207.537 75.9824V57.7539H211.123V75.4551C211.123 77.9863 210.438 79.9434 209.066 81.3262C207.707 82.7207 205.779 83.418 203.283 83.418ZM202.949 76.3164C200.934 76.3164 199.375 75.6719 198.273 74.3828C197.184 73.082 196.639 71.2539 196.639 68.8984V64.873C196.639 62.5059 197.172 60.6777 198.238 59.3887C199.316 58.0879 200.828 57.4375 202.773 57.4375C203.852 57.4375 204.836 57.7188 205.727 58.2812C206.629 58.8438 207.355 59.6348 207.906 60.6543L207.537 64.3809C207.537 63.6074 207.396 62.9453 207.115 62.3945C206.834 61.8438 206.424 61.4277 205.885 61.1465C205.357 60.8535 204.713 60.707 203.951 60.707C202.768 60.707 201.848 61.0762 201.191 61.8145C200.547 62.5527 200.225 63.5898 200.225 64.9258V68.8984C200.225 70.2227 200.547 71.248 201.191 71.9746C201.848 72.6895 202.768 73.0469 203.951 73.0469C204.713 73.0469 205.357 72.9004 205.885 72.6074C206.424 72.3027 206.834 71.8691 207.115 71.3066C207.396 70.7441 207.537 70.0703 207.537 69.2852L207.783 73.1348C207.455 73.9551 206.887 74.6934 206.078 75.3496C205.281 75.9941 204.238 76.3164 202.949 76.3164ZM216.572 76V57.7539H220.158V76H216.572ZM226.609 62.0781C226.293 61.6914 225.895 61.3984 225.414 61.1992C224.934 61 224.377 60.9004 223.744 60.9004C222.607 60.9004 221.723 61.2168 221.09 61.8496C220.469 62.4707 220.158 63.3379 220.158 64.4512L219.789 60.9355C220.34 59.8574 221.061 59.0137 221.951 58.4043C222.854 57.7949 223.844 57.4902 224.922 57.4902C225.754 57.4902 226.504 57.6133 227.172 57.8594C227.852 58.0938 228.443 58.4453 228.947 58.9141L226.609 62.0781ZM242.236 76V64.4336C242.236 63.2383 241.914 62.3125 241.27 61.6562C240.637 60.9883 239.734 60.6543 238.562 60.6543C237.848 60.6543 237.139 60.7656 236.436 60.9883C235.744 61.1992 235.123 61.5098 234.572 61.9199L231.953 60.127C232.645 59.2949 233.553 58.6504 234.678 58.1934C235.814 57.7246 237.074 57.4902 238.457 57.4902C240.742 57.4902 242.512 58.082 243.766 59.2656C245.02 60.4492 245.646 62.1191 245.646 64.2754V76H242.236ZM237.771 76.2637C235.533 76.2637 233.852 75.8008 232.727 74.875C231.613 73.9492 231.057 72.5312 231.057 70.6211C231.057 68.8047 231.566 67.4512 232.586 66.5605C233.617 65.6582 235.158 65.207 237.209 65.207H242.395L242.641 68.0898H237.227C236.301 68.0898 235.604 68.3008 235.135 68.7227C234.666 69.1328 234.432 69.7656 234.432 70.6211C234.432 71.5469 234.742 72.2324 235.363 72.6777C235.984 73.123 236.916 73.3457 238.158 73.3457C239.518 73.3457 240.537 73.1992 241.217 72.9062C241.896 72.6133 242.236 72.1562 242.236 71.5352L242.605 74.1016C242.289 74.5938 241.896 74.998 241.428 75.3145C240.959 75.6309 240.42 75.8652 239.811 76.0176C239.213 76.1816 238.533 76.2637 237.771 76.2637ZM255.842 76.0879C254.342 76.0879 253.252 75.6719 252.572 74.8398C251.904 74.0078 251.57 72.8125 251.57 71.2539V52.4453H255.156V71.2891C255.156 71.7227 255.244 72.0625 255.42 72.3086C255.596 72.5547 255.854 72.6777 256.193 72.6777H257.916V76.0879H255.842ZM249.689 60.9883V57.7539H257.916V60.9883H249.689ZM273.842 76V57.7539H277.41V76H273.842ZM266.424 57.7539V68.8457C266.424 70.123 266.746 71.1133 267.391 71.8164C268.047 72.5078 268.967 72.8535 270.15 72.8535C271.334 72.8535 272.242 72.543 272.875 71.9219C273.52 71.2891 273.842 70.4043 273.842 69.2676L274.088 73.082C273.76 73.9023 273.186 74.6406 272.365 75.2969C271.545 75.9414 270.473 76.2637 269.148 76.2637C267.133 76.2637 265.574 75.6191 264.473 74.3301C263.383 73.0293 262.838 71.2012 262.838 68.8457V57.7539H266.424ZM286.463 50.4414V71.2891C286.463 71.7227 286.557 72.0625 286.744 72.3086C286.943 72.5547 287.219 72.6777 287.57 72.6777H289.258V76.0879H287.148C285.801 76.0879 284.752 75.666 284.002 74.8223C283.252 73.9785 282.877 72.7891 282.877 71.2539V50.4414H286.463ZM303.443 76V64.4336C303.443 63.2383 303.121 62.3125 302.477 61.6562C301.844 60.9883 300.941 60.6543 299.77 60.6543C299.055 60.6543 298.346 60.7656 297.643 60.9883C296.951 61.1992 296.33 61.5098 295.779 61.9199L293.16 60.127C293.852 59.2949 294.76 58.6504 295.885 58.1934C297.021 57.7246 298.281 57.4902 299.664 57.4902C301.949 57.4902 303.719 58.082 304.973 59.2656C306.227 60.4492 306.854 62.1191 306.854 64.2754V76H303.443ZM298.979 76.2637C296.74 76.2637 295.059 75.8008 293.934 74.875C292.82 73.9492 292.264 72.5312 292.264 70.6211C292.264 68.8047 292.773 67.4512 293.793 66.5605C294.824 65.6582 296.365 65.207 298.416 65.207H303.602L303.848 68.0898H298.434C297.508 68.0898 296.811 68.3008 296.342 68.7227C295.873 69.1328 295.639 69.7656 295.639 70.6211C295.639 71.5469 295.949 72.2324 296.57 72.6777C297.191 73.123 298.123 73.3457 299.365 73.3457C300.725 73.3457 301.744 73.1992 302.424 72.9062C303.104 72.6133 303.443 72.1562 303.443 71.5352L303.812 74.1016C303.496 74.5938 303.104 74.998 302.635 75.3145C302.166 75.6309 301.627 75.8652 301.018 76.0176C300.42 76.1816 299.74 76.2637 298.979 76.2637ZM317.049 76.0879C315.549 76.0879 314.459 75.6719 313.779 74.8398C313.111 74.0078 312.777 72.8125 312.777 71.2539V52.4453H316.363V71.2891C316.363 71.7227 316.451 72.0625 316.627 72.3086C316.803 72.5547 317.061 72.6777 317.4 72.6777H319.123V76.0879H317.049ZM310.896 60.9883V57.7539H319.123V60.9883H310.896ZM324.045 54.0273V50.4414H327.631V54.0273H324.045ZM324.045 76V57.7539H327.631V76H324.045ZM340.076 76.2637C337.686 76.2637 335.834 75.5723 334.521 74.1895C333.209 72.7949 332.553 70.8379 332.553 68.3184V65.3477C332.553 62.8516 333.209 60.918 334.521 59.5469C335.834 58.1758 337.686 57.4902 340.076 57.4902C342.467 57.4902 344.318 58.1758 345.631 59.5469C346.943 60.918 347.6 62.8516 347.6 65.3477V68.3711C347.6 70.8789 346.943 72.8242 345.631 74.207C344.318 75.5781 342.467 76.2637 340.076 76.2637ZM340.076 72.8535C341.33 72.8535 342.297 72.4609 342.977 71.6758C343.668 70.8906 344.014 69.7891 344.014 68.3711V65.3477C344.014 63.9297 343.668 62.834 342.977 62.0605C342.297 61.2871 341.33 60.9004 340.076 60.9004C338.834 60.9004 337.867 61.2871 337.176 62.0605C336.484 62.834 336.139 63.9297 336.139 65.3477V68.3711C336.139 69.7891 336.484 70.8906 337.176 71.6758C337.867 72.4609 338.834 72.8535 340.076 72.8535ZM352.697 76V57.7539H356.283V76H352.697ZM363.771 76V64.9434C363.771 63.6543 363.438 62.6582 362.77 61.9551C362.113 61.252 361.176 60.9004 359.957 60.9004C358.785 60.9004 357.877 61.2109 357.232 61.832C356.6 62.4531 356.283 63.3262 356.283 64.4512L355.914 60.9355C356.477 59.834 357.209 58.9844 358.111 58.3867C359.025 57.7891 360.033 57.4902 361.135 57.4902C363.115 57.4902 364.645 58.1406 365.723 59.4414C366.812 60.7305 367.357 62.5586 367.357 64.9258V76H363.771ZM379.258 76.2637C377.641 76.2637 376.17 76.0293 374.846 75.5605C373.533 75.0801 372.355 74.3652 371.312 73.416L373.439 70.7969C374.436 71.5469 375.414 72.1094 376.375 72.4844C377.348 72.8594 378.309 73.0469 379.258 73.0469C380.676 73.0469 381.736 72.8301 382.439 72.3965C383.154 71.9512 383.512 71.2891 383.512 70.4102C383.512 69.7305 383.271 69.25 382.791 68.9688C382.322 68.6875 381.701 68.5059 380.928 68.4238C380.166 68.3301 379.346 68.2539 378.467 68.1953C377.729 68.1367 376.996 68.0488 376.27 67.9316C375.543 67.8027 374.881 67.5801 374.283 67.2637C373.686 66.9355 373.205 66.4551 372.842 65.8223C372.49 65.1895 372.314 64.3398 372.314 63.2734C372.314 61.3398 372.906 59.8926 374.09 58.9316C375.273 57.9707 377.037 57.4902 379.381 57.4902C380.811 57.4902 382.141 57.6836 383.371 58.0703C384.602 58.457 385.756 59.0488 386.834 59.8457L384.672 62.4648C383.758 61.8789 382.855 61.4395 381.965 61.1465C381.086 60.8535 380.225 60.707 379.381 60.707C378.162 60.707 377.248 60.918 376.639 61.3398C376.029 61.75 375.725 62.3711 375.725 63.2031C375.725 63.7539 375.936 64.1523 376.357 64.3984C376.779 64.6328 377.336 64.7852 378.027 64.8555C378.719 64.9258 379.463 64.9902 380.26 65.0488C381.021 65.0957 381.789 65.1836 382.562 65.3125C383.348 65.4297 384.068 65.6641 384.725 66.0156C385.381 66.3672 385.908 66.8887 386.307 67.5801C386.705 68.2715 386.904 69.2148 386.904 70.4102C386.904 72.3672 386.266 73.832 384.988 74.8047C383.723 75.7773 381.812 76.2637 379.258 76.2637Z" fill="white"/>
<rect x="161" y="285" width="200" height="54" rx="27" fill="#FFE500"/>
<path d="M195.5 323V300.281H199.781V323H195.5ZM197.406 323V318.875H210.719V323H197.406ZM213.844 323V300.281H218.125V323H213.844ZM215.391 323V318.875H229.062V323H215.391ZM215.391 313.781V309.656H227.344V313.781H215.391ZM215.391 304.406V300.281H229.062V304.406H215.391ZM236.656 323V302.141H240.938V323H236.656ZM230.469 304.406V300.281H247.125V304.406H230.469ZM247.203 309.969V300.281H251.484V305.875L247.203 309.969ZM260.891 323.234C259.807 323.234 258.745 323.125 257.703 322.906C256.672 322.688 255.703 322.37 254.797 321.953C253.891 321.526 253.073 321.016 252.344 320.422L254.328 316.891C255.203 317.609 256.214 318.167 257.359 318.562C258.505 318.948 259.682 319.141 260.891 319.141C262.286 319.141 263.37 318.906 264.141 318.438C264.911 317.958 265.297 317.286 265.297 316.422V316.406C265.297 315.75 265.104 315.25 264.719 314.906C264.333 314.552 263.823 314.292 263.188 314.125C262.562 313.958 261.88 313.818 261.141 313.703C260.255 313.568 259.359 313.401 258.453 313.203C257.547 312.995 256.714 312.672 255.953 312.234C255.193 311.786 254.578 311.151 254.109 310.328C253.651 309.505 253.422 308.406 253.422 307.031V307.016C253.422 304.797 254.151 303.083 255.609 301.875C257.068 300.656 259.13 300.047 261.797 300.047C263.026 300.047 264.276 300.255 265.547 300.672C266.818 301.078 268 301.661 269.094 302.422L267.281 306.047C266.406 305.432 265.49 304.964 264.531 304.641C263.583 304.307 262.672 304.141 261.797 304.141C260.484 304.141 259.469 304.359 258.75 304.797C258.031 305.224 257.672 305.828 257.672 306.609V306.625C257.672 307.354 257.885 307.906 258.312 308.281C258.74 308.656 259.297 308.938 259.984 309.125C260.672 309.302 261.411 309.469 262.203 309.625C263.078 309.792 263.948 310 264.812 310.25C265.677 310.49 266.469 310.839 267.188 311.297C267.906 311.755 268.479 312.385 268.906 313.188C269.333 313.99 269.547 315.031 269.547 316.312V316.344C269.547 318.531 268.792 320.229 267.281 321.438C265.771 322.635 263.641 323.234 260.891 323.234ZM290.344 310.297H298.219V314.734C298.219 316.443 297.875 317.938 297.188 319.219C296.5 320.49 295.536 321.479 294.297 322.188C293.068 322.885 291.62 323.234 289.953 323.234C288.276 323.234 286.807 322.906 285.547 322.25C284.297 321.583 283.323 320.651 282.625 319.453C281.938 318.245 281.594 316.839 281.594 315.234V308.531C281.594 306.823 281.938 305.333 282.625 304.062C283.312 302.792 284.271 301.807 285.5 301.109C286.74 300.401 288.193 300.047 289.859 300.047C291.234 300.047 292.484 300.328 293.609 300.891C294.745 301.453 295.698 302.24 296.469 303.25C297.24 304.26 297.76 305.443 298.031 306.797H293.406C293.177 306.057 292.719 305.49 292.031 305.094C291.354 304.688 290.63 304.484 289.859 304.484C288.703 304.484 287.776 304.854 287.078 305.594C286.38 306.333 286.031 307.312 286.031 308.531V315.234C286.031 316.307 286.391 317.172 287.109 317.828C287.828 318.474 288.776 318.797 289.953 318.797C291.109 318.797 292.036 318.448 292.734 317.75C293.432 317.042 293.781 316.057 293.781 314.797V314.422H290.344V310.297ZM309.953 323.234C308.286 323.234 306.828 322.891 305.578 322.203C304.339 321.505 303.375 320.526 302.688 319.266C302 318.005 301.656 316.536 301.656 314.859V308.422C301.656 306.734 302 305.266 302.688 304.016C303.375 302.755 304.339 301.781 305.578 301.094C306.828 300.396 308.286 300.047 309.953 300.047C311.62 300.047 313.073 300.396 314.312 301.094C315.562 301.781 316.531 302.755 317.219 304.016C317.906 305.266 318.25 306.734 318.25 308.422V314.859C318.25 316.536 317.906 318.005 317.219 319.266C316.531 320.526 315.562 321.505 314.312 322.203C313.073 322.891 311.62 323.234 309.953 323.234ZM309.953 318.953C311.12 318.953 312.052 318.589 312.75 317.859C313.458 317.13 313.812 316.167 313.812 314.969V308.312C313.812 307.104 313.458 306.141 312.75 305.422C312.052 304.693 311.12 304.328 309.953 304.328C308.786 304.328 307.849 304.693 307.141 305.422C306.443 306.141 306.094 307.104 306.094 308.312V314.969C306.094 316.167 306.443 317.13 307.141 317.859C307.849 318.589 308.786 318.953 309.953 318.953ZM322.469 316.234V300.281H326.75V316.234H322.469ZM322.469 323V318.719H326.75V323H322.469Z" fill="#9E6DD0"/>
<defs>
<linearGradient id="paint0_linear_42_447" x1="522" y1="187" x2="-3.47566e-06" y2="187" gradientUnits="userSpaceOnUse">
<stop stop-color="#DD63C2"/>
<stop offset="1" stop-color="#6376DD"/>
</linearGradient>
</defs>
</svg>
