<svg width="522" height="400" viewBox="0 0 522 400" fill="none" xmlns="http://www.w3.org/2000/svg">
<rect width="522" height="400" rx="50" fill="url(#paint0_linear_42_374)"/>
<path d="M56.582 141V125.355H58.9727V141H56.582ZM51.7656 126.234V123.961H63.7891V126.234H51.7656ZM65.4297 141V123.961H67.8203V141H65.4297ZM72.8125 141V133.629C72.8125 132.77 72.5898 132.105 72.1445 131.637C71.707 131.168 71.082 130.934 70.2695 130.934C69.4883 130.934 68.8828 131.137 68.4531 131.543C68.0312 131.949 67.8203 132.523 67.8203 133.266L67.5742 130.922C67.9492 130.203 68.4375 129.648 69.0391 129.258C69.6484 128.859 70.3203 128.66 71.0547 128.66C72.375 128.66 73.3945 129.094 74.1133 129.961C74.8398 130.82 75.2031 132.039 75.2031 133.617V141H72.8125ZM83.8164 141.176C82.1211 141.176 80.8086 140.703 79.8789 139.758C78.9492 138.812 78.4844 137.469 78.4844 135.727V134.355C78.4844 132.543 78.9297 131.141 79.8203 130.148C80.7188 129.156 81.9805 128.66 83.6055 128.66C85.1367 128.66 86.3203 129.223 87.1562 130.348C88 131.473 88.4219 133.051 88.4219 135.082V135.879H80.2188V133.957H86.1484C86.0781 132.973 85.8203 132.203 85.375 131.648C84.9375 131.094 84.3477 130.816 83.6055 130.816C82.707 130.816 82.0078 131.113 81.5078 131.707C81.0078 132.301 80.7578 133.141 80.7578 134.227V135.773C80.7578 136.781 81.0234 137.555 81.5547 138.094C82.0938 138.633 82.8477 138.902 83.8164 138.902C84.3008 138.902 84.7812 138.805 85.2578 138.609C85.7344 138.414 86.1602 138.141 86.5352 137.789L88.1055 139.359C87.5039 139.938 86.8281 140.387 86.0781 140.707C85.3281 141.02 84.5742 141.176 83.8164 141.176ZM108.508 141.176C106.836 141.176 105.539 140.715 104.617 139.793C103.703 138.871 103.246 137.57 103.246 135.891V133.887C103.246 132.223 103.703 130.938 104.617 130.031C105.539 129.117 106.836 128.66 108.508 128.66C109.461 128.66 110.32 128.828 111.086 129.164C111.852 129.5 112.461 129.98 112.914 130.605L111.191 132.152C110.855 131.762 110.457 131.461 109.996 131.25C109.535 131.039 109.051 130.934 108.543 130.934C107.621 130.934 106.906 131.191 106.398 131.707C105.891 132.223 105.637 132.949 105.637 133.887V135.891C105.637 136.852 105.891 137.594 106.398 138.117C106.906 138.641 107.621 138.902 108.543 138.902C109.051 138.902 109.535 138.789 109.996 138.562C110.457 138.336 110.855 138.016 111.191 137.602L112.914 139.266C112.461 139.875 111.848 140.348 111.074 140.684C110.309 141.012 109.453 141.176 108.508 141.176ZM120.531 141.176C118.836 141.176 117.523 140.703 116.594 139.758C115.664 138.812 115.199 137.469 115.199 135.727V134.355C115.199 132.543 115.645 131.141 116.535 130.148C117.434 129.156 118.695 128.66 120.32 128.66C121.852 128.66 123.035 129.223 123.871 130.348C124.715 131.473 125.137 133.051 125.137 135.082V135.879H116.934V133.957H122.863C122.793 132.973 122.535 132.203 122.09 131.648C121.652 131.094 121.062 130.816 120.32 130.816C119.422 130.816 118.723 131.113 118.223 131.707C117.723 132.301 117.473 133.141 117.473 134.227V135.773C117.473 136.781 117.738 137.555 118.27 138.094C118.809 138.633 119.562 138.902 120.531 138.902C121.016 138.902 121.496 138.805 121.973 138.609C122.449 138.414 122.875 138.141 123.25 137.789L124.82 139.359C124.219 139.938 123.543 140.387 122.793 140.707C122.043 141.02 121.289 141.176 120.531 141.176ZM128.418 141V128.836H130.809V141H128.418ZM135.109 131.719C134.898 131.461 134.633 131.266 134.312 131.133C133.992 131 133.621 130.934 133.199 130.934C132.441 130.934 131.852 131.145 131.43 131.566C131.016 131.98 130.809 132.559 130.809 133.301L130.562 130.957C130.93 130.238 131.41 129.676 132.004 129.27C132.605 128.863 133.266 128.66 133.984 128.66C134.539 128.66 135.039 128.742 135.484 128.906C135.938 129.062 136.332 129.297 136.668 129.609L135.109 131.719ZM143.406 141.176C141.711 141.176 140.398 140.703 139.469 139.758C138.539 138.812 138.074 137.469 138.074 135.727V134.355C138.074 132.543 138.52 131.141 139.41 130.148C140.309 129.156 141.57 128.66 143.195 128.66C144.727 128.66 145.91 129.223 146.746 130.348C147.59 131.473 148.012 133.051 148.012 135.082V135.879H139.809V133.957H145.738C145.668 132.973 145.41 132.203 144.965 131.648C144.527 131.094 143.938 130.816 143.195 130.816C142.297 130.816 141.598 131.113 141.098 131.707C140.598 132.301 140.348 133.141 140.348 134.227V135.773C140.348 136.781 140.613 137.555 141.145 138.094C141.684 138.633 142.438 138.902 143.406 138.902C143.891 138.902 144.371 138.805 144.848 138.609C145.324 138.414 145.75 138.141 146.125 137.789L147.695 139.359C147.094 139.938 146.418 140.387 145.668 140.707C144.918 141.02 144.164 141.176 143.406 141.176ZM156.742 141.176C155.984 141.176 155.324 140.996 154.762 140.637C154.199 140.27 153.785 139.754 153.52 139.09L153.684 136.547C153.684 137.07 153.777 137.516 153.965 137.883C154.152 138.25 154.422 138.531 154.773 138.727C155.133 138.922 155.566 139.02 156.074 139.02C156.863 139.02 157.473 138.781 157.902 138.305C158.34 137.82 158.559 137.141 158.559 136.266V133.629C158.559 132.738 158.34 132.047 157.902 131.555C157.473 131.062 156.863 130.816 156.074 130.816C155.566 130.816 155.133 130.91 154.773 131.098C154.422 131.285 154.152 131.559 153.965 131.918C153.777 132.277 153.684 132.715 153.684 133.23L153.438 130.887C153.805 130.176 154.285 129.629 154.879 129.246C155.473 128.855 156.133 128.66 156.859 128.66C158.164 128.66 159.172 129.094 159.883 129.961C160.594 130.82 160.949 132.039 160.949 133.617V136.266C160.949 137.82 160.582 139.027 159.848 139.887C159.113 140.746 158.078 141.176 156.742 141.176ZM151.293 141V123.961H153.684V141H151.293ZM164.348 141V128.836H166.738V141H164.348ZM171.039 131.719C170.828 131.461 170.562 131.266 170.242 131.133C169.922 131 169.551 130.934 169.129 130.934C168.371 130.934 167.781 131.145 167.359 131.566C166.945 131.98 166.738 132.559 166.738 133.301L166.492 130.957C166.859 130.238 167.34 129.676 167.934 129.27C168.535 128.863 169.195 128.66 169.914 128.66C170.469 128.66 170.969 128.742 171.414 128.906C171.867 129.062 172.262 129.297 172.598 129.609L171.039 131.719ZM181.926 141V128.836H184.305V141H181.926ZM176.98 128.836V136.23C176.98 137.082 177.195 137.742 177.625 138.211C178.062 138.672 178.676 138.902 179.465 138.902C180.254 138.902 180.859 138.695 181.281 138.281C181.711 137.859 181.926 137.27 181.926 136.512L182.09 139.055C181.871 139.602 181.488 140.094 180.941 140.531C180.395 140.961 179.68 141.176 178.797 141.176C177.453 141.176 176.414 140.746 175.68 139.887C174.953 139.02 174.59 137.801 174.59 136.23V128.836H176.98ZM202.48 141V133.629C202.48 132.77 202.258 132.105 201.812 131.637C201.375 131.168 200.75 130.934 199.938 130.934C199.195 130.934 198.621 131.16 198.215 131.613C197.809 132.066 197.605 132.707 197.605 133.535L197.125 131.191C197.516 130.379 198.023 129.754 198.648 129.316C199.273 128.879 199.965 128.66 200.723 128.66C202.043 128.66 203.062 129.094 203.781 129.961C204.508 130.82 204.871 132.039 204.871 133.617V141H202.48ZM187.949 141V128.836H190.34V141H187.949ZM195.215 141V133.629C195.215 132.77 195.004 132.105 194.582 131.637C194.16 131.168 193.562 130.934 192.789 130.934C192.008 130.934 191.402 131.141 190.973 131.555C190.551 131.969 190.34 132.551 190.34 133.301L190.094 130.957C190.469 130.223 190.957 129.656 191.559 129.258C192.168 128.859 192.84 128.66 193.574 128.66C194.855 128.66 195.848 129.094 196.551 129.961C197.254 130.82 197.605 132.039 197.605 133.617V141H195.215ZM220.398 126.352V123.961H222.789V126.352H220.398ZM220.398 141V128.836H222.789V141H220.398ZM230.723 141.176C229.645 141.176 228.664 141.02 227.781 140.707C226.906 140.387 226.121 139.91 225.426 139.277L226.844 137.531C227.508 138.031 228.16 138.406 228.801 138.656C229.449 138.906 230.09 139.031 230.723 139.031C231.668 139.031 232.375 138.887 232.844 138.598C233.32 138.301 233.559 137.859 233.559 137.273C233.559 136.82 233.398 136.5 233.078 136.312C232.766 136.125 232.352 136.004 231.836 135.949C231.328 135.887 230.781 135.836 230.195 135.797C229.703 135.758 229.215 135.699 228.73 135.621C228.246 135.535 227.805 135.387 227.406 135.176C227.008 134.957 226.688 134.637 226.445 134.215C226.211 133.793 226.094 133.227 226.094 132.516C226.094 131.227 226.488 130.262 227.277 129.621C228.066 128.98 229.242 128.66 230.805 128.66C231.758 128.66 232.645 128.789 233.465 129.047C234.285 129.305 235.055 129.699 235.773 130.23L234.332 131.977C233.723 131.586 233.121 131.293 232.527 131.098C231.941 130.902 231.367 130.805 230.805 130.805C229.992 130.805 229.383 130.945 228.977 131.227C228.57 131.5 228.367 131.914 228.367 132.469C228.367 132.836 228.508 133.102 228.789 133.266C229.07 133.422 229.441 133.523 229.902 133.57C230.363 133.617 230.859 133.66 231.391 133.699C231.898 133.73 232.41 133.789 232.926 133.875C233.449 133.953 233.93 134.109 234.367 134.344C234.805 134.578 235.156 134.926 235.422 135.387C235.688 135.848 235.82 136.477 235.82 137.273C235.82 138.578 235.395 139.555 234.543 140.203C233.699 140.852 232.426 141.176 230.723 141.176ZM253.926 141.059C252.926 141.059 252.199 140.781 251.746 140.227C251.301 139.672 251.078 138.875 251.078 137.836V125.297H253.469V137.859C253.469 138.148 253.527 138.375 253.645 138.539C253.762 138.703 253.934 138.785 254.16 138.785H255.309V141.059H253.926ZM249.824 130.992V128.836H255.309V130.992H249.824ZM258.59 141V123.961H260.98V141H258.59ZM265.973 141V133.629C265.973 132.77 265.75 132.105 265.305 131.637C264.867 131.168 264.242 130.934 263.43 130.934C262.648 130.934 262.043 131.137 261.613 131.543C261.191 131.949 260.98 132.523 260.98 133.266L260.734 130.922C261.109 130.203 261.598 129.648 262.199 129.258C262.809 128.859 263.48 128.66 264.215 128.66C265.535 128.66 266.555 129.094 267.273 129.961C268 130.82 268.363 132.039 268.363 133.617V141H265.973ZM276.977 141.176C275.281 141.176 273.969 140.703 273.039 139.758C272.109 138.812 271.645 137.469 271.645 135.727V134.355C271.645 132.543 272.09 131.141 272.98 130.148C273.879 129.156 275.141 128.66 276.766 128.66C278.297 128.66 279.48 129.223 280.316 130.348C281.16 131.473 281.582 133.051 281.582 135.082V135.879H273.379V133.957H279.309C279.238 132.973 278.98 132.203 278.535 131.648C278.098 131.094 277.508 130.816 276.766 130.816C275.867 130.816 275.168 131.113 274.668 131.707C274.168 132.301 273.918 133.141 273.918 134.227V135.773C273.918 136.781 274.184 137.555 274.715 138.094C275.254 138.633 276.008 138.902 276.977 138.902C277.461 138.902 277.941 138.805 278.418 138.609C278.895 138.414 279.32 138.141 279.695 137.789L281.266 139.359C280.664 139.938 279.988 140.387 279.238 140.707C278.488 141.02 277.734 141.176 276.977 141.176ZM299.922 141.059C298.922 141.059 298.195 140.781 297.742 140.227C297.297 139.672 297.074 138.875 297.074 137.836V125.297H299.465V137.859C299.465 138.148 299.523 138.375 299.641 138.539C299.758 138.703 299.93 138.785 300.156 138.785H301.305V141.059H299.922ZM295.82 130.992V128.836H301.305V130.992H295.82ZM304.586 141V123.961H306.977V141H304.586ZM311.969 141V133.629C311.969 132.77 311.746 132.105 311.301 131.637C310.863 131.168 310.238 130.934 309.426 130.934C308.645 130.934 308.039 131.137 307.609 131.543C307.188 131.949 306.977 132.523 306.977 133.266L306.73 130.922C307.105 130.203 307.594 129.648 308.195 129.258C308.805 128.859 309.477 128.66 310.211 128.66C311.531 128.66 312.551 129.094 313.27 129.961C313.996 130.82 314.359 132.039 314.359 133.617V141H311.969ZM317.992 126.352V123.961H320.383V126.352H317.992ZM317.992 141V128.836H320.383V141H317.992ZM324.016 141V128.836H326.406V141H324.016ZM331.398 141V133.629C331.398 132.77 331.176 132.105 330.73 131.637C330.293 131.168 329.668 130.934 328.855 130.934C328.074 130.934 327.469 131.141 327.039 131.555C326.617 131.969 326.406 132.551 326.406 133.301L326.16 130.957C326.535 130.223 327.023 129.656 327.625 129.258C328.234 128.859 328.906 128.66 329.641 128.66C330.961 128.66 331.98 129.094 332.699 129.961C333.426 130.82 333.789 132.039 333.789 133.617V141H331.398ZM338.301 139.219L338.453 136.383L344.711 128.836H347.523L338.301 139.219ZM337.422 141V123.961H339.812V141H337.422ZM345.52 141L341.277 133.98L342.812 132.387L348.121 141H345.52ZM350.125 126.352V123.961H352.516V126.352H350.125ZM350.125 141V128.836H352.516V141H350.125ZM356.148 141V128.836H358.539V141H356.148ZM363.531 141V133.629C363.531 132.77 363.309 132.105 362.863 131.637C362.426 131.168 361.801 130.934 360.988 130.934C360.207 130.934 359.602 131.141 359.172 131.555C358.75 131.969 358.539 132.551 358.539 133.301L358.293 130.957C358.668 130.223 359.156 129.656 359.758 129.258C360.367 128.859 361.039 128.66 361.773 128.66C363.094 128.66 364.113 129.094 364.832 129.961C365.559 130.82 365.922 132.039 365.922 133.617V141H363.531ZM373.633 145.945C372.719 145.945 371.898 145.773 371.172 145.43C370.453 145.094 369.895 144.617 369.496 144L371.113 142.535C371.426 142.965 371.797 143.297 372.227 143.531C372.664 143.766 373.121 143.883 373.598 143.883C374.512 143.883 375.219 143.629 375.719 143.121C376.219 142.621 376.469 141.91 376.469 140.988V128.836H378.859V140.637C378.859 142.324 378.402 143.629 377.488 144.551C376.582 145.48 375.297 145.945 373.633 145.945ZM373.41 141.211C372.066 141.211 371.027 140.781 370.293 139.922C369.566 139.055 369.203 137.836 369.203 136.266V133.582C369.203 132.004 369.559 130.785 370.27 129.926C370.988 129.059 371.996 128.625 373.293 128.625C374.012 128.625 374.668 128.812 375.262 129.188C375.863 129.562 376.348 130.09 376.715 130.77L376.469 133.254C376.469 132.738 376.375 132.297 376.188 131.93C376 131.562 375.727 131.285 375.367 131.098C375.016 130.902 374.586 130.805 374.078 130.805C373.289 130.805 372.676 131.051 372.238 131.543C371.809 132.035 371.594 132.727 371.594 133.617V136.266C371.594 137.148 371.809 137.832 372.238 138.316C372.676 138.793 373.289 139.031 374.078 139.031C374.586 139.031 375.016 138.934 375.367 138.738C375.727 138.535 376 138.246 376.188 137.871C376.375 137.496 376.469 137.047 376.469 136.523L376.633 139.09C376.414 139.637 376.035 140.129 375.496 140.566C374.965 140.996 374.27 141.211 373.41 141.211ZM394.387 145.945V128.836H396.777V145.945H394.387ZM399.836 141.176C399.078 141.176 398.418 140.996 397.855 140.637C397.293 140.27 396.879 139.754 396.613 139.09L396.777 136.547C396.777 137.07 396.871 137.516 397.059 137.883C397.246 138.25 397.516 138.531 397.867 138.727C398.227 138.922 398.66 139.02 399.168 139.02C399.957 139.02 400.566 138.781 400.996 138.305C401.434 137.82 401.652 137.141 401.652 136.266V133.629C401.652 132.738 401.434 132.047 400.996 131.555C400.566 131.062 399.957 130.816 399.168 130.816C398.66 130.816 398.227 130.91 397.867 131.098C397.516 131.285 397.246 131.559 397.059 131.918C396.871 132.277 396.777 132.715 396.777 133.23L396.531 130.887C396.898 130.176 397.379 129.629 397.973 129.246C398.566 128.855 399.227 128.66 399.953 128.66C401.258 128.66 402.266 129.094 402.977 129.961C403.688 130.82 404.043 132.039 404.043 133.617V136.266C404.043 137.82 403.676 139.027 402.941 139.887C402.207 140.746 401.172 141.176 399.836 141.176ZM414.309 141V133.289C414.309 132.492 414.094 131.875 413.664 131.438C413.242 130.992 412.641 130.77 411.859 130.77C411.383 130.77 410.91 130.844 410.441 130.992C409.98 131.133 409.566 131.34 409.199 131.613L407.453 130.418C407.914 129.863 408.52 129.434 409.27 129.129C410.027 128.816 410.867 128.66 411.789 128.66C413.312 128.66 414.492 129.055 415.328 129.844C416.164 130.633 416.582 131.746 416.582 133.184V141H414.309ZM411.332 141.176C409.84 141.176 408.719 140.867 407.969 140.25C407.227 139.633 406.855 138.688 406.855 137.414C406.855 136.203 407.195 135.301 407.875 134.707C408.562 134.105 409.59 133.805 410.957 133.805H414.414L414.578 135.727H410.969C410.352 135.727 409.887 135.867 409.574 136.148C409.262 136.422 409.105 136.844 409.105 137.414C409.105 138.031 409.312 138.488 409.727 138.785C410.141 139.082 410.762 139.23 411.59 139.23C412.496 139.23 413.176 139.133 413.629 138.938C414.082 138.742 414.309 138.438 414.309 138.023L414.555 139.734C414.344 140.062 414.082 140.332 413.77 140.543C413.457 140.754 413.098 140.91 412.691 141.012C412.293 141.121 411.84 141.176 411.332 141.176ZM420.215 141V128.836H422.605V141H420.215ZM426.906 131.719C426.695 131.461 426.43 131.266 426.109 131.133C425.789 131 425.418 130.934 424.996 130.934C424.238 130.934 423.648 131.145 423.227 131.566C422.812 131.98 422.605 132.559 422.605 133.301L422.359 130.957C422.727 130.238 423.207 129.676 423.801 129.27C424.402 128.863 425.062 128.66 425.781 128.66C426.336 128.66 426.836 128.742 427.281 128.906C427.734 129.062 428.129 129.297 428.465 129.609L426.906 131.719ZM433.621 141.059C432.621 141.059 431.895 140.781 431.441 140.227C430.996 139.672 430.773 138.875 430.773 137.836V125.297H433.164V137.859C433.164 138.148 433.223 138.375 433.34 138.539C433.457 138.703 433.629 138.785 433.855 138.785H435.004V141.059H433.621ZM429.52 130.992V128.836H435.004V130.992H429.52ZM454.844 141.176C453.25 141.176 452.016 140.715 451.141 139.793C450.266 138.863 449.828 137.559 449.828 135.879V133.898C449.828 132.234 450.266 130.945 451.141 130.031C452.016 129.117 453.25 128.66 454.844 128.66C456.438 128.66 457.672 129.117 458.547 130.031C459.422 130.945 459.859 132.234 459.859 133.898V135.914C459.859 137.586 459.422 138.883 458.547 139.805C457.672 140.719 456.438 141.176 454.844 141.176ZM454.844 138.902C455.68 138.902 456.324 138.641 456.777 138.117C457.238 137.594 457.469 136.859 457.469 135.914V133.898C457.469 132.953 457.238 132.223 456.777 131.707C456.324 131.191 455.68 130.934 454.844 130.934C454.016 130.934 453.371 131.191 452.91 131.707C452.449 132.223 452.219 132.953 452.219 133.898V135.914C452.219 136.859 452.449 137.594 452.91 138.117C453.371 138.641 454.016 138.902 454.844 138.902ZM463.609 141V127.184C463.609 126.113 463.855 125.309 464.348 124.77C464.84 124.23 465.605 123.961 466.645 123.961H468.402V126.234H466.691C466.449 126.234 466.273 126.328 466.164 126.516C466.055 126.695 466 126.91 466 127.16V141H463.609ZM462.32 130.875V128.836H468.402V130.875H462.32ZM57.0391 170.059C56.0391 170.059 55.3125 169.781 54.8594 169.227C54.4141 168.672 54.1914 167.875 54.1914 166.836V154.297H56.582V166.859C56.582 167.148 56.6406 167.375 56.7578 167.539C56.875 167.703 57.0469 167.785 57.2734 167.785H58.4219V170.059H57.0391ZM52.9375 159.992V157.836H58.4219V159.992H52.9375ZM61.7031 170V152.961H64.0938V170H61.7031ZM69.0859 170V162.629C69.0859 161.77 68.8633 161.105 68.418 160.637C67.9805 160.168 67.3555 159.934 66.543 159.934C65.7617 159.934 65.1562 160.137 64.7266 160.543C64.3047 160.949 64.0938 161.523 64.0938 162.266L63.8477 159.922C64.2227 159.203 64.7109 158.648 65.3125 158.258C65.9219 157.859 66.5938 157.66 67.3281 157.66C68.6484 157.66 69.668 158.094 70.3867 158.961C71.1133 159.82 71.4766 161.039 71.4766 162.617V170H69.0859ZM80.0898 170.176C78.3945 170.176 77.082 169.703 76.1523 168.758C75.2227 167.812 74.7578 166.469 74.7578 164.727V163.355C74.7578 161.543 75.2031 160.141 76.0938 159.148C76.9922 158.156 78.2539 157.66 79.8789 157.66C81.4102 157.66 82.5938 158.223 83.4297 159.348C84.2734 160.473 84.6953 162.051 84.6953 164.082V164.879H76.4922V162.957H82.4219C82.3516 161.973 82.0938 161.203 81.6484 160.648C81.2109 160.094 80.6211 159.816 79.8789 159.816C78.9805 159.816 78.2812 160.113 77.7812 160.707C77.2812 161.301 77.0312 162.141 77.0312 163.227V164.773C77.0312 165.781 77.2969 166.555 77.8281 167.094C78.3672 167.633 79.1211 167.902 80.0898 167.902C80.5742 167.902 81.0547 167.805 81.5312 167.609C82.0078 167.414 82.4336 167.141 82.8086 166.789L84.3789 168.359C83.7773 168.938 83.1016 169.387 82.3516 169.707C81.6016 170.02 80.8477 170.176 80.0898 170.176ZM105.66 170.176C104.902 170.176 104.242 169.996 103.68 169.637C103.117 169.27 102.703 168.754 102.438 168.09L102.602 165.547C102.602 166.07 102.695 166.516 102.883 166.883C103.07 167.25 103.34 167.531 103.691 167.727C104.051 167.922 104.484 168.02 104.992 168.02C105.781 168.02 106.391 167.781 106.82 167.305C107.258 166.82 107.477 166.141 107.477 165.266V162.629C107.477 161.738 107.258 161.047 106.82 160.555C106.391 160.062 105.781 159.816 104.992 159.816C104.484 159.816 104.051 159.91 103.691 160.098C103.34 160.285 103.07 160.559 102.883 160.918C102.695 161.277 102.602 161.715 102.602 162.23L102.355 159.887C102.723 159.176 103.203 158.629 103.797 158.246C104.391 157.855 105.051 157.66 105.777 157.66C107.082 157.66 108.09 158.094 108.801 158.961C109.512 159.82 109.867 161.039 109.867 162.617V165.266C109.867 166.82 109.5 168.027 108.766 168.887C108.031 169.746 106.996 170.176 105.66 170.176ZM100.211 170V152.961H102.602V170H100.211ZM113.266 170V157.836H115.656V170H113.266ZM119.957 160.719C119.746 160.461 119.48 160.266 119.16 160.133C118.84 160 118.469 159.934 118.047 159.934C117.289 159.934 116.699 160.145 116.277 160.566C115.863 160.98 115.656 161.559 115.656 162.301L115.41 159.957C115.777 159.238 116.258 158.676 116.852 158.27C117.453 157.863 118.113 157.66 118.832 157.66C119.387 157.66 119.887 157.742 120.332 157.906C120.785 158.062 121.18 158.297 121.516 158.609L119.957 160.719ZM130.375 170V162.289C130.375 161.492 130.16 160.875 129.73 160.438C129.309 159.992 128.707 159.77 127.926 159.77C127.449 159.77 126.977 159.844 126.508 159.992C126.047 160.133 125.633 160.34 125.266 160.613L123.52 159.418C123.98 158.863 124.586 158.434 125.336 158.129C126.094 157.816 126.934 157.66 127.855 157.66C129.379 157.66 130.559 158.055 131.395 158.844C132.23 159.633 132.648 160.746 132.648 162.184V170H130.375ZM127.398 170.176C125.906 170.176 124.785 169.867 124.035 169.25C123.293 168.633 122.922 167.688 122.922 166.414C122.922 165.203 123.262 164.301 123.941 163.707C124.629 163.105 125.656 162.805 127.023 162.805H130.48L130.645 164.727H127.035C126.418 164.727 125.953 164.867 125.641 165.148C125.328 165.422 125.172 165.844 125.172 166.414C125.172 167.031 125.379 167.488 125.793 167.785C126.207 168.082 126.828 168.23 127.656 168.23C128.562 168.23 129.242 168.133 129.695 167.938C130.148 167.742 130.375 167.438 130.375 167.023L130.621 168.734C130.41 169.062 130.148 169.332 129.836 169.543C129.523 169.754 129.164 169.91 128.758 170.012C128.359 170.121 127.906 170.176 127.398 170.176ZM136.281 155.352V152.961H138.672V155.352H136.281ZM136.281 170V157.836H138.672V170H136.281ZM142.305 170V157.836H144.695V170H142.305ZM149.688 170V162.629C149.688 161.77 149.465 161.105 149.02 160.637C148.582 160.168 147.957 159.934 147.145 159.934C146.363 159.934 145.758 160.141 145.328 160.555C144.906 160.969 144.695 161.551 144.695 162.301L144.449 159.957C144.824 159.223 145.312 158.656 145.914 158.258C146.523 157.859 147.195 157.66 147.93 157.66C149.25 157.66 150.27 158.094 150.988 158.961C151.715 159.82 152.078 161.039 152.078 162.617V170H149.688ZM155.301 170V167.492H157.809V170H155.301ZM178.738 170.176C177.91 170.176 177.129 170.098 176.395 169.941C175.668 169.785 174.984 169.551 174.344 169.238C173.711 168.926 173.117 168.535 172.562 168.066L174.051 166.238C174.699 166.801 175.414 167.223 176.195 167.504C176.977 167.785 177.824 167.926 178.738 167.926C179.973 167.926 180.93 167.695 181.609 167.234C182.289 166.773 182.629 166.129 182.629 165.301V165.289C182.629 164.641 182.457 164.145 182.113 163.801C181.77 163.457 181.316 163.203 180.754 163.039C180.199 162.867 179.59 162.727 178.926 162.617C178.285 162.508 177.637 162.379 176.98 162.23C176.332 162.082 175.734 161.852 175.188 161.539C174.641 161.219 174.199 160.762 173.863 160.168C173.535 159.574 173.371 158.781 173.371 157.789V157.777C173.371 156.191 173.898 154.965 174.953 154.098C176.008 153.223 177.496 152.785 179.418 152.785C180.332 152.785 181.227 152.934 182.102 153.23C182.977 153.52 183.828 153.965 184.656 154.566L183.297 156.465C182.648 155.98 182 155.621 181.352 155.387C180.711 155.152 180.066 155.035 179.418 155.035C178.254 155.035 177.348 155.27 176.699 155.738C176.059 156.199 175.738 156.855 175.738 157.707V157.719C175.738 158.359 175.926 158.848 176.301 159.184C176.676 159.52 177.164 159.77 177.766 159.934C178.375 160.09 179.027 160.238 179.723 160.379C180.348 160.504 180.973 160.656 181.598 160.836C182.223 161.008 182.789 161.262 183.297 161.598C183.812 161.926 184.223 162.379 184.527 162.957C184.84 163.535 184.996 164.289 184.996 165.219V165.242C184.996 166.812 184.449 168.027 183.355 168.887C182.262 169.746 180.723 170.176 178.738 170.176ZM192.836 170.176C191.242 170.176 190.008 169.715 189.133 168.793C188.258 167.863 187.82 166.559 187.82 164.879V162.898C187.82 161.234 188.258 159.945 189.133 159.031C190.008 158.117 191.242 157.66 192.836 157.66C194.43 157.66 195.664 158.117 196.539 159.031C197.414 159.945 197.852 161.234 197.852 162.898V164.914C197.852 166.586 197.414 167.883 196.539 168.805C195.664 169.719 194.43 170.176 192.836 170.176ZM192.836 167.902C193.672 167.902 194.316 167.641 194.77 167.117C195.23 166.594 195.461 165.859 195.461 164.914V162.898C195.461 161.953 195.23 161.223 194.77 160.707C194.316 160.191 193.672 159.934 192.836 159.934C192.008 159.934 191.363 160.191 190.902 160.707C190.441 161.223 190.211 161.953 190.211 162.898V164.914C190.211 165.859 190.441 166.594 190.902 167.117C191.363 167.641 192.008 167.902 192.836 167.902ZM203.641 152.961V166.859C203.641 167.148 203.703 167.375 203.828 167.539C203.961 167.703 204.145 167.785 204.379 167.785H205.504V170.059H204.098C203.199 170.059 202.5 169.777 202 169.215C201.5 168.652 201.25 167.859 201.25 166.836V152.961H203.641ZM212.395 166.52L215.371 157.836H217.867L213.297 170H211.492L206.922 157.836H209.418L212.395 166.52ZM224.957 170.176C223.262 170.176 221.949 169.703 221.02 168.758C220.09 167.812 219.625 166.469 219.625 164.727V163.355C219.625 161.543 220.07 160.141 220.961 159.148C221.859 158.156 223.121 157.66 224.746 157.66C226.277 157.66 227.461 158.223 228.297 159.348C229.141 160.473 229.562 162.051 229.562 164.082V164.879H221.359V162.957H227.289C227.219 161.973 226.961 161.203 226.516 160.648C226.078 160.094 225.488 159.816 224.746 159.816C223.848 159.816 223.148 160.113 222.648 160.707C222.148 161.301 221.898 162.141 221.898 163.227V164.773C221.898 165.781 222.164 166.555 222.695 167.094C223.234 167.633 223.988 167.902 224.957 167.902C225.441 167.902 225.922 167.805 226.398 167.609C226.875 167.414 227.301 167.141 227.676 166.789L229.246 168.359C228.645 168.938 227.969 169.387 227.219 169.707C226.469 170.02 225.715 170.176 224.957 170.176ZM248.242 170.059C247.242 170.059 246.516 169.781 246.062 169.227C245.617 168.672 245.395 167.875 245.395 166.836V154.297H247.785V166.859C247.785 167.148 247.844 167.375 247.961 167.539C248.078 167.703 248.25 167.785 248.477 167.785H249.625V170.059H248.242ZM244.141 159.992V157.836H249.625V159.992H244.141ZM252.906 170V152.961H255.297V170H252.906ZM260.289 170V162.629C260.289 161.77 260.066 161.105 259.621 160.637C259.184 160.168 258.559 159.934 257.746 159.934C256.965 159.934 256.359 160.137 255.93 160.543C255.508 160.949 255.297 161.523 255.297 162.266L255.051 159.922C255.426 159.203 255.914 158.648 256.516 158.258C257.125 157.859 257.797 157.66 258.531 157.66C259.852 157.66 260.871 158.094 261.59 158.961C262.316 159.82 262.68 161.039 262.68 162.617V170H260.289ZM271.293 170.176C269.598 170.176 268.285 169.703 267.355 168.758C266.426 167.812 265.961 166.469 265.961 164.727V163.355C265.961 161.543 266.406 160.141 267.297 159.148C268.195 158.156 269.457 157.66 271.082 157.66C272.613 157.66 273.797 158.223 274.633 159.348C275.477 160.473 275.898 162.051 275.898 164.082V164.879H267.695V162.957H273.625C273.555 161.973 273.297 161.203 272.852 160.648C272.414 160.094 271.824 159.816 271.082 159.816C270.184 159.816 269.484 160.113 268.984 160.707C268.484 161.301 268.234 162.141 268.234 163.227V164.773C268.234 165.781 268.5 166.555 269.031 167.094C269.57 167.633 270.324 167.902 271.293 167.902C271.777 167.902 272.258 167.805 272.734 167.609C273.211 167.414 273.637 167.141 274.012 166.789L275.582 168.359C274.98 168.938 274.305 169.387 273.555 169.707C272.805 170.02 272.051 170.176 271.293 170.176ZM291.414 174.945V157.836H293.805V174.945H291.414ZM296.863 170.176C296.105 170.176 295.445 169.996 294.883 169.637C294.32 169.27 293.906 168.754 293.641 168.09L293.805 165.547C293.805 166.07 293.898 166.516 294.086 166.883C294.273 167.25 294.543 167.531 294.895 167.727C295.254 167.922 295.688 168.02 296.195 168.02C296.984 168.02 297.594 167.781 298.023 167.305C298.461 166.82 298.68 166.141 298.68 165.266V162.629C298.68 161.738 298.461 161.047 298.023 160.555C297.594 160.062 296.984 159.816 296.195 159.816C295.688 159.816 295.254 159.91 294.895 160.098C294.543 160.285 294.273 160.559 294.086 160.918C293.898 161.277 293.805 161.715 293.805 162.23L293.559 159.887C293.926 159.176 294.406 158.629 295 158.246C295.594 157.855 296.254 157.66 296.98 157.66C298.285 157.66 299.293 158.094 300.004 158.961C300.715 159.82 301.07 161.039 301.07 162.617V165.266C301.07 166.82 300.703 168.027 299.969 168.887C299.234 169.746 298.199 170.176 296.863 170.176ZM311.5 170V157.836H313.879V170H311.5ZM306.555 157.836V165.23C306.555 166.082 306.77 166.742 307.199 167.211C307.637 167.672 308.25 167.902 309.039 167.902C309.828 167.902 310.434 167.695 310.855 167.281C311.285 166.859 311.5 166.27 311.5 165.512L311.664 168.055C311.445 168.602 311.062 169.094 310.516 169.531C309.969 169.961 309.254 170.176 308.371 170.176C307.027 170.176 305.988 169.746 305.254 168.887C304.527 168.02 304.164 166.801 304.164 165.23V157.836H306.555ZM325.914 157.836V159.852L320.066 167.785H326.23V170H317.172V167.938L323.172 160.051H317.336V157.836H325.914ZM337.797 157.836V159.852L331.949 167.785H338.113V170H329.055V167.938L335.055 160.051H329.219V157.836H337.797ZM343.68 152.961V166.859C343.68 167.148 343.742 167.375 343.867 167.539C344 167.703 344.184 167.785 344.418 167.785H345.543V170.059H344.137C343.238 170.059 342.539 169.777 342.039 169.215C341.539 168.652 341.289 167.859 341.289 166.836V152.961H343.68ZM353.23 170.176C351.535 170.176 350.223 169.703 349.293 168.758C348.363 167.812 347.898 166.469 347.898 164.727V163.355C347.898 161.543 348.344 160.141 349.234 159.148C350.133 158.156 351.395 157.66 353.02 157.66C354.551 157.66 355.734 158.223 356.57 159.348C357.414 160.473 357.836 162.051 357.836 164.082V164.879H349.633V162.957H355.562C355.492 161.973 355.234 161.203 354.789 160.648C354.352 160.094 353.762 159.816 353.02 159.816C352.121 159.816 351.422 160.113 350.922 160.707C350.422 161.301 350.172 162.141 350.172 163.227V164.773C350.172 165.781 350.438 166.555 350.969 167.094C351.508 167.633 352.262 167.902 353.23 167.902C353.715 167.902 354.195 167.805 354.672 167.609C355.148 167.414 355.574 167.141 355.949 166.789L357.52 168.359C356.918 168.938 356.242 169.387 355.492 169.707C354.742 170.02 353.988 170.176 353.23 170.176ZM380.219 170V162.289C380.219 161.492 380.004 160.875 379.574 160.438C379.152 159.992 378.551 159.77 377.77 159.77C377.293 159.77 376.82 159.844 376.352 159.992C375.891 160.133 375.477 160.34 375.109 160.613L373.363 159.418C373.824 158.863 374.43 158.434 375.18 158.129C375.938 157.816 376.777 157.66 377.699 157.66C379.223 157.66 380.402 158.055 381.238 158.844C382.074 159.633 382.492 160.746 382.492 162.184V170H380.219ZM377.242 170.176C375.75 170.176 374.629 169.867 373.879 169.25C373.137 168.633 372.766 167.688 372.766 166.414C372.766 165.203 373.105 164.301 373.785 163.707C374.473 163.105 375.5 162.805 376.867 162.805H380.324L380.488 164.727H376.879C376.262 164.727 375.797 164.867 375.484 165.148C375.172 165.422 375.016 165.844 375.016 166.414C375.016 167.031 375.223 167.488 375.637 167.785C376.051 168.082 376.672 168.23 377.5 168.23C378.406 168.23 379.086 168.133 379.539 167.938C379.992 167.742 380.219 167.438 380.219 167.023L380.465 168.734C380.254 169.062 379.992 169.332 379.68 169.543C379.367 169.754 379.008 169.91 378.602 170.012C378.203 170.121 377.75 170.176 377.242 170.176ZM386.125 170V157.836H388.516V170H386.125ZM393.508 170V162.629C393.508 161.77 393.285 161.105 392.84 160.637C392.402 160.168 391.777 159.934 390.965 159.934C390.184 159.934 389.578 160.141 389.148 160.555C388.727 160.969 388.516 161.551 388.516 162.301L388.27 159.957C388.645 159.223 389.133 158.656 389.734 158.258C390.344 157.859 391.016 157.66 391.75 157.66C393.07 157.66 394.09 158.094 394.809 158.961C395.535 159.82 395.898 161.039 395.898 162.617V170H393.508ZM406.445 170V152.961H408.836V170H406.445ZM403.387 170.211C402.043 170.211 401.004 169.781 400.27 168.922C399.543 168.055 399.18 166.836 399.18 165.266V162.582C399.18 161.004 399.535 159.785 400.246 158.926C400.965 158.059 401.973 157.625 403.27 157.625C403.988 157.625 404.645 157.812 405.238 158.188C405.84 158.562 406.324 159.09 406.691 159.77L406.445 162.254C406.445 161.738 406.352 161.297 406.164 160.93C405.977 160.562 405.703 160.285 405.344 160.098C404.992 159.902 404.562 159.805 404.055 159.805C403.266 159.805 402.652 160.051 402.215 160.543C401.785 161.035 401.57 161.727 401.57 162.617V165.266C401.57 166.148 401.785 166.832 402.215 167.316C402.652 167.793 403.266 168.031 404.055 168.031C404.562 168.031 404.992 167.934 405.344 167.738C405.703 167.535 405.977 167.246 406.164 166.871C406.352 166.496 406.445 166.047 406.445 165.523L406.609 168.09C406.391 168.637 406.012 169.129 405.473 169.566C404.941 169.996 404.246 170.211 403.387 170.211ZM424.703 170V152.961H427.094V170H424.703ZM432.086 170V162.629C432.086 161.77 431.863 161.105 431.418 160.637C430.98 160.168 430.355 159.934 429.543 159.934C428.762 159.934 428.156 160.137 427.727 160.543C427.305 160.949 427.094 161.523 427.094 162.266L426.848 159.922C427.223 159.203 427.711 158.648 428.312 158.258C428.922 157.859 429.594 157.66 430.328 157.66C431.648 157.66 432.668 158.094 433.387 158.961C434.113 159.82 434.477 161.039 434.477 162.617V170H432.086ZM443.09 170.176C441.395 170.176 440.082 169.703 439.152 168.758C438.223 167.812 437.758 166.469 437.758 164.727V163.355C437.758 161.543 438.203 160.141 439.094 159.148C439.992 158.156 441.254 157.66 442.879 157.66C444.41 157.66 445.594 158.223 446.43 159.348C447.273 160.473 447.695 162.051 447.695 164.082V164.879H439.492V162.957H445.422C445.352 161.973 445.094 161.203 444.648 160.648C444.211 160.094 443.621 159.816 442.879 159.816C441.98 159.816 441.281 160.113 440.781 160.707C440.281 161.301 440.031 162.141 440.031 163.227V164.773C440.031 165.781 440.297 166.555 440.828 167.094C441.367 167.633 442.121 167.902 443.09 167.902C443.574 167.902 444.055 167.805 444.531 167.609C445.008 167.414 445.434 167.141 445.809 166.789L447.379 168.359C446.777 168.938 446.102 169.387 445.352 169.707C444.602 170.02 443.848 170.176 443.09 170.176ZM453.367 152.961V166.859C453.367 167.148 453.43 167.375 453.555 167.539C453.688 167.703 453.871 167.785 454.105 167.785H455.23V170.059H453.824C452.926 170.059 452.227 169.777 451.727 169.215C451.227 168.652 450.977 167.859 450.977 166.836V152.961H453.367ZM457.82 174.945V157.836H460.211V174.945H457.82ZM463.27 170.176C462.512 170.176 461.852 169.996 461.289 169.637C460.727 169.27 460.312 168.754 460.047 168.09L460.211 165.547C460.211 166.07 460.305 166.516 460.492 166.883C460.68 167.25 460.949 167.531 461.301 167.727C461.66 167.922 462.094 168.02 462.602 168.02C463.391 168.02 464 167.781 464.43 167.305C464.867 166.82 465.086 166.141 465.086 165.266V162.629C465.086 161.738 464.867 161.047 464.43 160.555C464 160.062 463.391 159.816 462.602 159.816C462.094 159.816 461.66 159.91 461.301 160.098C460.949 160.285 460.68 160.559 460.492 160.918C460.305 161.277 460.211 161.715 460.211 162.23L459.965 159.887C460.332 159.176 460.812 158.629 461.406 158.246C462 157.855 462.66 157.66 463.387 157.66C464.691 157.66 465.699 158.094 466.41 158.961C467.121 159.82 467.477 161.039 467.477 162.617V165.266C467.477 166.82 467.109 168.027 466.375 168.887C465.641 169.746 464.605 170.176 463.27 170.176ZM54.2266 202.82V179.945H56.5V202.82H54.2266ZM55.3984 202.82V200.664H58.7031V202.82H55.3984ZM55.3984 182.102V179.945H58.7031V182.102H55.3984ZM65.8398 199.176C64.168 199.176 62.8711 198.715 61.9492 197.793C61.0352 196.871 60.5781 195.57 60.5781 193.891V191.887C60.5781 190.223 61.0352 188.938 61.9492 188.031C62.8711 187.117 64.168 186.66 65.8398 186.66C66.793 186.66 67.6523 186.828 68.418 187.164C69.1836 187.5 69.793 187.98 70.2461 188.605L68.5234 190.152C68.1875 189.762 67.7891 189.461 67.3281 189.25C66.8672 189.039 66.3828 188.934 65.875 188.934C64.9531 188.934 64.2383 189.191 63.7305 189.707C63.2227 190.223 62.9688 190.949 62.9688 191.887V193.891C62.9688 194.852 63.2227 195.594 63.7305 196.117C64.2383 196.641 64.9531 196.902 65.875 196.902C66.3828 196.902 66.8672 196.789 67.3281 196.562C67.7891 196.336 68.1875 196.016 68.5234 195.602L70.2461 197.266C69.793 197.875 69.1797 198.348 68.4062 198.684C67.6406 199.012 66.7852 199.176 65.8398 199.176ZM72.8828 199V181.961H75.2734V199H72.8828ZM80.2656 199V191.629C80.2656 190.77 80.043 190.105 79.5977 189.637C79.1602 189.168 78.5352 188.934 77.7227 188.934C76.9414 188.934 76.3359 189.137 75.9062 189.543C75.4844 189.949 75.2734 190.523 75.2734 191.266L75.0273 188.922C75.4023 188.203 75.8906 187.648 76.4922 187.258C77.1016 186.859 77.7734 186.66 78.5078 186.66C79.8281 186.66 80.8477 187.094 81.5664 187.961C82.293 188.82 82.6562 190.039 82.6562 191.617V199H80.2656ZM93.1562 199V191.289C93.1562 190.492 92.9414 189.875 92.5117 189.438C92.0898 188.992 91.4883 188.77 90.707 188.77C90.2305 188.77 89.7578 188.844 89.2891 188.992C88.8281 189.133 88.4141 189.34 88.0469 189.613L86.3008 188.418C86.7617 187.863 87.3672 187.434 88.1172 187.129C88.875 186.816 89.7148 186.66 90.6367 186.66C92.1602 186.66 93.3398 187.055 94.1758 187.844C95.0117 188.633 95.4297 189.746 95.4297 191.184V199H93.1562ZM90.1797 199.176C88.6875 199.176 87.5664 198.867 86.8164 198.25C86.0742 197.633 85.7031 196.688 85.7031 195.414C85.7031 194.203 86.043 193.301 86.7227 192.707C87.4102 192.105 88.4375 191.805 89.8047 191.805H93.2617L93.4258 193.727H89.8164C89.1992 193.727 88.7344 193.867 88.4219 194.148C88.1094 194.422 87.9531 194.844 87.9531 195.414C87.9531 196.031 88.1602 196.488 88.5742 196.785C88.9883 197.082 89.6094 197.23 90.4375 197.23C91.3438 197.23 92.0234 197.133 92.4766 196.938C92.9297 196.742 93.1562 196.438 93.1562 196.023L93.4023 197.734C93.1914 198.062 92.9297 198.332 92.6172 198.543C92.3047 198.754 91.9453 198.91 91.5391 199.012C91.1406 199.121 90.6875 199.176 90.1797 199.176ZM99.0625 199V186.836H101.453V199H99.0625ZM105.754 189.719C105.543 189.461 105.277 189.266 104.957 189.133C104.637 189 104.266 188.934 103.844 188.934C103.086 188.934 102.496 189.145 102.074 189.566C101.66 189.98 101.453 190.559 101.453 191.301L101.207 188.957C101.574 188.238 102.055 187.676 102.648 187.27C103.25 186.863 103.91 186.66 104.629 186.66C105.184 186.66 105.684 186.742 106.129 186.906C106.582 187.062 106.977 187.297 107.312 187.609L105.754 189.719ZM116.172 199V191.289C116.172 190.492 115.957 189.875 115.527 189.438C115.105 188.992 114.504 188.77 113.723 188.77C113.246 188.77 112.773 188.844 112.305 188.992C111.844 189.133 111.43 189.34 111.062 189.613L109.316 188.418C109.777 187.863 110.383 187.434 111.133 187.129C111.891 186.816 112.73 186.66 113.652 186.66C115.176 186.66 116.355 187.055 117.191 187.844C118.027 188.633 118.445 189.746 118.445 191.184V199H116.172ZM113.195 199.176C111.703 199.176 110.582 198.867 109.832 198.25C109.09 197.633 108.719 196.688 108.719 195.414C108.719 194.203 109.059 193.301 109.738 192.707C110.426 192.105 111.453 191.805 112.82 191.805H116.277L116.441 193.727H112.832C112.215 193.727 111.75 193.867 111.438 194.148C111.125 194.422 110.969 194.844 110.969 195.414C110.969 196.031 111.176 196.488 111.59 196.785C112.004 197.082 112.625 197.23 113.453 197.23C114.359 197.23 115.039 197.133 115.492 196.938C115.945 196.742 116.172 196.438 116.172 196.023L116.418 197.734C116.207 198.062 115.945 198.332 115.633 198.543C115.32 198.754 114.961 198.91 114.555 199.012C114.156 199.121 113.703 199.176 113.195 199.176ZM126.988 199.176C125.316 199.176 124.02 198.715 123.098 197.793C122.184 196.871 121.727 195.57 121.727 193.891V191.887C121.727 190.223 122.184 188.938 123.098 188.031C124.02 187.117 125.316 186.66 126.988 186.66C127.941 186.66 128.801 186.828 129.566 187.164C130.332 187.5 130.941 187.98 131.395 188.605L129.672 190.152C129.336 189.762 128.938 189.461 128.477 189.25C128.016 189.039 127.531 188.934 127.023 188.934C126.102 188.934 125.387 189.191 124.879 189.707C124.371 190.223 124.117 190.949 124.117 191.887V193.891C124.117 194.852 124.371 195.594 124.879 196.117C125.387 196.641 126.102 196.902 127.023 196.902C127.531 196.902 128.016 196.789 128.477 196.562C128.938 196.336 129.336 196.016 129.672 195.602L131.395 197.266C130.941 197.875 130.328 198.348 129.555 198.684C128.789 199.012 127.934 199.176 126.988 199.176ZM137.195 199.059C136.195 199.059 135.469 198.781 135.016 198.227C134.57 197.672 134.348 196.875 134.348 195.836V183.297H136.738V195.859C136.738 196.148 136.797 196.375 136.914 196.539C137.031 196.703 137.203 196.785 137.43 196.785H138.578V199.059H137.195ZM133.094 188.992V186.836H138.578V188.992H133.094ZM146.84 199.176C145.145 199.176 143.832 198.703 142.902 197.758C141.973 196.812 141.508 195.469 141.508 193.727V192.355C141.508 190.543 141.953 189.141 142.844 188.148C143.742 187.156 145.004 186.66 146.629 186.66C148.16 186.66 149.344 187.223 150.18 188.348C151.023 189.473 151.445 191.051 151.445 193.082V193.879H143.242V191.957H149.172C149.102 190.973 148.844 190.203 148.398 189.648C147.961 189.094 147.371 188.816 146.629 188.816C145.73 188.816 145.031 189.113 144.531 189.707C144.031 190.301 143.781 191.141 143.781 192.227V193.773C143.781 194.781 144.047 195.555 144.578 196.094C145.117 196.633 145.871 196.902 146.84 196.902C147.324 196.902 147.805 196.805 148.281 196.609C148.758 196.414 149.184 196.141 149.559 195.789L151.129 197.359C150.527 197.938 149.852 198.387 149.102 198.707C148.352 199.02 147.598 199.176 146.84 199.176ZM154.727 199V186.836H157.117V199H154.727ZM161.418 189.719C161.207 189.461 160.941 189.266 160.621 189.133C160.301 189 159.93 188.934 159.508 188.934C158.75 188.934 158.16 189.145 157.738 189.566C157.324 189.98 157.117 190.559 157.117 191.301L156.871 188.957C157.238 188.238 157.719 187.676 158.312 187.27C158.914 186.863 159.574 186.66 160.293 186.66C160.848 186.66 161.348 186.742 161.793 186.906C162.246 187.062 162.641 187.297 162.977 187.609L161.418 189.719ZM165.648 202.82V179.945H167.922V202.82H165.648ZM163.445 202.82V200.664H166.75V202.82H163.445ZM163.445 182.102V179.945H166.75V182.102H163.445ZM178.82 199V185.184C178.82 184.113 179.066 183.309 179.559 182.77C180.051 182.23 180.816 181.961 181.855 181.961H183.613V184.234H181.902C181.66 184.234 181.484 184.328 181.375 184.516C181.266 184.695 181.211 184.91 181.211 185.16V199H178.82ZM177.531 188.875V186.836H183.613V188.875H177.531ZM186.438 184.352V181.961H188.828V184.352H186.438ZM186.438 199V186.836H188.828V199H186.438ZM192.461 199V186.836H194.852V199H192.461ZM199.844 199V191.629C199.844 190.77 199.621 190.105 199.176 189.637C198.738 189.168 198.113 188.934 197.301 188.934C196.52 188.934 195.914 189.141 195.484 189.555C195.062 189.969 194.852 190.551 194.852 191.301L194.605 188.957C194.98 188.223 195.469 187.656 196.07 187.258C196.68 186.859 197.352 186.66 198.086 186.66C199.406 186.66 200.426 187.094 201.145 187.961C201.871 188.82 202.234 190.039 202.234 191.617V199H199.844ZM205.867 184.352V181.961H208.258V184.352H205.867ZM205.867 199V186.836H208.258V199H205.867ZM216.191 199.176C215.113 199.176 214.133 199.02 213.25 198.707C212.375 198.387 211.59 197.91 210.895 197.277L212.312 195.531C212.977 196.031 213.629 196.406 214.27 196.656C214.918 196.906 215.559 197.031 216.191 197.031C217.137 197.031 217.844 196.887 218.312 196.598C218.789 196.301 219.027 195.859 219.027 195.273C219.027 194.82 218.867 194.5 218.547 194.312C218.234 194.125 217.82 194.004 217.305 193.949C216.797 193.887 216.25 193.836 215.664 193.797C215.172 193.758 214.684 193.699 214.199 193.621C213.715 193.535 213.273 193.387 212.875 193.176C212.477 192.957 212.156 192.637 211.914 192.215C211.68 191.793 211.562 191.227 211.562 190.516C211.562 189.227 211.957 188.262 212.746 187.621C213.535 186.98 214.711 186.66 216.273 186.66C217.227 186.66 218.113 186.789 218.934 187.047C219.754 187.305 220.523 187.699 221.242 188.23L219.801 189.977C219.191 189.586 218.59 189.293 217.996 189.098C217.41 188.902 216.836 188.805 216.273 188.805C215.461 188.805 214.852 188.945 214.445 189.227C214.039 189.5 213.836 189.914 213.836 190.469C213.836 190.836 213.977 191.102 214.258 191.266C214.539 191.422 214.91 191.523 215.371 191.57C215.832 191.617 216.328 191.66 216.859 191.699C217.367 191.73 217.879 191.789 218.395 191.875C218.918 191.953 219.398 192.109 219.836 192.344C220.273 192.578 220.625 192.926 220.891 193.387C221.156 193.848 221.289 194.477 221.289 195.273C221.289 196.578 220.863 197.555 220.012 198.203C219.168 198.852 217.895 199.176 216.191 199.176ZM224.336 199V181.961H226.727V199H224.336ZM231.719 199V191.629C231.719 190.77 231.496 190.105 231.051 189.637C230.613 189.168 229.988 188.934 229.176 188.934C228.395 188.934 227.789 189.137 227.359 189.543C226.938 189.949 226.727 190.523 226.727 191.266L226.48 188.922C226.855 188.203 227.344 187.648 227.945 187.258C228.555 186.859 229.227 186.66 229.961 186.66C231.281 186.66 232.301 187.094 233.02 187.961C233.746 188.82 234.109 190.039 234.109 191.617V199H231.719ZM244.188 199V181.961H246.578V199H244.188ZM251.57 199V191.629C251.57 190.77 251.348 190.105 250.902 189.637C250.465 189.168 249.84 188.934 249.027 188.934C248.246 188.934 247.641 189.137 247.211 189.543C246.789 189.949 246.578 190.523 246.578 191.266L246.332 188.922C246.707 188.203 247.195 187.648 247.797 187.258C248.406 186.859 249.078 186.66 249.812 186.66C251.133 186.66 252.152 187.094 252.871 187.961C253.598 188.82 253.961 190.039 253.961 191.617V199H251.57ZM257.594 184.352V181.961H259.984V184.352H257.594ZM257.594 199V186.836H259.984V199H257.594ZM267.918 199.176C266.84 199.176 265.859 199.02 264.977 198.707C264.102 198.387 263.316 197.91 262.621 197.277L264.039 195.531C264.703 196.031 265.355 196.406 265.996 196.656C266.645 196.906 267.285 197.031 267.918 197.031C268.863 197.031 269.57 196.887 270.039 196.598C270.516 196.301 270.754 195.859 270.754 195.273C270.754 194.82 270.594 194.5 270.273 194.312C269.961 194.125 269.547 194.004 269.031 193.949C268.523 193.887 267.977 193.836 267.391 193.797C266.898 193.758 266.41 193.699 265.926 193.621C265.441 193.535 265 193.387 264.602 193.176C264.203 192.957 263.883 192.637 263.641 192.215C263.406 191.793 263.289 191.227 263.289 190.516C263.289 189.227 263.684 188.262 264.473 187.621C265.262 186.98 266.438 186.66 268 186.66C268.953 186.66 269.84 186.789 270.66 187.047C271.48 187.305 272.25 187.699 272.969 188.23L271.527 189.977C270.918 189.586 270.316 189.293 269.723 189.098C269.137 188.902 268.562 188.805 268 188.805C267.188 188.805 266.578 188.945 266.172 189.227C265.766 189.5 265.562 189.914 265.562 190.469C265.562 190.836 265.703 191.102 265.984 191.266C266.266 191.422 266.637 191.523 267.098 191.57C267.559 191.617 268.055 191.66 268.586 191.699C269.094 191.73 269.605 191.789 270.121 191.875C270.645 191.953 271.125 192.109 271.562 192.344C272 192.578 272.352 192.926 272.617 193.387C272.883 193.848 273.016 194.477 273.016 195.273C273.016 196.578 272.59 197.555 271.738 198.203C270.895 198.852 269.621 199.176 267.918 199.176ZM282.508 203.945V186.836H284.898V203.945H282.508ZM287.957 199.176C287.199 199.176 286.539 198.996 285.977 198.637C285.414 198.27 285 197.754 284.734 197.09L284.898 194.547C284.898 195.07 284.992 195.516 285.18 195.883C285.367 196.25 285.637 196.531 285.988 196.727C286.348 196.922 286.781 197.02 287.289 197.02C288.078 197.02 288.688 196.781 289.117 196.305C289.555 195.82 289.773 195.141 289.773 194.266V191.629C289.773 190.738 289.555 190.047 289.117 189.555C288.688 189.062 288.078 188.816 287.289 188.816C286.781 188.816 286.348 188.91 285.988 189.098C285.637 189.285 285.367 189.559 285.18 189.918C284.992 190.277 284.898 190.715 284.898 191.23L284.652 188.887C285.02 188.176 285.5 187.629 286.094 187.246C286.688 186.855 287.348 186.66 288.074 186.66C289.379 186.66 290.387 187.094 291.098 187.961C291.809 188.82 292.164 190.039 292.164 191.617V194.266C292.164 195.82 291.797 197.027 291.062 197.887C290.328 198.746 289.293 199.176 287.957 199.176ZM302.43 199V191.289C302.43 190.492 302.215 189.875 301.785 189.438C301.363 188.992 300.762 188.77 299.98 188.77C299.504 188.77 299.031 188.844 298.562 188.992C298.102 189.133 297.688 189.34 297.32 189.613L295.574 188.418C296.035 187.863 296.641 187.434 297.391 187.129C298.148 186.816 298.988 186.66 299.91 186.66C301.434 186.66 302.613 187.055 303.449 187.844C304.285 188.633 304.703 189.746 304.703 191.184V199H302.43ZM299.453 199.176C297.961 199.176 296.84 198.867 296.09 198.25C295.348 197.633 294.977 196.688 294.977 195.414C294.977 194.203 295.316 193.301 295.996 192.707C296.684 192.105 297.711 191.805 299.078 191.805H302.535L302.699 193.727H299.09C298.473 193.727 298.008 193.867 297.695 194.148C297.383 194.422 297.227 194.844 297.227 195.414C297.227 196.031 297.434 196.488 297.848 196.785C298.262 197.082 298.883 197.23 299.711 197.23C300.617 197.23 301.297 197.133 301.75 196.938C302.203 196.742 302.43 196.438 302.43 196.023L302.676 197.734C302.465 198.062 302.203 198.332 301.891 198.543C301.578 198.754 301.219 198.91 300.812 199.012C300.414 199.121 299.961 199.176 299.453 199.176ZM308.336 184.352V181.961H310.727V184.352H308.336ZM308.336 199V186.836H310.727V199H308.336ZM314.359 199V186.836H316.75V199H314.359ZM321.742 199V191.629C321.742 190.77 321.52 190.105 321.074 189.637C320.637 189.168 320.012 188.934 319.199 188.934C318.418 188.934 317.812 189.141 317.383 189.555C316.961 189.969 316.75 190.551 316.75 191.301L316.504 188.957C316.879 188.223 317.367 187.656 317.969 187.258C318.578 186.859 319.25 186.66 319.984 186.66C321.305 186.66 322.324 187.094 323.043 187.961C323.77 188.82 324.133 190.039 324.133 191.617V199H321.742ZM330.93 199.059C329.93 199.059 329.203 198.781 328.75 198.227C328.305 197.672 328.082 196.875 328.082 195.836V183.297H330.473V195.859C330.473 196.148 330.531 196.375 330.648 196.539C330.766 196.703 330.938 196.785 331.164 196.785H332.312V199.059H330.93ZM326.828 188.992V186.836H332.312V188.992H326.828ZM335.594 184.352V181.961H337.984V184.352H335.594ZM335.594 199V186.836H337.984V199H335.594ZM341.617 199V186.836H344.008V199H341.617ZM349 199V191.629C349 190.77 348.777 190.105 348.332 189.637C347.895 189.168 347.27 188.934 346.457 188.934C345.676 188.934 345.07 189.141 344.641 189.555C344.219 189.969 344.008 190.551 344.008 191.301L343.762 188.957C344.137 188.223 344.625 187.656 345.227 187.258C345.836 186.859 346.508 186.66 347.242 186.66C348.562 186.66 349.582 187.094 350.301 187.961C351.027 188.82 351.391 190.039 351.391 191.617V199H349ZM359.102 203.945C358.188 203.945 357.367 203.773 356.641 203.43C355.922 203.094 355.363 202.617 354.965 202L356.582 200.535C356.895 200.965 357.266 201.297 357.695 201.531C358.133 201.766 358.59 201.883 359.066 201.883C359.98 201.883 360.688 201.629 361.188 201.121C361.688 200.621 361.938 199.91 361.938 198.988V186.836H364.328V198.637C364.328 200.324 363.871 201.629 362.957 202.551C362.051 203.48 360.766 203.945 359.102 203.945ZM358.879 199.211C357.535 199.211 356.496 198.781 355.762 197.922C355.035 197.055 354.672 195.836 354.672 194.266V191.582C354.672 190.004 355.027 188.785 355.738 187.926C356.457 187.059 357.465 186.625 358.762 186.625C359.48 186.625 360.137 186.812 360.73 187.188C361.332 187.562 361.816 188.09 362.184 188.77L361.938 191.254C361.938 190.738 361.844 190.297 361.656 189.93C361.469 189.562 361.195 189.285 360.836 189.098C360.484 188.902 360.055 188.805 359.547 188.805C358.758 188.805 358.145 189.051 357.707 189.543C357.277 190.035 357.062 190.727 357.062 191.617V194.266C357.062 195.148 357.277 195.832 357.707 196.316C358.145 196.793 358.758 197.031 359.547 197.031C360.055 197.031 360.484 196.934 360.836 196.738C361.195 196.535 361.469 196.246 361.656 195.871C361.844 195.496 361.938 195.047 361.938 194.523L362.102 197.09C361.883 197.637 361.504 198.129 360.965 198.566C360.434 198.996 359.738 199.211 358.879 199.211ZM367.551 199V196.492H370.059V199H367.551Z" fill="white"/>
<path d="M191.172 76.2637C189.391 76.2637 187.832 75.8711 186.496 75.0859C185.16 74.2891 184.123 73.1758 183.385 71.7461C182.646 70.3164 182.277 68.6465 182.277 66.7363V59.7227C182.277 57.8008 182.646 56.125 183.385 54.6953C184.123 53.2656 185.16 52.1582 186.496 51.373C187.832 50.5762 189.391 50.1777 191.172 50.1777C192.648 50.1777 193.996 50.4941 195.215 51.127C196.445 51.7598 197.471 52.6445 198.291 53.7812C199.123 54.918 199.686 56.248 199.979 57.7715H196.305C196.082 56.9512 195.707 56.2363 195.18 55.627C194.664 55.0059 194.055 54.5254 193.352 54.1855C192.648 53.8457 191.922 53.6758 191.172 53.6758C189.602 53.6758 188.336 54.2324 187.375 55.3457C186.426 56.4473 185.951 57.9062 185.951 59.7227V66.7363C185.951 68.5527 186.426 70.0117 187.375 71.1133C188.336 72.2148 189.602 72.7656 191.172 72.7656C192.285 72.7656 193.334 72.4141 194.318 71.7109C195.303 71.0078 195.965 69.9941 196.305 68.6699H199.979C199.686 70.1934 199.123 71.5234 198.291 72.6602C197.459 73.7969 196.434 74.6816 195.215 75.3145C193.996 75.9473 192.648 76.2637 191.172 76.2637ZM212.213 76.2637C209.67 76.2637 207.701 75.5547 206.307 74.1367C204.912 72.7188 204.215 70.7031 204.215 68.0898V66.0332C204.215 63.3145 204.883 61.2109 206.219 59.7227C207.566 58.2344 209.459 57.4902 211.896 57.4902C214.193 57.4902 215.969 58.334 217.223 60.0215C218.488 61.709 219.121 64.0762 219.121 67.123V68.3184H206.816V65.4355H215.711C215.605 63.959 215.219 62.8047 214.551 61.9727C213.895 61.1406 213.01 60.7246 211.896 60.7246C210.549 60.7246 209.5 61.1699 208.75 62.0605C208 62.9512 207.625 64.2109 207.625 65.8398V68.1602C207.625 69.6719 208.023 70.832 208.82 71.6406C209.629 72.4492 210.76 72.8535 212.213 72.8535C212.939 72.8535 213.66 72.707 214.375 72.4141C215.09 72.1211 215.729 71.7109 216.291 71.1836L218.646 73.5391C217.744 74.4062 216.73 75.0801 215.605 75.5605C214.48 76.0293 213.35 76.2637 212.213 76.2637ZM224.043 76V57.7539H227.629V76H224.043ZM234.08 62.0781C233.764 61.6914 233.365 61.3984 232.885 61.1992C232.404 61 231.848 60.9004 231.215 60.9004C230.078 60.9004 229.193 61.2168 228.561 61.8496C227.939 62.4707 227.629 63.3379 227.629 64.4512L227.26 60.9355C227.811 59.8574 228.531 59.0137 229.422 58.4043C230.324 57.7949 231.314 57.4902 232.393 57.4902C233.225 57.4902 233.975 57.6133 234.643 57.8594C235.322 58.0938 235.914 58.4453 236.418 58.9141L234.08 62.0781ZM246.525 76.2637C243.982 76.2637 242.014 75.5547 240.619 74.1367C239.225 72.7188 238.527 70.7031 238.527 68.0898V66.0332C238.527 63.3145 239.195 61.2109 240.531 59.7227C241.879 58.2344 243.771 57.4902 246.209 57.4902C248.506 57.4902 250.281 58.334 251.535 60.0215C252.801 61.709 253.434 64.0762 253.434 67.123V68.3184H241.129V65.4355H250.023C249.918 63.959 249.531 62.8047 248.863 61.9727C248.207 61.1406 247.322 60.7246 246.209 60.7246C244.861 60.7246 243.812 61.1699 243.062 62.0605C242.312 62.9512 241.938 64.2109 241.938 65.8398V68.1602C241.938 69.6719 242.336 70.832 243.133 71.6406C243.941 72.4492 245.072 72.8535 246.525 72.8535C247.252 72.8535 247.973 72.707 248.688 72.4141C249.402 72.1211 250.041 71.7109 250.604 71.1836L252.959 73.5391C252.057 74.4062 251.043 75.0801 249.918 75.5605C248.793 76.0293 247.662 76.2637 246.525 76.2637ZM266.529 76.2637C265.393 76.2637 264.402 75.9941 263.559 75.4551C262.715 74.9043 262.094 74.1309 261.695 73.1348L261.941 69.3203C261.941 70.1055 262.082 70.7734 262.363 71.3242C262.645 71.875 263.049 72.2969 263.576 72.5898C264.115 72.8828 264.766 73.0293 265.527 73.0293C266.711 73.0293 267.625 72.6719 268.27 71.957C268.926 71.2305 269.254 70.2109 269.254 68.8984V64.9434C269.254 63.6074 268.926 62.5703 268.27 61.832C267.625 61.0938 266.711 60.7246 265.527 60.7246C264.766 60.7246 264.115 60.8652 263.576 61.1465C263.049 61.4277 262.645 61.8379 262.363 62.377C262.082 62.916 261.941 63.5723 261.941 64.3457L261.572 60.8301C262.123 59.7637 262.844 58.9434 263.734 58.3691C264.625 57.7832 265.615 57.4902 266.705 57.4902C268.662 57.4902 270.174 58.1406 271.24 59.4414C272.307 60.7305 272.84 62.5586 272.84 64.9258V68.8984C272.84 71.2305 272.289 73.041 271.188 74.3301C270.086 75.6191 268.533 76.2637 266.529 76.2637ZM258.355 76V50.4414H261.941V76H258.355ZM277.938 76V57.7539H281.523V76H277.938ZM287.975 62.0781C287.658 61.6914 287.26 61.3984 286.779 61.1992C286.299 61 285.742 60.9004 285.109 60.9004C283.973 60.9004 283.088 61.2168 282.455 61.8496C281.834 62.4707 281.523 63.3379 281.523 64.4512L281.154 60.9355C281.705 59.8574 282.426 59.0137 283.316 58.4043C284.219 57.7949 285.209 57.4902 286.287 57.4902C287.119 57.4902 287.869 57.6133 288.537 57.8594C289.217 58.0938 289.809 58.4453 290.312 58.9141L287.975 62.0781ZM304.305 76V57.7539H307.873V76H304.305ZM296.887 57.7539V68.8457C296.887 70.123 297.209 71.1133 297.854 71.8164C298.51 72.5078 299.43 72.8535 300.613 72.8535C301.797 72.8535 302.705 72.543 303.338 71.9219C303.982 71.2891 304.305 70.4043 304.305 69.2676L304.551 73.082C304.223 73.9023 303.648 74.6406 302.828 75.2969C302.008 75.9414 300.936 76.2637 299.611 76.2637C297.596 76.2637 296.037 75.6191 294.936 74.3301C293.846 73.0293 293.301 71.2012 293.301 68.8457V57.7539H296.887ZM335.137 76V64.9434C335.137 63.6543 334.803 62.6582 334.135 61.9551C333.479 61.252 332.541 60.9004 331.322 60.9004C330.209 60.9004 329.348 61.2402 328.738 61.9199C328.129 62.5996 327.824 63.5605 327.824 64.8027L327.104 61.2871C327.689 60.0684 328.451 59.1309 329.389 58.4746C330.326 57.8184 331.363 57.4902 332.5 57.4902C334.48 57.4902 336.01 58.1406 337.088 59.4414C338.178 60.7305 338.723 62.5586 338.723 64.9258V76H335.137ZM313.34 76V57.7539H316.926V76H313.34ZM324.238 76V64.9434C324.238 63.6543 323.922 62.6582 323.289 61.9551C322.656 61.252 321.76 60.9004 320.6 60.9004C319.428 60.9004 318.52 61.2109 317.875 61.832C317.242 62.4531 316.926 63.3262 316.926 64.4512L316.557 60.9355C317.119 59.834 317.852 58.9844 318.754 58.3867C319.668 57.7891 320.676 57.4902 321.777 57.4902C323.699 57.4902 325.188 58.1406 326.242 59.4414C327.297 60.7305 327.824 62.5586 327.824 64.9258V76H324.238Z" fill="white"/>
<rect x="161" y="285" width="200" height="54" rx="27" fill="#FFE500"/>
<path d="M195.5 323V300.281H199.781V323H195.5ZM197.406 323V318.875H210.719V323H197.406ZM213.844 323V300.281H218.125V323H213.844ZM215.391 323V318.875H229.062V323H215.391ZM215.391 313.781V309.656H227.344V313.781H215.391ZM215.391 304.406V300.281H229.062V304.406H215.391ZM236.656 323V302.141H240.938V323H236.656ZM230.469 304.406V300.281H247.125V304.406H230.469ZM247.203 309.969V300.281H251.484V305.875L247.203 309.969ZM260.891 323.234C259.807 323.234 258.745 323.125 257.703 322.906C256.672 322.688 255.703 322.37 254.797 321.953C253.891 321.526 253.073 321.016 252.344 320.422L254.328 316.891C255.203 317.609 256.214 318.167 257.359 318.562C258.505 318.948 259.682 319.141 260.891 319.141C262.286 319.141 263.37 318.906 264.141 318.438C264.911 317.958 265.297 317.286 265.297 316.422V316.406C265.297 315.75 265.104 315.25 264.719 314.906C264.333 314.552 263.823 314.292 263.188 314.125C262.562 313.958 261.88 313.818 261.141 313.703C260.255 313.568 259.359 313.401 258.453 313.203C257.547 312.995 256.714 312.672 255.953 312.234C255.193 311.786 254.578 311.151 254.109 310.328C253.651 309.505 253.422 308.406 253.422 307.031V307.016C253.422 304.797 254.151 303.083 255.609 301.875C257.068 300.656 259.13 300.047 261.797 300.047C263.026 300.047 264.276 300.255 265.547 300.672C266.818 301.078 268 301.661 269.094 302.422L267.281 306.047C266.406 305.432 265.49 304.964 264.531 304.641C263.583 304.307 262.672 304.141 261.797 304.141C260.484 304.141 259.469 304.359 258.75 304.797C258.031 305.224 257.672 305.828 257.672 306.609V306.625C257.672 307.354 257.885 307.906 258.312 308.281C258.74 308.656 259.297 308.938 259.984 309.125C260.672 309.302 261.411 309.469 262.203 309.625C263.078 309.792 263.948 310 264.812 310.25C265.677 310.49 266.469 310.839 267.188 311.297C267.906 311.755 268.479 312.385 268.906 313.188C269.333 313.99 269.547 315.031 269.547 316.312V316.344C269.547 318.531 268.792 320.229 267.281 321.438C265.771 322.635 263.641 323.234 260.891 323.234ZM290.344 310.297H298.219V314.734C298.219 316.443 297.875 317.938 297.188 319.219C296.5 320.49 295.536 321.479 294.297 322.188C293.068 322.885 291.62 323.234 289.953 323.234C288.276 323.234 286.807 322.906 285.547 322.25C284.297 321.583 283.323 320.651 282.625 319.453C281.938 318.245 281.594 316.839 281.594 315.234V308.531C281.594 306.823 281.938 305.333 282.625 304.062C283.312 302.792 284.271 301.807 285.5 301.109C286.74 300.401 288.193 300.047 289.859 300.047C291.234 300.047 292.484 300.328 293.609 300.891C294.745 301.453 295.698 302.24 296.469 303.25C297.24 304.26 297.76 305.443 298.031 306.797H293.406C293.177 306.057 292.719 305.49 292.031 305.094C291.354 304.688 290.63 304.484 289.859 304.484C288.703 304.484 287.776 304.854 287.078 305.594C286.38 306.333 286.031 307.312 286.031 308.531V315.234C286.031 316.307 286.391 317.172 287.109 317.828C287.828 318.474 288.776 318.797 289.953 318.797C291.109 318.797 292.036 318.448 292.734 317.75C293.432 317.042 293.781 316.057 293.781 314.797V314.422H290.344V310.297ZM309.953 323.234C308.286 323.234 306.828 322.891 305.578 322.203C304.339 321.505 303.375 320.526 302.688 319.266C302 318.005 301.656 316.536 301.656 314.859V308.422C301.656 306.734 302 305.266 302.688 304.016C303.375 302.755 304.339 301.781 305.578 301.094C306.828 300.396 308.286 300.047 309.953 300.047C311.62 300.047 313.073 300.396 314.312 301.094C315.562 301.781 316.531 302.755 317.219 304.016C317.906 305.266 318.25 306.734 318.25 308.422V314.859C318.25 316.536 317.906 318.005 317.219 319.266C316.531 320.526 315.562 321.505 314.312 322.203C313.073 322.891 311.62 323.234 309.953 323.234ZM309.953 318.953C311.12 318.953 312.052 318.589 312.75 317.859C313.458 317.13 313.812 316.167 313.812 314.969V308.312C313.812 307.104 313.458 306.141 312.75 305.422C312.052 304.693 311.12 304.328 309.953 304.328C308.786 304.328 307.849 304.693 307.141 305.422C306.443 306.141 306.094 307.104 306.094 308.312V314.969C306.094 316.167 306.443 317.13 307.141 317.859C307.849 318.589 308.786 318.953 309.953 318.953ZM322.469 316.234V300.281H326.75V316.234H322.469ZM322.469 323V318.719H326.75V323H322.469Z" fill="#9E6DD0"/>
<defs>
<linearGradient id="paint0_linear_42_374" x1="522" y1="187" x2="-3.47566e-06" y2="187" gradientUnits="userSpaceOnUse">
<stop stop-color="#DD63C2"/>
<stop offset="1" stop-color="#6376DD"/>
</linearGradient>
</defs>
</svg>
