<svg width="522" height="400" viewBox="0 0 522 400" fill="none" xmlns="http://www.w3.org/2000/svg">
<rect width="522" height="400" rx="50" fill="url(#paint0_linear_42_478)"/>
<path d="M52.4688 141L58.75 123.961H60.7891L67.0703 141H64.4922L59.7695 127.254L55.0469 141H52.4688ZM55.3633 137.262V134.988H64.3281V137.262H55.3633ZM71.8047 123.961V137.859C71.8047 138.148 71.8672 138.375 71.9922 138.539C72.125 138.703 72.3086 138.785 72.543 138.785H73.668V141.059H72.2617C71.3633 141.059 70.6641 140.777 70.1641 140.215C69.6641 139.652 69.4141 138.859 69.4141 137.836V123.961H71.8047ZM78.7656 123.961V137.859C78.7656 138.148 78.8281 138.375 78.9531 138.539C79.0859 138.703 79.2695 138.785 79.5039 138.785H80.6289V141.059H79.2227C78.3242 141.059 77.625 140.777 77.125 140.215C76.625 139.652 76.375 138.859 76.375 137.836V123.961H78.7656ZM115.609 126.352V123.961H118V126.352H115.609ZM115.609 141V128.836H118V141H115.609ZM121.633 141V128.836H124.023V141H121.633ZM129.016 141V133.629C129.016 132.77 128.793 132.105 128.348 131.637C127.91 131.168 127.285 130.934 126.473 130.934C125.691 130.934 125.086 131.141 124.656 131.555C124.234 131.969 124.023 132.551 124.023 133.301L123.777 130.957C124.152 130.223 124.641 129.656 125.242 129.258C125.852 128.859 126.523 128.66 127.258 128.66C128.578 128.66 129.598 129.094 130.316 129.961C131.043 130.82 131.406 132.039 131.406 133.617V141H129.016ZM138.871 137.52L141.848 128.836H144.344L139.773 141H137.969L133.398 128.836H135.895L138.871 137.52ZM151.117 141.176C149.523 141.176 148.289 140.715 147.414 139.793C146.539 138.863 146.102 137.559 146.102 135.879V133.898C146.102 132.234 146.539 130.945 147.414 130.031C148.289 129.117 149.523 128.66 151.117 128.66C152.711 128.66 153.945 129.117 154.82 130.031C155.695 130.945 156.133 132.234 156.133 133.898V135.914C156.133 137.586 155.695 138.883 154.82 139.805C153.945 140.719 152.711 141.176 151.117 141.176ZM151.117 138.902C151.953 138.902 152.598 138.641 153.051 138.117C153.512 137.594 153.742 136.859 153.742 135.914V133.898C153.742 132.953 153.512 132.223 153.051 131.707C152.598 131.191 151.953 130.934 151.117 130.934C150.289 130.934 149.645 131.191 149.184 131.707C148.723 132.223 148.492 132.953 148.492 133.898V135.914C148.492 136.859 148.723 137.594 149.184 138.117C149.645 138.641 150.289 138.902 151.117 138.902ZM161.922 123.961V137.859C161.922 138.148 161.984 138.375 162.109 138.539C162.242 138.703 162.426 138.785 162.66 138.785H163.785V141.059H162.379C161.48 141.059 160.781 140.777 160.281 140.215C159.781 139.652 159.531 138.859 159.531 137.836V123.961H161.922ZM173.711 141V128.836H176.09V141H173.711ZM168.766 128.836V136.23C168.766 137.082 168.98 137.742 169.41 138.211C169.848 138.672 170.461 138.902 171.25 138.902C172.039 138.902 172.645 138.695 173.066 138.281C173.496 137.859 173.711 137.27 173.711 136.512L173.875 139.055C173.656 139.602 173.273 140.094 172.727 140.531C172.18 140.961 171.465 141.176 170.582 141.176C169.238 141.176 168.199 140.746 167.465 139.887C166.738 139.02 166.375 137.801 166.375 136.23V128.836H168.766ZM179.734 141V128.836H182.125V141H179.734ZM187.117 141V133.629C187.117 132.77 186.895 132.105 186.449 131.637C186.012 131.168 185.387 130.934 184.574 130.934C183.793 130.934 183.188 131.141 182.758 131.555C182.336 131.969 182.125 132.551 182.125 133.301L181.879 130.957C182.254 130.223 182.742 129.656 183.344 129.258C183.953 128.859 184.625 128.66 185.359 128.66C186.68 128.66 187.699 129.094 188.418 129.961C189.145 130.82 189.508 132.039 189.508 133.617V141H187.117ZM196.305 141.059C195.305 141.059 194.578 140.781 194.125 140.227C193.68 139.672 193.457 138.875 193.457 137.836V125.297H195.848V137.859C195.848 138.148 195.906 138.375 196.023 138.539C196.141 138.703 196.312 138.785 196.539 138.785H197.688V141.059H196.305ZM192.203 130.992V128.836H197.688V130.992H192.203ZM207.836 141V133.289C207.836 132.492 207.621 131.875 207.191 131.438C206.77 130.992 206.168 130.77 205.387 130.77C204.91 130.77 204.438 130.844 203.969 130.992C203.508 131.133 203.094 131.34 202.727 131.613L200.98 130.418C201.441 129.863 202.047 129.434 202.797 129.129C203.555 128.816 204.395 128.66 205.316 128.66C206.84 128.66 208.02 129.055 208.855 129.844C209.691 130.633 210.109 131.746 210.109 133.184V141H207.836ZM204.859 141.176C203.367 141.176 202.246 140.867 201.496 140.25C200.754 139.633 200.383 138.688 200.383 137.414C200.383 136.203 200.723 135.301 201.402 134.707C202.09 134.105 203.117 133.805 204.484 133.805H207.941L208.105 135.727H204.496C203.879 135.727 203.414 135.867 203.102 136.148C202.789 136.422 202.633 136.844 202.633 137.414C202.633 138.031 202.84 138.488 203.254 138.785C203.668 139.082 204.289 139.23 205.117 139.23C206.023 139.23 206.703 139.133 207.156 138.938C207.609 138.742 207.836 138.438 207.836 138.023L208.082 139.734C207.871 140.062 207.609 140.332 207.297 140.543C206.984 140.754 206.625 140.91 206.219 141.012C205.82 141.121 205.367 141.176 204.859 141.176ZM213.742 141V128.836H216.133V141H213.742ZM220.434 131.719C220.223 131.461 219.957 131.266 219.637 131.133C219.316 131 218.945 130.934 218.523 130.934C217.766 130.934 217.176 131.145 216.754 131.566C216.34 131.98 216.133 132.559 216.133 133.301L215.887 130.957C216.254 130.238 216.734 129.676 217.328 129.27C217.93 128.863 218.59 128.66 219.309 128.66C219.863 128.66 220.363 128.742 220.809 128.906C221.262 129.062 221.656 129.297 221.992 129.609L220.434 131.719ZM231.027 128.836H233.465L228.285 143.848C227.996 144.684 227.578 145.262 227.031 145.582C226.484 145.91 225.734 146.074 224.781 146.074H224.301V143.777H224.781C225.227 143.777 225.578 143.688 225.836 143.508C226.102 143.328 226.332 143.02 226.527 142.582L231.027 128.836ZM227.547 141.996L222.695 128.836H225.133L228.871 139.406L227.547 141.996ZM282.391 141V133.629C282.391 132.77 282.168 132.105 281.723 131.637C281.285 131.168 280.66 130.934 279.848 130.934C279.105 130.934 278.531 131.16 278.125 131.613C277.719 132.066 277.516 132.707 277.516 133.535L277.035 131.191C277.426 130.379 277.934 129.754 278.559 129.316C279.184 128.879 279.875 128.66 280.633 128.66C281.953 128.66 282.973 129.094 283.691 129.961C284.418 130.82 284.781 132.039 284.781 133.617V141H282.391ZM267.859 141V128.836H270.25V141H267.859ZM275.125 141V133.629C275.125 132.77 274.914 132.105 274.492 131.637C274.07 131.168 273.473 130.934 272.699 130.934C271.918 130.934 271.312 131.141 270.883 131.555C270.461 131.969 270.25 132.551 270.25 133.301L270.004 130.957C270.379 130.223 270.867 129.656 271.469 129.258C272.078 128.859 272.75 128.66 273.484 128.66C274.766 128.66 275.758 129.094 276.461 129.961C277.164 130.82 277.516 132.039 277.516 133.617V141H275.125ZM295.75 141V128.836H298.129V141H295.75ZM290.805 128.836V136.23C290.805 137.082 291.02 137.742 291.449 138.211C291.887 138.672 292.5 138.902 293.289 138.902C294.078 138.902 294.684 138.695 295.105 138.281C295.535 137.859 295.75 137.27 295.75 136.512L295.914 139.055C295.695 139.602 295.312 140.094 294.766 140.531C294.219 140.961 293.504 141.176 292.621 141.176C291.277 141.176 290.238 140.746 289.504 139.887C288.777 139.02 288.414 137.801 288.414 136.23V128.836H290.805ZM306.074 141.176C304.996 141.176 304.016 141.02 303.133 140.707C302.258 140.387 301.473 139.91 300.777 139.277L302.195 137.531C302.859 138.031 303.512 138.406 304.152 138.656C304.801 138.906 305.441 139.031 306.074 139.031C307.02 139.031 307.727 138.887 308.195 138.598C308.672 138.301 308.91 137.859 308.91 137.273C308.91 136.82 308.75 136.5 308.43 136.312C308.117 136.125 307.703 136.004 307.188 135.949C306.68 135.887 306.133 135.836 305.547 135.797C305.055 135.758 304.566 135.699 304.082 135.621C303.598 135.535 303.156 135.387 302.758 135.176C302.359 134.957 302.039 134.637 301.797 134.215C301.562 133.793 301.445 133.227 301.445 132.516C301.445 131.227 301.84 130.262 302.629 129.621C303.418 128.98 304.594 128.66 306.156 128.66C307.109 128.66 307.996 128.789 308.816 129.047C309.637 129.305 310.406 129.699 311.125 130.23L309.684 131.977C309.074 131.586 308.473 131.293 307.879 131.098C307.293 130.902 306.719 130.805 306.156 130.805C305.344 130.805 304.734 130.945 304.328 131.227C303.922 131.5 303.719 131.914 303.719 132.469C303.719 132.836 303.859 133.102 304.141 133.266C304.422 133.422 304.793 133.523 305.254 133.57C305.715 133.617 306.211 133.66 306.742 133.699C307.25 133.73 307.762 133.789 308.277 133.875C308.801 133.953 309.281 134.109 309.719 134.344C310.156 134.578 310.508 134.926 310.773 135.387C311.039 135.848 311.172 136.477 311.172 137.273C311.172 138.578 310.746 139.555 309.895 140.203C309.051 140.852 307.777 141.176 306.074 141.176ZM319.129 141.176C317.457 141.176 316.16 140.715 315.238 139.793C314.324 138.871 313.867 137.57 313.867 135.891V133.887C313.867 132.223 314.324 130.938 315.238 130.031C316.16 129.117 317.457 128.66 319.129 128.66C320.082 128.66 320.941 128.828 321.707 129.164C322.473 129.5 323.082 129.98 323.535 130.605L321.812 132.152C321.477 131.762 321.078 131.461 320.617 131.25C320.156 131.039 319.672 130.934 319.164 130.934C318.242 130.934 317.527 131.191 317.02 131.707C316.512 132.223 316.258 132.949 316.258 133.887V135.891C316.258 136.852 316.512 137.594 317.02 138.117C317.527 138.641 318.242 138.902 319.164 138.902C319.672 138.902 320.156 138.789 320.617 138.562C321.078 138.336 321.477 138.016 321.812 137.602L323.535 139.266C323.082 139.875 322.469 140.348 321.695 140.684C320.93 141.012 320.074 141.176 319.129 141.176ZM328.562 123.961V137.859C328.562 138.148 328.625 138.375 328.75 138.539C328.883 138.703 329.066 138.785 329.301 138.785H330.426V141.059H329.02C328.121 141.059 327.422 140.777 326.922 140.215C326.422 139.652 326.172 138.859 326.172 137.836V123.961H328.562ZM338.113 141.176C336.418 141.176 335.105 140.703 334.176 139.758C333.246 138.812 332.781 137.469 332.781 135.727V134.355C332.781 132.543 333.227 131.141 334.117 130.148C335.016 129.156 336.277 128.66 337.902 128.66C339.434 128.66 340.617 129.223 341.453 130.348C342.297 131.473 342.719 133.051 342.719 135.082V135.879H334.516V133.957H340.445C340.375 132.973 340.117 132.203 339.672 131.648C339.234 131.094 338.645 130.816 337.902 130.816C337.004 130.816 336.305 131.113 335.805 131.707C335.305 132.301 335.055 133.141 335.055 134.227V135.773C335.055 136.781 335.32 137.555 335.852 138.094C336.391 138.633 337.145 138.902 338.113 138.902C338.598 138.902 339.078 138.805 339.555 138.609C340.031 138.414 340.457 138.141 340.832 137.789L342.402 139.359C341.801 139.938 341.125 140.387 340.375 140.707C339.625 141.02 338.871 141.176 338.113 141.176ZM350.301 141.176C349.223 141.176 348.242 141.02 347.359 140.707C346.484 140.387 345.699 139.91 345.004 139.277L346.422 137.531C347.086 138.031 347.738 138.406 348.379 138.656C349.027 138.906 349.668 139.031 350.301 139.031C351.246 139.031 351.953 138.887 352.422 138.598C352.898 138.301 353.137 137.859 353.137 137.273C353.137 136.82 352.977 136.5 352.656 136.312C352.344 136.125 351.93 136.004 351.414 135.949C350.906 135.887 350.359 135.836 349.773 135.797C349.281 135.758 348.793 135.699 348.309 135.621C347.824 135.535 347.383 135.387 346.984 135.176C346.586 134.957 346.266 134.637 346.023 134.215C345.789 133.793 345.672 133.227 345.672 132.516C345.672 131.227 346.066 130.262 346.855 129.621C347.645 128.98 348.82 128.66 350.383 128.66C351.336 128.66 352.223 128.789 353.043 129.047C353.863 129.305 354.633 129.699 355.352 130.23L353.91 131.977C353.301 131.586 352.699 131.293 352.105 131.098C351.52 130.902 350.945 130.805 350.383 130.805C349.57 130.805 348.961 130.945 348.555 131.227C348.148 131.5 347.945 131.914 347.945 132.469C347.945 132.836 348.086 133.102 348.367 133.266C348.648 133.422 349.02 133.523 349.48 133.57C349.941 133.617 350.438 133.66 350.969 133.699C351.477 133.73 351.988 133.789 352.504 133.875C353.027 133.953 353.508 134.109 353.945 134.344C354.383 134.578 354.734 134.926 355 135.387C355.266 135.848 355.398 136.477 355.398 137.273C355.398 138.578 354.973 139.555 354.121 140.203C353.277 140.852 352.004 141.176 350.301 141.176ZM393.414 141L389.664 128.836H392.16L394.316 137.52L397.352 128.836H399.016L402.051 137.52L404.207 128.836H406.703L402.953 141H401.148L398.184 132.598L395.219 141H393.414ZM413.711 141.176C412.117 141.176 410.883 140.715 410.008 139.793C409.133 138.863 408.695 137.559 408.695 135.879V133.898C408.695 132.234 409.133 130.945 410.008 130.031C410.883 129.117 412.117 128.66 413.711 128.66C415.305 128.66 416.539 129.117 417.414 130.031C418.289 130.945 418.727 132.234 418.727 133.898V135.914C418.727 137.586 418.289 138.883 417.414 139.805C416.539 140.719 415.305 141.176 413.711 141.176ZM413.711 138.902C414.547 138.902 415.191 138.641 415.645 138.117C416.105 137.594 416.336 136.859 416.336 135.914V133.898C416.336 132.953 416.105 132.223 415.645 131.707C415.191 131.191 414.547 130.934 413.711 130.934C412.883 130.934 412.238 131.191 411.777 131.707C411.316 132.223 411.086 132.953 411.086 133.898V135.914C411.086 136.859 411.316 137.594 411.777 138.117C412.238 138.641 412.883 138.902 413.711 138.902ZM422.125 141V128.836H424.516V141H422.125ZM428.816 131.719C428.605 131.461 428.34 131.266 428.02 131.133C427.699 131 427.328 130.934 426.906 130.934C426.148 130.934 425.559 131.145 425.137 131.566C424.723 131.98 424.516 132.559 424.516 133.301L424.27 130.957C424.637 130.238 425.117 129.676 425.711 129.27C426.312 128.863 426.973 128.66 427.691 128.66C428.246 128.66 428.746 128.742 429.191 128.906C429.645 129.062 430.039 129.297 430.375 129.609L428.816 131.719ZM433.246 139.219L433.398 136.383L439.656 128.836H442.469L433.246 139.219ZM432.367 141V123.961H434.758V141H432.367ZM440.465 141L436.223 133.98L437.758 132.387L443.066 141H440.465ZM450.051 141.176C448.355 141.176 447.043 140.703 446.113 139.758C445.184 138.812 444.719 137.469 444.719 135.727V134.355C444.719 132.543 445.164 131.141 446.055 130.148C446.953 129.156 448.215 128.66 449.84 128.66C451.371 128.66 452.555 129.223 453.391 130.348C454.234 131.473 454.656 133.051 454.656 135.082V135.879H446.453V133.957H452.383C452.312 132.973 452.055 132.203 451.609 131.648C451.172 131.094 450.582 130.816 449.84 130.816C448.941 130.816 448.242 131.113 447.742 131.707C447.242 132.301 446.992 133.141 446.992 134.227V135.773C446.992 136.781 447.258 137.555 447.789 138.094C448.328 138.633 449.082 138.902 450.051 138.902C450.535 138.902 451.016 138.805 451.492 138.609C451.969 138.414 452.395 138.141 452.77 137.789L454.34 139.359C453.738 139.938 453.062 140.387 452.312 140.707C451.562 141.02 450.809 141.176 450.051 141.176ZM464.852 141V123.961H467.242V141H464.852ZM461.793 141.211C460.449 141.211 459.41 140.781 458.676 139.922C457.949 139.055 457.586 137.836 457.586 136.266V133.582C457.586 132.004 457.941 130.785 458.652 129.926C459.371 129.059 460.379 128.625 461.676 128.625C462.395 128.625 463.051 128.812 463.645 129.188C464.246 129.562 464.73 130.09 465.098 130.77L464.852 133.254C464.852 132.738 464.758 132.297 464.57 131.93C464.383 131.562 464.109 131.285 463.75 131.098C463.398 130.902 462.969 130.805 462.461 130.805C461.672 130.805 461.059 131.051 460.621 131.543C460.191 132.035 459.977 132.727 459.977 133.617V136.266C459.977 137.148 460.191 137.832 460.621 138.316C461.059 138.793 461.672 139.031 462.461 139.031C462.969 139.031 463.398 138.934 463.75 138.738C464.109 138.535 464.383 138.246 464.57 137.871C464.758 137.496 464.852 137.047 464.852 136.523L465.016 139.09C464.797 139.637 464.418 140.129 463.879 140.566C463.348 140.996 462.652 141.211 461.793 141.211ZM53.875 174.945V157.836H56.2656V174.945H53.875ZM59.3242 170.176C58.5664 170.176 57.9062 169.996 57.3438 169.637C56.7812 169.27 56.3672 168.754 56.1016 168.09L56.2656 165.547C56.2656 166.07 56.3594 166.516 56.5469 166.883C56.7344 167.25 57.0039 167.531 57.3555 167.727C57.7148 167.922 58.1484 168.02 58.6562 168.02C59.4453 168.02 60.0547 167.781 60.4844 167.305C60.9219 166.82 61.1406 166.141 61.1406 165.266V162.629C61.1406 161.738 60.9219 161.047 60.4844 160.555C60.0547 160.062 59.4453 159.816 58.6562 159.816C58.1484 159.816 57.7148 159.91 57.3555 160.098C57.0039 160.285 56.7344 160.559 56.5469 160.918C56.3594 161.277 56.2656 161.715 56.2656 162.23L56.0195 159.887C56.3867 159.176 56.8672 158.629 57.4609 158.246C58.0547 157.855 58.7148 157.66 59.4414 157.66C60.7461 157.66 61.7539 158.094 62.4648 158.961C63.1758 159.82 63.5312 161.039 63.5312 162.617V165.266C63.5312 166.82 63.1641 168.027 62.4297 168.887C61.6953 169.746 60.6602 170.176 59.3242 170.176ZM71.9102 170.176C70.2148 170.176 68.9023 169.703 67.9727 168.758C67.043 167.812 66.5781 166.469 66.5781 164.727V163.355C66.5781 161.543 67.0234 160.141 67.9141 159.148C68.8125 158.156 70.0742 157.66 71.6992 157.66C73.2305 157.66 74.4141 158.223 75.25 159.348C76.0938 160.473 76.5156 162.051 76.5156 164.082V164.879H68.3125V162.957H74.2422C74.1719 161.973 73.9141 161.203 73.4688 160.648C73.0312 160.094 72.4414 159.816 71.6992 159.816C70.8008 159.816 70.1016 160.113 69.6016 160.707C69.1016 161.301 68.8516 162.141 68.8516 163.227V164.773C68.8516 165.781 69.1172 166.555 69.6484 167.094C70.1875 167.633 70.9414 167.902 71.9102 167.902C72.3945 167.902 72.875 167.805 73.3516 167.609C73.8281 167.414 74.2539 167.141 74.6289 166.789L76.1992 168.359C75.5977 168.938 74.9219 169.387 74.1719 169.707C73.4219 170.02 72.668 170.176 71.9102 170.176ZM79.7969 170V157.836H82.1875V170H79.7969ZM86.4883 160.719C86.2773 160.461 86.0117 160.266 85.6914 160.133C85.3711 160 85 159.934 84.5781 159.934C83.8203 159.934 83.2305 160.145 82.8086 160.566C82.3945 160.98 82.1875 161.559 82.1875 162.301L81.9414 159.957C82.3086 159.238 82.7891 158.676 83.3828 158.27C83.9844 157.863 84.6445 157.66 85.3633 157.66C85.918 157.66 86.418 157.742 86.8633 157.906C87.3164 158.062 87.7109 158.297 88.0469 158.609L86.4883 160.719ZM90.3906 170V156.184C90.3906 155.113 90.6367 154.309 91.1289 153.77C91.6211 153.23 92.3867 152.961 93.4258 152.961H95.1836V155.234H93.4727C93.2305 155.234 93.0547 155.328 92.9453 155.516C92.8359 155.695 92.7812 155.91 92.7812 156.16V170H90.3906ZM89.1016 159.875V157.836H95.1836V159.875H89.1016ZM102.285 170.176C100.59 170.176 99.2773 169.703 98.3477 168.758C97.418 167.812 96.9531 166.469 96.9531 164.727V163.355C96.9531 161.543 97.3984 160.141 98.2891 159.148C99.1875 158.156 100.449 157.66 102.074 157.66C103.605 157.66 104.789 158.223 105.625 159.348C106.469 160.473 106.891 162.051 106.891 164.082V164.879H98.6875V162.957H104.617C104.547 161.973 104.289 161.203 103.844 160.648C103.406 160.094 102.816 159.816 102.074 159.816C101.176 159.816 100.477 160.113 99.9766 160.707C99.4766 161.301 99.2266 162.141 99.2266 163.227V164.773C99.2266 165.781 99.4922 166.555 100.023 167.094C100.562 167.633 101.316 167.902 102.285 167.902C102.77 167.902 103.25 167.805 103.727 167.609C104.203 167.414 104.629 167.141 105.004 166.789L106.574 168.359C105.973 168.938 105.297 169.387 104.547 169.707C103.797 170.02 103.043 170.176 102.285 170.176ZM115.082 170.176C113.41 170.176 112.113 169.715 111.191 168.793C110.277 167.871 109.82 166.57 109.82 164.891V162.887C109.82 161.223 110.277 159.938 111.191 159.031C112.113 158.117 113.41 157.66 115.082 157.66C116.035 157.66 116.895 157.828 117.66 158.164C118.426 158.5 119.035 158.98 119.488 159.605L117.766 161.152C117.43 160.762 117.031 160.461 116.57 160.25C116.109 160.039 115.625 159.934 115.117 159.934C114.195 159.934 113.48 160.191 112.973 160.707C112.465 161.223 112.211 161.949 112.211 162.887V164.891C112.211 165.852 112.465 166.594 112.973 167.117C113.48 167.641 114.195 167.902 115.117 167.902C115.625 167.902 116.109 167.789 116.57 167.562C117.031 167.336 117.43 167.016 117.766 166.602L119.488 168.266C119.035 168.875 118.422 169.348 117.648 169.684C116.883 170.012 116.027 170.176 115.082 170.176ZM125.289 170.059C124.289 170.059 123.562 169.781 123.109 169.227C122.664 168.672 122.441 167.875 122.441 166.836V154.297H124.832V166.859C124.832 167.148 124.891 167.375 125.008 167.539C125.125 167.703 125.297 167.785 125.523 167.785H126.672V170.059H125.289ZM121.188 159.992V157.836H126.672V159.992H121.188ZM132.344 152.961V166.859C132.344 167.148 132.406 167.375 132.531 167.539C132.664 167.703 132.848 167.785 133.082 167.785H134.207V170.059H132.801C131.902 170.059 131.203 169.777 130.703 169.215C130.203 168.652 129.953 167.859 129.953 166.836V152.961H132.344ZM143.957 157.836H146.395L141.215 172.848C140.926 173.684 140.508 174.262 139.961 174.582C139.414 174.91 138.664 175.074 137.711 175.074H137.23V172.777H137.711C138.156 172.777 138.508 172.688 138.766 172.508C139.031 172.328 139.262 172.02 139.457 171.582L143.957 157.836ZM140.477 170.996L135.625 157.836H138.062L141.801 168.406L140.477 170.996ZM170.486 170L166.736 157.836H169.232L171.388 166.52L174.423 157.836H176.088L179.123 166.52L181.279 157.836H183.775L180.025 170H178.22L175.255 161.598L172.291 170H170.486ZM186.353 155.352V152.961H188.744V155.352H186.353ZM186.353 170V157.836H188.744V170H186.353ZM195.541 170.059C194.541 170.059 193.814 169.781 193.361 169.227C192.916 168.672 192.693 167.875 192.693 166.836V154.297H195.084V166.859C195.084 167.148 195.142 167.375 195.259 167.539C195.377 167.703 195.548 167.785 195.775 167.785H196.923V170.059H195.541ZM191.439 159.992V157.836H196.923V159.992H191.439ZM200.205 170V152.961H202.595V170H200.205ZM207.587 170V162.629C207.587 161.77 207.365 161.105 206.92 160.637C206.482 160.168 205.857 159.934 205.045 159.934C204.263 159.934 203.658 160.137 203.228 160.543C202.806 160.949 202.595 161.523 202.595 162.266L202.349 159.922C202.724 159.203 203.212 158.648 203.814 158.258C204.423 157.859 205.095 157.66 205.83 157.66C207.15 157.66 208.17 158.094 208.888 158.961C209.615 159.82 209.978 161.039 209.978 162.617V170H207.587ZM239.929 157.836H242.366L237.187 172.848C236.898 173.684 236.48 174.262 235.933 174.582C235.386 174.91 234.636 175.074 233.683 175.074H233.202V172.777H233.683C234.128 172.777 234.48 172.688 234.738 172.508C235.003 172.328 235.234 172.02 235.429 171.582L239.929 157.836ZM236.448 170.996L231.597 157.836H234.034L237.773 168.406L236.448 170.996ZM248.917 170.176C247.323 170.176 246.089 169.715 245.214 168.793C244.339 167.863 243.902 166.559 243.902 164.879V162.898C243.902 161.234 244.339 159.945 245.214 159.031C246.089 158.117 247.323 157.66 248.917 157.66C250.511 157.66 251.745 158.117 252.62 159.031C253.495 159.945 253.933 161.234 253.933 162.898V164.914C253.933 166.586 253.495 167.883 252.62 168.805C251.745 169.719 250.511 170.176 248.917 170.176ZM248.917 167.902C249.753 167.902 250.398 167.641 250.851 167.117C251.312 166.594 251.542 165.859 251.542 164.914V162.898C251.542 161.953 251.312 161.223 250.851 160.707C250.398 160.191 249.753 159.934 248.917 159.934C248.089 159.934 247.445 160.191 246.984 160.707C246.523 161.223 246.292 161.953 246.292 162.898V164.914C246.292 165.859 246.523 166.594 246.984 167.117C247.445 167.641 248.089 167.902 248.917 167.902ZM264.363 170V157.836H266.741V170H264.363ZM259.417 157.836V165.23C259.417 166.082 259.632 166.742 260.062 167.211C260.499 167.672 261.113 167.902 261.902 167.902C262.691 167.902 263.296 167.695 263.718 167.281C264.148 166.859 264.363 166.27 264.363 165.512L264.527 168.055C264.308 168.602 263.925 169.094 263.378 169.531C262.831 169.961 262.116 170.176 261.234 170.176C259.89 170.176 258.851 169.746 258.116 168.887C257.39 168.02 257.027 166.801 257.027 165.23V157.836H259.417ZM289.661 170V152.961H292.052V170H289.661ZM297.044 170V162.629C297.044 161.77 296.821 161.105 296.376 160.637C295.938 160.168 295.313 159.934 294.501 159.934C293.72 159.934 293.114 160.137 292.684 160.543C292.262 160.949 292.052 161.523 292.052 162.266L291.805 159.922C292.18 159.203 292.669 158.648 293.27 158.258C293.88 157.859 294.552 157.66 295.286 157.66C296.606 157.66 297.626 158.094 298.345 158.961C299.071 159.82 299.434 161.039 299.434 162.617V170H297.044ZM308.048 170.176C306.352 170.176 305.04 169.703 304.11 168.758C303.18 167.812 302.716 166.469 302.716 164.727V163.355C302.716 161.543 303.161 160.141 304.052 159.148C304.95 158.156 306.212 157.66 307.837 157.66C309.368 157.66 310.552 158.223 311.387 159.348C312.231 160.473 312.653 162.051 312.653 164.082V164.879H304.45V162.957H310.38C310.309 161.973 310.052 161.203 309.606 160.648C309.169 160.094 308.579 159.816 307.837 159.816C306.938 159.816 306.239 160.113 305.739 160.707C305.239 161.301 304.989 162.141 304.989 163.227V164.773C304.989 165.781 305.255 166.555 305.786 167.094C306.325 167.633 307.079 167.902 308.048 167.902C308.532 167.902 309.012 167.805 309.489 167.609C309.966 167.414 310.391 167.141 310.766 166.789L312.337 168.359C311.735 168.938 311.059 169.387 310.309 169.707C309.559 170.02 308.805 170.176 308.048 170.176ZM318.325 152.961V166.859C318.325 167.148 318.388 167.375 318.513 167.539C318.645 167.703 318.829 167.785 319.063 167.785H320.188V170.059H318.782C317.884 170.059 317.184 169.777 316.684 169.215C316.184 168.652 315.934 167.859 315.934 166.836V152.961H318.325ZM322.778 174.945V157.836H325.169V174.945H322.778ZM328.227 170.176C327.47 170.176 326.809 169.996 326.247 169.637C325.684 169.27 325.27 168.754 325.005 168.09L325.169 165.547C325.169 166.07 325.263 166.516 325.45 166.883C325.638 167.25 325.907 167.531 326.259 167.727C326.618 167.922 327.052 168.02 327.559 168.02C328.348 168.02 328.958 167.781 329.388 167.305C329.825 166.82 330.044 166.141 330.044 165.266V162.629C330.044 161.738 329.825 161.047 329.388 160.555C328.958 160.062 328.348 159.816 327.559 159.816C327.052 159.816 326.618 159.91 326.259 160.098C325.907 160.285 325.638 160.559 325.45 160.918C325.263 161.277 325.169 161.715 325.169 162.23L324.923 159.887C325.29 159.176 325.77 158.629 326.364 158.246C326.958 157.855 327.618 157.66 328.345 157.66C329.649 157.66 330.657 158.094 331.368 158.961C332.079 159.82 332.434 161.039 332.434 162.617V165.266C332.434 166.82 332.067 168.027 331.333 168.887C330.598 169.746 329.563 170.176 328.227 170.176ZM334.954 170V167.492H337.462V170H334.954ZM360.311 169.988V152.961H362.479L370.811 166.133L370.53 166.438V152.961H372.897V169.988H370.705L362.397 157.016L362.678 156.711V169.988H360.311ZM381.545 170.176C379.952 170.176 378.717 169.715 377.842 168.793C376.967 167.863 376.53 166.559 376.53 164.879V162.898C376.53 161.234 376.967 159.945 377.842 159.031C378.717 158.117 379.952 157.66 381.545 157.66C383.139 157.66 384.373 158.117 385.248 159.031C386.123 159.945 386.561 161.234 386.561 162.898V164.914C386.561 166.586 386.123 167.883 385.248 168.805C384.373 169.719 383.139 170.176 381.545 170.176ZM381.545 167.902C382.381 167.902 383.026 167.641 383.479 167.117C383.94 166.594 384.17 165.859 384.17 164.914V162.898C384.17 161.953 383.94 161.223 383.479 160.707C383.026 160.191 382.381 159.934 381.545 159.934C380.717 159.934 380.073 160.191 379.612 160.707C379.151 161.223 378.92 161.953 378.92 162.898V164.914C378.92 165.859 379.151 166.594 379.612 167.117C380.073 167.641 380.717 167.902 381.545 167.902ZM392.186 170L388.436 157.836H390.932L393.088 166.52L396.123 157.836H397.788L400.823 166.52L402.979 157.836H405.475L401.725 170H399.92L396.955 161.598L393.991 170H392.186ZM429.719 152.961V166.859C429.719 167.148 429.781 167.375 429.906 167.539C430.039 167.703 430.223 167.785 430.457 167.785H431.582V170.059H430.176C429.277 170.059 428.578 169.777 428.078 169.215C427.578 168.652 427.328 167.859 427.328 166.836V152.961H429.719ZM439.27 170.176C437.574 170.176 436.262 169.703 435.332 168.758C434.402 167.812 433.938 166.469 433.938 164.727V163.355C433.938 161.543 434.383 160.141 435.273 159.148C436.172 158.156 437.434 157.66 439.059 157.66C440.59 157.66 441.773 158.223 442.609 159.348C443.453 160.473 443.875 162.051 443.875 164.082V164.879H435.672V162.957H441.602C441.531 161.973 441.273 161.203 440.828 160.648C440.391 160.094 439.801 159.816 439.059 159.816C438.16 159.816 437.461 160.113 436.961 160.707C436.461 161.301 436.211 162.141 436.211 163.227V164.773C436.211 165.781 436.477 166.555 437.008 167.094C437.547 167.633 438.301 167.902 439.27 167.902C439.754 167.902 440.234 167.805 440.711 167.609C441.188 167.414 441.613 167.141 441.988 166.789L443.559 168.359C442.957 168.938 442.281 169.387 441.531 169.707C440.781 170.02 440.027 170.176 439.27 170.176ZM450.32 170.059C449.32 170.059 448.594 169.781 448.141 169.227C447.695 168.672 447.473 167.875 447.473 166.836V154.297H449.863V166.859C449.863 167.148 449.922 167.375 450.039 167.539C450.156 167.703 450.328 167.785 450.555 167.785H451.703V170.059H450.32ZM446.219 159.992V157.836H451.703V159.992H446.219ZM453.988 159.359V152.961H456.496V156.758L453.988 159.359ZM462.73 170.176C461.652 170.176 460.672 170.02 459.789 169.707C458.914 169.387 458.129 168.91 457.434 168.277L458.852 166.531C459.516 167.031 460.168 167.406 460.809 167.656C461.457 167.906 462.098 168.031 462.73 168.031C463.676 168.031 464.383 167.887 464.852 167.598C465.328 167.301 465.566 166.859 465.566 166.273C465.566 165.82 465.406 165.5 465.086 165.312C464.773 165.125 464.359 165.004 463.844 164.949C463.336 164.887 462.789 164.836 462.203 164.797C461.711 164.758 461.223 164.699 460.738 164.621C460.254 164.535 459.812 164.387 459.414 164.176C459.016 163.957 458.695 163.637 458.453 163.215C458.219 162.793 458.102 162.227 458.102 161.516C458.102 160.227 458.496 159.262 459.285 158.621C460.074 157.98 461.25 157.66 462.812 157.66C463.766 157.66 464.652 157.789 465.473 158.047C466.293 158.305 467.062 158.699 467.781 159.23L466.34 160.977C465.73 160.586 465.129 160.293 464.535 160.098C463.949 159.902 463.375 159.805 462.812 159.805C462 159.805 461.391 159.945 460.984 160.227C460.578 160.5 460.375 160.914 460.375 161.469C460.375 161.836 460.516 162.102 460.797 162.266C461.078 162.422 461.449 162.523 461.91 162.57C462.371 162.617 462.867 162.66 463.398 162.699C463.906 162.73 464.418 162.789 464.934 162.875C465.457 162.953 465.938 163.109 466.375 163.344C466.812 163.578 467.164 163.926 467.43 164.387C467.695 164.848 467.828 165.477 467.828 166.273C467.828 167.578 467.402 168.555 466.551 169.203C465.707 169.852 464.434 170.176 462.73 170.176ZM58.8555 199.176C57.1602 199.176 55.8477 198.703 54.918 197.758C53.9883 196.812 53.5234 195.469 53.5234 193.727V192.355C53.5234 190.543 53.9688 189.141 54.8594 188.148C55.7578 187.156 57.0195 186.66 58.6445 186.66C60.1758 186.66 61.3594 187.223 62.1953 188.348C63.0391 189.473 63.4609 191.051 63.4609 193.082V193.879H55.2578V191.957H61.1875C61.1172 190.973 60.8594 190.203 60.4141 189.648C59.9766 189.094 59.3867 188.816 58.6445 188.816C57.7461 188.816 57.0469 189.113 56.5469 189.707C56.0469 190.301 55.7969 191.141 55.7969 192.227V193.773C55.7969 194.781 56.0625 195.555 56.5938 196.094C57.1328 196.633 57.8867 196.902 58.8555 196.902C59.3398 196.902 59.8203 196.805 60.2969 196.609C60.7734 196.414 61.1992 196.141 61.5742 195.789L63.1445 197.359C62.543 197.938 61.8672 198.387 61.1172 198.707C60.3672 199.02 59.6133 199.176 58.8555 199.176ZM73.5156 199L69.8828 193.469L65.4062 186.836H68.0664L71.5586 192.285L76.1641 199H73.5156ZM65.2188 199L69.8125 192.285L70.9609 194.488L67.8672 199H65.2188ZM71.6641 193.398L70.6562 191.148L73.3164 186.836H75.9766L71.6641 193.398ZM78.8125 203.945V186.836H81.2031V203.945H78.8125ZM84.2617 199.176C83.5039 199.176 82.8438 198.996 82.2812 198.637C81.7188 198.27 81.3047 197.754 81.0391 197.09L81.2031 194.547C81.2031 195.07 81.2969 195.516 81.4844 195.883C81.6719 196.25 81.9414 196.531 82.293 196.727C82.6523 196.922 83.0859 197.02 83.5938 197.02C84.3828 197.02 84.9922 196.781 85.4219 196.305C85.8594 195.82 86.0781 195.141 86.0781 194.266V191.629C86.0781 190.738 85.8594 190.047 85.4219 189.555C84.9922 189.062 84.3828 188.816 83.5938 188.816C83.0859 188.816 82.6523 188.91 82.293 189.098C81.9414 189.285 81.6719 189.559 81.4844 189.918C81.2969 190.277 81.2031 190.715 81.2031 191.23L80.957 188.887C81.3242 188.176 81.8047 187.629 82.3984 187.246C82.9922 186.855 83.6523 186.66 84.3789 186.66C85.6836 186.66 86.6914 187.094 87.4023 187.961C88.1133 188.82 88.4688 190.039 88.4688 191.617V194.266C88.4688 195.82 88.1016 197.027 87.3672 197.887C86.6328 198.746 85.5977 199.176 84.2617 199.176ZM94.2578 181.961V195.859C94.2578 196.148 94.3203 196.375 94.4453 196.539C94.5781 196.703 94.7617 196.785 94.9961 196.785H96.1211V199.059H94.7148C93.8164 199.059 93.1172 198.777 92.6172 198.215C92.1172 197.652 91.8672 196.859 91.8672 195.836V181.961H94.2578ZM103.492 199.176C101.898 199.176 100.664 198.715 99.7891 197.793C98.9141 196.863 98.4766 195.559 98.4766 193.879V191.898C98.4766 190.234 98.9141 188.945 99.7891 188.031C100.664 187.117 101.898 186.66 103.492 186.66C105.086 186.66 106.32 187.117 107.195 188.031C108.07 188.945 108.508 190.234 108.508 191.898V193.914C108.508 195.586 108.07 196.883 107.195 197.805C106.32 198.719 105.086 199.176 103.492 199.176ZM103.492 196.902C104.328 196.902 104.973 196.641 105.426 196.117C105.887 195.594 106.117 194.859 106.117 193.914V191.898C106.117 190.953 105.887 190.223 105.426 189.707C104.973 189.191 104.328 188.934 103.492 188.934C102.664 188.934 102.02 189.191 101.559 189.707C101.098 190.223 100.867 190.953 100.867 191.898V193.914C100.867 194.859 101.098 195.594 101.559 196.117C102.02 196.641 102.664 196.902 103.492 196.902ZM111.906 199V186.836H114.297V199H111.906ZM118.598 189.719C118.387 189.461 118.121 189.266 117.801 189.133C117.48 189 117.109 188.934 116.688 188.934C115.93 188.934 115.34 189.145 114.918 189.566C114.504 189.98 114.297 190.559 114.297 191.301L114.051 188.957C114.418 188.238 114.898 187.676 115.492 187.27C116.094 186.863 116.754 186.66 117.473 186.66C118.027 186.66 118.527 186.742 118.973 186.906C119.426 187.062 119.82 187.297 120.156 187.609L118.598 189.719ZM126.895 199.176C125.199 199.176 123.887 198.703 122.957 197.758C122.027 196.812 121.562 195.469 121.562 193.727V192.355C121.562 190.543 122.008 189.141 122.898 188.148C123.797 187.156 125.059 186.66 126.684 186.66C128.215 186.66 129.398 187.223 130.234 188.348C131.078 189.473 131.5 191.051 131.5 193.082V193.879H123.297V191.957H129.227C129.156 190.973 128.898 190.203 128.453 189.648C128.016 189.094 127.426 188.816 126.684 188.816C125.785 188.816 125.086 189.113 124.586 189.707C124.086 190.301 123.836 191.141 123.836 192.227V193.773C123.836 194.781 124.102 195.555 124.633 196.094C125.172 196.633 125.926 196.902 126.895 196.902C127.379 196.902 127.859 196.805 128.336 196.609C128.812 196.414 129.238 196.141 129.613 195.789L131.184 197.359C130.582 197.938 129.906 198.387 129.156 198.707C128.406 199.02 127.652 199.176 126.895 199.176ZM144.391 199.059C143.391 199.059 142.664 198.781 142.211 198.227C141.766 197.672 141.543 196.875 141.543 195.836V183.297H143.934V195.859C143.934 196.148 143.992 196.375 144.109 196.539C144.227 196.703 144.398 196.785 144.625 196.785H145.773V199.059H144.391ZM140.289 188.992V186.836H145.773V188.992H140.289ZM149.055 199V181.961H151.445V199H149.055ZM156.438 199V191.629C156.438 190.77 156.215 190.105 155.77 189.637C155.332 189.168 154.707 188.934 153.895 188.934C153.113 188.934 152.508 189.137 152.078 189.543C151.656 189.949 151.445 190.523 151.445 191.266L151.199 188.922C151.574 188.203 152.062 187.648 152.664 187.258C153.273 186.859 153.945 186.66 154.68 186.66C156 186.66 157.02 187.094 157.738 187.961C158.465 188.82 158.828 190.039 158.828 191.617V199H156.438ZM167.441 199.176C165.746 199.176 164.434 198.703 163.504 197.758C162.574 196.812 162.109 195.469 162.109 193.727V192.355C162.109 190.543 162.555 189.141 163.445 188.148C164.344 187.156 165.605 186.66 167.23 186.66C168.762 186.66 169.945 187.223 170.781 188.348C171.625 189.473 172.047 191.051 172.047 193.082V193.879H163.844V191.957H169.773C169.703 190.973 169.445 190.203 169 189.648C168.562 189.094 167.973 188.816 167.23 188.816C166.332 188.816 165.633 189.113 165.133 189.707C164.633 190.301 164.383 191.141 164.383 192.227V193.773C164.383 194.781 164.648 195.555 165.18 196.094C165.719 196.633 166.473 196.902 167.441 196.902C167.926 196.902 168.406 196.805 168.883 196.609C169.359 196.414 169.785 196.141 170.16 195.789L171.73 197.359C171.129 197.938 170.453 198.387 169.703 198.707C168.953 199.02 168.199 199.176 167.441 199.176ZM182.125 199V185.184C182.125 184.113 182.371 183.309 182.863 182.77C183.355 182.23 184.121 181.961 185.16 181.961H186.918V184.234H185.207C184.965 184.234 184.789 184.328 184.68 184.516C184.57 184.695 184.516 184.91 184.516 185.16V199H182.125ZM180.836 188.875V186.836H186.918V188.875H180.836ZM196.258 199V186.836H198.637V199H196.258ZM191.312 186.836V194.23C191.312 195.082 191.527 195.742 191.957 196.211C192.395 196.672 193.008 196.902 193.797 196.902C194.586 196.902 195.191 196.695 195.613 196.281C196.043 195.859 196.258 195.27 196.258 194.512L196.422 197.055C196.203 197.602 195.82 198.094 195.273 198.531C194.727 198.961 194.012 199.176 193.129 199.176C191.785 199.176 190.746 198.746 190.012 197.887C189.285 197.02 188.922 195.801 188.922 194.23V186.836H191.312ZM202.281 199V186.836H204.672V199H202.281ZM209.664 199V191.629C209.664 190.77 209.441 190.105 208.996 189.637C208.559 189.168 207.934 188.934 207.121 188.934C206.34 188.934 205.734 189.141 205.305 189.555C204.883 189.969 204.672 190.551 204.672 191.301L204.426 188.957C204.801 188.223 205.289 187.656 205.891 187.258C206.5 186.859 207.172 186.66 207.906 186.66C209.227 186.66 210.246 187.094 210.965 187.961C211.691 188.82 212.055 190.039 212.055 191.617V199H209.664ZM220.598 199.176C218.926 199.176 217.629 198.715 216.707 197.793C215.793 196.871 215.336 195.57 215.336 193.891V191.887C215.336 190.223 215.793 188.938 216.707 188.031C217.629 187.117 218.926 186.66 220.598 186.66C221.551 186.66 222.41 186.828 223.176 187.164C223.941 187.5 224.551 187.98 225.004 188.605L223.281 190.152C222.945 189.762 222.547 189.461 222.086 189.25C221.625 189.039 221.141 188.934 220.633 188.934C219.711 188.934 218.996 189.191 218.488 189.707C217.98 190.223 217.727 190.949 217.727 191.887V193.891C217.727 194.852 217.98 195.594 218.488 196.117C218.996 196.641 219.711 196.902 220.633 196.902C221.141 196.902 221.625 196.789 222.086 196.562C222.547 196.336 222.945 196.016 223.281 195.602L225.004 197.266C224.551 197.875 223.938 198.348 223.164 198.684C222.398 199.012 221.543 199.176 220.598 199.176ZM230.805 199.059C229.805 199.059 229.078 198.781 228.625 198.227C228.18 197.672 227.957 196.875 227.957 195.836V183.297H230.348V195.859C230.348 196.148 230.406 196.375 230.523 196.539C230.641 196.703 230.812 196.785 231.039 196.785H232.188V199.059H230.805ZM226.703 188.992V186.836H232.188V188.992H226.703ZM235.469 184.352V181.961H237.859V184.352H235.469ZM235.469 199V186.836H237.859V199H235.469ZM246.156 199.176C244.562 199.176 243.328 198.715 242.453 197.793C241.578 196.863 241.141 195.559 241.141 193.879V191.898C241.141 190.234 241.578 188.945 242.453 188.031C243.328 187.117 244.562 186.66 246.156 186.66C247.75 186.66 248.984 187.117 249.859 188.031C250.734 188.945 251.172 190.234 251.172 191.898V193.914C251.172 195.586 250.734 196.883 249.859 197.805C248.984 198.719 247.75 199.176 246.156 199.176ZM246.156 196.902C246.992 196.902 247.637 196.641 248.09 196.117C248.551 195.594 248.781 194.859 248.781 193.914V191.898C248.781 190.953 248.551 190.223 248.09 189.707C247.637 189.191 246.992 188.934 246.156 188.934C245.328 188.934 244.684 189.191 244.223 189.707C243.762 190.223 243.531 190.953 243.531 191.898V193.914C243.531 194.859 243.762 195.594 244.223 196.117C244.684 196.641 245.328 196.902 246.156 196.902ZM254.57 199V186.836H256.961V199H254.57ZM261.953 199V191.629C261.953 190.77 261.73 190.105 261.285 189.637C260.848 189.168 260.223 188.934 259.41 188.934C258.629 188.934 258.023 189.141 257.594 189.555C257.172 189.969 256.961 190.551 256.961 191.301L256.715 188.957C257.09 188.223 257.578 187.656 258.18 187.258C258.789 186.859 259.461 186.66 260.195 186.66C261.516 186.66 262.535 187.094 263.254 187.961C263.98 188.82 264.344 190.039 264.344 191.617V199H261.953ZM279.086 199.176C277.492 199.176 276.258 198.715 275.383 197.793C274.508 196.863 274.07 195.559 274.07 193.879V191.898C274.07 190.234 274.508 188.945 275.383 188.031C276.258 187.117 277.492 186.66 279.086 186.66C280.68 186.66 281.914 187.117 282.789 188.031C283.664 188.945 284.102 190.234 284.102 191.898V193.914C284.102 195.586 283.664 196.883 282.789 197.805C281.914 198.719 280.68 199.176 279.086 199.176ZM279.086 196.902C279.922 196.902 280.566 196.641 281.02 196.117C281.48 195.594 281.711 194.859 281.711 193.914V191.898C281.711 190.953 281.48 190.223 281.02 189.707C280.566 189.191 279.922 188.934 279.086 188.934C278.258 188.934 277.613 189.191 277.152 189.707C276.691 190.223 276.461 190.953 276.461 191.898V193.914C276.461 194.859 276.691 195.594 277.152 196.117C277.613 196.641 278.258 196.902 279.086 196.902ZM287.852 199V185.184C287.852 184.113 288.098 183.309 288.59 182.77C289.082 182.23 289.848 181.961 290.887 181.961H292.645V184.234H290.934C290.691 184.234 290.516 184.328 290.406 184.516C290.297 184.695 290.242 184.91 290.242 185.16V199H287.852ZM286.562 188.875V186.836H292.645V188.875H286.562ZM301.562 203.945V186.836H303.953V203.945H301.562ZM307.012 199.176C306.254 199.176 305.594 198.996 305.031 198.637C304.469 198.27 304.055 197.754 303.789 197.09L303.953 194.547C303.953 195.07 304.047 195.516 304.234 195.883C304.422 196.25 304.691 196.531 305.043 196.727C305.402 196.922 305.836 197.02 306.344 197.02C307.133 197.02 307.742 196.781 308.172 196.305C308.609 195.82 308.828 195.141 308.828 194.266V191.629C308.828 190.738 308.609 190.047 308.172 189.555C307.742 189.062 307.133 188.816 306.344 188.816C305.836 188.816 305.402 188.91 305.043 189.098C304.691 189.285 304.422 189.559 304.234 189.918C304.047 190.277 303.953 190.715 303.953 191.23L303.707 188.887C304.074 188.176 304.555 187.629 305.148 187.246C305.742 186.855 306.402 186.66 307.129 186.66C308.434 186.66 309.441 187.094 310.152 187.961C310.863 188.82 311.219 190.039 311.219 191.617V194.266C311.219 195.82 310.852 197.027 310.117 197.887C309.383 198.746 308.348 199.176 307.012 199.176ZM314.617 184.352V181.961H317.008V184.352H314.617ZM314.617 199V186.836H317.008V199H314.617ZM323.805 199.059C322.805 199.059 322.078 198.781 321.625 198.227C321.18 197.672 320.957 196.875 320.957 195.836V183.297H323.348V195.859C323.348 196.148 323.406 196.375 323.523 196.539C323.641 196.703 323.812 196.785 324.039 196.785H325.188V199.059H323.805ZM319.703 188.992V186.836H325.188V188.992H319.703ZM335.805 199V186.836H338.184V199H335.805ZM330.859 186.836V194.23C330.859 195.082 331.074 195.742 331.504 196.211C331.941 196.672 332.555 196.902 333.344 196.902C334.133 196.902 334.738 196.695 335.16 196.281C335.59 195.859 335.805 195.27 335.805 194.512L335.969 197.055C335.75 197.602 335.367 198.094 334.82 198.531C334.273 198.961 333.559 199.176 332.676 199.176C331.332 199.176 330.293 198.746 329.559 197.887C328.832 197.02 328.469 195.801 328.469 194.23V186.836H330.859ZM341.828 184.352V181.961H344.219V184.352H341.828ZM341.828 199V186.836H344.219V199H341.828ZM351.016 199.059C350.016 199.059 349.289 198.781 348.836 198.227C348.391 197.672 348.168 196.875 348.168 195.836V183.297H350.559V195.859C350.559 196.148 350.617 196.375 350.734 196.539C350.852 196.703 351.023 196.785 351.25 196.785H352.398V199.059H351.016ZM346.914 188.992V186.836H352.398V188.992H346.914ZM362.547 199V191.289C362.547 190.492 362.332 189.875 361.902 189.438C361.48 188.992 360.879 188.77 360.098 188.77C359.621 188.77 359.148 188.844 358.68 188.992C358.219 189.133 357.805 189.34 357.438 189.613L355.691 188.418C356.152 187.863 356.758 187.434 357.508 187.129C358.266 186.816 359.105 186.66 360.027 186.66C361.551 186.66 362.73 187.055 363.566 187.844C364.402 188.633 364.82 189.746 364.82 191.184V199H362.547ZM359.57 199.176C358.078 199.176 356.957 198.867 356.207 198.25C355.465 197.633 355.094 196.688 355.094 195.414C355.094 194.203 355.434 193.301 356.113 192.707C356.801 192.105 357.828 191.805 359.195 191.805H362.652L362.816 193.727H359.207C358.59 193.727 358.125 193.867 357.812 194.148C357.5 194.422 357.344 194.844 357.344 195.414C357.344 196.031 357.551 196.488 357.965 196.785C358.379 197.082 359 197.23 359.828 197.23C360.734 197.23 361.414 197.133 361.867 196.938C362.32 196.742 362.547 196.438 362.547 196.023L362.793 197.734C362.582 198.062 362.32 198.332 362.008 198.543C361.695 198.754 361.336 198.91 360.93 199.012C360.531 199.121 360.078 199.176 359.57 199.176ZM368.453 199V186.836H370.844V199H368.453ZM375.145 189.719C374.934 189.461 374.668 189.266 374.348 189.133C374.027 189 373.656 188.934 373.234 188.934C372.477 188.934 371.887 189.145 371.465 189.566C371.051 189.98 370.844 190.559 370.844 191.301L370.598 188.957C370.965 188.238 371.445 187.676 372.039 187.27C372.641 186.863 373.301 186.66 374.02 186.66C374.574 186.66 375.074 186.742 375.52 186.906C375.973 187.062 376.367 187.297 376.703 187.609L375.145 189.719ZM385.738 186.836H388.176L382.996 201.848C382.707 202.684 382.289 203.262 381.742 203.582C381.195 203.91 380.445 204.074 379.492 204.074H379.012V201.777H379.492C379.938 201.777 380.289 201.688 380.547 201.508C380.812 201.328 381.043 201.02 381.238 200.582L385.738 186.836ZM382.258 199.996L377.406 186.836H379.844L383.582 197.406L382.258 199.996ZM400.82 203.945C399.906 203.945 399.086 203.773 398.359 203.43C397.641 203.094 397.082 202.617 396.684 202L398.301 200.535C398.613 200.965 398.984 201.297 399.414 201.531C399.852 201.766 400.309 201.883 400.785 201.883C401.699 201.883 402.406 201.629 402.906 201.121C403.406 200.621 403.656 199.91 403.656 198.988V186.836H406.047V198.637C406.047 200.324 405.59 201.629 404.676 202.551C403.77 203.48 402.484 203.945 400.82 203.945ZM400.598 199.211C399.254 199.211 398.215 198.781 397.48 197.922C396.754 197.055 396.391 195.836 396.391 194.266V191.582C396.391 190.004 396.746 188.785 397.457 187.926C398.176 187.059 399.184 186.625 400.48 186.625C401.199 186.625 401.855 186.812 402.449 187.188C403.051 187.562 403.535 188.09 403.902 188.77L403.656 191.254C403.656 190.738 403.562 190.297 403.375 189.93C403.188 189.562 402.914 189.285 402.555 189.098C402.203 188.902 401.773 188.805 401.266 188.805C400.477 188.805 399.863 189.051 399.426 189.543C398.996 190.035 398.781 190.727 398.781 191.617V194.266C398.781 195.148 398.996 195.832 399.426 196.316C399.863 196.793 400.477 197.031 401.266 197.031C401.773 197.031 402.203 196.934 402.555 196.738C402.914 196.535 403.188 196.246 403.375 195.871C403.562 195.496 403.656 195.047 403.656 194.523L403.82 197.09C403.602 197.637 403.223 198.129 402.684 198.566C402.152 198.996 401.457 199.211 400.598 199.211ZM412.07 181.961V195.859C412.07 196.148 412.133 196.375 412.258 196.539C412.391 196.703 412.574 196.785 412.809 196.785H413.934V199.059H412.527C411.629 199.059 410.93 198.777 410.43 198.215C409.93 197.652 409.68 196.859 409.68 195.836V181.961H412.07ZM423.391 199V191.289C423.391 190.492 423.176 189.875 422.746 189.438C422.324 188.992 421.723 188.77 420.941 188.77C420.465 188.77 419.992 188.844 419.523 188.992C419.062 189.133 418.648 189.34 418.281 189.613L416.535 188.418C416.996 187.863 417.602 187.434 418.352 187.129C419.109 186.816 419.949 186.66 420.871 186.66C422.395 186.66 423.574 187.055 424.41 187.844C425.246 188.633 425.664 189.746 425.664 191.184V199H423.391ZM420.414 199.176C418.922 199.176 417.801 198.867 417.051 198.25C416.309 197.633 415.938 196.688 415.938 195.414C415.938 194.203 416.277 193.301 416.957 192.707C417.645 192.105 418.672 191.805 420.039 191.805H423.496L423.66 193.727H420.051C419.434 193.727 418.969 193.867 418.656 194.148C418.344 194.422 418.188 194.844 418.188 195.414C418.188 196.031 418.395 196.488 418.809 196.785C419.223 197.082 419.844 197.23 420.672 197.23C421.578 197.23 422.258 197.133 422.711 196.938C423.164 196.742 423.391 196.438 423.391 196.023L423.637 197.734C423.426 198.062 423.164 198.332 422.852 198.543C422.539 198.754 422.18 198.91 421.773 199.012C421.375 199.121 420.922 199.176 420.414 199.176ZM429.297 199V186.836H431.688V199H429.297ZM436.68 199V191.629C436.68 190.77 436.457 190.105 436.012 189.637C435.574 189.168 434.949 188.934 434.137 188.934C433.355 188.934 432.75 189.141 432.32 189.555C431.898 189.969 431.688 190.551 431.688 191.301L431.441 188.957C431.816 188.223 432.305 187.656 432.906 187.258C433.516 186.859 434.188 186.66 434.922 186.66C436.242 186.66 437.262 187.094 437.98 187.961C438.707 188.82 439.07 190.039 439.07 191.617V199H436.68ZM449.617 199V181.961H452.008V199H449.617ZM446.559 199.211C445.215 199.211 444.176 198.781 443.441 197.922C442.715 197.055 442.352 195.836 442.352 194.266V191.582C442.352 190.004 442.707 188.785 443.418 187.926C444.137 187.059 445.145 186.625 446.441 186.625C447.16 186.625 447.816 186.812 448.41 187.188C449.012 187.562 449.496 188.09 449.863 188.77L449.617 191.254C449.617 190.738 449.523 190.297 449.336 189.93C449.148 189.562 448.875 189.285 448.516 189.098C448.164 188.902 447.734 188.805 447.227 188.805C446.438 188.805 445.824 189.051 445.387 189.543C444.957 190.035 444.742 190.727 444.742 191.617V194.266C444.742 195.148 444.957 195.832 445.387 196.316C445.824 196.793 446.438 197.031 447.227 197.031C447.734 197.031 448.164 196.934 448.516 196.738C448.875 196.535 449.148 196.246 449.336 195.871C449.523 195.496 449.617 195.047 449.617 194.523L449.781 197.09C449.562 197.637 449.184 198.129 448.645 198.566C448.113 198.996 447.418 199.211 446.559 199.211ZM455.23 199V196.492H457.738V199H455.23Z" fill="white"/>
<path d="M143.869 76.2637C142.088 76.2637 140.529 75.8711 139.193 75.0859C137.857 74.2891 136.82 73.1758 136.082 71.7461C135.344 70.3164 134.975 68.6465 134.975 66.7363V59.7227C134.975 57.8008 135.344 56.125 136.082 54.6953C136.82 53.2656 137.857 52.1582 139.193 51.373C140.529 50.5762 142.088 50.1777 143.869 50.1777C145.346 50.1777 146.693 50.4941 147.912 51.127C149.143 51.7598 150.168 52.6445 150.988 53.7812C151.82 54.918 152.383 56.248 152.676 57.7715H149.002C148.779 56.9512 148.404 56.2363 147.877 55.627C147.361 55.0059 146.752 54.5254 146.049 54.1855C145.346 53.8457 144.619 53.6758 143.869 53.6758C142.299 53.6758 141.033 54.2324 140.072 55.3457C139.123 56.4473 138.648 57.9062 138.648 59.7227V66.7363C138.648 68.5527 139.123 70.0117 140.072 71.1133C141.033 72.2148 142.299 72.7656 143.869 72.7656C144.982 72.7656 146.031 72.4141 147.016 71.7109C148 71.0078 148.662 69.9941 149.002 68.6699H152.676C152.383 70.1934 151.82 71.5234 150.988 72.6602C150.156 73.7969 149.131 74.6816 147.912 75.3145C146.693 75.9473 145.346 76.2637 143.869 76.2637ZM164.436 76.2637C162.045 76.2637 160.193 75.5723 158.881 74.1895C157.568 72.7949 156.912 70.8379 156.912 68.3184V65.3477C156.912 62.8516 157.568 60.918 158.881 59.5469C160.193 58.1758 162.045 57.4902 164.436 57.4902C166.826 57.4902 168.678 58.1758 169.99 59.5469C171.303 60.918 171.959 62.8516 171.959 65.3477V68.3711C171.959 70.8789 171.303 72.8242 169.99 74.207C168.678 75.5781 166.826 76.2637 164.436 76.2637ZM164.436 72.8535C165.689 72.8535 166.656 72.4609 167.336 71.6758C168.027 70.8906 168.373 69.7891 168.373 68.3711V65.3477C168.373 63.9297 168.027 62.834 167.336 62.0605C166.656 61.2871 165.689 60.9004 164.436 60.9004C163.193 60.9004 162.227 61.2871 161.535 62.0605C160.844 62.834 160.498 63.9297 160.498 65.3477V68.3711C160.498 69.7891 160.844 70.8906 161.535 71.6758C162.227 72.4609 163.193 72.8535 164.436 72.8535ZM177.057 76V57.7539H180.643V76H177.057ZM188.131 76V64.9434C188.131 63.6543 187.797 62.6582 187.129 61.9551C186.473 61.252 185.535 60.9004 184.316 60.9004C183.145 60.9004 182.236 61.2109 181.592 61.832C180.959 62.4531 180.643 63.3262 180.643 64.4512L180.273 60.9355C180.836 59.834 181.568 58.9844 182.471 58.3867C183.385 57.7891 184.393 57.4902 185.494 57.4902C187.475 57.4902 189.004 58.1406 190.082 59.4414C191.172 60.7305 191.717 62.5586 191.717 64.9258V76H188.131ZM203.283 83.418C201.912 83.418 200.682 83.1602 199.592 82.6445C198.514 82.1406 197.676 81.4258 197.078 80.5L199.504 78.3027C199.973 78.9473 200.529 79.4453 201.174 79.7969C201.83 80.1484 202.516 80.3242 203.23 80.3242C204.602 80.3242 205.662 79.9434 206.412 79.1816C207.162 78.4316 207.537 77.3652 207.537 75.9824V57.7539H211.123V75.4551C211.123 77.9863 210.438 79.9434 209.066 81.3262C207.707 82.7207 205.779 83.418 203.283 83.418ZM202.949 76.3164C200.934 76.3164 199.375 75.6719 198.273 74.3828C197.184 73.082 196.639 71.2539 196.639 68.8984V64.873C196.639 62.5059 197.172 60.6777 198.238 59.3887C199.316 58.0879 200.828 57.4375 202.773 57.4375C203.852 57.4375 204.836 57.7188 205.727 58.2812C206.629 58.8438 207.355 59.6348 207.906 60.6543L207.537 64.3809C207.537 63.6074 207.396 62.9453 207.115 62.3945C206.834 61.8438 206.424 61.4277 205.885 61.1465C205.357 60.8535 204.713 60.707 203.951 60.707C202.768 60.707 201.848 61.0762 201.191 61.8145C200.547 62.5527 200.225 63.5898 200.225 64.9258V68.8984C200.225 70.2227 200.547 71.248 201.191 71.9746C201.848 72.6895 202.768 73.0469 203.951 73.0469C204.713 73.0469 205.357 72.9004 205.885 72.6074C206.424 72.3027 206.834 71.8691 207.115 71.3066C207.396 70.7441 207.537 70.0703 207.537 69.2852L207.783 73.1348C207.455 73.9551 206.887 74.6934 206.078 75.3496C205.281 75.9941 204.238 76.3164 202.949 76.3164ZM216.572 76V57.7539H220.158V76H216.572ZM226.609 62.0781C226.293 61.6914 225.895 61.3984 225.414 61.1992C224.934 61 224.377 60.9004 223.744 60.9004C222.607 60.9004 221.723 61.2168 221.09 61.8496C220.469 62.4707 220.158 63.3379 220.158 64.4512L219.789 60.9355C220.34 59.8574 221.061 59.0137 221.951 58.4043C222.854 57.7949 223.844 57.4902 224.922 57.4902C225.754 57.4902 226.504 57.6133 227.172 57.8594C227.852 58.0938 228.443 58.4453 228.947 58.9141L226.609 62.0781ZM242.236 76V64.4336C242.236 63.2383 241.914 62.3125 241.27 61.6562C240.637 60.9883 239.734 60.6543 238.562 60.6543C237.848 60.6543 237.139 60.7656 236.436 60.9883C235.744 61.1992 235.123 61.5098 234.572 61.9199L231.953 60.127C232.645 59.2949 233.553 58.6504 234.678 58.1934C235.814 57.7246 237.074 57.4902 238.457 57.4902C240.742 57.4902 242.512 58.082 243.766 59.2656C245.02 60.4492 245.646 62.1191 245.646 64.2754V76H242.236ZM237.771 76.2637C235.533 76.2637 233.852 75.8008 232.727 74.875C231.613 73.9492 231.057 72.5312 231.057 70.6211C231.057 68.8047 231.566 67.4512 232.586 66.5605C233.617 65.6582 235.158 65.207 237.209 65.207H242.395L242.641 68.0898H237.227C236.301 68.0898 235.604 68.3008 235.135 68.7227C234.666 69.1328 234.432 69.7656 234.432 70.6211C234.432 71.5469 234.742 72.2324 235.363 72.6777C235.984 73.123 236.916 73.3457 238.158 73.3457C239.518 73.3457 240.537 73.1992 241.217 72.9062C241.896 72.6133 242.236 72.1562 242.236 71.5352L242.605 74.1016C242.289 74.5938 241.896 74.998 241.428 75.3145C240.959 75.6309 240.42 75.8652 239.811 76.0176C239.213 76.1816 238.533 76.2637 237.771 76.2637ZM255.842 76.0879C254.342 76.0879 253.252 75.6719 252.572 74.8398C251.904 74.0078 251.57 72.8125 251.57 71.2539V52.4453H255.156V71.2891C255.156 71.7227 255.244 72.0625 255.42 72.3086C255.596 72.5547 255.854 72.6777 256.193 72.6777H257.916V76.0879H255.842ZM249.689 60.9883V57.7539H257.916V60.9883H249.689ZM273.842 76V57.7539H277.41V76H273.842ZM266.424 57.7539V68.8457C266.424 70.123 266.746 71.1133 267.391 71.8164C268.047 72.5078 268.967 72.8535 270.15 72.8535C271.334 72.8535 272.242 72.543 272.875 71.9219C273.52 71.2891 273.842 70.4043 273.842 69.2676L274.088 73.082C273.76 73.9023 273.186 74.6406 272.365 75.2969C271.545 75.9414 270.473 76.2637 269.148 76.2637C267.133 76.2637 265.574 75.6191 264.473 74.3301C263.383 73.0293 262.838 71.2012 262.838 68.8457V57.7539H266.424ZM286.463 50.4414V71.2891C286.463 71.7227 286.557 72.0625 286.744 72.3086C286.943 72.5547 287.219 72.6777 287.57 72.6777H289.258V76.0879H287.148C285.801 76.0879 284.752 75.666 284.002 74.8223C283.252 73.9785 282.877 72.7891 282.877 71.2539V50.4414H286.463ZM303.443 76V64.4336C303.443 63.2383 303.121 62.3125 302.477 61.6562C301.844 60.9883 300.941 60.6543 299.77 60.6543C299.055 60.6543 298.346 60.7656 297.643 60.9883C296.951 61.1992 296.33 61.5098 295.779 61.9199L293.16 60.127C293.852 59.2949 294.76 58.6504 295.885 58.1934C297.021 57.7246 298.281 57.4902 299.664 57.4902C301.949 57.4902 303.719 58.082 304.973 59.2656C306.227 60.4492 306.854 62.1191 306.854 64.2754V76H303.443ZM298.979 76.2637C296.74 76.2637 295.059 75.8008 293.934 74.875C292.82 73.9492 292.264 72.5312 292.264 70.6211C292.264 68.8047 292.773 67.4512 293.793 66.5605C294.824 65.6582 296.365 65.207 298.416 65.207H303.602L303.848 68.0898H298.434C297.508 68.0898 296.811 68.3008 296.342 68.7227C295.873 69.1328 295.639 69.7656 295.639 70.6211C295.639 71.5469 295.949 72.2324 296.57 72.6777C297.191 73.123 298.123 73.3457 299.365 73.3457C300.725 73.3457 301.744 73.1992 302.424 72.9062C303.104 72.6133 303.443 72.1562 303.443 71.5352L303.812 74.1016C303.496 74.5938 303.104 74.998 302.635 75.3145C302.166 75.6309 301.627 75.8652 301.018 76.0176C300.42 76.1816 299.74 76.2637 298.979 76.2637ZM317.049 76.0879C315.549 76.0879 314.459 75.6719 313.779 74.8398C313.111 74.0078 312.777 72.8125 312.777 71.2539V52.4453H316.363V71.2891C316.363 71.7227 316.451 72.0625 316.627 72.3086C316.803 72.5547 317.061 72.6777 317.4 72.6777H319.123V76.0879H317.049ZM310.896 60.9883V57.7539H319.123V60.9883H310.896ZM324.045 54.0273V50.4414H327.631V54.0273H324.045ZM324.045 76V57.7539H327.631V76H324.045ZM340.076 76.2637C337.686 76.2637 335.834 75.5723 334.521 74.1895C333.209 72.7949 332.553 70.8379 332.553 68.3184V65.3477C332.553 62.8516 333.209 60.918 334.521 59.5469C335.834 58.1758 337.686 57.4902 340.076 57.4902C342.467 57.4902 344.318 58.1758 345.631 59.5469C346.943 60.918 347.6 62.8516 347.6 65.3477V68.3711C347.6 70.8789 346.943 72.8242 345.631 74.207C344.318 75.5781 342.467 76.2637 340.076 76.2637ZM340.076 72.8535C341.33 72.8535 342.297 72.4609 342.977 71.6758C343.668 70.8906 344.014 69.7891 344.014 68.3711V65.3477C344.014 63.9297 343.668 62.834 342.977 62.0605C342.297 61.2871 341.33 60.9004 340.076 60.9004C338.834 60.9004 337.867 61.2871 337.176 62.0605C336.484 62.834 336.139 63.9297 336.139 65.3477V68.3711C336.139 69.7891 336.484 70.8906 337.176 71.6758C337.867 72.4609 338.834 72.8535 340.076 72.8535ZM352.697 76V57.7539H356.283V76H352.697ZM363.771 76V64.9434C363.771 63.6543 363.438 62.6582 362.77 61.9551C362.113 61.252 361.176 60.9004 359.957 60.9004C358.785 60.9004 357.877 61.2109 357.232 61.832C356.6 62.4531 356.283 63.3262 356.283 64.4512L355.914 60.9355C356.477 59.834 357.209 58.9844 358.111 58.3867C359.025 57.7891 360.033 57.4902 361.135 57.4902C363.115 57.4902 364.645 58.1406 365.723 59.4414C366.812 60.7305 367.357 62.5586 367.357 64.9258V76H363.771ZM379.258 76.2637C377.641 76.2637 376.17 76.0293 374.846 75.5605C373.533 75.0801 372.355 74.3652 371.312 73.416L373.439 70.7969C374.436 71.5469 375.414 72.1094 376.375 72.4844C377.348 72.8594 378.309 73.0469 379.258 73.0469C380.676 73.0469 381.736 72.8301 382.439 72.3965C383.154 71.9512 383.512 71.2891 383.512 70.4102C383.512 69.7305 383.271 69.25 382.791 68.9688C382.322 68.6875 381.701 68.5059 380.928 68.4238C380.166 68.3301 379.346 68.2539 378.467 68.1953C377.729 68.1367 376.996 68.0488 376.27 67.9316C375.543 67.8027 374.881 67.5801 374.283 67.2637C373.686 66.9355 373.205 66.4551 372.842 65.8223C372.49 65.1895 372.314 64.3398 372.314 63.2734C372.314 61.3398 372.906 59.8926 374.09 58.9316C375.273 57.9707 377.037 57.4902 379.381 57.4902C380.811 57.4902 382.141 57.6836 383.371 58.0703C384.602 58.457 385.756 59.0488 386.834 59.8457L384.672 62.4648C383.758 61.8789 382.855 61.4395 381.965 61.1465C381.086 60.8535 380.225 60.707 379.381 60.707C378.162 60.707 377.248 60.918 376.639 61.3398C376.029 61.75 375.725 62.3711 375.725 63.2031C375.725 63.7539 375.936 64.1523 376.357 64.3984C376.779 64.6328 377.336 64.7852 378.027 64.8555C378.719 64.9258 379.463 64.9902 380.26 65.0488C381.021 65.0957 381.789 65.1836 382.562 65.3125C383.348 65.4297 384.068 65.6641 384.725 66.0156C385.381 66.3672 385.908 66.8887 386.307 67.5801C386.705 68.2715 386.904 69.2148 386.904 70.4102C386.904 72.3672 386.266 73.832 384.988 74.8047C383.723 75.7773 381.812 76.2637 379.258 76.2637Z" fill="white"/>
<rect x="161" y="285" width="200" height="54" rx="27" fill="#FFE500"/>
<path d="M195.5 323V300.281H199.781V323H195.5ZM197.406 323V318.875H210.719V323H197.406ZM213.844 323V300.281H218.125V323H213.844ZM215.391 323V318.875H229.062V323H215.391ZM215.391 313.781V309.656H227.344V313.781H215.391ZM215.391 304.406V300.281H229.062V304.406H215.391ZM236.656 323V302.141H240.938V323H236.656ZM230.469 304.406V300.281H247.125V304.406H230.469ZM247.203 309.969V300.281H251.484V305.875L247.203 309.969ZM260.891 323.234C259.807 323.234 258.745 323.125 257.703 322.906C256.672 322.688 255.703 322.37 254.797 321.953C253.891 321.526 253.073 321.016 252.344 320.422L254.328 316.891C255.203 317.609 256.214 318.167 257.359 318.562C258.505 318.948 259.682 319.141 260.891 319.141C262.286 319.141 263.37 318.906 264.141 318.438C264.911 317.958 265.297 317.286 265.297 316.422V316.406C265.297 315.75 265.104 315.25 264.719 314.906C264.333 314.552 263.823 314.292 263.188 314.125C262.562 313.958 261.88 313.818 261.141 313.703C260.255 313.568 259.359 313.401 258.453 313.203C257.547 312.995 256.714 312.672 255.953 312.234C255.193 311.786 254.578 311.151 254.109 310.328C253.651 309.505 253.422 308.406 253.422 307.031V307.016C253.422 304.797 254.151 303.083 255.609 301.875C257.068 300.656 259.13 300.047 261.797 300.047C263.026 300.047 264.276 300.255 265.547 300.672C266.818 301.078 268 301.661 269.094 302.422L267.281 306.047C266.406 305.432 265.49 304.964 264.531 304.641C263.583 304.307 262.672 304.141 261.797 304.141C260.484 304.141 259.469 304.359 258.75 304.797C258.031 305.224 257.672 305.828 257.672 306.609V306.625C257.672 307.354 257.885 307.906 258.312 308.281C258.74 308.656 259.297 308.938 259.984 309.125C260.672 309.302 261.411 309.469 262.203 309.625C263.078 309.792 263.948 310 264.812 310.25C265.677 310.49 266.469 310.839 267.188 311.297C267.906 311.755 268.479 312.385 268.906 313.188C269.333 313.99 269.547 315.031 269.547 316.312V316.344C269.547 318.531 268.792 320.229 267.281 321.438C265.771 322.635 263.641 323.234 260.891 323.234ZM290.344 310.297H298.219V314.734C298.219 316.443 297.875 317.938 297.188 319.219C296.5 320.49 295.536 321.479 294.297 322.188C293.068 322.885 291.62 323.234 289.953 323.234C288.276 323.234 286.807 322.906 285.547 322.25C284.297 321.583 283.323 320.651 282.625 319.453C281.938 318.245 281.594 316.839 281.594 315.234V308.531C281.594 306.823 281.938 305.333 282.625 304.062C283.312 302.792 284.271 301.807 285.5 301.109C286.74 300.401 288.193 300.047 289.859 300.047C291.234 300.047 292.484 300.328 293.609 300.891C294.745 301.453 295.698 302.24 296.469 303.25C297.24 304.26 297.76 305.443 298.031 306.797H293.406C293.177 306.057 292.719 305.49 292.031 305.094C291.354 304.688 290.63 304.484 289.859 304.484C288.703 304.484 287.776 304.854 287.078 305.594C286.38 306.333 286.031 307.312 286.031 308.531V315.234C286.031 316.307 286.391 317.172 287.109 317.828C287.828 318.474 288.776 318.797 289.953 318.797C291.109 318.797 292.036 318.448 292.734 317.75C293.432 317.042 293.781 316.057 293.781 314.797V314.422H290.344V310.297ZM309.953 323.234C308.286 323.234 306.828 322.891 305.578 322.203C304.339 321.505 303.375 320.526 302.688 319.266C302 318.005 301.656 316.536 301.656 314.859V308.422C301.656 306.734 302 305.266 302.688 304.016C303.375 302.755 304.339 301.781 305.578 301.094C306.828 300.396 308.286 300.047 309.953 300.047C311.62 300.047 313.073 300.396 314.312 301.094C315.562 301.781 316.531 302.755 317.219 304.016C317.906 305.266 318.25 306.734 318.25 308.422V314.859C318.25 316.536 317.906 318.005 317.219 319.266C316.531 320.526 315.562 321.505 314.312 322.203C313.073 322.891 311.62 323.234 309.953 323.234ZM309.953 318.953C311.12 318.953 312.052 318.589 312.75 317.859C313.458 317.13 313.812 316.167 313.812 314.969V308.312C313.812 307.104 313.458 306.141 312.75 305.422C312.052 304.693 311.12 304.328 309.953 304.328C308.786 304.328 307.849 304.693 307.141 305.422C306.443 306.141 306.094 307.104 306.094 308.312V314.969C306.094 316.167 306.443 317.13 307.141 317.859C307.849 318.589 308.786 318.953 309.953 318.953ZM322.469 316.234V300.281H326.75V316.234H322.469ZM322.469 323V318.719H326.75V323H322.469Z" fill="#9E6DD0"/>
<defs>
<linearGradient id="paint0_linear_42_478" x1="522" y1="187" x2="-3.47566e-06" y2="187" gradientUnits="userSpaceOnUse">
<stop stop-color="#DD63C2"/>
<stop offset="1" stop-color="#6376DD"/>
</linearGradient>
</defs>
</svg>
