<svg width="522" height="400" viewBox="0 0 522 400" fill="none" xmlns="http://www.w3.org/2000/svg">
<rect width="522" height="400" rx="50" fill="url(#paint0_linear_42_344)"/>
<path d="M64.4219 123.961L59.2305 134.074V141H56.8398V134.074L51.6484 123.961H54.3086L58.0352 131.648L61.7617 123.961H64.4219ZM69.5547 141.176C67.9609 141.176 66.7266 140.715 65.8516 139.793C64.9766 138.863 64.5391 137.559 64.5391 135.879V133.898C64.5391 132.234 64.9766 130.945 65.8516 130.031C66.7266 129.117 67.9609 128.66 69.5547 128.66C71.1484 128.66 72.3828 129.117 73.2578 130.031C74.1328 130.945 74.5703 132.234 74.5703 133.898V135.914C74.5703 137.586 74.1328 138.883 73.2578 139.805C72.3828 140.719 71.1484 141.176 69.5547 141.176ZM69.5547 138.902C70.3906 138.902 71.0352 138.641 71.4883 138.117C71.9492 137.594 72.1797 136.859 72.1797 135.914V133.898C72.1797 132.953 71.9492 132.223 71.4883 131.707C71.0352 131.191 70.3906 130.934 69.5547 130.934C68.7266 130.934 68.082 131.191 67.6211 131.707C67.1602 132.223 66.9297 132.953 66.9297 133.898V135.914C66.9297 136.859 67.1602 137.594 67.6211 138.117C68.082 138.641 68.7266 138.902 69.5547 138.902ZM85 141V128.836H87.3789V141H85ZM80.0547 128.836V136.23C80.0547 137.082 80.2695 137.742 80.6992 138.211C81.1367 138.672 81.75 138.902 82.5391 138.902C83.3281 138.902 83.9336 138.695 84.3555 138.281C84.7852 137.859 85 137.27 85 136.512L85.1641 139.055C84.9453 139.602 84.5625 140.094 84.0156 140.531C83.4688 140.961 82.7539 141.176 81.8711 141.176C80.5273 141.176 79.4883 140.746 78.7539 139.887C78.0273 139.02 77.6641 137.801 77.6641 136.23V128.836H80.0547ZM89.5586 130.359V123.961H92.0664V127.758L89.5586 130.359ZM98.5352 137.52L101.512 128.836H104.008L99.4375 141H97.6328L93.0625 128.836H95.5586L98.5352 137.52ZM111.098 141.176C109.402 141.176 108.09 140.703 107.16 139.758C106.23 138.812 105.766 137.469 105.766 135.727V134.355C105.766 132.543 106.211 131.141 107.102 130.148C108 129.156 109.262 128.66 110.887 128.66C112.418 128.66 113.602 129.223 114.438 130.348C115.281 131.473 115.703 133.051 115.703 135.082V135.879H107.5V133.957H113.43C113.359 132.973 113.102 132.203 112.656 131.648C112.219 131.094 111.629 130.816 110.887 130.816C109.988 130.816 109.289 131.113 108.789 131.707C108.289 132.301 108.039 133.141 108.039 134.227V135.773C108.039 136.781 108.305 137.555 108.836 138.094C109.375 138.633 110.129 138.902 111.098 138.902C111.582 138.902 112.062 138.805 112.539 138.609C113.016 138.414 113.441 138.141 113.816 137.789L115.387 139.359C114.785 139.938 114.109 140.387 113.359 140.707C112.609 141.02 111.855 141.176 111.098 141.176ZM147.52 141.176C146.441 141.176 145.461 141.02 144.578 140.707C143.703 140.387 142.918 139.91 142.223 139.277L143.641 137.531C144.305 138.031 144.957 138.406 145.598 138.656C146.246 138.906 146.887 139.031 147.52 139.031C148.465 139.031 149.172 138.887 149.641 138.598C150.117 138.301 150.355 137.859 150.355 137.273C150.355 136.82 150.195 136.5 149.875 136.312C149.562 136.125 149.148 136.004 148.633 135.949C148.125 135.887 147.578 135.836 146.992 135.797C146.5 135.758 146.012 135.699 145.527 135.621C145.043 135.535 144.602 135.387 144.203 135.176C143.805 134.957 143.484 134.637 143.242 134.215C143.008 133.793 142.891 133.227 142.891 132.516C142.891 131.227 143.285 130.262 144.074 129.621C144.863 128.98 146.039 128.66 147.602 128.66C148.555 128.66 149.441 128.789 150.262 129.047C151.082 129.305 151.852 129.699 152.57 130.23L151.129 131.977C150.52 131.586 149.918 131.293 149.324 131.098C148.738 130.902 148.164 130.805 147.602 130.805C146.789 130.805 146.18 130.945 145.773 131.227C145.367 131.5 145.164 131.914 145.164 132.469C145.164 132.836 145.305 133.102 145.586 133.266C145.867 133.422 146.238 133.523 146.699 133.57C147.16 133.617 147.656 133.66 148.188 133.699C148.695 133.73 149.207 133.789 149.723 133.875C150.246 133.953 150.727 134.109 151.164 134.344C151.602 134.578 151.953 134.926 152.219 135.387C152.484 135.848 152.617 136.477 152.617 137.273C152.617 138.578 152.191 139.555 151.34 140.203C150.496 140.852 149.223 141.176 147.52 141.176ZM163 141V128.836H165.379V141H163ZM158.055 128.836V136.23C158.055 137.082 158.27 137.742 158.699 138.211C159.137 138.672 159.75 138.902 160.539 138.902C161.328 138.902 161.934 138.695 162.355 138.281C162.785 137.859 163 137.27 163 136.512L163.164 139.055C162.945 139.602 162.562 140.094 162.016 140.531C161.469 140.961 160.754 141.176 159.871 141.176C158.527 141.176 157.488 140.746 156.754 139.887C156.027 139.02 155.664 137.801 155.664 136.23V128.836H158.055ZM173.934 141.176C172.262 141.176 170.965 140.715 170.043 139.793C169.129 138.871 168.672 137.57 168.672 135.891V133.887C168.672 132.223 169.129 130.938 170.043 130.031C170.965 129.117 172.262 128.66 173.934 128.66C174.887 128.66 175.746 128.828 176.512 129.164C177.277 129.5 177.887 129.98 178.34 130.605L176.617 132.152C176.281 131.762 175.883 131.461 175.422 131.25C174.961 131.039 174.477 130.934 173.969 130.934C173.047 130.934 172.332 131.191 171.824 131.707C171.316 132.223 171.062 132.949 171.062 133.887V135.891C171.062 136.852 171.316 137.594 171.824 138.117C172.332 138.641 173.047 138.902 173.969 138.902C174.477 138.902 174.961 138.789 175.422 138.562C175.883 138.336 176.281 138.016 176.617 137.602L178.34 139.266C177.887 139.875 177.273 140.348 176.5 140.684C175.734 141.012 174.879 141.176 173.934 141.176ZM185.887 141.176C184.215 141.176 182.918 140.715 181.996 139.793C181.082 138.871 180.625 137.57 180.625 135.891V133.887C180.625 132.223 181.082 130.938 181.996 130.031C182.918 129.117 184.215 128.66 185.887 128.66C186.84 128.66 187.699 128.828 188.465 129.164C189.23 129.5 189.84 129.98 190.293 130.605L188.57 132.152C188.234 131.762 187.836 131.461 187.375 131.25C186.914 131.039 186.43 130.934 185.922 130.934C185 130.934 184.285 131.191 183.777 131.707C183.27 132.223 183.016 132.949 183.016 133.887V135.891C183.016 136.852 183.27 137.594 183.777 138.117C184.285 138.641 185 138.902 185.922 138.902C186.43 138.902 186.914 138.789 187.375 138.562C187.836 138.336 188.234 138.016 188.57 137.602L190.293 139.266C189.84 139.875 189.227 140.348 188.453 140.684C187.688 141.012 186.832 141.176 185.887 141.176ZM197.91 141.176C196.215 141.176 194.902 140.703 193.973 139.758C193.043 138.812 192.578 137.469 192.578 135.727V134.355C192.578 132.543 193.023 131.141 193.914 130.148C194.812 129.156 196.074 128.66 197.699 128.66C199.23 128.66 200.414 129.223 201.25 130.348C202.094 131.473 202.516 133.051 202.516 135.082V135.879H194.312V133.957H200.242C200.172 132.973 199.914 132.203 199.469 131.648C199.031 131.094 198.441 130.816 197.699 130.816C196.801 130.816 196.102 131.113 195.602 131.707C195.102 132.301 194.852 133.141 194.852 134.227V135.773C194.852 136.781 195.117 137.555 195.648 138.094C196.188 138.633 196.941 138.902 197.91 138.902C198.395 138.902 198.875 138.805 199.352 138.609C199.828 138.414 200.254 138.141 200.629 137.789L202.199 139.359C201.598 139.938 200.922 140.387 200.172 140.707C199.422 141.02 198.668 141.176 197.91 141.176ZM210.098 141.176C209.02 141.176 208.039 141.02 207.156 140.707C206.281 140.387 205.496 139.91 204.801 139.277L206.219 137.531C206.883 138.031 207.535 138.406 208.176 138.656C208.824 138.906 209.465 139.031 210.098 139.031C211.043 139.031 211.75 138.887 212.219 138.598C212.695 138.301 212.934 137.859 212.934 137.273C212.934 136.82 212.773 136.5 212.453 136.312C212.141 136.125 211.727 136.004 211.211 135.949C210.703 135.887 210.156 135.836 209.57 135.797C209.078 135.758 208.59 135.699 208.105 135.621C207.621 135.535 207.18 135.387 206.781 135.176C206.383 134.957 206.062 134.637 205.82 134.215C205.586 133.793 205.469 133.227 205.469 132.516C205.469 131.227 205.863 130.262 206.652 129.621C207.441 128.98 208.617 128.66 210.18 128.66C211.133 128.66 212.02 128.789 212.84 129.047C213.66 129.305 214.43 129.699 215.148 130.23L213.707 131.977C213.098 131.586 212.496 131.293 211.902 131.098C211.316 130.902 210.742 130.805 210.18 130.805C209.367 130.805 208.758 130.945 208.352 131.227C207.945 131.5 207.742 131.914 207.742 132.469C207.742 132.836 207.883 133.102 208.164 133.266C208.445 133.422 208.816 133.523 209.277 133.57C209.738 133.617 210.234 133.66 210.766 133.699C211.273 133.73 211.785 133.789 212.301 133.875C212.824 133.953 213.305 134.109 213.742 134.344C214.18 134.578 214.531 134.926 214.797 135.387C215.062 135.848 215.195 136.477 215.195 137.273C215.195 138.578 214.77 139.555 213.918 140.203C213.074 140.852 211.801 141.176 210.098 141.176ZM222.543 141.176C221.465 141.176 220.484 141.02 219.602 140.707C218.727 140.387 217.941 139.91 217.246 139.277L218.664 137.531C219.328 138.031 219.98 138.406 220.621 138.656C221.27 138.906 221.91 139.031 222.543 139.031C223.488 139.031 224.195 138.887 224.664 138.598C225.141 138.301 225.379 137.859 225.379 137.273C225.379 136.82 225.219 136.5 224.898 136.312C224.586 136.125 224.172 136.004 223.656 135.949C223.148 135.887 222.602 135.836 222.016 135.797C221.523 135.758 221.035 135.699 220.551 135.621C220.066 135.535 219.625 135.387 219.227 135.176C218.828 134.957 218.508 134.637 218.266 134.215C218.031 133.793 217.914 133.227 217.914 132.516C217.914 131.227 218.309 130.262 219.098 129.621C219.887 128.98 221.062 128.66 222.625 128.66C223.578 128.66 224.465 128.789 225.285 129.047C226.105 129.305 226.875 129.699 227.594 130.23L226.152 131.977C225.543 131.586 224.941 131.293 224.348 131.098C223.762 130.902 223.188 130.805 222.625 130.805C221.812 130.805 221.203 130.945 220.797 131.227C220.391 131.5 220.188 131.914 220.188 132.469C220.188 132.836 220.328 133.102 220.609 133.266C220.891 133.422 221.262 133.523 221.723 133.57C222.184 133.617 222.68 133.66 223.211 133.699C223.719 133.73 224.23 133.789 224.746 133.875C225.27 133.953 225.75 134.109 226.188 134.344C226.625 134.578 226.977 134.926 227.242 135.387C227.508 135.848 227.641 136.477 227.641 137.273C227.641 138.578 227.215 139.555 226.363 140.203C225.52 140.852 224.246 141.176 222.543 141.176ZM231.039 141V127.184C231.039 126.113 231.285 125.309 231.777 124.77C232.27 124.23 233.035 123.961 234.074 123.961H235.832V126.234H234.121C233.879 126.234 233.703 126.328 233.594 126.516C233.484 126.695 233.43 126.91 233.43 127.16V141H231.039ZM229.75 130.875V128.836H235.832V130.875H229.75ZM245.172 141V128.836H247.551V141H245.172ZM240.227 128.836V136.23C240.227 137.082 240.441 137.742 240.871 138.211C241.309 138.672 241.922 138.902 242.711 138.902C243.5 138.902 244.105 138.695 244.527 138.281C244.957 137.859 245.172 137.27 245.172 136.512L245.336 139.055C245.117 139.602 244.734 140.094 244.188 140.531C243.641 140.961 242.926 141.176 242.043 141.176C240.699 141.176 239.66 140.746 238.926 139.887C238.199 139.02 237.836 137.801 237.836 136.23V128.836H240.227ZM253.586 123.961V137.859C253.586 138.148 253.648 138.375 253.773 138.539C253.906 138.703 254.09 138.785 254.324 138.785H255.449V141.059H254.043C253.145 141.059 252.445 140.777 251.945 140.215C251.445 139.652 251.195 138.859 251.195 137.836V123.961H253.586ZM260.547 123.961V137.859C260.547 138.148 260.609 138.375 260.734 138.539C260.867 138.703 261.051 138.785 261.285 138.785H262.41V141.059H261.004C260.105 141.059 259.406 140.777 258.906 140.215C258.406 139.652 258.156 138.859 258.156 137.836V123.961H260.547ZM272.16 128.836H274.598L269.418 143.848C269.129 144.684 268.711 145.262 268.164 145.582C267.617 145.91 266.867 146.074 265.914 146.074H265.434V143.777H265.914C266.359 143.777 266.711 143.688 266.969 143.508C267.234 143.328 267.465 143.02 267.66 142.582L272.16 128.836ZM268.68 141.996L263.828 128.836H266.266L270.004 139.406L268.68 141.996ZM300.953 141V123.961H303.344V141H300.953ZM308.336 141V133.629C308.336 132.77 308.113 132.105 307.668 131.637C307.23 131.168 306.605 130.934 305.793 130.934C305.012 130.934 304.406 131.137 303.977 131.543C303.555 131.949 303.344 132.523 303.344 133.266L303.098 130.922C303.473 130.203 303.961 129.648 304.562 129.258C305.172 128.859 305.844 128.66 306.578 128.66C307.898 128.66 308.918 129.094 309.637 129.961C310.363 130.82 310.727 132.039 310.727 133.617V141H308.336ZM319.34 141.176C317.645 141.176 316.332 140.703 315.402 139.758C314.473 138.812 314.008 137.469 314.008 135.727V134.355C314.008 132.543 314.453 131.141 315.344 130.148C316.242 129.156 317.504 128.66 319.129 128.66C320.66 128.66 321.844 129.223 322.68 130.348C323.523 131.473 323.945 133.051 323.945 135.082V135.879H315.742V133.957H321.672C321.602 132.973 321.344 132.203 320.898 131.648C320.461 131.094 319.871 130.816 319.129 130.816C318.23 130.816 317.531 131.113 317.031 131.707C316.531 132.301 316.281 133.141 316.281 134.227V135.773C316.281 136.781 316.547 137.555 317.078 138.094C317.617 138.633 318.371 138.902 319.34 138.902C319.824 138.902 320.305 138.805 320.781 138.609C321.258 138.414 321.684 138.141 322.059 137.789L323.629 139.359C323.027 139.938 322.352 140.387 321.602 140.707C320.852 141.02 320.098 141.176 319.34 141.176ZM329.617 123.961V137.859C329.617 138.148 329.68 138.375 329.805 138.539C329.938 138.703 330.121 138.785 330.355 138.785H331.48V141.059H330.074C329.176 141.059 328.477 140.777 327.977 140.215C327.477 139.652 327.227 138.859 327.227 137.836V123.961H329.617ZM334.07 145.945V128.836H336.461V145.945H334.07ZM339.52 141.176C338.762 141.176 338.102 140.996 337.539 140.637C336.977 140.27 336.562 139.754 336.297 139.09L336.461 136.547C336.461 137.07 336.555 137.516 336.742 137.883C336.93 138.25 337.199 138.531 337.551 138.727C337.91 138.922 338.344 139.02 338.852 139.02C339.641 139.02 340.25 138.781 340.68 138.305C341.117 137.82 341.336 137.141 341.336 136.266V133.629C341.336 132.738 341.117 132.047 340.68 131.555C340.25 131.062 339.641 130.816 338.852 130.816C338.344 130.816 337.91 130.91 337.551 131.098C337.199 131.285 336.93 131.559 336.742 131.918C336.555 132.277 336.461 132.715 336.461 133.23L336.215 130.887C336.582 130.176 337.062 129.629 337.656 129.246C338.25 128.855 338.91 128.66 339.637 128.66C340.941 128.66 341.949 129.094 342.66 129.961C343.371 130.82 343.727 132.039 343.727 133.617V136.266C343.727 137.82 343.359 139.027 342.625 139.887C341.891 140.746 340.855 141.176 339.52 141.176ZM352.105 141.176C350.41 141.176 349.098 140.703 348.168 139.758C347.238 138.812 346.773 137.469 346.773 135.727V134.355C346.773 132.543 347.219 131.141 348.109 130.148C349.008 129.156 350.27 128.66 351.895 128.66C353.426 128.66 354.609 129.223 355.445 130.348C356.289 131.473 356.711 133.051 356.711 135.082V135.879H348.508V133.957H354.438C354.367 132.973 354.109 132.203 353.664 131.648C353.227 131.094 352.637 130.816 351.895 130.816C350.996 130.816 350.297 131.113 349.797 131.707C349.297 132.301 349.047 133.141 349.047 134.227V135.773C349.047 136.781 349.312 137.555 349.844 138.094C350.383 138.633 351.137 138.902 352.105 138.902C352.59 138.902 353.07 138.805 353.547 138.609C354.023 138.414 354.449 138.141 354.824 137.789L356.395 139.359C355.793 139.938 355.117 140.387 354.367 140.707C353.617 141.02 352.863 141.176 352.105 141.176ZM366.906 141V123.961H369.297V141H366.906ZM363.848 141.211C362.504 141.211 361.465 140.781 360.73 139.922C360.004 139.055 359.641 137.836 359.641 136.266V133.582C359.641 132.004 359.996 130.785 360.707 129.926C361.426 129.059 362.434 128.625 363.73 128.625C364.449 128.625 365.105 128.812 365.699 129.188C366.301 129.562 366.785 130.09 367.152 130.77L366.906 133.254C366.906 132.738 366.812 132.297 366.625 131.93C366.438 131.562 366.164 131.285 365.805 131.098C365.453 130.902 365.023 130.805 364.516 130.805C363.727 130.805 363.113 131.051 362.676 131.543C362.246 132.035 362.031 132.727 362.031 133.617V136.266C362.031 137.148 362.246 137.832 362.676 138.316C363.113 138.793 363.727 139.031 364.516 139.031C365.023 139.031 365.453 138.934 365.805 138.738C366.164 138.535 366.438 138.246 366.625 137.871C366.812 137.496 366.906 137.047 366.906 136.523L367.07 139.09C366.852 139.637 366.473 140.129 365.934 140.566C365.402 140.996 364.707 141.211 363.848 141.211ZM397.516 144.82V121.945H399.789V144.82H397.516ZM398.688 144.82V142.664H401.992V144.82H398.688ZM398.688 124.102V121.945H401.992V124.102H398.688ZM404.219 141V128.836H406.609V141H404.219ZM411.602 141V133.629C411.602 132.77 411.379 132.105 410.934 131.637C410.496 131.168 409.871 130.934 409.059 130.934C408.277 130.934 407.672 131.141 407.242 131.555C406.82 131.969 406.609 132.551 406.609 133.301L406.363 130.957C406.738 130.223 407.227 129.656 407.828 129.258C408.438 128.859 409.109 128.66 409.844 128.66C411.164 128.66 412.184 129.094 412.902 129.961C413.629 130.82 413.992 132.039 413.992 133.617V141H411.602ZM424.492 141V133.289C424.492 132.492 424.277 131.875 423.848 131.438C423.426 130.992 422.824 130.77 422.043 130.77C421.566 130.77 421.094 130.844 420.625 130.992C420.164 131.133 419.75 131.34 419.383 131.613L417.637 130.418C418.098 129.863 418.703 129.434 419.453 129.129C420.211 128.816 421.051 128.66 421.973 128.66C423.496 128.66 424.676 129.055 425.512 129.844C426.348 130.633 426.766 131.746 426.766 133.184V141H424.492ZM421.516 141.176C420.023 141.176 418.902 140.867 418.152 140.25C417.41 139.633 417.039 138.688 417.039 137.414C417.039 136.203 417.379 135.301 418.059 134.707C418.746 134.105 419.773 133.805 421.141 133.805H424.598L424.762 135.727H421.152C420.535 135.727 420.07 135.867 419.758 136.148C419.445 136.422 419.289 136.844 419.289 137.414C419.289 138.031 419.496 138.488 419.91 138.785C420.324 139.082 420.945 139.23 421.773 139.23C422.68 139.23 423.359 139.133 423.812 138.938C424.266 138.742 424.492 138.438 424.492 138.023L424.738 139.734C424.527 140.062 424.266 140.332 423.953 140.543C423.641 140.754 423.281 140.91 422.875 141.012C422.477 141.121 422.023 141.176 421.516 141.176ZM444.93 141V133.629C444.93 132.77 444.707 132.105 444.262 131.637C443.824 131.168 443.199 130.934 442.387 130.934C441.645 130.934 441.07 131.16 440.664 131.613C440.258 132.066 440.055 132.707 440.055 133.535L439.574 131.191C439.965 130.379 440.473 129.754 441.098 129.316C441.723 128.879 442.414 128.66 443.172 128.66C444.492 128.66 445.512 129.094 446.23 129.961C446.957 130.82 447.32 132.039 447.32 133.617V141H444.93ZM430.398 141V128.836H432.789V141H430.398ZM437.664 141V133.629C437.664 132.77 437.453 132.105 437.031 131.637C436.609 131.168 436.012 130.934 435.238 130.934C434.457 130.934 433.852 131.141 433.422 131.555C433 131.969 432.789 132.551 432.789 133.301L432.543 130.957C432.918 130.223 433.406 129.656 434.008 129.258C434.617 128.859 435.289 128.66 436.023 128.66C437.305 128.66 438.297 129.094 439 129.961C439.703 130.82 440.055 132.039 440.055 133.617V141H437.664ZM455.934 141.176C454.238 141.176 452.926 140.703 451.996 139.758C451.066 138.812 450.602 137.469 450.602 135.727V134.355C450.602 132.543 451.047 131.141 451.938 130.148C452.836 129.156 454.098 128.66 455.723 128.66C457.254 128.66 458.438 129.223 459.273 130.348C460.117 131.473 460.539 133.051 460.539 135.082V135.879H452.336V133.957H458.266C458.195 132.973 457.938 132.203 457.492 131.648C457.055 131.094 456.465 130.816 455.723 130.816C454.824 130.816 454.125 131.113 453.625 131.707C453.125 132.301 452.875 133.141 452.875 134.227V135.773C452.875 136.781 453.141 137.555 453.672 138.094C454.211 138.633 454.965 138.902 455.934 138.902C456.418 138.902 456.898 138.805 457.375 138.609C457.852 138.414 458.277 138.141 458.652 137.789L460.223 139.359C459.621 139.938 458.945 140.387 458.195 140.707C457.445 141.02 456.691 141.176 455.934 141.176ZM464.5 144.82V121.945H466.773V144.82H464.5ZM462.297 144.82V142.664H465.602V144.82H462.297ZM462.297 124.102V121.945H465.602V124.102H462.297ZM54.2266 170V156.184C54.2266 155.113 54.4727 154.309 54.9648 153.77C55.457 153.23 56.2227 152.961 57.2617 152.961H59.0195V155.234H57.3086C57.0664 155.234 56.8906 155.328 56.7812 155.516C56.6719 155.695 56.6172 155.91 56.6172 156.16V170H54.2266ZM52.9375 159.875V157.836H59.0195V159.875H52.9375ZM61.8438 155.352V152.961H64.2344V155.352H61.8438ZM61.8438 170V157.836H64.2344V170H61.8438ZM67.8672 170V157.836H70.2578V170H67.8672ZM75.25 170V162.629C75.25 161.77 75.0273 161.105 74.582 160.637C74.1445 160.168 73.5195 159.934 72.707 159.934C71.9258 159.934 71.3203 160.141 70.8906 160.555C70.4688 160.969 70.2578 161.551 70.2578 162.301L70.0117 159.957C70.3867 159.223 70.875 158.656 71.4766 158.258C72.0859 157.859 72.7578 157.66 73.4922 157.66C74.8125 157.66 75.832 158.094 76.5508 158.961C77.2773 159.82 77.6406 161.039 77.6406 162.617V170H75.25ZM81.2734 155.352V152.961H83.6641V155.352H81.2734ZM81.2734 170V157.836H83.6641V170H81.2734ZM91.5977 170.176C90.5195 170.176 89.5391 170.02 88.6562 169.707C87.7812 169.387 86.9961 168.91 86.3008 168.277L87.7188 166.531C88.3828 167.031 89.0352 167.406 89.6758 167.656C90.3242 167.906 90.9648 168.031 91.5977 168.031C92.543 168.031 93.25 167.887 93.7188 167.598C94.1953 167.301 94.4336 166.859 94.4336 166.273C94.4336 165.82 94.2734 165.5 93.9531 165.312C93.6406 165.125 93.2266 165.004 92.7109 164.949C92.2031 164.887 91.6562 164.836 91.0703 164.797C90.5781 164.758 90.0898 164.699 89.6055 164.621C89.1211 164.535 88.6797 164.387 88.2812 164.176C87.8828 163.957 87.5625 163.637 87.3203 163.215C87.0859 162.793 86.9688 162.227 86.9688 161.516C86.9688 160.227 87.3633 159.262 88.1523 158.621C88.9414 157.98 90.1172 157.66 91.6797 157.66C92.6328 157.66 93.5195 157.789 94.3398 158.047C95.1602 158.305 95.9297 158.699 96.6484 159.23L95.207 160.977C94.5977 160.586 93.9961 160.293 93.4023 160.098C92.8164 159.902 92.2422 159.805 91.6797 159.805C90.8672 159.805 90.2578 159.945 89.8516 160.227C89.4453 160.5 89.2422 160.914 89.2422 161.469C89.2422 161.836 89.3828 162.102 89.6641 162.266C89.9453 162.422 90.3164 162.523 90.7773 162.57C91.2383 162.617 91.7344 162.66 92.2656 162.699C92.7734 162.73 93.2852 162.789 93.8008 162.875C94.3242 162.953 94.8047 163.109 95.2422 163.344C95.6797 163.578 96.0312 163.926 96.2969 164.387C96.5625 164.848 96.6953 165.477 96.6953 166.273C96.6953 167.578 96.2695 168.555 95.418 169.203C94.5742 169.852 93.3008 170.176 91.5977 170.176ZM99.7422 170V152.961H102.133V170H99.7422ZM107.125 170V162.629C107.125 161.77 106.902 161.105 106.457 160.637C106.02 160.168 105.395 159.934 104.582 159.934C103.801 159.934 103.195 160.137 102.766 160.543C102.344 160.949 102.133 161.523 102.133 162.266L101.887 159.922C102.262 159.203 102.75 158.648 103.352 158.258C103.961 157.859 104.633 157.66 105.367 157.66C106.688 157.66 107.707 158.094 108.426 158.961C109.152 159.82 109.516 161.039 109.516 162.617V170H107.125ZM127.992 170V152.961H130.383V170H127.992ZM135.375 170V162.629C135.375 161.77 135.152 161.105 134.707 160.637C134.27 160.168 133.645 159.934 132.832 159.934C132.051 159.934 131.445 160.137 131.016 160.543C130.594 160.949 130.383 161.523 130.383 162.266L130.137 159.922C130.512 159.203 131 158.648 131.602 158.258C132.211 157.859 132.883 157.66 133.617 157.66C134.938 157.66 135.957 158.094 136.676 158.961C137.402 159.82 137.766 161.039 137.766 162.617V170H135.375ZM141.398 155.352V152.961H143.789V155.352H141.398ZM141.398 170V157.836H143.789V170H141.398ZM151.723 170.176C150.645 170.176 149.664 170.02 148.781 169.707C147.906 169.387 147.121 168.91 146.426 168.277L147.844 166.531C148.508 167.031 149.16 167.406 149.801 167.656C150.449 167.906 151.09 168.031 151.723 168.031C152.668 168.031 153.375 167.887 153.844 167.598C154.32 167.301 154.559 166.859 154.559 166.273C154.559 165.82 154.398 165.5 154.078 165.312C153.766 165.125 153.352 165.004 152.836 164.949C152.328 164.887 151.781 164.836 151.195 164.797C150.703 164.758 150.215 164.699 149.73 164.621C149.246 164.535 148.805 164.387 148.406 164.176C148.008 163.957 147.688 163.637 147.445 163.215C147.211 162.793 147.094 162.227 147.094 161.516C147.094 160.227 147.488 159.262 148.277 158.621C149.066 157.98 150.242 157.66 151.805 157.66C152.758 157.66 153.645 157.789 154.465 158.047C155.285 158.305 156.055 158.699 156.773 159.23L155.332 160.977C154.723 160.586 154.121 160.293 153.527 160.098C152.941 159.902 152.367 159.805 151.805 159.805C150.992 159.805 150.383 159.945 149.977 160.227C149.57 160.5 149.367 160.914 149.367 161.469C149.367 161.836 149.508 162.102 149.789 162.266C150.07 162.422 150.441 162.523 150.902 162.57C151.363 162.617 151.859 162.66 152.391 162.699C152.898 162.73 153.41 162.789 153.926 162.875C154.449 162.953 154.93 163.109 155.367 163.344C155.805 163.578 156.156 163.926 156.422 164.387C156.688 164.848 156.82 165.477 156.82 166.273C156.82 167.578 156.395 168.555 155.543 169.203C154.699 169.852 153.426 170.176 151.723 170.176ZM174.711 174.945V157.836H177.102V174.945H174.711ZM180.16 170.176C179.402 170.176 178.742 169.996 178.18 169.637C177.617 169.27 177.203 168.754 176.938 168.09L177.102 165.547C177.102 166.07 177.195 166.516 177.383 166.883C177.57 167.25 177.84 167.531 178.191 167.727C178.551 167.922 178.984 168.02 179.492 168.02C180.281 168.02 180.891 167.781 181.32 167.305C181.758 166.82 181.977 166.141 181.977 165.266V162.629C181.977 161.738 181.758 161.047 181.32 160.555C180.891 160.062 180.281 159.816 179.492 159.816C178.984 159.816 178.551 159.91 178.191 160.098C177.84 160.285 177.57 160.559 177.383 160.918C177.195 161.277 177.102 161.715 177.102 162.23L176.855 159.887C177.223 159.176 177.703 158.629 178.297 158.246C178.891 157.855 179.551 157.66 180.277 157.66C181.582 157.66 182.59 158.094 183.301 158.961C184.012 159.82 184.367 161.039 184.367 162.617V165.266C184.367 166.82 184 168.027 183.266 168.887C182.531 169.746 181.496 170.176 180.16 170.176ZM194.633 170V162.289C194.633 161.492 194.418 160.875 193.988 160.438C193.566 159.992 192.965 159.77 192.184 159.77C191.707 159.77 191.234 159.844 190.766 159.992C190.305 160.133 189.891 160.34 189.523 160.613L187.777 159.418C188.238 158.863 188.844 158.434 189.594 158.129C190.352 157.816 191.191 157.66 192.113 157.66C193.637 157.66 194.816 158.055 195.652 158.844C196.488 159.633 196.906 160.746 196.906 162.184V170H194.633ZM191.656 170.176C190.164 170.176 189.043 169.867 188.293 169.25C187.551 168.633 187.18 167.688 187.18 166.414C187.18 165.203 187.52 164.301 188.199 163.707C188.887 163.105 189.914 162.805 191.281 162.805H194.738L194.902 164.727H191.293C190.676 164.727 190.211 164.867 189.898 165.148C189.586 165.422 189.43 165.844 189.43 166.414C189.43 167.031 189.637 167.488 190.051 167.785C190.465 168.082 191.086 168.23 191.914 168.23C192.82 168.23 193.5 168.133 193.953 167.938C194.406 167.742 194.633 167.438 194.633 167.023L194.879 168.734C194.668 169.062 194.406 169.332 194.094 169.543C193.781 169.754 193.422 169.91 193.016 170.012C192.617 170.121 192.164 170.176 191.656 170.176ZM200.539 155.352V152.961H202.93V155.352H200.539ZM200.539 170V157.836H202.93V170H200.539ZM206.562 170V157.836H208.953V170H206.562ZM213.945 170V162.629C213.945 161.77 213.723 161.105 213.277 160.637C212.84 160.168 212.215 159.934 211.402 159.934C210.621 159.934 210.016 160.141 209.586 160.555C209.164 160.969 208.953 161.551 208.953 162.301L208.707 159.957C209.082 159.223 209.57 158.656 210.172 158.258C210.781 157.859 211.453 157.66 212.188 157.66C213.508 157.66 214.527 158.094 215.246 158.961C215.973 159.82 216.336 161.039 216.336 162.617V170H213.945ZM223.133 170.059C222.133 170.059 221.406 169.781 220.953 169.227C220.508 168.672 220.285 167.875 220.285 166.836V154.297H222.676V166.859C222.676 167.148 222.734 167.375 222.852 167.539C222.969 167.703 223.141 167.785 223.367 167.785H224.516V170.059H223.133ZM219.031 159.992V157.836H224.516V159.992H219.031ZM227.797 155.352V152.961H230.188V155.352H227.797ZM227.797 170V157.836H230.188V170H227.797ZM233.82 170V157.836H236.211V170H233.82ZM241.203 170V162.629C241.203 161.77 240.98 161.105 240.535 160.637C240.098 160.168 239.473 159.934 238.66 159.934C237.879 159.934 237.273 160.141 236.844 160.555C236.422 160.969 236.211 161.551 236.211 162.301L235.965 159.957C236.34 159.223 236.828 158.656 237.43 158.258C238.039 157.859 238.711 157.66 239.445 157.66C240.766 157.66 241.785 158.094 242.504 158.961C243.23 159.82 243.594 161.039 243.594 162.617V170H241.203ZM251.305 174.945C250.391 174.945 249.57 174.773 248.844 174.43C248.125 174.094 247.566 173.617 247.168 173L248.785 171.535C249.098 171.965 249.469 172.297 249.898 172.531C250.336 172.766 250.793 172.883 251.27 172.883C252.184 172.883 252.891 172.629 253.391 172.121C253.891 171.621 254.141 170.91 254.141 169.988V157.836H256.531V169.637C256.531 171.324 256.074 172.629 255.16 173.551C254.254 174.48 252.969 174.945 251.305 174.945ZM251.082 170.211C249.738 170.211 248.699 169.781 247.965 168.922C247.238 168.055 246.875 166.836 246.875 165.266V162.582C246.875 161.004 247.23 159.785 247.941 158.926C248.66 158.059 249.668 157.625 250.965 157.625C251.684 157.625 252.34 157.812 252.934 158.188C253.535 158.562 254.02 159.09 254.387 159.77L254.141 162.254C254.141 161.738 254.047 161.297 253.859 160.93C253.672 160.562 253.398 160.285 253.039 160.098C252.688 159.902 252.258 159.805 251.75 159.805C250.961 159.805 250.348 160.051 249.91 160.543C249.48 161.035 249.266 161.727 249.266 162.617V165.266C249.266 166.148 249.48 166.832 249.91 167.316C250.348 167.793 250.961 168.031 251.75 168.031C252.258 168.031 252.688 167.934 253.039 167.738C253.398 167.535 253.672 167.246 253.859 166.871C254.047 166.496 254.141 166.047 254.141 165.523L254.305 168.09C254.086 168.637 253.707 169.129 253.168 169.566C252.637 169.996 251.941 170.211 251.082 170.211ZM259.754 170V167.492H262.262V170H259.754ZM280.68 169.988V152.961H282.848L291.18 166.133L290.898 166.438V152.961H293.266V169.988H291.074L282.766 157.016L283.047 156.711V169.988H280.68ZM301.914 170.176C300.32 170.176 299.086 169.715 298.211 168.793C297.336 167.863 296.898 166.559 296.898 164.879V162.898C296.898 161.234 297.336 159.945 298.211 159.031C299.086 158.117 300.32 157.66 301.914 157.66C303.508 157.66 304.742 158.117 305.617 159.031C306.492 159.945 306.93 161.234 306.93 162.898V164.914C306.93 166.586 306.492 167.883 305.617 168.805C304.742 169.719 303.508 170.176 301.914 170.176ZM301.914 167.902C302.75 167.902 303.395 167.641 303.848 167.117C304.309 166.594 304.539 165.859 304.539 164.914V162.898C304.539 161.953 304.309 161.223 303.848 160.707C303.395 160.191 302.75 159.934 301.914 159.934C301.086 159.934 300.441 160.191 299.98 160.707C299.52 161.223 299.289 161.953 299.289 162.898V164.914C299.289 165.859 299.52 166.594 299.98 167.117C300.441 167.641 301.086 167.902 301.914 167.902ZM312.555 170L308.805 157.836H311.301L313.457 166.52L316.492 157.836H318.156L321.191 166.52L323.348 157.836H325.844L322.094 170H320.289L317.324 161.598L314.359 170H312.555ZM343.266 155.352V152.961H345.656V155.352H343.266ZM343.266 170V157.836H345.656V170H343.266ZM352.453 170.059C351.453 170.059 350.727 169.781 350.273 169.227C349.828 168.672 349.605 167.875 349.605 166.836V154.297H351.996V166.859C351.996 167.148 352.055 167.375 352.172 167.539C352.289 167.703 352.461 167.785 352.688 167.785H353.836V170.059H352.453ZM348.352 159.992V157.836H353.836V159.992H348.352ZM356.121 159.359V152.961H358.629V156.758L356.121 159.359ZM364.863 170.176C363.785 170.176 362.805 170.02 361.922 169.707C361.047 169.387 360.262 168.91 359.566 168.277L360.984 166.531C361.648 167.031 362.301 167.406 362.941 167.656C363.59 167.906 364.23 168.031 364.863 168.031C365.809 168.031 366.516 167.887 366.984 167.598C367.461 167.301 367.699 166.859 367.699 166.273C367.699 165.82 367.539 165.5 367.219 165.312C366.906 165.125 366.492 165.004 365.977 164.949C365.469 164.887 364.922 164.836 364.336 164.797C363.844 164.758 363.355 164.699 362.871 164.621C362.387 164.535 361.945 164.387 361.547 164.176C361.148 163.957 360.828 163.637 360.586 163.215C360.352 162.793 360.234 162.227 360.234 161.516C360.234 160.227 360.629 159.262 361.418 158.621C362.207 157.98 363.383 157.66 364.945 157.66C365.898 157.66 366.785 157.789 367.605 158.047C368.426 158.305 369.195 158.699 369.914 159.23L368.473 160.977C367.863 160.586 367.262 160.293 366.668 160.098C366.082 159.902 365.508 159.805 364.945 159.805C364.133 159.805 363.523 159.945 363.117 160.227C362.711 160.5 362.508 160.914 362.508 161.469C362.508 161.836 362.648 162.102 362.93 162.266C363.211 162.422 363.582 162.523 364.043 162.57C364.504 162.617 365 162.66 365.531 162.699C366.039 162.73 366.551 162.789 367.066 162.875C367.59 162.953 368.07 163.109 368.508 163.344C368.945 163.578 369.297 163.926 369.562 164.387C369.828 164.848 369.961 165.477 369.961 166.273C369.961 167.578 369.535 168.555 368.684 169.203C367.84 169.852 366.566 170.176 364.863 170.176ZM391.016 170.059C390.016 170.059 389.289 169.781 388.836 169.227C388.391 168.672 388.168 167.875 388.168 166.836V154.297H390.559V166.859C390.559 167.148 390.617 167.375 390.734 167.539C390.852 167.703 391.023 167.785 391.25 167.785H392.398V170.059H391.016ZM386.914 159.992V157.836H392.398V159.992H386.914ZM395.68 155.352V152.961H398.07V155.352H395.68ZM395.68 170V157.836H398.07V170H395.68ZM416.234 170V162.629C416.234 161.77 416.012 161.105 415.566 160.637C415.129 160.168 414.504 159.934 413.691 159.934C412.949 159.934 412.375 160.16 411.969 160.613C411.562 161.066 411.359 161.707 411.359 162.535L410.879 160.191C411.27 159.379 411.777 158.754 412.402 158.316C413.027 157.879 413.719 157.66 414.477 157.66C415.797 157.66 416.816 158.094 417.535 158.961C418.262 159.82 418.625 161.039 418.625 162.617V170H416.234ZM401.703 170V157.836H404.094V170H401.703ZM408.969 170V162.629C408.969 161.77 408.758 161.105 408.336 160.637C407.914 160.168 407.316 159.934 406.543 159.934C405.762 159.934 405.156 160.141 404.727 160.555C404.305 160.969 404.094 161.551 404.094 162.301L403.848 159.957C404.223 159.223 404.711 158.656 405.312 158.258C405.922 157.859 406.594 157.66 407.328 157.66C408.609 157.66 409.602 158.094 410.305 158.961C411.008 159.82 411.359 161.039 411.359 162.617V170H408.969ZM427.238 170.176C425.543 170.176 424.23 169.703 423.301 168.758C422.371 167.812 421.906 166.469 421.906 164.727V163.355C421.906 161.543 422.352 160.141 423.242 159.148C424.141 158.156 425.402 157.66 427.027 157.66C428.559 157.66 429.742 158.223 430.578 159.348C431.422 160.473 431.844 162.051 431.844 164.082V164.879H423.641V162.957H429.57C429.5 161.973 429.242 161.203 428.797 160.648C428.359 160.094 427.77 159.816 427.027 159.816C426.129 159.816 425.43 160.113 424.93 160.707C424.43 161.301 424.18 162.141 424.18 163.227V164.773C424.18 165.781 424.445 166.555 424.977 167.094C425.516 167.633 426.27 167.902 427.238 167.902C427.723 167.902 428.203 167.805 428.68 167.609C429.156 167.414 429.582 167.141 429.957 166.789L431.527 168.359C430.926 168.938 430.25 169.387 429.5 169.707C428.75 170.02 427.996 170.176 427.238 170.176ZM453.133 170.059C452.133 170.059 451.406 169.781 450.953 169.227C450.508 168.672 450.285 167.875 450.285 166.836V154.297H452.676V166.859C452.676 167.148 452.734 167.375 452.852 167.539C452.969 167.703 453.141 167.785 453.367 167.785H454.516V170.059H453.133ZM449.031 159.992V157.836H454.516V159.992H449.031ZM462.461 170.176C460.867 170.176 459.633 169.715 458.758 168.793C457.883 167.863 457.445 166.559 457.445 164.879V162.898C457.445 161.234 457.883 159.945 458.758 159.031C459.633 158.117 460.867 157.66 462.461 157.66C464.055 157.66 465.289 158.117 466.164 159.031C467.039 159.945 467.477 161.234 467.477 162.898V164.914C467.477 166.586 467.039 167.883 466.164 168.805C465.289 169.719 464.055 170.176 462.461 170.176ZM462.461 167.902C463.297 167.902 463.941 167.641 464.395 167.117C464.855 166.594 465.086 165.859 465.086 164.914V162.898C465.086 161.953 464.855 161.223 464.395 160.707C463.941 160.191 463.297 159.934 462.461 159.934C461.633 159.934 460.988 160.191 460.527 160.707C460.066 161.223 459.836 161.953 459.836 162.898V164.914C459.836 165.859 460.066 166.594 460.527 167.117C460.988 167.641 461.633 167.902 462.461 167.902ZM58.8555 199.176C57.1602 199.176 55.8477 198.703 54.918 197.758C53.9883 196.812 53.5234 195.469 53.5234 193.727V192.355C53.5234 190.543 53.9688 189.141 54.8594 188.148C55.7578 187.156 57.0195 186.66 58.6445 186.66C60.1758 186.66 61.3594 187.223 62.1953 188.348C63.0391 189.473 63.4609 191.051 63.4609 193.082V193.879H55.2578V191.957H61.1875C61.1172 190.973 60.8594 190.203 60.4141 189.648C59.9766 189.094 59.3867 188.816 58.6445 188.816C57.7461 188.816 57.0469 189.113 56.5469 189.707C56.0469 190.301 55.7969 191.141 55.7969 192.227V193.773C55.7969 194.781 56.0625 195.555 56.5938 196.094C57.1328 196.633 57.8867 196.902 58.8555 196.902C59.3398 196.902 59.8203 196.805 60.2969 196.609C60.7734 196.414 61.1992 196.141 61.5742 195.789L63.1445 197.359C62.543 197.938 61.8672 198.387 61.1172 198.707C60.3672 199.02 59.6133 199.176 58.8555 199.176ZM73.5156 199L69.8828 193.469L65.4062 186.836H68.0664L71.5586 192.285L76.1641 199H73.5156ZM65.2188 199L69.8125 192.285L70.9609 194.488L67.8672 199H65.2188ZM71.6641 193.398L70.6562 191.148L73.3164 186.836H75.9766L71.6641 193.398ZM78.8125 203.945V186.836H81.2031V203.945H78.8125ZM84.2617 199.176C83.5039 199.176 82.8438 198.996 82.2812 198.637C81.7188 198.27 81.3047 197.754 81.0391 197.09L81.2031 194.547C81.2031 195.07 81.2969 195.516 81.4844 195.883C81.6719 196.25 81.9414 196.531 82.293 196.727C82.6523 196.922 83.0859 197.02 83.5938 197.02C84.3828 197.02 84.9922 196.781 85.4219 196.305C85.8594 195.82 86.0781 195.141 86.0781 194.266V191.629C86.0781 190.738 85.8594 190.047 85.4219 189.555C84.9922 189.062 84.3828 188.816 83.5938 188.816C83.0859 188.816 82.6523 188.91 82.293 189.098C81.9414 189.285 81.6719 189.559 81.4844 189.918C81.2969 190.277 81.2031 190.715 81.2031 191.23L80.957 188.887C81.3242 188.176 81.8047 187.629 82.3984 187.246C82.9922 186.855 83.6523 186.66 84.3789 186.66C85.6836 186.66 86.6914 187.094 87.4023 187.961C88.1133 188.82 88.4688 190.039 88.4688 191.617V194.266C88.4688 195.82 88.1016 197.027 87.3672 197.887C86.6328 198.746 85.5977 199.176 84.2617 199.176ZM94.2578 181.961V195.859C94.2578 196.148 94.3203 196.375 94.4453 196.539C94.5781 196.703 94.7617 196.785 94.9961 196.785H96.1211V199.059H94.7148C93.8164 199.059 93.1172 198.777 92.6172 198.215C92.1172 197.652 91.8672 196.859 91.8672 195.836V181.961H94.2578ZM103.492 199.176C101.898 199.176 100.664 198.715 99.7891 197.793C98.9141 196.863 98.4766 195.559 98.4766 193.879V191.898C98.4766 190.234 98.9141 188.945 99.7891 188.031C100.664 187.117 101.898 186.66 103.492 186.66C105.086 186.66 106.32 187.117 107.195 188.031C108.07 188.945 108.508 190.234 108.508 191.898V193.914C108.508 195.586 108.07 196.883 107.195 197.805C106.32 198.719 105.086 199.176 103.492 199.176ZM103.492 196.902C104.328 196.902 104.973 196.641 105.426 196.117C105.887 195.594 106.117 194.859 106.117 193.914V191.898C106.117 190.953 105.887 190.223 105.426 189.707C104.973 189.191 104.328 188.934 103.492 188.934C102.664 188.934 102.02 189.191 101.559 189.707C101.098 190.223 100.867 190.953 100.867 191.898V193.914C100.867 194.859 101.098 195.594 101.559 196.117C102.02 196.641 102.664 196.902 103.492 196.902ZM111.906 199V186.836H114.297V199H111.906ZM118.598 189.719C118.387 189.461 118.121 189.266 117.801 189.133C117.48 189 117.109 188.934 116.688 188.934C115.93 188.934 115.34 189.145 114.918 189.566C114.504 189.98 114.297 190.559 114.297 191.301L114.051 188.957C114.418 188.238 114.898 187.676 115.492 187.27C116.094 186.863 116.754 186.66 117.473 186.66C118.027 186.66 118.527 186.742 118.973 186.906C119.426 187.062 119.82 187.297 120.156 187.609L118.598 189.719ZM126.895 199.176C125.199 199.176 123.887 198.703 122.957 197.758C122.027 196.812 121.562 195.469 121.562 193.727V192.355C121.562 190.543 122.008 189.141 122.898 188.148C123.797 187.156 125.059 186.66 126.684 186.66C128.215 186.66 129.398 187.223 130.234 188.348C131.078 189.473 131.5 191.051 131.5 193.082V193.879H123.297V191.957H129.227C129.156 190.973 128.898 190.203 128.453 189.648C128.016 189.094 127.426 188.816 126.684 188.816C125.785 188.816 125.086 189.113 124.586 189.707C124.086 190.301 123.836 191.141 123.836 192.227V193.773C123.836 194.781 124.102 195.555 124.633 196.094C125.172 196.633 125.926 196.902 126.895 196.902C127.379 196.902 127.859 196.805 128.336 196.609C128.812 196.414 129.238 196.141 129.613 195.789L131.184 197.359C130.582 197.938 129.906 198.387 129.156 198.707C128.406 199.02 127.652 199.176 126.895 199.176ZM144.391 199.059C143.391 199.059 142.664 198.781 142.211 198.227C141.766 197.672 141.543 196.875 141.543 195.836V183.297H143.934V195.859C143.934 196.148 143.992 196.375 144.109 196.539C144.227 196.703 144.398 196.785 144.625 196.785H145.773V199.059H144.391ZM140.289 188.992V186.836H145.773V188.992H140.289ZM149.055 199V181.961H151.445V199H149.055ZM156.438 199V191.629C156.438 190.77 156.215 190.105 155.77 189.637C155.332 189.168 154.707 188.934 153.895 188.934C153.113 188.934 152.508 189.137 152.078 189.543C151.656 189.949 151.445 190.523 151.445 191.266L151.199 188.922C151.574 188.203 152.062 187.648 152.664 187.258C153.273 186.859 153.945 186.66 154.68 186.66C156 186.66 157.02 187.094 157.738 187.961C158.465 188.82 158.828 190.039 158.828 191.617V199H156.438ZM167.441 199.176C165.746 199.176 164.434 198.703 163.504 197.758C162.574 196.812 162.109 195.469 162.109 193.727V192.355C162.109 190.543 162.555 189.141 163.445 188.148C164.344 187.156 165.605 186.66 167.23 186.66C168.762 186.66 169.945 187.223 170.781 188.348C171.625 189.473 172.047 191.051 172.047 193.082V193.879H163.844V191.957H169.773C169.703 190.973 169.445 190.203 169 189.648C168.562 189.094 167.973 188.816 167.23 188.816C166.332 188.816 165.633 189.113 165.133 189.707C164.633 190.301 164.383 191.141 164.383 192.227V193.773C164.383 194.781 164.648 195.555 165.18 196.094C165.719 196.633 166.473 196.902 167.441 196.902C167.926 196.902 168.406 196.805 168.883 196.609C169.359 196.414 169.785 196.141 170.16 195.789L171.73 197.359C171.129 197.938 170.453 198.387 169.703 198.707C168.953 199.02 168.199 199.176 167.441 199.176ZM182.125 199V185.184C182.125 184.113 182.371 183.309 182.863 182.77C183.355 182.23 184.121 181.961 185.16 181.961H186.918V184.234H185.207C184.965 184.234 184.789 184.328 184.68 184.516C184.57 184.695 184.516 184.91 184.516 185.16V199H182.125ZM180.836 188.875V186.836H186.918V188.875H180.836ZM196.258 199V186.836H198.637V199H196.258ZM191.312 186.836V194.23C191.312 195.082 191.527 195.742 191.957 196.211C192.395 196.672 193.008 196.902 193.797 196.902C194.586 196.902 195.191 196.695 195.613 196.281C196.043 195.859 196.258 195.27 196.258 194.512L196.422 197.055C196.203 197.602 195.82 198.094 195.273 198.531C194.727 198.961 194.012 199.176 193.129 199.176C191.785 199.176 190.746 198.746 190.012 197.887C189.285 197.02 188.922 195.801 188.922 194.23V186.836H191.312ZM202.281 199V186.836H204.672V199H202.281ZM209.664 199V191.629C209.664 190.77 209.441 190.105 208.996 189.637C208.559 189.168 207.934 188.934 207.121 188.934C206.34 188.934 205.734 189.141 205.305 189.555C204.883 189.969 204.672 190.551 204.672 191.301L204.426 188.957C204.801 188.223 205.289 187.656 205.891 187.258C206.5 186.859 207.172 186.66 207.906 186.66C209.227 186.66 210.246 187.094 210.965 187.961C211.691 188.82 212.055 190.039 212.055 191.617V199H209.664ZM220.598 199.176C218.926 199.176 217.629 198.715 216.707 197.793C215.793 196.871 215.336 195.57 215.336 193.891V191.887C215.336 190.223 215.793 188.938 216.707 188.031C217.629 187.117 218.926 186.66 220.598 186.66C221.551 186.66 222.41 186.828 223.176 187.164C223.941 187.5 224.551 187.98 225.004 188.605L223.281 190.152C222.945 189.762 222.547 189.461 222.086 189.25C221.625 189.039 221.141 188.934 220.633 188.934C219.711 188.934 218.996 189.191 218.488 189.707C217.98 190.223 217.727 190.949 217.727 191.887V193.891C217.727 194.852 217.98 195.594 218.488 196.117C218.996 196.641 219.711 196.902 220.633 196.902C221.141 196.902 221.625 196.789 222.086 196.562C222.547 196.336 222.945 196.016 223.281 195.602L225.004 197.266C224.551 197.875 223.938 198.348 223.164 198.684C222.398 199.012 221.543 199.176 220.598 199.176ZM230.805 199.059C229.805 199.059 229.078 198.781 228.625 198.227C228.18 197.672 227.957 196.875 227.957 195.836V183.297H230.348V195.859C230.348 196.148 230.406 196.375 230.523 196.539C230.641 196.703 230.812 196.785 231.039 196.785H232.188V199.059H230.805ZM226.703 188.992V186.836H232.188V188.992H226.703ZM235.469 184.352V181.961H237.859V184.352H235.469ZM235.469 199V186.836H237.859V199H235.469ZM246.156 199.176C244.562 199.176 243.328 198.715 242.453 197.793C241.578 196.863 241.141 195.559 241.141 193.879V191.898C241.141 190.234 241.578 188.945 242.453 188.031C243.328 187.117 244.562 186.66 246.156 186.66C247.75 186.66 248.984 187.117 249.859 188.031C250.734 188.945 251.172 190.234 251.172 191.898V193.914C251.172 195.586 250.734 196.883 249.859 197.805C248.984 198.719 247.75 199.176 246.156 199.176ZM246.156 196.902C246.992 196.902 247.637 196.641 248.09 196.117C248.551 195.594 248.781 194.859 248.781 193.914V191.898C248.781 190.953 248.551 190.223 248.09 189.707C247.637 189.191 246.992 188.934 246.156 188.934C245.328 188.934 244.684 189.191 244.223 189.707C243.762 190.223 243.531 190.953 243.531 191.898V193.914C243.531 194.859 243.762 195.594 244.223 196.117C244.684 196.641 245.328 196.902 246.156 196.902ZM254.57 199V186.836H256.961V199H254.57ZM261.953 199V191.629C261.953 190.77 261.73 190.105 261.285 189.637C260.848 189.168 260.223 188.934 259.41 188.934C258.629 188.934 258.023 189.141 257.594 189.555C257.172 189.969 256.961 190.551 256.961 191.301L256.715 188.957C257.09 188.223 257.578 187.656 258.18 187.258C258.789 186.859 259.461 186.66 260.195 186.66C261.516 186.66 262.535 187.094 263.254 187.961C263.98 188.82 264.344 190.039 264.344 191.617V199H261.953ZM279.086 199.176C277.492 199.176 276.258 198.715 275.383 197.793C274.508 196.863 274.07 195.559 274.07 193.879V191.898C274.07 190.234 274.508 188.945 275.383 188.031C276.258 187.117 277.492 186.66 279.086 186.66C280.68 186.66 281.914 187.117 282.789 188.031C283.664 188.945 284.102 190.234 284.102 191.898V193.914C284.102 195.586 283.664 196.883 282.789 197.805C281.914 198.719 280.68 199.176 279.086 199.176ZM279.086 196.902C279.922 196.902 280.566 196.641 281.02 196.117C281.48 195.594 281.711 194.859 281.711 193.914V191.898C281.711 190.953 281.48 190.223 281.02 189.707C280.566 189.191 279.922 188.934 279.086 188.934C278.258 188.934 277.613 189.191 277.152 189.707C276.691 190.223 276.461 190.953 276.461 191.898V193.914C276.461 194.859 276.691 195.594 277.152 196.117C277.613 196.641 278.258 196.902 279.086 196.902ZM287.852 199V185.184C287.852 184.113 288.098 183.309 288.59 182.77C289.082 182.23 289.848 181.961 290.887 181.961H292.645V184.234H290.934C290.691 184.234 290.516 184.328 290.406 184.516C290.297 184.695 290.242 184.91 290.242 185.16V199H287.852ZM286.562 188.875V186.836H292.645V188.875H286.562ZM306.473 199.176C304.801 199.176 303.504 198.715 302.582 197.793C301.668 196.871 301.211 195.57 301.211 193.891V191.887C301.211 190.223 301.668 188.938 302.582 188.031C303.504 187.117 304.801 186.66 306.473 186.66C307.426 186.66 308.285 186.828 309.051 187.164C309.816 187.5 310.426 187.98 310.879 188.605L309.156 190.152C308.82 189.762 308.422 189.461 307.961 189.25C307.5 189.039 307.016 188.934 306.508 188.934C305.586 188.934 304.871 189.191 304.363 189.707C303.855 190.223 303.602 190.949 303.602 191.887V193.891C303.602 194.852 303.855 195.594 304.363 196.117C304.871 196.641 305.586 196.902 306.508 196.902C307.016 196.902 307.5 196.789 307.961 196.562C308.422 196.336 308.82 196.016 309.156 195.602L310.879 197.266C310.426 197.875 309.812 198.348 309.039 198.684C308.273 199.012 307.418 199.176 306.473 199.176ZM318.496 199.176C316.801 199.176 315.488 198.703 314.559 197.758C313.629 196.812 313.164 195.469 313.164 193.727V192.355C313.164 190.543 313.609 189.141 314.5 188.148C315.398 187.156 316.66 186.66 318.285 186.66C319.816 186.66 321 187.223 321.836 188.348C322.68 189.473 323.102 191.051 323.102 193.082V193.879H314.898V191.957H320.828C320.758 190.973 320.5 190.203 320.055 189.648C319.617 189.094 319.027 188.816 318.285 188.816C317.387 188.816 316.688 189.113 316.188 189.707C315.688 190.301 315.438 191.141 315.438 192.227V193.773C315.438 194.781 315.703 195.555 316.234 196.094C316.773 196.633 317.527 196.902 318.496 196.902C318.98 196.902 319.461 196.805 319.938 196.609C320.414 196.414 320.84 196.141 321.215 195.789L322.785 197.359C322.184 197.938 321.508 198.387 320.758 198.707C320.008 199.02 319.254 199.176 318.496 199.176ZM326.383 199V186.836H328.773V199H326.383ZM333.074 189.719C332.863 189.461 332.598 189.266 332.277 189.133C331.957 189 331.586 188.934 331.164 188.934C330.406 188.934 329.816 189.145 329.395 189.566C328.98 189.98 328.773 190.559 328.773 191.301L328.527 188.957C328.895 188.238 329.375 187.676 329.969 187.27C330.57 186.863 331.23 186.66 331.949 186.66C332.504 186.66 333.004 186.742 333.449 186.906C333.902 187.062 334.297 187.297 334.633 187.609L333.074 189.719ZM341.371 199.176C339.676 199.176 338.363 198.703 337.434 197.758C336.504 196.812 336.039 195.469 336.039 193.727V192.355C336.039 190.543 336.484 189.141 337.375 188.148C338.273 187.156 339.535 186.66 341.16 186.66C342.691 186.66 343.875 187.223 344.711 188.348C345.555 189.473 345.977 191.051 345.977 193.082V193.879H337.773V191.957H343.703C343.633 190.973 343.375 190.203 342.93 189.648C342.492 189.094 341.902 188.816 341.16 188.816C340.262 188.816 339.562 189.113 339.062 189.707C338.562 190.301 338.312 191.141 338.312 192.227V193.773C338.312 194.781 338.578 195.555 339.109 196.094C339.648 196.633 340.402 196.902 341.371 196.902C341.855 196.902 342.336 196.805 342.812 196.609C343.289 196.414 343.715 196.141 344.09 195.789L345.66 197.359C345.059 197.938 344.383 198.387 343.633 198.707C342.883 199.02 342.129 199.176 341.371 199.176ZM354.707 199.176C353.949 199.176 353.289 198.996 352.727 198.637C352.164 198.27 351.75 197.754 351.484 197.09L351.648 194.547C351.648 195.07 351.742 195.516 351.93 195.883C352.117 196.25 352.387 196.531 352.738 196.727C353.098 196.922 353.531 197.02 354.039 197.02C354.828 197.02 355.438 196.781 355.867 196.305C356.305 195.82 356.523 195.141 356.523 194.266V191.629C356.523 190.738 356.305 190.047 355.867 189.555C355.438 189.062 354.828 188.816 354.039 188.816C353.531 188.816 353.098 188.91 352.738 189.098C352.387 189.285 352.117 189.559 351.93 189.918C351.742 190.277 351.648 190.715 351.648 191.23L351.402 188.887C351.77 188.176 352.25 187.629 352.844 187.246C353.438 186.855 354.098 186.66 354.824 186.66C356.129 186.66 357.137 187.094 357.848 187.961C358.559 188.82 358.914 190.039 358.914 191.617V194.266C358.914 195.82 358.547 197.027 357.812 197.887C357.078 198.746 356.043 199.176 354.707 199.176ZM349.258 199V181.961H351.648V199H349.258ZM367.293 199.176C365.598 199.176 364.285 198.703 363.355 197.758C362.426 196.812 361.961 195.469 361.961 193.727V192.355C361.961 190.543 362.406 189.141 363.297 188.148C364.195 187.156 365.457 186.66 367.082 186.66C368.613 186.66 369.797 187.223 370.633 188.348C371.477 189.473 371.898 191.051 371.898 193.082V193.879H363.695V191.957H369.625C369.555 190.973 369.297 190.203 368.852 189.648C368.414 189.094 367.824 188.816 367.082 188.816C366.184 188.816 365.484 189.113 364.984 189.707C364.484 190.301 364.234 191.141 364.234 192.227V193.773C364.234 194.781 364.5 195.555 365.031 196.094C365.57 196.633 366.324 196.902 367.293 196.902C367.777 196.902 368.258 196.805 368.734 196.609C369.211 196.414 369.637 196.141 370.012 195.789L371.582 197.359C370.98 197.938 370.305 198.387 369.555 198.707C368.805 199.02 368.051 199.176 367.293 199.176ZM377.57 181.961V195.859C377.57 196.148 377.633 196.375 377.758 196.539C377.891 196.703 378.074 196.785 378.309 196.785H379.434V199.059H378.027C377.129 199.059 376.43 198.777 375.93 198.215C375.43 197.652 375.18 196.859 375.18 195.836V181.961H377.57ZM384.531 181.961V195.859C384.531 196.148 384.594 196.375 384.719 196.539C384.852 196.703 385.035 196.785 385.27 196.785H386.395V199.059H384.988C384.09 199.059 383.391 198.777 382.891 198.215C382.391 197.652 382.141 196.859 382.141 195.836V181.961H384.531ZM396.32 199V186.836H398.699V199H396.32ZM391.375 186.836V194.23C391.375 195.082 391.59 195.742 392.02 196.211C392.457 196.672 393.07 196.902 393.859 196.902C394.648 196.902 395.254 196.695 395.676 196.281C396.105 195.859 396.32 195.27 396.32 194.512L396.484 197.055C396.266 197.602 395.883 198.094 395.336 198.531C394.789 198.961 394.074 199.176 393.191 199.176C391.848 199.176 390.809 198.746 390.074 197.887C389.348 197.02 388.984 195.801 388.984 194.23V186.836H391.375ZM416.875 199V191.629C416.875 190.77 416.652 190.105 416.207 189.637C415.77 189.168 415.145 188.934 414.332 188.934C413.59 188.934 413.016 189.16 412.609 189.613C412.203 190.066 412 190.707 412 191.535L411.52 189.191C411.91 188.379 412.418 187.754 413.043 187.316C413.668 186.879 414.359 186.66 415.117 186.66C416.438 186.66 417.457 187.094 418.176 187.961C418.902 188.82 419.266 190.039 419.266 191.617V199H416.875ZM402.344 199V186.836H404.734V199H402.344ZM409.609 199V191.629C409.609 190.77 409.398 190.105 408.977 189.637C408.555 189.168 407.957 188.934 407.184 188.934C406.402 188.934 405.797 189.141 405.367 189.555C404.945 189.969 404.734 190.551 404.734 191.301L404.488 188.957C404.863 188.223 405.352 187.656 405.953 187.258C406.562 186.859 407.234 186.66 407.969 186.66C409.25 186.66 410.242 187.094 410.945 187.961C411.648 188.82 412 190.039 412 191.617V199H409.609ZM422.488 199V196.492H424.996V199H422.488Z" fill="white"/>
<path d="M143.869 76.2637C142.088 76.2637 140.529 75.8711 139.193 75.0859C137.857 74.2891 136.82 73.1758 136.082 71.7461C135.344 70.3164 134.975 68.6465 134.975 66.7363V59.7227C134.975 57.8008 135.344 56.125 136.082 54.6953C136.82 53.2656 137.857 52.1582 139.193 51.373C140.529 50.5762 142.088 50.1777 143.869 50.1777C145.346 50.1777 146.693 50.4941 147.912 51.127C149.143 51.7598 150.168 52.6445 150.988 53.7812C151.82 54.918 152.383 56.248 152.676 57.7715H149.002C148.779 56.9512 148.404 56.2363 147.877 55.627C147.361 55.0059 146.752 54.5254 146.049 54.1855C145.346 53.8457 144.619 53.6758 143.869 53.6758C142.299 53.6758 141.033 54.2324 140.072 55.3457C139.123 56.4473 138.648 57.9062 138.648 59.7227V66.7363C138.648 68.5527 139.123 70.0117 140.072 71.1133C141.033 72.2148 142.299 72.7656 143.869 72.7656C144.982 72.7656 146.031 72.4141 147.016 71.7109C148 71.0078 148.662 69.9941 149.002 68.6699H152.676C152.383 70.1934 151.82 71.5234 150.988 72.6602C150.156 73.7969 149.131 74.6816 147.912 75.3145C146.693 75.9473 145.346 76.2637 143.869 76.2637ZM164.436 76.2637C162.045 76.2637 160.193 75.5723 158.881 74.1895C157.568 72.7949 156.912 70.8379 156.912 68.3184V65.3477C156.912 62.8516 157.568 60.918 158.881 59.5469C160.193 58.1758 162.045 57.4902 164.436 57.4902C166.826 57.4902 168.678 58.1758 169.99 59.5469C171.303 60.918 171.959 62.8516 171.959 65.3477V68.3711C171.959 70.8789 171.303 72.8242 169.99 74.207C168.678 75.5781 166.826 76.2637 164.436 76.2637ZM164.436 72.8535C165.689 72.8535 166.656 72.4609 167.336 71.6758C168.027 70.8906 168.373 69.7891 168.373 68.3711V65.3477C168.373 63.9297 168.027 62.834 167.336 62.0605C166.656 61.2871 165.689 60.9004 164.436 60.9004C163.193 60.9004 162.227 61.2871 161.535 62.0605C160.844 62.834 160.498 63.9297 160.498 65.3477V68.3711C160.498 69.7891 160.844 70.8906 161.535 71.6758C162.227 72.4609 163.193 72.8535 164.436 72.8535ZM177.057 76V57.7539H180.643V76H177.057ZM188.131 76V64.9434C188.131 63.6543 187.797 62.6582 187.129 61.9551C186.473 61.252 185.535 60.9004 184.316 60.9004C183.145 60.9004 182.236 61.2109 181.592 61.832C180.959 62.4531 180.643 63.3262 180.643 64.4512L180.273 60.9355C180.836 59.834 181.568 58.9844 182.471 58.3867C183.385 57.7891 184.393 57.4902 185.494 57.4902C187.475 57.4902 189.004 58.1406 190.082 59.4414C191.172 60.7305 191.717 62.5586 191.717 64.9258V76H188.131ZM203.283 83.418C201.912 83.418 200.682 83.1602 199.592 82.6445C198.514 82.1406 197.676 81.4258 197.078 80.5L199.504 78.3027C199.973 78.9473 200.529 79.4453 201.174 79.7969C201.83 80.1484 202.516 80.3242 203.23 80.3242C204.602 80.3242 205.662 79.9434 206.412 79.1816C207.162 78.4316 207.537 77.3652 207.537 75.9824V57.7539H211.123V75.4551C211.123 77.9863 210.438 79.9434 209.066 81.3262C207.707 82.7207 205.779 83.418 203.283 83.418ZM202.949 76.3164C200.934 76.3164 199.375 75.6719 198.273 74.3828C197.184 73.082 196.639 71.2539 196.639 68.8984V64.873C196.639 62.5059 197.172 60.6777 198.238 59.3887C199.316 58.0879 200.828 57.4375 202.773 57.4375C203.852 57.4375 204.836 57.7188 205.727 58.2812C206.629 58.8438 207.355 59.6348 207.906 60.6543L207.537 64.3809C207.537 63.6074 207.396 62.9453 207.115 62.3945C206.834 61.8438 206.424 61.4277 205.885 61.1465C205.357 60.8535 204.713 60.707 203.951 60.707C202.768 60.707 201.848 61.0762 201.191 61.8145C200.547 62.5527 200.225 63.5898 200.225 64.9258V68.8984C200.225 70.2227 200.547 71.248 201.191 71.9746C201.848 72.6895 202.768 73.0469 203.951 73.0469C204.713 73.0469 205.357 72.9004 205.885 72.6074C206.424 72.3027 206.834 71.8691 207.115 71.3066C207.396 70.7441 207.537 70.0703 207.537 69.2852L207.783 73.1348C207.455 73.9551 206.887 74.6934 206.078 75.3496C205.281 75.9941 204.238 76.3164 202.949 76.3164ZM216.572 76V57.7539H220.158V76H216.572ZM226.609 62.0781C226.293 61.6914 225.895 61.3984 225.414 61.1992C224.934 61 224.377 60.9004 223.744 60.9004C222.607 60.9004 221.723 61.2168 221.09 61.8496C220.469 62.4707 220.158 63.3379 220.158 64.4512L219.789 60.9355C220.34 59.8574 221.061 59.0137 221.951 58.4043C222.854 57.7949 223.844 57.4902 224.922 57.4902C225.754 57.4902 226.504 57.6133 227.172 57.8594C227.852 58.0938 228.443 58.4453 228.947 58.9141L226.609 62.0781ZM242.236 76V64.4336C242.236 63.2383 241.914 62.3125 241.27 61.6562C240.637 60.9883 239.734 60.6543 238.562 60.6543C237.848 60.6543 237.139 60.7656 236.436 60.9883C235.744 61.1992 235.123 61.5098 234.572 61.9199L231.953 60.127C232.645 59.2949 233.553 58.6504 234.678 58.1934C235.814 57.7246 237.074 57.4902 238.457 57.4902C240.742 57.4902 242.512 58.082 243.766 59.2656C245.02 60.4492 245.646 62.1191 245.646 64.2754V76H242.236ZM237.771 76.2637C235.533 76.2637 233.852 75.8008 232.727 74.875C231.613 73.9492 231.057 72.5312 231.057 70.6211C231.057 68.8047 231.566 67.4512 232.586 66.5605C233.617 65.6582 235.158 65.207 237.209 65.207H242.395L242.641 68.0898H237.227C236.301 68.0898 235.604 68.3008 235.135 68.7227C234.666 69.1328 234.432 69.7656 234.432 70.6211C234.432 71.5469 234.742 72.2324 235.363 72.6777C235.984 73.123 236.916 73.3457 238.158 73.3457C239.518 73.3457 240.537 73.1992 241.217 72.9062C241.896 72.6133 242.236 72.1562 242.236 71.5352L242.605 74.1016C242.289 74.5938 241.896 74.998 241.428 75.3145C240.959 75.6309 240.42 75.8652 239.811 76.0176C239.213 76.1816 238.533 76.2637 237.771 76.2637ZM255.842 76.0879C254.342 76.0879 253.252 75.6719 252.572 74.8398C251.904 74.0078 251.57 72.8125 251.57 71.2539V52.4453H255.156V71.2891C255.156 71.7227 255.244 72.0625 255.42 72.3086C255.596 72.5547 255.854 72.6777 256.193 72.6777H257.916V76.0879H255.842ZM249.689 60.9883V57.7539H257.916V60.9883H249.689ZM273.842 76V57.7539H277.41V76H273.842ZM266.424 57.7539V68.8457C266.424 70.123 266.746 71.1133 267.391 71.8164C268.047 72.5078 268.967 72.8535 270.15 72.8535C271.334 72.8535 272.242 72.543 272.875 71.9219C273.52 71.2891 273.842 70.4043 273.842 69.2676L274.088 73.082C273.76 73.9023 273.186 74.6406 272.365 75.2969C271.545 75.9414 270.473 76.2637 269.148 76.2637C267.133 76.2637 265.574 75.6191 264.473 74.3301C263.383 73.0293 262.838 71.2012 262.838 68.8457V57.7539H266.424ZM286.463 50.4414V71.2891C286.463 71.7227 286.557 72.0625 286.744 72.3086C286.943 72.5547 287.219 72.6777 287.57 72.6777H289.258V76.0879H287.148C285.801 76.0879 284.752 75.666 284.002 74.8223C283.252 73.9785 282.877 72.7891 282.877 71.2539V50.4414H286.463ZM303.443 76V64.4336C303.443 63.2383 303.121 62.3125 302.477 61.6562C301.844 60.9883 300.941 60.6543 299.77 60.6543C299.055 60.6543 298.346 60.7656 297.643 60.9883C296.951 61.1992 296.33 61.5098 295.779 61.9199L293.16 60.127C293.852 59.2949 294.76 58.6504 295.885 58.1934C297.021 57.7246 298.281 57.4902 299.664 57.4902C301.949 57.4902 303.719 58.082 304.973 59.2656C306.227 60.4492 306.854 62.1191 306.854 64.2754V76H303.443ZM298.979 76.2637C296.74 76.2637 295.059 75.8008 293.934 74.875C292.82 73.9492 292.264 72.5312 292.264 70.6211C292.264 68.8047 292.773 67.4512 293.793 66.5605C294.824 65.6582 296.365 65.207 298.416 65.207H303.602L303.848 68.0898H298.434C297.508 68.0898 296.811 68.3008 296.342 68.7227C295.873 69.1328 295.639 69.7656 295.639 70.6211C295.639 71.5469 295.949 72.2324 296.57 72.6777C297.191 73.123 298.123 73.3457 299.365 73.3457C300.725 73.3457 301.744 73.1992 302.424 72.9062C303.104 72.6133 303.443 72.1562 303.443 71.5352L303.812 74.1016C303.496 74.5938 303.104 74.998 302.635 75.3145C302.166 75.6309 301.627 75.8652 301.018 76.0176C300.42 76.1816 299.74 76.2637 298.979 76.2637ZM317.049 76.0879C315.549 76.0879 314.459 75.6719 313.779 74.8398C313.111 74.0078 312.777 72.8125 312.777 71.2539V52.4453H316.363V71.2891C316.363 71.7227 316.451 72.0625 316.627 72.3086C316.803 72.5547 317.061 72.6777 317.4 72.6777H319.123V76.0879H317.049ZM310.896 60.9883V57.7539H319.123V60.9883H310.896ZM324.045 54.0273V50.4414H327.631V54.0273H324.045ZM324.045 76V57.7539H327.631V76H324.045ZM340.076 76.2637C337.686 76.2637 335.834 75.5723 334.521 74.1895C333.209 72.7949 332.553 70.8379 332.553 68.3184V65.3477C332.553 62.8516 333.209 60.918 334.521 59.5469C335.834 58.1758 337.686 57.4902 340.076 57.4902C342.467 57.4902 344.318 58.1758 345.631 59.5469C346.943 60.918 347.6 62.8516 347.6 65.3477V68.3711C347.6 70.8789 346.943 72.8242 345.631 74.207C344.318 75.5781 342.467 76.2637 340.076 76.2637ZM340.076 72.8535C341.33 72.8535 342.297 72.4609 342.977 71.6758C343.668 70.8906 344.014 69.7891 344.014 68.3711V65.3477C344.014 63.9297 343.668 62.834 342.977 62.0605C342.297 61.2871 341.33 60.9004 340.076 60.9004C338.834 60.9004 337.867 61.2871 337.176 62.0605C336.484 62.834 336.139 63.9297 336.139 65.3477V68.3711C336.139 69.7891 336.484 70.8906 337.176 71.6758C337.867 72.4609 338.834 72.8535 340.076 72.8535ZM352.697 76V57.7539H356.283V76H352.697ZM363.771 76V64.9434C363.771 63.6543 363.438 62.6582 362.77 61.9551C362.113 61.252 361.176 60.9004 359.957 60.9004C358.785 60.9004 357.877 61.2109 357.232 61.832C356.6 62.4531 356.283 63.3262 356.283 64.4512L355.914 60.9355C356.477 59.834 357.209 58.9844 358.111 58.3867C359.025 57.7891 360.033 57.4902 361.135 57.4902C363.115 57.4902 364.645 58.1406 365.723 59.4414C366.812 60.7305 367.357 62.5586 367.357 64.9258V76H363.771ZM379.258 76.2637C377.641 76.2637 376.17 76.0293 374.846 75.5605C373.533 75.0801 372.355 74.3652 371.312 73.416L373.439 70.7969C374.436 71.5469 375.414 72.1094 376.375 72.4844C377.348 72.8594 378.309 73.0469 379.258 73.0469C380.676 73.0469 381.736 72.8301 382.439 72.3965C383.154 71.9512 383.512 71.2891 383.512 70.4102C383.512 69.7305 383.271 69.25 382.791 68.9688C382.322 68.6875 381.701 68.5059 380.928 68.4238C380.166 68.3301 379.346 68.2539 378.467 68.1953C377.729 68.1367 376.996 68.0488 376.27 67.9316C375.543 67.8027 374.881 67.5801 374.283 67.2637C373.686 66.9355 373.205 66.4551 372.842 65.8223C372.49 65.1895 372.314 64.3398 372.314 63.2734C372.314 61.3398 372.906 59.8926 374.09 58.9316C375.273 57.9707 377.037 57.4902 379.381 57.4902C380.811 57.4902 382.141 57.6836 383.371 58.0703C384.602 58.457 385.756 59.0488 386.834 59.8457L384.672 62.4648C383.758 61.8789 382.855 61.4395 381.965 61.1465C381.086 60.8535 380.225 60.707 379.381 60.707C378.162 60.707 377.248 60.918 376.639 61.3398C376.029 61.75 375.725 62.3711 375.725 63.2031C375.725 63.7539 375.936 64.1523 376.357 64.3984C376.779 64.6328 377.336 64.7852 378.027 64.8555C378.719 64.9258 379.463 64.9902 380.26 65.0488C381.021 65.0957 381.789 65.1836 382.562 65.3125C383.348 65.4297 384.068 65.6641 384.725 66.0156C385.381 66.3672 385.908 66.8887 386.307 67.5801C386.705 68.2715 386.904 69.2148 386.904 70.4102C386.904 72.3672 386.266 73.832 384.988 74.8047C383.723 75.7773 381.812 76.2637 379.258 76.2637Z" fill="white"/>
<rect x="161" y="285" width="200" height="54" rx="27" fill="#FFE500"/>
<path d="M195.5 323V300.281H199.781V323H195.5ZM197.406 323V318.875H210.719V323H197.406ZM213.844 323V300.281H218.125V323H213.844ZM215.391 323V318.875H229.062V323H215.391ZM215.391 313.781V309.656H227.344V313.781H215.391ZM215.391 304.406V300.281H229.062V304.406H215.391ZM236.656 323V302.141H240.938V323H236.656ZM230.469 304.406V300.281H247.125V304.406H230.469ZM247.203 309.969V300.281H251.484V305.875L247.203 309.969ZM260.891 323.234C259.807 323.234 258.745 323.125 257.703 322.906C256.672 322.688 255.703 322.37 254.797 321.953C253.891 321.526 253.073 321.016 252.344 320.422L254.328 316.891C255.203 317.609 256.214 318.167 257.359 318.562C258.505 318.948 259.682 319.141 260.891 319.141C262.286 319.141 263.37 318.906 264.141 318.438C264.911 317.958 265.297 317.286 265.297 316.422V316.406C265.297 315.75 265.104 315.25 264.719 314.906C264.333 314.552 263.823 314.292 263.188 314.125C262.562 313.958 261.88 313.818 261.141 313.703C260.255 313.568 259.359 313.401 258.453 313.203C257.547 312.995 256.714 312.672 255.953 312.234C255.193 311.786 254.578 311.151 254.109 310.328C253.651 309.505 253.422 308.406 253.422 307.031V307.016C253.422 304.797 254.151 303.083 255.609 301.875C257.068 300.656 259.13 300.047 261.797 300.047C263.026 300.047 264.276 300.255 265.547 300.672C266.818 301.078 268 301.661 269.094 302.422L267.281 306.047C266.406 305.432 265.49 304.964 264.531 304.641C263.583 304.307 262.672 304.141 261.797 304.141C260.484 304.141 259.469 304.359 258.75 304.797C258.031 305.224 257.672 305.828 257.672 306.609V306.625C257.672 307.354 257.885 307.906 258.312 308.281C258.74 308.656 259.297 308.938 259.984 309.125C260.672 309.302 261.411 309.469 262.203 309.625C263.078 309.792 263.948 310 264.812 310.25C265.677 310.49 266.469 310.839 267.188 311.297C267.906 311.755 268.479 312.385 268.906 313.188C269.333 313.99 269.547 315.031 269.547 316.312V316.344C269.547 318.531 268.792 320.229 267.281 321.438C265.771 322.635 263.641 323.234 260.891 323.234ZM290.344 310.297H298.219V314.734C298.219 316.443 297.875 317.938 297.188 319.219C296.5 320.49 295.536 321.479 294.297 322.188C293.068 322.885 291.62 323.234 289.953 323.234C288.276 323.234 286.807 322.906 285.547 322.25C284.297 321.583 283.323 320.651 282.625 319.453C281.938 318.245 281.594 316.839 281.594 315.234V308.531C281.594 306.823 281.938 305.333 282.625 304.062C283.312 302.792 284.271 301.807 285.5 301.109C286.74 300.401 288.193 300.047 289.859 300.047C291.234 300.047 292.484 300.328 293.609 300.891C294.745 301.453 295.698 302.24 296.469 303.25C297.24 304.26 297.76 305.443 298.031 306.797H293.406C293.177 306.057 292.719 305.49 292.031 305.094C291.354 304.688 290.63 304.484 289.859 304.484C288.703 304.484 287.776 304.854 287.078 305.594C286.38 306.333 286.031 307.312 286.031 308.531V315.234C286.031 316.307 286.391 317.172 287.109 317.828C287.828 318.474 288.776 318.797 289.953 318.797C291.109 318.797 292.036 318.448 292.734 317.75C293.432 317.042 293.781 316.057 293.781 314.797V314.422H290.344V310.297ZM309.953 323.234C308.286 323.234 306.828 322.891 305.578 322.203C304.339 321.505 303.375 320.526 302.688 319.266C302 318.005 301.656 316.536 301.656 314.859V308.422C301.656 306.734 302 305.266 302.688 304.016C303.375 302.755 304.339 301.781 305.578 301.094C306.828 300.396 308.286 300.047 309.953 300.047C311.62 300.047 313.073 300.396 314.312 301.094C315.562 301.781 316.531 302.755 317.219 304.016C317.906 305.266 318.25 306.734 318.25 308.422V314.859C318.25 316.536 317.906 318.005 317.219 319.266C316.531 320.526 315.562 321.505 314.312 322.203C313.073 322.891 311.62 323.234 309.953 323.234ZM309.953 318.953C311.12 318.953 312.052 318.589 312.75 317.859C313.458 317.13 313.812 316.167 313.812 314.969V308.312C313.812 307.104 313.458 306.141 312.75 305.422C312.052 304.693 311.12 304.328 309.953 304.328C308.786 304.328 307.849 304.693 307.141 305.422C306.443 306.141 306.094 307.104 306.094 308.312V314.969C306.094 316.167 306.443 317.13 307.141 317.859C307.849 318.589 308.786 318.953 309.953 318.953ZM322.469 316.234V300.281H326.75V316.234H322.469ZM322.469 323V318.719H326.75V323H322.469Z" fill="#9E6DD0"/>
<defs>
<linearGradient id="paint0_linear_42_344" x1="3.8892e-06" y1="200" x2="522" y2="200" gradientUnits="userSpaceOnUse">
<stop stop-color="#6376DD"/>
<stop offset="1" stop-color="#DD63C2"/>
</linearGradient>
</defs>
</svg>
