<svg width="522" height="400" viewBox="0 0 522 400" fill="none" xmlns="http://www.w3.org/2000/svg">
<rect width="522" height="400" rx="50" fill="url(#paint0_linear_42_599)"/>
<path d="M64.4219 123.961L59.2305 134.074V141H56.8398V134.074L51.6484 123.961H54.3086L58.0352 131.648L61.7617 123.961H64.4219ZM69.5547 141.176C67.9609 141.176 66.7266 140.715 65.8516 139.793C64.9766 138.863 64.5391 137.559 64.5391 135.879V133.898C64.5391 132.234 64.9766 130.945 65.8516 130.031C66.7266 129.117 67.9609 128.66 69.5547 128.66C71.1484 128.66 72.3828 129.117 73.2578 130.031C74.1328 130.945 74.5703 132.234 74.5703 133.898V135.914C74.5703 137.586 74.1328 138.883 73.2578 139.805C72.3828 140.719 71.1484 141.176 69.5547 141.176ZM69.5547 138.902C70.3906 138.902 71.0352 138.641 71.4883 138.117C71.9492 137.594 72.1797 136.859 72.1797 135.914V133.898C72.1797 132.953 71.9492 132.223 71.4883 131.707C71.0352 131.191 70.3906 130.934 69.5547 130.934C68.7266 130.934 68.082 131.191 67.6211 131.707C67.1602 132.223 66.9297 132.953 66.9297 133.898V135.914C66.9297 136.859 67.1602 137.594 67.6211 138.117C68.082 138.641 68.7266 138.902 69.5547 138.902ZM85 141V128.836H87.3789V141H85ZM80.0547 128.836V136.23C80.0547 137.082 80.2695 137.742 80.6992 138.211C81.1367 138.672 81.75 138.902 82.5391 138.902C83.3281 138.902 83.9336 138.695 84.3555 138.281C84.7852 137.859 85 137.27 85 136.512L85.1641 139.055C84.9453 139.602 84.5625 140.094 84.0156 140.531C83.4688 140.961 82.7539 141.176 81.8711 141.176C80.5273 141.176 79.4883 140.746 78.7539 139.887C78.0273 139.02 77.6641 137.801 77.6641 136.23V128.836H80.0547ZM131.004 141.176C129.926 141.176 128.945 141.02 128.062 140.707C127.188 140.387 126.402 139.91 125.707 139.277L127.125 137.531C127.789 138.031 128.441 138.406 129.082 138.656C129.73 138.906 130.371 139.031 131.004 139.031C131.949 139.031 132.656 138.887 133.125 138.598C133.602 138.301 133.84 137.859 133.84 137.273C133.84 136.82 133.68 136.5 133.359 136.312C133.047 136.125 132.633 136.004 132.117 135.949C131.609 135.887 131.062 135.836 130.477 135.797C129.984 135.758 129.496 135.699 129.012 135.621C128.527 135.535 128.086 135.387 127.688 135.176C127.289 134.957 126.969 134.637 126.727 134.215C126.492 133.793 126.375 133.227 126.375 132.516C126.375 131.227 126.77 130.262 127.559 129.621C128.348 128.98 129.523 128.66 131.086 128.66C132.039 128.66 132.926 128.789 133.746 129.047C134.566 129.305 135.336 129.699 136.055 130.23L134.613 131.977C134.004 131.586 133.402 131.293 132.809 131.098C132.223 130.902 131.648 130.805 131.086 130.805C130.273 130.805 129.664 130.945 129.258 131.227C128.852 131.5 128.648 131.914 128.648 132.469C128.648 132.836 128.789 133.102 129.07 133.266C129.352 133.422 129.723 133.523 130.184 133.57C130.645 133.617 131.141 133.66 131.672 133.699C132.18 133.73 132.691 133.789 133.207 133.875C133.73 133.953 134.211 134.109 134.648 134.344C135.086 134.578 135.438 134.926 135.703 135.387C135.969 135.848 136.102 136.477 136.102 137.273C136.102 138.578 135.676 139.555 134.824 140.203C133.98 140.852 132.707 141.176 131.004 141.176ZM146.484 141V128.836H148.863V141H146.484ZM141.539 128.836V136.23C141.539 137.082 141.754 137.742 142.184 138.211C142.621 138.672 143.234 138.902 144.023 138.902C144.812 138.902 145.418 138.695 145.84 138.281C146.27 137.859 146.484 137.27 146.484 136.512L146.648 139.055C146.43 139.602 146.047 140.094 145.5 140.531C144.953 140.961 144.238 141.176 143.355 141.176C142.012 141.176 140.973 140.746 140.238 139.887C139.512 139.02 139.148 137.801 139.148 136.23V128.836H141.539ZM157.418 141.176C155.746 141.176 154.449 140.715 153.527 139.793C152.613 138.871 152.156 137.57 152.156 135.891V133.887C152.156 132.223 152.613 130.938 153.527 130.031C154.449 129.117 155.746 128.66 157.418 128.66C158.371 128.66 159.23 128.828 159.996 129.164C160.762 129.5 161.371 129.98 161.824 130.605L160.102 132.152C159.766 131.762 159.367 131.461 158.906 131.25C158.445 131.039 157.961 130.934 157.453 130.934C156.531 130.934 155.816 131.191 155.309 131.707C154.801 132.223 154.547 132.949 154.547 133.887V135.891C154.547 136.852 154.801 137.594 155.309 138.117C155.816 138.641 156.531 138.902 157.453 138.902C157.961 138.902 158.445 138.789 158.906 138.562C159.367 138.336 159.766 138.016 160.102 137.602L161.824 139.266C161.371 139.875 160.758 140.348 159.984 140.684C159.219 141.012 158.363 141.176 157.418 141.176ZM169.371 141.176C167.699 141.176 166.402 140.715 165.48 139.793C164.566 138.871 164.109 137.57 164.109 135.891V133.887C164.109 132.223 164.566 130.938 165.48 130.031C166.402 129.117 167.699 128.66 169.371 128.66C170.324 128.66 171.184 128.828 171.949 129.164C172.715 129.5 173.324 129.98 173.777 130.605L172.055 132.152C171.719 131.762 171.32 131.461 170.859 131.25C170.398 131.039 169.914 130.934 169.406 130.934C168.484 130.934 167.77 131.191 167.262 131.707C166.754 132.223 166.5 132.949 166.5 133.887V135.891C166.5 136.852 166.754 137.594 167.262 138.117C167.77 138.641 168.484 138.902 169.406 138.902C169.914 138.902 170.398 138.789 170.859 138.562C171.32 138.336 171.719 138.016 172.055 137.602L173.777 139.266C173.324 139.875 172.711 140.348 171.938 140.684C171.172 141.012 170.316 141.176 169.371 141.176ZM181.395 141.176C179.699 141.176 178.387 140.703 177.457 139.758C176.527 138.812 176.062 137.469 176.062 135.727V134.355C176.062 132.543 176.508 131.141 177.398 130.148C178.297 129.156 179.559 128.66 181.184 128.66C182.715 128.66 183.898 129.223 184.734 130.348C185.578 131.473 186 133.051 186 135.082V135.879H177.797V133.957H183.727C183.656 132.973 183.398 132.203 182.953 131.648C182.516 131.094 181.926 130.816 181.184 130.816C180.285 130.816 179.586 131.113 179.086 131.707C178.586 132.301 178.336 133.141 178.336 134.227V135.773C178.336 136.781 178.602 137.555 179.133 138.094C179.672 138.633 180.426 138.902 181.395 138.902C181.879 138.902 182.359 138.805 182.836 138.609C183.312 138.414 183.738 138.141 184.113 137.789L185.684 139.359C185.082 139.938 184.406 140.387 183.656 140.707C182.906 141.02 182.152 141.176 181.395 141.176ZM193.582 141.176C192.504 141.176 191.523 141.02 190.641 140.707C189.766 140.387 188.98 139.91 188.285 139.277L189.703 137.531C190.367 138.031 191.02 138.406 191.66 138.656C192.309 138.906 192.949 139.031 193.582 139.031C194.527 139.031 195.234 138.887 195.703 138.598C196.18 138.301 196.418 137.859 196.418 137.273C196.418 136.82 196.258 136.5 195.938 136.312C195.625 136.125 195.211 136.004 194.695 135.949C194.188 135.887 193.641 135.836 193.055 135.797C192.562 135.758 192.074 135.699 191.59 135.621C191.105 135.535 190.664 135.387 190.266 135.176C189.867 134.957 189.547 134.637 189.305 134.215C189.07 133.793 188.953 133.227 188.953 132.516C188.953 131.227 189.348 130.262 190.137 129.621C190.926 128.98 192.102 128.66 193.664 128.66C194.617 128.66 195.504 128.789 196.324 129.047C197.145 129.305 197.914 129.699 198.633 130.23L197.191 131.977C196.582 131.586 195.98 131.293 195.387 131.098C194.801 130.902 194.227 130.805 193.664 130.805C192.852 130.805 192.242 130.945 191.836 131.227C191.43 131.5 191.227 131.914 191.227 132.469C191.227 132.836 191.367 133.102 191.648 133.266C191.93 133.422 192.301 133.523 192.762 133.57C193.223 133.617 193.719 133.66 194.25 133.699C194.758 133.73 195.27 133.789 195.785 133.875C196.309 133.953 196.789 134.109 197.227 134.344C197.664 134.578 198.016 134.926 198.281 135.387C198.547 135.848 198.68 136.477 198.68 137.273C198.68 138.578 198.254 139.555 197.402 140.203C196.559 140.852 195.285 141.176 193.582 141.176ZM206.027 141.176C204.949 141.176 203.969 141.02 203.086 140.707C202.211 140.387 201.426 139.91 200.73 139.277L202.148 137.531C202.812 138.031 203.465 138.406 204.105 138.656C204.754 138.906 205.395 139.031 206.027 139.031C206.973 139.031 207.68 138.887 208.148 138.598C208.625 138.301 208.863 137.859 208.863 137.273C208.863 136.82 208.703 136.5 208.383 136.312C208.07 136.125 207.656 136.004 207.141 135.949C206.633 135.887 206.086 135.836 205.5 135.797C205.008 135.758 204.52 135.699 204.035 135.621C203.551 135.535 203.109 135.387 202.711 135.176C202.312 134.957 201.992 134.637 201.75 134.215C201.516 133.793 201.398 133.227 201.398 132.516C201.398 131.227 201.793 130.262 202.582 129.621C203.371 128.98 204.547 128.66 206.109 128.66C207.062 128.66 207.949 128.789 208.77 129.047C209.59 129.305 210.359 129.699 211.078 130.23L209.637 131.977C209.027 131.586 208.426 131.293 207.832 131.098C207.246 130.902 206.672 130.805 206.109 130.805C205.297 130.805 204.688 130.945 204.281 131.227C203.875 131.5 203.672 131.914 203.672 132.469C203.672 132.836 203.812 133.102 204.094 133.266C204.375 133.422 204.746 133.523 205.207 133.57C205.668 133.617 206.164 133.66 206.695 133.699C207.203 133.73 207.715 133.789 208.23 133.875C208.754 133.953 209.234 134.109 209.672 134.344C210.109 134.578 210.461 134.926 210.727 135.387C210.992 135.848 211.125 136.477 211.125 137.273C211.125 138.578 210.699 139.555 209.848 140.203C209.004 140.852 207.73 141.176 206.027 141.176ZM214.523 141V127.184C214.523 126.113 214.77 125.309 215.262 124.77C215.754 124.23 216.52 123.961 217.559 123.961H219.316V126.234H217.605C217.363 126.234 217.188 126.328 217.078 126.516C216.969 126.695 216.914 126.91 216.914 127.16V141H214.523ZM213.234 130.875V128.836H219.316V130.875H213.234ZM228.656 141V128.836H231.035V141H228.656ZM223.711 128.836V136.23C223.711 137.082 223.926 137.742 224.355 138.211C224.793 138.672 225.406 138.902 226.195 138.902C226.984 138.902 227.59 138.695 228.012 138.281C228.441 137.859 228.656 137.27 228.656 136.512L228.82 139.055C228.602 139.602 228.219 140.094 227.672 140.531C227.125 140.961 226.41 141.176 225.527 141.176C224.184 141.176 223.145 140.746 222.41 139.887C221.684 139.02 221.32 137.801 221.32 136.23V128.836H223.711ZM237.07 123.961V137.859C237.07 138.148 237.133 138.375 237.258 138.539C237.391 138.703 237.574 138.785 237.809 138.785H238.934V141.059H237.527C236.629 141.059 235.93 140.777 235.43 140.215C234.93 139.652 234.68 138.859 234.68 137.836V123.961H237.07ZM244.031 123.961V137.859C244.031 138.148 244.094 138.375 244.219 138.539C244.352 138.703 244.535 138.785 244.77 138.785H245.895V141.059H244.488C243.59 141.059 242.891 140.777 242.391 140.215C241.891 139.652 241.641 138.859 241.641 137.836V123.961H244.031ZM255.645 128.836H258.082L252.902 143.848C252.613 144.684 252.195 145.262 251.648 145.582C251.102 145.91 250.352 146.074 249.398 146.074H248.918V143.777H249.398C249.844 143.777 250.195 143.688 250.453 143.508C250.719 143.328 250.949 143.02 251.145 142.582L255.645 128.836ZM252.164 141.996L247.312 128.836H249.75L253.488 139.406L252.164 141.996ZM295.883 145.945V128.836H298.273V145.945H295.883ZM301.332 141.176C300.574 141.176 299.914 140.996 299.352 140.637C298.789 140.27 298.375 139.754 298.109 139.09L298.273 136.547C298.273 137.07 298.367 137.516 298.555 137.883C298.742 138.25 299.012 138.531 299.363 138.727C299.723 138.922 300.156 139.02 300.664 139.02C301.453 139.02 302.062 138.781 302.492 138.305C302.93 137.82 303.148 137.141 303.148 136.266V133.629C303.148 132.738 302.93 132.047 302.492 131.555C302.062 131.062 301.453 130.816 300.664 130.816C300.156 130.816 299.723 130.91 299.363 131.098C299.012 131.285 298.742 131.559 298.555 131.918C298.367 132.277 298.273 132.715 298.273 133.23L298.027 130.887C298.395 130.176 298.875 129.629 299.469 129.246C300.062 128.855 300.723 128.66 301.449 128.66C302.754 128.66 303.762 129.094 304.473 129.961C305.184 130.82 305.539 132.039 305.539 133.617V136.266C305.539 137.82 305.172 139.027 304.438 139.887C303.703 140.746 302.668 141.176 301.332 141.176ZM308.938 141V128.836H311.328V141H308.938ZM315.629 131.719C315.418 131.461 315.152 131.266 314.832 131.133C314.512 131 314.141 130.934 313.719 130.934C312.961 130.934 312.371 131.145 311.949 131.566C311.535 131.98 311.328 132.559 311.328 133.301L311.082 130.957C311.449 130.238 311.93 129.676 312.523 129.27C313.125 128.863 313.785 128.66 314.504 128.66C315.059 128.66 315.559 128.742 316.004 128.906C316.457 129.062 316.852 129.297 317.188 129.609L315.629 131.719ZM323.609 141.176C322.016 141.176 320.781 140.715 319.906 139.793C319.031 138.863 318.594 137.559 318.594 135.879V133.898C318.594 132.234 319.031 130.945 319.906 130.031C320.781 129.117 322.016 128.66 323.609 128.66C325.203 128.66 326.438 129.117 327.312 130.031C328.188 130.945 328.625 132.234 328.625 133.898V135.914C328.625 137.586 328.188 138.883 327.312 139.805C326.438 140.719 325.203 141.176 323.609 141.176ZM323.609 138.902C324.445 138.902 325.09 138.641 325.543 138.117C326.004 137.594 326.234 136.859 326.234 135.914V133.898C326.234 132.953 326.004 132.223 325.543 131.707C325.09 131.191 324.445 130.934 323.609 130.934C322.781 130.934 322.137 131.191 321.676 131.707C321.215 132.223 320.984 132.953 320.984 133.898V135.914C320.984 136.859 321.215 137.594 321.676 138.117C322.137 138.641 322.781 138.902 323.609 138.902ZM338.938 141V123.961H341.328V141H338.938ZM335.879 141.211C334.535 141.211 333.496 140.781 332.762 139.922C332.035 139.055 331.672 137.836 331.672 136.266V133.582C331.672 132.004 332.027 130.785 332.738 129.926C333.457 129.059 334.465 128.625 335.762 128.625C336.48 128.625 337.137 128.812 337.73 129.188C338.332 129.562 338.816 130.09 339.184 130.77L338.938 133.254C338.938 132.738 338.844 132.297 338.656 131.93C338.469 131.562 338.195 131.285 337.836 131.098C337.484 130.902 337.055 130.805 336.547 130.805C335.758 130.805 335.145 131.051 334.707 131.543C334.277 132.035 334.062 132.727 334.062 133.617V136.266C334.062 137.148 334.277 137.832 334.707 138.316C335.145 138.793 335.758 139.031 336.547 139.031C337.055 139.031 337.484 138.934 337.836 138.738C338.195 138.535 338.469 138.246 338.656 137.871C338.844 137.496 338.938 137.047 338.938 136.523L339.102 139.09C338.883 139.637 338.504 140.129 337.965 140.566C337.434 140.996 336.738 141.211 335.879 141.211ZM352.297 141V128.836H354.676V141H352.297ZM347.352 128.836V136.23C347.352 137.082 347.566 137.742 347.996 138.211C348.434 138.672 349.047 138.902 349.836 138.902C350.625 138.902 351.23 138.695 351.652 138.281C352.082 137.859 352.297 137.27 352.297 136.512L352.461 139.055C352.242 139.602 351.859 140.094 351.312 140.531C350.766 140.961 350.051 141.176 349.168 141.176C347.824 141.176 346.785 140.746 346.051 139.887C345.324 139.02 344.961 137.801 344.961 136.23V128.836H347.352ZM363.23 141.176C361.559 141.176 360.262 140.715 359.34 139.793C358.426 138.871 357.969 137.57 357.969 135.891V133.887C357.969 132.223 358.426 130.938 359.34 130.031C360.262 129.117 361.559 128.66 363.23 128.66C364.184 128.66 365.043 128.828 365.809 129.164C366.574 129.5 367.184 129.98 367.637 130.605L365.914 132.152C365.578 131.762 365.18 131.461 364.719 131.25C364.258 131.039 363.773 130.934 363.266 130.934C362.344 130.934 361.629 131.191 361.121 131.707C360.613 132.223 360.359 132.949 360.359 133.887V135.891C360.359 136.852 360.613 137.594 361.121 138.117C361.629 138.641 362.344 138.902 363.266 138.902C363.773 138.902 364.258 138.789 364.719 138.562C365.18 138.336 365.578 138.016 365.914 137.602L367.637 139.266C367.184 139.875 366.57 140.348 365.797 140.684C365.031 141.012 364.176 141.176 363.23 141.176ZM375.254 141.176C373.559 141.176 372.246 140.703 371.316 139.758C370.387 138.812 369.922 137.469 369.922 135.727V134.355C369.922 132.543 370.367 131.141 371.258 130.148C372.156 129.156 373.418 128.66 375.043 128.66C376.574 128.66 377.758 129.223 378.594 130.348C379.438 131.473 379.859 133.051 379.859 135.082V135.879H371.656V133.957H377.586C377.516 132.973 377.258 132.203 376.812 131.648C376.375 131.094 375.785 130.816 375.043 130.816C374.145 130.816 373.445 131.113 372.945 131.707C372.445 132.301 372.195 133.141 372.195 134.227V135.773C372.195 136.781 372.461 137.555 372.992 138.094C373.531 138.633 374.285 138.902 375.254 138.902C375.738 138.902 376.219 138.805 376.695 138.609C377.172 138.414 377.598 138.141 377.973 137.789L379.543 139.359C378.941 139.938 378.266 140.387 377.516 140.707C376.766 141.02 376.012 141.176 375.254 141.176ZM390.055 141V123.961H392.445V141H390.055ZM386.996 141.211C385.652 141.211 384.613 140.781 383.879 139.922C383.152 139.055 382.789 137.836 382.789 136.266V133.582C382.789 132.004 383.145 130.785 383.855 129.926C384.574 129.059 385.582 128.625 386.879 128.625C387.598 128.625 388.254 128.812 388.848 129.188C389.449 129.562 389.934 130.09 390.301 130.77L390.055 133.254C390.055 132.738 389.961 132.297 389.773 131.93C389.586 131.562 389.312 131.285 388.953 131.098C388.602 130.902 388.172 130.805 387.664 130.805C386.875 130.805 386.262 131.051 385.824 131.543C385.395 132.035 385.18 132.727 385.18 133.617V136.266C385.18 137.148 385.395 137.832 385.824 138.316C386.262 138.793 386.875 139.031 387.664 139.031C388.172 139.031 388.602 138.934 388.953 138.738C389.312 138.535 389.586 138.246 389.773 137.871C389.961 137.496 390.055 137.047 390.055 136.523L390.219 139.09C390 139.637 389.621 140.129 389.082 140.566C388.551 140.996 387.855 141.211 386.996 141.211ZM438.625 141V133.289C438.625 132.492 438.41 131.875 437.98 131.438C437.559 130.992 436.957 130.77 436.176 130.77C435.699 130.77 435.227 130.844 434.758 130.992C434.297 131.133 433.883 131.34 433.516 131.613L431.77 130.418C432.23 129.863 432.836 129.434 433.586 129.129C434.344 128.816 435.184 128.66 436.105 128.66C437.629 128.66 438.809 129.055 439.645 129.844C440.48 130.633 440.898 131.746 440.898 133.184V141H438.625ZM435.648 141.176C434.156 141.176 433.035 140.867 432.285 140.25C431.543 139.633 431.172 138.688 431.172 137.414C431.172 136.203 431.512 135.301 432.191 134.707C432.879 134.105 433.906 133.805 435.273 133.805H438.73L438.895 135.727H435.285C434.668 135.727 434.203 135.867 433.891 136.148C433.578 136.422 433.422 136.844 433.422 137.414C433.422 138.031 433.629 138.488 434.043 138.785C434.457 139.082 435.078 139.23 435.906 139.23C436.812 139.23 437.492 139.133 437.945 138.938C438.398 138.742 438.625 138.438 438.625 138.023L438.871 139.734C438.66 140.062 438.398 140.332 438.086 140.543C437.773 140.754 437.414 140.91 437.008 141.012C436.609 141.121 436.156 141.176 435.648 141.176ZM444.531 141V128.836H446.922V141H444.531ZM451.914 141V133.629C451.914 132.77 451.691 132.105 451.246 131.637C450.809 131.168 450.184 130.934 449.371 130.934C448.59 130.934 447.984 131.141 447.555 131.555C447.133 131.969 446.922 132.551 446.922 133.301L446.676 130.957C447.051 130.223 447.539 129.656 448.141 129.258C448.75 128.859 449.422 128.66 450.156 128.66C451.477 128.66 452.496 129.094 453.215 129.961C453.941 130.82 454.305 132.039 454.305 133.617V141H451.914ZM464.852 141V123.961H467.242V141H464.852ZM461.793 141.211C460.449 141.211 459.41 140.781 458.676 139.922C457.949 139.055 457.586 137.836 457.586 136.266V133.582C457.586 132.004 457.941 130.785 458.652 129.926C459.371 129.059 460.379 128.625 461.676 128.625C462.395 128.625 463.051 128.812 463.645 129.188C464.246 129.562 464.73 130.09 465.098 130.77L464.852 133.254C464.852 132.738 464.758 132.297 464.57 131.93C464.383 131.562 464.109 131.285 463.75 131.098C463.398 130.902 462.969 130.805 462.461 130.805C461.672 130.805 461.059 131.051 460.621 131.543C460.191 132.035 459.977 132.727 459.977 133.617V136.266C459.977 137.148 460.191 137.832 460.621 138.316C461.059 138.793 461.672 139.031 462.461 139.031C462.969 139.031 463.398 138.934 463.75 138.738C464.109 138.535 464.383 138.246 464.57 137.871C464.758 137.496 464.852 137.047 464.852 136.523L465.016 139.09C464.797 139.637 464.418 140.129 463.879 140.566C463.348 140.996 462.652 141.211 461.793 141.211ZM53.875 170V157.836H56.2656V170H53.875ZM60.5664 160.719C60.3555 160.461 60.0898 160.266 59.7695 160.133C59.4492 160 59.0781 159.934 58.6562 159.934C57.8984 159.934 57.3086 160.145 56.8867 160.566C56.4727 160.98 56.2656 161.559 56.2656 162.301L56.0195 159.957C56.3867 159.238 56.8672 158.676 57.4609 158.27C58.0625 157.863 58.7227 157.66 59.4414 157.66C59.9961 157.66 60.4961 157.742 60.9414 157.906C61.3945 158.062 61.7891 158.297 62.125 158.609L60.5664 160.719ZM68.8633 170.176C67.168 170.176 65.8555 169.703 64.9258 168.758C63.9961 167.812 63.5312 166.469 63.5312 164.727V163.355C63.5312 161.543 63.9766 160.141 64.8672 159.148C65.7656 158.156 67.0273 157.66 68.6523 157.66C70.1836 157.66 71.3672 158.223 72.2031 159.348C73.0469 160.473 73.4688 162.051 73.4688 164.082V164.879H65.2656V162.957H71.1953C71.125 161.973 70.8672 161.203 70.4219 160.648C69.9844 160.094 69.3945 159.816 68.6523 159.816C67.7539 159.816 67.0547 160.113 66.5547 160.707C66.0547 161.301 65.8047 162.141 65.8047 163.227V164.773C65.8047 165.781 66.0703 166.555 66.6016 167.094C67.1406 167.633 67.8945 167.902 68.8633 167.902C69.3477 167.902 69.8281 167.805 70.3047 167.609C70.7812 167.414 71.207 167.141 71.582 166.789L73.1523 168.359C72.5508 168.938 71.875 169.387 71.125 169.707C70.375 170.02 69.6211 170.176 68.8633 170.176ZM79.1406 152.961V166.859C79.1406 167.148 79.2031 167.375 79.3281 167.539C79.4609 167.703 79.6445 167.785 79.8789 167.785H81.0039V170.059H79.5977C78.6992 170.059 78 169.777 77.5 169.215C77 168.652 76.75 167.859 76.75 166.836V152.961H79.1406ZM88.6914 170.176C86.9961 170.176 85.6836 169.703 84.7539 168.758C83.8242 167.812 83.3594 166.469 83.3594 164.727V163.355C83.3594 161.543 83.8047 160.141 84.6953 159.148C85.5938 158.156 86.8555 157.66 88.4805 157.66C90.0117 157.66 91.1953 158.223 92.0312 159.348C92.875 160.473 93.2969 162.051 93.2969 164.082V164.879H85.0938V162.957H91.0234C90.9531 161.973 90.6953 161.203 90.25 160.648C89.8125 160.094 89.2227 159.816 88.4805 159.816C87.582 159.816 86.8828 160.113 86.3828 160.707C85.8828 161.301 85.6328 162.141 85.6328 163.227V164.773C85.6328 165.781 85.8984 166.555 86.4297 167.094C86.9688 167.633 87.7227 167.902 88.6914 167.902C89.1758 167.902 89.6562 167.805 90.1328 167.609C90.6094 167.414 91.0352 167.141 91.4102 166.789L92.9805 168.359C92.3789 168.938 91.7031 169.387 90.9531 169.707C90.2031 170.02 89.4492 170.176 88.6914 170.176ZM103.445 170V162.289C103.445 161.492 103.23 160.875 102.801 160.438C102.379 159.992 101.777 159.77 100.996 159.77C100.52 159.77 100.047 159.844 99.5781 159.992C99.1172 160.133 98.7031 160.34 98.3359 160.613L96.5898 159.418C97.0508 158.863 97.6562 158.434 98.4062 158.129C99.1641 157.816 100.004 157.66 100.926 157.66C102.449 157.66 103.629 158.055 104.465 158.844C105.301 159.633 105.719 160.746 105.719 162.184V170H103.445ZM100.469 170.176C98.9766 170.176 97.8555 169.867 97.1055 169.25C96.3633 168.633 95.9922 167.688 95.9922 166.414C95.9922 165.203 96.332 164.301 97.0117 163.707C97.6992 163.105 98.7266 162.805 100.094 162.805H103.551L103.715 164.727H100.105C99.4883 164.727 99.0234 164.867 98.7109 165.148C98.3984 165.422 98.2422 165.844 98.2422 166.414C98.2422 167.031 98.4492 167.488 98.8633 167.785C99.2773 168.082 99.8984 168.23 100.727 168.23C101.633 168.23 102.312 168.133 102.766 167.938C103.219 167.742 103.445 167.438 103.445 167.023L103.691 168.734C103.48 169.062 103.219 169.332 102.906 169.543C102.594 169.754 102.234 169.91 101.828 170.012C101.43 170.121 100.977 170.176 100.469 170.176ZM113.652 170.176C112.574 170.176 111.594 170.02 110.711 169.707C109.836 169.387 109.051 168.91 108.355 168.277L109.773 166.531C110.438 167.031 111.09 167.406 111.73 167.656C112.379 167.906 113.02 168.031 113.652 168.031C114.598 168.031 115.305 167.887 115.773 167.598C116.25 167.301 116.488 166.859 116.488 166.273C116.488 165.82 116.328 165.5 116.008 165.312C115.695 165.125 115.281 165.004 114.766 164.949C114.258 164.887 113.711 164.836 113.125 164.797C112.633 164.758 112.145 164.699 111.66 164.621C111.176 164.535 110.734 164.387 110.336 164.176C109.938 163.957 109.617 163.637 109.375 163.215C109.141 162.793 109.023 162.227 109.023 161.516C109.023 160.227 109.418 159.262 110.207 158.621C110.996 157.98 112.172 157.66 113.734 157.66C114.688 157.66 115.574 157.789 116.395 158.047C117.215 158.305 117.984 158.699 118.703 159.23L117.262 160.977C116.652 160.586 116.051 160.293 115.457 160.098C114.871 159.902 114.297 159.805 113.734 159.805C112.922 159.805 112.312 159.945 111.906 160.227C111.5 160.5 111.297 160.914 111.297 161.469C111.297 161.836 111.438 162.102 111.719 162.266C112 162.422 112.371 162.523 112.832 162.57C113.293 162.617 113.789 162.66 114.32 162.699C114.828 162.73 115.34 162.789 115.855 162.875C116.379 162.953 116.859 163.109 117.297 163.344C117.734 163.578 118.086 163.926 118.352 164.387C118.617 164.848 118.75 165.477 118.75 166.273C118.75 167.578 118.324 168.555 117.473 169.203C116.629 169.852 115.355 170.176 113.652 170.176ZM126.777 170.176C125.082 170.176 123.77 169.703 122.84 168.758C121.91 167.812 121.445 166.469 121.445 164.727V163.355C121.445 161.543 121.891 160.141 122.781 159.148C123.68 158.156 124.941 157.66 126.566 157.66C128.098 157.66 129.281 158.223 130.117 159.348C130.961 160.473 131.383 162.051 131.383 164.082V164.879H123.18V162.957H129.109C129.039 161.973 128.781 161.203 128.336 160.648C127.898 160.094 127.309 159.816 126.566 159.816C125.668 159.816 124.969 160.113 124.469 160.707C123.969 161.301 123.719 162.141 123.719 163.227V164.773C123.719 165.781 123.984 166.555 124.516 167.094C125.055 167.633 125.809 167.902 126.777 167.902C127.262 167.902 127.742 167.805 128.219 167.609C128.695 167.414 129.121 167.141 129.496 166.789L131.066 168.359C130.465 168.938 129.789 169.387 129.039 169.707C128.289 170.02 127.535 170.176 126.777 170.176ZM141.578 170V152.961H143.969V170H141.578ZM138.52 170.211C137.176 170.211 136.137 169.781 135.402 168.922C134.676 168.055 134.312 166.836 134.312 165.266V162.582C134.312 161.004 134.668 159.785 135.379 158.926C136.098 158.059 137.105 157.625 138.402 157.625C139.121 157.625 139.777 157.812 140.371 158.188C140.973 158.562 141.457 159.09 141.824 159.77L141.578 162.254C141.578 161.738 141.484 161.297 141.297 160.93C141.109 160.562 140.836 160.285 140.477 160.098C140.125 159.902 139.695 159.805 139.188 159.805C138.398 159.805 137.785 160.051 137.348 160.543C136.918 161.035 136.703 161.727 136.703 162.617V165.266C136.703 166.148 136.918 166.832 137.348 167.316C137.785 167.793 138.398 168.031 139.188 168.031C139.695 168.031 140.125 167.934 140.477 167.738C140.836 167.535 141.109 167.246 141.297 166.871C141.484 166.496 141.578 166.047 141.578 165.523L141.742 168.09C141.523 168.637 141.145 169.129 140.605 169.566C140.074 169.996 139.379 170.211 138.52 170.211ZM157.619 170.059C156.619 170.059 155.892 169.781 155.439 169.227C154.994 168.672 154.771 167.875 154.771 166.836V154.297H157.162V166.859C157.162 167.148 157.22 167.375 157.338 167.539C157.455 167.703 157.627 167.785 157.853 167.785H159.002V170.059H157.619ZM153.517 159.992V157.836H159.002V159.992H153.517ZM162.283 170V152.961H164.673V170H162.283ZM169.666 170V162.629C169.666 161.77 169.443 161.105 168.998 160.637C168.56 160.168 167.935 159.934 167.123 159.934C166.341 159.934 165.736 160.137 165.306 160.543C164.884 160.949 164.673 161.523 164.673 162.266L164.427 159.922C164.802 159.203 165.291 158.648 165.892 158.258C166.502 157.859 167.173 157.66 167.908 157.66C169.228 157.66 170.248 158.094 170.966 158.961C171.693 159.82 172.056 161.039 172.056 162.617V170H169.666ZM180.67 170.176C178.974 170.176 177.662 169.703 176.732 168.758C175.802 167.812 175.338 166.469 175.338 164.727V163.355C175.338 161.543 175.783 160.141 176.673 159.148C177.572 158.156 178.834 157.66 180.459 157.66C181.99 157.66 183.173 158.223 184.009 159.348C184.853 160.473 185.275 162.051 185.275 164.082V164.879H177.072V162.957H183.002C182.931 161.973 182.673 161.203 182.228 160.648C181.791 160.094 181.201 159.816 180.459 159.816C179.56 159.816 178.861 160.113 178.361 160.707C177.861 161.301 177.611 162.141 177.611 163.227V164.773C177.611 165.781 177.877 166.555 178.408 167.094C178.947 167.633 179.701 167.902 180.67 167.902C181.154 167.902 181.634 167.805 182.111 167.609C182.588 167.414 183.013 167.141 183.388 166.789L184.959 168.359C184.357 168.938 183.681 169.387 182.931 169.707C182.181 170.02 181.427 170.176 180.67 170.176ZM200.32 170.176C198.648 170.176 197.351 169.715 196.429 168.793C195.515 167.871 195.058 166.57 195.058 164.891V162.887C195.058 161.223 195.515 159.938 196.429 159.031C197.351 158.117 198.648 157.66 200.32 157.66C201.273 157.66 202.132 157.828 202.898 158.164C203.663 158.5 204.273 158.98 204.726 159.605L203.003 161.152C202.667 160.762 202.269 160.461 201.808 160.25C201.347 160.039 200.863 159.934 200.355 159.934C199.433 159.934 198.718 160.191 198.21 160.707C197.702 161.223 197.448 161.949 197.448 162.887V164.891C197.448 165.852 197.702 166.594 198.21 167.117C198.718 167.641 199.433 167.902 200.355 167.902C200.863 167.902 201.347 167.789 201.808 167.562C202.269 167.336 202.667 167.016 203.003 166.602L204.726 168.266C204.273 168.875 203.659 169.348 202.886 169.684C202.12 170.012 201.265 170.176 200.32 170.176ZM212.027 170.176C210.433 170.176 209.198 169.715 208.323 168.793C207.448 167.863 207.011 166.559 207.011 164.879V162.898C207.011 161.234 207.448 159.945 208.323 159.031C209.198 158.117 210.433 157.66 212.027 157.66C213.62 157.66 214.855 158.117 215.73 159.031C216.605 159.945 217.042 161.234 217.042 162.898V164.914C217.042 166.586 216.605 167.883 215.73 168.805C214.855 169.719 213.62 170.176 212.027 170.176ZM212.027 167.902C212.863 167.902 213.507 167.641 213.96 167.117C214.421 166.594 214.652 165.859 214.652 164.914V162.898C214.652 161.953 214.421 161.223 213.96 160.707C213.507 160.191 212.863 159.934 212.027 159.934C211.198 159.934 210.554 160.191 210.093 160.707C209.632 161.223 209.402 161.953 209.402 162.898V164.914C209.402 165.859 209.632 166.594 210.093 167.117C210.554 167.641 211.198 167.902 212.027 167.902ZM220.441 170V157.836H222.831V170H220.441ZM227.132 160.719C226.921 160.461 226.655 160.266 226.335 160.133C226.015 160 225.644 159.934 225.222 159.934C224.464 159.934 223.874 160.145 223.452 160.566C223.038 160.98 222.831 161.559 222.831 162.301L222.585 159.957C222.952 159.238 223.433 158.676 224.027 158.27C224.628 157.863 225.288 157.66 226.007 157.66C226.562 157.66 227.062 157.742 227.507 157.906C227.96 158.062 228.355 158.297 228.691 158.609L227.132 160.719ZM230.683 170V157.836H233.073V170H230.683ZM237.374 160.719C237.163 160.461 236.898 160.266 236.577 160.133C236.257 160 235.886 159.934 235.464 159.934C234.706 159.934 234.116 160.145 233.695 160.566C233.28 160.98 233.073 161.559 233.073 162.301L232.827 159.957C233.195 159.238 233.675 158.676 234.269 158.27C234.87 157.863 235.53 157.66 236.249 157.66C236.804 157.66 237.304 157.742 237.749 157.906C238.202 158.062 238.597 158.297 238.933 158.609L237.374 160.719ZM245.671 170.176C243.976 170.176 242.663 169.703 241.734 168.758C240.804 167.812 240.339 166.469 240.339 164.727V163.355C240.339 161.543 240.784 160.141 241.675 159.148C242.573 158.156 243.835 157.66 245.46 157.66C246.991 157.66 248.175 158.223 249.011 159.348C249.855 160.473 250.277 162.051 250.277 164.082V164.879H242.073V162.957H248.003C247.933 161.973 247.675 161.203 247.23 160.648C246.792 160.094 246.202 159.816 245.46 159.816C244.562 159.816 243.863 160.113 243.363 160.707C242.863 161.301 242.613 162.141 242.613 163.227V164.773C242.613 165.781 242.878 166.555 243.409 167.094C243.948 167.633 244.702 167.902 245.671 167.902C246.155 167.902 246.636 167.805 247.113 167.609C247.589 167.414 248.015 167.141 248.39 166.789L249.96 168.359C249.359 168.938 248.683 169.387 247.933 169.707C247.183 170.02 246.429 170.176 245.671 170.176ZM258.468 170.176C256.796 170.176 255.499 169.715 254.577 168.793C253.663 167.871 253.206 166.57 253.206 164.891V162.887C253.206 161.223 253.663 159.938 254.577 159.031C255.499 158.117 256.796 157.66 258.468 157.66C259.421 157.66 260.28 157.828 261.046 158.164C261.812 158.5 262.421 158.98 262.874 159.605L261.152 161.152C260.816 160.762 260.417 160.461 259.956 160.25C259.495 160.039 259.011 159.934 258.503 159.934C257.581 159.934 256.866 160.191 256.359 160.707C255.851 161.223 255.597 161.949 255.597 162.887V164.891C255.597 165.852 255.851 166.594 256.359 167.117C256.866 167.641 257.581 167.902 258.503 167.902C259.011 167.902 259.495 167.789 259.956 167.562C260.417 167.336 260.816 167.016 261.152 166.602L262.874 168.266C262.421 168.875 261.808 169.348 261.034 169.684C260.269 170.012 259.413 170.176 258.468 170.176ZM268.675 170.059C267.675 170.059 266.948 169.781 266.495 169.227C266.05 168.672 265.827 167.875 265.827 166.836V154.297H268.218V166.859C268.218 167.148 268.277 167.375 268.394 167.539C268.511 167.703 268.683 167.785 268.909 167.785H270.058V170.059H268.675ZM264.573 159.992V157.836H270.058V159.992H264.573ZM287.059 170V162.289C287.059 161.492 286.845 160.875 286.415 160.438C285.993 159.992 285.391 159.77 284.61 159.77C284.134 159.77 283.661 159.844 283.192 159.992C282.731 160.133 282.317 160.34 281.95 160.613L280.204 159.418C280.665 158.863 281.27 158.434 282.02 158.129C282.778 157.816 283.618 157.66 284.54 157.66C286.063 157.66 287.243 158.055 288.079 158.844C288.915 159.633 289.333 160.746 289.333 162.184V170H287.059ZM284.083 170.176C282.591 170.176 281.47 169.867 280.72 169.25C279.977 168.633 279.606 167.688 279.606 166.414C279.606 165.203 279.946 164.301 280.626 163.707C281.313 163.105 282.341 162.805 283.708 162.805H287.165L287.329 164.727H283.72C283.102 164.727 282.637 164.867 282.325 165.148C282.012 165.422 281.856 165.844 281.856 166.414C281.856 167.031 282.063 167.488 282.477 167.785C282.891 168.082 283.512 168.23 284.341 168.23C285.247 168.23 285.927 168.133 286.38 167.938C286.833 167.742 287.059 167.438 287.059 167.023L287.305 168.734C287.095 169.062 286.833 169.332 286.52 169.543C286.208 169.754 285.848 169.91 285.442 170.012C285.044 170.121 284.591 170.176 284.083 170.176ZM307.497 170V162.629C307.497 161.77 307.274 161.105 306.829 160.637C306.391 160.168 305.766 159.934 304.954 159.934C304.212 159.934 303.637 160.16 303.231 160.613C302.825 161.066 302.622 161.707 302.622 162.535L302.141 160.191C302.532 159.379 303.04 158.754 303.665 158.316C304.29 157.879 304.981 157.66 305.739 157.66C307.059 157.66 308.079 158.094 308.798 158.961C309.524 159.82 309.887 161.039 309.887 162.617V170H307.497ZM292.966 170V157.836H295.356V170H292.966ZM300.231 170V162.629C300.231 161.77 300.02 161.105 299.598 160.637C299.177 160.168 298.579 159.934 297.805 159.934C297.024 159.934 296.419 160.141 295.989 160.555C295.567 160.969 295.356 161.551 295.356 162.301L295.11 159.957C295.485 159.223 295.973 158.656 296.575 158.258C297.184 157.859 297.856 157.66 298.591 157.66C299.872 157.66 300.864 158.094 301.567 158.961C302.27 159.82 302.622 161.039 302.622 162.617V170H300.231ZM318.184 170.176C316.591 170.176 315.356 169.715 314.481 168.793C313.606 167.863 313.169 166.559 313.169 164.879V162.898C313.169 161.234 313.606 159.945 314.481 159.031C315.356 158.117 316.591 157.66 318.184 157.66C319.778 157.66 321.013 158.117 321.888 159.031C322.763 159.945 323.2 161.234 323.2 162.898V164.914C323.2 166.586 322.763 167.883 321.888 168.805C321.013 169.719 319.778 170.176 318.184 170.176ZM318.184 167.902C319.02 167.902 319.665 167.641 320.118 167.117C320.579 166.594 320.809 165.859 320.809 164.914V162.898C320.809 161.953 320.579 161.223 320.118 160.707C319.665 160.191 319.02 159.934 318.184 159.934C317.356 159.934 316.712 160.191 316.251 160.707C315.79 161.223 315.559 161.953 315.559 162.898V164.914C315.559 165.859 315.79 166.594 316.251 167.117C316.712 167.641 317.356 167.902 318.184 167.902ZM333.63 170V157.836H336.009V170H333.63ZM328.684 157.836V165.23C328.684 166.082 328.899 166.742 329.329 167.211C329.766 167.672 330.38 167.902 331.169 167.902C331.958 167.902 332.563 167.695 332.985 167.281C333.415 166.859 333.63 166.27 333.63 165.512L333.794 168.055C333.575 168.602 333.192 169.094 332.645 169.531C332.098 169.961 331.384 170.176 330.501 170.176C329.157 170.176 328.118 169.746 327.384 168.887C326.657 168.02 326.294 166.801 326.294 165.23V157.836H328.684ZM339.653 170V157.836H342.044V170H339.653ZM347.036 170V162.629C347.036 161.77 346.813 161.105 346.368 160.637C345.93 160.168 345.305 159.934 344.493 159.934C343.712 159.934 343.106 160.141 342.677 160.555C342.255 160.969 342.044 161.551 342.044 162.301L341.798 159.957C342.173 159.223 342.661 158.656 343.263 158.258C343.872 157.859 344.544 157.66 345.278 157.66C346.598 157.66 347.618 158.094 348.337 158.961C349.063 159.82 349.427 161.039 349.427 162.617V170H347.036ZM356.223 170.059C355.223 170.059 354.497 169.781 354.044 169.227C353.598 168.672 353.376 167.875 353.376 166.836V154.297H355.766V166.859C355.766 167.148 355.825 167.375 355.942 167.539C356.059 167.703 356.231 167.785 356.458 167.785H357.606V170.059H356.223ZM352.122 159.992V157.836H357.606V159.992H352.122ZM372.405 170.176C370.811 170.176 369.577 169.715 368.702 168.793C367.827 167.863 367.389 166.559 367.389 164.879V162.898C367.389 161.234 367.827 159.945 368.702 159.031C369.577 158.117 370.811 157.66 372.405 157.66C373.998 157.66 375.233 158.117 376.108 159.031C376.983 159.945 377.42 161.234 377.42 162.898V164.914C377.42 166.586 376.983 167.883 376.108 168.805C375.233 169.719 373.998 170.176 372.405 170.176ZM372.405 167.902C373.241 167.902 373.885 167.641 374.338 167.117C374.799 166.594 375.03 165.859 375.03 164.914V162.898C375.03 161.953 374.799 161.223 374.338 160.707C373.885 160.191 373.241 159.934 372.405 159.934C371.577 159.934 370.932 160.191 370.471 160.707C370.01 161.223 369.78 161.953 369.78 162.898V164.914C369.78 165.859 370.01 166.594 370.471 167.117C370.932 167.641 371.577 167.902 372.405 167.902ZM381.17 170V156.184C381.17 155.113 381.416 154.309 381.909 153.77C382.401 153.23 383.166 152.961 384.205 152.961H385.963V155.234H384.252C384.01 155.234 383.834 155.328 383.725 155.516C383.616 155.695 383.561 155.91 383.561 156.16V170H381.17ZM379.881 159.875V157.836H385.963V159.875H379.881ZM399.367 174.945C398.453 174.945 397.633 174.773 396.906 174.43C396.188 174.094 395.629 173.617 395.23 173L396.848 171.535C397.16 171.965 397.531 172.297 397.961 172.531C398.398 172.766 398.855 172.883 399.332 172.883C400.246 172.883 400.953 172.629 401.453 172.121C401.953 171.621 402.203 170.91 402.203 169.988V157.836H404.594V169.637C404.594 171.324 404.137 172.629 403.223 173.551C402.316 174.48 401.031 174.945 399.367 174.945ZM399.145 170.211C397.801 170.211 396.762 169.781 396.027 168.922C395.301 168.055 394.938 166.836 394.938 165.266V162.582C394.938 161.004 395.293 159.785 396.004 158.926C396.723 158.059 397.73 157.625 399.027 157.625C399.746 157.625 400.402 157.812 400.996 158.188C401.598 158.562 402.082 159.09 402.449 159.77L402.203 162.254C402.203 161.738 402.109 161.297 401.922 160.93C401.734 160.562 401.461 160.285 401.102 160.098C400.75 159.902 400.32 159.805 399.812 159.805C399.023 159.805 398.41 160.051 397.973 160.543C397.543 161.035 397.328 161.727 397.328 162.617V165.266C397.328 166.148 397.543 166.832 397.973 167.316C398.41 167.793 399.023 168.031 399.812 168.031C400.32 168.031 400.75 167.934 401.102 167.738C401.461 167.535 401.734 167.246 401.922 166.871C402.109 166.496 402.203 166.047 402.203 165.523L402.367 168.09C402.148 168.637 401.77 169.129 401.23 169.566C400.699 169.996 400.004 170.211 399.145 170.211ZM408.227 170V157.836H410.617V170H408.227ZM414.918 160.719C414.707 160.461 414.441 160.266 414.121 160.133C413.801 160 413.43 159.934 413.008 159.934C412.25 159.934 411.66 160.145 411.238 160.566C410.824 160.98 410.617 161.559 410.617 162.301L410.371 159.957C410.738 159.238 411.219 158.676 411.812 158.27C412.414 157.863 413.074 157.66 413.793 157.66C414.348 157.66 414.848 157.742 415.293 157.906C415.746 158.062 416.141 158.297 416.477 158.609L414.918 160.719ZM422.898 170.176C421.305 170.176 420.07 169.715 419.195 168.793C418.32 167.863 417.883 166.559 417.883 164.879V162.898C417.883 161.234 418.32 159.945 419.195 159.031C420.07 158.117 421.305 157.66 422.898 157.66C424.492 157.66 425.727 158.117 426.602 159.031C427.477 159.945 427.914 161.234 427.914 162.898V164.914C427.914 166.586 427.477 167.883 426.602 168.805C425.727 169.719 424.492 170.176 422.898 170.176ZM422.898 167.902C423.734 167.902 424.379 167.641 424.832 167.117C425.293 166.594 425.523 165.859 425.523 164.914V162.898C425.523 161.953 425.293 161.223 424.832 160.707C424.379 160.191 423.734 159.934 422.898 159.934C422.07 159.934 421.426 160.191 420.965 160.707C420.504 161.223 420.273 161.953 420.273 162.898V164.914C420.273 165.859 420.504 166.594 420.965 167.117C421.426 167.641 422.07 167.902 422.898 167.902ZM433.539 170L429.789 157.836H432.285L434.441 166.52L437.477 157.836H439.141L442.176 166.52L444.332 157.836H446.828L443.078 170H441.273L438.309 161.598L435.344 170H433.539ZM452.805 170.059C451.805 170.059 451.078 169.781 450.625 169.227C450.18 168.672 449.957 167.875 449.957 166.836V154.297H452.348V166.859C452.348 167.148 452.406 167.375 452.523 167.539C452.641 167.703 452.812 167.785 453.039 167.785H454.188V170.059H452.805ZM448.703 159.992V157.836H454.188V159.992H448.703ZM457.469 170V152.961H459.859V170H457.469ZM464.852 170V162.629C464.852 161.77 464.629 161.105 464.184 160.637C463.746 160.168 463.121 159.934 462.309 159.934C461.527 159.934 460.922 160.137 460.492 160.543C460.07 160.949 459.859 161.523 459.859 162.266L459.613 159.922C459.988 159.203 460.477 158.648 461.078 158.258C461.688 157.859 462.359 157.66 463.094 157.66C464.414 157.66 465.434 158.094 466.152 158.961C466.879 159.82 467.242 161.039 467.242 162.617V170H464.852ZM53.875 199V181.961H56.2656V199H53.875ZM61.2578 199V191.629C61.2578 190.77 61.0352 190.105 60.5898 189.637C60.1523 189.168 59.5273 188.934 58.7148 188.934C57.9336 188.934 57.3281 189.137 56.8984 189.543C56.4766 189.949 56.2656 190.523 56.2656 191.266L56.0195 188.922C56.3945 188.203 56.8828 187.648 57.4844 187.258C58.0938 186.859 58.7656 186.66 59.5 186.66C60.8203 186.66 61.8398 187.094 62.5586 187.961C63.2852 188.82 63.6484 190.039 63.6484 191.617V199H61.2578ZM71.9453 199.176C70.3516 199.176 69.1172 198.715 68.2422 197.793C67.3672 196.863 66.9297 195.559 66.9297 193.879V191.898C66.9297 190.234 67.3672 188.945 68.2422 188.031C69.1172 187.117 70.3516 186.66 71.9453 186.66C73.5391 186.66 74.7734 187.117 75.6484 188.031C76.5234 188.945 76.9609 190.234 76.9609 191.898V193.914C76.9609 195.586 76.5234 196.883 75.6484 197.805C74.7734 198.719 73.5391 199.176 71.9453 199.176ZM71.9453 196.902C72.7812 196.902 73.4258 196.641 73.8789 196.117C74.3398 195.594 74.5703 194.859 74.5703 193.914V191.898C74.5703 190.953 74.3398 190.223 73.8789 189.707C73.4258 189.191 72.7812 188.934 71.9453 188.934C71.1172 188.934 70.4727 189.191 70.0117 189.707C69.5508 190.223 69.3203 190.953 69.3203 191.898V193.914C69.3203 194.859 69.5508 195.594 70.0117 196.117C70.4727 196.641 71.1172 196.902 71.9453 196.902ZM80.3594 199V186.836H82.75V199H80.3594ZM87.0508 189.719C86.8398 189.461 86.5742 189.266 86.2539 189.133C85.9336 189 85.5625 188.934 85.1406 188.934C84.3828 188.934 83.793 189.145 83.3711 189.566C82.957 189.98 82.75 190.559 82.75 191.301L82.5039 188.957C82.8711 188.238 83.3516 187.676 83.9453 187.27C84.5469 186.863 85.207 186.66 85.9258 186.66C86.4805 186.66 86.9805 186.742 87.4258 186.906C87.8789 187.062 88.2734 187.297 88.6094 187.609L87.0508 189.719ZM105.133 199V191.629C105.133 190.77 104.91 190.105 104.465 189.637C104.027 189.168 103.402 188.934 102.59 188.934C101.848 188.934 101.273 189.16 100.867 189.613C100.461 190.066 100.258 190.707 100.258 191.535L99.7773 189.191C100.168 188.379 100.676 187.754 101.301 187.316C101.926 186.879 102.617 186.66 103.375 186.66C104.695 186.66 105.715 187.094 106.434 187.961C107.16 188.82 107.523 190.039 107.523 191.617V199H105.133ZM90.6016 199V186.836H92.9922V199H90.6016ZM97.8672 199V191.629C97.8672 190.77 97.6562 190.105 97.2344 189.637C96.8125 189.168 96.2148 188.934 95.4414 188.934C94.6602 188.934 94.0547 189.141 93.625 189.555C93.2031 189.969 92.9922 190.551 92.9922 191.301L92.7461 188.957C93.1211 188.223 93.6094 187.656 94.2109 187.258C94.8203 186.859 95.4922 186.66 96.2266 186.66C97.5078 186.66 98.5 187.094 99.2031 187.961C99.9062 188.82 100.258 190.039 100.258 191.617V199H97.8672ZM115.82 199.176C114.227 199.176 112.992 198.715 112.117 197.793C111.242 196.863 110.805 195.559 110.805 193.879V191.898C110.805 190.234 111.242 188.945 112.117 188.031C112.992 187.117 114.227 186.66 115.82 186.66C117.414 186.66 118.648 187.117 119.523 188.031C120.398 188.945 120.836 190.234 120.836 191.898V193.914C120.836 195.586 120.398 196.883 119.523 197.805C118.648 198.719 117.414 199.176 115.82 199.176ZM115.82 196.902C116.656 196.902 117.301 196.641 117.754 196.117C118.215 195.594 118.445 194.859 118.445 193.914V191.898C118.445 190.953 118.215 190.223 117.754 189.707C117.301 189.191 116.656 188.934 115.82 188.934C114.992 188.934 114.348 189.191 113.887 189.707C113.426 190.223 113.195 190.953 113.195 191.898V193.914C113.195 194.859 113.426 195.594 113.887 196.117C114.348 196.641 114.992 196.902 115.82 196.902ZM124.234 199V186.836H126.625V199H124.234ZM131.617 199V191.629C131.617 190.77 131.395 190.105 130.949 189.637C130.512 189.168 129.887 188.934 129.074 188.934C128.293 188.934 127.688 189.141 127.258 189.555C126.836 189.969 126.625 190.551 126.625 191.301L126.379 188.957C126.754 188.223 127.242 187.656 127.844 187.258C128.453 186.859 129.125 186.66 129.859 186.66C131.18 186.66 132.199 187.094 132.918 187.961C133.645 188.82 134.008 190.039 134.008 191.617V199H131.617ZM142.621 199.176C140.926 199.176 139.613 198.703 138.684 197.758C137.754 196.812 137.289 195.469 137.289 193.727V192.355C137.289 190.543 137.734 189.141 138.625 188.148C139.523 187.156 140.785 186.66 142.41 186.66C143.941 186.66 145.125 187.223 145.961 188.348C146.805 189.473 147.227 191.051 147.227 193.082V193.879H139.023V191.957H144.953C144.883 190.973 144.625 190.203 144.18 189.648C143.742 189.094 143.152 188.816 142.41 188.816C141.512 188.816 140.812 189.113 140.312 189.707C139.812 190.301 139.562 191.141 139.562 192.227V193.773C139.562 194.781 139.828 195.555 140.359 196.094C140.898 196.633 141.652 196.902 142.621 196.902C143.105 196.902 143.586 196.805 144.062 196.609C144.539 196.414 144.965 196.141 145.34 195.789L146.91 197.359C146.309 197.938 145.633 198.387 144.883 198.707C144.133 199.02 143.379 199.176 142.621 199.176ZM154.809 199.176C153.73 199.176 152.75 199.02 151.867 198.707C150.992 198.387 150.207 197.91 149.512 197.277L150.93 195.531C151.594 196.031 152.246 196.406 152.887 196.656C153.535 196.906 154.176 197.031 154.809 197.031C155.754 197.031 156.461 196.887 156.93 196.598C157.406 196.301 157.645 195.859 157.645 195.273C157.645 194.82 157.484 194.5 157.164 194.312C156.852 194.125 156.438 194.004 155.922 193.949C155.414 193.887 154.867 193.836 154.281 193.797C153.789 193.758 153.301 193.699 152.816 193.621C152.332 193.535 151.891 193.387 151.492 193.176C151.094 192.957 150.773 192.637 150.531 192.215C150.297 191.793 150.18 191.227 150.18 190.516C150.18 189.227 150.574 188.262 151.363 187.621C152.152 186.98 153.328 186.66 154.891 186.66C155.844 186.66 156.73 186.789 157.551 187.047C158.371 187.305 159.141 187.699 159.859 188.23L158.418 189.977C157.809 189.586 157.207 189.293 156.613 189.098C156.027 188.902 155.453 188.805 154.891 188.805C154.078 188.805 153.469 188.945 153.062 189.227C152.656 189.5 152.453 189.914 152.453 190.469C152.453 190.836 152.594 191.102 152.875 191.266C153.156 191.422 153.527 191.523 153.988 191.57C154.449 191.617 154.945 191.66 155.477 191.699C155.984 191.73 156.496 191.789 157.012 191.875C157.535 191.953 158.016 192.109 158.453 192.344C158.891 192.578 159.242 192.926 159.508 193.387C159.773 193.848 159.906 194.477 159.906 195.273C159.906 196.578 159.48 197.555 158.629 198.203C157.785 198.852 156.512 199.176 154.809 199.176ZM163.129 194.629V181.961H165.52V194.629H163.129ZM163.07 199V196.492H165.578V199H163.07ZM181.234 199V181.961H183.625V199H181.234ZM182.43 199V196.727H192.18V199H182.43ZM199.738 199.176C198.043 199.176 196.73 198.703 195.801 197.758C194.871 196.812 194.406 195.469 194.406 193.727V192.355C194.406 190.543 194.852 189.141 195.742 188.148C196.641 187.156 197.902 186.66 199.527 186.66C201.059 186.66 202.242 187.223 203.078 188.348C203.922 189.473 204.344 191.051 204.344 193.082V193.879H196.141V191.957H202.07C202 190.973 201.742 190.203 201.297 189.648C200.859 189.094 200.27 188.816 199.527 188.816C198.629 188.816 197.93 189.113 197.43 189.707C196.93 190.301 196.68 191.141 196.68 192.227V193.773C196.68 194.781 196.945 195.555 197.477 196.094C198.016 196.633 198.77 196.902 199.738 196.902C200.223 196.902 200.703 196.805 201.18 196.609C201.656 196.414 202.082 196.141 202.457 195.789L204.027 197.359C203.426 197.938 202.75 198.387 202 198.707C201.25 199.02 200.496 199.176 199.738 199.176ZM210.789 199.059C209.789 199.059 209.062 198.781 208.609 198.227C208.164 197.672 207.941 196.875 207.941 195.836V183.297H210.332V195.859C210.332 196.148 210.391 196.375 210.508 196.539C210.625 196.703 210.797 196.785 211.023 196.785H212.172V199.059H210.789ZM206.688 188.992V186.836H212.172V188.992H206.688ZM214.457 188.359V181.961H216.965V185.758L214.457 188.359ZM223.199 199.176C222.121 199.176 221.141 199.02 220.258 198.707C219.383 198.387 218.598 197.91 217.902 197.277L219.32 195.531C219.984 196.031 220.637 196.406 221.277 196.656C221.926 196.906 222.566 197.031 223.199 197.031C224.145 197.031 224.852 196.887 225.32 196.598C225.797 196.301 226.035 195.859 226.035 195.273C226.035 194.82 225.875 194.5 225.555 194.312C225.242 194.125 224.828 194.004 224.312 193.949C223.805 193.887 223.258 193.836 222.672 193.797C222.18 193.758 221.691 193.699 221.207 193.621C220.723 193.535 220.281 193.387 219.883 193.176C219.484 192.957 219.164 192.637 218.922 192.215C218.688 191.793 218.57 191.227 218.57 190.516C218.57 189.227 218.965 188.262 219.754 187.621C220.543 186.98 221.719 186.66 223.281 186.66C224.234 186.66 225.121 186.789 225.941 187.047C226.762 187.305 227.531 187.699 228.25 188.23L226.809 189.977C226.199 189.586 225.598 189.293 225.004 189.098C224.418 188.902 223.844 188.805 223.281 188.805C222.469 188.805 221.859 188.945 221.453 189.227C221.047 189.5 220.844 189.914 220.844 190.469C220.844 190.836 220.984 191.102 221.266 191.266C221.547 191.422 221.918 191.523 222.379 191.57C222.84 191.617 223.336 191.66 223.867 191.699C224.375 191.73 224.887 191.789 225.402 191.875C225.926 191.953 226.406 192.109 226.844 192.344C227.281 192.578 227.633 192.926 227.898 193.387C228.164 193.848 228.297 194.477 228.297 195.273C228.297 196.578 227.871 197.555 227.02 198.203C226.176 198.852 224.902 199.176 223.199 199.176ZM243.25 199V185.184C243.25 184.113 243.496 183.309 243.988 182.77C244.48 182.23 245.246 181.961 246.285 181.961H248.043V184.234H246.332C246.09 184.234 245.914 184.328 245.805 184.516C245.695 184.695 245.641 184.91 245.641 185.16V199H243.25ZM241.961 188.875V186.836H248.043V188.875H241.961ZM250.867 184.352V181.961H253.258V184.352H250.867ZM250.867 199V186.836H253.258V199H250.867ZM256.891 199V186.836H259.281V199H256.891ZM264.273 199V191.629C264.273 190.77 264.051 190.105 263.605 189.637C263.168 189.168 262.543 188.934 261.73 188.934C260.949 188.934 260.344 189.141 259.914 189.555C259.492 189.969 259.281 190.551 259.281 191.301L259.035 188.957C259.41 188.223 259.898 187.656 260.5 187.258C261.109 186.859 261.781 186.66 262.516 186.66C263.836 186.66 264.855 187.094 265.574 187.961C266.301 188.82 266.664 190.039 266.664 191.617V199H264.273ZM277.211 199V181.961H279.602V199H277.211ZM274.152 199.211C272.809 199.211 271.77 198.781 271.035 197.922C270.309 197.055 269.945 195.836 269.945 194.266V191.582C269.945 190.004 270.301 188.785 271.012 187.926C271.73 187.059 272.738 186.625 274.035 186.625C274.754 186.625 275.41 186.812 276.004 187.188C276.605 187.562 277.09 188.09 277.457 188.77L277.211 191.254C277.211 190.738 277.117 190.297 276.93 189.93C276.742 189.562 276.469 189.285 276.109 189.098C275.758 188.902 275.328 188.805 274.82 188.805C274.031 188.805 273.418 189.051 272.98 189.543C272.551 190.035 272.336 190.727 272.336 191.617V194.266C272.336 195.148 272.551 195.832 272.98 196.316C273.418 196.793 274.031 197.031 274.82 197.031C275.328 197.031 275.758 196.934 276.109 196.738C276.469 196.535 276.742 196.246 276.93 195.871C277.117 195.496 277.211 195.047 277.211 194.523L277.375 197.09C277.156 197.637 276.777 198.129 276.238 198.566C275.707 198.996 275.012 199.211 274.152 199.211ZM299.453 199.176C297.859 199.176 296.625 198.715 295.75 197.793C294.875 196.863 294.438 195.559 294.438 193.879V191.898C294.438 190.234 294.875 188.945 295.75 188.031C296.625 187.117 297.859 186.66 299.453 186.66C301.047 186.66 302.281 187.117 303.156 188.031C304.031 188.945 304.469 190.234 304.469 191.898V193.914C304.469 195.586 304.031 196.883 303.156 197.805C302.281 198.719 301.047 199.176 299.453 199.176ZM299.453 196.902C300.289 196.902 300.934 196.641 301.387 196.117C301.848 195.594 302.078 194.859 302.078 193.914V191.898C302.078 190.953 301.848 190.223 301.387 189.707C300.934 189.191 300.289 188.934 299.453 188.934C298.625 188.934 297.98 189.191 297.52 189.707C297.059 190.223 296.828 190.953 296.828 191.898V193.914C296.828 194.859 297.059 195.594 297.52 196.117C297.98 196.641 298.625 196.902 299.453 196.902ZM314.898 199V186.836H317.277V199H314.898ZM309.953 186.836V194.23C309.953 195.082 310.168 195.742 310.598 196.211C311.035 196.672 311.648 196.902 312.438 196.902C313.227 196.902 313.832 196.695 314.254 196.281C314.684 195.859 314.898 195.27 314.898 194.512L315.062 197.055C314.844 197.602 314.461 198.094 313.914 198.531C313.367 198.961 312.652 199.176 311.77 199.176C310.426 199.176 309.387 198.746 308.652 197.887C307.926 197.02 307.562 195.801 307.562 194.23V186.836H309.953ZM324.086 199.059C323.086 199.059 322.359 198.781 321.906 198.227C321.461 197.672 321.238 196.875 321.238 195.836V183.297H323.629V195.859C323.629 196.148 323.688 196.375 323.805 196.539C323.922 196.703 324.094 196.785 324.32 196.785H325.469V199.059H324.086ZM319.984 188.992V186.836H325.469V188.992H319.984ZM343.469 199.059C342.469 199.059 341.742 198.781 341.289 198.227C340.844 197.672 340.621 196.875 340.621 195.836V183.297H343.012V195.859C343.012 196.148 343.07 196.375 343.188 196.539C343.305 196.703 343.477 196.785 343.703 196.785H344.852V199.059H343.469ZM339.367 188.992V186.836H344.852V188.992H339.367ZM348.133 199V181.961H350.523V199H348.133ZM355.516 199V191.629C355.516 190.77 355.293 190.105 354.848 189.637C354.41 189.168 353.785 188.934 352.973 188.934C352.191 188.934 351.586 189.137 351.156 189.543C350.734 189.949 350.523 190.523 350.523 191.266L350.277 188.922C350.652 188.203 351.141 187.648 351.742 187.258C352.352 186.859 353.023 186.66 353.758 186.66C355.078 186.66 356.098 187.094 356.816 187.961C357.543 188.82 357.906 190.039 357.906 191.617V199H355.516ZM366.52 199.176C364.824 199.176 363.512 198.703 362.582 197.758C361.652 196.812 361.188 195.469 361.188 193.727V192.355C361.188 190.543 361.633 189.141 362.523 188.148C363.422 187.156 364.684 186.66 366.309 186.66C367.84 186.66 369.023 187.223 369.859 188.348C370.703 189.473 371.125 191.051 371.125 193.082V193.879H362.922V191.957H368.852C368.781 190.973 368.523 190.203 368.078 189.648C367.641 189.094 367.051 188.816 366.309 188.816C365.41 188.816 364.711 189.113 364.211 189.707C363.711 190.301 363.461 191.141 363.461 192.227V193.773C363.461 194.781 363.727 195.555 364.258 196.094C364.797 196.633 365.551 196.902 366.52 196.902C367.004 196.902 367.484 196.805 367.961 196.609C368.438 196.414 368.863 196.141 369.238 195.789L370.809 197.359C370.207 197.938 369.531 198.387 368.781 198.707C368.031 199.02 367.277 199.176 366.52 199.176ZM389.125 199.059C388.125 199.059 387.398 198.781 386.945 198.227C386.5 197.672 386.277 196.875 386.277 195.836V183.297H388.668V195.859C388.668 196.148 388.727 196.375 388.844 196.539C388.961 196.703 389.133 196.785 389.359 196.785H390.508V199.059H389.125ZM385.023 188.992V186.836H390.508V188.992H385.023ZM393.789 199V186.836H396.18V199H393.789ZM400.48 189.719C400.27 189.461 400.004 189.266 399.684 189.133C399.363 189 398.992 188.934 398.57 188.934C397.812 188.934 397.223 189.145 396.801 189.566C396.387 189.98 396.18 190.559 396.18 191.301L395.934 188.957C396.301 188.238 396.781 187.676 397.375 187.27C397.977 186.863 398.637 186.66 399.355 186.66C399.91 186.66 400.41 186.742 400.855 186.906C401.309 187.062 401.703 187.297 402.039 187.609L400.48 189.719ZM411.367 199V186.836H413.746V199H411.367ZM406.422 186.836V194.23C406.422 195.082 406.637 195.742 407.066 196.211C407.504 196.672 408.117 196.902 408.906 196.902C409.695 196.902 410.301 196.695 410.723 196.281C411.152 195.859 411.367 195.27 411.367 194.512L411.531 197.055C411.312 197.602 410.93 198.094 410.383 198.531C409.836 198.961 409.121 199.176 408.238 199.176C406.895 199.176 405.855 198.746 405.121 197.887C404.395 197.02 404.031 195.801 404.031 194.23V186.836H406.422ZM420.555 199.059C419.555 199.059 418.828 198.781 418.375 198.227C417.93 197.672 417.707 196.875 417.707 195.836V183.297H420.098V195.859C420.098 196.148 420.156 196.375 420.273 196.539C420.391 196.703 420.562 196.785 420.789 196.785H421.938V199.059H420.555ZM416.453 188.992V186.836H421.938V188.992H416.453ZM425.219 199V181.961H427.609V199H425.219ZM432.602 199V191.629C432.602 190.77 432.379 190.105 431.934 189.637C431.496 189.168 430.871 188.934 430.059 188.934C429.277 188.934 428.672 189.137 428.242 189.543C427.82 189.949 427.609 190.523 427.609 191.266L427.363 188.922C427.738 188.203 428.227 187.648 428.828 187.258C429.438 186.859 430.109 186.66 430.844 186.66C432.164 186.66 433.184 187.094 433.902 187.961C434.629 188.82 434.992 190.039 434.992 191.617V199H432.602ZM454.844 199.176C453.25 199.176 452.016 198.715 451.141 197.793C450.266 196.863 449.828 195.559 449.828 193.879V191.898C449.828 190.234 450.266 188.945 451.141 188.031C452.016 187.117 453.25 186.66 454.844 186.66C456.438 186.66 457.672 187.117 458.547 188.031C459.422 188.945 459.859 190.234 459.859 191.898V193.914C459.859 195.586 459.422 196.883 458.547 197.805C457.672 198.719 456.438 199.176 454.844 199.176ZM454.844 196.902C455.68 196.902 456.324 196.641 456.777 196.117C457.238 195.594 457.469 194.859 457.469 193.914V191.898C457.469 190.953 457.238 190.223 456.777 189.707C456.324 189.191 455.68 188.934 454.844 188.934C454.016 188.934 453.371 189.191 452.91 189.707C452.449 190.223 452.219 190.953 452.219 191.898V193.914C452.219 194.859 452.449 195.594 452.91 196.117C453.371 196.641 454.016 196.902 454.844 196.902ZM463.609 199V185.184C463.609 184.113 463.855 183.309 464.348 182.77C464.84 182.23 465.605 181.961 466.645 181.961H468.402V184.234H466.691C466.449 184.234 466.273 184.328 466.164 184.516C466.055 184.695 466 184.91 466 185.16V199H463.609ZM462.32 188.875V186.836H468.402V188.875H462.32ZM53.875 228V210.961H56.2656V228H53.875ZM61.2578 228V220.629C61.2578 219.77 61.0352 219.105 60.5898 218.637C60.1523 218.168 59.5273 217.934 58.7148 217.934C57.9336 217.934 57.3281 218.137 56.8984 218.543C56.4766 218.949 56.2656 219.523 56.2656 220.266L56.0195 217.922C56.3945 217.203 56.8828 216.648 57.4844 216.258C58.0938 215.859 58.7656 215.66 59.5 215.66C60.8203 215.66 61.8398 216.094 62.5586 216.961C63.2852 217.82 63.6484 219.039 63.6484 220.617V228H61.2578ZM73.9727 215.836H76.4102L71.2305 230.848C70.9414 231.684 70.5234 232.262 69.9766 232.582C69.4297 232.91 68.6797 233.074 67.7266 233.074H67.2461V230.777H67.7266C68.1719 230.777 68.5234 230.688 68.7812 230.508C69.0469 230.328 69.2773 230.02 69.4727 229.582L73.9727 215.836ZM70.4922 228.996L65.6406 215.836H68.0781L71.8164 226.406L70.4922 228.996ZM78.5312 232.945V215.836H80.9219V232.945H78.5312ZM83.9805 228.176C83.2227 228.176 82.5625 227.996 82 227.637C81.4375 227.27 81.0234 226.754 80.7578 226.09L80.9219 223.547C80.9219 224.07 81.0156 224.516 81.2031 224.883C81.3906 225.25 81.6602 225.531 82.0117 225.727C82.3711 225.922 82.8047 226.02 83.3125 226.02C84.1016 226.02 84.7109 225.781 85.1406 225.305C85.5781 224.82 85.7969 224.141 85.7969 223.266V220.629C85.7969 219.738 85.5781 219.047 85.1406 218.555C84.7109 218.062 84.1016 217.816 83.3125 217.816C82.8047 217.816 82.3711 217.91 82.0117 218.098C81.6602 218.285 81.3906 218.559 81.2031 218.918C81.0156 219.277 80.9219 219.715 80.9219 220.23L80.6758 217.887C81.043 217.176 81.5234 216.629 82.1172 216.246C82.7109 215.855 83.3711 215.66 84.0977 215.66C85.4023 215.66 86.4102 216.094 87.1211 216.961C87.832 217.82 88.1875 219.039 88.1875 220.617V223.266C88.1875 224.82 87.8203 226.027 87.0859 226.887C86.3516 227.746 85.3164 228.176 83.9805 228.176ZM96.25 228.176C94.6562 228.176 93.4219 227.715 92.5469 226.793C91.6719 225.863 91.2344 224.559 91.2344 222.879V220.898C91.2344 219.234 91.6719 217.945 92.5469 217.031C93.4219 216.117 94.6562 215.66 96.25 215.66C97.8438 215.66 99.0781 216.117 99.9531 217.031C100.828 217.945 101.266 219.234 101.266 220.898V222.914C101.266 224.586 100.828 225.883 99.9531 226.805C99.0781 227.719 97.8438 228.176 96.25 228.176ZM96.25 225.902C97.0859 225.902 97.7305 225.641 98.1836 225.117C98.6445 224.594 98.875 223.859 98.875 222.914V220.898C98.875 219.953 98.6445 219.223 98.1836 218.707C97.7305 218.191 97.0859 217.934 96.25 217.934C95.4219 217.934 94.7773 218.191 94.3164 218.707C93.8555 219.223 93.625 219.953 93.625 220.898V222.914C93.625 223.859 93.8555 224.594 94.3164 225.117C94.7773 225.641 95.4219 225.902 96.25 225.902ZM107.828 228.059C106.828 228.059 106.102 227.781 105.648 227.227C105.203 226.672 104.98 225.875 104.98 224.836V212.297H107.371V224.859C107.371 225.148 107.43 225.375 107.547 225.539C107.664 225.703 107.836 225.785 108.062 225.785H109.211V228.059H107.828ZM103.727 217.992V215.836H109.211V217.992H103.727ZM112.492 228V210.961H114.883V228H112.492ZM119.875 228V220.629C119.875 219.77 119.652 219.105 119.207 218.637C118.77 218.168 118.145 217.934 117.332 217.934C116.551 217.934 115.945 218.137 115.516 218.543C115.094 218.949 114.883 219.523 114.883 220.266L114.637 217.922C115.012 217.203 115.5 216.648 116.102 216.258C116.711 215.859 117.383 215.66 118.117 215.66C119.438 215.66 120.457 216.094 121.176 216.961C121.902 217.82 122.266 219.039 122.266 220.617V228H119.875ZM132.766 228V220.289C132.766 219.492 132.551 218.875 132.121 218.438C131.699 217.992 131.098 217.77 130.316 217.77C129.84 217.77 129.367 217.844 128.898 217.992C128.438 218.133 128.023 218.34 127.656 218.613L125.91 217.418C126.371 216.863 126.977 216.434 127.727 216.129C128.484 215.816 129.324 215.66 130.246 215.66C131.77 215.66 132.949 216.055 133.785 216.844C134.621 217.633 135.039 218.746 135.039 220.184V228H132.766ZM129.789 228.176C128.297 228.176 127.176 227.867 126.426 227.25C125.684 226.633 125.312 225.688 125.312 224.414C125.312 223.203 125.652 222.301 126.332 221.707C127.02 221.105 128.047 220.805 129.414 220.805H132.871L133.035 222.727H129.426C128.809 222.727 128.344 222.867 128.031 223.148C127.719 223.422 127.562 223.844 127.562 224.414C127.562 225.031 127.77 225.488 128.184 225.785C128.598 226.082 129.219 226.23 130.047 226.23C130.953 226.23 131.633 226.133 132.086 225.938C132.539 225.742 132.766 225.438 132.766 225.023L133.012 226.734C132.801 227.062 132.539 227.332 132.227 227.543C131.914 227.754 131.555 227.91 131.148 228.012C130.75 228.121 130.297 228.176 129.789 228.176ZM141.062 210.961V224.859C141.062 225.148 141.125 225.375 141.25 225.539C141.383 225.703 141.566 225.785 141.801 225.785H142.926V228.059H141.52C140.621 228.059 139.922 227.777 139.422 227.215C138.922 226.652 138.672 225.859 138.672 224.836V210.961H141.062ZM152.383 228V220.289C152.383 219.492 152.168 218.875 151.738 218.438C151.316 217.992 150.715 217.77 149.934 217.77C149.457 217.77 148.984 217.844 148.516 217.992C148.055 218.133 147.641 218.34 147.273 218.613L145.527 217.418C145.988 216.863 146.594 216.434 147.344 216.129C148.102 215.816 148.941 215.66 149.863 215.66C151.387 215.66 152.566 216.055 153.402 216.844C154.238 217.633 154.656 218.746 154.656 220.184V228H152.383ZM149.406 228.176C147.914 228.176 146.793 227.867 146.043 227.25C145.301 226.633 144.93 225.688 144.93 224.414C144.93 223.203 145.27 222.301 145.949 221.707C146.637 221.105 147.664 220.805 149.031 220.805H152.488L152.652 222.727H149.043C148.426 222.727 147.961 222.867 147.648 223.148C147.336 223.422 147.18 223.844 147.18 224.414C147.18 225.031 147.387 225.488 147.801 225.785C148.215 226.082 148.836 226.23 149.664 226.23C150.57 226.23 151.25 226.133 151.703 225.938C152.156 225.742 152.383 225.438 152.383 225.023L152.629 226.734C152.418 227.062 152.156 227.332 151.844 227.543C151.531 227.754 151.172 227.91 150.766 228.012C150.367 228.121 149.914 228.176 149.406 228.176ZM172.82 228V220.629C172.82 219.77 172.598 219.105 172.152 218.637C171.715 218.168 171.09 217.934 170.277 217.934C169.535 217.934 168.961 218.16 168.555 218.613C168.148 219.066 167.945 219.707 167.945 220.535L167.465 218.191C167.855 217.379 168.363 216.754 168.988 216.316C169.613 215.879 170.305 215.66 171.062 215.66C172.383 215.66 173.402 216.094 174.121 216.961C174.848 217.82 175.211 219.039 175.211 220.617V228H172.82ZM158.289 228V215.836H160.68V228H158.289ZM165.555 228V220.629C165.555 219.77 165.344 219.105 164.922 218.637C164.5 218.168 163.902 217.934 163.129 217.934C162.348 217.934 161.742 218.141 161.312 218.555C160.891 218.969 160.68 219.551 160.68 220.301L160.434 217.957C160.809 217.223 161.297 216.656 161.898 216.258C162.508 215.859 163.18 215.66 163.914 215.66C165.195 215.66 166.188 216.094 166.891 216.961C167.594 217.82 167.945 219.039 167.945 220.617V228H165.555ZM186.18 228V215.836H188.559V228H186.18ZM181.234 215.836V223.23C181.234 224.082 181.449 224.742 181.879 225.211C182.316 225.672 182.93 225.902 183.719 225.902C184.508 225.902 185.113 225.695 185.535 225.281C185.965 224.859 186.18 224.27 186.18 223.512L186.344 226.055C186.125 226.602 185.742 227.094 185.195 227.531C184.648 227.961 183.934 228.176 183.051 228.176C181.707 228.176 180.668 227.746 179.934 226.887C179.207 226.02 178.844 224.801 178.844 223.23V215.836H181.234ZM196.504 228.176C195.426 228.176 194.445 228.02 193.562 227.707C192.688 227.387 191.902 226.91 191.207 226.277L192.625 224.531C193.289 225.031 193.941 225.406 194.582 225.656C195.23 225.906 195.871 226.031 196.504 226.031C197.449 226.031 198.156 225.887 198.625 225.598C199.102 225.301 199.34 224.859 199.34 224.273C199.34 223.82 199.18 223.5 198.859 223.312C198.547 223.125 198.133 223.004 197.617 222.949C197.109 222.887 196.562 222.836 195.977 222.797C195.484 222.758 194.996 222.699 194.512 222.621C194.027 222.535 193.586 222.387 193.188 222.176C192.789 221.957 192.469 221.637 192.227 221.215C191.992 220.793 191.875 220.227 191.875 219.516C191.875 218.227 192.27 217.262 193.059 216.621C193.848 215.98 195.023 215.66 196.586 215.66C197.539 215.66 198.426 215.789 199.246 216.047C200.066 216.305 200.836 216.699 201.555 217.23L200.113 218.977C199.504 218.586 198.902 218.293 198.309 218.098C197.723 217.902 197.148 217.805 196.586 217.805C195.773 217.805 195.164 217.945 194.758 218.227C194.352 218.5 194.148 218.914 194.148 219.469C194.148 219.836 194.289 220.102 194.57 220.266C194.852 220.422 195.223 220.523 195.684 220.57C196.145 220.617 196.641 220.66 197.172 220.699C197.68 220.73 198.191 220.789 198.707 220.875C199.23 220.953 199.711 221.109 200.148 221.344C200.586 221.578 200.938 221.926 201.203 222.387C201.469 222.848 201.602 223.477 201.602 224.273C201.602 225.578 201.176 226.555 200.324 227.203C199.48 227.852 198.207 228.176 196.504 228.176ZM204.238 228V225.492H206.746V228H204.238Z" fill="white"/>
<path d="M143.869 76.2637C142.088 76.2637 140.529 75.8711 139.193 75.0859C137.857 74.2891 136.82 73.1758 136.082 71.7461C135.344 70.3164 134.975 68.6465 134.975 66.7363V59.7227C134.975 57.8008 135.344 56.125 136.082 54.6953C136.82 53.2656 137.857 52.1582 139.193 51.373C140.529 50.5762 142.088 50.1777 143.869 50.1777C145.346 50.1777 146.693 50.4941 147.912 51.127C149.143 51.7598 150.168 52.6445 150.988 53.7812C151.82 54.918 152.383 56.248 152.676 57.7715H149.002C148.779 56.9512 148.404 56.2363 147.877 55.627C147.361 55.0059 146.752 54.5254 146.049 54.1855C145.346 53.8457 144.619 53.6758 143.869 53.6758C142.299 53.6758 141.033 54.2324 140.072 55.3457C139.123 56.4473 138.648 57.9062 138.648 59.7227V66.7363C138.648 68.5527 139.123 70.0117 140.072 71.1133C141.033 72.2148 142.299 72.7656 143.869 72.7656C144.982 72.7656 146.031 72.4141 147.016 71.7109C148 71.0078 148.662 69.9941 149.002 68.6699H152.676C152.383 70.1934 151.82 71.5234 150.988 72.6602C150.156 73.7969 149.131 74.6816 147.912 75.3145C146.693 75.9473 145.346 76.2637 143.869 76.2637ZM164.436 76.2637C162.045 76.2637 160.193 75.5723 158.881 74.1895C157.568 72.7949 156.912 70.8379 156.912 68.3184V65.3477C156.912 62.8516 157.568 60.918 158.881 59.5469C160.193 58.1758 162.045 57.4902 164.436 57.4902C166.826 57.4902 168.678 58.1758 169.99 59.5469C171.303 60.918 171.959 62.8516 171.959 65.3477V68.3711C171.959 70.8789 171.303 72.8242 169.99 74.207C168.678 75.5781 166.826 76.2637 164.436 76.2637ZM164.436 72.8535C165.689 72.8535 166.656 72.4609 167.336 71.6758C168.027 70.8906 168.373 69.7891 168.373 68.3711V65.3477C168.373 63.9297 168.027 62.834 167.336 62.0605C166.656 61.2871 165.689 60.9004 164.436 60.9004C163.193 60.9004 162.227 61.2871 161.535 62.0605C160.844 62.834 160.498 63.9297 160.498 65.3477V68.3711C160.498 69.7891 160.844 70.8906 161.535 71.6758C162.227 72.4609 163.193 72.8535 164.436 72.8535ZM177.057 76V57.7539H180.643V76H177.057ZM188.131 76V64.9434C188.131 63.6543 187.797 62.6582 187.129 61.9551C186.473 61.252 185.535 60.9004 184.316 60.9004C183.145 60.9004 182.236 61.2109 181.592 61.832C180.959 62.4531 180.643 63.3262 180.643 64.4512L180.273 60.9355C180.836 59.834 181.568 58.9844 182.471 58.3867C183.385 57.7891 184.393 57.4902 185.494 57.4902C187.475 57.4902 189.004 58.1406 190.082 59.4414C191.172 60.7305 191.717 62.5586 191.717 64.9258V76H188.131ZM203.283 83.418C201.912 83.418 200.682 83.1602 199.592 82.6445C198.514 82.1406 197.676 81.4258 197.078 80.5L199.504 78.3027C199.973 78.9473 200.529 79.4453 201.174 79.7969C201.83 80.1484 202.516 80.3242 203.23 80.3242C204.602 80.3242 205.662 79.9434 206.412 79.1816C207.162 78.4316 207.537 77.3652 207.537 75.9824V57.7539H211.123V75.4551C211.123 77.9863 210.438 79.9434 209.066 81.3262C207.707 82.7207 205.779 83.418 203.283 83.418ZM202.949 76.3164C200.934 76.3164 199.375 75.6719 198.273 74.3828C197.184 73.082 196.639 71.2539 196.639 68.8984V64.873C196.639 62.5059 197.172 60.6777 198.238 59.3887C199.316 58.0879 200.828 57.4375 202.773 57.4375C203.852 57.4375 204.836 57.7188 205.727 58.2812C206.629 58.8438 207.355 59.6348 207.906 60.6543L207.537 64.3809C207.537 63.6074 207.396 62.9453 207.115 62.3945C206.834 61.8438 206.424 61.4277 205.885 61.1465C205.357 60.8535 204.713 60.707 203.951 60.707C202.768 60.707 201.848 61.0762 201.191 61.8145C200.547 62.5527 200.225 63.5898 200.225 64.9258V68.8984C200.225 70.2227 200.547 71.248 201.191 71.9746C201.848 72.6895 202.768 73.0469 203.951 73.0469C204.713 73.0469 205.357 72.9004 205.885 72.6074C206.424 72.3027 206.834 71.8691 207.115 71.3066C207.396 70.7441 207.537 70.0703 207.537 69.2852L207.783 73.1348C207.455 73.9551 206.887 74.6934 206.078 75.3496C205.281 75.9941 204.238 76.3164 202.949 76.3164ZM216.572 76V57.7539H220.158V76H216.572ZM226.609 62.0781C226.293 61.6914 225.895 61.3984 225.414 61.1992C224.934 61 224.377 60.9004 223.744 60.9004C222.607 60.9004 221.723 61.2168 221.09 61.8496C220.469 62.4707 220.158 63.3379 220.158 64.4512L219.789 60.9355C220.34 59.8574 221.061 59.0137 221.951 58.4043C222.854 57.7949 223.844 57.4902 224.922 57.4902C225.754 57.4902 226.504 57.6133 227.172 57.8594C227.852 58.0938 228.443 58.4453 228.947 58.9141L226.609 62.0781ZM242.236 76V64.4336C242.236 63.2383 241.914 62.3125 241.27 61.6562C240.637 60.9883 239.734 60.6543 238.562 60.6543C237.848 60.6543 237.139 60.7656 236.436 60.9883C235.744 61.1992 235.123 61.5098 234.572 61.9199L231.953 60.127C232.645 59.2949 233.553 58.6504 234.678 58.1934C235.814 57.7246 237.074 57.4902 238.457 57.4902C240.742 57.4902 242.512 58.082 243.766 59.2656C245.02 60.4492 245.646 62.1191 245.646 64.2754V76H242.236ZM237.771 76.2637C235.533 76.2637 233.852 75.8008 232.727 74.875C231.613 73.9492 231.057 72.5312 231.057 70.6211C231.057 68.8047 231.566 67.4512 232.586 66.5605C233.617 65.6582 235.158 65.207 237.209 65.207H242.395L242.641 68.0898H237.227C236.301 68.0898 235.604 68.3008 235.135 68.7227C234.666 69.1328 234.432 69.7656 234.432 70.6211C234.432 71.5469 234.742 72.2324 235.363 72.6777C235.984 73.123 236.916 73.3457 238.158 73.3457C239.518 73.3457 240.537 73.1992 241.217 72.9062C241.896 72.6133 242.236 72.1562 242.236 71.5352L242.605 74.1016C242.289 74.5938 241.896 74.998 241.428 75.3145C240.959 75.6309 240.42 75.8652 239.811 76.0176C239.213 76.1816 238.533 76.2637 237.771 76.2637ZM255.842 76.0879C254.342 76.0879 253.252 75.6719 252.572 74.8398C251.904 74.0078 251.57 72.8125 251.57 71.2539V52.4453H255.156V71.2891C255.156 71.7227 255.244 72.0625 255.42 72.3086C255.596 72.5547 255.854 72.6777 256.193 72.6777H257.916V76.0879H255.842ZM249.689 60.9883V57.7539H257.916V60.9883H249.689ZM273.842 76V57.7539H277.41V76H273.842ZM266.424 57.7539V68.8457C266.424 70.123 266.746 71.1133 267.391 71.8164C268.047 72.5078 268.967 72.8535 270.15 72.8535C271.334 72.8535 272.242 72.543 272.875 71.9219C273.52 71.2891 273.842 70.4043 273.842 69.2676L274.088 73.082C273.76 73.9023 273.186 74.6406 272.365 75.2969C271.545 75.9414 270.473 76.2637 269.148 76.2637C267.133 76.2637 265.574 75.6191 264.473 74.3301C263.383 73.0293 262.838 71.2012 262.838 68.8457V57.7539H266.424ZM286.463 50.4414V71.2891C286.463 71.7227 286.557 72.0625 286.744 72.3086C286.943 72.5547 287.219 72.6777 287.57 72.6777H289.258V76.0879H287.148C285.801 76.0879 284.752 75.666 284.002 74.8223C283.252 73.9785 282.877 72.7891 282.877 71.2539V50.4414H286.463ZM303.443 76V64.4336C303.443 63.2383 303.121 62.3125 302.477 61.6562C301.844 60.9883 300.941 60.6543 299.77 60.6543C299.055 60.6543 298.346 60.7656 297.643 60.9883C296.951 61.1992 296.33 61.5098 295.779 61.9199L293.16 60.127C293.852 59.2949 294.76 58.6504 295.885 58.1934C297.021 57.7246 298.281 57.4902 299.664 57.4902C301.949 57.4902 303.719 58.082 304.973 59.2656C306.227 60.4492 306.854 62.1191 306.854 64.2754V76H303.443ZM298.979 76.2637C296.74 76.2637 295.059 75.8008 293.934 74.875C292.82 73.9492 292.264 72.5312 292.264 70.6211C292.264 68.8047 292.773 67.4512 293.793 66.5605C294.824 65.6582 296.365 65.207 298.416 65.207H303.602L303.848 68.0898H298.434C297.508 68.0898 296.811 68.3008 296.342 68.7227C295.873 69.1328 295.639 69.7656 295.639 70.6211C295.639 71.5469 295.949 72.2324 296.57 72.6777C297.191 73.123 298.123 73.3457 299.365 73.3457C300.725 73.3457 301.744 73.1992 302.424 72.9062C303.104 72.6133 303.443 72.1562 303.443 71.5352L303.812 74.1016C303.496 74.5938 303.104 74.998 302.635 75.3145C302.166 75.6309 301.627 75.8652 301.018 76.0176C300.42 76.1816 299.74 76.2637 298.979 76.2637ZM317.049 76.0879C315.549 76.0879 314.459 75.6719 313.779 74.8398C313.111 74.0078 312.777 72.8125 312.777 71.2539V52.4453H316.363V71.2891C316.363 71.7227 316.451 72.0625 316.627 72.3086C316.803 72.5547 317.061 72.6777 317.4 72.6777H319.123V76.0879H317.049ZM310.896 60.9883V57.7539H319.123V60.9883H310.896ZM324.045 54.0273V50.4414H327.631V54.0273H324.045ZM324.045 76V57.7539H327.631V76H324.045ZM340.076 76.2637C337.686 76.2637 335.834 75.5723 334.521 74.1895C333.209 72.7949 332.553 70.8379 332.553 68.3184V65.3477C332.553 62.8516 333.209 60.918 334.521 59.5469C335.834 58.1758 337.686 57.4902 340.076 57.4902C342.467 57.4902 344.318 58.1758 345.631 59.5469C346.943 60.918 347.6 62.8516 347.6 65.3477V68.3711C347.6 70.8789 346.943 72.8242 345.631 74.207C344.318 75.5781 342.467 76.2637 340.076 76.2637ZM340.076 72.8535C341.33 72.8535 342.297 72.4609 342.977 71.6758C343.668 70.8906 344.014 69.7891 344.014 68.3711V65.3477C344.014 63.9297 343.668 62.834 342.977 62.0605C342.297 61.2871 341.33 60.9004 340.076 60.9004C338.834 60.9004 337.867 61.2871 337.176 62.0605C336.484 62.834 336.139 63.9297 336.139 65.3477V68.3711C336.139 69.7891 336.484 70.8906 337.176 71.6758C337.867 72.4609 338.834 72.8535 340.076 72.8535ZM352.697 76V57.7539H356.283V76H352.697ZM363.771 76V64.9434C363.771 63.6543 363.438 62.6582 362.77 61.9551C362.113 61.252 361.176 60.9004 359.957 60.9004C358.785 60.9004 357.877 61.2109 357.232 61.832C356.6 62.4531 356.283 63.3262 356.283 64.4512L355.914 60.9355C356.477 59.834 357.209 58.9844 358.111 58.3867C359.025 57.7891 360.033 57.4902 361.135 57.4902C363.115 57.4902 364.645 58.1406 365.723 59.4414C366.812 60.7305 367.357 62.5586 367.357 64.9258V76H363.771ZM379.258 76.2637C377.641 76.2637 376.17 76.0293 374.846 75.5605C373.533 75.0801 372.355 74.3652 371.312 73.416L373.439 70.7969C374.436 71.5469 375.414 72.1094 376.375 72.4844C377.348 72.8594 378.309 73.0469 379.258 73.0469C380.676 73.0469 381.736 72.8301 382.439 72.3965C383.154 71.9512 383.512 71.2891 383.512 70.4102C383.512 69.7305 383.271 69.25 382.791 68.9688C382.322 68.6875 381.701 68.5059 380.928 68.4238C380.166 68.3301 379.346 68.2539 378.467 68.1953C377.729 68.1367 376.996 68.0488 376.27 67.9316C375.543 67.8027 374.881 67.5801 374.283 67.2637C373.686 66.9355 373.205 66.4551 372.842 65.8223C372.49 65.1895 372.314 64.3398 372.314 63.2734C372.314 61.3398 372.906 59.8926 374.09 58.9316C375.273 57.9707 377.037 57.4902 379.381 57.4902C380.811 57.4902 382.141 57.6836 383.371 58.0703C384.602 58.457 385.756 59.0488 386.834 59.8457L384.672 62.4648C383.758 61.8789 382.855 61.4395 381.965 61.1465C381.086 60.8535 380.225 60.707 379.381 60.707C378.162 60.707 377.248 60.918 376.639 61.3398C376.029 61.75 375.725 62.3711 375.725 63.2031C375.725 63.7539 375.936 64.1523 376.357 64.3984C376.779 64.6328 377.336 64.7852 378.027 64.8555C378.719 64.9258 379.463 64.9902 380.26 65.0488C381.021 65.0957 381.789 65.1836 382.562 65.3125C383.348 65.4297 384.068 65.6641 384.725 66.0156C385.381 66.3672 385.908 66.8887 386.307 67.5801C386.705 68.2715 386.904 69.2148 386.904 70.4102C386.904 72.3672 386.266 73.832 384.988 74.8047C383.723 75.7773 381.812 76.2637 379.258 76.2637Z" fill="white"/>
<rect x="161" y="285" width="200" height="54" rx="27" fill="#FFE500"/>
<path d="M195.5 323V300.281H199.781V323H195.5ZM197.406 323V318.875H210.719V323H197.406ZM213.844 323V300.281H218.125V323H213.844ZM215.391 323V318.875H229.062V323H215.391ZM215.391 313.781V309.656H227.344V313.781H215.391ZM215.391 304.406V300.281H229.062V304.406H215.391ZM236.656 323V302.141H240.938V323H236.656ZM230.469 304.406V300.281H247.125V304.406H230.469ZM247.203 309.969V300.281H251.484V305.875L247.203 309.969ZM260.891 323.234C259.807 323.234 258.745 323.125 257.703 322.906C256.672 322.688 255.703 322.37 254.797 321.953C253.891 321.526 253.073 321.016 252.344 320.422L254.328 316.891C255.203 317.609 256.214 318.167 257.359 318.562C258.505 318.948 259.682 319.141 260.891 319.141C262.286 319.141 263.37 318.906 264.141 318.438C264.911 317.958 265.297 317.286 265.297 316.422V316.406C265.297 315.75 265.104 315.25 264.719 314.906C264.333 314.552 263.823 314.292 263.188 314.125C262.562 313.958 261.88 313.818 261.141 313.703C260.255 313.568 259.359 313.401 258.453 313.203C257.547 312.995 256.714 312.672 255.953 312.234C255.193 311.786 254.578 311.151 254.109 310.328C253.651 309.505 253.422 308.406 253.422 307.031V307.016C253.422 304.797 254.151 303.083 255.609 301.875C257.068 300.656 259.13 300.047 261.797 300.047C263.026 300.047 264.276 300.255 265.547 300.672C266.818 301.078 268 301.661 269.094 302.422L267.281 306.047C266.406 305.432 265.49 304.964 264.531 304.641C263.583 304.307 262.672 304.141 261.797 304.141C260.484 304.141 259.469 304.359 258.75 304.797C258.031 305.224 257.672 305.828 257.672 306.609V306.625C257.672 307.354 257.885 307.906 258.312 308.281C258.74 308.656 259.297 308.938 259.984 309.125C260.672 309.302 261.411 309.469 262.203 309.625C263.078 309.792 263.948 310 264.812 310.25C265.677 310.49 266.469 310.839 267.188 311.297C267.906 311.755 268.479 312.385 268.906 313.188C269.333 313.99 269.547 315.031 269.547 316.312V316.344C269.547 318.531 268.792 320.229 267.281 321.438C265.771 322.635 263.641 323.234 260.891 323.234ZM290.344 310.297H298.219V314.734C298.219 316.443 297.875 317.938 297.188 319.219C296.5 320.49 295.536 321.479 294.297 322.188C293.068 322.885 291.62 323.234 289.953 323.234C288.276 323.234 286.807 322.906 285.547 322.25C284.297 321.583 283.323 320.651 282.625 319.453C281.938 318.245 281.594 316.839 281.594 315.234V308.531C281.594 306.823 281.938 305.333 282.625 304.062C283.312 302.792 284.271 301.807 285.5 301.109C286.74 300.401 288.193 300.047 289.859 300.047C291.234 300.047 292.484 300.328 293.609 300.891C294.745 301.453 295.698 302.24 296.469 303.25C297.24 304.26 297.76 305.443 298.031 306.797H293.406C293.177 306.057 292.719 305.49 292.031 305.094C291.354 304.688 290.63 304.484 289.859 304.484C288.703 304.484 287.776 304.854 287.078 305.594C286.38 306.333 286.031 307.312 286.031 308.531V315.234C286.031 316.307 286.391 317.172 287.109 317.828C287.828 318.474 288.776 318.797 289.953 318.797C291.109 318.797 292.036 318.448 292.734 317.75C293.432 317.042 293.781 316.057 293.781 314.797V314.422H290.344V310.297ZM309.953 323.234C308.286 323.234 306.828 322.891 305.578 322.203C304.339 321.505 303.375 320.526 302.688 319.266C302 318.005 301.656 316.536 301.656 314.859V308.422C301.656 306.734 302 305.266 302.688 304.016C303.375 302.755 304.339 301.781 305.578 301.094C306.828 300.396 308.286 300.047 309.953 300.047C311.62 300.047 313.073 300.396 314.312 301.094C315.562 301.781 316.531 302.755 317.219 304.016C317.906 305.266 318.25 306.734 318.25 308.422V314.859C318.25 316.536 317.906 318.005 317.219 319.266C316.531 320.526 315.562 321.505 314.312 322.203C313.073 322.891 311.62 323.234 309.953 323.234ZM309.953 318.953C311.12 318.953 312.052 318.589 312.75 317.859C313.458 317.13 313.812 316.167 313.812 314.969V308.312C313.812 307.104 313.458 306.141 312.75 305.422C312.052 304.693 311.12 304.328 309.953 304.328C308.786 304.328 307.849 304.693 307.141 305.422C306.443 306.141 306.094 307.104 306.094 308.312V314.969C306.094 316.167 306.443 317.13 307.141 317.859C307.849 318.589 308.786 318.953 309.953 318.953ZM322.469 316.234V300.281H326.75V316.234H322.469ZM322.469 323V318.719H326.75V323H322.469Z" fill="#9E6DD0"/>
<defs>
<linearGradient id="paint0_linear_42_599" x1="522" y1="187" x2="-3.47566e-06" y2="187" gradientUnits="userSpaceOnUse">
<stop stop-color="#DD63C2"/>
<stop offset="1" stop-color="#6376DD"/>
</linearGradient>
</defs>
</svg>
