<svg width="522" height="400" viewBox="0 0 522 400" fill="none" xmlns="http://www.w3.org/2000/svg">
<rect width="522" height="400" rx="50" fill="url(#paint0_linear_42_395)"/>
<path d="M56.582 141V125.355H58.9727V141H56.582ZM51.7656 126.234V123.961H63.7891V126.234H51.7656ZM65.4297 141V123.961H67.8203V141H65.4297ZM72.8125 141V133.629C72.8125 132.77 72.5898 132.105 72.1445 131.637C71.707 131.168 71.082 130.934 70.2695 130.934C69.4883 130.934 68.8828 131.137 68.4531 131.543C68.0312 131.949 67.8203 132.523 67.8203 133.266L67.5742 130.922C67.9492 130.203 68.4375 129.648 69.0391 129.258C69.6484 128.859 70.3203 128.66 71.0547 128.66C72.375 128.66 73.3945 129.094 74.1133 129.961C74.8398 130.82 75.2031 132.039 75.2031 133.617V141H72.8125ZM83.8164 141.176C82.1211 141.176 80.8086 140.703 79.8789 139.758C78.9492 138.812 78.4844 137.469 78.4844 135.727V134.355C78.4844 132.543 78.9297 131.141 79.8203 130.148C80.7188 129.156 81.9805 128.66 83.6055 128.66C85.1367 128.66 86.3203 129.223 87.1562 130.348C88 131.473 88.4219 133.051 88.4219 135.082V135.879H80.2188V133.957H86.1484C86.0781 132.973 85.8203 132.203 85.375 131.648C84.9375 131.094 84.3477 130.816 83.6055 130.816C82.707 130.816 82.0078 131.113 81.5078 131.707C81.0078 132.301 80.7578 133.141 80.7578 134.227V135.773C80.7578 136.781 81.0234 137.555 81.5547 138.094C82.0938 138.633 82.8477 138.902 83.8164 138.902C84.3008 138.902 84.7812 138.805 85.2578 138.609C85.7344 138.414 86.1602 138.141 86.5352 137.789L88.1055 139.359C87.5039 139.938 86.8281 140.387 86.0781 140.707C85.3281 141.02 84.5742 141.176 83.8164 141.176ZM106.045 141.176C104.373 141.176 103.076 140.715 102.154 139.793C101.24 138.871 100.783 137.57 100.783 135.891V133.887C100.783 132.223 101.24 130.938 102.154 130.031C103.076 129.117 104.373 128.66 106.045 128.66C106.998 128.66 107.857 128.828 108.623 129.164C109.388 129.5 109.998 129.98 110.451 130.605L108.728 132.152C108.392 131.762 107.994 131.461 107.533 131.25C107.072 131.039 106.588 130.934 106.08 130.934C105.158 130.934 104.443 131.191 103.935 131.707C103.427 132.223 103.173 132.949 103.173 133.887V135.891C103.173 136.852 103.427 137.594 103.935 138.117C104.443 138.641 105.158 138.902 106.08 138.902C106.588 138.902 107.072 138.789 107.533 138.562C107.994 138.336 108.392 138.016 108.728 137.602L110.451 139.266C109.998 139.875 109.384 140.348 108.611 140.684C107.845 141.012 106.99 141.176 106.045 141.176ZM118.068 141.176C116.373 141.176 115.06 140.703 114.13 139.758C113.201 138.812 112.736 137.469 112.736 135.727V134.355C112.736 132.543 113.181 131.141 114.072 130.148C114.97 129.156 116.232 128.66 117.857 128.66C119.388 128.66 120.572 129.223 121.408 130.348C122.252 131.473 122.673 133.051 122.673 135.082V135.879H114.47V133.957H120.4C120.33 132.973 120.072 132.203 119.627 131.648C119.189 131.094 118.599 130.816 117.857 130.816C116.959 130.816 116.259 131.113 115.759 131.707C115.259 132.301 115.009 133.141 115.009 134.227V135.773C115.009 136.781 115.275 137.555 115.806 138.094C116.345 138.633 117.099 138.902 118.068 138.902C118.552 138.902 119.033 138.805 119.509 138.609C119.986 138.414 120.412 138.141 120.787 137.789L122.357 139.359C121.755 139.938 121.08 140.387 120.33 140.707C119.58 141.02 118.826 141.176 118.068 141.176ZM125.955 141V128.836H128.345V141H125.955ZM132.646 131.719C132.435 131.461 132.17 131.266 131.849 131.133C131.529 131 131.158 130.934 130.736 130.934C129.978 130.934 129.388 131.145 128.966 131.566C128.552 131.98 128.345 132.559 128.345 133.301L128.099 130.957C128.466 130.238 128.947 129.676 129.541 129.27C130.142 128.863 130.802 128.66 131.521 128.66C132.076 128.66 132.576 128.742 133.021 128.906C133.474 129.062 133.869 129.297 134.205 129.609L132.646 131.719ZM140.943 141.176C139.248 141.176 137.935 140.703 137.005 139.758C136.076 138.812 135.611 137.469 135.611 135.727V134.355C135.611 132.543 136.056 131.141 136.947 130.148C137.845 129.156 139.107 128.66 140.732 128.66C142.263 128.66 143.447 129.223 144.283 130.348C145.127 131.473 145.548 133.051 145.548 135.082V135.879H137.345V133.957H143.275C143.205 132.973 142.947 132.203 142.502 131.648C142.064 131.094 141.474 130.816 140.732 130.816C139.834 130.816 139.134 131.113 138.634 131.707C138.134 132.301 137.884 133.141 137.884 134.227V135.773C137.884 136.781 138.15 137.555 138.681 138.094C139.22 138.633 139.974 138.902 140.943 138.902C141.427 138.902 141.908 138.805 142.384 138.609C142.861 138.414 143.287 138.141 143.662 137.789L145.232 139.359C144.63 139.938 143.955 140.387 143.205 140.707C142.455 141.02 141.701 141.176 140.943 141.176ZM154.279 141.176C153.521 141.176 152.861 140.996 152.298 140.637C151.736 140.27 151.322 139.754 151.056 139.09L151.22 136.547C151.22 137.07 151.314 137.516 151.502 137.883C151.689 138.25 151.959 138.531 152.31 138.727C152.67 138.922 153.103 139.02 153.611 139.02C154.4 139.02 155.009 138.781 155.439 138.305C155.877 137.82 156.095 137.141 156.095 136.266V133.629C156.095 132.738 155.877 132.047 155.439 131.555C155.009 131.062 154.4 130.816 153.611 130.816C153.103 130.816 152.67 130.91 152.31 131.098C151.959 131.285 151.689 131.559 151.502 131.918C151.314 132.277 151.22 132.715 151.22 133.23L150.974 130.887C151.341 130.176 151.822 129.629 152.416 129.246C153.009 128.855 153.67 128.66 154.396 128.66C155.701 128.66 156.709 129.094 157.42 129.961C158.13 130.82 158.486 132.039 158.486 133.617V136.266C158.486 137.82 158.119 139.027 157.384 139.887C156.65 140.746 155.615 141.176 154.279 141.176ZM148.83 141V123.961H151.22V141H148.83ZM161.884 141V128.836H164.275V141H161.884ZM168.576 131.719C168.365 131.461 168.099 131.266 167.779 131.133C167.459 131 167.088 130.934 166.666 130.934C165.908 130.934 165.318 131.145 164.896 131.566C164.482 131.98 164.275 132.559 164.275 133.301L164.029 130.957C164.396 130.238 164.877 129.676 165.47 129.27C166.072 128.863 166.732 128.66 167.451 128.66C168.005 128.66 168.505 128.742 168.951 128.906C169.404 129.062 169.798 129.297 170.134 129.609L168.576 131.719ZM179.463 141V128.836H181.841V141H179.463ZM174.517 128.836V136.23C174.517 137.082 174.732 137.742 175.162 138.211C175.599 138.672 176.213 138.902 177.002 138.902C177.791 138.902 178.396 138.695 178.818 138.281C179.248 137.859 179.463 137.27 179.463 136.512L179.627 139.055C179.408 139.602 179.025 140.094 178.478 140.531C177.931 140.961 177.216 141.176 176.334 141.176C174.99 141.176 173.951 140.746 173.216 139.887C172.49 139.02 172.127 137.801 172.127 136.23V128.836H174.517ZM200.017 141V133.629C200.017 132.77 199.795 132.105 199.349 131.637C198.912 131.168 198.287 130.934 197.474 130.934C196.732 130.934 196.158 131.16 195.752 131.613C195.345 132.066 195.142 132.707 195.142 133.535L194.662 131.191C195.052 130.379 195.56 129.754 196.185 129.316C196.81 128.879 197.502 128.66 198.259 128.66C199.58 128.66 200.599 129.094 201.318 129.961C202.045 130.82 202.408 132.039 202.408 133.617V141H200.017ZM185.486 141V128.836H187.877V141H185.486ZM192.752 141V133.629C192.752 132.77 192.541 132.105 192.119 131.637C191.697 131.168 191.099 130.934 190.326 130.934C189.545 130.934 188.939 131.141 188.509 131.555C188.087 131.969 187.877 132.551 187.877 133.301L187.63 130.957C188.005 130.223 188.494 129.656 189.095 129.258C189.705 128.859 190.377 128.66 191.111 128.66C192.392 128.66 193.384 129.094 194.087 129.961C194.791 130.82 195.142 132.039 195.142 133.617V141H192.752ZM220.382 141.176C218.71 141.176 217.413 140.715 216.491 139.793C215.577 138.871 215.12 137.57 215.12 135.891V133.887C215.12 132.223 215.577 130.938 216.491 130.031C217.413 129.117 218.71 128.66 220.382 128.66C221.335 128.66 222.195 128.828 222.96 129.164C223.726 129.5 224.335 129.98 224.788 130.605L223.066 132.152C222.73 131.762 222.331 131.461 221.87 131.25C221.409 131.039 220.925 130.934 220.417 130.934C219.495 130.934 218.78 131.191 218.273 131.707C217.765 132.223 217.511 132.949 217.511 133.887V135.891C217.511 136.852 217.765 137.594 218.273 138.117C218.78 138.641 219.495 138.902 220.417 138.902C220.925 138.902 221.409 138.789 221.87 138.562C222.331 138.336 222.73 138.016 223.066 137.602L224.788 139.266C224.335 139.875 223.722 140.348 222.948 140.684C222.183 141.012 221.327 141.176 220.382 141.176ZM232.089 141.176C230.495 141.176 229.261 140.715 228.386 139.793C227.511 138.863 227.073 137.559 227.073 135.879V133.898C227.073 132.234 227.511 130.945 228.386 130.031C229.261 129.117 230.495 128.66 232.089 128.66C233.683 128.66 234.917 129.117 235.792 130.031C236.667 130.945 237.105 132.234 237.105 133.898V135.914C237.105 137.586 236.667 138.883 235.792 139.805C234.917 140.719 233.683 141.176 232.089 141.176ZM232.089 138.902C232.925 138.902 233.57 138.641 234.023 138.117C234.484 137.594 234.714 136.859 234.714 135.914V133.898C234.714 132.953 234.484 132.223 234.023 131.707C233.57 131.191 232.925 130.934 232.089 130.934C231.261 130.934 230.616 131.191 230.155 131.707C229.695 132.223 229.464 132.953 229.464 133.898V135.914C229.464 136.859 229.695 137.594 230.155 138.117C230.616 138.641 231.261 138.902 232.089 138.902ZM240.503 141V128.836H242.894V141H240.503ZM247.886 141V133.629C247.886 132.77 247.663 132.105 247.218 131.637C246.78 131.168 246.155 130.934 245.343 130.934C244.562 130.934 243.956 131.141 243.527 131.555C243.105 131.969 242.894 132.551 242.894 133.301L242.648 130.957C243.023 130.223 243.511 129.656 244.113 129.258C244.722 128.859 245.394 128.66 246.128 128.66C247.448 128.66 248.468 129.094 249.187 129.961C249.913 130.82 250.277 132.039 250.277 133.617V141H247.886ZM257.073 141.059C256.073 141.059 255.347 140.781 254.894 140.227C254.448 139.672 254.226 138.875 254.226 137.836V125.297H256.616V137.859C256.616 138.148 256.675 138.375 256.792 138.539C256.909 138.703 257.081 138.785 257.308 138.785H258.456V141.059H257.073ZM252.972 130.992V128.836H258.456V130.992H252.972ZM261.738 141V128.836H264.128V141H261.738ZM268.429 131.719C268.218 131.461 267.952 131.266 267.632 131.133C267.312 131 266.941 130.934 266.519 130.934C265.761 130.934 265.171 131.145 264.749 131.566C264.335 131.98 264.128 132.559 264.128 133.301L263.882 130.957C264.249 130.238 264.73 129.676 265.323 129.27C265.925 128.863 266.585 128.66 267.304 128.66C267.859 128.66 268.359 128.742 268.804 128.906C269.257 129.062 269.652 129.297 269.988 129.609L268.429 131.719ZM276.409 141.176C274.816 141.176 273.581 140.715 272.706 139.793C271.831 138.863 271.394 137.559 271.394 135.879V133.898C271.394 132.234 271.831 130.945 272.706 130.031C273.581 129.117 274.816 128.66 276.409 128.66C278.003 128.66 279.238 129.117 280.113 130.031C280.988 130.945 281.425 132.234 281.425 133.898V135.914C281.425 137.586 280.988 138.883 280.113 139.805C279.238 140.719 278.003 141.176 276.409 141.176ZM276.409 138.902C277.245 138.902 277.89 138.641 278.343 138.117C278.804 137.594 279.034 136.859 279.034 135.914V133.898C279.034 132.953 278.804 132.223 278.343 131.707C277.89 131.191 277.245 130.934 276.409 130.934C275.581 130.934 274.937 131.191 274.476 131.707C274.015 132.223 273.784 132.953 273.784 133.898V135.914C273.784 136.859 274.015 137.594 274.476 138.117C274.937 138.641 275.581 138.902 276.409 138.902ZM287.214 123.961V137.859C287.214 138.148 287.277 138.375 287.402 138.539C287.534 138.703 287.718 138.785 287.952 138.785H289.077V141.059H287.671C286.773 141.059 286.073 140.777 285.573 140.215C285.073 139.652 284.823 138.859 284.823 137.836V123.961H287.214ZM295.968 141.176C294.89 141.176 293.909 141.02 293.027 140.707C292.152 140.387 291.366 139.91 290.671 139.277L292.089 137.531C292.753 138.031 293.405 138.406 294.046 138.656C294.695 138.906 295.335 139.031 295.968 139.031C296.913 139.031 297.62 138.887 298.089 138.598C298.566 138.301 298.804 137.859 298.804 137.273C298.804 136.82 298.644 136.5 298.323 136.312C298.011 136.125 297.597 136.004 297.081 135.949C296.573 135.887 296.027 135.836 295.441 135.797C294.948 135.758 294.46 135.699 293.976 135.621C293.491 135.535 293.05 135.387 292.652 135.176C292.253 134.957 291.933 134.637 291.691 134.215C291.456 133.793 291.339 133.227 291.339 132.516C291.339 131.227 291.734 130.262 292.523 129.621C293.312 128.98 294.488 128.66 296.05 128.66C297.003 128.66 297.89 128.789 298.71 129.047C299.53 129.305 300.3 129.699 301.019 130.23L299.577 131.977C298.968 131.586 298.366 131.293 297.773 131.098C297.187 130.902 296.613 130.805 296.05 130.805C295.238 130.805 294.628 130.945 294.222 131.227C293.816 131.5 293.613 131.914 293.613 132.469C293.613 132.836 293.753 133.102 294.034 133.266C294.316 133.422 294.687 133.523 295.148 133.57C295.609 133.617 296.105 133.66 296.636 133.699C297.144 133.73 297.655 133.789 298.171 133.875C298.695 133.953 299.175 134.109 299.613 134.344C300.05 134.578 300.402 134.926 300.667 135.387C300.933 135.848 301.066 136.477 301.066 137.273C301.066 138.578 300.64 139.555 299.788 140.203C298.945 140.852 297.671 141.176 295.968 141.176ZM318.993 141.176C318.235 141.176 317.575 140.996 317.013 140.637C316.45 140.27 316.036 139.754 315.77 139.09L315.934 136.547C315.934 137.07 316.028 137.516 316.216 137.883C316.403 138.25 316.673 138.531 317.024 138.727C317.384 138.922 317.817 139.02 318.325 139.02C319.114 139.02 319.723 138.781 320.153 138.305C320.591 137.82 320.809 137.141 320.809 136.266V133.629C320.809 132.738 320.591 132.047 320.153 131.555C319.723 131.062 319.114 130.816 318.325 130.816C317.817 130.816 317.384 130.91 317.024 131.098C316.673 131.285 316.403 131.559 316.216 131.918C316.028 132.277 315.934 132.715 315.934 133.23L315.688 130.887C316.055 130.176 316.536 129.629 317.13 129.246C317.723 128.855 318.384 128.66 319.11 128.66C320.415 128.66 321.423 129.094 322.134 129.961C322.845 130.82 323.2 132.039 323.2 133.617V136.266C323.2 137.82 322.833 139.027 322.098 139.887C321.364 140.746 320.329 141.176 318.993 141.176ZM313.544 141V123.961H315.934V141H313.544ZM333.466 141V133.289C333.466 132.492 333.251 131.875 332.821 131.438C332.399 130.992 331.798 130.77 331.016 130.77C330.54 130.77 330.067 130.844 329.598 130.992C329.138 131.133 328.723 131.34 328.356 131.613L326.61 130.418C327.071 129.863 327.677 129.434 328.427 129.129C329.184 128.816 330.024 128.66 330.946 128.66C332.47 128.66 333.649 129.055 334.485 129.844C335.321 130.633 335.739 131.746 335.739 133.184V141H333.466ZM330.489 141.176C328.997 141.176 327.876 140.867 327.126 140.25C326.384 139.633 326.013 138.688 326.013 137.414C326.013 136.203 326.352 135.301 327.032 134.707C327.72 134.105 328.747 133.805 330.114 133.805H333.571L333.735 135.727H330.126C329.509 135.727 329.044 135.867 328.731 136.148C328.419 136.422 328.263 136.844 328.263 137.414C328.263 138.031 328.47 138.488 328.884 138.785C329.298 139.082 329.919 139.23 330.747 139.23C331.653 139.23 332.333 139.133 332.786 138.938C333.239 138.742 333.466 138.438 333.466 138.023L333.712 139.734C333.501 140.062 333.239 140.332 332.927 140.543C332.614 140.754 332.255 140.91 331.848 141.012C331.45 141.121 330.997 141.176 330.489 141.176ZM341.763 123.961V137.859C341.763 138.148 341.825 138.375 341.95 138.539C342.083 138.703 342.266 138.785 342.501 138.785H343.626V141.059H342.22C341.321 141.059 340.622 140.777 340.122 140.215C339.622 139.652 339.372 138.859 339.372 137.836V123.961H341.763ZM353.083 141V133.289C353.083 132.492 352.868 131.875 352.438 131.438C352.016 130.992 351.415 130.77 350.634 130.77C350.157 130.77 349.684 130.844 349.216 130.992C348.755 131.133 348.341 131.34 347.973 131.613L346.227 130.418C346.688 129.863 347.294 129.434 348.044 129.129C348.802 128.816 349.641 128.66 350.563 128.66C352.087 128.66 353.266 129.055 354.102 129.844C354.938 130.633 355.356 131.746 355.356 133.184V141H353.083ZM350.106 141.176C348.614 141.176 347.493 140.867 346.743 140.25C346.001 139.633 345.63 138.688 345.63 137.414C345.63 136.203 345.97 135.301 346.649 134.707C347.337 134.105 348.364 133.805 349.731 133.805H353.188L353.352 135.727H349.743C349.126 135.727 348.661 135.867 348.348 136.148C348.036 136.422 347.88 136.844 347.88 137.414C347.88 138.031 348.087 138.488 348.501 138.785C348.915 139.082 349.536 139.23 350.364 139.23C351.27 139.23 351.95 139.133 352.403 138.938C352.856 138.742 353.083 138.438 353.083 138.023L353.329 139.734C353.118 140.062 352.856 140.332 352.544 140.543C352.231 140.754 351.872 140.91 351.466 141.012C351.067 141.121 350.614 141.176 350.106 141.176ZM358.989 141V128.836H361.38V141H358.989ZM366.372 141V133.629C366.372 132.77 366.149 132.105 365.704 131.637C365.266 131.168 364.641 130.934 363.829 130.934C363.048 130.934 362.442 131.141 362.013 131.555C361.591 131.969 361.38 132.551 361.38 133.301L361.134 130.957C361.509 130.223 361.997 129.656 362.598 129.258C363.208 128.859 363.88 128.66 364.614 128.66C365.934 128.66 366.954 129.094 367.673 129.961C368.399 130.82 368.763 132.039 368.763 133.617V141H366.372ZM377.305 141.176C375.634 141.176 374.337 140.715 373.415 139.793C372.501 138.871 372.044 137.57 372.044 135.891V133.887C372.044 132.223 372.501 130.938 373.415 130.031C374.337 129.117 375.634 128.66 377.305 128.66C378.259 128.66 379.118 128.828 379.884 129.164C380.649 129.5 381.259 129.98 381.712 130.605L379.989 132.152C379.653 131.762 379.255 131.461 378.794 131.25C378.333 131.039 377.848 130.934 377.341 130.934C376.419 130.934 375.704 131.191 375.196 131.707C374.688 132.223 374.434 132.949 374.434 133.887V135.891C374.434 136.852 374.688 137.594 375.196 138.117C375.704 138.641 376.419 138.902 377.341 138.902C377.848 138.902 378.333 138.789 378.794 138.562C379.255 138.336 379.653 138.016 379.989 137.602L381.712 139.266C381.259 139.875 380.645 140.348 379.872 140.684C379.106 141.012 378.251 141.176 377.305 141.176ZM389.329 141.176C387.634 141.176 386.321 140.703 385.391 139.758C384.462 138.812 383.997 137.469 383.997 135.727V134.355C383.997 132.543 384.442 131.141 385.333 130.148C386.231 129.156 387.493 128.66 389.118 128.66C390.649 128.66 391.833 129.223 392.669 130.348C393.513 131.473 393.934 133.051 393.934 135.082V135.879H385.731V133.957H391.661C391.591 132.973 391.333 132.203 390.888 131.648C390.45 131.094 389.86 130.816 389.118 130.816C388.22 130.816 387.52 131.113 387.02 131.707C386.52 132.301 386.27 133.141 386.27 134.227V135.773C386.27 136.781 386.536 137.555 387.067 138.094C387.606 138.633 388.36 138.902 389.329 138.902C389.813 138.902 390.294 138.805 390.77 138.609C391.247 138.414 391.673 138.141 392.048 137.789L393.618 139.359C393.016 139.938 392.341 140.387 391.591 140.707C390.841 141.02 390.087 141.176 389.329 141.176ZM411.311 141.176C409.717 141.176 408.483 140.715 407.608 139.793C406.733 138.863 406.295 137.559 406.295 135.879V133.898C406.295 132.234 406.733 130.945 407.608 130.031C408.483 129.117 409.717 128.66 411.311 128.66C412.905 128.66 414.139 129.117 415.014 130.031C415.889 130.945 416.327 132.234 416.327 133.898V135.914C416.327 137.586 415.889 138.883 415.014 139.805C414.139 140.719 412.905 141.176 411.311 141.176ZM411.311 138.902C412.147 138.902 412.791 138.641 413.245 138.117C413.705 137.594 413.936 136.859 413.936 135.914V133.898C413.936 132.953 413.705 132.223 413.245 131.707C412.791 131.191 412.147 130.934 411.311 130.934C410.483 130.934 409.838 131.191 409.377 131.707C408.916 132.223 408.686 132.953 408.686 133.898V135.914C408.686 136.859 408.916 137.594 409.377 138.117C409.838 138.641 410.483 138.902 411.311 138.902ZM420.077 141V127.184C420.077 126.113 420.323 125.309 420.815 124.77C421.307 124.23 422.073 123.961 423.112 123.961H424.87V126.234H423.159C422.916 126.234 422.741 126.328 422.631 126.516C422.522 126.695 422.467 126.91 422.467 127.16V141H420.077ZM418.788 130.875V128.836H424.87V130.875H418.788ZM439.938 141.059C438.938 141.059 438.211 140.781 437.758 140.227C437.312 139.672 437.09 138.875 437.09 137.836V125.297H439.48V137.859C439.48 138.148 439.539 138.375 439.656 138.539C439.773 138.703 439.945 138.785 440.172 138.785H441.32V141.059H439.938ZM435.836 130.992V128.836H441.32V130.992H435.836ZM444.602 141V123.961H446.992V141H444.602ZM451.984 141V133.629C451.984 132.77 451.762 132.105 451.316 131.637C450.879 131.168 450.254 130.934 449.441 130.934C448.66 130.934 448.055 131.137 447.625 131.543C447.203 131.949 446.992 132.523 446.992 133.266L446.746 130.922C447.121 130.203 447.609 129.648 448.211 129.258C448.82 128.859 449.492 128.66 450.227 128.66C451.547 128.66 452.566 129.094 453.285 129.961C454.012 130.82 454.375 132.039 454.375 133.617V141H451.984ZM462.988 141.176C461.293 141.176 459.98 140.703 459.051 139.758C458.121 138.812 457.656 137.469 457.656 135.727V134.355C457.656 132.543 458.102 131.141 458.992 130.148C459.891 129.156 461.152 128.66 462.777 128.66C464.309 128.66 465.492 129.223 466.328 130.348C467.172 131.473 467.594 133.051 467.594 135.082V135.879H459.391V133.957H465.32C465.25 132.973 464.992 132.203 464.547 131.648C464.109 131.094 463.52 130.816 462.777 130.816C461.879 130.816 461.18 131.113 460.68 131.707C460.18 132.301 459.93 133.141 459.93 134.227V135.773C459.93 136.781 460.195 137.555 460.727 138.094C461.266 138.633 462.02 138.902 462.988 138.902C463.473 138.902 463.953 138.805 464.43 138.609C464.906 138.414 465.332 138.141 465.707 137.789L467.277 139.359C466.676 139.938 466 140.387 465.25 140.707C464.5 141.02 463.746 141.176 462.988 141.176ZM59.3242 170.176C58.5664 170.176 57.9062 169.996 57.3438 169.637C56.7812 169.27 56.3672 168.754 56.1016 168.09L56.2656 165.547C56.2656 166.07 56.3594 166.516 56.5469 166.883C56.7344 167.25 57.0039 167.531 57.3555 167.727C57.7148 167.922 58.1484 168.02 58.6562 168.02C59.4453 168.02 60.0547 167.781 60.4844 167.305C60.9219 166.82 61.1406 166.141 61.1406 165.266V162.629C61.1406 161.738 60.9219 161.047 60.4844 160.555C60.0547 160.062 59.4453 159.816 58.6562 159.816C58.1484 159.816 57.7148 159.91 57.3555 160.098C57.0039 160.285 56.7344 160.559 56.5469 160.918C56.3594 161.277 56.2656 161.715 56.2656 162.23L56.0195 159.887C56.3867 159.176 56.8672 158.629 57.4609 158.246C58.0547 157.855 58.7148 157.66 59.4414 157.66C60.7461 157.66 61.7539 158.094 62.4648 158.961C63.1758 159.82 63.5312 161.039 63.5312 162.617V165.266C63.5312 166.82 63.1641 168.027 62.4297 168.887C61.6953 169.746 60.6602 170.176 59.3242 170.176ZM53.875 170V152.961H56.2656V170H53.875ZM71.5938 170.176C70 170.176 68.7656 169.715 67.8906 168.793C67.0156 167.863 66.5781 166.559 66.5781 164.879V162.898C66.5781 161.234 67.0156 159.945 67.8906 159.031C68.7656 158.117 70 157.66 71.5938 157.66C73.1875 157.66 74.4219 158.117 75.2969 159.031C76.1719 159.945 76.6094 161.234 76.6094 162.898V164.914C76.6094 166.586 76.1719 167.883 75.2969 168.805C74.4219 169.719 73.1875 170.176 71.5938 170.176ZM71.5938 167.902C72.4297 167.902 73.0742 167.641 73.5273 167.117C73.9883 166.594 74.2188 165.859 74.2188 164.914V162.898C74.2188 161.953 73.9883 161.223 73.5273 160.707C73.0742 160.191 72.4297 159.934 71.5938 159.934C70.7656 159.934 70.1211 160.191 69.6602 160.707C69.1992 161.223 68.9688 161.953 68.9688 162.898V164.914C68.9688 165.859 69.1992 166.594 69.6602 167.117C70.1211 167.641 70.7656 167.902 71.5938 167.902ZM86.9219 170V152.961H89.3125V170H86.9219ZM83.8633 170.211C82.5195 170.211 81.4805 169.781 80.7461 168.922C80.0195 168.055 79.6562 166.836 79.6562 165.266V162.582C79.6562 161.004 80.0117 159.785 80.7227 158.926C81.4414 158.059 82.4492 157.625 83.7461 157.625C84.4648 157.625 85.1211 157.812 85.7148 158.188C86.3164 158.562 86.8008 159.09 87.168 159.77L86.9219 162.254C86.9219 161.738 86.8281 161.297 86.6406 160.93C86.4531 160.562 86.1797 160.285 85.8203 160.098C85.4688 159.902 85.0391 159.805 84.5312 159.805C83.7422 159.805 83.1289 160.051 82.6914 160.543C82.2617 161.035 82.0469 161.727 82.0469 162.617V165.266C82.0469 166.148 82.2617 166.832 82.6914 167.316C83.1289 167.793 83.7422 168.031 84.5312 168.031C85.0391 168.031 85.4688 167.934 85.8203 167.738C86.1797 167.535 86.4531 167.246 86.6406 166.871C86.8281 166.496 86.9219 166.047 86.9219 165.523L87.0859 168.09C86.8672 168.637 86.4883 169.129 85.9492 169.566C85.418 169.996 84.7227 170.211 83.8633 170.211ZM99.9883 157.836H102.426L97.2461 172.848C96.957 173.684 96.5391 174.262 95.9922 174.582C95.4453 174.91 94.6953 175.074 93.7422 175.074H93.2617V172.777H93.7422C94.1875 172.777 94.5391 172.688 94.7969 172.508C95.0625 172.328 95.293 172.02 95.4883 171.582L99.9883 157.836ZM96.5078 170.996L91.6562 157.836H94.0938L97.832 168.406L96.5078 170.996ZM102.73 170V167.492H105.238V170H102.73ZM136.534 170V152.961H138.925V170H136.534ZM126.855 170V152.961H129.245V170H126.855ZM128.343 162.746V160.473H137.8V162.746H128.343ZM147.89 170.176C146.195 170.176 144.882 169.703 143.952 168.758C143.023 167.812 142.558 166.469 142.558 164.727V163.355C142.558 161.543 143.003 160.141 143.894 159.148C144.792 158.156 146.054 157.66 147.679 157.66C149.21 157.66 150.394 158.223 151.23 159.348C152.073 160.473 152.495 162.051 152.495 164.082V164.879H144.292V162.957H150.222C150.152 161.973 149.894 161.203 149.448 160.648C149.011 160.094 148.421 159.816 147.679 159.816C146.78 159.816 146.081 160.113 145.581 160.707C145.081 161.301 144.831 162.141 144.831 163.227V164.773C144.831 165.781 145.097 166.555 145.628 167.094C146.167 167.633 146.921 167.902 147.89 167.902C148.374 167.902 148.855 167.805 149.331 167.609C149.808 167.414 150.234 167.141 150.609 166.789L152.179 168.359C151.577 168.938 150.902 169.387 150.152 169.707C149.402 170.02 148.648 170.176 147.89 170.176ZM158.167 152.961V166.859C158.167 167.148 158.23 167.375 158.355 167.539C158.488 167.703 158.671 167.785 158.905 167.785H160.03V170.059H158.624C157.726 170.059 157.027 169.777 156.527 169.215C156.027 168.652 155.777 167.859 155.777 166.836V152.961H158.167ZM162.62 174.945V157.836H165.011V174.945H162.62ZM168.07 170.176C167.312 170.176 166.652 169.996 166.089 169.637C165.527 169.27 165.113 168.754 164.847 168.09L165.011 165.547C165.011 166.07 165.105 166.516 165.292 166.883C165.48 167.25 165.749 167.531 166.101 167.727C166.46 167.922 166.894 168.02 167.402 168.02C168.191 168.02 168.8 167.781 169.23 167.305C169.667 166.82 169.886 166.141 169.886 165.266V162.629C169.886 161.738 169.667 161.047 169.23 160.555C168.8 160.062 168.191 159.816 167.402 159.816C166.894 159.816 166.46 159.91 166.101 160.098C165.749 160.285 165.48 160.559 165.292 160.918C165.105 161.277 165.011 161.715 165.011 162.23L164.765 159.887C165.132 159.176 165.613 158.629 166.206 158.246C166.8 157.855 167.46 157.66 168.187 157.66C169.491 157.66 170.499 158.094 171.21 158.961C171.921 159.82 172.277 161.039 172.277 162.617V165.266C172.277 166.82 171.909 168.027 171.175 168.887C170.441 169.746 169.405 170.176 168.07 170.176ZM194.069 173.82V150.945H196.342V173.82H194.069ZM195.241 173.82V171.664H198.545V173.82H195.241ZM195.241 153.102V150.945H198.545V153.102H195.241ZM205.682 170.176C204.01 170.176 202.713 169.715 201.791 168.793C200.877 167.871 200.42 166.57 200.42 164.891V162.887C200.42 161.223 200.877 159.938 201.791 159.031C202.713 158.117 204.01 157.66 205.682 157.66C206.635 157.66 207.495 157.828 208.26 158.164C209.026 158.5 209.635 158.98 210.088 159.605L208.366 161.152C208.03 160.762 207.631 160.461 207.17 160.25C206.709 160.039 206.225 159.934 205.717 159.934C204.795 159.934 204.08 160.191 203.573 160.707C203.065 161.223 202.811 161.949 202.811 162.887V164.891C202.811 165.852 203.065 166.594 203.573 167.117C204.08 167.641 204.795 167.902 205.717 167.902C206.225 167.902 206.709 167.789 207.17 167.562C207.631 167.336 208.03 167.016 208.366 166.602L210.088 168.266C209.635 168.875 209.022 169.348 208.248 169.684C207.483 170.012 206.627 170.176 205.682 170.176ZM212.725 170V152.961H215.116V170H212.725ZM220.108 170V162.629C220.108 161.77 219.885 161.105 219.44 160.637C219.002 160.168 218.377 159.934 217.565 159.934C216.784 159.934 216.178 160.137 215.748 160.543C215.327 160.949 215.116 161.523 215.116 162.266L214.87 159.922C215.245 159.203 215.733 158.648 216.334 158.258C216.944 157.859 217.616 157.66 218.35 157.66C219.67 157.66 220.69 158.094 221.409 158.961C222.135 159.82 222.498 161.039 222.498 162.617V170H220.108ZM232.998 170V162.289C232.998 161.492 232.784 160.875 232.354 160.438C231.932 159.992 231.33 159.77 230.549 159.77C230.073 159.77 229.6 159.844 229.131 159.992C228.67 160.133 228.256 160.34 227.889 160.613L226.143 159.418C226.604 158.863 227.209 158.434 227.959 158.129C228.717 157.816 229.557 157.66 230.479 157.66C232.002 157.66 233.182 158.055 234.018 158.844C234.854 159.633 235.272 160.746 235.272 162.184V170H232.998ZM230.022 170.176C228.53 170.176 227.409 169.867 226.659 169.25C225.916 168.633 225.545 167.688 225.545 166.414C225.545 165.203 225.885 164.301 226.565 163.707C227.252 163.105 228.28 162.805 229.647 162.805H233.104L233.268 164.727H229.659C229.041 164.727 228.577 164.867 228.264 165.148C227.952 165.422 227.795 165.844 227.795 166.414C227.795 167.031 228.002 167.488 228.416 167.785C228.83 168.082 229.452 168.23 230.28 168.23C231.186 168.23 231.866 168.133 232.319 167.938C232.772 167.742 232.998 167.438 232.998 167.023L233.245 168.734C233.034 169.062 232.772 169.332 232.459 169.543C232.147 169.754 231.788 169.91 231.381 170.012C230.983 170.121 230.53 170.176 230.022 170.176ZM238.905 170V157.836H241.295V170H238.905ZM245.596 160.719C245.385 160.461 245.12 160.266 244.799 160.133C244.479 160 244.108 159.934 243.686 159.934C242.928 159.934 242.338 160.145 241.916 160.566C241.502 160.98 241.295 161.559 241.295 162.301L241.049 159.957C241.416 159.238 241.897 158.676 242.491 158.27C243.092 157.863 243.752 157.66 244.471 157.66C245.026 157.66 245.526 157.742 245.971 157.906C246.424 158.062 246.819 158.297 247.155 158.609L245.596 160.719ZM256.014 170V162.289C256.014 161.492 255.799 160.875 255.37 160.438C254.948 159.992 254.346 159.77 253.565 159.77C253.088 159.77 252.616 159.844 252.147 159.992C251.686 160.133 251.272 160.34 250.905 160.613L249.159 159.418C249.62 158.863 250.225 158.434 250.975 158.129C251.733 157.816 252.573 157.66 253.495 157.66C255.018 157.66 256.198 158.055 257.034 158.844C257.87 159.633 258.288 160.746 258.288 162.184V170H256.014ZM253.038 170.176C251.545 170.176 250.424 169.867 249.674 169.25C248.932 168.633 248.561 167.688 248.561 166.414C248.561 165.203 248.901 164.301 249.58 163.707C250.268 163.105 251.295 162.805 252.663 162.805H256.12L256.284 164.727H252.674C252.057 164.727 251.592 164.867 251.28 165.148C250.967 165.422 250.811 165.844 250.811 166.414C250.811 167.031 251.018 167.488 251.432 167.785C251.846 168.082 252.467 168.23 253.295 168.23C254.202 168.23 254.881 168.133 255.334 167.938C255.788 167.742 256.014 167.438 256.014 167.023L256.26 168.734C256.049 169.062 255.788 169.332 255.475 169.543C255.163 169.754 254.803 169.91 254.397 170.012C253.998 170.121 253.545 170.176 253.038 170.176ZM266.83 170.176C265.159 170.176 263.862 169.715 262.94 168.793C262.026 167.871 261.569 166.57 261.569 164.891V162.887C261.569 161.223 262.026 159.938 262.94 159.031C263.862 158.117 265.159 157.66 266.83 157.66C267.784 157.66 268.643 157.828 269.409 158.164C270.174 158.5 270.784 158.98 271.237 159.605L269.514 161.152C269.178 160.762 268.78 160.461 268.319 160.25C267.858 160.039 267.373 159.934 266.866 159.934C265.944 159.934 265.229 160.191 264.721 160.707C264.213 161.223 263.959 161.949 263.959 162.887V164.891C263.959 165.852 264.213 166.594 264.721 167.117C265.229 167.641 265.944 167.902 266.866 167.902C267.373 167.902 267.858 167.789 268.319 167.562C268.78 167.336 269.178 167.016 269.514 166.602L271.237 168.266C270.784 168.875 270.17 169.348 269.397 169.684C268.631 170.012 267.776 170.176 266.83 170.176ZM277.038 170.059C276.038 170.059 275.311 169.781 274.858 169.227C274.413 168.672 274.19 167.875 274.19 166.836V154.297H276.58V166.859C276.58 167.148 276.639 167.375 276.756 167.539C276.873 167.703 277.045 167.785 277.272 167.785H278.42V170.059H277.038ZM272.936 159.992V157.836H278.42V159.992H272.936ZM286.682 170.176C284.987 170.176 283.674 169.703 282.745 168.758C281.815 167.812 281.35 166.469 281.35 164.727V163.355C281.35 161.543 281.795 160.141 282.686 159.148C283.584 158.156 284.846 157.66 286.471 157.66C288.002 157.66 289.186 158.223 290.022 159.348C290.866 160.473 291.288 162.051 291.288 164.082V164.879H283.084V162.957H289.014C288.944 161.973 288.686 161.203 288.241 160.648C287.803 160.094 287.213 159.816 286.471 159.816C285.573 159.816 284.873 160.113 284.373 160.707C283.873 161.301 283.623 162.141 283.623 163.227V164.773C283.623 165.781 283.889 166.555 284.42 167.094C284.959 167.633 285.713 167.902 286.682 167.902C287.166 167.902 287.647 167.805 288.123 167.609C288.6 167.414 289.026 167.141 289.401 166.789L290.971 168.359C290.37 168.938 289.694 169.387 288.944 169.707C288.194 170.02 287.44 170.176 286.682 170.176ZM294.569 170V157.836H296.959V170H294.569ZM301.26 160.719C301.049 160.461 300.784 160.266 300.463 160.133C300.143 160 299.772 159.934 299.35 159.934C298.592 159.934 298.002 160.145 297.58 160.566C297.166 160.98 296.959 161.559 296.959 162.301L296.713 159.957C297.08 159.238 297.561 158.676 298.155 158.27C298.756 157.863 299.416 157.66 300.135 157.66C300.69 157.66 301.19 157.742 301.635 157.906C302.088 158.062 302.483 158.297 302.819 158.609L301.26 160.719ZM305.491 173.82V150.945H307.764V173.82H305.491ZM303.288 173.82V171.664H306.592V173.82H303.288ZM303.288 153.102V150.945H306.592V153.102H303.288ZM334.209 170.176C333.13 170.176 332.15 170.02 331.267 169.707C330.392 169.387 329.607 168.91 328.912 168.277L330.33 166.531C330.994 167.031 331.646 167.406 332.287 167.656C332.935 167.906 333.576 168.031 334.209 168.031C335.154 168.031 335.861 167.887 336.33 167.598C336.806 167.301 337.045 166.859 337.045 166.273C337.045 165.82 336.884 165.5 336.564 165.312C336.252 165.125 335.837 165.004 335.322 164.949C334.814 164.887 334.267 164.836 333.681 164.797C333.189 164.758 332.701 164.699 332.216 164.621C331.732 164.535 331.291 164.387 330.892 164.176C330.494 163.957 330.173 163.637 329.931 163.215C329.697 162.793 329.58 162.227 329.58 161.516C329.58 160.227 329.974 159.262 330.763 158.621C331.552 157.98 332.728 157.66 334.291 157.66C335.244 157.66 336.13 157.789 336.951 158.047C337.771 158.305 338.541 158.699 339.259 159.23L337.818 160.977C337.209 160.586 336.607 160.293 336.013 160.098C335.427 159.902 334.853 159.805 334.291 159.805C333.478 159.805 332.869 159.945 332.462 160.227C332.056 160.5 331.853 160.914 331.853 161.469C331.853 161.836 331.994 162.102 332.275 162.266C332.556 162.422 332.927 162.523 333.388 162.57C333.849 162.617 334.345 162.66 334.877 162.699C335.384 162.73 335.896 162.789 336.412 162.875C336.935 162.953 337.416 163.109 337.853 163.344C338.291 163.578 338.642 163.926 338.908 164.387C339.173 164.848 339.306 165.477 339.306 166.273C339.306 167.578 338.88 168.555 338.029 169.203C337.185 169.852 335.912 170.176 334.209 170.176ZM345.517 170.059C344.517 170.059 343.791 169.781 343.337 169.227C342.892 168.672 342.67 167.875 342.67 166.836V154.297H345.06V166.859C345.06 167.148 345.119 167.375 345.236 167.539C345.353 167.703 345.525 167.785 345.752 167.785H346.9V170.059H345.517ZM341.416 159.992V157.836H346.9V159.992H341.416ZM357.048 170V162.289C357.048 161.492 356.834 160.875 356.404 160.438C355.982 159.992 355.38 159.77 354.599 159.77C354.123 159.77 353.65 159.844 353.181 159.992C352.72 160.133 352.306 160.34 351.939 160.613L350.193 159.418C350.654 158.863 351.259 158.434 352.009 158.129C352.767 157.816 353.607 157.66 354.529 157.66C356.052 157.66 357.232 158.055 358.068 158.844C358.904 159.633 359.322 160.746 359.322 162.184V170H357.048ZM354.072 170.176C352.58 170.176 351.459 169.867 350.709 169.25C349.966 168.633 349.595 167.688 349.595 166.414C349.595 165.203 349.935 164.301 350.615 163.707C351.302 163.105 352.33 162.805 353.697 162.805H357.154L357.318 164.727H353.709C353.091 164.727 352.627 164.867 352.314 165.148C352.002 165.422 351.845 165.844 351.845 166.414C351.845 167.031 352.052 167.488 352.466 167.785C352.88 168.082 353.502 168.23 354.33 168.23C355.236 168.23 355.916 168.133 356.369 167.938C356.822 167.742 357.048 167.438 357.048 167.023L357.295 168.734C357.084 169.062 356.822 169.332 356.509 169.543C356.197 169.754 355.837 169.91 355.431 170.012C355.033 170.121 354.58 170.176 354.072 170.176ZM369.646 157.836H372.084L366.904 172.848C366.615 173.684 366.197 174.262 365.65 174.582C365.103 174.91 364.353 175.074 363.4 175.074H362.92V172.777H363.4C363.845 172.777 364.197 172.688 364.455 172.508C364.72 172.328 364.951 172.02 365.146 171.582L369.646 157.836ZM366.166 170.996L361.314 157.836H363.752L367.49 168.406L366.166 170.996ZM396.911 170.176C395.317 170.176 394.083 169.715 393.208 168.793C392.333 167.863 391.895 166.559 391.895 164.879V162.898C391.895 161.234 392.333 159.945 393.208 159.031C394.083 158.117 395.317 157.66 396.911 157.66C398.505 157.66 399.739 158.117 400.614 159.031C401.489 159.945 401.927 161.234 401.927 162.898V164.914C401.927 166.586 401.489 167.883 400.614 168.805C399.739 169.719 398.505 170.176 396.911 170.176ZM396.911 167.902C397.747 167.902 398.391 167.641 398.845 167.117C399.305 166.594 399.536 165.859 399.536 164.914V162.898C399.536 161.953 399.305 161.223 398.845 160.707C398.391 160.191 397.747 159.934 396.911 159.934C396.083 159.934 395.438 160.191 394.977 160.707C394.516 161.223 394.286 161.953 394.286 162.898V164.914C394.286 165.859 394.516 166.594 394.977 167.117C395.438 167.641 396.083 167.902 396.911 167.902ZM405.325 170V157.836H407.716V170H405.325ZM412.708 170V162.629C412.708 161.77 412.485 161.105 412.04 160.637C411.602 160.168 410.977 159.934 410.165 159.934C409.384 159.934 408.778 160.141 408.348 160.555C407.927 160.969 407.716 161.551 407.716 162.301L407.47 159.957C407.845 159.223 408.333 158.656 408.934 158.258C409.544 157.859 410.216 157.66 410.95 157.66C412.27 157.66 413.29 158.094 414.009 158.961C414.735 159.82 415.098 161.039 415.098 162.617V170H412.708ZM439.938 170.059C438.938 170.059 438.211 169.781 437.758 169.227C437.312 168.672 437.09 167.875 437.09 166.836V154.297H439.48V166.859C439.48 167.148 439.539 167.375 439.656 167.539C439.773 167.703 439.945 167.785 440.172 167.785H441.32V170.059H439.938ZM435.836 159.992V157.836H441.32V159.992H435.836ZM444.602 170V152.961H446.992V170H444.602ZM451.984 170V162.629C451.984 161.77 451.762 161.105 451.316 160.637C450.879 160.168 450.254 159.934 449.441 159.934C448.66 159.934 448.055 160.137 447.625 160.543C447.203 160.949 446.992 161.523 446.992 162.266L446.746 159.922C447.121 159.203 447.609 158.648 448.211 158.258C448.82 157.859 449.492 157.66 450.227 157.66C451.547 157.66 452.566 158.094 453.285 158.961C454.012 159.82 454.375 161.039 454.375 162.617V170H451.984ZM462.988 170.176C461.293 170.176 459.98 169.703 459.051 168.758C458.121 167.812 457.656 166.469 457.656 164.727V163.355C457.656 161.543 458.102 160.141 458.992 159.148C459.891 158.156 461.152 157.66 462.777 157.66C464.309 157.66 465.492 158.223 466.328 159.348C467.172 160.473 467.594 162.051 467.594 164.082V164.879H459.391V162.957H465.32C465.25 161.973 464.992 161.203 464.547 160.648C464.109 160.094 463.52 159.816 462.777 159.816C461.879 159.816 461.18 160.113 460.68 160.707C460.18 161.301 459.93 162.141 459.93 163.227V164.773C459.93 165.781 460.195 166.555 460.727 167.094C461.266 167.633 462.02 167.902 462.988 167.902C463.473 167.902 463.953 167.805 464.43 167.609C464.906 167.414 465.332 167.141 465.707 166.789L467.277 168.359C466.676 168.938 466 169.387 465.25 169.707C464.5 170.02 463.746 170.176 462.988 170.176ZM59.3242 199.176C58.5664 199.176 57.9062 198.996 57.3438 198.637C56.7812 198.27 56.3672 197.754 56.1016 197.09L56.2656 194.547C56.2656 195.07 56.3594 195.516 56.5469 195.883C56.7344 196.25 57.0039 196.531 57.3555 196.727C57.7148 196.922 58.1484 197.02 58.6562 197.02C59.4453 197.02 60.0547 196.781 60.4844 196.305C60.9219 195.82 61.1406 195.141 61.1406 194.266V191.629C61.1406 190.738 60.9219 190.047 60.4844 189.555C60.0547 189.062 59.4453 188.816 58.6562 188.816C58.1484 188.816 57.7148 188.91 57.3555 189.098C57.0039 189.285 56.7344 189.559 56.5469 189.918C56.3594 190.277 56.2656 190.715 56.2656 191.23L56.0195 188.887C56.3867 188.176 56.8672 187.629 57.4609 187.246C58.0547 186.855 58.7148 186.66 59.4414 186.66C60.7461 186.66 61.7539 187.094 62.4648 187.961C63.1758 188.82 63.5312 190.039 63.5312 191.617V194.266C63.5312 195.82 63.1641 197.027 62.4297 197.887C61.6953 198.746 60.6602 199.176 59.3242 199.176ZM53.875 199V181.961H56.2656V199H53.875ZM73.7969 199V191.289C73.7969 190.492 73.582 189.875 73.1523 189.438C72.7305 188.992 72.1289 188.77 71.3477 188.77C70.8711 188.77 70.3984 188.844 69.9297 188.992C69.4688 189.133 69.0547 189.34 68.6875 189.613L66.9414 188.418C67.4023 187.863 68.0078 187.434 68.7578 187.129C69.5156 186.816 70.3555 186.66 71.2773 186.66C72.8008 186.66 73.9805 187.055 74.8164 187.844C75.6523 188.633 76.0703 189.746 76.0703 191.184V199H73.7969ZM70.8203 199.176C69.3281 199.176 68.207 198.867 67.457 198.25C66.7148 197.633 66.3438 196.688 66.3438 195.414C66.3438 194.203 66.6836 193.301 67.3633 192.707C68.0508 192.105 69.0781 191.805 70.4453 191.805H73.9023L74.0664 193.727H70.457C69.8398 193.727 69.375 193.867 69.0625 194.148C68.75 194.422 68.5938 194.844 68.5938 195.414C68.5938 196.031 68.8008 196.488 69.2148 196.785C69.6289 197.082 70.25 197.23 71.0781 197.23C71.9844 197.23 72.6641 197.133 73.1172 196.938C73.5703 196.742 73.7969 196.438 73.7969 196.023L74.043 197.734C73.832 198.062 73.5703 198.332 73.2578 198.543C72.9453 198.754 72.5859 198.91 72.1797 199.012C71.7812 199.121 71.3281 199.176 70.8203 199.176ZM82.0938 181.961V195.859C82.0938 196.148 82.1562 196.375 82.2812 196.539C82.4141 196.703 82.5977 196.785 82.832 196.785H83.957V199.059H82.5508C81.6523 199.059 80.9531 198.777 80.4531 198.215C79.9531 197.652 79.7031 196.859 79.7031 195.836V181.961H82.0938ZM93.4141 199V191.289C93.4141 190.492 93.1992 189.875 92.7695 189.438C92.3477 188.992 91.7461 188.77 90.9648 188.77C90.4883 188.77 90.0156 188.844 89.5469 188.992C89.0859 189.133 88.6719 189.34 88.3047 189.613L86.5586 188.418C87.0195 187.863 87.625 187.434 88.375 187.129C89.1328 186.816 89.9727 186.66 90.8945 186.66C92.418 186.66 93.5977 187.055 94.4336 187.844C95.2695 188.633 95.6875 189.746 95.6875 191.184V199H93.4141ZM90.4375 199.176C88.9453 199.176 87.8242 198.867 87.0742 198.25C86.332 197.633 85.9609 196.688 85.9609 195.414C85.9609 194.203 86.3008 193.301 86.9805 192.707C87.668 192.105 88.6953 191.805 90.0625 191.805H93.5195L93.6836 193.727H90.0742C89.457 193.727 88.9922 193.867 88.6797 194.148C88.3672 194.422 88.2109 194.844 88.2109 195.414C88.2109 196.031 88.418 196.488 88.832 196.785C89.2461 197.082 89.8672 197.23 90.6953 197.23C91.6016 197.23 92.2812 197.133 92.7344 196.938C93.1875 196.742 93.4141 196.438 93.4141 196.023L93.6602 197.734C93.4492 198.062 93.1875 198.332 92.875 198.543C92.5625 198.754 92.2031 198.91 91.7969 199.012C91.3984 199.121 90.9453 199.176 90.4375 199.176ZM99.3203 199V186.836H101.711V199H99.3203ZM106.703 199V191.629C106.703 190.77 106.48 190.105 106.035 189.637C105.598 189.168 104.973 188.934 104.16 188.934C103.379 188.934 102.773 189.141 102.344 189.555C101.922 189.969 101.711 190.551 101.711 191.301L101.465 188.957C101.84 188.223 102.328 187.656 102.93 187.258C103.539 186.859 104.211 186.66 104.945 186.66C106.266 186.66 107.285 187.094 108.004 187.961C108.73 188.82 109.094 190.039 109.094 191.617V199H106.703ZM117.637 199.176C115.965 199.176 114.668 198.715 113.746 197.793C112.832 196.871 112.375 195.57 112.375 193.891V191.887C112.375 190.223 112.832 188.938 113.746 188.031C114.668 187.117 115.965 186.66 117.637 186.66C118.59 186.66 119.449 186.828 120.215 187.164C120.98 187.5 121.59 187.98 122.043 188.605L120.32 190.152C119.984 189.762 119.586 189.461 119.125 189.25C118.664 189.039 118.18 188.934 117.672 188.934C116.75 188.934 116.035 189.191 115.527 189.707C115.02 190.223 114.766 190.949 114.766 191.887V193.891C114.766 194.852 115.02 195.594 115.527 196.117C116.035 196.641 116.75 196.902 117.672 196.902C118.18 196.902 118.664 196.789 119.125 196.562C119.586 196.336 119.984 196.016 120.32 195.602L122.043 197.266C121.59 197.875 120.977 198.348 120.203 198.684C119.438 199.012 118.582 199.176 117.637 199.176ZM129.66 199.176C127.965 199.176 126.652 198.703 125.723 197.758C124.793 196.812 124.328 195.469 124.328 193.727V192.355C124.328 190.543 124.773 189.141 125.664 188.148C126.562 187.156 127.824 186.66 129.449 186.66C130.98 186.66 132.164 187.223 133 188.348C133.844 189.473 134.266 191.051 134.266 193.082V193.879H126.062V191.957H131.992C131.922 190.973 131.664 190.203 131.219 189.648C130.781 189.094 130.191 188.816 129.449 188.816C128.551 188.816 127.852 189.113 127.352 189.707C126.852 190.301 126.602 191.141 126.602 192.227V193.773C126.602 194.781 126.867 195.555 127.398 196.094C127.938 196.633 128.691 196.902 129.66 196.902C130.145 196.902 130.625 196.805 131.102 196.609C131.578 196.414 132.004 196.141 132.379 195.789L133.949 197.359C133.348 197.938 132.672 198.387 131.922 198.707C131.172 199.02 130.418 199.176 129.66 199.176ZM149.441 199.176C148.684 199.176 148.023 198.996 147.461 198.637C146.898 198.27 146.484 197.754 146.219 197.09L146.383 194.547C146.383 195.07 146.477 195.516 146.664 195.883C146.852 196.25 147.121 196.531 147.473 196.727C147.832 196.922 148.266 197.02 148.773 197.02C149.562 197.02 150.172 196.781 150.602 196.305C151.039 195.82 151.258 195.141 151.258 194.266V191.629C151.258 190.738 151.039 190.047 150.602 189.555C150.172 189.062 149.562 188.816 148.773 188.816C148.266 188.816 147.832 188.91 147.473 189.098C147.121 189.285 146.852 189.559 146.664 189.918C146.477 190.277 146.383 190.715 146.383 191.23L146.137 188.887C146.504 188.176 146.984 187.629 147.578 187.246C148.172 186.855 148.832 186.66 149.559 186.66C150.863 186.66 151.871 187.094 152.582 187.961C153.293 188.82 153.648 190.039 153.648 191.617V194.266C153.648 195.82 153.281 197.027 152.547 197.887C151.812 198.746 150.777 199.176 149.441 199.176ZM143.992 199V181.961H146.383V199H143.992ZM162.027 199.176C160.332 199.176 159.02 198.703 158.09 197.758C157.16 196.812 156.695 195.469 156.695 193.727V192.355C156.695 190.543 157.141 189.141 158.031 188.148C158.93 187.156 160.191 186.66 161.816 186.66C163.348 186.66 164.531 187.223 165.367 188.348C166.211 189.473 166.633 191.051 166.633 193.082V193.879H158.43V191.957H164.359C164.289 190.973 164.031 190.203 163.586 189.648C163.148 189.094 162.559 188.816 161.816 188.816C160.918 188.816 160.219 189.113 159.719 189.707C159.219 190.301 158.969 191.141 158.969 192.227V193.773C158.969 194.781 159.234 195.555 159.766 196.094C160.305 196.633 161.059 196.902 162.027 196.902C162.512 196.902 162.992 196.805 163.469 196.609C163.945 196.414 164.371 196.141 164.746 195.789L166.316 197.359C165.715 197.938 165.039 198.387 164.289 198.707C163.539 199.02 162.785 199.176 162.027 199.176ZM176.781 199V191.289C176.781 190.492 176.566 189.875 176.137 189.438C175.715 188.992 175.113 188.77 174.332 188.77C173.855 188.77 173.383 188.844 172.914 188.992C172.453 189.133 172.039 189.34 171.672 189.613L169.926 188.418C170.387 187.863 170.992 187.434 171.742 187.129C172.5 186.816 173.34 186.66 174.262 186.66C175.785 186.66 176.965 187.055 177.801 187.844C178.637 188.633 179.055 189.746 179.055 191.184V199H176.781ZM173.805 199.176C172.312 199.176 171.191 198.867 170.441 198.25C169.699 197.633 169.328 196.688 169.328 195.414C169.328 194.203 169.668 193.301 170.348 192.707C171.035 192.105 172.062 191.805 173.43 191.805H176.887L177.051 193.727H173.441C172.824 193.727 172.359 193.867 172.047 194.148C171.734 194.422 171.578 194.844 171.578 195.414C171.578 196.031 171.785 196.488 172.199 196.785C172.613 197.082 173.234 197.23 174.062 197.23C174.969 197.23 175.648 197.133 176.102 196.938C176.555 196.742 176.781 196.438 176.781 196.023L177.027 197.734C176.816 198.062 176.555 198.332 176.242 198.543C175.93 198.754 175.57 198.91 175.164 199.012C174.766 199.121 174.312 199.176 173.805 199.176ZM197.219 199V191.629C197.219 190.77 196.996 190.105 196.551 189.637C196.113 189.168 195.488 188.934 194.676 188.934C193.934 188.934 193.359 189.16 192.953 189.613C192.547 190.066 192.344 190.707 192.344 191.535L191.863 189.191C192.254 188.379 192.762 187.754 193.387 187.316C194.012 186.879 194.703 186.66 195.461 186.66C196.781 186.66 197.801 187.094 198.52 187.961C199.246 188.82 199.609 190.039 199.609 191.617V199H197.219ZM182.688 199V186.836H185.078V199H182.688ZM189.953 199V191.629C189.953 190.77 189.742 190.105 189.32 189.637C188.898 189.168 188.301 188.934 187.527 188.934C186.746 188.934 186.141 189.141 185.711 189.555C185.289 189.969 185.078 190.551 185.078 191.301L184.832 188.957C185.207 188.223 185.695 187.656 186.297 187.258C186.906 186.859 187.578 186.66 188.312 186.66C189.594 186.66 190.586 187.094 191.289 187.961C191.992 188.82 192.344 190.039 192.344 191.617V199H189.953ZM202.832 199V196.492H205.34V199H202.832Z" fill="white"/>
<path d="M178.85 76.2637C177.068 76.2637 175.51 75.8711 174.174 75.0859C172.838 74.2891 171.801 73.1758 171.062 71.7461C170.324 70.3164 169.955 68.6465 169.955 66.7363V59.7227C169.955 57.8008 170.324 56.125 171.062 54.6953C171.801 53.2656 172.838 52.1582 174.174 51.373C175.51 50.5762 177.068 50.1777 178.85 50.1777C180.326 50.1777 181.674 50.4941 182.893 51.127C184.123 51.7598 185.148 52.6445 185.969 53.7812C186.801 54.918 187.363 56.248 187.656 57.7715H183.982C183.76 56.9512 183.385 56.2363 182.857 55.627C182.342 55.0059 181.732 54.5254 181.029 54.1855C180.326 53.8457 179.6 53.6758 178.85 53.6758C177.279 53.6758 176.014 54.2324 175.053 55.3457C174.104 56.4473 173.629 57.9062 173.629 59.7227V66.7363C173.629 68.5527 174.104 70.0117 175.053 71.1133C176.014 72.2148 177.279 72.7656 178.85 72.7656C179.963 72.7656 181.012 72.4141 181.996 71.7109C182.98 71.0078 183.643 69.9941 183.982 68.6699H187.656C187.363 70.1934 186.801 71.5234 185.969 72.6602C185.137 73.7969 184.111 74.6816 182.893 75.3145C181.674 75.9473 180.326 76.2637 178.85 76.2637ZM199.891 76.2637C197.348 76.2637 195.379 75.5547 193.984 74.1367C192.59 72.7188 191.893 70.7031 191.893 68.0898V66.0332C191.893 63.3145 192.561 61.2109 193.896 59.7227C195.244 58.2344 197.137 57.4902 199.574 57.4902C201.871 57.4902 203.646 58.334 204.9 60.0215C206.166 61.709 206.799 64.0762 206.799 67.123V68.3184H194.494V65.4355H203.389C203.283 63.959 202.896 62.8047 202.229 61.9727C201.572 61.1406 200.688 60.7246 199.574 60.7246C198.227 60.7246 197.178 61.1699 196.428 62.0605C195.678 62.9512 195.303 64.2109 195.303 65.8398V68.1602C195.303 69.6719 195.701 70.832 196.498 71.6406C197.307 72.4492 198.438 72.8535 199.891 72.8535C200.617 72.8535 201.338 72.707 202.053 72.4141C202.768 72.1211 203.406 71.7109 203.969 71.1836L206.324 73.5391C205.422 74.4062 204.408 75.0801 203.283 75.5605C202.158 76.0293 201.027 76.2637 199.891 76.2637ZM211.721 76V57.7539H215.307V76H211.721ZM221.758 62.0781C221.441 61.6914 221.043 61.3984 220.562 61.1992C220.082 61 219.525 60.9004 218.893 60.9004C217.756 60.9004 216.871 61.2168 216.238 61.8496C215.617 62.4707 215.307 63.3379 215.307 64.4512L214.938 60.9355C215.488 59.8574 216.209 59.0137 217.1 58.4043C218.002 57.7949 218.992 57.4902 220.07 57.4902C220.902 57.4902 221.652 57.6133 222.32 57.8594C223 58.0938 223.592 58.4453 224.096 58.9141L221.758 62.0781ZM234.203 76.2637C231.66 76.2637 229.691 75.5547 228.297 74.1367C226.902 72.7188 226.205 70.7031 226.205 68.0898V66.0332C226.205 63.3145 226.873 61.2109 228.209 59.7227C229.557 58.2344 231.449 57.4902 233.887 57.4902C236.184 57.4902 237.959 58.334 239.213 60.0215C240.479 61.709 241.111 64.0762 241.111 67.123V68.3184H228.807V65.4355H237.701C237.596 63.959 237.209 62.8047 236.541 61.9727C235.885 61.1406 235 60.7246 233.887 60.7246C232.539 60.7246 231.49 61.1699 230.74 62.0605C229.99 62.9512 229.615 64.2109 229.615 65.8398V68.1602C229.615 69.6719 230.014 70.832 230.811 71.6406C231.619 72.4492 232.75 72.8535 234.203 72.8535C234.93 72.8535 235.65 72.707 236.365 72.4141C237.08 72.1211 237.719 71.7109 238.281 71.1836L240.637 73.5391C239.734 74.4062 238.721 75.0801 237.596 75.5605C236.471 76.0293 235.34 76.2637 234.203 76.2637ZM254.207 76.2637C253.07 76.2637 252.08 75.9941 251.236 75.4551C250.393 74.9043 249.771 74.1309 249.373 73.1348L249.619 69.3203C249.619 70.1055 249.76 70.7734 250.041 71.3242C250.322 71.875 250.727 72.2969 251.254 72.5898C251.793 72.8828 252.443 73.0293 253.205 73.0293C254.389 73.0293 255.303 72.6719 255.947 71.957C256.604 71.2305 256.932 70.2109 256.932 68.8984V64.9434C256.932 63.6074 256.604 62.5703 255.947 61.832C255.303 61.0938 254.389 60.7246 253.205 60.7246C252.443 60.7246 251.793 60.8652 251.254 61.1465C250.727 61.4277 250.322 61.8379 250.041 62.377C249.76 62.916 249.619 63.5723 249.619 64.3457L249.25 60.8301C249.801 59.7637 250.521 58.9434 251.412 58.3691C252.303 57.7832 253.293 57.4902 254.383 57.4902C256.34 57.4902 257.852 58.1406 258.918 59.4414C259.984 60.7305 260.518 62.5586 260.518 64.9258V68.8984C260.518 71.2305 259.967 73.041 258.865 74.3301C257.764 75.6191 256.211 76.2637 254.207 76.2637ZM246.033 76V50.4414H249.619V76H246.033ZM273.086 76.2637C270.543 76.2637 268.574 75.5547 267.18 74.1367C265.785 72.7188 265.088 70.7031 265.088 68.0898V66.0332C265.088 63.3145 265.756 61.2109 267.092 59.7227C268.439 58.2344 270.332 57.4902 272.77 57.4902C275.066 57.4902 276.842 58.334 278.096 60.0215C279.361 61.709 279.994 64.0762 279.994 67.123V68.3184H267.689V65.4355H276.584C276.479 63.959 276.092 62.8047 275.424 61.9727C274.768 61.1406 273.883 60.7246 272.77 60.7246C271.422 60.7246 270.373 61.1699 269.623 62.0605C268.873 62.9512 268.498 64.2109 268.498 65.8398V68.1602C268.498 69.6719 268.896 70.832 269.693 71.6406C270.502 72.4492 271.633 72.8535 273.086 72.8535C273.812 72.8535 274.533 72.707 275.248 72.4141C275.963 72.1211 276.602 71.7109 277.164 71.1836L279.52 73.5391C278.617 74.4062 277.604 75.0801 276.479 75.5605C275.354 76.0293 274.223 76.2637 273.086 76.2637ZM288.502 50.4414V71.2891C288.502 71.7227 288.596 72.0625 288.783 72.3086C288.982 72.5547 289.258 72.6777 289.609 72.6777H291.297V76.0879H289.188C287.84 76.0879 286.791 75.666 286.041 74.8223C285.291 73.9785 284.916 72.7891 284.916 71.2539V50.4414H288.502ZM298.943 50.4414V71.2891C298.943 71.7227 299.037 72.0625 299.225 72.3086C299.424 72.5547 299.699 72.6777 300.051 72.6777H301.738V76.0879H299.629C298.281 76.0879 297.232 75.666 296.482 74.8223C295.732 73.9785 295.357 72.7891 295.357 71.2539V50.4414H298.943ZM316.627 76V57.7539H320.195V76H316.627ZM309.209 57.7539V68.8457C309.209 70.123 309.531 71.1133 310.176 71.8164C310.832 72.5078 311.752 72.8535 312.936 72.8535C314.119 72.8535 315.027 72.543 315.66 71.9219C316.305 71.2891 316.627 70.4043 316.627 69.2676L316.873 73.082C316.545 73.9023 315.971 74.6406 315.15 75.2969C314.33 75.9414 313.258 76.2637 311.934 76.2637C309.918 76.2637 308.359 75.6191 307.258 74.3301C306.168 73.0293 305.623 71.2012 305.623 68.8457V57.7539H309.209ZM347.459 76V64.9434C347.459 63.6543 347.125 62.6582 346.457 61.9551C345.801 61.252 344.863 60.9004 343.645 60.9004C342.531 60.9004 341.67 61.2402 341.061 61.9199C340.451 62.5996 340.146 63.5605 340.146 64.8027L339.426 61.2871C340.012 60.0684 340.773 59.1309 341.711 58.4746C342.648 57.8184 343.686 57.4902 344.822 57.4902C346.803 57.4902 348.332 58.1406 349.41 59.4414C350.5 60.7305 351.045 62.5586 351.045 64.9258V76H347.459ZM325.662 76V57.7539H329.248V76H325.662ZM336.561 76V64.9434C336.561 63.6543 336.244 62.6582 335.611 61.9551C334.979 61.252 334.082 60.9004 332.922 60.9004C331.75 60.9004 330.842 61.2109 330.197 61.832C329.564 62.4531 329.248 63.3262 329.248 64.4512L328.879 60.9355C329.441 59.834 330.174 58.9844 331.076 58.3867C331.99 57.7891 332.998 57.4902 334.1 57.4902C336.021 57.4902 337.51 58.1406 338.564 59.4414C339.619 60.7305 340.146 62.5586 340.146 64.9258V76H336.561Z" fill="white"/>
<rect x="161" y="285" width="200" height="54" rx="27" fill="#FFE500"/>
<path d="M195.5 323V300.281H199.781V323H195.5ZM197.406 323V318.875H210.719V323H197.406ZM213.844 323V300.281H218.125V323H213.844ZM215.391 323V318.875H229.062V323H215.391ZM215.391 313.781V309.656H227.344V313.781H215.391ZM215.391 304.406V300.281H229.062V304.406H215.391ZM236.656 323V302.141H240.938V323H236.656ZM230.469 304.406V300.281H247.125V304.406H230.469ZM247.203 309.969V300.281H251.484V305.875L247.203 309.969ZM260.891 323.234C259.807 323.234 258.745 323.125 257.703 322.906C256.672 322.688 255.703 322.37 254.797 321.953C253.891 321.526 253.073 321.016 252.344 320.422L254.328 316.891C255.203 317.609 256.214 318.167 257.359 318.562C258.505 318.948 259.682 319.141 260.891 319.141C262.286 319.141 263.37 318.906 264.141 318.438C264.911 317.958 265.297 317.286 265.297 316.422V316.406C265.297 315.75 265.104 315.25 264.719 314.906C264.333 314.552 263.823 314.292 263.188 314.125C262.562 313.958 261.88 313.818 261.141 313.703C260.255 313.568 259.359 313.401 258.453 313.203C257.547 312.995 256.714 312.672 255.953 312.234C255.193 311.786 254.578 311.151 254.109 310.328C253.651 309.505 253.422 308.406 253.422 307.031V307.016C253.422 304.797 254.151 303.083 255.609 301.875C257.068 300.656 259.13 300.047 261.797 300.047C263.026 300.047 264.276 300.255 265.547 300.672C266.818 301.078 268 301.661 269.094 302.422L267.281 306.047C266.406 305.432 265.49 304.964 264.531 304.641C263.583 304.307 262.672 304.141 261.797 304.141C260.484 304.141 259.469 304.359 258.75 304.797C258.031 305.224 257.672 305.828 257.672 306.609V306.625C257.672 307.354 257.885 307.906 258.312 308.281C258.74 308.656 259.297 308.938 259.984 309.125C260.672 309.302 261.411 309.469 262.203 309.625C263.078 309.792 263.948 310 264.812 310.25C265.677 310.49 266.469 310.839 267.188 311.297C267.906 311.755 268.479 312.385 268.906 313.188C269.333 313.99 269.547 315.031 269.547 316.312V316.344C269.547 318.531 268.792 320.229 267.281 321.438C265.771 322.635 263.641 323.234 260.891 323.234ZM290.344 310.297H298.219V314.734C298.219 316.443 297.875 317.938 297.188 319.219C296.5 320.49 295.536 321.479 294.297 322.188C293.068 322.885 291.62 323.234 289.953 323.234C288.276 323.234 286.807 322.906 285.547 322.25C284.297 321.583 283.323 320.651 282.625 319.453C281.938 318.245 281.594 316.839 281.594 315.234V308.531C281.594 306.823 281.938 305.333 282.625 304.062C283.312 302.792 284.271 301.807 285.5 301.109C286.74 300.401 288.193 300.047 289.859 300.047C291.234 300.047 292.484 300.328 293.609 300.891C294.745 301.453 295.698 302.24 296.469 303.25C297.24 304.26 297.76 305.443 298.031 306.797H293.406C293.177 306.057 292.719 305.49 292.031 305.094C291.354 304.688 290.63 304.484 289.859 304.484C288.703 304.484 287.776 304.854 287.078 305.594C286.38 306.333 286.031 307.312 286.031 308.531V315.234C286.031 316.307 286.391 317.172 287.109 317.828C287.828 318.474 288.776 318.797 289.953 318.797C291.109 318.797 292.036 318.448 292.734 317.75C293.432 317.042 293.781 316.057 293.781 314.797V314.422H290.344V310.297ZM309.953 323.234C308.286 323.234 306.828 322.891 305.578 322.203C304.339 321.505 303.375 320.526 302.688 319.266C302 318.005 301.656 316.536 301.656 314.859V308.422C301.656 306.734 302 305.266 302.688 304.016C303.375 302.755 304.339 301.781 305.578 301.094C306.828 300.396 308.286 300.047 309.953 300.047C311.62 300.047 313.073 300.396 314.312 301.094C315.562 301.781 316.531 302.755 317.219 304.016C317.906 305.266 318.25 306.734 318.25 308.422V314.859C318.25 316.536 317.906 318.005 317.219 319.266C316.531 320.526 315.562 321.505 314.312 322.203C313.073 322.891 311.62 323.234 309.953 323.234ZM309.953 318.953C311.12 318.953 312.052 318.589 312.75 317.859C313.458 317.13 313.812 316.167 313.812 314.969V308.312C313.812 307.104 313.458 306.141 312.75 305.422C312.052 304.693 311.12 304.328 309.953 304.328C308.786 304.328 307.849 304.693 307.141 305.422C306.443 306.141 306.094 307.104 306.094 308.312V314.969C306.094 316.167 306.443 317.13 307.141 317.859C307.849 318.589 308.786 318.953 309.953 318.953ZM322.469 316.234V300.281H326.75V316.234H322.469ZM322.469 323V318.719H326.75V323H322.469Z" fill="#9E6DD0"/>
<defs>
<linearGradient id="paint0_linear_42_395" x1="522" y1="187" x2="-3.47566e-06" y2="187" gradientUnits="userSpaceOnUse">
<stop stop-color="#DD63C2"/>
<stop offset="1" stop-color="#6376DD"/>
</linearGradient>
</defs>
</svg>
