<svg width="522" height="400" viewBox="0 0 522 400" fill="none" xmlns="http://www.w3.org/2000/svg">
<rect width="522" height="400" rx="50" fill="url(#paint0_linear_42_730)"/>
<path d="M64.4219 123.961L59.2305 134.074V141H56.8398V134.074L51.6484 123.961H54.3086L58.0352 131.648L61.7617 123.961H64.4219ZM69.5547 141.176C67.9609 141.176 66.7266 140.715 65.8516 139.793C64.9766 138.863 64.5391 137.559 64.5391 135.879V133.898C64.5391 132.234 64.9766 130.945 65.8516 130.031C66.7266 129.117 67.9609 128.66 69.5547 128.66C71.1484 128.66 72.3828 129.117 73.2578 130.031C74.1328 130.945 74.5703 132.234 74.5703 133.898V135.914C74.5703 137.586 74.1328 138.883 73.2578 139.805C72.3828 140.719 71.1484 141.176 69.5547 141.176ZM69.5547 138.902C70.3906 138.902 71.0352 138.641 71.4883 138.117C71.9492 137.594 72.1797 136.859 72.1797 135.914V133.898C72.1797 132.953 71.9492 132.223 71.4883 131.707C71.0352 131.191 70.3906 130.934 69.5547 130.934C68.7266 130.934 68.082 131.191 67.6211 131.707C67.1602 132.223 66.9297 132.953 66.9297 133.898V135.914C66.9297 136.859 67.1602 137.594 67.6211 138.117C68.082 138.641 68.7266 138.902 69.5547 138.902ZM85 141V128.836H87.3789V141H85ZM80.0547 128.836V136.23C80.0547 137.082 80.2695 137.742 80.6992 138.211C81.1367 138.672 81.75 138.902 82.5391 138.902C83.3281 138.902 83.9336 138.695 84.3555 138.281C84.7852 137.859 85 137.27 85 136.512L85.1641 139.055C84.9453 139.602 84.5625 140.094 84.0156 140.531C83.4688 140.961 82.7539 141.176 81.8711 141.176C80.5273 141.176 79.4883 140.746 78.7539 139.887C78.0273 139.02 77.6641 137.801 77.6641 136.23V128.836H80.0547ZM114.191 141V123.961H116.582V141H114.191ZM121.574 141V133.629C121.574 132.77 121.352 132.105 120.906 131.637C120.469 131.168 119.844 130.934 119.031 130.934C118.25 130.934 117.645 131.137 117.215 131.543C116.793 131.949 116.582 132.523 116.582 133.266L116.336 130.922C116.711 130.203 117.199 129.648 117.801 129.258C118.41 128.859 119.082 128.66 119.816 128.66C121.137 128.66 122.156 129.094 122.875 129.961C123.602 130.82 123.965 132.039 123.965 133.617V141H121.574ZM134.465 141V133.289C134.465 132.492 134.25 131.875 133.82 131.438C133.398 130.992 132.797 130.77 132.016 130.77C131.539 130.77 131.066 130.844 130.598 130.992C130.137 131.133 129.723 131.34 129.355 131.613L127.609 130.418C128.07 129.863 128.676 129.434 129.426 129.129C130.184 128.816 131.023 128.66 131.945 128.66C133.469 128.66 134.648 129.055 135.484 129.844C136.32 130.633 136.738 131.746 136.738 133.184V141H134.465ZM131.488 141.176C129.996 141.176 128.875 140.867 128.125 140.25C127.383 139.633 127.012 138.688 127.012 137.414C127.012 136.203 127.352 135.301 128.031 134.707C128.719 134.105 129.746 133.805 131.113 133.805H134.57L134.734 135.727H131.125C130.508 135.727 130.043 135.867 129.73 136.148C129.418 136.422 129.262 136.844 129.262 137.414C129.262 138.031 129.469 138.488 129.883 138.785C130.297 139.082 130.918 139.23 131.746 139.23C132.652 139.23 133.332 139.133 133.785 138.938C134.238 138.742 134.465 138.438 134.465 138.023L134.711 139.734C134.5 140.062 134.238 140.332 133.926 140.543C133.613 140.754 133.254 140.91 132.848 141.012C132.449 141.121 131.996 141.176 131.488 141.176ZM144.203 137.52L147.18 128.836H149.676L145.105 141H143.301L138.73 128.836H141.227L144.203 137.52ZM156.766 141.176C155.07 141.176 153.758 140.703 152.828 139.758C151.898 138.812 151.434 137.469 151.434 135.727V134.355C151.434 132.543 151.879 131.141 152.77 130.148C153.668 129.156 154.93 128.66 156.555 128.66C158.086 128.66 159.27 129.223 160.105 130.348C160.949 131.473 161.371 133.051 161.371 135.082V135.879H153.168V133.957H159.098C159.027 132.973 158.77 132.203 158.324 131.648C157.887 131.094 157.297 130.816 156.555 130.816C155.656 130.816 154.957 131.113 154.457 131.707C153.957 132.301 153.707 133.141 153.707 134.227V135.773C153.707 136.781 153.973 137.555 154.504 138.094C155.043 138.633 155.797 138.902 156.766 138.902C157.25 138.902 157.73 138.805 158.207 138.609C158.684 138.414 159.109 138.141 159.484 137.789L161.055 139.359C160.453 139.938 159.777 140.387 159.027 140.707C158.277 141.02 157.523 141.176 156.766 141.176ZM192.121 141.176C191.043 141.176 190.062 141.02 189.18 140.707C188.305 140.387 187.52 139.91 186.824 139.277L188.242 137.531C188.906 138.031 189.559 138.406 190.199 138.656C190.848 138.906 191.488 139.031 192.121 139.031C193.066 139.031 193.773 138.887 194.242 138.598C194.719 138.301 194.957 137.859 194.957 137.273C194.957 136.82 194.797 136.5 194.477 136.312C194.164 136.125 193.75 136.004 193.234 135.949C192.727 135.887 192.18 135.836 191.594 135.797C191.102 135.758 190.613 135.699 190.129 135.621C189.645 135.535 189.203 135.387 188.805 135.176C188.406 134.957 188.086 134.637 187.844 134.215C187.609 133.793 187.492 133.227 187.492 132.516C187.492 131.227 187.887 130.262 188.676 129.621C189.465 128.98 190.641 128.66 192.203 128.66C193.156 128.66 194.043 128.789 194.863 129.047C195.684 129.305 196.453 129.699 197.172 130.23L195.73 131.977C195.121 131.586 194.52 131.293 193.926 131.098C193.34 130.902 192.766 130.805 192.203 130.805C191.391 130.805 190.781 130.945 190.375 131.227C189.969 131.5 189.766 131.914 189.766 132.469C189.766 132.836 189.906 133.102 190.188 133.266C190.469 133.422 190.84 133.523 191.301 133.57C191.762 133.617 192.258 133.66 192.789 133.699C193.297 133.73 193.809 133.789 194.324 133.875C194.848 133.953 195.328 134.109 195.766 134.344C196.203 134.578 196.555 134.926 196.82 135.387C197.086 135.848 197.219 136.477 197.219 137.273C197.219 138.578 196.793 139.555 195.941 140.203C195.098 140.852 193.824 141.176 192.121 141.176ZM207.602 141V128.836H209.98V141H207.602ZM202.656 128.836V136.23C202.656 137.082 202.871 137.742 203.301 138.211C203.738 138.672 204.352 138.902 205.141 138.902C205.93 138.902 206.535 138.695 206.957 138.281C207.387 137.859 207.602 137.27 207.602 136.512L207.766 139.055C207.547 139.602 207.164 140.094 206.617 140.531C206.07 140.961 205.355 141.176 204.473 141.176C203.129 141.176 202.09 140.746 201.355 139.887C200.629 139.02 200.266 137.801 200.266 136.23V128.836H202.656ZM218.535 141.176C216.863 141.176 215.566 140.715 214.645 139.793C213.73 138.871 213.273 137.57 213.273 135.891V133.887C213.273 132.223 213.73 130.938 214.645 130.031C215.566 129.117 216.863 128.66 218.535 128.66C219.488 128.66 220.348 128.828 221.113 129.164C221.879 129.5 222.488 129.98 222.941 130.605L221.219 132.152C220.883 131.762 220.484 131.461 220.023 131.25C219.562 131.039 219.078 130.934 218.57 130.934C217.648 130.934 216.934 131.191 216.426 131.707C215.918 132.223 215.664 132.949 215.664 133.887V135.891C215.664 136.852 215.918 137.594 216.426 138.117C216.934 138.641 217.648 138.902 218.57 138.902C219.078 138.902 219.562 138.789 220.023 138.562C220.484 138.336 220.883 138.016 221.219 137.602L222.941 139.266C222.488 139.875 221.875 140.348 221.102 140.684C220.336 141.012 219.48 141.176 218.535 141.176ZM230.488 141.176C228.816 141.176 227.52 140.715 226.598 139.793C225.684 138.871 225.227 137.57 225.227 135.891V133.887C225.227 132.223 225.684 130.938 226.598 130.031C227.52 129.117 228.816 128.66 230.488 128.66C231.441 128.66 232.301 128.828 233.066 129.164C233.832 129.5 234.441 129.98 234.895 130.605L233.172 132.152C232.836 131.762 232.438 131.461 231.977 131.25C231.516 131.039 231.031 130.934 230.523 130.934C229.602 130.934 228.887 131.191 228.379 131.707C227.871 132.223 227.617 132.949 227.617 133.887V135.891C227.617 136.852 227.871 137.594 228.379 138.117C228.887 138.641 229.602 138.902 230.523 138.902C231.031 138.902 231.516 138.789 231.977 138.562C232.438 138.336 232.836 138.016 233.172 137.602L234.895 139.266C234.441 139.875 233.828 140.348 233.055 140.684C232.289 141.012 231.434 141.176 230.488 141.176ZM242.512 141.176C240.816 141.176 239.504 140.703 238.574 139.758C237.645 138.812 237.18 137.469 237.18 135.727V134.355C237.18 132.543 237.625 131.141 238.516 130.148C239.414 129.156 240.676 128.66 242.301 128.66C243.832 128.66 245.016 129.223 245.852 130.348C246.695 131.473 247.117 133.051 247.117 135.082V135.879H238.914V133.957H244.844C244.773 132.973 244.516 132.203 244.07 131.648C243.633 131.094 243.043 130.816 242.301 130.816C241.402 130.816 240.703 131.113 240.203 131.707C239.703 132.301 239.453 133.141 239.453 134.227V135.773C239.453 136.781 239.719 137.555 240.25 138.094C240.789 138.633 241.543 138.902 242.512 138.902C242.996 138.902 243.477 138.805 243.953 138.609C244.43 138.414 244.855 138.141 245.23 137.789L246.801 139.359C246.199 139.938 245.523 140.387 244.773 140.707C244.023 141.02 243.27 141.176 242.512 141.176ZM254.699 141.176C253.621 141.176 252.641 141.02 251.758 140.707C250.883 140.387 250.098 139.91 249.402 139.277L250.82 137.531C251.484 138.031 252.137 138.406 252.777 138.656C253.426 138.906 254.066 139.031 254.699 139.031C255.645 139.031 256.352 138.887 256.82 138.598C257.297 138.301 257.535 137.859 257.535 137.273C257.535 136.82 257.375 136.5 257.055 136.312C256.742 136.125 256.328 136.004 255.812 135.949C255.305 135.887 254.758 135.836 254.172 135.797C253.68 135.758 253.191 135.699 252.707 135.621C252.223 135.535 251.781 135.387 251.383 135.176C250.984 134.957 250.664 134.637 250.422 134.215C250.188 133.793 250.07 133.227 250.07 132.516C250.07 131.227 250.465 130.262 251.254 129.621C252.043 128.98 253.219 128.66 254.781 128.66C255.734 128.66 256.621 128.789 257.441 129.047C258.262 129.305 259.031 129.699 259.75 130.23L258.309 131.977C257.699 131.586 257.098 131.293 256.504 131.098C255.918 130.902 255.344 130.805 254.781 130.805C253.969 130.805 253.359 130.945 252.953 131.227C252.547 131.5 252.344 131.914 252.344 132.469C252.344 132.836 252.484 133.102 252.766 133.266C253.047 133.422 253.418 133.523 253.879 133.57C254.34 133.617 254.836 133.66 255.367 133.699C255.875 133.73 256.387 133.789 256.902 133.875C257.426 133.953 257.906 134.109 258.344 134.344C258.781 134.578 259.133 134.926 259.398 135.387C259.664 135.848 259.797 136.477 259.797 137.273C259.797 138.578 259.371 139.555 258.52 140.203C257.676 140.852 256.402 141.176 254.699 141.176ZM267.145 141.176C266.066 141.176 265.086 141.02 264.203 140.707C263.328 140.387 262.543 139.91 261.848 139.277L263.266 137.531C263.93 138.031 264.582 138.406 265.223 138.656C265.871 138.906 266.512 139.031 267.145 139.031C268.09 139.031 268.797 138.887 269.266 138.598C269.742 138.301 269.98 137.859 269.98 137.273C269.98 136.82 269.82 136.5 269.5 136.312C269.188 136.125 268.773 136.004 268.258 135.949C267.75 135.887 267.203 135.836 266.617 135.797C266.125 135.758 265.637 135.699 265.152 135.621C264.668 135.535 264.227 135.387 263.828 135.176C263.43 134.957 263.109 134.637 262.867 134.215C262.633 133.793 262.516 133.227 262.516 132.516C262.516 131.227 262.91 130.262 263.699 129.621C264.488 128.98 265.664 128.66 267.227 128.66C268.18 128.66 269.066 128.789 269.887 129.047C270.707 129.305 271.477 129.699 272.195 130.23L270.754 131.977C270.145 131.586 269.543 131.293 268.949 131.098C268.363 130.902 267.789 130.805 267.227 130.805C266.414 130.805 265.805 130.945 265.398 131.227C264.992 131.5 264.789 131.914 264.789 132.469C264.789 132.836 264.93 133.102 265.211 133.266C265.492 133.422 265.863 133.523 266.324 133.57C266.785 133.617 267.281 133.66 267.812 133.699C268.32 133.73 268.832 133.789 269.348 133.875C269.871 133.953 270.352 134.109 270.789 134.344C271.227 134.578 271.578 134.926 271.844 135.387C272.109 135.848 272.242 136.477 272.242 137.273C272.242 138.578 271.816 139.555 270.965 140.203C270.121 140.852 268.848 141.176 267.145 141.176ZM275.641 141V127.184C275.641 126.113 275.887 125.309 276.379 124.77C276.871 124.23 277.637 123.961 278.676 123.961H280.434V126.234H278.723C278.48 126.234 278.305 126.328 278.195 126.516C278.086 126.695 278.031 126.91 278.031 127.16V141H275.641ZM274.352 130.875V128.836H280.434V130.875H274.352ZM289.773 141V128.836H292.152V141H289.773ZM284.828 128.836V136.23C284.828 137.082 285.043 137.742 285.473 138.211C285.91 138.672 286.523 138.902 287.312 138.902C288.102 138.902 288.707 138.695 289.129 138.281C289.559 137.859 289.773 137.27 289.773 136.512L289.938 139.055C289.719 139.602 289.336 140.094 288.789 140.531C288.242 140.961 287.527 141.176 286.645 141.176C285.301 141.176 284.262 140.746 283.527 139.887C282.801 139.02 282.438 137.801 282.438 136.23V128.836H284.828ZM298.188 123.961V137.859C298.188 138.148 298.25 138.375 298.375 138.539C298.508 138.703 298.691 138.785 298.926 138.785H300.051V141.059H298.645C297.746 141.059 297.047 140.777 296.547 140.215C296.047 139.652 295.797 138.859 295.797 137.836V123.961H298.188ZM305.148 123.961V137.859C305.148 138.148 305.211 138.375 305.336 138.539C305.469 138.703 305.652 138.785 305.887 138.785H307.012V141.059H305.605C304.707 141.059 304.008 140.777 303.508 140.215C303.008 139.652 302.758 138.859 302.758 137.836V123.961H305.148ZM316.762 128.836H319.199L314.02 143.848C313.73 144.684 313.312 145.262 312.766 145.582C312.219 145.91 311.469 146.074 310.516 146.074H310.035V143.777H310.516C310.961 143.777 311.312 143.688 311.57 143.508C311.836 143.328 312.066 143.02 312.262 142.582L316.762 128.836ZM313.281 141.996L308.43 128.836H310.867L314.605 139.406L313.281 141.996ZM344.488 145.945V128.836H346.879V145.945H344.488ZM349.938 141.176C349.18 141.176 348.52 140.996 347.957 140.637C347.395 140.27 346.98 139.754 346.715 139.09L346.879 136.547C346.879 137.07 346.973 137.516 347.16 137.883C347.348 138.25 347.617 138.531 347.969 138.727C348.328 138.922 348.762 139.02 349.27 139.02C350.059 139.02 350.668 138.781 351.098 138.305C351.535 137.82 351.754 137.141 351.754 136.266V133.629C351.754 132.738 351.535 132.047 351.098 131.555C350.668 131.062 350.059 130.816 349.27 130.816C348.762 130.816 348.328 130.91 347.969 131.098C347.617 131.285 347.348 131.559 347.16 131.918C346.973 132.277 346.879 132.715 346.879 133.23L346.633 130.887C347 130.176 347.48 129.629 348.074 129.246C348.668 128.855 349.328 128.66 350.055 128.66C351.359 128.66 352.367 129.094 353.078 129.961C353.789 130.82 354.145 132.039 354.145 133.617V136.266C354.145 137.82 353.777 139.027 353.043 139.887C352.309 140.746 351.273 141.176 349.938 141.176ZM364.41 141V133.289C364.41 132.492 364.195 131.875 363.766 131.438C363.344 130.992 362.742 130.77 361.961 130.77C361.484 130.77 361.012 130.844 360.543 130.992C360.082 131.133 359.668 131.34 359.301 131.613L357.555 130.418C358.016 129.863 358.621 129.434 359.371 129.129C360.129 128.816 360.969 128.66 361.891 128.66C363.414 128.66 364.594 129.055 365.43 129.844C366.266 130.633 366.684 131.746 366.684 133.184V141H364.41ZM361.434 141.176C359.941 141.176 358.82 140.867 358.07 140.25C357.328 139.633 356.957 138.688 356.957 137.414C356.957 136.203 357.297 135.301 357.977 134.707C358.664 134.105 359.691 133.805 361.059 133.805H364.516L364.68 135.727H361.07C360.453 135.727 359.988 135.867 359.676 136.148C359.363 136.422 359.207 136.844 359.207 137.414C359.207 138.031 359.414 138.488 359.828 138.785C360.242 139.082 360.863 139.23 361.691 139.23C362.598 139.23 363.277 139.133 363.73 138.938C364.184 138.742 364.41 138.438 364.41 138.023L364.656 139.734C364.445 140.062 364.184 140.332 363.871 140.543C363.559 140.754 363.199 140.91 362.793 141.012C362.395 141.121 361.941 141.176 361.434 141.176ZM374.617 141.176C373.539 141.176 372.559 141.02 371.676 140.707C370.801 140.387 370.016 139.91 369.32 139.277L370.738 137.531C371.402 138.031 372.055 138.406 372.695 138.656C373.344 138.906 373.984 139.031 374.617 139.031C375.562 139.031 376.27 138.887 376.738 138.598C377.215 138.301 377.453 137.859 377.453 137.273C377.453 136.82 377.293 136.5 376.973 136.312C376.66 136.125 376.246 136.004 375.73 135.949C375.223 135.887 374.676 135.836 374.09 135.797C373.598 135.758 373.109 135.699 372.625 135.621C372.141 135.535 371.699 135.387 371.301 135.176C370.902 134.957 370.582 134.637 370.34 134.215C370.105 133.793 369.988 133.227 369.988 132.516C369.988 131.227 370.383 130.262 371.172 129.621C371.961 128.98 373.137 128.66 374.699 128.66C375.652 128.66 376.539 128.789 377.359 129.047C378.18 129.305 378.949 129.699 379.668 130.23L378.227 131.977C377.617 131.586 377.016 131.293 376.422 131.098C375.836 130.902 375.262 130.805 374.699 130.805C373.887 130.805 373.277 130.945 372.871 131.227C372.465 131.5 372.262 131.914 372.262 132.469C372.262 132.836 372.402 133.102 372.684 133.266C372.965 133.422 373.336 133.523 373.797 133.57C374.258 133.617 374.754 133.66 375.285 133.699C375.793 133.73 376.305 133.789 376.82 133.875C377.344 133.953 377.824 134.109 378.262 134.344C378.699 134.578 379.051 134.926 379.316 135.387C379.582 135.848 379.715 136.477 379.715 137.273C379.715 138.578 379.289 139.555 378.438 140.203C377.594 140.852 376.32 141.176 374.617 141.176ZM387.062 141.176C385.984 141.176 385.004 141.02 384.121 140.707C383.246 140.387 382.461 139.91 381.766 139.277L383.184 137.531C383.848 138.031 384.5 138.406 385.141 138.656C385.789 138.906 386.43 139.031 387.062 139.031C388.008 139.031 388.715 138.887 389.184 138.598C389.66 138.301 389.898 137.859 389.898 137.273C389.898 136.82 389.738 136.5 389.418 136.312C389.105 136.125 388.691 136.004 388.176 135.949C387.668 135.887 387.121 135.836 386.535 135.797C386.043 135.758 385.555 135.699 385.07 135.621C384.586 135.535 384.145 135.387 383.746 135.176C383.348 134.957 383.027 134.637 382.785 134.215C382.551 133.793 382.434 133.227 382.434 132.516C382.434 131.227 382.828 130.262 383.617 129.621C384.406 128.98 385.582 128.66 387.145 128.66C388.098 128.66 388.984 128.789 389.805 129.047C390.625 129.305 391.395 129.699 392.113 130.23L390.672 131.977C390.062 131.586 389.461 131.293 388.867 131.098C388.281 130.902 387.707 130.805 387.145 130.805C386.332 130.805 385.723 130.945 385.316 131.227C384.91 131.5 384.707 131.914 384.707 132.469C384.707 132.836 384.848 133.102 385.129 133.266C385.41 133.422 385.781 133.523 386.242 133.57C386.703 133.617 387.199 133.66 387.73 133.699C388.238 133.73 388.75 133.789 389.266 133.875C389.789 133.953 390.27 134.109 390.707 134.344C391.145 134.578 391.496 134.926 391.762 135.387C392.027 135.848 392.16 136.477 392.16 137.273C392.16 138.578 391.734 139.555 390.883 140.203C390.039 140.852 388.766 141.176 387.062 141.176ZM400.188 141.176C398.492 141.176 397.18 140.703 396.25 139.758C395.32 138.812 394.855 137.469 394.855 135.727V134.355C394.855 132.543 395.301 131.141 396.191 130.148C397.09 129.156 398.352 128.66 399.977 128.66C401.508 128.66 402.691 129.223 403.527 130.348C404.371 131.473 404.793 133.051 404.793 135.082V135.879H396.59V133.957H402.52C402.449 132.973 402.191 132.203 401.746 131.648C401.309 131.094 400.719 130.816 399.977 130.816C399.078 130.816 398.379 131.113 397.879 131.707C397.379 132.301 397.129 133.141 397.129 134.227V135.773C397.129 136.781 397.395 137.555 397.926 138.094C398.465 138.633 399.219 138.902 400.188 138.902C400.672 138.902 401.152 138.805 401.629 138.609C402.105 138.414 402.531 138.141 402.906 137.789L404.477 139.359C403.875 139.938 403.199 140.387 402.449 140.707C401.699 141.02 400.945 141.176 400.188 141.176ZM414.988 141V123.961H417.379V141H414.988ZM411.93 141.211C410.586 141.211 409.547 140.781 408.812 139.922C408.086 139.055 407.723 137.836 407.723 136.266V133.582C407.723 132.004 408.078 130.785 408.789 129.926C409.508 129.059 410.516 128.625 411.812 128.625C412.531 128.625 413.188 128.812 413.781 129.188C414.383 129.562 414.867 130.09 415.234 130.77L414.988 133.254C414.988 132.738 414.895 132.297 414.707 131.93C414.52 131.562 414.246 131.285 413.887 131.098C413.535 130.902 413.105 130.805 412.598 130.805C411.809 130.805 411.195 131.051 410.758 131.543C410.328 132.035 410.113 132.727 410.113 133.617V136.266C410.113 137.148 410.328 137.832 410.758 138.316C411.195 138.793 411.809 139.031 412.598 139.031C413.105 139.031 413.535 138.934 413.887 138.738C414.246 138.535 414.52 138.246 414.707 137.871C414.895 137.496 414.988 137.047 414.988 136.523L415.152 139.09C414.934 139.637 414.555 140.129 414.016 140.566C413.484 140.996 412.789 141.211 411.93 141.211ZM451.047 141V133.289C451.047 132.492 450.832 131.875 450.402 131.438C449.98 130.992 449.379 130.77 448.598 130.77C448.121 130.77 447.648 130.844 447.18 130.992C446.719 131.133 446.305 131.34 445.938 131.613L444.191 130.418C444.652 129.863 445.258 129.434 446.008 129.129C446.766 128.816 447.605 128.66 448.527 128.66C450.051 128.66 451.23 129.055 452.066 129.844C452.902 130.633 453.32 131.746 453.32 133.184V141H451.047ZM448.07 141.176C446.578 141.176 445.457 140.867 444.707 140.25C443.965 139.633 443.594 138.688 443.594 137.414C443.594 136.203 443.934 135.301 444.613 134.707C445.301 134.105 446.328 133.805 447.695 133.805H451.152L451.316 135.727H447.707C447.09 135.727 446.625 135.867 446.312 136.148C446 136.422 445.844 136.844 445.844 137.414C445.844 138.031 446.051 138.488 446.465 138.785C446.879 139.082 447.5 139.23 448.328 139.23C449.234 139.23 449.914 139.133 450.367 138.938C450.82 138.742 451.047 138.438 451.047 138.023L451.293 139.734C451.082 140.062 450.82 140.332 450.508 140.543C450.195 140.754 449.836 140.91 449.43 141.012C449.031 141.121 448.578 141.176 448.07 141.176ZM459.344 123.961V137.859C459.344 138.148 459.406 138.375 459.531 138.539C459.664 138.703 459.848 138.785 460.082 138.785H461.207V141.059H459.801C458.902 141.059 458.203 140.777 457.703 140.215C457.203 139.652 456.953 138.859 456.953 137.836V123.961H459.344ZM466.305 123.961V137.859C466.305 138.148 466.367 138.375 466.492 138.539C466.625 138.703 466.809 138.785 467.043 138.785H468.168V141.059H466.762C465.863 141.059 465.164 140.777 464.664 140.215C464.164 139.652 463.914 138.859 463.914 137.836V123.961H466.305ZM58.1758 170.176C57.0977 170.176 56.1172 170.02 55.2344 169.707C54.3594 169.387 53.5742 168.91 52.8789 168.277L54.2969 166.531C54.9609 167.031 55.6133 167.406 56.2539 167.656C56.9023 167.906 57.543 168.031 58.1758 168.031C59.1211 168.031 59.8281 167.887 60.2969 167.598C60.7734 167.301 61.0117 166.859 61.0117 166.273C61.0117 165.82 60.8516 165.5 60.5312 165.312C60.2188 165.125 59.8047 165.004 59.2891 164.949C58.7812 164.887 58.2344 164.836 57.6484 164.797C57.1562 164.758 56.668 164.699 56.1836 164.621C55.6992 164.535 55.2578 164.387 54.8594 164.176C54.4609 163.957 54.1406 163.637 53.8984 163.215C53.6641 162.793 53.5469 162.227 53.5469 161.516C53.5469 160.227 53.9414 159.262 54.7305 158.621C55.5195 157.98 56.6953 157.66 58.2578 157.66C59.2109 157.66 60.0977 157.789 60.918 158.047C61.7383 158.305 62.5078 158.699 63.2266 159.23L61.7852 160.977C61.1758 160.586 60.5742 160.293 59.9805 160.098C59.3945 159.902 58.8203 159.805 58.2578 159.805C57.4453 159.805 56.8359 159.945 56.4297 160.227C56.0234 160.5 55.8203 160.914 55.8203 161.469C55.8203 161.836 55.9609 162.102 56.2422 162.266C56.5234 162.422 56.8945 162.523 57.3555 162.57C57.8164 162.617 58.3125 162.66 58.8438 162.699C59.3516 162.73 59.8633 162.789 60.3789 162.875C60.9023 162.953 61.3828 163.109 61.8203 163.344C62.2578 163.578 62.6094 163.926 62.875 164.387C63.1406 164.848 63.2734 165.477 63.2734 166.273C63.2734 167.578 62.8477 168.555 61.9961 169.203C61.1523 169.852 59.8789 170.176 58.1758 170.176ZM69.4844 170.059C68.4844 170.059 67.7578 169.781 67.3047 169.227C66.8594 168.672 66.6367 167.875 66.6367 166.836V154.297H69.0273V166.859C69.0273 167.148 69.0859 167.375 69.2031 167.539C69.3203 167.703 69.4922 167.785 69.7188 167.785H70.8672V170.059H69.4844ZM65.3828 159.992V157.836H70.8672V159.992H65.3828ZM81.0156 170V162.289C81.0156 161.492 80.8008 160.875 80.3711 160.438C79.9492 159.992 79.3477 159.77 78.5664 159.77C78.0898 159.77 77.6172 159.844 77.1484 159.992C76.6875 160.133 76.2734 160.34 75.9062 160.613L74.1602 159.418C74.6211 158.863 75.2266 158.434 75.9766 158.129C76.7344 157.816 77.5742 157.66 78.4961 157.66C80.0195 157.66 81.1992 158.055 82.0352 158.844C82.8711 159.633 83.2891 160.746 83.2891 162.184V170H81.0156ZM78.0391 170.176C76.5469 170.176 75.4258 169.867 74.6758 169.25C73.9336 168.633 73.5625 167.688 73.5625 166.414C73.5625 165.203 73.9023 164.301 74.582 163.707C75.2695 163.105 76.2969 162.805 77.6641 162.805H81.1211L81.2852 164.727H77.6758C77.0586 164.727 76.5938 164.867 76.2812 165.148C75.9688 165.422 75.8125 165.844 75.8125 166.414C75.8125 167.031 76.0195 167.488 76.4336 167.785C76.8477 168.082 77.4688 168.23 78.2969 168.23C79.2031 168.23 79.8828 168.133 80.3359 167.938C80.7891 167.742 81.0156 167.438 81.0156 167.023L81.2617 168.734C81.0508 169.062 80.7891 169.332 80.4766 169.543C80.1641 169.754 79.8047 169.91 79.3984 170.012C79 170.121 78.5469 170.176 78.0391 170.176ZM91 174.945C90.0859 174.945 89.2656 174.773 88.5391 174.43C87.8203 174.094 87.2617 173.617 86.8633 173L88.4805 171.535C88.793 171.965 89.1641 172.297 89.5938 172.531C90.0312 172.766 90.4883 172.883 90.9648 172.883C91.8789 172.883 92.5859 172.629 93.0859 172.121C93.5859 171.621 93.8359 170.91 93.8359 169.988V157.836H96.2266V169.637C96.2266 171.324 95.7695 172.629 94.8555 173.551C93.9492 174.48 92.6641 174.945 91 174.945ZM90.7773 170.211C89.4336 170.211 88.3945 169.781 87.6602 168.922C86.9336 168.055 86.5703 166.836 86.5703 165.266V162.582C86.5703 161.004 86.9258 159.785 87.6367 158.926C88.3555 158.059 89.3633 157.625 90.6602 157.625C91.3789 157.625 92.0352 157.812 92.6289 158.188C93.2305 158.562 93.7148 159.09 94.082 159.77L93.8359 162.254C93.8359 161.738 93.7422 161.297 93.5547 160.93C93.3672 160.562 93.0938 160.285 92.7344 160.098C92.3828 159.902 91.9531 159.805 91.4453 159.805C90.6562 159.805 90.043 160.051 89.6055 160.543C89.1758 161.035 88.9609 161.727 88.9609 162.617V165.266C88.9609 166.148 89.1758 166.832 89.6055 167.316C90.043 167.793 90.6562 168.031 91.4453 168.031C91.9531 168.031 92.3828 167.934 92.7344 167.738C93.0938 167.535 93.3672 167.246 93.5547 166.871C93.7422 166.496 93.8359 166.047 93.8359 165.523L94 168.09C93.7812 168.637 93.4023 169.129 92.8633 169.566C92.332 169.996 91.6367 170.211 90.7773 170.211ZM104.84 170.176C103.145 170.176 101.832 169.703 100.902 168.758C99.9727 167.812 99.5078 166.469 99.5078 164.727V163.355C99.5078 161.543 99.9531 160.141 100.844 159.148C101.742 158.156 103.004 157.66 104.629 157.66C106.16 157.66 107.344 158.223 108.18 159.348C109.023 160.473 109.445 162.051 109.445 164.082V164.879H101.242V162.957H107.172C107.102 161.973 106.844 161.203 106.398 160.648C105.961 160.094 105.371 159.816 104.629 159.816C103.73 159.816 103.031 160.113 102.531 160.707C102.031 161.301 101.781 162.141 101.781 163.227V164.773C101.781 165.781 102.047 166.555 102.578 167.094C103.117 167.633 103.871 167.902 104.84 167.902C105.324 167.902 105.805 167.805 106.281 167.609C106.758 167.414 107.184 167.141 107.559 166.789L109.129 168.359C108.527 168.938 107.852 169.387 107.102 169.707C106.352 170.02 105.598 170.176 104.84 170.176ZM117.027 170.176C115.949 170.176 114.969 170.02 114.086 169.707C113.211 169.387 112.426 168.91 111.73 168.277L113.148 166.531C113.812 167.031 114.465 167.406 115.105 167.656C115.754 167.906 116.395 168.031 117.027 168.031C117.973 168.031 118.68 167.887 119.148 167.598C119.625 167.301 119.863 166.859 119.863 166.273C119.863 165.82 119.703 165.5 119.383 165.312C119.07 165.125 118.656 165.004 118.141 164.949C117.633 164.887 117.086 164.836 116.5 164.797C116.008 164.758 115.52 164.699 115.035 164.621C114.551 164.535 114.109 164.387 113.711 164.176C113.312 163.957 112.992 163.637 112.75 163.215C112.516 162.793 112.398 162.227 112.398 161.516C112.398 160.227 112.793 159.262 113.582 158.621C114.371 157.98 115.547 157.66 117.109 157.66C118.062 157.66 118.949 157.789 119.77 158.047C120.59 158.305 121.359 158.699 122.078 159.23L120.637 160.977C120.027 160.586 119.426 160.293 118.832 160.098C118.246 159.902 117.672 159.805 117.109 159.805C116.297 159.805 115.688 159.945 115.281 160.227C114.875 160.5 114.672 160.914 114.672 161.469C114.672 161.836 114.812 162.102 115.094 162.266C115.375 162.422 115.746 162.523 116.207 162.57C116.668 162.617 117.164 162.66 117.695 162.699C118.203 162.73 118.715 162.789 119.23 162.875C119.754 162.953 120.234 163.109 120.672 163.344C121.109 163.578 121.461 163.926 121.727 164.387C121.992 164.848 122.125 165.477 122.125 166.273C122.125 167.578 121.699 168.555 120.848 169.203C120.004 169.852 118.73 170.176 117.027 170.176ZM125.348 165.629V152.961H127.738V165.629H125.348ZM125.289 170V167.492H127.797V170H125.289ZM144.523 170.176C143.336 170.176 142.297 169.914 141.406 169.391C140.516 168.859 139.824 168.117 139.332 167.164C138.84 166.211 138.594 165.098 138.594 163.824V159.148C138.594 157.867 138.84 156.75 139.332 155.797C139.824 154.844 140.516 154.105 141.406 153.582C142.297 153.051 143.336 152.785 144.523 152.785C145.508 152.785 146.406 152.996 147.219 153.418C148.039 153.84 148.723 154.43 149.27 155.188C149.824 155.945 150.199 156.832 150.395 157.848H147.945C147.797 157.301 147.547 156.824 147.195 156.418C146.852 156.004 146.445 155.684 145.977 155.457C145.508 155.23 145.023 155.117 144.523 155.117C143.477 155.117 142.633 155.488 141.992 156.23C141.359 156.965 141.043 157.938 141.043 159.148V163.824C141.043 165.035 141.359 166.008 141.992 166.742C142.633 167.477 143.477 167.844 144.523 167.844C145.266 167.844 145.965 167.609 146.621 167.141C147.277 166.672 147.719 165.996 147.945 165.113H150.395C150.199 166.129 149.824 167.016 149.27 167.773C148.715 168.531 148.031 169.121 147.219 169.543C146.406 169.965 145.508 170.176 144.523 170.176ZM158.234 170.176C156.641 170.176 155.406 169.715 154.531 168.793C153.656 167.863 153.219 166.559 153.219 164.879V162.898C153.219 161.234 153.656 159.945 154.531 159.031C155.406 158.117 156.641 157.66 158.234 157.66C159.828 157.66 161.062 158.117 161.938 159.031C162.812 159.945 163.25 161.234 163.25 162.898V164.914C163.25 166.586 162.812 167.883 161.938 168.805C161.062 169.719 159.828 170.176 158.234 170.176ZM158.234 167.902C159.07 167.902 159.715 167.641 160.168 167.117C160.629 166.594 160.859 165.859 160.859 164.914V162.898C160.859 161.953 160.629 161.223 160.168 160.707C159.715 160.191 159.07 159.934 158.234 159.934C157.406 159.934 156.762 160.191 156.301 160.707C155.84 161.223 155.609 161.953 155.609 162.898V164.914C155.609 165.859 155.84 166.594 156.301 167.117C156.762 167.641 157.406 167.902 158.234 167.902ZM166.648 170V157.836H169.039V170H166.648ZM174.031 170V162.629C174.031 161.77 173.809 161.105 173.363 160.637C172.926 160.168 172.301 159.934 171.488 159.934C170.707 159.934 170.102 160.141 169.672 160.555C169.25 160.969 169.039 161.551 169.039 162.301L168.793 159.957C169.168 159.223 169.656 158.656 170.258 158.258C170.867 157.859 171.539 157.66 172.273 157.66C173.594 157.66 174.613 158.094 175.332 158.961C176.059 159.82 176.422 161.039 176.422 162.617V170H174.031ZM183.219 170.059C182.219 170.059 181.492 169.781 181.039 169.227C180.594 168.672 180.371 167.875 180.371 166.836V154.297H182.762V166.859C182.762 167.148 182.82 167.375 182.938 167.539C183.055 167.703 183.227 167.785 183.453 167.785H184.602V170.059H183.219ZM179.117 159.992V157.836H184.602V159.992H179.117ZM187.883 155.352V152.961H190.273V155.352H187.883ZM187.883 170V157.836H190.273V170H187.883ZM193.906 170V157.836H196.297V170H193.906ZM201.289 170V162.629C201.289 161.77 201.066 161.105 200.621 160.637C200.184 160.168 199.559 159.934 198.746 159.934C197.965 159.934 197.359 160.141 196.93 160.555C196.508 160.969 196.297 161.551 196.297 162.301L196.051 159.957C196.426 159.223 196.914 158.656 197.516 158.258C198.125 157.859 198.797 157.66 199.531 157.66C200.852 157.66 201.871 158.094 202.59 158.961C203.316 159.82 203.68 161.039 203.68 162.617V170H201.289ZM214.648 170V157.836H217.027V170H214.648ZM209.703 157.836V165.23C209.703 166.082 209.918 166.742 210.348 167.211C210.785 167.672 211.398 167.902 212.188 167.902C212.977 167.902 213.582 167.695 214.004 167.281C214.434 166.859 214.648 166.27 214.648 165.512L214.812 168.055C214.594 168.602 214.211 169.094 213.664 169.531C213.117 169.961 212.402 170.176 211.52 170.176C210.176 170.176 209.137 169.746 208.402 168.887C207.676 168.02 207.312 166.801 207.312 165.23V157.836H209.703ZM225.652 170.176C223.957 170.176 222.645 169.703 221.715 168.758C220.785 167.812 220.32 166.469 220.32 164.727V163.355C220.32 161.543 220.766 160.141 221.656 159.148C222.555 158.156 223.816 157.66 225.441 157.66C226.973 157.66 228.156 158.223 228.992 159.348C229.836 160.473 230.258 162.051 230.258 164.082V164.879H222.055V162.957H227.984C227.914 161.973 227.656 161.203 227.211 160.648C226.773 160.094 226.184 159.816 225.441 159.816C224.543 159.816 223.844 160.113 223.344 160.707C222.844 161.301 222.594 162.141 222.594 163.227V164.773C222.594 165.781 222.859 166.555 223.391 167.094C223.93 167.633 224.684 167.902 225.652 167.902C226.137 167.902 226.617 167.805 227.094 167.609C227.57 167.414 227.996 167.141 228.371 166.789L229.941 168.359C229.34 168.938 228.664 169.387 227.914 169.707C227.164 170.02 226.41 170.176 225.652 170.176ZM243.75 170.059C242.75 170.059 242.023 169.781 241.57 169.227C241.125 168.672 240.902 167.875 240.902 166.836V154.297H243.293V166.859C243.293 167.148 243.352 167.375 243.469 167.539C243.586 167.703 243.758 167.785 243.984 167.785H245.133V170.059H243.75ZM239.648 159.992V157.836H245.133V159.992H239.648ZM253.078 170.176C251.484 170.176 250.25 169.715 249.375 168.793C248.5 167.863 248.062 166.559 248.062 164.879V162.898C248.062 161.234 248.5 159.945 249.375 159.031C250.25 158.117 251.484 157.66 253.078 157.66C254.672 157.66 255.906 158.117 256.781 159.031C257.656 159.945 258.094 161.234 258.094 162.898V164.914C258.094 166.586 257.656 167.883 256.781 168.805C255.906 169.719 254.672 170.176 253.078 170.176ZM253.078 167.902C253.914 167.902 254.559 167.641 255.012 167.117C255.473 166.594 255.703 165.859 255.703 164.914V162.898C255.703 161.953 255.473 161.223 255.012 160.707C254.559 160.191 253.914 159.934 253.078 159.934C252.25 159.934 251.605 160.191 251.145 160.707C250.684 161.223 250.453 161.953 250.453 162.898V164.914C250.453 165.859 250.684 166.594 251.145 167.117C251.605 167.641 252.25 167.902 253.078 167.902ZM271.703 170.059C270.703 170.059 269.977 169.781 269.523 169.227C269.078 168.672 268.855 167.875 268.855 166.836V154.297H271.246V166.859C271.246 167.148 271.305 167.375 271.422 167.539C271.539 167.703 271.711 167.785 271.938 167.785H273.086V170.059H271.703ZM267.602 159.992V157.836H273.086V159.992H267.602ZM276.367 170V152.961H278.758V170H276.367ZM283.75 170V162.629C283.75 161.77 283.527 161.105 283.082 160.637C282.645 160.168 282.02 159.934 281.207 159.934C280.426 159.934 279.82 160.137 279.391 160.543C278.969 160.949 278.758 161.523 278.758 162.266L278.512 159.922C278.887 159.203 279.375 158.648 279.977 158.258C280.586 157.859 281.258 157.66 281.992 157.66C283.312 157.66 284.332 158.094 285.051 158.961C285.777 159.82 286.141 161.039 286.141 162.617V170H283.75ZM294.754 170.176C293.059 170.176 291.746 169.703 290.816 168.758C289.887 167.812 289.422 166.469 289.422 164.727V163.355C289.422 161.543 289.867 160.141 290.758 159.148C291.656 158.156 292.918 157.66 294.543 157.66C296.074 157.66 297.258 158.223 298.094 159.348C298.938 160.473 299.359 162.051 299.359 164.082V164.879H291.156V162.957H297.086C297.016 161.973 296.758 161.203 296.312 160.648C295.875 160.094 295.285 159.816 294.543 159.816C293.645 159.816 292.945 160.113 292.445 160.707C291.945 161.301 291.695 162.141 291.695 163.227V164.773C291.695 165.781 291.961 166.555 292.492 167.094C293.031 167.633 293.785 167.902 294.754 167.902C295.238 167.902 295.719 167.805 296.195 167.609C296.672 167.414 297.098 167.141 297.473 166.789L299.043 168.359C298.441 168.938 297.766 169.387 297.016 169.707C296.266 170.02 295.512 170.176 294.754 170.176ZM309.688 170V157.836H312.078V170H309.688ZM317.07 170V162.629C317.07 161.77 316.848 161.105 316.402 160.637C315.965 160.168 315.34 159.934 314.527 159.934C313.746 159.934 313.141 160.141 312.711 160.555C312.289 160.969 312.078 161.551 312.078 162.301L311.832 159.957C312.207 159.223 312.695 158.656 313.297 158.258C313.906 157.859 314.578 157.66 315.312 157.66C316.633 157.66 317.652 158.094 318.371 158.961C319.098 159.82 319.461 161.039 319.461 162.617V170H317.07ZM328.074 170.176C326.379 170.176 325.066 169.703 324.137 168.758C323.207 167.812 322.742 166.469 322.742 164.727V163.355C322.742 161.543 323.188 160.141 324.078 159.148C324.977 158.156 326.238 157.66 327.863 157.66C329.395 157.66 330.578 158.223 331.414 159.348C332.258 160.473 332.68 162.051 332.68 164.082V164.879H324.477V162.957H330.406C330.336 161.973 330.078 161.203 329.633 160.648C329.195 160.094 328.605 159.816 327.863 159.816C326.965 159.816 326.266 160.113 325.766 160.707C325.266 161.301 325.016 162.141 325.016 163.227V164.773C325.016 165.781 325.281 166.555 325.812 167.094C326.352 167.633 327.105 167.902 328.074 167.902C328.559 167.902 329.039 167.805 329.516 167.609C329.992 167.414 330.418 167.141 330.793 166.789L332.363 168.359C331.762 168.938 331.086 169.387 330.336 169.707C329.586 170.02 328.832 170.176 328.074 170.176ZM342.734 170L339.102 164.469L334.625 157.836H337.285L340.777 163.285L345.383 170H342.734ZM334.438 170L339.031 163.285L340.18 165.488L337.086 170H334.438ZM340.883 164.398L339.875 162.148L342.535 157.836H345.195L340.883 164.398ZM351.195 170.059C350.195 170.059 349.469 169.781 349.016 169.227C348.57 168.672 348.348 167.875 348.348 166.836V154.297H350.738V166.859C350.738 167.148 350.797 167.375 350.914 167.539C351.031 167.703 351.203 167.785 351.43 167.785H352.578V170.059H351.195ZM347.094 159.992V157.836H352.578V159.992H347.094ZM367.207 170.176C366.129 170.176 365.148 170.02 364.266 169.707C363.391 169.387 362.605 168.91 361.91 168.277L363.328 166.531C363.992 167.031 364.645 167.406 365.285 167.656C365.934 167.906 366.574 168.031 367.207 168.031C368.152 168.031 368.859 167.887 369.328 167.598C369.805 167.301 370.043 166.859 370.043 166.273C370.043 165.82 369.883 165.5 369.562 165.312C369.25 165.125 368.836 165.004 368.32 164.949C367.812 164.887 367.266 164.836 366.68 164.797C366.188 164.758 365.699 164.699 365.215 164.621C364.73 164.535 364.289 164.387 363.891 164.176C363.492 163.957 363.172 163.637 362.93 163.215C362.695 162.793 362.578 162.227 362.578 161.516C362.578 160.227 362.973 159.262 363.762 158.621C364.551 157.98 365.727 157.66 367.289 157.66C368.242 157.66 369.129 157.789 369.949 158.047C370.77 158.305 371.539 158.699 372.258 159.23L370.816 160.977C370.207 160.586 369.605 160.293 369.012 160.098C368.426 159.902 367.852 159.805 367.289 159.805C366.477 159.805 365.867 159.945 365.461 160.227C365.055 160.5 364.852 160.914 364.852 161.469C364.852 161.836 364.992 162.102 365.273 162.266C365.555 162.422 365.926 162.523 366.387 162.57C366.848 162.617 367.344 162.66 367.875 162.699C368.383 162.73 368.895 162.789 369.41 162.875C369.934 162.953 370.414 163.109 370.852 163.344C371.289 163.578 371.641 163.926 371.906 164.387C372.172 164.848 372.305 165.477 372.305 166.273C372.305 167.578 371.879 168.555 371.027 169.203C370.184 169.852 368.91 170.176 367.207 170.176ZM380.332 170.176C378.637 170.176 377.324 169.703 376.395 168.758C375.465 167.812 375 166.469 375 164.727V163.355C375 161.543 375.445 160.141 376.336 159.148C377.234 158.156 378.496 157.66 380.121 157.66C381.652 157.66 382.836 158.223 383.672 159.348C384.516 160.473 384.938 162.051 384.938 164.082V164.879H376.734V162.957H382.664C382.594 161.973 382.336 161.203 381.891 160.648C381.453 160.094 380.863 159.816 380.121 159.816C379.223 159.816 378.523 160.113 378.023 160.707C377.523 161.301 377.273 162.141 377.273 163.227V164.773C377.273 165.781 377.539 166.555 378.07 167.094C378.609 167.633 379.363 167.902 380.332 167.902C380.816 167.902 381.297 167.805 381.773 167.609C382.25 167.414 382.676 167.141 383.051 166.789L384.621 168.359C384.02 168.938 383.344 169.387 382.594 169.707C381.844 170.02 381.09 170.176 380.332 170.176ZM393.129 170.176C391.457 170.176 390.16 169.715 389.238 168.793C388.324 167.871 387.867 166.57 387.867 164.891V162.887C387.867 161.223 388.324 159.938 389.238 159.031C390.16 158.117 391.457 157.66 393.129 157.66C394.082 157.66 394.941 157.828 395.707 158.164C396.473 158.5 397.082 158.98 397.535 159.605L395.812 161.152C395.477 160.762 395.078 160.461 394.617 160.25C394.156 160.039 393.672 159.934 393.164 159.934C392.242 159.934 391.527 160.191 391.02 160.707C390.512 161.223 390.258 161.949 390.258 162.887V164.891C390.258 165.852 390.512 166.594 391.02 167.117C391.527 167.641 392.242 167.902 393.164 167.902C393.672 167.902 394.156 167.789 394.617 167.562C395.078 167.336 395.477 167.016 395.812 166.602L397.535 168.266C397.082 168.875 396.469 169.348 395.695 169.684C394.93 170.012 394.074 170.176 393.129 170.176ZM403.336 170.059C402.336 170.059 401.609 169.781 401.156 169.227C400.711 168.672 400.488 167.875 400.488 166.836V154.297H402.879V166.859C402.879 167.148 402.938 167.375 403.055 167.539C403.172 167.703 403.344 167.785 403.57 167.785H404.719V170.059H403.336ZM399.234 159.992V157.836H404.719V159.992H399.234ZM408 155.352V152.961H410.391V155.352H408ZM408 170V157.836H410.391V170H408ZM418.688 170.176C417.094 170.176 415.859 169.715 414.984 168.793C414.109 167.863 413.672 166.559 413.672 164.879V162.898C413.672 161.234 414.109 159.945 414.984 159.031C415.859 158.117 417.094 157.66 418.688 157.66C420.281 157.66 421.516 158.117 422.391 159.031C423.266 159.945 423.703 161.234 423.703 162.898V164.914C423.703 166.586 423.266 167.883 422.391 168.805C421.516 169.719 420.281 170.176 418.688 170.176ZM418.688 167.902C419.523 167.902 420.168 167.641 420.621 167.117C421.082 166.594 421.312 165.859 421.312 164.914V162.898C421.312 161.953 421.082 161.223 420.621 160.707C420.168 160.191 419.523 159.934 418.688 159.934C417.859 159.934 417.215 160.191 416.754 160.707C416.293 161.223 416.062 161.953 416.062 162.898V164.914C416.062 165.859 416.293 166.594 416.754 167.117C417.215 167.641 417.859 167.902 418.688 167.902ZM427.102 170V157.836H429.492V170H427.102ZM434.484 170V162.629C434.484 161.77 434.262 161.105 433.816 160.637C433.379 160.168 432.754 159.934 431.941 159.934C431.16 159.934 430.555 160.141 430.125 160.555C429.703 160.969 429.492 161.551 429.492 162.301L429.246 159.957C429.621 159.223 430.109 158.656 430.711 158.258C431.32 157.859 431.992 157.66 432.727 157.66C434.047 157.66 435.066 158.094 435.785 158.961C436.512 159.82 436.875 161.039 436.875 162.617V170H434.484ZM452.219 170.176C450.625 170.176 449.391 169.715 448.516 168.793C447.641 167.863 447.203 166.559 447.203 164.879V162.898C447.203 161.234 447.641 159.945 448.516 159.031C449.391 158.117 450.625 157.66 452.219 157.66C453.812 157.66 455.047 158.117 455.922 159.031C456.797 159.945 457.234 161.234 457.234 162.898V164.914C457.234 166.586 456.797 167.883 455.922 168.805C455.047 169.719 453.812 170.176 452.219 170.176ZM452.219 167.902C453.055 167.902 453.699 167.641 454.152 167.117C454.613 166.594 454.844 165.859 454.844 164.914V162.898C454.844 161.953 454.613 161.223 454.152 160.707C453.699 160.191 453.055 159.934 452.219 159.934C451.391 159.934 450.746 160.191 450.285 160.707C449.824 161.223 449.594 161.953 449.594 162.898V164.914C449.594 165.859 449.824 166.594 450.285 167.117C450.746 167.641 451.391 167.902 452.219 167.902ZM460.633 170V157.836H463.023V170H460.633ZM467.324 160.719C467.113 160.461 466.848 160.266 466.527 160.133C466.207 160 465.836 159.934 465.414 159.934C464.656 159.934 464.066 160.145 463.645 160.566C463.23 160.98 463.023 161.559 463.023 162.301L462.777 159.957C463.145 159.238 463.625 158.676 464.219 158.27C464.82 157.863 465.48 157.66 466.199 157.66C466.754 157.66 467.254 157.742 467.699 157.906C468.152 158.062 468.547 158.297 468.883 158.609L467.324 160.719ZM53.875 203.945V186.836H56.2656V203.945H53.875ZM59.3242 199.176C58.5664 199.176 57.9062 198.996 57.3438 198.637C56.7812 198.27 56.3672 197.754 56.1016 197.09L56.2656 194.547C56.2656 195.07 56.3594 195.516 56.5469 195.883C56.7344 196.25 57.0039 196.531 57.3555 196.727C57.7148 196.922 58.1484 197.02 58.6562 197.02C59.4453 197.02 60.0547 196.781 60.4844 196.305C60.9219 195.82 61.1406 195.141 61.1406 194.266V191.629C61.1406 190.738 60.9219 190.047 60.4844 189.555C60.0547 189.062 59.4453 188.816 58.6562 188.816C58.1484 188.816 57.7148 188.91 57.3555 189.098C57.0039 189.285 56.7344 189.559 56.5469 189.918C56.3594 190.277 56.2656 190.715 56.2656 191.23L56.0195 188.887C56.3867 188.176 56.8672 187.629 57.4609 187.246C58.0547 186.855 58.7148 186.66 59.4414 186.66C60.7461 186.66 61.7539 187.094 62.4648 187.961C63.1758 188.82 63.5312 190.039 63.5312 191.617V194.266C63.5312 195.82 63.1641 197.027 62.4297 197.887C61.6953 198.746 60.6602 199.176 59.3242 199.176ZM69.3203 181.961V195.859C69.3203 196.148 69.3828 196.375 69.5078 196.539C69.6406 196.703 69.8242 196.785 70.0586 196.785H71.1836V199.059H69.7773C68.8789 199.059 68.1797 198.777 67.6797 198.215C67.1797 197.652 66.9297 196.859 66.9297 195.836V181.961H69.3203ZM80.6406 199V191.289C80.6406 190.492 80.4258 189.875 79.9961 189.438C79.5742 188.992 78.9727 188.77 78.1914 188.77C77.7148 188.77 77.2422 188.844 76.7734 188.992C76.3125 189.133 75.8984 189.34 75.5312 189.613L73.7852 188.418C74.2461 187.863 74.8516 187.434 75.6016 187.129C76.3594 186.816 77.1992 186.66 78.1211 186.66C79.6445 186.66 80.8242 187.055 81.6602 187.844C82.4961 188.633 82.9141 189.746 82.9141 191.184V199H80.6406ZM77.6641 199.176C76.1719 199.176 75.0508 198.867 74.3008 198.25C73.5586 197.633 73.1875 196.688 73.1875 195.414C73.1875 194.203 73.5273 193.301 74.207 192.707C74.8945 192.105 75.9219 191.805 77.2891 191.805H80.7461L80.9102 193.727H77.3008C76.6836 193.727 76.2188 193.867 75.9062 194.148C75.5938 194.422 75.4375 194.844 75.4375 195.414C75.4375 196.031 75.6445 196.488 76.0586 196.785C76.4727 197.082 77.0938 197.23 77.9219 197.23C78.8281 197.23 79.5078 197.133 79.9609 196.938C80.4141 196.742 80.6406 196.438 80.6406 196.023L80.8867 197.734C80.6758 198.062 80.4141 198.332 80.1016 198.543C79.7891 198.754 79.4297 198.91 79.0234 199.012C78.625 199.121 78.1719 199.176 77.6641 199.176ZM93.2383 186.836H95.6758L90.4961 201.848C90.207 202.684 89.7891 203.262 89.2422 203.582C88.6953 203.91 87.9453 204.074 86.9922 204.074H86.5117V201.777H86.9922C87.4375 201.777 87.7891 201.688 88.0469 201.508C88.3125 201.328 88.543 201.02 88.7383 200.582L93.2383 186.836ZM89.7578 199.996L84.9062 186.836H87.3438L91.082 197.406L89.7578 199.996ZM111.109 199V191.289C111.109 190.492 110.895 189.875 110.465 189.438C110.043 188.992 109.441 188.77 108.66 188.77C108.184 188.77 107.711 188.844 107.242 188.992C106.781 189.133 106.367 189.34 106 189.613L104.254 188.418C104.715 187.863 105.32 187.434 106.07 187.129C106.828 186.816 107.668 186.66 108.59 186.66C110.113 186.66 111.293 187.055 112.129 187.844C112.965 188.633 113.383 189.746 113.383 191.184V199H111.109ZM108.133 199.176C106.641 199.176 105.52 198.867 104.77 198.25C104.027 197.633 103.656 196.688 103.656 195.414C103.656 194.203 103.996 193.301 104.676 192.707C105.363 192.105 106.391 191.805 107.758 191.805H111.215L111.379 193.727H107.77C107.152 193.727 106.688 193.867 106.375 194.148C106.062 194.422 105.906 194.844 105.906 195.414C105.906 196.031 106.113 196.488 106.527 196.785C106.941 197.082 107.562 197.23 108.391 197.23C109.297 197.23 109.977 197.133 110.43 196.938C110.883 196.742 111.109 196.438 111.109 196.023L111.355 197.734C111.145 198.062 110.883 198.332 110.57 198.543C110.258 198.754 109.898 198.91 109.492 199.012C109.094 199.121 108.641 199.176 108.133 199.176ZM121.094 203.945C120.18 203.945 119.359 203.773 118.633 203.43C117.914 203.094 117.355 202.617 116.957 202L118.574 200.535C118.887 200.965 119.258 201.297 119.688 201.531C120.125 201.766 120.582 201.883 121.059 201.883C121.973 201.883 122.68 201.629 123.18 201.121C123.68 200.621 123.93 199.91 123.93 198.988V186.836H126.32V198.637C126.32 200.324 125.863 201.629 124.949 202.551C124.043 203.48 122.758 203.945 121.094 203.945ZM120.871 199.211C119.527 199.211 118.488 198.781 117.754 197.922C117.027 197.055 116.664 195.836 116.664 194.266V191.582C116.664 190.004 117.02 188.785 117.73 187.926C118.449 187.059 119.457 186.625 120.754 186.625C121.473 186.625 122.129 186.812 122.723 187.188C123.324 187.562 123.809 188.09 124.176 188.77L123.93 191.254C123.93 190.738 123.836 190.297 123.648 189.93C123.461 189.562 123.188 189.285 122.828 189.098C122.477 188.902 122.047 188.805 121.539 188.805C120.75 188.805 120.137 189.051 119.699 189.543C119.27 190.035 119.055 190.727 119.055 191.617V194.266C119.055 195.148 119.27 195.832 119.699 196.316C120.137 196.793 120.75 197.031 121.539 197.031C122.047 197.031 122.477 196.934 122.828 196.738C123.188 196.535 123.461 196.246 123.648 195.871C123.836 195.496 123.93 195.047 123.93 194.523L124.094 197.09C123.875 197.637 123.496 198.129 122.957 198.566C122.426 198.996 121.73 199.211 120.871 199.211ZM136.82 199V191.289C136.82 190.492 136.605 189.875 136.176 189.438C135.754 188.992 135.152 188.77 134.371 188.77C133.895 188.77 133.422 188.844 132.953 188.992C132.492 189.133 132.078 189.34 131.711 189.613L129.965 188.418C130.426 187.863 131.031 187.434 131.781 187.129C132.539 186.816 133.379 186.66 134.301 186.66C135.824 186.66 137.004 187.055 137.84 187.844C138.676 188.633 139.094 189.746 139.094 191.184V199H136.82ZM133.844 199.176C132.352 199.176 131.23 198.867 130.48 198.25C129.738 197.633 129.367 196.688 129.367 195.414C129.367 194.203 129.707 193.301 130.387 192.707C131.074 192.105 132.102 191.805 133.469 191.805H136.926L137.09 193.727H133.48C132.863 193.727 132.398 193.867 132.086 194.148C131.773 194.422 131.617 194.844 131.617 195.414C131.617 196.031 131.824 196.488 132.238 196.785C132.652 197.082 133.273 197.23 134.102 197.23C135.008 197.23 135.688 197.133 136.141 196.938C136.594 196.742 136.82 196.438 136.82 196.023L137.066 197.734C136.855 198.062 136.594 198.332 136.281 198.543C135.969 198.754 135.609 198.91 135.203 199.012C134.805 199.121 134.352 199.176 133.844 199.176ZM142.727 184.352V181.961H145.117V184.352H142.727ZM142.727 199V186.836H145.117V199H142.727ZM148.75 199V186.836H151.141V199H148.75ZM156.133 199V191.629C156.133 190.77 155.91 190.105 155.465 189.637C155.027 189.168 154.402 188.934 153.59 188.934C152.809 188.934 152.203 189.141 151.773 189.555C151.352 189.969 151.141 190.551 151.141 191.301L150.895 188.957C151.27 188.223 151.758 187.656 152.359 187.258C152.969 186.859 153.641 186.66 154.375 186.66C155.695 186.66 156.715 187.094 157.434 187.961C158.16 188.82 158.523 190.039 158.523 191.617V199H156.133ZM161.746 199V196.492H164.254V199H161.746Z" fill="white"/>
<path d="M143.869 76.2637C142.088 76.2637 140.529 75.8711 139.193 75.0859C137.857 74.2891 136.82 73.1758 136.082 71.7461C135.344 70.3164 134.975 68.6465 134.975 66.7363V59.7227C134.975 57.8008 135.344 56.125 136.082 54.6953C136.82 53.2656 137.857 52.1582 139.193 51.373C140.529 50.5762 142.088 50.1777 143.869 50.1777C145.346 50.1777 146.693 50.4941 147.912 51.127C149.143 51.7598 150.168 52.6445 150.988 53.7812C151.82 54.918 152.383 56.248 152.676 57.7715H149.002C148.779 56.9512 148.404 56.2363 147.877 55.627C147.361 55.0059 146.752 54.5254 146.049 54.1855C145.346 53.8457 144.619 53.6758 143.869 53.6758C142.299 53.6758 141.033 54.2324 140.072 55.3457C139.123 56.4473 138.648 57.9062 138.648 59.7227V66.7363C138.648 68.5527 139.123 70.0117 140.072 71.1133C141.033 72.2148 142.299 72.7656 143.869 72.7656C144.982 72.7656 146.031 72.4141 147.016 71.7109C148 71.0078 148.662 69.9941 149.002 68.6699H152.676C152.383 70.1934 151.82 71.5234 150.988 72.6602C150.156 73.7969 149.131 74.6816 147.912 75.3145C146.693 75.9473 145.346 76.2637 143.869 76.2637ZM164.436 76.2637C162.045 76.2637 160.193 75.5723 158.881 74.1895C157.568 72.7949 156.912 70.8379 156.912 68.3184V65.3477C156.912 62.8516 157.568 60.918 158.881 59.5469C160.193 58.1758 162.045 57.4902 164.436 57.4902C166.826 57.4902 168.678 58.1758 169.99 59.5469C171.303 60.918 171.959 62.8516 171.959 65.3477V68.3711C171.959 70.8789 171.303 72.8242 169.99 74.207C168.678 75.5781 166.826 76.2637 164.436 76.2637ZM164.436 72.8535C165.689 72.8535 166.656 72.4609 167.336 71.6758C168.027 70.8906 168.373 69.7891 168.373 68.3711V65.3477C168.373 63.9297 168.027 62.834 167.336 62.0605C166.656 61.2871 165.689 60.9004 164.436 60.9004C163.193 60.9004 162.227 61.2871 161.535 62.0605C160.844 62.834 160.498 63.9297 160.498 65.3477V68.3711C160.498 69.7891 160.844 70.8906 161.535 71.6758C162.227 72.4609 163.193 72.8535 164.436 72.8535ZM177.057 76V57.7539H180.643V76H177.057ZM188.131 76V64.9434C188.131 63.6543 187.797 62.6582 187.129 61.9551C186.473 61.252 185.535 60.9004 184.316 60.9004C183.145 60.9004 182.236 61.2109 181.592 61.832C180.959 62.4531 180.643 63.3262 180.643 64.4512L180.273 60.9355C180.836 59.834 181.568 58.9844 182.471 58.3867C183.385 57.7891 184.393 57.4902 185.494 57.4902C187.475 57.4902 189.004 58.1406 190.082 59.4414C191.172 60.7305 191.717 62.5586 191.717 64.9258V76H188.131ZM203.283 83.418C201.912 83.418 200.682 83.1602 199.592 82.6445C198.514 82.1406 197.676 81.4258 197.078 80.5L199.504 78.3027C199.973 78.9473 200.529 79.4453 201.174 79.7969C201.83 80.1484 202.516 80.3242 203.23 80.3242C204.602 80.3242 205.662 79.9434 206.412 79.1816C207.162 78.4316 207.537 77.3652 207.537 75.9824V57.7539H211.123V75.4551C211.123 77.9863 210.438 79.9434 209.066 81.3262C207.707 82.7207 205.779 83.418 203.283 83.418ZM202.949 76.3164C200.934 76.3164 199.375 75.6719 198.273 74.3828C197.184 73.082 196.639 71.2539 196.639 68.8984V64.873C196.639 62.5059 197.172 60.6777 198.238 59.3887C199.316 58.0879 200.828 57.4375 202.773 57.4375C203.852 57.4375 204.836 57.7188 205.727 58.2812C206.629 58.8438 207.355 59.6348 207.906 60.6543L207.537 64.3809C207.537 63.6074 207.396 62.9453 207.115 62.3945C206.834 61.8438 206.424 61.4277 205.885 61.1465C205.357 60.8535 204.713 60.707 203.951 60.707C202.768 60.707 201.848 61.0762 201.191 61.8145C200.547 62.5527 200.225 63.5898 200.225 64.9258V68.8984C200.225 70.2227 200.547 71.248 201.191 71.9746C201.848 72.6895 202.768 73.0469 203.951 73.0469C204.713 73.0469 205.357 72.9004 205.885 72.6074C206.424 72.3027 206.834 71.8691 207.115 71.3066C207.396 70.7441 207.537 70.0703 207.537 69.2852L207.783 73.1348C207.455 73.9551 206.887 74.6934 206.078 75.3496C205.281 75.9941 204.238 76.3164 202.949 76.3164ZM216.572 76V57.7539H220.158V76H216.572ZM226.609 62.0781C226.293 61.6914 225.895 61.3984 225.414 61.1992C224.934 61 224.377 60.9004 223.744 60.9004C222.607 60.9004 221.723 61.2168 221.09 61.8496C220.469 62.4707 220.158 63.3379 220.158 64.4512L219.789 60.9355C220.34 59.8574 221.061 59.0137 221.951 58.4043C222.854 57.7949 223.844 57.4902 224.922 57.4902C225.754 57.4902 226.504 57.6133 227.172 57.8594C227.852 58.0938 228.443 58.4453 228.947 58.9141L226.609 62.0781ZM242.236 76V64.4336C242.236 63.2383 241.914 62.3125 241.27 61.6562C240.637 60.9883 239.734 60.6543 238.562 60.6543C237.848 60.6543 237.139 60.7656 236.436 60.9883C235.744 61.1992 235.123 61.5098 234.572 61.9199L231.953 60.127C232.645 59.2949 233.553 58.6504 234.678 58.1934C235.814 57.7246 237.074 57.4902 238.457 57.4902C240.742 57.4902 242.512 58.082 243.766 59.2656C245.02 60.4492 245.646 62.1191 245.646 64.2754V76H242.236ZM237.771 76.2637C235.533 76.2637 233.852 75.8008 232.727 74.875C231.613 73.9492 231.057 72.5312 231.057 70.6211C231.057 68.8047 231.566 67.4512 232.586 66.5605C233.617 65.6582 235.158 65.207 237.209 65.207H242.395L242.641 68.0898H237.227C236.301 68.0898 235.604 68.3008 235.135 68.7227C234.666 69.1328 234.432 69.7656 234.432 70.6211C234.432 71.5469 234.742 72.2324 235.363 72.6777C235.984 73.123 236.916 73.3457 238.158 73.3457C239.518 73.3457 240.537 73.1992 241.217 72.9062C241.896 72.6133 242.236 72.1562 242.236 71.5352L242.605 74.1016C242.289 74.5938 241.896 74.998 241.428 75.3145C240.959 75.6309 240.42 75.8652 239.811 76.0176C239.213 76.1816 238.533 76.2637 237.771 76.2637ZM255.842 76.0879C254.342 76.0879 253.252 75.6719 252.572 74.8398C251.904 74.0078 251.57 72.8125 251.57 71.2539V52.4453H255.156V71.2891C255.156 71.7227 255.244 72.0625 255.42 72.3086C255.596 72.5547 255.854 72.6777 256.193 72.6777H257.916V76.0879H255.842ZM249.689 60.9883V57.7539H257.916V60.9883H249.689ZM273.842 76V57.7539H277.41V76H273.842ZM266.424 57.7539V68.8457C266.424 70.123 266.746 71.1133 267.391 71.8164C268.047 72.5078 268.967 72.8535 270.15 72.8535C271.334 72.8535 272.242 72.543 272.875 71.9219C273.52 71.2891 273.842 70.4043 273.842 69.2676L274.088 73.082C273.76 73.9023 273.186 74.6406 272.365 75.2969C271.545 75.9414 270.473 76.2637 269.148 76.2637C267.133 76.2637 265.574 75.6191 264.473 74.3301C263.383 73.0293 262.838 71.2012 262.838 68.8457V57.7539H266.424ZM286.463 50.4414V71.2891C286.463 71.7227 286.557 72.0625 286.744 72.3086C286.943 72.5547 287.219 72.6777 287.57 72.6777H289.258V76.0879H287.148C285.801 76.0879 284.752 75.666 284.002 74.8223C283.252 73.9785 282.877 72.7891 282.877 71.2539V50.4414H286.463ZM303.443 76V64.4336C303.443 63.2383 303.121 62.3125 302.477 61.6562C301.844 60.9883 300.941 60.6543 299.77 60.6543C299.055 60.6543 298.346 60.7656 297.643 60.9883C296.951 61.1992 296.33 61.5098 295.779 61.9199L293.16 60.127C293.852 59.2949 294.76 58.6504 295.885 58.1934C297.021 57.7246 298.281 57.4902 299.664 57.4902C301.949 57.4902 303.719 58.082 304.973 59.2656C306.227 60.4492 306.854 62.1191 306.854 64.2754V76H303.443ZM298.979 76.2637C296.74 76.2637 295.059 75.8008 293.934 74.875C292.82 73.9492 292.264 72.5312 292.264 70.6211C292.264 68.8047 292.773 67.4512 293.793 66.5605C294.824 65.6582 296.365 65.207 298.416 65.207H303.602L303.848 68.0898H298.434C297.508 68.0898 296.811 68.3008 296.342 68.7227C295.873 69.1328 295.639 69.7656 295.639 70.6211C295.639 71.5469 295.949 72.2324 296.57 72.6777C297.191 73.123 298.123 73.3457 299.365 73.3457C300.725 73.3457 301.744 73.1992 302.424 72.9062C303.104 72.6133 303.443 72.1562 303.443 71.5352L303.812 74.1016C303.496 74.5938 303.104 74.998 302.635 75.3145C302.166 75.6309 301.627 75.8652 301.018 76.0176C300.42 76.1816 299.74 76.2637 298.979 76.2637ZM317.049 76.0879C315.549 76.0879 314.459 75.6719 313.779 74.8398C313.111 74.0078 312.777 72.8125 312.777 71.2539V52.4453H316.363V71.2891C316.363 71.7227 316.451 72.0625 316.627 72.3086C316.803 72.5547 317.061 72.6777 317.4 72.6777H319.123V76.0879H317.049ZM310.896 60.9883V57.7539H319.123V60.9883H310.896ZM324.045 54.0273V50.4414H327.631V54.0273H324.045ZM324.045 76V57.7539H327.631V76H324.045ZM340.076 76.2637C337.686 76.2637 335.834 75.5723 334.521 74.1895C333.209 72.7949 332.553 70.8379 332.553 68.3184V65.3477C332.553 62.8516 333.209 60.918 334.521 59.5469C335.834 58.1758 337.686 57.4902 340.076 57.4902C342.467 57.4902 344.318 58.1758 345.631 59.5469C346.943 60.918 347.6 62.8516 347.6 65.3477V68.3711C347.6 70.8789 346.943 72.8242 345.631 74.207C344.318 75.5781 342.467 76.2637 340.076 76.2637ZM340.076 72.8535C341.33 72.8535 342.297 72.4609 342.977 71.6758C343.668 70.8906 344.014 69.7891 344.014 68.3711V65.3477C344.014 63.9297 343.668 62.834 342.977 62.0605C342.297 61.2871 341.33 60.9004 340.076 60.9004C338.834 60.9004 337.867 61.2871 337.176 62.0605C336.484 62.834 336.139 63.9297 336.139 65.3477V68.3711C336.139 69.7891 336.484 70.8906 337.176 71.6758C337.867 72.4609 338.834 72.8535 340.076 72.8535ZM352.697 76V57.7539H356.283V76H352.697ZM363.771 76V64.9434C363.771 63.6543 363.438 62.6582 362.77 61.9551C362.113 61.252 361.176 60.9004 359.957 60.9004C358.785 60.9004 357.877 61.2109 357.232 61.832C356.6 62.4531 356.283 63.3262 356.283 64.4512L355.914 60.9355C356.477 59.834 357.209 58.9844 358.111 58.3867C359.025 57.7891 360.033 57.4902 361.135 57.4902C363.115 57.4902 364.645 58.1406 365.723 59.4414C366.812 60.7305 367.357 62.5586 367.357 64.9258V76H363.771ZM379.258 76.2637C377.641 76.2637 376.17 76.0293 374.846 75.5605C373.533 75.0801 372.355 74.3652 371.312 73.416L373.439 70.7969C374.436 71.5469 375.414 72.1094 376.375 72.4844C377.348 72.8594 378.309 73.0469 379.258 73.0469C380.676 73.0469 381.736 72.8301 382.439 72.3965C383.154 71.9512 383.512 71.2891 383.512 70.4102C383.512 69.7305 383.271 69.25 382.791 68.9688C382.322 68.6875 381.701 68.5059 380.928 68.4238C380.166 68.3301 379.346 68.2539 378.467 68.1953C377.729 68.1367 376.996 68.0488 376.27 67.9316C375.543 67.8027 374.881 67.5801 374.283 67.2637C373.686 66.9355 373.205 66.4551 372.842 65.8223C372.49 65.1895 372.314 64.3398 372.314 63.2734C372.314 61.3398 372.906 59.8926 374.09 58.9316C375.273 57.9707 377.037 57.4902 379.381 57.4902C380.811 57.4902 382.141 57.6836 383.371 58.0703C384.602 58.457 385.756 59.0488 386.834 59.8457L384.672 62.4648C383.758 61.8789 382.855 61.4395 381.965 61.1465C381.086 60.8535 380.225 60.707 379.381 60.707C378.162 60.707 377.248 60.918 376.639 61.3398C376.029 61.75 375.725 62.3711 375.725 63.2031C375.725 63.7539 375.936 64.1523 376.357 64.3984C376.779 64.6328 377.336 64.7852 378.027 64.8555C378.719 64.9258 379.463 64.9902 380.26 65.0488C381.021 65.0957 381.789 65.1836 382.562 65.3125C383.348 65.4297 384.068 65.6641 384.725 66.0156C385.381 66.3672 385.908 66.8887 386.307 67.5801C386.705 68.2715 386.904 69.2148 386.904 70.4102C386.904 72.3672 386.266 73.832 384.988 74.8047C383.723 75.7773 381.812 76.2637 379.258 76.2637Z" fill="white"/>
<rect x="161" y="285" width="200" height="54" rx="27" fill="#FFE500"/>
<path d="M195.5 323V300.281H199.781V323H195.5ZM197.406 323V318.875H210.719V323H197.406ZM213.844 323V300.281H218.125V323H213.844ZM215.391 323V318.875H229.062V323H215.391ZM215.391 313.781V309.656H227.344V313.781H215.391ZM215.391 304.406V300.281H229.062V304.406H215.391ZM236.656 323V302.141H240.938V323H236.656ZM230.469 304.406V300.281H247.125V304.406H230.469ZM247.203 309.969V300.281H251.484V305.875L247.203 309.969ZM260.891 323.234C259.807 323.234 258.745 323.125 257.703 322.906C256.672 322.688 255.703 322.37 254.797 321.953C253.891 321.526 253.073 321.016 252.344 320.422L254.328 316.891C255.203 317.609 256.214 318.167 257.359 318.562C258.505 318.948 259.682 319.141 260.891 319.141C262.286 319.141 263.37 318.906 264.141 318.438C264.911 317.958 265.297 317.286 265.297 316.422V316.406C265.297 315.75 265.104 315.25 264.719 314.906C264.333 314.552 263.823 314.292 263.188 314.125C262.562 313.958 261.88 313.818 261.141 313.703C260.255 313.568 259.359 313.401 258.453 313.203C257.547 312.995 256.714 312.672 255.953 312.234C255.193 311.786 254.578 311.151 254.109 310.328C253.651 309.505 253.422 308.406 253.422 307.031V307.016C253.422 304.797 254.151 303.083 255.609 301.875C257.068 300.656 259.13 300.047 261.797 300.047C263.026 300.047 264.276 300.255 265.547 300.672C266.818 301.078 268 301.661 269.094 302.422L267.281 306.047C266.406 305.432 265.49 304.964 264.531 304.641C263.583 304.307 262.672 304.141 261.797 304.141C260.484 304.141 259.469 304.359 258.75 304.797C258.031 305.224 257.672 305.828 257.672 306.609V306.625C257.672 307.354 257.885 307.906 258.312 308.281C258.74 308.656 259.297 308.938 259.984 309.125C260.672 309.302 261.411 309.469 262.203 309.625C263.078 309.792 263.948 310 264.812 310.25C265.677 310.49 266.469 310.839 267.188 311.297C267.906 311.755 268.479 312.385 268.906 313.188C269.333 313.99 269.547 315.031 269.547 316.312V316.344C269.547 318.531 268.792 320.229 267.281 321.438C265.771 322.635 263.641 323.234 260.891 323.234ZM290.344 310.297H298.219V314.734C298.219 316.443 297.875 317.938 297.188 319.219C296.5 320.49 295.536 321.479 294.297 322.188C293.068 322.885 291.62 323.234 289.953 323.234C288.276 323.234 286.807 322.906 285.547 322.25C284.297 321.583 283.323 320.651 282.625 319.453C281.938 318.245 281.594 316.839 281.594 315.234V308.531C281.594 306.823 281.938 305.333 282.625 304.062C283.312 302.792 284.271 301.807 285.5 301.109C286.74 300.401 288.193 300.047 289.859 300.047C291.234 300.047 292.484 300.328 293.609 300.891C294.745 301.453 295.698 302.24 296.469 303.25C297.24 304.26 297.76 305.443 298.031 306.797H293.406C293.177 306.057 292.719 305.49 292.031 305.094C291.354 304.688 290.63 304.484 289.859 304.484C288.703 304.484 287.776 304.854 287.078 305.594C286.38 306.333 286.031 307.312 286.031 308.531V315.234C286.031 316.307 286.391 317.172 287.109 317.828C287.828 318.474 288.776 318.797 289.953 318.797C291.109 318.797 292.036 318.448 292.734 317.75C293.432 317.042 293.781 316.057 293.781 314.797V314.422H290.344V310.297ZM309.953 323.234C308.286 323.234 306.828 322.891 305.578 322.203C304.339 321.505 303.375 320.526 302.688 319.266C302 318.005 301.656 316.536 301.656 314.859V308.422C301.656 306.734 302 305.266 302.688 304.016C303.375 302.755 304.339 301.781 305.578 301.094C306.828 300.396 308.286 300.047 309.953 300.047C311.62 300.047 313.073 300.396 314.312 301.094C315.562 301.781 316.531 302.755 317.219 304.016C317.906 305.266 318.25 306.734 318.25 308.422V314.859C318.25 316.536 317.906 318.005 317.219 319.266C316.531 320.526 315.562 321.505 314.312 322.203C313.073 322.891 311.62 323.234 309.953 323.234ZM309.953 318.953C311.12 318.953 312.052 318.589 312.75 317.859C313.458 317.13 313.812 316.167 313.812 314.969V308.312C313.812 307.104 313.458 306.141 312.75 305.422C312.052 304.693 311.12 304.328 309.953 304.328C308.786 304.328 307.849 304.693 307.141 305.422C306.443 306.141 306.094 307.104 306.094 308.312V314.969C306.094 316.167 306.443 317.13 307.141 317.859C307.849 318.589 308.786 318.953 309.953 318.953ZM322.469 316.234V300.281H326.75V316.234H322.469ZM322.469 323V318.719H326.75V323H322.469Z" fill="#9E6DD0"/>
<defs>
<linearGradient id="paint0_linear_42_730" x1="522" y1="187" x2="-3.47566e-06" y2="187" gradientUnits="userSpaceOnUse">
<stop stop-color="#DD63C2"/>
<stop offset="1" stop-color="#6376DD"/>
</linearGradient>
</defs>
</svg>
