<svg width="852" height="173" viewBox="0 0 852 173" fill="none" xmlns="http://www.w3.org/2000/svg">
<path d="M43.1055 146.569C42.3272 145.864 41.4677 145.079 40.5272 144.214C39.604 143.339 38.6621 142.452 37.7015 141.553C36.7482 140.626 35.8322 139.723 34.9537 138.846C34.0924 137.958 33.2985 137.146 32.5722 136.412C31.8631 135.667 31.2998 135.034 30.8823 134.513L31.7934 133.812C31.8646 134.094 31.9733 134.62 32.1194 135.391C32.2555 136.144 32.4235 137.053 32.6235 138.116C32.8235 139.179 33.024 140.322 33.225 141.546C33.4332 142.743 33.6192 143.942 33.7828 145.141C33.9637 146.331 34.1218 147.441 34.2571 148.473C34.3997 149.476 34.5053 150.317 34.5739 150.994L25.175 155.955C24.2169 154.661 23.0948 153.104 21.8086 151.284C20.5296 149.436 19.1404 147.398 17.6408 145.169C16.1312 142.924 14.5686 140.547 12.9532 138.039C11.3378 135.53 9.70825 132.938 8.06453 130.262C6.4208 127.585 4.8217 124.906 3.26725 122.224L12.4954 117.326C13.3479 118.797 14.2933 120.468 15.3318 122.34C16.3602 124.194 17.4151 126.114 18.4965 128.099C19.5851 130.057 20.6486 131.972 21.6871 133.844C22.7256 135.715 23.6687 137.422 24.5167 138.965C25.3819 140.498 26.109 141.752 26.6979 142.729L26.5015 143.467C26.391 142.837 26.2134 141.992 25.9688 140.932C25.7314 139.845 25.4648 138.647 25.1691 137.339C24.8633 136.013 24.5374 134.653 24.1915 133.259C23.8456 131.864 23.4888 130.511 23.1211 129.198C22.7534 127.886 22.4076 126.711 22.0837 125.673C21.7498 124.619 21.4346 123.796 21.1383 123.205L27.1887 119.525C27.3965 119.843 27.8368 120.443 28.5095 121.325C29.1895 122.179 30.0094 123.195 30.9692 124.372C31.9463 125.54 32.9808 126.766 34.0728 128.052C35.1547 129.321 36.2079 130.56 37.2324 131.769C38.2641 132.951 39.1934 133.996 40.02 134.904C40.854 135.784 41.4879 136.399 41.9216 136.749L40.8247 137.489C40.1105 135.498 39.1675 133.213 37.9957 130.633C36.8412 128.043 35.5883 125.382 34.237 122.652C32.8856 119.921 31.5526 117.342 30.2378 114.914C28.9304 112.459 27.7902 110.392 26.8174 108.713L34.5121 103.144C36.2571 106.155 37.9111 109.288 39.474 112.543C41.0369 115.798 42.4705 118.99 43.7746 122.117C45.0788 125.245 46.2288 128.127 47.2248 130.763C48.2209 133.399 49.0258 135.625 49.6397 137.442C50.2436 139.242 50.6405 140.445 50.8302 141.052L43.1055 146.569Z" fill="black"/>
<path d="M72.468 130.425C72.0942 130.705 71.5419 131.053 70.8112 131.469C70.0983 131.876 69.3496 132.279 68.5651 132.678C67.638 133.149 66.7551 133.553 65.9166 133.889C65.087 134.244 64.4488 134.445 64.0019 134.492C63.6009 133.35 63.0189 131.896 62.256 130.13C61.5018 128.337 60.6167 126.353 59.6007 124.177C58.6024 121.992 57.5053 119.723 56.3092 117.369C55.0859 114.962 53.7954 112.533 52.4376 110.083C51.0977 107.623 49.7763 105.266 48.4736 103.011C47.1617 100.739 45.963 98.6673 44.8774 96.7961C44.975 96.6792 45.3265 96.3996 45.9318 95.9573C46.5371 95.5151 47.2494 95.0185 48.0687 94.4675C48.8789 93.8986 49.6536 93.3703 50.3928 92.8825C51.132 92.3946 51.6977 92.051 52.0899 91.8517C53.0548 93.0439 54.1154 94.5128 55.2718 96.2583C56.4281 98.0038 57.6394 99.9458 58.9057 102.084C60.1629 104.205 61.4298 106.455 62.7066 108.835C62.9685 107.849 63.4271 106.853 64.0824 105.847C64.7286 104.823 65.5185 103.883 66.452 103.027C67.3944 102.145 68.4093 101.427 69.4969 100.874C71.6721 99.7688 73.5521 99.3405 75.1369 99.5895C76.7127 99.8207 78.1266 100.616 79.3788 101.977C80.6398 103.31 81.8457 105.109 82.9965 107.373C83.7214 108.8 84.4383 110.365 85.1471 112.068C85.8738 113.763 86.5512 115.449 87.1794 117.127C87.8076 118.804 88.3364 120.33 88.7658 121.705C88.187 122.111 87.5814 122.509 86.9489 122.897C86.3164 123.286 85.6703 123.648 85.0106 123.983C84.2796 124.355 83.5394 124.686 82.79 124.977C82.0674 125.277 81.3937 125.519 80.7688 125.702C80.4858 124.836 80.1393 123.823 79.7292 122.663C79.3191 121.503 78.8865 120.321 78.4313 119.116C77.9672 117.894 77.5079 116.747 77.0537 115.677C76.6082 114.58 76.1997 113.666 75.8282 112.935C75.2936 111.883 74.7335 111.046 74.1481 110.423C73.5804 109.792 72.9697 109.407 72.3158 109.268C71.6707 109.102 70.9648 109.214 70.1982 109.604C69.5385 109.939 68.9779 110.381 68.5164 110.93C68.0458 111.461 67.656 112.04 67.3471 112.668C67.0469 113.269 66.8093 113.861 66.6343 114.444C66.4501 115.009 66.3236 115.488 66.2546 115.882C67.1879 117.718 68.0767 119.577 68.9209 121.459C69.756 123.323 70.4828 125.04 71.1013 126.61C71.7198 128.181 72.1754 129.452 72.468 130.425Z" fill="black"/>
<path d="M110.794 112.142C108.545 113.137 106.353 113.745 104.221 113.967C102.08 114.17 100.148 113.833 98.4259 112.954C96.7136 112.05 95.3518 110.454 94.3405 108.168C93.3292 105.882 93.1563 103.76 93.8218 101.804C94.4974 99.8209 95.7494 98.0534 97.5778 96.5011C99.4163 94.9225 101.552 93.5951 103.985 92.5191C104.936 92.0984 105.883 91.7671 106.825 91.5251C107.768 91.2831 108.613 91.117 109.36 91.027C110.126 90.9288 110.696 90.9065 111.069 90.9599C110.841 90.4925 110.518 90.034 110.1 89.5845C109.701 89.1268 109.265 88.7839 108.792 88.5556C107.912 88.0484 106.887 87.7582 105.717 87.6851C104.558 87.5856 103.21 87.8756 101.674 88.5552C100.119 89.2429 98.9048 90.2063 98.0315 91.4455C97.15 92.6664 96.5925 93.8534 96.359 95.0064L87.7593 93.66C88.0646 92.1254 88.7182 90.6116 89.7199 89.1188C90.7399 87.6179 92.0278 86.2282 93.5836 84.9495C95.1576 83.6628 96.9232 82.5867 98.8803 81.721C102.118 80.289 104.977 79.6585 107.458 79.8294C109.939 80.0003 112.085 80.8225 113.896 82.2959C114.758 83.0082 115.578 83.8483 116.356 84.8163C117.134 85.7843 117.894 86.9574 118.634 88.3355C119.25 89.5286 119.81 90.6475 120.316 91.6922C120.822 92.7368 121.303 93.7266 121.761 94.6616C122.412 96.0355 122.968 96.8721 123.428 97.1714C123.889 97.4707 124.375 97.5071 124.887 97.2806C125.363 97.0703 125.727 96.7562 125.979 96.3383C126.242 95.894 126.331 95.4281 126.247 94.9406L131.515 99.1383C131.686 100.069 131.431 101.024 130.749 102.003C130.067 102.983 129.012 103.788 127.586 104.419C126.543 104.88 125.478 105.144 124.392 105.209C123.297 105.255 122.315 105.11 121.444 104.774C120.565 104.419 119.897 103.873 119.44 103.135C119.454 103.959 119.145 104.916 118.512 106.005C117.87 107.076 116.915 108.155 115.646 109.241C114.368 110.309 112.751 111.276 110.794 112.142ZM109.781 104.881C110.64 104.501 111.462 103.985 112.245 103.332C113.038 102.653 113.711 101.951 114.265 101.225C114.837 100.491 115.231 99.8242 115.447 99.2255C115.16 98.6747 114.864 98.1056 114.561 97.5182C114.275 96.9227 114.049 96.4105 113.881 95.9818C113.406 95.9951 112.561 96.1612 111.346 96.4799C110.141 96.7722 108.926 97.1894 107.701 97.7314C106.585 98.2249 105.595 98.805 104.731 99.4715C103.866 100.138 103.233 100.856 102.829 101.625C102.444 102.386 102.425 103.159 102.773 103.946C103.145 104.787 103.669 105.354 104.345 105.645C105.021 105.937 105.819 106.01 106.739 105.866C107.651 105.703 108.665 105.375 109.781 104.881Z" fill="black"/>
<path d="M161.044 86.8516C160.954 87.6786 160.676 88.631 160.211 89.7088C159.758 90.7608 159.028 91.7901 158.021 92.7969C157.041 93.8152 155.691 94.6535 153.973 95.3119C151.713 96.1778 149.682 96.4101 147.879 96.0087C146.095 95.6001 144.553 94.7345 143.253 93.4118C141.973 92.082 140.971 90.474 140.248 88.5877C139.855 87.5605 139.445 86.4644 139.02 85.2994C138.607 84.1085 138.2 82.9363 137.801 81.7827C137.395 80.6105 137.014 79.5037 136.657 78.4622C136.313 77.3949 136.009 76.4619 135.745 75.6632C135.501 74.8573 135.306 74.236 135.16 73.7993C133.742 74.5141 132.443 75.2046 131.263 75.8708C130.076 76.5184 129.261 76.9912 128.819 77.2894C128.231 76.3151 127.683 75.3042 127.175 74.2568C126.666 73.2094 126.23 72.2949 125.867 71.5133C125.521 70.7246 125.313 70.2368 125.242 70.05C126.267 69.4856 127.375 68.9111 128.565 68.3268C129.747 67.7237 131.01 67.133 132.352 66.5545C132.161 66.1135 131.874 65.4203 131.49 64.475C131.107 63.5296 130.75 62.6813 130.419 61.9299C130.135 61.2461 129.833 60.5694 129.512 59.8998C129.184 59.2116 128.919 58.6599 128.717 58.2447L136.73 54.3389C136.816 54.563 137.017 55.0859 137.332 55.9076C137.665 56.7222 138.054 57.7084 138.497 58.8663C138.719 59.4453 138.986 60.114 139.298 60.8726C139.603 61.6125 139.905 62.343 140.202 63.0642C140.804 62.7907 141.509 62.4778 142.317 62.1256C143.124 61.7734 143.767 61.4949 144.245 61.2901C145.015 60.9522 145.718 60.6616 146.353 60.4183C146.981 60.1563 147.5 59.9466 147.911 59.7891C148.34 59.6245 148.633 59.5229 148.79 59.4844C149.238 60.3192 149.743 61.4111 150.302 62.7601C150.855 64.0905 151.332 65.2786 151.732 66.3244C151.538 66.3773 150.935 66.6192 149.922 67.0502C148.902 67.4625 147.908 67.8863 146.94 68.3216C146.256 68.605 145.504 68.9358 144.685 69.3139C143.867 69.6919 143.225 70.002 142.761 70.2441C142.893 70.6435 143.072 71.1958 143.299 71.9011C143.538 72.5806 143.804 73.357 144.096 74.2304C144.399 75.078 144.707 75.9665 145.021 76.8959C145.346 77.7995 145.66 78.6751 145.963 79.5227C146.266 80.3702 146.543 81.1208 146.794 81.7745C147.266 83.0071 147.748 84.0968 148.239 85.0437C148.742 85.9648 149.31 86.636 149.943 87.0576C150.587 87.4532 151.348 87.4829 152.226 87.1465C152.805 86.9247 153.235 86.567 153.517 86.0734C153.799 85.5798 153.985 85.0588 154.075 84.5103C154.176 83.9361 154.261 83.4322 154.331 82.9986C154.702 83.2418 155.21 83.5612 155.855 83.9569C156.51 84.3267 157.195 84.7174 157.91 85.129C158.643 85.5334 159.295 85.8939 159.867 86.2105C160.456 86.5199 160.849 86.7337 161.044 86.8516Z" fill="black"/>
<path d="M166.156 60.0753C165.49 59.9229 164.729 59.6448 163.872 59.241C163.014 58.8373 162.299 58.3849 161.725 57.8838C161.982 57.5843 162.313 57.1324 162.719 56.5281C163.144 55.9173 163.521 55.2911 163.851 54.6494C164.181 54.0078 164.313 53.4975 164.246 53.1186C164.171 53.271 164.008 53.4432 163.757 53.6351C163.525 53.8205 163.219 53.9781 162.841 54.1078C161.611 54.5295 160.548 54.4816 159.652 53.9643C158.749 53.4281 158.126 52.6587 157.782 51.656C157.263 50.1425 157.375 48.7722 158.117 47.5452C158.872 46.2927 159.987 45.4135 161.462 44.9076C163.146 44.3302 164.705 44.3454 166.14 44.9529C167.575 45.5605 168.561 46.6494 169.099 48.2196C169.625 49.7521 169.812 51.2526 169.66 52.7212C169.508 54.1899 169.109 55.5531 168.462 56.811C167.833 58.0623 167.065 59.1505 166.156 60.0753Z" fill="black"/>
<path d="M203.227 79.5426C200.988 80.2207 198.846 80.5663 196.802 80.5793C194.783 80.6055 193.012 80.4521 191.49 80.1189C189.982 79.7607 188.851 79.3719 188.097 78.9524C188.101 78.5539 188.162 77.9609 188.279 77.1732C188.409 76.3606 188.579 75.4732 188.789 74.511C188.999 73.5488 189.227 72.6441 189.472 71.7967C189.717 70.9494 189.969 70.2983 190.228 69.8437C191.385 70.3502 192.615 70.824 193.919 71.2651C195.217 71.687 196.503 71.9663 197.777 72.1028C199.051 72.2394 200.176 72.1598 201.153 71.8642C201.918 71.6324 202.578 71.328 203.133 70.9511C203.682 70.555 204.068 70.1039 204.29 69.5975C204.532 69.0854 204.564 68.5327 204.384 67.9393C204.175 67.2502 203.64 66.6913 202.779 66.2625C201.931 65.8087 200.903 65.4512 199.696 65.19C198.488 64.9288 197.25 64.7394 195.982 64.622C194.24 64.4599 192.572 64.1605 190.977 63.7241C189.376 63.2684 187.976 62.5432 186.776 61.5482C185.57 60.5341 184.683 59.0891 184.115 57.2132C183.536 55.2991 183.613 53.5202 184.349 51.8766C185.084 50.2329 186.259 48.8008 187.875 47.5802C189.509 46.3538 191.37 45.4247 193.457 44.7929C195.428 44.1958 197.512 43.8676 199.71 43.8083C201.901 43.7299 203.791 44.0037 205.381 44.6299C205.376 45.0283 205.296 45.6588 205.139 46.5212C205.001 47.3779 204.795 48.3181 204.52 49.3417C204.258 50.3405 203.938 51.2838 203.559 52.1717C202.571 51.7394 201.391 51.3967 200.019 51.1435C198.646 50.8904 197.31 50.9609 196.008 51.3551C195.357 51.5521 194.727 51.8162 194.116 52.1473C193.525 52.4726 193.071 52.8712 192.754 53.3433C192.457 53.8096 192.398 54.3394 192.578 54.9328C192.751 55.507 193.128 55.9572 193.707 56.2833C194.281 56.5902 195.053 56.8267 196.022 56.9928C197.011 57.1531 198.15 57.289 199.437 57.4006C200.725 57.5122 202.058 57.7042 203.436 57.9765C204.808 58.2296 206.122 58.6362 207.378 59.1962C208.654 59.7503 209.772 60.5089 210.732 61.4719C211.686 62.4158 212.387 63.6247 212.833 65.0986C213.546 67.453 213.556 69.5918 212.864 71.515C212.172 73.4382 210.965 75.0782 209.245 76.4351C207.549 77.8054 205.543 78.8412 203.227 79.5426Z" fill="black"/>
<path d="M262.723 62.3298C257.544 63.454 253.348 62.9321 250.135 60.7643C246.918 58.5769 244.741 54.8642 243.604 49.6261C242.844 46.1276 242.889 43.0788 243.737 40.4798C244.581 37.8613 246.067 35.7069 248.197 34.0166C250.347 32.3222 252.995 31.1334 256.142 30.4504C259.347 29.7547 262.164 29.9107 264.593 30.9184C267.042 31.9219 269.074 33.5991 270.689 35.9499C272.305 38.3008 273.479 41.1669 274.213 44.5481C274.854 47.4994 274.845 50.1926 274.186 52.6277C273.528 55.0628 272.235 57.1237 270.309 58.8107C268.399 60.4738 265.87 61.6468 262.723 62.3298ZM260.575 53.9857C261.65 53.7524 262.557 53.361 263.297 52.8114C264.057 52.2577 264.646 51.5773 265.065 50.7702C265.498 49.9393 265.76 49.0229 265.849 48.0212C265.939 47.0194 265.863 45.9614 265.621 44.8474C265.244 43.1079 264.656 41.6287 263.86 40.41C263.078 39.1674 262.119 38.2809 260.98 37.7503C259.857 37.1959 258.582 37.0735 257.155 37.3832C255.611 37.7183 254.435 38.3828 253.628 39.3768C252.82 40.3707 252.32 41.5537 252.126 42.926C251.948 44.2744 252.014 45.662 252.324 47.0888C252.846 49.4928 253.824 51.3578 255.257 52.6839C256.711 54.0057 258.483 54.4396 260.575 53.9857Z" fill="black"/>
<path d="M302.034 24.4691C302.499 24.2115 303.179 23.9696 304.074 23.7435C304.986 23.4944 305.877 23.2995 306.745 23.1588C307.476 23.0405 308.29 22.9389 309.188 22.8542C310.086 22.7695 310.818 22.7219 311.383 22.7113C311.899 24.2688 312.359 25.8557 312.763 27.472C313.163 29.0685 313.491 30.6564 313.747 32.2358C314.217 35.138 314.404 37.9139 314.306 40.5636C314.229 43.2101 313.775 45.6034 312.947 47.7434C312.119 49.8834 310.837 51.6614 309.101 53.0772C307.368 54.5128 305.1 55.4577 302.296 55.9119C299.315 56.3949 296.763 56.2108 294.639 55.3594C292.513 54.4883 290.737 53.0944 289.312 51.1776C287.884 49.2411 286.726 46.9063 285.837 44.1732C284.965 41.4172 284.265 38.4104 283.737 35.1529C283.504 33.7117 283.297 32.2459 283.116 30.7557C282.952 29.2424 282.809 27.7359 282.688 26.236C283.195 26.1133 283.861 25.975 284.687 25.8209C285.53 25.6439 286.298 25.5092 286.992 25.417C287.979 25.2571 288.976 25.1564 289.982 25.1149C291.005 25.0505 291.817 25.0607 292.419 25.1457C292.498 26.5106 292.615 27.9808 292.769 29.5565C292.919 31.1124 293.121 32.6702 293.374 34.2298C293.796 36.8359 294.345 39.158 295.019 41.1964C295.714 43.2315 296.565 44.7955 297.572 45.8884C298.58 46.9813 299.775 47.4158 301.157 47.1919C302.46 46.9808 303.407 46.2601 303.998 45.0297C304.608 43.7962 304.931 42.2244 304.966 40.3142C305.018 38.3811 304.856 36.2596 304.482 33.9497C304.201 32.2123 303.835 30.519 303.385 28.8697C302.952 27.1974 302.502 25.7306 302.034 24.4691Z" fill="black"/>
<path d="M352.213 43.6435C351.918 44.4213 351.41 45.2734 350.689 46.1999C349.986 47.1042 349.021 47.9172 347.794 48.6389C346.589 49.3783 345.072 49.8508 343.244 50.0565C340.839 50.3271 338.814 50.0417 337.17 49.2003C335.545 48.3567 334.27 47.1315 333.345 45.5249C332.439 43.9161 331.874 42.108 331.648 40.1007C331.525 39.0076 331.404 37.8438 331.285 36.6093C331.184 35.3528 331.085 34.1161 330.988 32.8992C330.889 31.6625 330.798 30.4954 330.715 29.3978C330.65 28.2782 330.59 27.2987 330.535 26.4595C330.501 25.6181 330.468 24.9677 330.437 24.5083C328.884 24.844 327.454 25.1861 326.145 25.5347C324.833 25.8634 323.926 26.1164 323.422 26.2938C323.098 25.2032 322.822 24.0871 322.593 22.9456C322.364 21.804 322.171 20.8093 322.015 19.9614C321.88 19.1113 321.8 18.5868 321.778 18.3881C322.913 18.0994 324.129 17.8216 325.428 17.5548C326.724 17.2681 328.094 17.0133 329.538 16.7904C329.465 16.3156 329.361 15.5726 329.227 14.5612C329.093 13.5498 328.96 12.639 328.829 11.8286C328.726 11.0955 328.604 10.3646 328.461 9.63591C328.317 8.88739 328.199 8.2868 328.108 7.83416L336.845 6.06616C336.872 6.30465 336.934 6.86114 337.033 7.73562C337.151 8.60787 337.279 9.6601 337.418 10.8923C337.487 11.5084 337.578 12.2228 337.689 13.0354C337.799 13.8282 337.907 14.611 338.014 15.3839C338.665 15.2703 339.426 15.1445 340.296 15.0063C341.166 14.8682 341.858 14.7601 342.373 14.6821C343.203 14.5484 343.956 14.4436 344.632 14.3675C345.305 14.2716 345.861 14.1991 346.298 14.1499C346.755 14.0984 347.064 14.0737 347.225 14.0757C347.45 14.9964 347.663 16.1799 347.866 17.6263C348.067 19.0528 348.23 20.3225 348.355 21.4355C348.154 21.438 347.51 21.5206 346.421 21.6833C345.33 21.8262 344.261 21.9867 343.215 22.1649C342.482 22.2675 341.671 22.3989 340.784 22.5592C339.896 22.7194 339.197 22.8584 338.687 22.9762C338.714 23.3958 338.749 23.9755 338.792 24.7154C338.853 25.4331 338.915 26.2513 338.978 27.17C339.059 28.0666 339.134 29.004 339.204 29.9824C339.291 30.9386 339.375 31.865 339.456 32.7616C339.537 33.6582 339.616 34.4543 339.695 35.1499C339.842 36.4616 340.035 37.6374 340.273 38.6774C340.528 39.6952 340.909 40.4876 341.416 41.0545C341.94 41.5993 342.669 41.8191 343.603 41.714C344.219 41.6447 344.726 41.4066 345.123 40.9996C345.52 40.5927 345.83 40.1351 346.055 39.6268C346.297 39.0964 346.506 38.6301 346.683 38.2279C346.981 38.5565 347.393 38.9933 347.917 39.5381C348.459 40.0608 349.024 40.611 349.612 41.1889C350.22 41.7645 350.761 42.2772 351.234 42.7271C351.727 43.1748 352.054 43.4802 352.213 43.6435Z" fill="black"/>
<path d="M374.03 48.2889C371.695 48.4464 369.53 48.3018 367.536 47.855C365.563 47.4269 363.872 46.8794 362.464 46.2127C361.074 45.5246 360.059 44.8915 359.419 44.3133C359.513 43.9261 359.706 43.3618 359.996 42.6206C360.306 41.858 360.671 41.0316 361.092 40.1412C361.513 39.2509 361.938 38.4204 362.367 37.6498C362.796 36.8791 363.188 36.3014 363.543 35.9167C364.556 36.6702 365.648 37.4084 366.82 38.1312C367.99 38.834 369.18 39.3952 370.391 39.8146C371.602 40.234 372.716 40.4094 373.734 40.3408C374.532 40.2869 375.244 40.1387 375.869 39.8961C376.493 39.6335 376.97 39.2806 377.301 38.8373C377.652 38.3927 377.807 37.8611 377.765 37.2425C377.716 36.5241 377.321 35.8592 376.578 35.2478C375.854 34.6152 374.933 34.0358 373.815 33.5099C372.697 32.9839 371.533 32.5212 370.323 32.1217C368.663 31.5723 367.104 30.9056 365.648 30.1219C364.191 29.3181 362.989 28.2967 362.044 27.0575C361.097 25.7984 360.557 24.1911 360.425 22.2355C360.291 20.24 360.766 18.5241 361.852 17.0878C362.938 15.6515 364.405 14.5201 366.254 13.6938C368.122 12.8662 370.144 12.379 372.319 12.2323C374.374 12.0936 376.479 12.2423 378.633 12.6783C380.786 13.0943 382.567 13.7861 383.975 14.7535C383.881 15.1407 383.661 15.7369 383.314 16.542C382.987 17.3458 382.575 18.2156 382.077 19.1512C381.597 20.0656 381.073 20.9128 380.504 21.6928C379.639 21.0496 378.566 20.4504 377.286 19.8954C376.006 19.3403 374.687 19.1085 373.33 19.2C372.652 19.2458 371.978 19.3614 371.309 19.5469C370.66 19.731 370.128 20.0174 369.713 20.4062C369.319 20.7937 369.142 21.2967 369.184 21.9153C369.224 22.5139 369.49 23.0372 369.981 23.4852C370.471 23.9132 371.17 24.317 372.077 24.6968C373.005 25.0752 374.084 25.4635 375.313 25.8617C376.543 26.2598 377.798 26.7464 379.08 27.3215C380.36 27.8765 381.55 28.5681 382.648 29.396C383.766 30.2226 384.685 31.2131 385.404 32.3673C386.122 33.5015 386.533 34.8369 386.636 36.3734C386.802 38.8278 386.331 40.9142 385.224 42.6326C384.118 44.351 382.573 45.678 380.592 46.6134C378.632 47.5675 376.444 48.126 374.03 48.2889Z" fill="black"/>
<path d="M406.832 44.3315C406.493 44.3614 405.845 44.4203 404.887 44.5082C403.95 44.6156 402.951 44.6847 401.892 44.7156C401.112 44.7383 400.321 44.7314 399.52 44.6947C398.739 44.6774 397.968 44.6399 397.206 44.5821C397.291 44.0594 397.37 42.9966 397.443 41.3938C397.536 39.7704 397.61 37.8675 397.667 35.6849C397.743 33.5017 397.807 31.2489 397.86 28.9264C397.932 26.5833 397.968 24.3913 397.968 22.3504C397.989 20.309 397.981 18.6685 397.945 17.429C398.344 17.3974 398.933 17.3502 399.711 17.2875C400.49 17.2248 401.329 17.1703 402.228 17.1241C403.126 17.0579 403.985 17.0028 404.804 16.9589C405.622 16.8951 406.272 16.8561 406.751 16.8421C406.869 17.459 406.979 18.4562 407.079 19.8339C407.179 21.2115 407.254 22.75 407.303 24.4493C407.356 26.2685 407.383 28.1986 407.382 30.2395C407.402 32.2798 407.389 34.2609 407.345 36.183C407.321 38.0846 407.26 39.7671 407.162 41.2305C407.064 42.674 406.954 43.7076 406.832 44.3315ZM402.56 13.0927C400.761 13.1451 399.237 12.6694 397.987 11.6653C396.736 10.6413 396.086 9.26972 396.036 7.55045C396.002 6.37095 396.262 5.35293 396.817 4.49638C397.373 3.63984 398.104 2.97825 399.01 2.51163C399.937 2.02443 400.92 1.76568 401.959 1.73537C403.618 1.687 405.004 2.18685 406.115 3.23492C407.246 4.2824 407.836 5.65578 407.885 7.35506C407.931 8.93439 407.45 10.279 406.442 11.3888C405.434 12.4787 404.14 13.0466 402.56 13.0927Z" fill="black"/>
<path d="M441.552 44.2129C441.516 43.9324 441.491 43.5321 441.478 43.0119C441.465 42.4916 441.452 41.9614 441.439 41.4212C441.446 40.8613 441.452 40.4113 441.456 40.0713C441.212 40.4082 440.826 40.8132 440.3 41.2864C439.794 41.7399 439.138 42.1915 438.332 42.6411C437.527 43.0907 436.552 43.4681 435.408 43.7733C434.264 44.0585 432.932 44.1913 431.412 44.1716C428.892 44.1389 426.73 43.5009 424.926 42.2574C423.122 41.0139 421.744 39.3359 420.791 37.2234C419.839 35.0909 419.38 32.7047 419.414 30.065C419.447 27.4652 419.969 25.0517 420.978 22.8246C422.007 20.5778 423.52 18.7772 425.518 17.423C427.516 16.0487 430.015 15.381 433.015 15.4199C434.514 15.4393 435.872 15.6269 437.088 15.9827C438.323 16.3387 439.368 16.7823 440.221 17.3134C441.074 17.8245 441.677 18.3424 442.031 18.867C442.105 17.7679 442.201 16.509 442.32 15.0904C442.438 13.6518 442.567 12.1834 442.707 10.6851C442.866 9.16699 443.015 7.7288 443.153 6.37046C443.29 5.01213 443.405 3.85353 443.498 2.89464C443.61 1.91602 443.689 1.26698 443.733 0.947527C444.893 0.962552 446.192 1.04939 447.63 1.20803C449.088 1.34693 450.375 1.57362 451.491 1.8881C451.092 6.46331 450.763 11.0394 450.504 15.6165C450.244 20.1735 450.044 24.8413 449.902 29.6198C449.78 34.3787 449.686 39.3679 449.618 44.5874C449.158 44.5815 448.398 44.5616 447.339 44.5279C446.299 44.4944 445.23 44.4506 444.13 44.3963C443.031 44.3421 442.172 44.2809 441.552 44.2129ZM434.015 35.4745C434.895 35.4859 435.706 35.3964 436.449 35.206C437.191 35.0157 437.875 34.7545 438.499 34.4225C439.124 34.0706 439.668 33.6976 440.134 33.3036C440.619 32.8899 441.024 32.4751 441.35 32.0593C441.355 31.6593 441.361 31.1693 441.369 30.5894C441.377 29.9894 441.384 29.3895 441.392 28.7895C441.42 28.1899 441.437 27.62 441.444 27.0801C441.471 26.5404 441.497 26.1207 441.521 25.821C441.086 25.3953 440.481 24.9774 439.707 24.5674C438.932 24.1573 438.076 23.8262 437.139 23.574C436.223 23.3021 435.285 23.16 434.325 23.1475C432.365 23.1221 430.827 23.6923 429.712 24.8579C428.617 26.0038 428.058 27.5067 428.034 29.3666C428.008 31.3264 428.509 32.833 429.535 33.8864C430.582 34.92 432.075 35.4494 434.015 35.4745Z" fill="black"/>
<path d="M490.499 41.3534C489.896 41.9957 489.154 42.619 488.273 43.2233C487.392 43.8275 486.346 44.3609 485.133 44.8234C483.942 45.2672 482.587 45.6002 481.07 45.8225C479.554 46.0248 477.867 46.0657 476.011 45.9454C472.998 45.7499 470.36 45.0076 468.099 43.7186C465.839 42.4096 464.123 40.5847 462.952 38.244C461.803 35.8847 461.337 33.0185 461.556 29.6456C461.775 26.2727 462.644 23.3829 464.163 20.9761C465.683 18.5494 467.705 16.7265 470.229 15.5073C472.755 14.2682 475.644 13.7541 478.897 13.9651C483.009 14.2317 486.167 15.589 488.374 18.0369C490.601 20.4662 491.634 23.6998 491.472 27.7378C491.444 28.4776 491.391 29.1455 491.312 29.7417C491.233 30.3378 491.112 30.9713 490.948 31.6421C490.65 31.6027 490.013 31.5414 489.036 31.458C488.06 31.3746 486.953 31.2828 485.717 31.1826C484.502 31.0637 483.347 30.9587 482.25 30.8675C481.174 30.7777 480.376 30.7159 479.857 30.6823C478.121 30.5696 476.429 30.5401 474.782 30.5936C473.155 30.6484 471.787 30.7301 470.678 30.8385C470.655 31.1977 470.651 31.5583 470.668 31.9201C470.706 32.2633 470.764 32.5978 470.843 32.9236C471.05 33.7587 471.453 34.4863 472.055 35.1065C472.676 35.728 473.425 36.2276 474.302 36.6052C475.201 36.9641 476.159 37.1765 477.177 37.2426C478.095 37.3021 478.94 37.2467 479.713 37.0763C480.507 36.8873 481.236 36.6239 481.899 36.2861C482.562 35.9484 483.167 35.5768 483.715 35.1713C484.283 34.7473 484.811 34.3306 485.299 33.9213C485.412 34.0288 485.702 34.3482 486.169 34.8796C486.637 35.3909 487.157 36.0259 487.729 36.7845C488.302 37.5232 488.843 38.2998 489.351 39.1144C489.86 39.929 490.242 40.6754 490.499 41.3534ZM471.37 25.2616C472.277 25.1802 473.394 25.1223 474.719 25.088C476.044 25.0536 477.574 25.0928 479.311 25.2054C480.249 25.2662 481.076 25.3299 481.793 25.3965C482.531 25.4643 483.048 25.518 483.346 25.5573C483.373 25.1382 483.343 24.6753 483.256 24.1686C483.14 23.4796 482.863 22.8103 482.424 22.1605C482.005 21.5121 481.439 20.9743 480.725 20.5472C480.031 20.1214 479.175 19.8755 478.157 19.8095C476.88 19.7266 475.744 19.9335 474.75 20.4302C473.776 20.9282 473 21.6094 472.423 22.4739C471.846 23.3384 471.495 24.2676 471.37 25.2616Z" fill="black"/>
<path d="M539.1 53.1973C533.858 52.4175 530.117 50.4457 527.879 47.2819C525.643 44.0983 524.919 39.8556 525.708 34.5539C526.234 31.0129 527.354 28.1767 529.066 26.0455C530.781 23.8944 532.934 22.4049 535.524 21.577C538.134 20.752 541.031 20.5764 544.216 21.0501C547.46 21.5327 550.04 22.6748 551.956 24.4763C553.892 26.2807 555.199 28.568 555.879 31.3381C556.559 34.1083 556.644 37.2046 556.135 40.6269C555.691 43.6141 554.73 46.1301 553.253 48.175C551.776 50.22 549.839 51.6909 547.441 52.5879C545.065 53.4679 542.285 53.6711 539.1 53.1973ZM540.041 44.6325C541.129 44.7943 542.116 44.7491 543.003 44.4968C543.91 44.2475 544.701 43.8193 545.378 43.2123C546.077 42.5884 546.646 41.8238 547.084 40.9183C547.522 40.0129 547.825 38.9964 547.992 37.8688C548.254 36.1082 548.228 34.517 547.914 33.0953C547.622 31.6568 547.038 30.4881 546.161 29.5892C545.306 28.6735 544.157 28.1083 542.713 27.8934C541.15 27.661 539.815 27.8668 538.708 28.511C537.601 29.1551 536.715 30.0848 536.049 31.3001C535.406 32.4985 534.977 33.8197 534.762 35.2638C534.4 37.697 534.655 39.7873 535.527 41.5347C536.42 43.285 537.924 44.3176 540.041 44.6325Z" fill="black"/>
<path d="M589.259 31.6828C589.785 31.6061 590.507 31.6203 591.424 31.7254C592.366 31.8149 593.267 31.9473 594.13 32.1228C594.855 32.2704 595.652 32.4634 596.522 32.7016C597.392 32.9399 598.093 33.1541 598.626 33.3442C598.558 34.9835 598.427 36.6304 598.233 38.285C598.043 39.92 597.789 41.5214 597.47 43.0892C596.883 45.9702 596.076 48.6327 595.048 51.0768C594.04 53.5248 592.769 55.6033 591.238 57.3122C589.706 59.0211 587.878 60.2308 585.754 60.9414C583.626 61.6716 581.17 61.7535 578.387 61.1871C575.428 60.5849 573.105 59.5101 571.42 57.9629C569.739 56.3962 568.571 54.4644 567.915 52.1676C567.264 49.8512 567.006 47.2577 567.142 44.387C567.3 41.5007 567.709 38.4406 568.367 35.2069C568.658 33.7763 568.983 32.332 569.341 30.8741C569.722 29.4006 570.121 27.9408 570.538 26.4949C571.056 26.5594 571.728 26.6656 572.555 26.8136C573.406 26.9459 574.172 27.0916 574.854 27.2508C575.834 27.4503 576.802 27.7085 577.758 28.0255C578.737 28.3269 579.493 28.6236 580.026 28.9157C579.617 30.2205 579.207 31.637 578.794 33.1653C578.384 34.674 578.022 36.2025 577.707 37.7508C577.181 40.3378 576.873 42.7038 576.783 44.8491C576.713 46.9983 576.956 48.7622 577.512 50.1408C578.069 51.5194 579.033 52.3484 580.405 52.6276C581.698 52.8908 582.839 52.5515 583.826 51.6095C584.834 50.6716 585.691 49.3154 586.399 47.5409C587.131 45.7509 587.73 43.7094 588.197 41.4164C588.548 39.6917 588.805 37.9785 588.967 36.2768C589.154 34.5594 589.251 33.0281 589.259 31.6828Z" fill="black"/>
<path d="M618.894 41.0018C619.56 40.2419 620.45 39.5795 621.562 39.0147C622.693 38.4547 623.953 38.0819 625.341 37.896C626.748 37.7151 628.169 37.8059 629.604 38.1683C630.477 38.3888 631.337 38.6989 632.185 39.0987C633.033 39.4985 633.624 39.8953 633.957 40.289L629.818 49.083C629.435 48.8007 628.931 48.4672 628.307 48.0825C627.682 47.6978 626.933 47.3952 626.061 47.1748C625.169 46.9495 624.257 46.8842 623.325 46.979C622.418 47.0592 621.537 47.2802 620.682 47.642C619.828 48.0037 619.033 48.4941 618.299 49.1132C618.209 50.2869 618.06 51.7757 617.852 53.5796C617.663 55.3885 617.443 57.241 617.191 59.137C616.939 61.033 616.69 62.7544 616.444 64.3012C616.197 65.848 615.986 66.9704 615.81 67.6685C614.408 67.5001 612.808 67.2198 611.009 66.8273C609.211 66.4349 607.49 66.0208 605.846 65.5851C606.258 63.9563 606.677 62.0922 607.104 59.9929C607.551 57.8984 607.981 55.707 608.394 53.4184C608.811 51.1105 609.181 48.8315 609.502 46.5816C609.847 44.3171 610.111 42.2077 610.295 40.2533C610.499 38.3038 610.612 36.6306 610.635 35.2336C611.634 35.1973 612.726 35.2048 613.909 35.2561C615.093 35.3075 616.157 35.3805 617.103 35.4749C618.054 35.55 618.657 35.6097 618.914 35.6539C619.01 36.2557 619.068 37.1265 619.09 38.2665C619.116 39.3871 619.051 40.2988 618.894 41.0018Z" fill="black"/>
<path d="M658.242 80.1311C658.409 79.4486 658.725 78.3207 659.192 76.7475C659.666 75.1553 660.222 73.2851 660.862 71.1369C661.508 68.9698 662.205 66.651 662.954 64.1806C663.708 61.6913 664.473 59.2051 665.246 56.7222C666.026 54.2203 666.762 51.851 667.452 49.6144C668.143 47.3779 668.757 45.4004 669.294 43.6819C669.831 41.9634 670.243 40.6777 670.531 39.8249C670.815 39.8575 671.779 40.003 673.423 40.2616C675.092 40.5076 677.121 40.8433 679.51 41.2688C679.107 42.4628 678.567 44.0959 677.89 46.168C677.232 48.2466 676.522 50.54 675.761 53.0483C675.006 55.5377 674.283 58.0271 673.591 60.5167C674.155 60.2213 674.83 59.9421 675.615 59.6792C676.4 59.4162 677.258 59.2199 678.188 59.0902C679.124 58.9416 680.089 58.8974 681.082 58.9577C682.1 59.0054 683.102 59.1953 684.087 59.5275C686.305 60.275 688.065 61.4384 689.369 63.0176C690.692 64.6032 691.466 66.5633 691.693 68.8978C691.944 71.2198 691.571 73.8591 690.575 76.8156C689.278 80.6629 687.226 83.3692 684.419 84.9345C681.637 86.4873 678.512 86.6791 675.044 85.51C673.679 85.05 672.518 84.4579 671.559 83.7337C670.625 82.9969 669.881 82.2607 669.327 81.5252C668.799 80.7771 668.446 80.1624 668.271 79.6812C668.169 80.0476 668.034 80.5089 667.868 81.0649C667.72 81.6273 667.58 82.1391 667.445 82.6003C667.33 83.068 667.247 83.3776 667.195 83.5292C665.559 82.9987 663.945 82.4336 662.353 81.8337C660.762 81.2338 659.391 80.6663 658.242 80.1311ZM670.162 73.227C670.401 73.5187 670.76 73.8931 671.239 74.3501C671.719 74.8071 672.302 75.2676 672.99 75.7316C673.684 76.1767 674.439 76.5365 675.254 76.8113C677.225 77.4757 678.806 77.5126 679.997 76.9222C681.194 76.3127 682.08 75.1551 682.655 73.4494C683 72.426 683.155 71.4336 683.121 70.4721C683.092 69.4917 682.823 68.6307 682.313 67.889C681.804 67.1473 680.999 66.5912 679.9 66.2206C678.687 65.8117 677.555 65.6625 676.505 65.7727C675.455 65.883 674.518 66.1265 673.695 66.5032C672.89 66.8863 672.228 67.2541 671.708 67.6065C671.657 67.7581 671.577 68.0266 671.468 68.4121C671.366 68.7785 671.244 69.2019 671.103 69.6821C670.982 70.1686 670.85 70.652 670.71 71.1322C670.588 71.6188 670.476 72.0453 670.373 72.4118C670.271 72.7783 670.2 73.05 670.162 73.227Z" fill="black"/>
<path d="M710.009 99.2051C705.084 97.2479 701.893 94.4734 700.436 90.8816C698.987 87.2713 699.252 82.9755 701.231 77.9944C702.553 74.6674 704.291 72.1622 706.445 70.4786C708.607 68.7764 711.043 67.8183 713.753 67.6042C716.483 67.3974 719.343 67.8886 722.336 69.0777C725.384 70.2889 727.635 71.9904 729.088 74.182C730.56 76.381 731.31 78.9066 731.339 81.7589C731.368 84.6111 730.743 87.6449 729.466 90.8603C728.351 93.6669 726.84 95.8968 724.935 97.5501C723.03 99.2034 720.808 100.193 718.268 100.518C715.754 100.832 713.001 100.394 710.009 99.2051ZM712.882 91.0818C713.904 91.488 714.876 91.6696 715.797 91.6267C716.736 91.5911 717.605 91.3552 718.402 90.9189C719.226 90.4713 719.954 89.8569 720.587 89.0755C721.221 88.2942 721.748 87.3738 722.169 86.3144C722.826 84.6602 723.164 83.1051 723.183 81.6492C723.228 80.1821 722.926 78.9108 722.278 77.8352C721.655 76.7485 720.665 75.9355 719.308 75.3964C717.84 74.8129 716.494 74.7082 715.269 75.0824C714.044 75.4566 712.969 76.1591 712.042 77.1899C711.142 78.2096 710.423 79.3978 709.884 80.7546C708.975 83.0407 708.746 85.1341 709.196 87.0346C709.664 88.9425 710.893 90.2915 712.882 91.0818Z" fill="black"/>
<path d="M753.026 116.984C753.107 116.712 753.247 116.337 753.446 115.856C753.645 115.375 753.849 114.885 754.056 114.386C754.291 113.878 754.479 113.469 754.621 113.16C754.261 113.369 753.744 113.582 753.071 113.801C752.424 114.01 751.642 114.156 750.723 114.239C749.804 114.322 748.759 114.271 747.59 114.085C746.429 113.881 745.158 113.461 743.777 112.826C741.488 111.772 739.772 110.311 738.629 108.442C737.486 106.572 736.908 104.479 736.896 102.162C736.892 99.8262 737.442 97.4594 738.545 95.0612C739.632 92.6993 741.089 90.7058 742.916 89.0808C744.769 87.4459 746.884 86.4155 749.259 85.9898C751.643 85.5458 754.198 85.951 756.923 87.2053C758.286 87.8324 759.45 88.5555 760.416 89.3744C761.401 90.2017 762.175 91.0313 762.738 91.8632C763.311 92.677 763.652 93.3953 763.761 94.0182C764.276 93.044 764.875 91.9329 765.56 90.6848C766.252 89.4185 766.967 88.1291 767.703 86.8167C768.466 85.4945 769.186 84.2407 769.864 83.0554C770.541 81.8702 771.117 80.8583 771.591 80.0196C772.092 79.1712 772.427 78.61 772.597 78.336C773.651 78.821 774.803 79.4281 776.052 80.1574C777.328 80.8768 778.412 81.6069 779.304 82.3477C777.08 86.366 774.92 90.4136 772.824 94.4905C770.736 98.5492 768.656 102.733 766.585 107.042C764.54 111.341 762.427 115.861 760.244 120.603C759.826 120.41 759.14 120.084 758.185 119.622C757.249 119.169 756.29 118.695 755.307 118.198C754.325 117.702 753.564 117.297 753.026 116.984ZM749.689 105.936C750.489 106.304 751.266 106.552 752.022 106.68C752.778 106.808 753.509 106.847 754.214 106.797C754.928 106.729 755.577 106.61 756.162 106.439C756.774 106.258 757.313 106.044 757.779 105.796C757.946 105.433 758.151 104.987 758.394 104.461C758.644 103.916 758.895 103.37 759.146 102.825C759.415 102.289 759.663 101.775 759.888 101.285C760.132 100.802 760.326 100.429 760.47 100.165C760.246 99.5996 759.863 98.9721 759.322 98.2826C758.78 97.5932 758.133 96.9429 757.379 96.3319C756.652 95.7111 755.853 95.2 754.981 94.7986C753.2 93.9791 751.564 93.8754 750.071 94.4874C748.605 95.0896 747.483 96.2355 746.705 97.9252C745.886 99.7056 745.731 101.286 746.241 102.665C746.778 104.035 747.927 105.125 749.689 105.936Z" fill="black"/>
<path d="M772.986 144.576C770.275 143.156 768.062 141.477 766.345 139.539C764.628 137.601 763.32 135.81 762.421 134.165C762.939 133.691 763.662 133.11 764.587 132.421C765.521 131.759 766.455 131.119 767.388 130.501C768.311 129.901 769.035 129.468 769.559 129.2C769.966 129.933 770.535 130.807 771.268 131.822C772.018 132.847 772.889 133.857 773.881 134.851C774.873 135.844 775.962 136.652 777.149 137.274C778.443 137.951 779.7 138.181 780.921 137.962C782.159 137.753 783.345 137.234 784.479 136.406C785.613 135.577 786.657 134.555 787.61 133.338C788.581 132.131 789.433 130.85 790.165 129.495C789.422 129.964 788.548 130.319 787.542 130.559C786.544 130.782 785.488 130.838 784.372 130.728C783.282 130.609 782.18 130.257 781.064 129.672C778.353 128.252 776.621 126.408 775.868 124.14C775.141 121.863 775.14 119.3 775.865 116.451C776.607 113.611 777.8 110.623 779.443 107.487C780.083 106.265 780.778 105.003 781.527 103.702C782.276 102.401 783.062 101.052 783.884 99.6539C784.232 99.7231 784.712 99.9066 785.323 100.204C785.944 100.485 786.609 100.81 787.318 101.181C788.292 101.692 789.235 102.219 790.146 102.764C791.057 103.309 791.662 103.706 791.962 103.953C791.751 104.226 791.384 104.734 790.86 105.475C790.336 106.217 789.742 107.113 789.078 108.166C788.432 109.227 787.807 110.333 787.204 111.485C786.619 112.601 786.092 113.736 785.623 114.89C785.163 116.027 784.834 117.107 784.636 118.132C784.455 119.167 784.483 120.084 784.718 120.885C784.954 121.685 785.47 122.295 786.267 122.712C787.49 123.352 788.714 123.429 789.94 122.942C791.165 122.456 792.382 121.512 793.589 120.113C794.814 118.723 796.014 116.992 797.19 114.921C797.56 114.257 797.926 113.602 798.287 112.955C798.657 112.291 798.995 111.667 799.302 111.082C799.608 110.498 799.859 109.997 800.055 109.58C800.277 109.155 800.417 108.867 800.473 108.716C800.917 108.903 801.347 109.095 801.764 109.291C802.19 109.469 802.607 109.664 803.014 109.878C804.644 110.731 806.164 111.753 807.573 112.943C806.613 114.991 805.46 117.3 804.114 119.869C803.26 121.499 802.329 123.234 801.319 125.076C800.318 126.9 799.268 128.754 798.168 130.639C797.085 132.533 795.985 134.418 794.867 136.293C793.121 139.239 791.117 141.599 788.856 143.372C786.604 145.173 784.142 146.209 781.471 146.48C778.791 146.77 775.962 146.135 772.986 144.576Z" fill="black"/>
<path d="M825.645 140.648C824.473 139.959 823.431 139.324 822.52 138.742C821.609 138.161 820.737 137.591 819.906 137.033C819.091 136.485 818.223 135.87 817.3 135.189C818.658 132.878 820.33 131.078 822.318 129.786C824.323 128.505 826.625 127.608 829.223 127.093C830.668 126.805 831.894 126.435 832.902 125.983C833.937 125.524 834.688 124.898 835.154 124.105C835.721 123.139 835.834 122.196 835.493 121.277C835.168 120.367 834.455 119.589 833.351 118.94C832.489 118.434 831.637 118.107 830.795 117.961C829.953 117.814 829.109 117.829 828.264 118.005C827.446 118.174 826.627 118.482 825.808 118.928C825.016 119.368 824.212 119.928 823.395 120.608L819.039 113.039C820.632 111.353 822.47 110.218 824.553 109.632C826.654 109.057 828.838 108.972 831.106 109.376C833.401 109.773 835.592 110.584 837.678 111.81C839.937 113.137 841.761 114.672 843.149 116.415C844.565 118.151 845.394 120.018 845.635 122.016C845.887 123.996 845.405 126.021 844.19 128.09C843.288 129.625 842.325 130.811 841.3 131.647C840.286 132.466 839.228 133.062 838.127 133.436C837.043 133.82 835.938 134.122 834.812 134.342C833.785 134.55 832.713 134.895 831.595 135.375C830.495 135.865 829.428 136.537 828.393 137.391C827.386 138.237 826.47 139.323 825.645 140.648ZM815.083 150.1C813.652 149.259 812.639 148.12 812.046 146.681C811.481 145.236 811.633 143.771 812.504 142.288C812.98 141.478 813.668 140.861 814.566 140.437C815.474 139.997 816.451 139.794 817.498 139.828C818.555 139.846 819.523 140.113 820.402 140.63C821.972 141.552 823.035 142.722 823.594 144.14C824.18 145.551 824.088 146.912 823.318 148.223C822.771 149.154 822.025 149.852 821.079 150.317C820.151 150.792 819.149 151.016 818.075 150.988C817.029 150.953 816.031 150.657 815.083 150.1Z" fill="black"/>
</svg>
