<svg width="763" height="333" viewBox="0 0 763 333" fill="none" xmlns="http://www.w3.org/2000/svg">
<path d="M53.8086 239.512C52.8269 239.139 51.7405 238.722 50.5493 238.259C49.3706 237.781 48.17 237.299 46.9475 236.811C45.7218 236.296 44.5399 235.789 43.4017 235.293C42.276 234.78 41.241 234.314 40.2967 233.895C39.3648 233.46 38.6095 233.076 38.0309 232.743L38.6234 231.758C38.7927 231.995 39.0859 232.445 39.5029 233.109C39.9043 233.761 40.392 234.546 40.9658 235.462C41.5397 236.379 42.1434 237.371 42.777 238.438C43.4073 239.476 44.0174 240.524 44.6073 241.582C45.2095 242.624 45.7617 243.6 46.2637 244.511C46.7625 245.393 47.1673 246.137 47.478 246.743L40.5356 254.79C39.1716 253.935 37.5589 252.894 35.6974 251.668C33.8327 250.413 31.7959 249.022 29.5869 247.494C27.3624 245.953 25.0407 244.31 22.6219 242.564C20.2032 240.817 17.7405 238.998 15.2339 237.105C12.7273 235.212 10.2613 233.3 7.83586 231.37L14.6427 223.444C15.9728 224.503 17.4626 225.714 19.112 227.078C20.7458 228.43 22.4281 229.833 24.159 231.287C25.8867 232.714 27.5752 234.109 29.2247 235.473C30.8741 236.837 32.3749 238.082 33.727 239.21C35.0916 240.321 36.2261 241.225 37.1305 241.919L37.2167 242.678C36.8842 242.132 36.4108 241.41 35.7964 240.512C35.1788 239.586 34.4938 238.568 33.7414 237.457C32.9734 236.335 32.1741 235.187 31.3435 234.015C30.5129 232.843 29.687 231.712 28.866 230.624C28.045 229.536 27.2945 228.568 26.6146 227.72C25.9191 226.86 25.3256 226.209 24.8341 225.766L29.126 220.133C29.4357 220.354 30.0645 220.753 31.0124 221.328C31.957 221.876 33.0909 222.523 34.4139 223.269C35.7495 224 37.16 224.765 38.6457 225.564C40.1156 226.35 41.5481 227.12 42.943 227.872C44.3348 228.597 45.581 229.231 46.6818 229.775C47.7794 230.29 48.594 230.632 49.1254 230.799L48.3737 231.888C46.983 230.295 45.2716 228.511 43.2396 226.536C41.22 224.545 39.0833 222.525 36.8293 220.475C34.5753 218.426 32.3936 216.51 30.2839 214.729C28.1711 212.919 26.3558 211.41 24.8379 210.202L29.972 202.21C32.6947 204.378 35.3773 206.692 38.0196 209.153C40.6618 211.614 43.1604 214.063 45.5153 216.5C47.8702 218.936 49.9919 221.2 51.8805 223.291C53.7691 225.383 55.3306 227.162 56.5648 228.63C57.7835 230.086 58.5917 231.062 58.9896 231.557L53.8086 239.512Z" fill="black"/>
<path d="M75.7155 214.304C75.4524 214.69 75.0425 215.198 74.4859 215.828C73.9433 216.444 73.3654 217.068 72.7522 217.699C72.0276 218.445 71.323 219.113 70.6385 219.703C69.9684 220.307 69.4296 220.703 69.0222 220.893C68.2729 219.942 67.2515 218.755 65.9579 217.331C64.6639 215.879 63.184 214.288 61.5183 212.558C59.8664 210.814 58.0937 209.023 56.2 207.183C54.2633 205.302 52.2559 203.422 50.1778 201.542C48.1137 199.649 46.1003 197.846 44.1378 196.135C42.1609 194.41 40.356 192.838 38.7231 191.419C38.7776 191.277 39.0196 190.899 39.4491 190.284C39.8787 189.67 40.3918 188.969 40.9886 188.183C41.571 187.382 42.1329 186.632 42.6743 185.931C43.2158 185.23 43.6398 184.721 43.9463 184.406C45.2452 185.222 46.7243 186.268 48.3835 187.545C50.0427 188.822 51.8175 190.267 53.7079 191.881C55.5839 193.48 57.5112 195.199 59.4897 197.037C59.4183 196.02 59.5298 194.929 59.824 193.765C60.104 192.587 60.547 191.442 61.1532 190.33C61.759 189.19 62.4869 188.182 63.3369 187.307C65.037 185.557 66.6771 184.543 68.2572 184.265C69.8229 183.974 71.4183 184.269 73.0435 185.15C74.6683 186.004 76.3916 187.315 78.2135 189.085C79.3612 190.2 80.5462 191.449 81.7685 192.831C83.0047 194.199 84.1915 195.575 85.3289 196.959C86.4664 198.342 87.4607 199.615 88.3121 200.777C87.8961 201.348 87.4518 201.921 86.9792 202.493C86.5066 203.066 86.0125 203.618 85.4969 204.148C84.9256 204.737 84.3325 205.29 83.7177 205.808C83.1312 206.325 82.5719 206.772 82.0399 207.148C81.4919 206.42 80.8361 205.574 80.0725 204.609C79.3088 203.644 78.5167 202.666 77.6962 201.673C76.8612 200.667 76.0556 199.731 75.2793 198.866C74.5025 197.972 73.8201 197.239 73.2319 196.668C72.3855 195.845 71.5846 195.235 70.8292 194.836C70.0877 194.422 69.3852 194.255 68.7216 194.336C68.0576 194.388 67.426 194.722 66.8268 195.339C66.3112 195.87 65.9238 196.47 65.6648 197.138C65.3914 197.793 65.2103 198.467 65.1214 199.161C65.032 199.828 64.9988 200.464 65.0218 201.072C65.0304 201.666 65.0659 202.161 65.1282 202.556C66.6058 203.991 68.0486 205.462 69.4566 206.969C70.8502 208.463 72.0938 209.852 73.1873 211.137C74.2809 212.423 75.1236 213.478 75.7155 214.304Z" fill="black"/>
<path d="M106.464 185.179C104.588 186.77 102.659 187.974 100.676 188.791C98.6808 189.592 96.7327 189.816 94.8319 189.461C92.9335 189.079 91.1756 187.934 89.5581 186.028C87.9406 184.122 87.1739 182.136 87.258 180.072C87.3444 177.979 88.0445 175.929 89.3583 173.922C90.6744 171.887 92.3466 170.01 94.3749 168.289C95.1679 167.616 95.9822 167.03 96.8177 166.531C97.6532 166.032 98.4166 165.633 99.108 165.335C99.8145 165.024 100.355 164.841 100.728 164.787C100.376 164.403 99.9365 164.055 99.4088 163.742C98.8963 163.416 98.381 163.211 97.863 163.126C96.8749 162.889 95.8097 162.901 94.6674 163.162C93.5273 163.395 92.3168 164.055 91.0358 165.142C89.7395 166.241 88.8481 167.509 88.3615 168.945C87.8619 170.366 87.6635 171.662 87.7661 172.834L79.1372 173.978C78.9954 172.42 79.1934 170.783 79.7313 169.068C80.2844 167.34 81.1259 165.642 82.2558 163.975C83.4009 162.295 84.7894 160.763 86.4211 159.378C89.1204 157.088 91.684 155.674 94.112 155.135C96.54 154.596 98.831 154.776 100.985 155.677C102.013 156.116 103.038 156.689 104.058 157.397C105.078 158.105 106.139 159.015 107.24 160.127C108.168 161.097 109.022 162.011 109.803 162.87C110.584 163.728 111.326 164.541 112.03 165.308C113.044 166.442 113.814 167.086 114.34 167.243C114.867 167.4 115.343 167.297 115.77 166.935C116.167 166.598 116.427 166.194 116.551 165.722C116.677 165.221 116.63 164.749 116.411 164.305L122.653 166.839C123.08 167.683 123.106 168.671 122.729 169.804C122.353 170.936 121.569 172.007 120.38 173.017C119.511 173.754 118.564 174.308 117.541 174.678C116.504 175.033 115.521 175.172 114.59 175.096C113.647 175.005 112.852 174.67 112.204 174.092C112.452 174.878 112.426 175.884 112.127 177.108C111.815 178.317 111.204 179.622 110.295 181.023C109.372 182.409 108.095 183.794 106.464 185.179ZM103.435 178.503C104.152 177.895 104.793 177.167 105.359 176.319C105.928 175.443 106.375 174.579 106.7 173.726C107.04 172.86 107.23 172.109 107.268 171.474C106.836 171.027 106.391 170.565 105.934 170.087C105.492 169.597 105.129 169.17 104.847 168.806C104.395 168.954 103.632 169.352 102.557 170.002C101.484 170.624 100.437 171.368 99.4151 172.235C98.4849 173.024 97.6997 173.861 97.0597 174.745C96.4196 175.629 96.0151 176.497 95.8459 177.349C95.6921 178.187 95.8933 178.935 96.4497 179.59C97.045 180.292 97.7079 180.687 98.4385 180.775C99.1691 180.863 99.9552 180.708 100.797 180.308C101.625 179.894 102.505 179.292 103.435 178.503Z" fill="black"/>
<path d="M148.335 147.68C148.45 148.504 148.414 149.495 148.226 150.654C148.044 151.785 147.588 152.962 146.858 154.184C146.157 155.412 145.054 156.555 143.549 157.613C141.57 159.006 139.657 159.728 137.81 159.78C135.98 159.821 134.274 159.359 132.69 158.394C131.123 157.418 129.758 156.104 128.596 154.452C127.963 153.552 127.298 152.59 126.601 151.564C125.908 150.511 125.228 149.473 124.558 148.453C123.877 147.416 123.237 146.436 122.637 145.513C122.041 144.562 121.518 143.732 121.067 143.022C120.633 142.301 120.292 141.746 120.044 141.358C118.843 142.398 117.753 143.386 116.772 144.32C115.78 145.239 115.105 145.897 114.749 146.294C113.941 145.493 113.163 144.647 112.413 143.756C111.664 142.865 111.017 142.085 110.473 141.416C109.946 140.736 109.624 140.314 109.509 140.15C110.366 139.352 111.3 138.524 112.31 137.666C113.309 136.792 114.388 135.91 115.548 135.021C115.255 134.64 114.807 134.038 114.204 133.215C113.601 132.393 113.047 131.657 112.542 131.01C112.1 130.416 111.642 129.834 111.167 129.263C110.68 128.676 110.288 128.206 109.991 127.853L116.805 122.105C116.943 122.301 117.265 122.759 117.771 123.479C118.294 124.187 118.912 125.048 119.626 126.063C119.982 126.57 120.405 127.153 120.893 127.812C121.37 128.455 121.841 129.089 122.306 129.716C122.823 129.303 123.43 128.827 124.126 128.288C124.823 127.749 125.378 127.322 125.792 127.006C126.456 126.49 127.066 126.036 127.622 125.645C128.167 125.238 128.619 124.907 128.979 124.654C129.355 124.389 129.614 124.219 129.757 124.143C130.396 124.843 131.152 125.778 132.024 126.949C132.886 128.104 133.639 129.139 134.283 130.055C134.108 130.154 133.582 130.536 132.706 131.202C131.818 131.851 130.957 132.506 130.125 133.165C129.531 133.607 128.884 134.111 128.182 134.678C127.481 135.245 126.934 135.703 126.544 136.051C126.769 136.406 127.078 136.898 127.471 137.526C127.869 138.126 128.317 138.814 128.813 139.59C129.315 140.337 129.831 141.123 130.362 141.948C130.898 142.745 131.417 143.517 131.919 144.264C132.42 145.012 132.872 145.672 133.275 146.244C134.035 147.324 134.769 148.263 135.477 149.06C136.19 149.83 136.905 150.342 137.621 150.596C138.343 150.822 139.088 150.665 139.857 150.124C140.364 149.767 140.693 149.315 140.846 148.767C140.999 148.22 141.052 147.669 141.004 147.115C140.962 146.534 140.921 146.024 140.883 145.587C141.303 145.732 141.873 145.917 142.595 146.143C143.321 146.341 144.081 146.553 144.874 146.777C145.684 146.989 146.405 147.179 147.036 147.347C147.684 147.502 148.117 147.614 148.335 147.68Z" fill="black"/>
<path d="M147.547 120.379C146.864 120.375 146.061 120.269 145.136 120.061C144.212 119.853 143.415 119.567 142.746 119.202C142.932 118.854 143.157 118.341 143.422 117.663C143.704 116.974 143.936 116.281 144.119 115.583C144.301 114.885 144.319 114.359 144.172 114.003C144.132 114.168 144.01 114.372 143.807 114.614C143.62 114.845 143.356 115.065 143.015 115.274C141.906 115.953 140.858 116.137 139.871 115.827C138.873 115.5 138.098 114.884 137.544 113.98C136.709 112.615 136.52 111.254 136.978 109.895C137.442 108.508 138.34 107.408 139.67 106.593C141.188 105.664 142.714 105.34 144.246 105.621C145.778 105.902 146.978 106.751 147.845 108.167C148.69 109.548 149.199 110.973 149.37 112.439C149.541 113.906 149.447 115.323 149.089 116.691C148.747 118.049 148.234 119.279 147.547 120.379Z" fill="black"/>
<path d="M188.048 131.729C185.977 132.819 183.939 133.563 181.935 133.963C179.957 134.37 178.19 134.555 176.632 134.515C175.083 134.449 173.899 134.281 173.079 134.012C173.008 133.62 172.956 133.026 172.921 132.231C172.895 131.408 172.895 130.504 172.919 129.52C172.943 128.535 172.996 127.604 173.076 126.725C173.156 125.847 173.28 125.16 173.449 124.665C174.68 124.943 175.978 125.176 177.342 125.362C178.696 125.531 180.012 125.562 181.289 125.455C182.566 125.348 183.656 125.057 184.558 124.582C185.266 124.209 185.857 123.786 186.33 123.311C186.794 122.818 187.088 122.302 187.211 121.763C187.351 121.214 187.277 120.665 186.989 120.117C186.654 119.479 186.022 119.032 185.096 118.774C184.177 118.489 183.1 118.332 181.865 118.304C180.63 118.276 179.379 118.324 178.111 118.449C176.37 118.619 174.675 118.641 173.026 118.514C171.368 118.369 169.856 117.922 168.49 117.172C167.114 116.404 165.97 115.153 165.057 113.419C164.126 111.649 163.866 109.887 164.277 108.134C164.688 106.381 165.571 104.753 166.926 103.248C168.299 101.735 169.951 100.47 171.88 99.4554C173.703 98.4961 175.688 97.7796 177.834 97.3057C179.971 96.8141 181.879 96.7253 183.558 97.0394C183.629 97.4316 183.669 98.066 183.678 98.9425C183.705 99.8097 183.68 100.772 183.604 101.829C183.536 102.859 183.4 103.846 183.196 104.79C182.144 104.552 180.92 104.439 179.525 104.45C178.13 104.461 176.83 104.783 175.627 105.416C175.025 105.733 174.456 106.112 173.919 106.552C173.4 106.983 173.03 107.461 172.808 107.984C172.604 108.498 172.646 109.03 172.935 109.578C173.215 110.109 173.67 110.48 174.3 110.691C174.921 110.884 175.724 110.97 176.708 110.95C177.709 110.92 178.852 110.838 180.138 110.704C181.423 110.57 182.768 110.506 184.173 110.513C185.568 110.502 186.936 110.653 188.275 110.965C189.632 111.268 190.874 111.801 191.999 112.565C193.115 113.311 194.031 114.366 194.748 115.729C195.894 117.906 196.308 120.004 195.992 122.023C195.676 124.043 194.802 125.882 193.369 127.539C191.963 129.206 190.19 130.602 188.048 131.729Z" fill="black"/>
<path d="M238.806 106.476C238.495 106.614 237.901 106.881 237.023 107.275C236.172 107.681 235.25 108.071 234.258 108.445C233.528 108.72 232.779 108.97 232.009 109.196C231.265 109.434 230.523 109.649 229.784 109.842C229.694 109.32 229.423 108.289 228.971 106.75C228.531 105.184 227.983 103.361 227.327 101.278C226.69 99.1888 226.018 97.0374 225.313 94.824C224.619 92.5849 223.941 90.5002 223.278 88.57C222.633 86.6327 222.093 85.0839 221.656 83.9235C222.023 83.7638 222.565 83.5277 223.28 83.2153C223.996 82.903 224.772 82.5788 225.607 82.2428C226.435 81.8881 227.229 81.5569 227.99 81.2492C228.743 80.9227 229.344 80.6748 229.793 80.5056C230.105 81.0506 230.533 81.9582 231.075 83.2285C231.618 84.4988 232.189 85.9293 232.788 87.5202C233.43 89.2234 234.082 91.0401 234.745 92.9703C235.426 94.8935 236.059 96.771 236.642 98.6031C237.237 100.409 237.726 102.02 238.11 103.436C238.486 104.833 238.718 105.846 238.806 106.476ZM224.611 78.3222C222.926 78.9567 221.33 79.0024 219.822 78.4592C218.306 77.8972 217.246 76.8115 216.639 75.2019C216.223 74.0976 216.139 73.0502 216.385 72.0597C216.632 71.0692 217.108 70.2059 217.814 69.4698C218.532 68.708 219.377 68.1438 220.35 67.7772C221.904 67.1921 223.376 67.2145 224.768 67.8445C226.178 68.4674 227.182 69.5743 227.782 71.1652C228.339 72.6438 228.321 74.0717 227.728 75.449C227.129 76.8075 226.09 77.7653 224.611 78.3222Z" fill="black"/>
<path d="M260.88 99.4445C260.309 99.6296 259.598 99.8343 258.747 100.058C257.901 100.302 257.034 100.541 256.144 100.776C255.427 100.962 254.602 101.168 253.669 101.395C252.735 101.622 252.08 101.769 251.704 101.835C251.412 100.171 251.031 98.3038 250.56 96.2333C250.108 94.1572 249.564 91.8685 248.928 89.3669C248.291 86.8654 247.569 84.1388 246.761 81.1871C245.953 78.2354 245.057 75.0489 244.073 71.6277C244.775 71.3215 245.618 70.9957 246.601 70.6504C247.584 70.3052 248.585 69.986 249.603 69.6929C250.314 69.4882 251.002 69.3111 251.667 69.1615C252.345 68.9871 252.957 68.8733 253.504 68.8201C253.554 68.9931 253.656 69.3487 253.811 69.8868C253.98 70.4002 254.145 70.9768 254.309 71.6166C254.486 72.2317 254.636 72.7918 254.761 73.2971C255.051 72.4229 255.649 71.4286 256.556 70.3143C257.458 69.1808 258.578 68.1196 259.917 67.1308C261.256 66.142 262.723 65.4181 264.318 64.959C267.259 64.1128 269.679 64.0616 271.579 64.8052C273.473 65.5296 275.048 66.9909 276.305 69.1891C277.557 71.368 278.691 74.2257 279.709 77.7622C280.063 78.9923 280.439 80.4448 280.838 82.1199C281.25 83.7702 281.649 85.518 282.035 87.3634C282.42 89.2088 282.75 91.0076 283.026 92.7598C282.652 92.9089 282.045 93.1147 281.205 93.3773C280.39 93.6535 279.521 93.9244 278.598 94.1899C277.618 94.472 276.68 94.721 275.785 94.937C274.896 95.1722 274.234 95.3314 273.8 95.4146C273.702 94.2774 273.545 92.8657 273.33 91.1793C273.116 89.4929 272.832 87.7119 272.48 85.8362C272.122 83.9413 271.702 82.1578 271.221 80.4856C270.756 78.8711 270.218 77.5068 269.606 76.3926C269.013 75.2728 268.258 74.4913 267.339 74.048C266.435 73.5799 265.281 73.5478 263.878 73.9515C262.724 74.2834 261.677 74.8032 260.736 75.511C259.795 76.2188 258.978 76.9951 258.285 77.8398C257.586 78.6653 257.009 79.4452 256.554 80.1796C257.409 83.2219 258.123 85.9925 258.696 88.4913C259.264 90.971 259.731 93.1363 260.097 94.9872C260.458 96.8189 260.719 98.3047 260.88 99.4445Z" fill="black"/>
<path d="M307.208 90.0648C304.909 90.5007 302.743 90.6163 300.709 90.4116C298.699 90.2228 296.955 89.8817 295.477 89.3884C294.015 88.8717 292.932 88.3646 292.227 87.8672C292.274 87.4715 292.397 86.8883 292.597 86.1176C292.813 85.3235 293.077 84.4592 293.388 83.5249C293.7 82.5905 294.022 81.7151 294.356 80.8986C294.69 80.0822 295.01 79.4617 295.316 79.0372C296.412 79.664 297.585 80.2661 298.834 80.8434C300.08 81.4012 301.329 81.8157 302.581 82.0871C303.834 82.3586 304.961 82.3993 305.963 82.2093C306.749 82.0602 307.438 81.8279 308.029 81.5121C308.617 81.1768 309.049 80.7692 309.324 80.2895C309.619 79.8061 309.709 79.2598 309.594 78.6506C309.46 77.9432 308.987 77.3305 308.177 76.8125C307.382 76.271 306.398 75.8062 305.225 75.4179C304.052 75.0296 302.841 74.7095 301.593 74.4578C299.878 74.1111 298.251 73.6359 296.712 73.0321C295.168 72.4086 293.853 71.5384 292.766 70.4214C291.675 69.2847 290.947 67.7535 290.582 65.8278C290.21 63.8628 290.476 62.1023 291.382 60.5463C292.288 58.9903 293.61 57.6914 295.346 56.6497C297.102 55.6043 299.051 54.8785 301.193 54.4724C303.217 54.0887 305.324 53.9843 307.515 54.1592C309.702 54.3144 311.553 54.788 313.067 55.5798C313.02 55.9755 312.872 56.5938 312.625 57.4346C312.397 58.2718 312.091 59.1846 311.709 60.1732C311.342 61.1384 310.923 62.0423 310.452 62.8848C309.516 62.3498 308.379 61.8834 307.041 61.4856C305.704 61.0878 304.367 61.0156 303.031 61.269C302.363 61.3956 301.708 61.5911 301.066 61.8553C300.443 62.1158 299.95 62.4639 299.584 62.8996C299.239 63.3315 299.124 63.852 299.239 64.4612C299.351 65.0507 299.678 65.5384 300.219 65.9243C300.757 66.2905 301.499 66.6078 302.445 66.8762C303.411 67.1409 304.529 67.3972 305.797 67.6452C307.066 67.8933 308.37 68.226 309.712 68.6435C311.049 69.0413 312.313 69.5854 313.502 70.276C314.711 70.9627 315.742 71.836 316.594 72.8958C317.443 73.9359 318.011 75.2125 318.298 76.7255C318.756 79.1425 318.538 81.2702 317.645 83.1088C316.752 84.9473 315.378 86.4496 313.523 87.6157C311.691 88.7976 309.586 89.614 307.208 90.0648Z" fill="black"/>
<path d="M339.329 82.7567C338.994 82.817 338.353 82.9338 337.407 83.1073C336.483 83.2983 335.495 83.4566 334.442 83.5824C333.668 83.675 332.88 83.7389 332.078 83.7743C331.299 83.8271 330.527 83.8589 329.763 83.8696C329.801 83.3414 329.784 82.2759 329.714 80.6729C329.66 79.0478 329.564 77.1458 329.425 74.9669C329.305 72.7857 329.167 70.5362 329.011 68.2183C328.872 65.8783 328.712 63.6919 328.529 61.6592C328.367 59.6241 328.212 57.9909 328.064 56.7597C328.459 56.6924 329.042 56.5926 329.811 56.4603C330.581 56.328 331.412 56.1986 332.303 56.0719C333.192 55.9254 334.042 55.7936 334.854 55.6764C335.663 55.5394 336.306 55.4424 336.783 55.3855C336.956 55.9892 337.154 56.9727 337.377 58.3358C337.601 59.6989 337.813 61.2245 338.015 62.9125C338.231 64.7196 338.43 66.6395 338.613 68.6722C338.815 70.7026 338.98 72.6769 339.109 74.5952C339.255 76.4913 339.345 78.1724 339.379 79.6387C339.411 81.0852 339.394 82.1245 339.329 82.7567ZM332.273 52.0269C330.485 52.2405 328.924 51.9033 327.59 51.0155C326.252 50.1077 325.482 48.7999 325.278 47.0921C325.138 45.9204 325.306 44.8831 325.782 43.9802C326.258 43.0773 326.927 42.3529 327.788 41.8068C328.667 41.2385 329.623 40.8927 330.655 40.7693C332.304 40.5723 333.728 40.9459 334.929 41.8902C336.149 42.832 336.86 44.1469 337.062 45.8349C337.249 47.4037 336.891 48.7861 335.986 49.9818C335.079 51.1577 333.841 51.8394 332.273 52.0269Z" fill="black"/>
<path d="M373.883 80.2563C373.831 79.9783 373.783 79.58 373.741 79.0614C373.698 78.5427 373.655 78.0141 373.611 77.4755C373.587 76.916 373.567 76.4664 373.553 76.1268C373.328 76.4769 372.966 76.903 372.467 77.4052C371.988 77.8865 371.358 78.3744 370.579 78.8687C369.8 79.3631 368.848 79.795 367.723 80.1643C366.597 80.5136 365.275 80.7213 363.756 80.7875C361.239 80.8972 359.044 80.3822 357.173 79.2425C355.301 78.1029 353.83 76.5054 352.76 74.45C351.689 72.3747 351.096 70.0183 350.981 67.3808C350.868 64.7832 351.252 62.3442 352.133 60.0637C353.034 57.7623 354.443 55.8792 356.361 54.4143C358.279 52.9295 360.736 52.1218 363.733 51.9912C365.232 51.9259 366.598 52.0366 367.831 52.3232C369.085 52.6089 370.153 52.9928 371.034 53.4749C371.915 53.937 372.547 54.4199 372.929 54.9238C372.941 53.8222 372.967 52.5599 373.005 51.1369C373.042 49.6939 373.088 48.2205 373.142 46.7167C373.216 45.1921 373.283 43.7478 373.344 42.3839C373.405 41.0199 373.454 39.8567 373.492 38.8941C373.55 37.9107 373.591 37.2582 373.617 36.9368C374.776 36.8863 376.078 36.8997 377.523 36.9769C378.987 37.0332 380.284 37.1869 381.416 37.4379C381.276 42.0283 381.206 46.6158 381.205 51.2001C381.204 55.7645 381.267 60.4362 381.395 65.2151C381.542 69.9732 381.73 74.9598 381.957 80.1749C381.497 80.1949 380.737 80.218 379.678 80.2441C378.638 80.2694 377.567 80.286 376.467 80.2939C375.366 80.3018 374.505 80.2893 373.883 80.2563ZM365.864 71.9574C366.743 71.9191 367.548 71.7839 368.279 71.5519C369.009 71.3199 369.677 71.0206 370.281 70.6539C370.885 70.2673 371.408 69.8641 371.85 69.4445C372.312 69.004 372.693 68.567 372.994 68.1335C372.977 67.7339 372.956 67.2443 372.93 66.6649C372.904 66.0654 372.878 65.466 372.852 64.8666C372.846 64.2663 372.831 63.6964 372.808 63.1569C372.804 62.6165 372.806 62.1961 372.813 61.8955C372.355 61.495 371.728 61.112 370.931 60.7463C370.134 60.3806 369.261 60.0983 368.312 59.8995C367.381 59.6797 366.436 59.5908 365.477 59.6326C363.519 59.7178 362.016 60.3739 360.969 61.6006C359.94 62.8065 359.466 64.3386 359.547 66.1968C359.633 68.155 360.217 69.6309 361.302 70.6247C362.405 71.5976 363.926 72.0418 365.864 71.9574Z" fill="black"/>
<path d="M422.71 76.0516C422.117 76.7032 421.385 77.3379 420.514 77.9558C419.642 78.5736 418.604 79.1231 417.399 79.6043C416.214 80.0666 414.865 80.4205 413.351 80.6663C411.838 80.892 410.153 80.9591 408.295 80.8675C405.279 80.7187 402.63 80.0174 400.349 78.7635C398.069 77.4897 396.326 75.6916 395.119 73.3693C393.933 71.0281 393.423 68.1695 393.589 64.7936C393.756 61.4177 394.58 58.5148 396.061 56.0848C397.544 53.6348 399.537 51.7808 402.042 50.5226C404.548 49.2445 407.429 48.6858 410.685 48.8463C414.8 49.0493 417.98 50.3575 420.224 52.7709C422.489 55.1654 423.571 58.3826 423.472 62.4226C423.456 63.1627 423.413 63.8314 423.343 64.4287C423.274 65.026 423.162 65.6613 423.009 66.3346C422.71 66.2998 422.072 66.2483 421.094 66.1801C420.116 66.1118 419.009 66.0372 417.771 65.9561C416.555 65.8561 415.398 65.769 414.3 65.6948C413.222 65.6216 412.424 65.5723 411.904 65.5466C410.166 65.4609 408.475 65.4576 406.829 65.5366C405.203 65.6166 403.836 65.7194 402.729 65.845C402.711 66.2046 402.713 66.5652 402.735 66.9267C402.778 67.2692 402.842 67.6028 402.926 67.9273C403.145 68.7591 403.56 69.4804 404.171 70.0913C404.802 70.7031 405.559 71.1909 406.442 71.5549C407.346 71.8998 408.307 72.0974 409.326 72.1477C410.245 72.193 411.089 72.1245 411.859 71.9422C412.65 71.7409 413.375 71.4662 414.032 71.1182C414.69 70.7702 415.29 70.3893 415.831 69.9754C416.393 69.5426 416.915 69.1178 417.396 68.7009C417.511 68.8067 417.805 69.1216 418.28 69.6457C418.756 70.1497 419.286 70.7766 419.869 71.5262C420.454 72.2559 421.007 73.0241 421.528 73.8307C422.049 74.6374 422.443 75.3777 422.71 76.0516ZM403.334 60.2581C404.24 60.1626 405.355 60.0874 406.68 60.0326C408.004 59.9778 409.535 59.9932 411.273 60.0789C412.212 60.1252 413.04 60.1761 413.758 60.2315C414.497 60.2879 415.015 60.3335 415.314 60.3683C415.334 59.9488 415.297 59.4864 415.202 58.9811C415.075 58.294 414.788 57.6291 414.339 56.9862C413.91 56.3443 413.335 55.8153 412.615 55.3993C411.915 54.9843 411.055 54.7517 410.036 54.7015C408.758 54.6384 407.625 54.8629 406.639 55.3749C405.673 55.888 404.907 56.5811 404.344 57.4544C403.78 58.3277 403.444 59.2623 403.334 60.2581Z" fill="black"/>
<path d="M471.054 89.1953C465.857 88.1539 462.22 85.9972 460.143 82.7253C458.069 79.4337 457.559 75.1601 458.612 69.9046C459.315 66.3944 460.575 63.6178 462.392 61.575C464.213 59.5125 466.437 58.1327 469.065 57.4355C471.713 56.7422 474.616 56.7119 477.773 57.3446C480.989 57.989 483.509 59.2588 485.332 61.154C487.175 63.0531 488.366 65.403 488.906 68.2038C489.447 71.0045 489.377 74.1011 488.697 77.4937C488.104 80.4548 487.018 82.9196 485.441 84.888C483.863 86.8564 481.854 88.2285 479.414 89.0042C476.998 89.7643 474.211 89.8279 471.054 89.1953ZM472.422 80.6883C473.501 80.9044 474.489 80.9087 475.387 80.7011C476.305 80.4975 477.117 80.1095 477.824 79.5371C478.553 78.949 479.16 78.2138 479.642 77.3315C480.125 76.4491 480.479 75.4491 480.703 74.3313C481.052 72.586 481.106 70.9955 480.863 69.5598C480.644 68.1085 480.119 66.912 479.288 65.9703C478.48 65.013 477.361 64.3909 475.929 64.104C474.38 63.7936 473.036 63.9323 471.899 64.5202C470.761 65.1082 469.829 65.9923 469.103 67.1727C468.4 68.3373 467.906 69.6354 467.619 71.067C467.136 73.479 467.286 75.5795 468.07 77.3684C468.873 79.1612 470.324 80.2678 472.422 80.6883Z" fill="black"/>
<path d="M523.076 71.5262C523.607 71.4982 524.324 71.5788 525.228 71.7678C526.157 71.9435 527.042 72.1583 527.885 72.4124C528.593 72.6261 529.37 72.8915 530.214 73.2088C531.059 73.5261 531.737 73.8039 532.25 74.0422C532.032 75.6683 531.75 77.2962 531.404 78.9259C531.065 80.5365 530.664 82.1077 530.202 83.6396C529.353 86.4544 528.305 89.0313 527.056 91.3704C525.827 93.7154 524.371 95.6682 522.689 97.2289C521.006 98.7897 519.075 99.8262 516.894 100.338C514.707 100.87 512.255 100.725 509.536 99.9053C506.644 99.0334 504.431 97.7496 502.895 96.0539C501.365 94.3392 500.379 92.3081 499.938 89.9608C499.503 87.5943 499.485 84.9881 499.883 82.142C500.307 79.2825 500.995 76.273 501.948 73.1136C502.369 71.7158 502.826 70.3075 503.316 68.8887C503.832 67.4565 504.363 66.0397 504.911 64.6382C505.421 64.75 506.08 64.9177 506.89 65.141C507.725 65.351 508.475 65.5667 509.139 65.7879C510.097 66.0767 511.037 66.4228 511.96 66.8264C512.907 67.2167 513.633 67.5817 514.136 67.9215C513.609 69.1831 513.07 70.5559 512.518 72.0397C511.972 73.5044 511.471 74.9931 511.015 76.5058C510.252 79.0334 509.728 81.3611 509.441 83.489C509.174 85.6227 509.254 87.4015 509.681 88.8254C510.108 90.2494 510.992 91.1634 512.332 91.5677C513.596 91.9488 514.763 91.7158 515.833 90.8687C516.922 90.0274 517.901 88.7558 518.769 87.0541C519.663 85.3389 520.447 83.3612 521.123 81.1208C521.631 79.4358 522.044 77.7535 522.363 76.0739C522.706 74.381 522.944 72.8651 523.076 71.5262Z" fill="black"/>
<path d="M552.398 84.4038C553.157 83.7359 554.124 83.1934 555.3 82.7764C556.494 82.3667 557.791 82.159 559.191 82.1533C560.61 82.1549 562.008 82.4277 563.384 82.9718C564.221 83.3026 565.034 83.7208 565.824 84.2264C566.613 84.732 567.148 85.2015 567.428 85.6349L562.192 93.8232C561.849 93.4941 561.392 93.0985 560.822 92.6366C560.252 92.1747 559.548 91.7783 558.711 91.4475C557.856 91.1093 556.96 90.9273 556.024 90.9014C555.114 90.8642 554.212 90.9701 553.318 91.2188C552.424 91.4676 551.573 91.8518 550.765 92.3713C550.525 93.5236 550.185 94.9808 549.747 96.743C549.327 98.5126 548.87 100.321 548.376 102.169C547.883 104.017 547.414 105.692 546.971 107.194C546.528 108.697 546.174 109.782 545.909 110.452C544.541 110.105 542.99 109.621 541.257 109C539.524 108.38 537.87 107.748 536.297 107.104C536.914 105.542 537.57 103.747 538.263 101.72C538.976 99.7006 539.684 97.5826 540.388 95.3663C541.099 93.1313 541.759 90.9188 542.366 88.7288C543 86.5276 543.534 84.4697 543.968 82.5553C544.42 80.6482 544.748 79.0034 544.95 77.621C545.946 77.7135 547.027 77.8613 548.194 78.0646C549.361 78.2678 550.408 78.4771 551.333 78.6924C552.266 78.8891 552.857 79.026 553.107 79.103C553.124 79.712 553.07 80.5831 552.945 81.7164C552.827 82.8311 552.645 83.7269 552.398 84.4038Z" fill="black"/>
<path d="M585.872 129.09C586.165 128.451 586.69 127.404 587.446 125.948C588.212 124.474 589.113 122.743 590.148 120.755C591.193 118.749 592.316 116.604 593.519 114.32C594.731 112.019 595.952 109.722 597.182 107.431C598.422 105.122 599.593 102.935 600.694 100.869C601.796 98.8041 602.773 96.9785 603.626 95.3928C604.478 93.8072 605.127 92.6228 605.571 91.8398C605.844 91.9257 606.763 92.2512 608.328 92.8162C609.92 93.3738 611.848 94.0876 614.114 94.9579C613.493 96.054 612.653 97.5553 611.596 99.4617C610.556 101.378 609.424 103.496 608.202 105.814C606.99 108.116 605.808 110.423 604.658 112.737C605.267 112.554 605.983 112.407 606.803 112.298C607.624 112.188 608.503 112.158 609.441 112.207C610.389 112.238 611.345 112.377 612.308 112.624C613.299 112.864 614.246 113.24 615.151 113.753C617.187 114.907 618.695 116.383 619.677 118.18C620.675 119.987 621.065 122.059 620.845 124.394C620.652 126.721 619.786 129.242 618.248 131.957C616.246 135.489 613.719 137.758 610.666 138.763C607.64 139.761 604.536 139.358 601.351 137.553C600.099 136.843 599.07 136.042 598.266 135.149C597.489 134.249 596.898 133.385 596.493 132.558C596.115 131.723 595.886 131.053 595.805 130.547C595.635 130.888 595.416 131.315 595.147 131.83C594.896 132.354 594.66 132.83 594.441 133.257C594.239 133.695 594.099 133.983 594.02 134.122C592.514 133.291 591.036 132.431 589.587 131.54C588.137 130.65 586.899 129.833 585.872 129.09ZM598.883 124.568C599.063 124.9 599.345 125.335 599.729 125.875C600.113 126.414 600.599 126.977 601.186 127.563C601.783 128.131 602.456 128.627 603.204 129.051C605.014 130.077 606.559 130.413 607.841 130.058C609.132 129.687 610.221 128.718 611.109 127.152C611.641 126.212 611.982 125.267 612.13 124.317C612.287 123.349 612.186 122.452 611.826 121.627C611.466 120.803 610.781 120.104 609.772 119.532C608.659 118.901 607.576 118.54 606.524 118.45C605.471 118.359 604.505 118.421 603.626 118.635C602.763 118.858 602.043 119.094 601.466 119.342C601.387 119.481 601.258 119.729 601.078 120.087C600.908 120.428 600.708 120.82 600.479 121.265C600.268 121.72 600.047 122.17 599.818 122.615C599.606 123.069 599.415 123.467 599.245 123.807C599.075 124.148 598.955 124.401 598.883 124.568Z" fill="black"/>
<path d="M632.54 158.284C628.198 155.244 625.732 151.809 625.143 147.978C624.564 144.131 625.812 140.012 628.886 135.621C630.939 132.689 633.208 130.651 635.692 129.509C638.187 128.351 640.778 127.98 643.465 128.396C646.169 128.824 648.84 129.961 651.477 131.808C654.164 133.689 655.963 135.863 656.872 138.331C657.797 140.81 657.946 143.44 657.316 146.222C656.687 149.004 655.38 151.813 653.396 154.647C651.664 157.121 649.681 158.943 647.446 160.113C645.211 161.283 642.82 161.733 640.274 161.464C637.756 161.191 635.178 160.13 632.54 158.284ZM637.207 151.041C638.109 151.672 639.012 152.073 639.918 152.243C640.841 152.425 641.74 152.396 642.617 152.155C643.521 151.909 644.372 151.479 645.168 150.864C645.964 150.25 646.689 149.476 647.343 148.542C648.364 147.084 649.051 145.649 649.405 144.236C649.787 142.819 649.786 141.512 649.403 140.316C649.047 139.115 648.272 138.096 647.076 137.259C645.781 136.353 644.495 135.941 643.217 136.022C641.939 136.104 640.731 136.54 639.592 137.33C638.481 138.115 637.507 139.105 636.67 140.301C635.259 142.316 634.553 144.3 634.553 146.253C634.57 148.218 635.454 149.814 637.207 151.041Z" fill="black"/>
<path d="M669.613 186.275C669.762 186.035 669.996 185.709 670.315 185.298C670.634 184.887 670.959 184.468 671.29 184.041C671.65 183.612 671.939 183.267 672.158 183.007C671.755 183.113 671.201 183.183 670.494 183.217C669.815 183.248 669.022 183.183 668.113 183.021C667.204 182.86 666.211 182.535 665.131 182.048C664.065 181.546 662.95 180.806 661.785 179.829C659.854 178.21 658.583 176.349 657.972 174.244C657.361 172.14 657.355 169.969 657.954 167.73C658.565 165.476 659.718 163.337 661.415 161.314C663.085 159.322 665.015 157.782 667.206 156.695C669.424 155.606 671.735 155.169 674.139 155.383C676.556 155.583 678.914 156.646 681.212 158.574C682.362 159.538 683.295 160.542 684.011 161.586C684.743 162.643 685.271 163.647 685.596 164.598C685.934 165.534 686.074 166.317 686.015 166.947C686.768 166.142 687.639 165.228 688.628 164.204C689.63 163.165 690.658 162.109 691.714 161.037C692.798 159.962 693.823 158.942 694.789 157.977C695.754 157.012 696.576 156.188 697.255 155.503C697.961 154.817 698.432 154.364 698.668 154.144C699.557 154.889 700.508 155.778 701.522 156.811C702.564 157.841 703.417 158.831 704.083 159.78C700.879 163.071 697.73 166.407 694.634 169.788C691.551 173.154 688.443 176.643 685.31 180.254C682.206 183.863 678.977 187.667 675.623 191.667C675.271 191.372 674.695 190.876 673.895 190.179C673.111 189.496 672.311 188.785 671.493 188.048C670.676 187.311 670.049 186.72 669.613 186.275ZM669.302 174.74C669.976 175.305 670.661 175.749 671.357 176.071C672.052 176.393 672.747 176.623 673.44 176.761C674.147 176.883 674.805 176.939 675.414 176.928C676.052 176.915 676.628 176.85 677.143 176.734C677.4 176.427 677.715 176.052 678.088 175.607C678.473 175.148 678.859 174.688 679.244 174.228C679.645 173.781 680.019 173.351 680.366 172.937C680.728 172.536 681.014 172.227 681.222 172.01C681.154 171.406 680.95 170.699 680.61 169.892C680.269 169.084 679.815 168.286 679.249 167.498C678.711 166.708 678.075 166.005 677.339 165.388C675.837 164.128 674.286 163.597 672.685 163.795C671.112 163.99 669.728 164.8 668.533 166.225C667.273 167.727 666.708 169.211 666.837 170.676C666.994 172.139 667.815 173.493 669.302 174.74Z" fill="black"/>
<path d="M675.611 213.603C673.429 211.458 671.797 209.209 670.716 206.857C669.634 204.505 668.902 202.411 668.518 200.576C669.152 200.273 670.012 199.926 671.097 199.535C672.183 199.172 673.262 198.83 674.334 198.509C675.392 198.203 676.21 197.998 676.789 197.894C676.966 198.713 677.258 199.714 677.664 200.899C678.085 202.097 678.626 203.316 679.287 204.554C679.949 205.793 680.757 206.882 681.713 207.821C682.754 208.845 683.891 209.429 685.123 209.574C686.368 209.732 687.654 209.58 688.979 209.116C690.305 208.651 691.6 207.975 692.865 207.087C694.144 206.214 695.331 205.234 696.425 204.15C695.578 204.384 694.638 204.47 693.605 204.408C692.586 204.332 691.559 204.079 690.523 203.65C689.515 203.22 688.562 202.564 687.663 201.681C685.48 199.536 684.357 197.269 684.294 194.88C684.259 192.49 685.001 190.037 686.521 187.52C688.055 185.017 690.062 182.504 692.543 179.979C693.51 178.994 694.541 177.988 695.635 176.961C696.729 175.933 697.873 174.869 699.065 173.77C699.378 173.937 699.784 174.251 700.283 174.714C700.796 175.162 701.338 175.666 701.908 176.227C702.693 176.998 703.442 177.776 704.156 178.562C704.87 179.348 705.335 179.902 705.55 180.226C705.268 180.426 704.77 180.805 704.053 181.363C703.337 181.921 702.508 182.607 701.568 183.421C700.642 184.25 699.723 185.128 698.812 186.055C697.929 186.954 697.096 187.887 696.312 188.856C695.543 189.81 694.914 190.749 694.427 191.672C693.955 192.61 693.715 193.496 693.708 194.331C693.701 195.165 694.019 195.898 694.661 196.528C695.645 197.496 696.794 197.924 698.109 197.814C699.423 197.703 700.861 197.153 702.422 196.164C703.997 195.188 705.648 193.88 707.373 192.238C707.92 191.71 708.46 191.189 708.993 190.675C709.54 190.147 710.044 189.648 710.507 189.177C710.97 188.706 711.355 188.3 711.663 187.958C712 187.615 712.217 187.38 712.315 187.252C712.685 187.56 713.041 187.868 713.383 188.176C713.74 188.47 714.082 188.778 714.41 189.101C715.722 190.39 716.88 191.808 717.884 193.355C716.371 195.037 714.598 196.913 712.566 198.981C711.276 200.294 709.881 201.685 708.381 203.155C706.894 204.61 705.351 206.08 703.752 207.565C702.167 209.064 700.568 210.549 698.954 212.02C696.429 214.333 693.827 216.01 691.149 217.052C688.471 218.122 685.815 218.4 683.18 217.885C680.531 217.385 678.008 215.958 675.611 213.603Z" fill="black"/>
<path d="M713.532 243.899C712.91 242.689 712.369 241.595 711.911 240.617C711.452 239.638 711.021 238.69 710.617 237.774C710.222 236.875 709.817 235.891 709.402 234.822C711.786 233.596 714.162 232.97 716.532 232.943C718.911 232.933 721.336 233.406 723.807 234.362C725.182 234.892 726.416 235.235 727.509 235.393C728.629 235.559 729.598 235.432 730.416 235.011C731.412 234.498 732.012 233.762 732.215 232.803C732.428 231.861 732.242 230.821 731.656 229.683C731.199 228.794 730.654 228.062 730.021 227.488C729.388 226.914 728.668 226.475 727.859 226.171C727.078 225.876 726.221 225.698 725.29 225.637C724.386 225.585 723.407 225.627 722.354 225.765L722.723 217.039C724.971 216.468 727.131 216.492 729.204 217.113C731.287 217.751 733.178 218.847 734.877 220.402C736.604 221.965 738.021 223.823 739.128 225.975C740.326 228.305 741.045 230.577 741.285 232.793C741.552 235.017 741.254 237.038 740.389 238.854C739.542 240.662 738.051 242.115 735.917 243.213C734.334 244.027 732.886 244.513 731.573 244.671C730.278 244.82 729.065 244.758 727.935 244.485C726.814 244.229 725.719 243.893 724.65 243.476C723.67 243.103 722.58 242.82 721.38 242.628C720.188 242.454 718.927 242.45 717.596 242.618C716.292 242.794 714.937 243.221 713.532 243.899ZM699.551 246.233C698.791 244.757 698.546 243.252 698.815 241.72C699.11 240.196 700.023 239.04 701.552 238.253C702.388 237.823 703.299 237.67 704.284 237.793C705.287 237.906 706.222 238.258 707.087 238.847C707.97 239.428 708.645 240.171 709.112 241.078C709.944 242.697 710.217 244.254 709.93 245.751C709.67 247.257 708.864 248.358 707.513 249.053C706.552 249.547 705.548 249.737 704.5 249.624C703.462 249.529 702.496 249.182 701.604 248.584C700.738 247.995 700.054 247.211 699.551 246.233Z" fill="black"/>
</svg>
