<svg width="401" height="106" viewBox="0 0 401 106" fill="none" xmlns="http://www.w3.org/2000/svg">
<path d="M22.6065 44.45C22.2865 43.45 21.9365 42.34 21.5565 41.12C21.1965 39.9 20.8265 38.66 20.4465 37.4C20.0865 36.12 19.7465 34.88 19.4265 33.68C19.1265 32.48 18.8465 31.38 18.5865 30.38C18.3465 29.38 18.1765 28.55 18.0765 27.89L19.2165 27.74C19.1365 28.02 18.9665 28.53 18.7065 29.27C18.4465 29.99 18.1365 30.86 17.7765 31.88C17.4165 32.9 17.0165 33.99 16.5765 35.15C16.1565 36.29 15.7165 37.42 15.2565 38.54C14.8165 39.66 14.3965 40.7 13.9965 41.66C13.6165 42.6 13.2865 43.38 13.0065 44L2.38648 43.58C2.20648 41.98 2.01648 40.07 1.81648 37.85C1.63648 35.61 1.45648 33.15 1.27648 30.47C1.09648 27.77 0.936478 24.93 0.796478 21.95C0.656478 18.97 0.546478 15.91 0.466478 12.77C0.386478 9.63 0.346478 6.51 0.346478 3.41L10.7865 3.8C10.7865 5.5 10.7665 7.42 10.7265 9.56C10.6865 11.68 10.6365 13.87 10.5765 16.13C10.5365 18.37 10.4965 20.56 10.4565 22.7C10.4165 24.84 10.3765 26.79 10.3365 28.55C10.3165 30.31 10.3165 31.76 10.3365 32.9L9.79648 33.44C10.0165 32.84 10.2865 32.02 10.6065 30.98C10.9465 29.92 11.3165 28.75 11.7165 27.47C12.1165 26.17 12.5165 24.83 12.9165 23.45C13.3165 22.07 13.6865 20.72 14.0265 19.4C14.3665 18.08 14.6565 16.89 14.8965 15.83C15.1365 14.75 15.2765 13.88 15.3165 13.22L22.3965 13.07C22.4165 13.45 22.4965 14.19 22.6365 15.29C22.7965 16.37 22.9965 17.66 23.2365 19.16C23.4965 20.66 23.7765 22.24 24.0765 23.9C24.3765 25.54 24.6665 27.14 24.9465 28.7C25.2465 30.24 25.5265 31.61 25.7865 32.81C26.0665 33.99 26.3065 34.84 26.5065 35.36L25.1865 35.45C25.5665 33.37 25.8965 30.92 26.1765 28.1C26.4765 25.28 26.7265 22.35 26.9265 19.31C27.1265 16.27 27.2665 13.37 27.3465 10.61C27.4465 7.83 27.4965 5.47 27.4965 3.53L36.9465 2.57C36.9465 6.05 36.8065 9.59 36.5265 13.19C36.2465 16.79 35.8865 20.27 35.4465 23.63C35.0065 26.99 34.5565 30.06 34.0965 32.84C33.6365 35.62 33.2165 37.95 32.8365 39.83C32.4565 41.69 32.1965 42.93 32.0565 43.55L22.6065 44.45ZM52.959 44.33C52.499 44.41 51.849 44.47 51.009 44.51C50.189 44.55 49.339 44.57 48.459 44.57C47.419 44.57 46.449 44.53 45.549 44.45C44.649 44.39 43.989 44.28 43.569 44.12C43.729 42.92 43.869 41.36 43.989 39.44C44.129 37.5 44.239 35.33 44.319 32.93C44.419 30.53 44.469 28.01 44.469 25.37C44.469 22.67 44.419 19.92 44.319 17.12C44.239 14.32 44.129 11.62 43.989 9.02C43.849 6.4 43.719 4.01 43.599 1.85C43.739 1.79 44.179 1.7 44.919 1.58C45.659 1.46 46.519 1.34 47.499 1.22C48.479 1.08 49.409 0.959997 50.289 0.859998C51.169 0.759998 51.829 0.709998 52.269 0.709998C52.589 2.21 52.869 4 53.109 6.08C53.349 8.16 53.549 10.44 53.709 12.92C53.869 15.38 53.979 17.96 54.039 20.66C54.719 19.9 55.579 19.22 56.619 18.62C57.659 18 58.789 17.52 60.009 17.18C61.249 16.82 62.479 16.64 63.699 16.64C66.139 16.64 68.009 17.11 69.309 18.05C70.609 18.97 71.509 20.32 72.009 22.1C72.529 23.86 72.789 26.01 72.789 28.55C72.789 30.15 72.719 31.87 72.579 33.71C72.459 35.55 72.299 37.36 72.099 39.14C71.899 40.92 71.679 42.52 71.439 43.94C70.739 44.04 70.019 44.12 69.279 44.18C68.539 44.24 67.799 44.27 67.059 44.27C66.239 44.27 65.429 44.23 64.629 44.15C63.849 44.09 63.139 44 62.499 43.88C62.639 42.98 62.789 41.92 62.949 40.7C63.109 39.48 63.259 38.23 63.399 36.95C63.539 35.65 63.649 34.42 63.729 33.26C63.829 32.08 63.879 31.08 63.879 30.26C63.879 29.08 63.759 28.08 63.519 27.26C63.299 26.44 62.929 25.82 62.409 25.4C61.909 24.96 61.229 24.74 60.369 24.74C59.629 24.74 58.929 24.88 58.269 25.16C57.609 25.42 56.999 25.76 56.439 26.18C55.899 26.58 55.419 27 54.999 27.44C54.579 27.86 54.249 28.23 54.009 28.55C54.009 30.61 53.959 32.67 53.859 34.73C53.759 36.77 53.629 38.63 53.469 40.31C53.309 41.99 53.139 43.33 52.959 44.33ZM92.6504 44.51C90.1904 44.51 87.9404 44.18 85.9004 43.52C83.8604 42.84 82.2304 41.75 81.0104 40.25C79.8104 38.73 79.2104 36.72 79.2104 34.22C79.2104 31.72 79.9104 29.71 81.3104 28.19C82.7304 26.65 84.5904 25.54 86.8904 24.86C89.2104 24.16 91.7004 23.81 94.3604 23.81C95.4004 23.81 96.4004 23.89 97.3604 24.05C98.3204 24.21 99.1604 24.4 99.8804 24.62C100.62 24.84 101.15 25.05 101.47 25.25C101.45 24.73 101.34 24.18 101.14 23.6C100.96 23.02 100.7 22.53 100.36 22.13C99.7604 21.31 98.9404 20.63 97.9004 20.09C96.8804 19.53 95.5304 19.25 93.8504 19.25C92.1504 19.25 90.6504 19.64 89.3504 20.42C88.0504 21.18 87.0604 22.04 86.3804 23L79.0604 18.29C79.9604 17.01 81.1704 15.89 82.6904 14.93C84.2304 13.97 85.9704 13.22 87.9104 12.68C89.8704 12.14 91.9204 11.87 94.0604 11.87C97.6004 11.87 100.47 12.45 102.67 13.61C104.87 14.77 106.5 16.39 107.56 18.47C108.06 19.47 108.47 20.57 108.79 21.77C109.11 22.97 109.33 24.35 109.45 25.91C109.53 27.25 109.59 28.5 109.63 29.66C109.67 30.82 109.71 31.92 109.75 32.96C109.79 34.48 109.96 35.47 110.26 35.93C110.56 36.39 110.99 36.62 111.55 36.62C112.07 36.62 112.53 36.48 112.93 36.2C113.35 35.9 113.62 35.51 113.74 35.03L116.86 41C116.64 41.92 116.02 42.69 115 43.31C113.98 43.93 112.69 44.24 111.13 44.24C109.99 44.24 108.91 44.05 107.89 43.67C106.87 43.27 106.03 42.74 105.37 42.08C104.71 41.4 104.32 40.63 104.2 39.77C103.88 40.53 103.21 41.28 102.19 42.02C101.17 42.74 99.8604 43.34 98.2604 43.82C96.6604 44.28 94.7904 44.51 92.6504 44.51ZM94.6604 37.46C95.6004 37.46 96.5604 37.32 97.5404 37.04C98.5404 36.74 99.4404 36.37 100.24 35.93C101.06 35.49 101.69 35.04 102.13 34.58C102.09 33.96 102.05 33.32 102.01 32.66C101.99 32 101.99 31.44 102.01 30.98C101.57 30.8 100.73 30.61 99.4904 30.41C98.2704 30.19 96.9904 30.08 95.6504 30.08C94.4304 30.08 93.2904 30.21 92.2304 30.47C91.1704 30.73 90.3004 31.13 89.6204 31.67C88.9604 32.21 88.6304 32.91 88.6304 33.77C88.6304 34.69 88.8804 35.42 89.3804 35.96C89.8804 36.5 90.5804 36.89 91.4804 37.13C92.3804 37.35 93.4404 37.46 94.6604 37.46ZM141.916 40.07C141.536 40.81 140.936 41.6 140.116 42.44C139.316 43.26 138.266 43.96 136.966 44.54C135.686 45.14 134.126 45.44 132.286 45.44C129.866 45.44 127.886 44.93 126.346 43.91C124.826 42.89 123.696 41.53 122.956 39.83C122.236 38.13 121.876 36.27 121.876 34.25C121.876 33.15 121.886 31.98 121.906 30.74C121.946 29.48 121.986 28.24 122.026 27.02C122.066 25.78 122.106 24.61 122.146 23.51C122.206 22.39 122.256 21.41 122.296 20.57C122.356 19.73 122.396 19.08 122.416 18.62C120.836 18.78 119.376 18.96 118.036 19.16C116.696 19.34 115.766 19.49 115.246 19.61C115.046 18.49 114.896 17.35 114.796 16.19C114.696 15.03 114.616 14.02 114.556 13.16C114.516 12.3 114.496 11.77 114.496 11.57C115.656 11.41 116.896 11.27 118.216 11.15C119.536 11.01 120.926 10.91 122.386 10.85C122.366 10.37 122.346 9.62 122.326 8.6C122.306 7.58 122.276 6.66 122.236 5.84C122.216 5.1 122.176 4.36 122.116 3.62C122.056 2.86 122.006 2.25 121.966 1.79L130.846 1.01C130.846 1.25 130.846 1.81 130.846 2.69C130.866 3.57 130.876 4.63 130.876 5.87C130.876 6.49 130.886 7.21 130.906 8.03C130.926 8.83 130.946 9.62 130.966 10.4C131.626 10.36 132.396 10.32 133.276 10.28C134.156 10.24 134.856 10.21 135.376 10.19C136.216 10.15 136.976 10.13 137.656 10.13C138.336 10.11 138.896 10.1 139.336 10.1C139.796 10.1 140.106 10.11 140.266 10.13C140.386 11.07 140.466 12.27 140.506 13.73C140.546 15.17 140.566 16.45 140.566 17.57C140.366 17.55 139.716 17.56 138.616 17.6C137.516 17.62 136.436 17.66 135.376 17.72C134.636 17.74 133.816 17.78 132.916 17.84C132.016 17.9 131.306 17.96 130.786 18.02C130.766 18.44 130.736 19.02 130.696 19.76C130.676 20.48 130.646 21.3 130.606 22.22C130.586 23.12 130.556 24.06 130.516 25.04C130.496 26 130.476 26.93 130.456 27.83C130.436 28.73 130.426 29.53 130.426 30.23C130.426 31.55 130.486 32.74 130.606 33.8C130.746 34.84 131.036 35.67 131.476 36.29C131.936 36.89 132.636 37.19 133.576 37.19C134.196 37.19 134.726 37.01 135.166 36.65C135.606 36.29 135.966 35.87 136.246 35.39C136.546 34.89 136.806 34.45 137.026 34.07C137.286 34.43 137.646 34.91 138.106 35.51C138.586 36.09 139.086 36.7 139.606 37.34C140.146 37.98 140.626 38.55 141.046 39.05C141.486 39.55 141.776 39.89 141.916 40.07ZM152.712 16.43C152.132 16.07 151.502 15.56 150.822 14.9C150.142 14.24 149.612 13.58 149.232 12.92C149.572 12.72 150.032 12.4 150.612 11.96C151.212 11.52 151.772 11.05 152.292 10.55C152.812 10.05 153.102 9.61 153.162 9.23C153.042 9.35 152.832 9.46 152.532 9.56C152.252 9.66 151.912 9.71 151.512 9.71C150.212 9.71 149.222 9.32 148.542 8.54C147.862 7.74 147.522 6.81 147.522 5.75C147.522 4.15 148.072 2.89 149.172 1.97C150.292 1.03 151.632 0.559998 153.192 0.559998C154.972 0.559998 156.442 1.08 157.602 2.12C158.762 3.16 159.342 4.51 159.342 6.17C159.342 7.79 159.032 9.27 158.412 10.61C157.792 11.95 156.972 13.11 155.952 14.09C154.952 15.07 153.872 15.85 152.712 16.43ZM174.985 46.37C172.645 46.37 170.495 46.08 168.535 45.5C166.595 44.94 164.945 44.28 163.585 43.52C162.245 42.74 161.275 42.04 160.675 41.42C160.795 41.04 161.025 40.49 161.365 39.77C161.725 39.03 162.145 38.23 162.625 37.37C163.105 36.51 163.585 35.71 164.065 34.97C164.545 34.23 164.975 33.68 165.355 33.32C166.315 34.14 167.355 34.95 168.475 35.75C169.595 36.53 170.745 37.17 171.925 37.67C173.105 38.17 174.205 38.42 175.225 38.42C176.025 38.42 176.745 38.32 177.385 38.12C178.025 37.9 178.525 37.58 178.885 37.16C179.265 36.74 179.455 36.22 179.455 35.6C179.455 34.88 179.105 34.19 178.405 33.53C177.725 32.85 176.845 32.21 175.765 31.61C174.685 31.01 173.555 30.47 172.375 29.99C170.755 29.33 169.245 28.56 167.845 27.68C166.445 26.78 165.315 25.68 164.455 24.38C163.595 23.06 163.165 21.42 163.165 19.46C163.165 17.46 163.755 15.78 164.935 14.42C166.115 13.06 167.655 12.03 169.555 11.33C171.475 10.63 173.525 10.28 175.705 10.28C177.765 10.28 179.855 10.57 181.975 11.15C184.095 11.71 185.825 12.52 187.165 13.58C187.045 13.96 186.785 14.54 186.385 15.32C186.005 16.1 185.535 16.94 184.975 17.84C184.435 18.72 183.855 19.53 183.235 20.27C182.415 19.57 181.385 18.9 180.145 18.26C178.905 17.62 177.605 17.3 176.245 17.3C175.565 17.3 174.885 17.37 174.205 17.51C173.545 17.65 172.995 17.9 172.555 18.26C172.135 18.62 171.925 19.11 171.925 19.73C171.925 20.33 172.155 20.87 172.615 21.35C173.075 21.81 173.745 22.26 174.625 22.7C175.525 23.14 176.575 23.6 177.775 24.08C178.975 24.56 180.195 25.13 181.435 25.79C182.675 26.43 183.815 27.2 184.855 28.1C185.915 29 186.765 30.05 187.405 31.25C188.045 32.43 188.365 33.79 188.365 35.33C188.365 37.79 187.755 39.84 186.535 41.48C185.315 43.12 183.685 44.34 181.645 45.14C179.625 45.96 177.405 46.37 174.985 46.37ZM226.029 43.94C225.689 43.96 225.039 44 224.079 44.06C223.139 44.14 222.139 44.18 221.079 44.18C220.299 44.18 219.509 44.15 218.709 44.09C217.929 44.05 217.159 43.99 216.399 43.91C216.499 43.39 216.609 42.33 216.729 40.73C216.869 39.11 216.999 37.21 217.119 35.03C217.259 32.85 217.389 30.6 217.509 28.28C217.649 25.94 217.749 23.75 217.809 21.71C217.889 19.67 217.929 18.03 217.929 16.79C218.329 16.77 218.919 16.74 219.699 16.7C220.479 16.66 221.319 16.63 222.219 16.61C223.119 16.57 223.979 16.54 224.799 16.52C225.619 16.48 226.269 16.46 226.749 16.46C226.849 17.08 226.929 18.08 226.989 19.46C227.049 20.84 227.079 22.38 227.079 24.08C227.079 25.9 227.049 27.83 226.989 29.87C226.949 31.91 226.879 33.89 226.779 35.81C226.699 37.71 226.589 39.39 226.449 40.85C226.309 42.29 226.169 43.32 226.029 43.94ZM222.669 12.59C220.869 12.59 219.359 12.07 218.139 11.03C216.919 9.97 216.309 8.58 216.309 6.86C216.309 5.68 216.599 4.67 217.179 3.83C217.759 2.99 218.509 2.35 219.429 1.91C220.369 1.45 221.359 1.22 222.399 1.22C224.059 1.22 225.429 1.76 226.509 2.84C227.609 3.92 228.159 5.31 228.159 7.01C228.159 8.59 227.639 9.92 226.599 11C225.559 12.06 224.249 12.59 222.669 12.59ZM246.753 44.39C246.153 44.41 245.413 44.41 244.533 44.39C243.653 44.39 242.753 44.38 241.833 44.36C241.093 44.34 240.243 44.31 239.283 44.27C238.323 44.23 237.653 44.19 237.273 44.15C237.453 42.47 237.603 40.57 237.723 38.45C237.863 36.33 237.973 33.98 238.053 31.4C238.133 28.82 238.193 26 238.233 22.94C238.273 19.88 238.293 16.57 238.293 13.01C239.053 12.91 239.953 12.83 240.993 12.77C242.033 12.71 243.083 12.68 244.143 12.68C244.883 12.68 245.593 12.7 246.273 12.74C246.973 12.76 247.593 12.82 248.133 12.92C248.133 13.1 248.133 13.47 248.133 14.03C248.153 14.57 248.153 15.17 248.133 15.83C248.133 16.47 248.123 17.05 248.103 17.57C248.623 16.81 249.473 16.02 250.653 15.2C251.833 14.36 253.203 13.65 254.763 13.07C256.323 12.49 257.933 12.2 259.593 12.2C262.653 12.2 264.993 12.82 266.613 14.06C268.233 15.28 269.343 17.12 269.943 19.58C270.543 22.02 270.843 25.08 270.843 28.76C270.843 30.04 270.803 31.54 270.723 33.26C270.663 34.96 270.563 36.75 270.423 38.63C270.283 40.51 270.103 42.33 269.883 44.09C269.483 44.13 268.843 44.16 267.963 44.18C267.103 44.22 266.193 44.24 265.233 44.24C264.213 44.24 263.243 44.22 262.323 44.18C261.403 44.16 260.723 44.13 260.283 44.09C260.503 42.97 260.743 41.57 261.003 39.89C261.263 38.21 261.483 36.42 261.663 34.52C261.843 32.6 261.933 30.77 261.933 29.03C261.933 27.35 261.793 25.89 261.513 24.65C261.253 23.41 260.743 22.45 259.983 21.77C259.243 21.07 258.143 20.72 256.683 20.72C255.483 20.72 254.333 20.93 253.233 21.35C252.133 21.77 251.133 22.29 250.233 22.91C249.333 23.51 248.563 24.1 247.923 24.68C247.903 27.84 247.823 30.7 247.683 33.26C247.543 35.8 247.393 38.01 247.233 39.89C247.073 41.75 246.913 43.25 246.753 44.39ZM291.636 46.37C289.296 46.37 287.146 46.08 285.186 45.5C283.246 44.94 281.596 44.28 280.236 43.52C278.896 42.74 277.926 42.04 277.326 41.42C277.446 41.04 277.676 40.49 278.016 39.77C278.376 39.03 278.796 38.23 279.276 37.37C279.756 36.51 280.236 35.71 280.716 34.97C281.196 34.23 281.626 33.68 282.006 33.32C282.966 34.14 284.006 34.95 285.126 35.75C286.246 36.53 287.396 37.17 288.576 37.67C289.756 38.17 290.856 38.42 291.876 38.42C292.676 38.42 293.396 38.32 294.036 38.12C294.676 37.9 295.176 37.58 295.536 37.16C295.916 36.74 296.106 36.22 296.106 35.6C296.106 34.88 295.756 34.19 295.056 33.53C294.376 32.85 293.496 32.21 292.416 31.61C291.336 31.01 290.206 30.47 289.026 29.99C287.406 29.33 285.896 28.56 284.496 27.68C283.096 26.78 281.966 25.68 281.106 24.38C280.246 23.06 279.816 21.42 279.816 19.46C279.816 17.46 280.406 15.78 281.586 14.42C282.766 13.06 284.306 12.03 286.206 11.33C288.126 10.63 290.176 10.28 292.356 10.28C294.416 10.28 296.506 10.57 298.626 11.15C300.746 11.71 302.476 12.52 303.816 13.58C303.696 13.96 303.436 14.54 303.036 15.32C302.656 16.1 302.186 16.94 301.626 17.84C301.086 18.72 300.506 19.53 299.886 20.27C299.066 19.57 298.036 18.9 296.796 18.26C295.556 17.62 294.256 17.3 292.896 17.3C292.216 17.3 291.536 17.37 290.856 17.51C290.196 17.65 289.646 17.9 289.206 18.26C288.786 18.62 288.576 19.11 288.576 19.73C288.576 20.33 288.806 20.87 289.266 21.35C289.726 21.81 290.396 22.26 291.276 22.7C292.176 23.14 293.226 23.6 294.426 24.08C295.626 24.56 296.846 25.13 298.086 25.79C299.326 26.43 300.466 27.2 301.506 28.1C302.566 29 303.416 30.05 304.056 31.25C304.696 32.43 305.016 33.79 305.016 35.33C305.016 37.79 304.406 39.84 303.186 41.48C301.966 43.12 300.336 44.34 298.296 45.14C296.276 45.96 294.056 46.37 291.636 46.37ZM321.823 43.94C321.483 43.96 320.833 44 319.873 44.06C318.933 44.14 317.933 44.18 316.873 44.18C316.093 44.18 315.303 44.15 314.503 44.09C313.723 44.05 312.953 43.99 312.193 43.91C312.293 43.39 312.403 42.33 312.523 40.73C312.663 39.11 312.793 37.21 312.913 35.03C313.053 32.85 313.183 30.6 313.303 28.28C313.443 25.94 313.543 23.75 313.603 21.71C313.683 19.67 313.723 18.03 313.723 16.79C314.123 16.77 314.713 16.74 315.493 16.7C316.273 16.66 317.113 16.63 318.013 16.61C318.913 16.57 319.773 16.54 320.593 16.52C321.413 16.48 322.063 16.46 322.543 16.46C322.643 17.08 322.723 18.08 322.783 19.46C322.843 20.84 322.873 22.38 322.873 24.08C322.873 25.9 322.843 27.83 322.783 29.87C322.743 31.91 322.673 33.89 322.573 35.81C322.493 37.71 322.383 39.39 322.243 40.85C322.103 42.29 321.963 43.32 321.823 43.94ZM318.463 12.59C316.663 12.59 315.153 12.07 313.933 11.03C312.713 9.97 312.103 8.58 312.103 6.86C312.103 5.68 312.393 4.67 312.973 3.83C313.553 2.99 314.303 2.35 315.223 1.91C316.163 1.45 317.153 1.22 318.193 1.22C319.853 1.22 321.223 1.76 322.303 2.84C323.403 3.92 323.953 5.31 323.953 7.01C323.953 8.59 323.433 9.92 322.393 11C321.353 12.06 320.043 12.59 318.463 12.59ZM354.007 43.91C353.967 43.63 353.937 43.23 353.917 42.71C353.897 42.19 353.877 41.66 353.857 41.12C353.857 40.56 353.857 40.11 353.857 39.77C353.617 40.11 353.237 40.52 352.717 41C352.217 41.46 351.567 41.92 350.767 42.38C349.967 42.84 348.997 43.23 347.857 43.55C346.717 43.85 345.387 44 343.867 44C341.347 44 339.177 43.39 337.357 42.17C335.537 40.95 334.137 39.29 333.157 37.19C332.177 35.07 331.687 32.69 331.687 30.05C331.687 27.45 332.177 25.03 333.157 22.79C334.157 20.53 335.647 18.71 337.627 17.33C339.607 15.93 342.097 15.23 345.097 15.23C346.597 15.23 347.957 15.4 349.177 15.74C350.417 16.08 351.467 16.51 352.327 17.03C353.187 17.53 353.797 18.04 354.157 18.56C354.217 17.46 354.297 16.2 354.397 14.78C354.497 13.34 354.607 11.87 354.727 10.37C354.867 8.85 354.997 7.41 355.117 6.05C355.237 4.69 355.337 3.53 355.417 2.57C355.517 1.59 355.587 0.939998 355.627 0.619997C356.787 0.619997 358.087 0.689998 359.527 0.83C360.987 0.949998 362.277 1.16 363.397 1.46C363.057 6.04 362.787 10.62 362.587 15.2C362.387 19.76 362.247 24.43 362.167 29.21C362.107 33.97 362.077 38.96 362.077 44.18C361.617 44.18 360.857 44.17 359.797 44.15C358.757 44.13 357.687 44.1 356.587 44.06C355.487 44.02 354.627 43.97 354.007 43.91ZM346.357 35.27C347.237 35.27 348.047 35.17 348.787 34.97C349.527 34.77 350.207 34.5 350.827 34.16C351.447 33.8 351.987 33.42 352.447 33.02C352.927 32.6 353.327 32.18 353.647 31.76C353.647 31.36 353.647 30.87 353.647 30.29C353.647 29.69 353.647 29.09 353.647 28.49C353.667 27.89 353.677 27.32 353.677 26.78C353.697 26.24 353.717 25.82 353.737 25.52C353.297 25.1 352.687 24.69 351.907 24.29C351.127 23.89 350.267 23.57 349.327 23.33C348.407 23.07 347.467 22.94 346.507 22.94C344.547 22.94 343.017 23.53 341.917 24.71C340.837 25.87 340.297 27.38 340.297 29.24C340.297 31.2 340.817 32.7 341.857 33.74C342.917 34.76 344.417 35.27 346.357 35.27ZM400.036 38.63C399.476 39.31 398.776 39.98 397.936 40.64C397.096 41.3 396.086 41.9 394.906 42.44C393.746 42.96 392.416 43.38 390.916 43.7C389.416 44 387.736 44.15 385.876 44.15C382.856 44.15 380.176 43.58 377.836 42.44C375.496 41.28 373.666 39.57 372.346 37.31C371.046 35.03 370.396 32.2 370.396 28.82C370.396 25.44 371.076 22.5 372.436 20C373.796 17.48 375.696 15.53 378.136 14.15C380.576 12.75 383.426 12.05 386.686 12.05C390.806 12.05 394.046 13.2 396.406 15.5C398.786 17.78 400.026 20.94 400.126 24.98C400.146 25.72 400.136 26.39 400.096 26.99C400.056 27.59 399.976 28.23 399.856 28.91C399.556 28.89 398.916 28.87 397.936 28.85C396.956 28.83 395.846 28.81 394.606 28.79C393.386 28.75 392.226 28.72 391.126 28.7C390.046 28.68 389.246 28.67 388.726 28.67C386.986 28.67 385.296 28.75 383.656 28.91C382.036 29.07 380.676 29.24 379.576 29.42C379.576 29.78 379.596 30.14 379.636 30.5C379.696 30.84 379.776 31.17 379.876 31.49C380.136 32.31 380.586 33.01 381.226 33.59C381.886 34.17 382.666 34.62 383.566 34.94C384.486 35.24 385.456 35.39 386.476 35.39C387.396 35.39 388.236 35.28 388.996 35.06C389.776 34.82 390.486 34.51 391.126 34.13C391.766 33.75 392.346 33.34 392.866 32.9C393.406 32.44 393.906 31.99 394.366 31.55C394.486 31.65 394.796 31.95 395.296 32.45C395.796 32.93 396.356 33.53 396.976 34.25C397.596 34.95 398.186 35.69 398.746 36.47C399.306 37.25 399.736 37.97 400.036 38.63ZM379.906 23.81C380.806 23.67 381.916 23.54 383.236 23.42C384.556 23.3 386.086 23.24 387.826 23.24C388.766 23.24 389.596 23.25 390.316 23.27C391.056 23.29 391.576 23.31 391.876 23.33C391.876 22.91 391.816 22.45 391.696 21.95C391.536 21.27 391.216 20.62 390.736 20C390.276 19.38 389.676 18.88 388.936 18.5C388.216 18.12 387.346 17.93 386.326 17.93C385.046 17.93 383.926 18.21 382.966 18.77C382.026 19.33 381.296 20.06 380.776 20.96C380.256 21.86 379.966 22.81 379.906 23.81ZM65.7887 104.66C60.4887 104.66 56.4987 103.26 53.8187 100.46C51.1387 97.64 49.7987 93.55 49.7987 88.19C49.7987 84.61 50.4887 81.64 51.8687 79.28C53.2487 76.9 55.1587 75.11 57.5987 73.91C60.0587 72.71 62.8987 72.11 66.1187 72.11C69.3987 72.11 72.1187 72.86 74.2787 74.36C76.4587 75.86 78.0887 77.93 79.1687 80.57C80.2487 83.21 80.7887 86.26 80.7887 89.72C80.7887 92.74 80.2087 95.37 79.0487 97.61C77.8887 99.85 76.1887 101.59 73.9487 102.83C71.7287 104.05 69.0087 104.66 65.7887 104.66ZM65.4587 96.05C66.5587 96.05 67.5287 95.86 68.3687 95.48C69.2287 95.1 69.9487 94.56 70.5287 93.86C71.1287 93.14 71.5787 92.3 71.8787 91.34C72.1787 90.38 72.3287 89.33 72.3287 88.19C72.3287 86.41 72.0687 84.84 71.5487 83.48C71.0487 82.1 70.2987 81.03 69.2987 80.27C68.3187 79.49 67.0987 79.1 65.6387 79.1C64.0587 79.1 62.7687 79.5 61.7687 80.3C60.7687 81.1 60.0287 82.15 59.5487 83.45C59.0887 84.73 58.8587 86.1 58.8587 87.56C58.8587 90.02 59.4187 92.05 60.5387 93.65C61.6787 95.25 63.3187 96.05 65.4587 96.05ZM107.365 74.66C107.865 74.48 108.575 74.35 109.495 74.27C110.435 74.17 111.345 74.12 112.225 74.12C112.965 74.12 113.785 74.15 114.685 74.21C115.585 74.27 116.315 74.34 116.875 74.42C117.135 76.04 117.335 77.68 117.475 79.34C117.615 80.98 117.685 82.6 117.685 84.2C117.685 87.14 117.425 89.91 116.905 92.51C116.405 95.11 115.575 97.4 114.415 99.38C113.255 101.36 111.705 102.91 109.765 104.03C107.825 105.17 105.435 105.74 102.595 105.74C99.5749 105.74 97.0849 105.15 95.1249 103.97C93.1649 102.77 91.6349 101.11 90.5349 98.99C89.4349 96.85 88.6649 94.36 88.2249 91.52C87.8049 88.66 87.5949 85.58 87.5949 82.28C87.5949 80.82 87.6249 79.34 87.6849 77.84C87.7649 76.32 87.8649 74.81 87.9849 73.31C88.5049 73.27 89.1849 73.24 90.0249 73.22C90.8849 73.18 91.6649 73.17 92.3649 73.19C93.3649 73.19 94.3649 73.25 95.3649 73.37C96.3849 73.47 97.1849 73.61 97.7649 73.79C97.6249 75.15 97.5049 76.62 97.4049 78.2C97.3049 79.76 97.2549 81.33 97.2549 82.91C97.2549 85.55 97.4249 87.93 97.7649 90.05C98.1249 92.17 98.7149 93.85 99.5349 95.09C100.355 96.33 101.465 96.95 102.865 96.95C104.185 96.95 105.235 96.39 106.015 95.27C106.815 94.15 107.385 92.65 107.725 90.77C108.085 88.87 108.265 86.75 108.265 84.41C108.265 82.65 108.175 80.92 107.995 79.22C107.835 77.5 107.625 75.98 107.365 74.66ZM133.847 77.12C134.307 76.22 135.007 75.36 135.947 74.54C136.907 73.72 138.037 73.05 139.337 72.53C140.657 72.01 142.057 71.75 143.537 71.75C144.437 71.75 145.347 71.84 146.267 72.02C147.187 72.2 147.857 72.44 148.277 72.74L146.417 82.28C145.977 82.1 145.407 81.9 144.707 81.68C144.007 81.46 143.207 81.35 142.307 81.35C141.387 81.35 140.487 81.51 139.607 81.83C138.747 82.13 137.947 82.56 137.207 83.12C136.467 83.68 135.817 84.35 135.257 85.13C135.457 86.29 135.677 87.77 135.917 89.57C136.177 91.37 136.417 93.22 136.637 95.12C136.857 97.02 137.037 98.75 137.177 100.31C137.317 101.87 137.387 103.01 137.387 103.73C135.987 103.91 134.367 104.03 132.527 104.09C130.687 104.15 128.917 104.17 127.217 104.15C127.217 102.47 127.167 100.56 127.067 98.42C126.987 96.28 126.867 94.05 126.707 91.73C126.547 89.39 126.347 87.09 126.107 84.83C125.887 82.55 125.627 80.44 125.327 78.5C125.047 76.56 124.747 74.91 124.427 73.55C125.387 73.27 126.447 73.01 127.607 72.77C128.767 72.53 129.817 72.34 130.757 72.2C131.697 72.04 132.297 71.95 132.557 71.93C132.797 72.49 133.067 73.32 133.367 74.42C133.667 75.5 133.827 76.4 133.847 77.12ZM183.639 104.33C183.179 104.41 182.529 104.47 181.689 104.51C180.869 104.55 180.019 104.57 179.139 104.57C178.099 104.57 177.129 104.53 176.229 104.45C175.329 104.39 174.669 104.28 174.249 104.12C174.409 102.92 174.549 101.36 174.669 99.44C174.809 97.5 174.919 95.33 174.999 92.93C175.099 90.53 175.149 88.01 175.149 85.37C175.149 82.67 175.099 79.92 174.999 77.12C174.919 74.32 174.809 71.62 174.669 69.02C174.529 66.4 174.399 64.01 174.279 61.85C174.419 61.79 174.859 61.7 175.599 61.58C176.339 61.46 177.199 61.34 178.179 61.22C179.159 61.08 180.089 60.96 180.969 60.86C181.849 60.76 182.509 60.71 182.949 60.71C183.269 62.21 183.549 64 183.789 66.08C184.029 68.16 184.229 70.44 184.389 72.92C184.549 75.38 184.659 77.96 184.719 80.66C185.399 79.9 186.259 79.22 187.299 78.62C188.339 78 189.469 77.52 190.689 77.18C191.929 76.82 193.159 76.64 194.379 76.64C196.819 76.64 198.689 77.11 199.989 78.05C201.289 78.97 202.189 80.32 202.689 82.1C203.209 83.86 203.469 86.01 203.469 88.55C203.469 90.15 203.399 91.87 203.259 93.71C203.139 95.55 202.979 97.36 202.779 99.14C202.579 100.92 202.359 102.52 202.119 103.94C201.419 104.04 200.699 104.12 199.959 104.18C199.219 104.24 198.479 104.27 197.739 104.27C196.919 104.27 196.109 104.23 195.309 104.15C194.529 104.09 193.819 104 193.179 103.88C193.319 102.98 193.469 101.92 193.629 100.7C193.789 99.48 193.939 98.23 194.079 96.95C194.219 95.65 194.329 94.42 194.409 93.26C194.509 92.08 194.559 91.08 194.559 90.26C194.559 89.08 194.439 88.08 194.199 87.26C193.979 86.44 193.609 85.82 193.089 85.4C192.589 84.96 191.909 84.74 191.049 84.74C190.309 84.74 189.609 84.88 188.949 85.16C188.289 85.42 187.679 85.76 187.119 86.18C186.579 86.58 186.099 87 185.679 87.44C185.259 87.86 184.929 88.23 184.689 88.55C184.689 90.61 184.639 92.67 184.539 94.73C184.439 96.77 184.309 98.63 184.149 100.31C183.989 101.99 183.819 103.33 183.639 104.33ZM240.233 98.63C239.673 99.31 238.973 99.98 238.133 100.64C237.293 101.3 236.283 101.9 235.103 102.44C233.943 102.96 232.613 103.38 231.113 103.7C229.613 104 227.933 104.15 226.073 104.15C223.053 104.15 220.373 103.58 218.033 102.44C215.693 101.28 213.863 99.57 212.543 97.31C211.243 95.03 210.593 92.2 210.593 88.82C210.593 85.44 211.273 82.5 212.633 80C213.993 77.48 215.893 75.53 218.333 74.15C220.773 72.75 223.623 72.05 226.883 72.05C231.003 72.05 234.243 73.2 236.603 75.5C238.983 77.78 240.223 80.94 240.323 84.98C240.343 85.72 240.333 86.39 240.293 86.99C240.253 87.59 240.173 88.23 240.053 88.91C239.753 88.89 239.113 88.87 238.133 88.85C237.153 88.83 236.043 88.81 234.803 88.79C233.583 88.75 232.423 88.72 231.323 88.7C230.243 88.68 229.443 88.67 228.923 88.67C227.183 88.67 225.493 88.75 223.853 88.91C222.233 89.07 220.873 89.24 219.773 89.42C219.773 89.78 219.793 90.14 219.833 90.5C219.893 90.84 219.973 91.17 220.073 91.49C220.333 92.31 220.783 93.01 221.423 93.59C222.083 94.17 222.863 94.62 223.763 94.94C224.683 95.24 225.653 95.39 226.673 95.39C227.593 95.39 228.433 95.28 229.193 95.06C229.973 94.82 230.683 94.51 231.323 94.13C231.963 93.75 232.543 93.34 233.063 92.9C233.603 92.44 234.103 91.99 234.563 91.55C234.683 91.65 234.993 91.95 235.493 92.45C235.993 92.93 236.553 93.53 237.173 94.25C237.793 94.95 238.383 95.69 238.943 96.47C239.503 97.25 239.933 97.97 240.233 98.63ZM220.103 83.81C221.003 83.67 222.113 83.54 223.433 83.42C224.753 83.3 226.283 83.24 228.023 83.24C228.963 83.24 229.793 83.25 230.513 83.27C231.253 83.29 231.773 83.31 232.073 83.33C232.073 82.91 232.013 82.45 231.893 81.95C231.733 81.27 231.413 80.62 230.933 80C230.473 79.38 229.873 78.88 229.133 78.5C228.413 78.12 227.543 77.93 226.523 77.93C225.243 77.93 224.123 78.21 223.163 78.77C222.223 79.33 221.493 80.06 220.973 80.96C220.453 81.86 220.163 82.81 220.103 83.81ZM259.95 104.51C257.49 104.51 255.24 104.18 253.2 103.52C251.16 102.84 249.53 101.75 248.31 100.25C247.11 98.73 246.51 96.72 246.51 94.22C246.51 91.72 247.21 89.71 248.61 88.19C250.03 86.65 251.89 85.54 254.19 84.86C256.51 84.16 259 83.81 261.66 83.81C262.7 83.81 263.7 83.89 264.66 84.05C265.62 84.21 266.46 84.4 267.18 84.62C267.92 84.84 268.45 85.05 268.77 85.25C268.75 84.73 268.64 84.18 268.44 83.6C268.26 83.02 268 82.53 267.66 82.13C267.06 81.31 266.24 80.63 265.2 80.09C264.18 79.53 262.83 79.25 261.15 79.25C259.45 79.25 257.95 79.64 256.65 80.42C255.35 81.18 254.36 82.04 253.68 83L246.36 78.29C247.26 77.01 248.47 75.89 249.99 74.93C251.53 73.97 253.27 73.22 255.21 72.68C257.17 72.14 259.22 71.87 261.36 71.87C264.9 71.87 267.77 72.45 269.97 73.61C272.17 74.77 273.8 76.39 274.86 78.47C275.36 79.47 275.77 80.57 276.09 81.77C276.41 82.97 276.63 84.35 276.75 85.91C276.83 87.25 276.89 88.5 276.93 89.66C276.97 90.82 277.01 91.92 277.05 92.96C277.09 94.48 277.26 95.47 277.56 95.93C277.86 96.39 278.29 96.62 278.85 96.62C279.37 96.62 279.83 96.48 280.23 96.2C280.65 95.9 280.92 95.51 281.04 95.03L284.16 101C283.94 101.92 283.32 102.69 282.3 103.31C281.28 103.93 279.99 104.24 278.43 104.24C277.29 104.24 276.21 104.05 275.19 103.67C274.17 103.27 273.33 102.74 272.67 102.08C272.01 101.4 271.62 100.63 271.5 99.77C271.18 100.53 270.51 101.28 269.49 102.02C268.47 102.74 267.16 103.34 265.56 103.82C263.96 104.28 262.09 104.51 259.95 104.51ZM261.96 97.46C262.9 97.46 263.86 97.32 264.84 97.04C265.84 96.74 266.74 96.37 267.54 95.93C268.36 95.49 268.99 95.04 269.43 94.58C269.39 93.96 269.35 93.32 269.31 92.66C269.29 92 269.29 91.44 269.31 90.98C268.87 90.8 268.03 90.61 266.79 90.41C265.57 90.19 264.29 90.08 262.95 90.08C261.73 90.08 260.59 90.21 259.53 90.47C258.47 90.73 257.6 91.13 256.92 91.67C256.26 92.21 255.93 92.91 255.93 93.77C255.93 94.69 256.18 95.42 256.68 95.96C257.18 96.5 257.88 96.89 258.78 97.13C259.68 97.35 260.74 97.46 261.96 97.46ZM309.567 103.91C309.527 103.63 309.497 103.23 309.477 102.71C309.457 102.19 309.437 101.66 309.417 101.12C309.417 100.56 309.417 100.11 309.417 99.77C309.177 100.11 308.797 100.52 308.277 101C307.777 101.46 307.127 101.92 306.327 102.38C305.527 102.84 304.557 103.23 303.417 103.55C302.277 103.85 300.947 104 299.427 104C296.907 104 294.737 103.39 292.917 102.17C291.097 100.95 289.697 99.29 288.717 97.19C287.737 95.07 287.247 92.69 287.247 90.05C287.247 87.45 287.737 85.03 288.717 82.79C289.717 80.53 291.207 78.71 293.187 77.33C295.167 75.93 297.657 75.23 300.657 75.23C302.157 75.23 303.517 75.4 304.737 75.74C305.977 76.08 307.027 76.51 307.887 77.03C308.747 77.53 309.357 78.04 309.717 78.56C309.777 77.46 309.857 76.2 309.957 74.78C310.057 73.34 310.167 71.87 310.287 70.37C310.427 68.85 310.557 67.41 310.677 66.05C310.797 64.69 310.897 63.53 310.977 62.57C311.077 61.59 311.147 60.94 311.187 60.62C312.347 60.62 313.647 60.69 315.087 60.83C316.547 60.95 317.837 61.16 318.957 61.46C318.617 66.04 318.347 70.62 318.147 75.2C317.947 79.76 317.807 84.43 317.727 89.21C317.667 93.97 317.637 98.96 317.637 104.18C317.177 104.18 316.417 104.17 315.357 104.15C314.317 104.13 313.247 104.1 312.147 104.06C311.047 104.02 310.187 103.97 309.567 103.91ZM301.917 95.27C302.797 95.27 303.607 95.17 304.347 94.97C305.087 94.77 305.767 94.5 306.387 94.16C307.007 93.8 307.547 93.42 308.007 93.02C308.487 92.6 308.887 92.18 309.207 91.76C309.207 91.36 309.207 90.87 309.207 90.29C309.207 89.69 309.207 89.09 309.207 88.49C309.227 87.89 309.237 87.32 309.237 86.78C309.257 86.24 309.277 85.82 309.297 85.52C308.857 85.1 308.247 84.69 307.467 84.29C306.687 83.89 305.827 83.57 304.887 83.33C303.967 83.07 303.027 82.94 302.067 82.94C300.107 82.94 298.577 83.53 297.477 84.71C296.397 85.87 295.857 87.38 295.857 89.24C295.857 91.2 296.377 92.7 297.417 93.74C298.477 94.76 299.977 95.27 301.917 95.27ZM343.717 90.8C342.357 90.8 341.137 90.78 340.057 90.74C338.977 90.7 337.937 90.65 336.937 90.59C335.957 90.53 334.897 90.44 333.757 90.32C333.757 87.64 334.287 85.24 335.347 83.12C336.427 81 337.957 79.06 339.937 77.3C341.037 76.32 341.907 75.38 342.547 74.48C343.207 73.56 343.537 72.64 343.537 71.72C343.537 70.6 343.157 69.73 342.397 69.11C341.657 68.49 340.647 68.18 339.367 68.18C338.367 68.18 337.467 68.33 336.667 68.63C335.867 68.93 335.147 69.37 334.507 69.95C333.887 70.51 333.337 71.19 332.857 71.99C332.397 72.77 331.987 73.66 331.627 74.66L324.037 70.34C324.557 68.08 325.567 66.17 327.067 64.61C328.587 63.05 330.427 61.87 332.587 61.07C334.767 60.25 337.067 59.84 339.487 59.84C342.107 59.84 344.457 60.24 346.537 61.04C348.637 61.82 350.297 63.01 351.517 64.61C352.737 66.19 353.347 68.18 353.347 70.58C353.347 72.36 353.117 73.87 352.657 75.11C352.197 76.33 351.587 77.38 350.827 78.26C350.087 79.14 349.287 79.96 348.427 80.72C347.647 81.42 346.897 82.26 346.177 83.24C345.477 84.22 344.897 85.34 344.437 86.6C343.997 87.84 343.757 89.24 343.717 90.8ZM339.397 104.3C337.737 104.3 336.287 103.83 335.047 102.89C333.827 101.93 333.217 100.59 333.217 98.87C333.217 97.93 333.497 97.05 334.057 96.23C334.617 95.39 335.357 94.72 336.277 94.22C337.197 93.7 338.167 93.44 339.187 93.44C341.007 93.44 342.517 93.91 343.717 94.85C344.937 95.77 345.547 96.99 345.547 98.51C345.547 99.59 345.257 100.57 344.677 101.45C344.117 102.33 343.367 103.03 342.427 103.55C341.507 104.05 340.497 104.3 339.397 104.3Z" fill="black"/>
</svg>
