<svg width="441" height="106" viewBox="0 0 441 106" fill="none" xmlns="http://www.w3.org/2000/svg">
<path d="M22.7444 44.45C22.4244 43.45 22.0744 42.34 21.6944 41.12C21.3344 39.9 20.9644 38.66 20.5844 37.4C20.2244 36.12 19.8844 34.88 19.5644 33.68C19.2644 32.48 18.9844 31.38 18.7244 30.38C18.4844 29.38 18.3144 28.55 18.2144 27.89L19.3544 27.74C19.2744 28.02 19.1044 28.53 18.8444 29.27C18.5844 29.99 18.2744 30.86 17.9144 31.88C17.5544 32.9 17.1544 33.99 16.7144 35.15C16.2944 36.29 15.8544 37.42 15.3944 38.54C14.9544 39.66 14.5344 40.7 14.1344 41.66C13.7544 42.6 13.4244 43.38 13.1444 44L2.52437 43.58C2.34437 41.98 2.15437 40.07 1.95437 37.85C1.77437 35.61 1.59437 33.15 1.41437 30.47C1.23437 27.77 1.07437 24.93 0.934372 21.95C0.794372 18.97 0.684372 15.91 0.604372 12.77C0.524372 9.63 0.484372 6.51 0.484372 3.41L10.9244 3.8C10.9244 5.5 10.9044 7.42 10.8644 9.56C10.8244 11.68 10.7744 13.87 10.7144 16.13C10.6744 18.37 10.6344 20.56 10.5944 22.7C10.5544 24.84 10.5144 26.79 10.4744 28.55C10.4544 30.31 10.4544 31.76 10.4744 32.9L9.93437 33.44C10.1544 32.84 10.4244 32.02 10.7444 30.98C11.0844 29.92 11.4544 28.75 11.8544 27.47C12.2544 26.17 12.6544 24.83 13.0544 23.45C13.4544 22.07 13.8244 20.72 14.1644 19.4C14.5044 18.08 14.7944 16.89 15.0344 15.83C15.2744 14.75 15.4144 13.88 15.4544 13.22L22.5344 13.07C22.5544 13.45 22.6344 14.19 22.7744 15.29C22.9344 16.37 23.1344 17.66 23.3744 19.16C23.6344 20.66 23.9144 22.24 24.2144 23.9C24.5144 25.54 24.8044 27.14 25.0844 28.7C25.3844 30.24 25.6644 31.61 25.9244 32.81C26.2044 33.99 26.4444 34.84 26.6444 35.36L25.3244 35.45C25.7044 33.37 26.0344 30.92 26.3144 28.1C26.6144 25.28 26.8644 22.35 27.0644 19.31C27.2644 16.27 27.4044 13.37 27.4844 10.61C27.5844 7.83 27.6344 5.47 27.6344 3.53L37.0844 2.57C37.0844 6.05 36.9444 9.59 36.6644 13.19C36.3844 16.79 36.0244 20.27 35.5844 23.63C35.1444 26.99 34.6944 30.06 34.2344 32.84C33.7744 35.62 33.3544 37.95 32.9744 39.83C32.5944 41.69 32.3344 42.93 32.1944 43.55L22.7444 44.45ZM53.0969 44.33C52.6369 44.41 51.9869 44.47 51.1469 44.51C50.3269 44.55 49.4769 44.57 48.5969 44.57C47.5569 44.57 46.5869 44.53 45.6869 44.45C44.7869 44.39 44.1269 44.28 43.7069 44.12C43.8669 42.92 44.0069 41.36 44.1269 39.44C44.2669 37.5 44.3769 35.33 44.4569 32.93C44.5569 30.53 44.6069 28.01 44.6069 25.37C44.6069 22.67 44.5569 19.92 44.4569 17.12C44.3769 14.32 44.2669 11.62 44.1269 9.02C43.9869 6.4 43.8569 4.01 43.7369 1.85C43.8769 1.79 44.3169 1.7 45.0569 1.58C45.7969 1.46 46.6569 1.34 47.6369 1.22C48.6169 1.08 49.5469 0.959997 50.4269 0.859998C51.3069 0.759998 51.9669 0.709998 52.4069 0.709998C52.7269 2.21 53.0069 4 53.2469 6.08C53.4869 8.16 53.6869 10.44 53.8469 12.92C54.0069 15.38 54.1169 17.96 54.1769 20.66C54.8569 19.9 55.7169 19.22 56.7569 18.62C57.7969 18 58.9269 17.52 60.1469 17.18C61.3869 16.82 62.6169 16.64 63.8369 16.64C66.2769 16.64 68.1469 17.11 69.4469 18.05C70.7469 18.97 71.6469 20.32 72.1469 22.1C72.6669 23.86 72.9269 26.01 72.9269 28.55C72.9269 30.15 72.8569 31.87 72.7169 33.71C72.5969 35.55 72.4369 37.36 72.2369 39.14C72.0369 40.92 71.8169 42.52 71.5769 43.94C70.8769 44.04 70.1569 44.12 69.4169 44.18C68.6769 44.24 67.9369 44.27 67.1969 44.27C66.3769 44.27 65.5669 44.23 64.7669 44.15C63.9869 44.09 63.2769 44 62.6369 43.88C62.7769 42.98 62.9269 41.92 63.0869 40.7C63.2469 39.48 63.3969 38.23 63.5369 36.95C63.6769 35.65 63.7869 34.42 63.8669 33.26C63.9669 32.08 64.0169 31.08 64.0169 30.26C64.0169 29.08 63.8969 28.08 63.6569 27.26C63.4369 26.44 63.0669 25.82 62.5469 25.4C62.0469 24.96 61.3669 24.74 60.5069 24.74C59.7669 24.74 59.0669 24.88 58.4069 25.16C57.7469 25.42 57.1369 25.76 56.5769 26.18C56.0369 26.58 55.5569 27 55.1369 27.44C54.7169 27.86 54.3869 28.23 54.1469 28.55C54.1469 30.61 54.0969 32.67 53.9969 34.73C53.8969 36.77 53.7669 38.63 53.6069 40.31C53.4469 41.99 53.2769 43.33 53.0969 44.33ZM92.7883 44.51C90.3283 44.51 88.0783 44.18 86.0383 43.52C83.9983 42.84 82.3683 41.75 81.1483 40.25C79.9483 38.73 79.3483 36.72 79.3483 34.22C79.3483 31.72 80.0483 29.71 81.4483 28.19C82.8683 26.65 84.7283 25.54 87.0283 24.86C89.3483 24.16 91.8383 23.81 94.4983 23.81C95.5383 23.81 96.5383 23.89 97.4983 24.05C98.4583 24.21 99.2983 24.4 100.018 24.62C100.758 24.84 101.288 25.05 101.608 25.25C101.588 24.73 101.478 24.18 101.278 23.6C101.098 23.02 100.838 22.53 100.498 22.13C99.8983 21.31 99.0783 20.63 98.0383 20.09C97.0183 19.53 95.6683 19.25 93.9883 19.25C92.2883 19.25 90.7883 19.64 89.4883 20.42C88.1883 21.18 87.1983 22.04 86.5183 23L79.1983 18.29C80.0983 17.01 81.3083 15.89 82.8283 14.93C84.3683 13.97 86.1083 13.22 88.0483 12.68C90.0083 12.14 92.0583 11.87 94.1983 11.87C97.7383 11.87 100.608 12.45 102.808 13.61C105.008 14.77 106.638 16.39 107.698 18.47C108.198 19.47 108.608 20.57 108.928 21.77C109.248 22.97 109.468 24.35 109.588 25.91C109.668 27.25 109.728 28.5 109.768 29.66C109.808 30.82 109.848 31.92 109.888 32.96C109.928 34.48 110.098 35.47 110.398 35.93C110.698 36.39 111.128 36.62 111.688 36.62C112.208 36.62 112.668 36.48 113.068 36.2C113.488 35.9 113.758 35.51 113.878 35.03L116.998 41C116.778 41.92 116.158 42.69 115.138 43.31C114.118 43.93 112.828 44.24 111.268 44.24C110.128 44.24 109.048 44.05 108.028 43.67C107.008 43.27 106.168 42.74 105.508 42.08C104.848 41.4 104.458 40.63 104.338 39.77C104.018 40.53 103.348 41.28 102.328 42.02C101.308 42.74 99.9983 43.34 98.3983 43.82C96.7983 44.28 94.9283 44.51 92.7883 44.51ZM94.7983 37.46C95.7383 37.46 96.6983 37.32 97.6783 37.04C98.6783 36.74 99.5783 36.37 100.378 35.93C101.198 35.49 101.828 35.04 102.268 34.58C102.228 33.96 102.188 33.32 102.148 32.66C102.128 32 102.128 31.44 102.148 30.98C101.708 30.8 100.868 30.61 99.6283 30.41C98.4083 30.19 97.1283 30.08 95.7883 30.08C94.5683 30.08 93.4283 30.21 92.3683 30.47C91.3083 30.73 90.4383 31.13 89.7583 31.67C89.0983 32.21 88.7683 32.91 88.7683 33.77C88.7683 34.69 89.0183 35.42 89.5183 35.96C90.0183 36.5 90.7183 36.89 91.6183 37.13C92.5183 37.35 93.5783 37.46 94.7983 37.46ZM142.054 40.07C141.674 40.81 141.074 41.6 140.254 42.44C139.454 43.26 138.404 43.96 137.104 44.54C135.824 45.14 134.264 45.44 132.424 45.44C130.004 45.44 128.024 44.93 126.484 43.91C124.964 42.89 123.834 41.53 123.094 39.83C122.374 38.13 122.014 36.27 122.014 34.25C122.014 33.15 122.024 31.98 122.044 30.74C122.084 29.48 122.124 28.24 122.164 27.02C122.204 25.78 122.244 24.61 122.284 23.51C122.344 22.39 122.394 21.41 122.434 20.57C122.494 19.73 122.534 19.08 122.554 18.62C120.974 18.78 119.514 18.96 118.174 19.16C116.834 19.34 115.904 19.49 115.384 19.61C115.184 18.49 115.034 17.35 114.934 16.19C114.834 15.03 114.754 14.02 114.694 13.16C114.654 12.3 114.634 11.77 114.634 11.57C115.794 11.41 117.034 11.27 118.354 11.15C119.674 11.01 121.064 10.91 122.524 10.85C122.504 10.37 122.484 9.62 122.464 8.6C122.444 7.58 122.414 6.66 122.374 5.84C122.354 5.1 122.314 4.36 122.254 3.62C122.194 2.86 122.144 2.25 122.104 1.79L130.984 1.01C130.984 1.25 130.984 1.81 130.984 2.69C131.004 3.57 131.014 4.63 131.014 5.87C131.014 6.49 131.024 7.21 131.044 8.03C131.064 8.83 131.084 9.62 131.104 10.4C131.764 10.36 132.534 10.32 133.414 10.28C134.294 10.24 134.994 10.21 135.514 10.19C136.354 10.15 137.114 10.13 137.794 10.13C138.474 10.11 139.034 10.1 139.474 10.1C139.934 10.1 140.244 10.11 140.404 10.13C140.524 11.07 140.604 12.27 140.644 13.73C140.684 15.17 140.704 16.45 140.704 17.57C140.504 17.55 139.854 17.56 138.754 17.6C137.654 17.62 136.574 17.66 135.514 17.72C134.774 17.74 133.954 17.78 133.054 17.84C132.154 17.9 131.444 17.96 130.924 18.02C130.904 18.44 130.874 19.02 130.834 19.76C130.814 20.48 130.784 21.3 130.744 22.22C130.724 23.12 130.694 24.06 130.654 25.04C130.634 26 130.614 26.93 130.594 27.83C130.574 28.73 130.564 29.53 130.564 30.23C130.564 31.55 130.624 32.74 130.744 33.8C130.884 34.84 131.174 35.67 131.614 36.29C132.074 36.89 132.774 37.19 133.714 37.19C134.334 37.19 134.864 37.01 135.304 36.65C135.744 36.29 136.104 35.87 136.384 35.39C136.684 34.89 136.944 34.45 137.164 34.07C137.424 34.43 137.784 34.91 138.244 35.51C138.724 36.09 139.224 36.7 139.744 37.34C140.284 37.98 140.764 38.55 141.184 39.05C141.624 39.55 141.914 39.89 142.054 40.07ZM152.85 16.43C152.27 16.07 151.64 15.56 150.96 14.9C150.28 14.24 149.75 13.58 149.37 12.92C149.71 12.72 150.17 12.4 150.75 11.96C151.35 11.52 151.91 11.05 152.43 10.55C152.95 10.05 153.24 9.61 153.3 9.23C153.18 9.35 152.97 9.46 152.67 9.56C152.39 9.66 152.05 9.71 151.65 9.71C150.35 9.71 149.36 9.32 148.68 8.54C148 7.74 147.66 6.81 147.66 5.75C147.66 4.15 148.21 2.89 149.31 1.97C150.43 1.03 151.77 0.559998 153.33 0.559998C155.11 0.559998 156.58 1.08 157.74 2.12C158.9 3.16 159.48 4.51 159.48 6.17C159.48 7.79 159.17 9.27 158.55 10.61C157.93 11.95 157.11 13.11 156.09 14.09C155.09 15.07 154.01 15.85 152.85 16.43ZM175.123 46.37C172.783 46.37 170.633 46.08 168.673 45.5C166.733 44.94 165.083 44.28 163.723 43.52C162.383 42.74 161.413 42.04 160.813 41.42C160.933 41.04 161.163 40.49 161.503 39.77C161.863 39.03 162.283 38.23 162.763 37.37C163.243 36.51 163.723 35.71 164.203 34.97C164.683 34.23 165.113 33.68 165.493 33.32C166.453 34.14 167.493 34.95 168.613 35.75C169.733 36.53 170.883 37.17 172.063 37.67C173.243 38.17 174.343 38.42 175.363 38.42C176.163 38.42 176.883 38.32 177.523 38.12C178.163 37.9 178.663 37.58 179.023 37.16C179.403 36.74 179.593 36.22 179.593 35.6C179.593 34.88 179.243 34.19 178.543 33.53C177.863 32.85 176.983 32.21 175.903 31.61C174.823 31.01 173.693 30.47 172.513 29.99C170.893 29.33 169.383 28.56 167.983 27.68C166.583 26.78 165.453 25.68 164.593 24.38C163.733 23.06 163.303 21.42 163.303 19.46C163.303 17.46 163.893 15.78 165.073 14.42C166.253 13.06 167.793 12.03 169.693 11.33C171.613 10.63 173.663 10.28 175.843 10.28C177.903 10.28 179.993 10.57 182.113 11.15C184.233 11.71 185.963 12.52 187.303 13.58C187.183 13.96 186.923 14.54 186.523 15.32C186.143 16.1 185.673 16.94 185.113 17.84C184.573 18.72 183.993 19.53 183.373 20.27C182.553 19.57 181.523 18.9 180.283 18.26C179.043 17.62 177.743 17.3 176.383 17.3C175.703 17.3 175.023 17.37 174.343 17.51C173.683 17.65 173.133 17.9 172.693 18.26C172.273 18.62 172.063 19.11 172.063 19.73C172.063 20.33 172.293 20.87 172.753 21.35C173.213 21.81 173.883 22.26 174.763 22.7C175.663 23.14 176.713 23.6 177.913 24.08C179.113 24.56 180.333 25.13 181.573 25.79C182.813 26.43 183.953 27.2 184.993 28.1C186.053 29 186.903 30.05 187.543 31.25C188.183 32.43 188.503 33.79 188.503 35.33C188.503 37.79 187.893 39.84 186.673 41.48C185.453 43.12 183.823 44.34 181.783 45.14C179.763 45.96 177.543 46.37 175.123 46.37ZM231.297 44.66C225.997 44.66 222.007 43.26 219.327 40.46C216.647 37.64 215.307 33.55 215.307 28.19C215.307 24.61 215.997 21.64 217.377 19.28C218.757 16.9 220.667 15.11 223.107 13.91C225.567 12.71 228.407 12.11 231.627 12.11C234.907 12.11 237.627 12.86 239.787 14.36C241.967 15.86 243.597 17.93 244.677 20.57C245.757 23.21 246.297 26.26 246.297 29.72C246.297 32.74 245.717 35.37 244.557 37.61C243.397 39.85 241.697 41.59 239.457 42.83C237.237 44.05 234.517 44.66 231.297 44.66ZM230.967 36.05C232.067 36.05 233.037 35.86 233.877 35.48C234.737 35.1 235.457 34.56 236.037 33.86C236.637 33.14 237.087 32.3 237.387 31.34C237.687 30.38 237.837 29.33 237.837 28.19C237.837 26.41 237.577 24.84 237.057 23.48C236.557 22.1 235.807 21.03 234.807 20.27C233.827 19.49 232.607 19.1 231.147 19.1C229.567 19.1 228.277 19.5 227.277 20.3C226.277 21.1 225.537 22.15 225.057 23.45C224.597 24.73 224.367 26.1 224.367 27.56C224.367 30.02 224.927 32.05 226.047 33.65C227.187 35.25 228.827 36.05 230.967 36.05ZM272.873 14.66C273.373 14.48 274.083 14.35 275.003 14.27C275.943 14.17 276.853 14.12 277.733 14.12C278.473 14.12 279.293 14.15 280.193 14.21C281.093 14.27 281.823 14.34 282.383 14.42C282.643 16.04 282.843 17.68 282.983 19.34C283.123 20.98 283.193 22.6 283.193 24.2C283.193 27.14 282.933 29.91 282.413 32.51C281.913 35.11 281.083 37.4 279.923 39.38C278.763 41.36 277.213 42.91 275.273 44.03C273.333 45.17 270.943 45.74 268.103 45.74C265.083 45.74 262.593 45.15 260.633 43.97C258.673 42.77 257.143 41.11 256.043 38.99C254.943 36.85 254.173 34.36 253.733 31.52C253.313 28.66 253.103 25.58 253.103 22.28C253.103 20.82 253.133 19.34 253.193 17.84C253.273 16.32 253.373 14.81 253.493 13.31C254.013 13.27 254.693 13.24 255.533 13.22C256.393 13.18 257.173 13.17 257.873 13.19C258.873 13.19 259.873 13.25 260.873 13.37C261.893 13.47 262.693 13.61 263.273 13.79C263.133 15.15 263.013 16.62 262.913 18.2C262.813 19.76 262.763 21.33 262.763 22.91C262.763 25.55 262.933 27.93 263.273 30.05C263.633 32.17 264.223 33.85 265.043 35.09C265.863 36.33 266.973 36.95 268.373 36.95C269.693 36.95 270.743 36.39 271.523 35.27C272.323 34.15 272.893 32.65 273.233 30.77C273.593 28.87 273.773 26.75 273.773 24.41C273.773 22.65 273.683 20.92 273.503 19.22C273.343 17.5 273.133 15.98 272.873 14.66ZM314.95 40.07C314.57 40.81 313.97 41.6 313.15 42.44C312.35 43.26 311.3 43.96 310 44.54C308.72 45.14 307.16 45.44 305.32 45.44C302.9 45.44 300.92 44.93 299.38 43.91C297.86 42.89 296.73 41.53 295.99 39.83C295.27 38.13 294.91 36.27 294.91 34.25C294.91 33.15 294.92 31.98 294.94 30.74C294.98 29.48 295.02 28.24 295.06 27.02C295.1 25.78 295.14 24.61 295.18 23.51C295.24 22.39 295.29 21.41 295.33 20.57C295.39 19.73 295.43 19.08 295.45 18.62C293.87 18.78 292.41 18.96 291.07 19.16C289.73 19.34 288.8 19.49 288.28 19.61C288.08 18.49 287.93 17.35 287.83 16.19C287.73 15.03 287.65 14.02 287.59 13.16C287.55 12.3 287.53 11.77 287.53 11.57C288.69 11.41 289.93 11.27 291.25 11.15C292.57 11.01 293.96 10.91 295.42 10.85C295.4 10.37 295.38 9.62 295.36 8.6C295.34 7.58 295.31 6.66 295.27 5.84C295.25 5.1 295.21 4.36 295.15 3.62C295.09 2.86 295.04 2.25 295 1.79L303.88 1.01C303.88 1.25 303.88 1.81 303.88 2.69C303.9 3.57 303.91 4.63 303.91 5.87C303.91 6.49 303.92 7.21 303.94 8.03C303.96 8.83 303.98 9.62 304 10.4C304.66 10.36 305.43 10.32 306.31 10.28C307.19 10.24 307.89 10.21 308.41 10.19C309.25 10.15 310.01 10.13 310.69 10.13C311.37 10.11 311.93 10.1 312.37 10.1C312.83 10.1 313.14 10.11 313.3 10.13C313.42 11.07 313.5 12.27 313.54 13.73C313.58 15.17 313.6 16.45 313.6 17.57C313.4 17.55 312.75 17.56 311.65 17.6C310.55 17.62 309.47 17.66 308.41 17.72C307.67 17.74 306.85 17.78 305.95 17.84C305.05 17.9 304.34 17.96 303.82 18.02C303.8 18.44 303.77 19.02 303.73 19.76C303.71 20.48 303.68 21.3 303.64 22.22C303.62 23.12 303.59 24.06 303.55 25.04C303.53 26 303.51 26.93 303.49 27.83C303.47 28.73 303.46 29.53 303.46 30.23C303.46 31.55 303.52 32.74 303.64 33.8C303.78 34.84 304.07 35.67 304.51 36.29C304.97 36.89 305.67 37.19 306.61 37.19C307.23 37.19 307.76 37.01 308.2 36.65C308.64 36.29 309 35.87 309.28 35.39C309.58 34.89 309.84 34.45 310.06 34.07C310.32 34.43 310.68 34.91 311.14 35.51C311.62 36.09 312.12 36.7 312.64 37.34C313.18 37.98 313.66 38.55 314.08 39.05C314.52 39.55 314.81 39.89 314.95 40.07ZM331.498 46.37C329.158 46.37 327.008 46.08 325.048 45.5C323.108 44.94 321.458 44.28 320.098 43.52C318.758 42.74 317.788 42.04 317.188 41.42C317.308 41.04 317.538 40.49 317.878 39.77C318.238 39.03 318.658 38.23 319.138 37.37C319.618 36.51 320.098 35.71 320.578 34.97C321.058 34.23 321.488 33.68 321.868 33.32C322.828 34.14 323.868 34.95 324.988 35.75C326.108 36.53 327.258 37.17 328.438 37.67C329.618 38.17 330.718 38.42 331.738 38.42C332.538 38.42 333.258 38.32 333.898 38.12C334.538 37.9 335.038 37.58 335.398 37.16C335.778 36.74 335.968 36.22 335.968 35.6C335.968 34.88 335.618 34.19 334.918 33.53C334.238 32.85 333.358 32.21 332.278 31.61C331.198 31.01 330.068 30.47 328.888 29.99C327.268 29.33 325.758 28.56 324.358 27.68C322.958 26.78 321.828 25.68 320.968 24.38C320.108 23.06 319.678 21.42 319.678 19.46C319.678 17.46 320.268 15.78 321.448 14.42C322.628 13.06 324.168 12.03 326.068 11.33C327.988 10.63 330.038 10.28 332.218 10.28C334.278 10.28 336.368 10.57 338.488 11.15C340.608 11.71 342.338 12.52 343.678 13.58C343.558 13.96 343.298 14.54 342.898 15.32C342.518 16.1 342.048 16.94 341.488 17.84C340.948 18.72 340.368 19.53 339.748 20.27C338.928 19.57 337.898 18.9 336.658 18.26C335.418 17.62 334.118 17.3 332.758 17.3C332.078 17.3 331.398 17.37 330.718 17.51C330.058 17.65 329.508 17.9 329.068 18.26C328.648 18.62 328.438 19.11 328.438 19.73C328.438 20.33 328.668 20.87 329.128 21.35C329.588 21.81 330.258 22.26 331.138 22.7C332.038 23.14 333.088 23.6 334.288 24.08C335.488 24.56 336.708 25.13 337.948 25.79C339.188 26.43 340.328 27.2 341.368 28.1C342.428 29 343.278 30.05 343.918 31.25C344.558 32.43 344.878 33.79 344.878 35.33C344.878 37.79 344.268 39.84 343.048 41.48C341.828 43.12 340.198 44.34 338.158 45.14C336.138 45.96 333.918 46.37 331.498 46.37ZM361.685 43.94C361.345 43.96 360.695 44 359.735 44.06C358.795 44.14 357.795 44.18 356.735 44.18C355.955 44.18 355.165 44.15 354.365 44.09C353.585 44.05 352.815 43.99 352.055 43.91C352.155 43.39 352.265 42.33 352.385 40.73C352.525 39.11 352.655 37.21 352.775 35.03C352.915 32.85 353.045 30.6 353.165 28.28C353.305 25.94 353.405 23.75 353.465 21.71C353.545 19.67 353.585 18.03 353.585 16.79C353.985 16.77 354.575 16.74 355.355 16.7C356.135 16.66 356.975 16.63 357.875 16.61C358.775 16.57 359.635 16.54 360.455 16.52C361.275 16.48 361.925 16.46 362.405 16.46C362.505 17.08 362.585 18.08 362.645 19.46C362.705 20.84 362.735 22.38 362.735 24.08C362.735 25.9 362.705 27.83 362.645 29.87C362.605 31.91 362.535 33.89 362.435 35.81C362.355 37.71 362.245 39.39 362.105 40.85C361.965 42.29 361.825 43.32 361.685 43.94ZM358.325 12.59C356.525 12.59 355.015 12.07 353.795 11.03C352.575 9.97 351.965 8.58 351.965 6.86C351.965 5.68 352.255 4.67 352.835 3.83C353.415 2.99 354.165 2.35 355.085 1.91C356.025 1.45 357.015 1.22 358.055 1.22C359.715 1.22 361.085 1.76 362.165 2.84C363.265 3.92 363.815 5.31 363.815 7.01C363.815 8.59 363.295 9.92 362.255 11C361.215 12.06 359.905 12.59 358.325 12.59ZM393.869 43.91C393.829 43.63 393.799 43.23 393.779 42.71C393.759 42.19 393.739 41.66 393.719 41.12C393.719 40.56 393.719 40.11 393.719 39.77C393.479 40.11 393.099 40.52 392.579 41C392.079 41.46 391.429 41.92 390.629 42.38C389.829 42.84 388.859 43.23 387.719 43.55C386.579 43.85 385.249 44 383.729 44C381.209 44 379.039 43.39 377.219 42.17C375.399 40.95 373.999 39.29 373.019 37.19C372.039 35.07 371.549 32.69 371.549 30.05C371.549 27.45 372.039 25.03 373.019 22.79C374.019 20.53 375.509 18.71 377.489 17.33C379.469 15.93 381.959 15.23 384.959 15.23C386.459 15.23 387.819 15.4 389.039 15.74C390.279 16.08 391.329 16.51 392.189 17.03C393.049 17.53 393.659 18.04 394.019 18.56C394.079 17.46 394.159 16.2 394.259 14.78C394.359 13.34 394.469 11.87 394.589 10.37C394.729 8.85 394.859 7.41 394.979 6.05C395.099 4.69 395.199 3.53 395.279 2.57C395.379 1.59 395.449 0.939998 395.489 0.619997C396.649 0.619997 397.949 0.689998 399.389 0.83C400.849 0.949998 402.139 1.16 403.259 1.46C402.919 6.04 402.649 10.62 402.449 15.2C402.249 19.76 402.109 24.43 402.029 29.21C401.969 33.97 401.939 38.96 401.939 44.18C401.479 44.18 400.719 44.17 399.659 44.15C398.619 44.13 397.549 44.1 396.449 44.06C395.349 44.02 394.489 43.97 393.869 43.91ZM386.219 35.27C387.099 35.27 387.909 35.17 388.649 34.97C389.389 34.77 390.069 34.5 390.689 34.16C391.309 33.8 391.849 33.42 392.309 33.02C392.789 32.6 393.189 32.18 393.509 31.76C393.509 31.36 393.509 30.87 393.509 30.29C393.509 29.69 393.509 29.09 393.509 28.49C393.529 27.89 393.539 27.32 393.539 26.78C393.559 26.24 393.579 25.82 393.599 25.52C393.159 25.1 392.549 24.69 391.769 24.29C390.989 23.89 390.129 23.57 389.189 23.33C388.269 23.07 387.329 22.94 386.369 22.94C384.409 22.94 382.879 23.53 381.779 24.71C380.699 25.87 380.159 27.38 380.159 29.24C380.159 31.2 380.679 32.7 381.719 33.74C382.779 34.76 384.279 35.27 386.219 35.27ZM439.899 38.63C439.339 39.31 438.639 39.98 437.799 40.64C436.959 41.3 435.949 41.9 434.769 42.44C433.609 42.96 432.279 43.38 430.779 43.7C429.279 44 427.599 44.15 425.739 44.15C422.719 44.15 420.039 43.58 417.699 42.44C415.359 41.28 413.529 39.57 412.209 37.31C410.909 35.03 410.259 32.2 410.259 28.82C410.259 25.44 410.939 22.5 412.299 20C413.659 17.48 415.559 15.53 417.999 14.15C420.439 12.75 423.289 12.05 426.549 12.05C430.669 12.05 433.909 13.2 436.269 15.5C438.649 17.78 439.889 20.94 439.989 24.98C440.009 25.72 439.999 26.39 439.959 26.99C439.919 27.59 439.839 28.23 439.719 28.91C439.419 28.89 438.779 28.87 437.799 28.85C436.819 28.83 435.709 28.81 434.469 28.79C433.249 28.75 432.089 28.72 430.989 28.7C429.909 28.68 429.109 28.67 428.589 28.67C426.849 28.67 425.159 28.75 423.519 28.91C421.899 29.07 420.539 29.24 419.439 29.42C419.439 29.78 419.459 30.14 419.499 30.5C419.559 30.84 419.639 31.17 419.739 31.49C419.999 32.31 420.449 33.01 421.089 33.59C421.749 34.17 422.529 34.62 423.429 34.94C424.349 35.24 425.319 35.39 426.339 35.39C427.259 35.39 428.099 35.28 428.859 35.06C429.639 34.82 430.349 34.51 430.989 34.13C431.629 33.75 432.209 33.34 432.729 32.9C433.269 32.44 433.769 31.99 434.229 31.55C434.349 31.65 434.659 31.95 435.159 32.45C435.659 32.93 436.219 33.53 436.839 34.25C437.459 34.95 438.049 35.69 438.609 36.47C439.169 37.25 439.599 37.97 439.899 38.63ZM419.769 23.81C420.669 23.67 421.779 23.54 423.099 23.42C424.419 23.3 425.949 23.24 427.689 23.24C428.629 23.24 429.459 23.25 430.179 23.27C430.919 23.29 431.439 23.31 431.739 23.33C431.739 22.91 431.679 22.45 431.559 21.95C431.399 21.27 431.079 20.62 430.599 20C430.139 19.38 429.539 18.88 428.799 18.5C428.079 18.12 427.209 17.93 426.189 17.93C424.909 17.93 423.789 18.21 422.829 18.77C421.889 19.33 421.159 20.06 420.639 20.96C420.119 21.86 419.829 22.81 419.769 23.81ZM85.7887 104.66C80.4887 104.66 76.4987 103.26 73.8187 100.46C71.1387 97.64 69.7987 93.55 69.7987 88.19C69.7987 84.61 70.4887 81.64 71.8687 79.28C73.2487 76.9 75.1587 75.11 77.5987 73.91C80.0587 72.71 82.8987 72.11 86.1187 72.11C89.3987 72.11 92.1187 72.86 94.2787 74.36C96.4587 75.86 98.0887 77.93 99.1687 80.57C100.249 83.21 100.789 86.26 100.789 89.72C100.789 92.74 100.209 95.37 99.0487 97.61C97.8887 99.85 96.1887 101.59 93.9487 102.83C91.7287 104.05 89.0087 104.66 85.7887 104.66ZM85.4587 96.05C86.5587 96.05 87.5287 95.86 88.3687 95.48C89.2287 95.1 89.9487 94.56 90.5287 93.86C91.1287 93.14 91.5787 92.3 91.8787 91.34C92.1787 90.38 92.3287 89.33 92.3287 88.19C92.3287 86.41 92.0687 84.84 91.5487 83.48C91.0487 82.1 90.2987 81.03 89.2987 80.27C88.3187 79.49 87.0987 79.1 85.6387 79.1C84.0587 79.1 82.7687 79.5 81.7687 80.3C80.7687 81.1 80.0287 82.15 79.5487 83.45C79.0887 84.73 78.8587 86.1 78.8587 87.56C78.8587 90.02 79.4187 92.05 80.5387 93.65C81.6787 95.25 83.3187 96.05 85.4587 96.05ZM127.365 74.66C127.865 74.48 128.575 74.35 129.495 74.27C130.435 74.17 131.345 74.12 132.225 74.12C132.965 74.12 133.785 74.15 134.685 74.21C135.585 74.27 136.315 74.34 136.875 74.42C137.135 76.04 137.335 77.68 137.475 79.34C137.615 80.98 137.685 82.6 137.685 84.2C137.685 87.14 137.425 89.91 136.905 92.51C136.405 95.11 135.575 97.4 134.415 99.38C133.255 101.36 131.705 102.91 129.765 104.03C127.825 105.17 125.435 105.74 122.595 105.74C119.575 105.74 117.085 105.15 115.125 103.97C113.165 102.77 111.635 101.11 110.535 98.99C109.435 96.85 108.665 94.36 108.225 91.52C107.805 88.66 107.595 85.58 107.595 82.28C107.595 80.82 107.625 79.34 107.685 77.84C107.765 76.32 107.865 74.81 107.985 73.31C108.505 73.27 109.185 73.24 110.025 73.22C110.885 73.18 111.665 73.17 112.365 73.19C113.365 73.19 114.365 73.25 115.365 73.37C116.385 73.47 117.185 73.61 117.765 73.79C117.625 75.15 117.505 76.62 117.405 78.2C117.305 79.76 117.255 81.33 117.255 82.91C117.255 85.55 117.425 87.93 117.765 90.05C118.125 92.17 118.715 93.85 119.535 95.09C120.355 96.33 121.465 96.95 122.865 96.95C124.185 96.95 125.235 96.39 126.015 95.27C126.815 94.15 127.385 92.65 127.725 90.77C128.085 88.87 128.265 86.75 128.265 84.41C128.265 82.65 128.175 80.92 127.995 79.22C127.835 77.5 127.625 75.98 127.365 74.66ZM153.847 77.12C154.307 76.22 155.007 75.36 155.947 74.54C156.907 73.72 158.037 73.05 159.337 72.53C160.657 72.01 162.057 71.75 163.537 71.75C164.437 71.75 165.347 71.84 166.267 72.02C167.187 72.2 167.857 72.44 168.277 72.74L166.417 82.28C165.977 82.1 165.407 81.9 164.707 81.68C164.007 81.46 163.207 81.35 162.307 81.35C161.387 81.35 160.487 81.51 159.607 81.83C158.747 82.13 157.947 82.56 157.207 83.12C156.467 83.68 155.817 84.35 155.257 85.13C155.457 86.29 155.677 87.77 155.917 89.57C156.177 91.37 156.417 93.22 156.637 95.12C156.857 97.02 157.037 98.75 157.177 100.31C157.317 101.87 157.387 103.01 157.387 103.73C155.987 103.91 154.367 104.03 152.527 104.09C150.687 104.15 148.917 104.17 147.217 104.15C147.217 102.47 147.167 100.56 147.067 98.42C146.987 96.28 146.867 94.05 146.707 91.73C146.547 89.39 146.347 87.09 146.107 84.83C145.887 82.55 145.627 80.44 145.327 78.5C145.047 76.56 144.747 74.91 144.427 73.55C145.387 73.27 146.447 73.01 147.607 72.77C148.767 72.53 149.817 72.34 150.757 72.2C151.697 72.04 152.297 71.95 152.557 71.93C152.797 72.49 153.067 73.32 153.367 74.42C153.667 75.5 153.827 76.4 153.847 77.12ZM203.639 104.33C203.179 104.41 202.529 104.47 201.689 104.51C200.869 104.55 200.019 104.57 199.139 104.57C198.099 104.57 197.129 104.53 196.229 104.45C195.329 104.39 194.669 104.28 194.249 104.12C194.409 102.92 194.549 101.36 194.669 99.44C194.809 97.5 194.919 95.33 194.999 92.93C195.099 90.53 195.149 88.01 195.149 85.37C195.149 82.67 195.099 79.92 194.999 77.12C194.919 74.32 194.809 71.62 194.669 69.02C194.529 66.4 194.399 64.01 194.279 61.85C194.419 61.79 194.859 61.7 195.599 61.58C196.339 61.46 197.199 61.34 198.179 61.22C199.159 61.08 200.089 60.96 200.969 60.86C201.849 60.76 202.509 60.71 202.949 60.71C203.269 62.21 203.549 64 203.789 66.08C204.029 68.16 204.229 70.44 204.389 72.92C204.549 75.38 204.659 77.96 204.719 80.66C205.399 79.9 206.259 79.22 207.299 78.62C208.339 78 209.469 77.52 210.689 77.18C211.929 76.82 213.159 76.64 214.379 76.64C216.819 76.64 218.689 77.11 219.989 78.05C221.289 78.97 222.189 80.32 222.689 82.1C223.209 83.86 223.469 86.01 223.469 88.55C223.469 90.15 223.399 91.87 223.259 93.71C223.139 95.55 222.979 97.36 222.779 99.14C222.579 100.92 222.359 102.52 222.119 103.94C221.419 104.04 220.699 104.12 219.959 104.18C219.219 104.24 218.479 104.27 217.739 104.27C216.919 104.27 216.109 104.23 215.309 104.15C214.529 104.09 213.819 104 213.179 103.88C213.319 102.98 213.469 101.92 213.629 100.7C213.789 99.48 213.939 98.23 214.079 96.95C214.219 95.65 214.329 94.42 214.409 93.26C214.509 92.08 214.559 91.08 214.559 90.26C214.559 89.08 214.439 88.08 214.199 87.26C213.979 86.44 213.609 85.82 213.089 85.4C212.589 84.96 211.909 84.74 211.049 84.74C210.309 84.74 209.609 84.88 208.949 85.16C208.289 85.42 207.679 85.76 207.119 86.18C206.579 86.58 206.099 87 205.679 87.44C205.259 87.86 204.929 88.23 204.689 88.55C204.689 90.61 204.639 92.67 204.539 94.73C204.439 96.77 204.309 98.63 204.149 100.31C203.989 101.99 203.819 103.33 203.639 104.33ZM260.233 98.63C259.673 99.31 258.973 99.98 258.133 100.64C257.293 101.3 256.283 101.9 255.103 102.44C253.943 102.96 252.613 103.38 251.113 103.7C249.613 104 247.933 104.15 246.073 104.15C243.053 104.15 240.373 103.58 238.033 102.44C235.693 101.28 233.863 99.57 232.543 97.31C231.243 95.03 230.593 92.2 230.593 88.82C230.593 85.44 231.273 82.5 232.633 80C233.993 77.48 235.893 75.53 238.333 74.15C240.773 72.75 243.623 72.05 246.883 72.05C251.003 72.05 254.243 73.2 256.603 75.5C258.983 77.78 260.223 80.94 260.323 84.98C260.343 85.72 260.333 86.39 260.293 86.99C260.253 87.59 260.173 88.23 260.053 88.91C259.753 88.89 259.113 88.87 258.133 88.85C257.153 88.83 256.043 88.81 254.803 88.79C253.583 88.75 252.423 88.72 251.323 88.7C250.243 88.68 249.443 88.67 248.923 88.67C247.183 88.67 245.493 88.75 243.853 88.91C242.233 89.07 240.873 89.24 239.773 89.42C239.773 89.78 239.793 90.14 239.833 90.5C239.893 90.84 239.973 91.17 240.073 91.49C240.333 92.31 240.783 93.01 241.423 93.59C242.083 94.17 242.863 94.62 243.763 94.94C244.683 95.24 245.653 95.39 246.673 95.39C247.593 95.39 248.433 95.28 249.193 95.06C249.973 94.82 250.683 94.51 251.323 94.13C251.963 93.75 252.543 93.34 253.063 92.9C253.603 92.44 254.103 91.99 254.563 91.55C254.683 91.65 254.993 91.95 255.493 92.45C255.993 92.93 256.553 93.53 257.173 94.25C257.793 94.95 258.383 95.69 258.943 96.47C259.503 97.25 259.933 97.97 260.233 98.63ZM240.103 83.81C241.003 83.67 242.113 83.54 243.433 83.42C244.753 83.3 246.283 83.24 248.023 83.24C248.963 83.24 249.793 83.25 250.513 83.27C251.253 83.29 251.773 83.31 252.073 83.33C252.073 82.91 252.013 82.45 251.893 81.95C251.733 81.27 251.413 80.62 250.933 80C250.473 79.38 249.873 78.88 249.133 78.5C248.413 78.12 247.543 77.93 246.523 77.93C245.243 77.93 244.123 78.21 243.163 78.77C242.223 79.33 241.493 80.06 240.973 80.96C240.453 81.86 240.163 82.81 240.103 83.81ZM279.95 104.51C277.49 104.51 275.24 104.18 273.2 103.52C271.16 102.84 269.53 101.75 268.31 100.25C267.11 98.73 266.51 96.72 266.51 94.22C266.51 91.72 267.21 89.71 268.61 88.19C270.03 86.65 271.89 85.54 274.19 84.86C276.51 84.16 279 83.81 281.66 83.81C282.7 83.81 283.7 83.89 284.66 84.05C285.62 84.21 286.46 84.4 287.18 84.62C287.92 84.84 288.45 85.05 288.77 85.25C288.75 84.73 288.64 84.18 288.44 83.6C288.26 83.02 288 82.53 287.66 82.13C287.06 81.31 286.24 80.63 285.2 80.09C284.18 79.53 282.83 79.25 281.15 79.25C279.45 79.25 277.95 79.64 276.65 80.42C275.35 81.18 274.36 82.04 273.68 83L266.36 78.29C267.26 77.01 268.47 75.89 269.99 74.93C271.53 73.97 273.27 73.22 275.21 72.68C277.17 72.14 279.22 71.87 281.36 71.87C284.9 71.87 287.77 72.45 289.97 73.61C292.17 74.77 293.8 76.39 294.86 78.47C295.36 79.47 295.77 80.57 296.09 81.77C296.41 82.97 296.63 84.35 296.75 85.91C296.83 87.25 296.89 88.5 296.93 89.66C296.97 90.82 297.01 91.92 297.05 92.96C297.09 94.48 297.26 95.47 297.56 95.93C297.86 96.39 298.29 96.62 298.85 96.62C299.37 96.62 299.83 96.48 300.23 96.2C300.65 95.9 300.92 95.51 301.04 95.03L304.16 101C303.94 101.92 303.32 102.69 302.3 103.31C301.28 103.93 299.99 104.24 298.43 104.24C297.29 104.24 296.21 104.05 295.19 103.67C294.17 103.27 293.33 102.74 292.67 102.08C292.01 101.4 291.62 100.63 291.5 99.77C291.18 100.53 290.51 101.28 289.49 102.02C288.47 102.74 287.16 103.34 285.56 103.82C283.96 104.28 282.09 104.51 279.95 104.51ZM281.96 97.46C282.9 97.46 283.86 97.32 284.84 97.04C285.84 96.74 286.74 96.37 287.54 95.93C288.36 95.49 288.99 95.04 289.43 94.58C289.39 93.96 289.35 93.32 289.31 92.66C289.29 92 289.29 91.44 289.31 90.98C288.87 90.8 288.03 90.61 286.79 90.41C285.57 90.19 284.29 90.08 282.95 90.08C281.73 90.08 280.59 90.21 279.53 90.47C278.47 90.73 277.6 91.13 276.92 91.67C276.26 92.21 275.93 92.91 275.93 93.77C275.93 94.69 276.18 95.42 276.68 95.96C277.18 96.5 277.88 96.89 278.78 97.13C279.68 97.35 280.74 97.46 281.96 97.46ZM329.567 103.91C329.527 103.63 329.497 103.23 329.477 102.71C329.457 102.19 329.437 101.66 329.417 101.12C329.417 100.56 329.417 100.11 329.417 99.77C329.177 100.11 328.797 100.52 328.277 101C327.777 101.46 327.127 101.92 326.327 102.38C325.527 102.84 324.557 103.23 323.417 103.55C322.277 103.85 320.947 104 319.427 104C316.907 104 314.737 103.39 312.917 102.17C311.097 100.95 309.697 99.29 308.717 97.19C307.737 95.07 307.247 92.69 307.247 90.05C307.247 87.45 307.737 85.03 308.717 82.79C309.717 80.53 311.207 78.71 313.187 77.33C315.167 75.93 317.657 75.23 320.657 75.23C322.157 75.23 323.517 75.4 324.737 75.74C325.977 76.08 327.027 76.51 327.887 77.03C328.747 77.53 329.357 78.04 329.717 78.56C329.777 77.46 329.857 76.2 329.957 74.78C330.057 73.34 330.167 71.87 330.287 70.37C330.427 68.85 330.557 67.41 330.677 66.05C330.797 64.69 330.897 63.53 330.977 62.57C331.077 61.59 331.147 60.94 331.187 60.62C332.347 60.62 333.647 60.69 335.087 60.83C336.547 60.95 337.837 61.16 338.957 61.46C338.617 66.04 338.347 70.62 338.147 75.2C337.947 79.76 337.807 84.43 337.727 89.21C337.667 93.97 337.637 98.96 337.637 104.18C337.177 104.18 336.417 104.17 335.357 104.15C334.317 104.13 333.247 104.1 332.147 104.06C331.047 104.02 330.187 103.97 329.567 103.91ZM321.917 95.27C322.797 95.27 323.607 95.17 324.347 94.97C325.087 94.77 325.767 94.5 326.387 94.16C327.007 93.8 327.547 93.42 328.007 93.02C328.487 92.6 328.887 92.18 329.207 91.76C329.207 91.36 329.207 90.87 329.207 90.29C329.207 89.69 329.207 89.09 329.207 88.49C329.227 87.89 329.237 87.32 329.237 86.78C329.257 86.24 329.277 85.82 329.297 85.52C328.857 85.1 328.247 84.69 327.467 84.29C326.687 83.89 325.827 83.57 324.887 83.33C323.967 83.07 323.027 82.94 322.067 82.94C320.107 82.94 318.577 83.53 317.477 84.71C316.397 85.87 315.857 87.38 315.857 89.24C315.857 91.2 316.377 92.7 317.417 93.74C318.477 94.76 319.977 95.27 321.917 95.27ZM363.717 90.8C362.357 90.8 361.137 90.78 360.057 90.74C358.977 90.7 357.937 90.65 356.937 90.59C355.957 90.53 354.897 90.44 353.757 90.32C353.757 87.64 354.287 85.24 355.347 83.12C356.427 81 357.957 79.06 359.937 77.3C361.037 76.32 361.907 75.38 362.547 74.48C363.207 73.56 363.537 72.64 363.537 71.72C363.537 70.6 363.157 69.73 362.397 69.11C361.657 68.49 360.647 68.18 359.367 68.18C358.367 68.18 357.467 68.33 356.667 68.63C355.867 68.93 355.147 69.37 354.507 69.95C353.887 70.51 353.337 71.19 352.857 71.99C352.397 72.77 351.987 73.66 351.627 74.66L344.037 70.34C344.557 68.08 345.567 66.17 347.067 64.61C348.587 63.05 350.427 61.87 352.587 61.07C354.767 60.25 357.067 59.84 359.487 59.84C362.107 59.84 364.457 60.24 366.537 61.04C368.637 61.82 370.297 63.01 371.517 64.61C372.737 66.19 373.347 68.18 373.347 70.58C373.347 72.36 373.117 73.87 372.657 75.11C372.197 76.33 371.587 77.38 370.827 78.26C370.087 79.14 369.287 79.96 368.427 80.72C367.647 81.42 366.897 82.26 366.177 83.24C365.477 84.22 364.897 85.34 364.437 86.6C363.997 87.84 363.757 89.24 363.717 90.8ZM359.397 104.3C357.737 104.3 356.287 103.83 355.047 102.89C353.827 101.93 353.217 100.59 353.217 98.87C353.217 97.93 353.497 97.05 354.057 96.23C354.617 95.39 355.357 94.72 356.277 94.22C357.197 93.7 358.167 93.44 359.187 93.44C361.007 93.44 362.517 93.91 363.717 94.85C364.937 95.77 365.547 96.99 365.547 98.51C365.547 99.59 365.257 100.57 364.677 101.45C364.117 102.33 363.367 103.03 362.427 103.55C361.507 104.05 360.497 104.3 359.397 104.3Z" fill="black"/>
</svg>
