<svg width="401" height="107" viewBox="0 0 401 107" fill="none" xmlns="http://www.w3.org/2000/svg">
<path d="M22.6065 44.45C22.2865 43.45 21.9365 42.34 21.5565 41.12C21.1965 39.9 20.8265 38.66 20.4465 37.4C20.0865 36.12 19.7465 34.88 19.4265 33.68C19.1265 32.48 18.8465 31.38 18.5865 30.38C18.3465 29.38 18.1765 28.55 18.0765 27.89L19.2165 27.74C19.1365 28.02 18.9665 28.53 18.7065 29.27C18.4465 29.99 18.1365 30.86 17.7765 31.88C17.4165 32.9 17.0165 33.99 16.5765 35.15C16.1565 36.29 15.7165 37.42 15.2565 38.54C14.8165 39.66 14.3965 40.7 13.9965 41.66C13.6165 42.6 13.2865 43.38 13.0065 44L2.38648 43.58C2.20648 41.98 2.01648 40.07 1.81648 37.85C1.63648 35.61 1.45648 33.15 1.27648 30.47C1.09648 27.77 0.936478 24.93 0.796478 21.95C0.656478 18.97 0.546478 15.91 0.466478 12.77C0.386478 9.63 0.346478 6.51 0.346478 3.41L10.7865 3.8C10.7865 5.5 10.7665 7.42 10.7265 9.56C10.6865 11.68 10.6365 13.87 10.5765 16.13C10.5365 18.37 10.4965 20.56 10.4565 22.7C10.4165 24.84 10.3765 26.79 10.3365 28.55C10.3165 30.31 10.3165 31.76 10.3365 32.9L9.79648 33.44C10.0165 32.84 10.2865 32.02 10.6065 30.98C10.9465 29.92 11.3165 28.75 11.7165 27.47C12.1165 26.17 12.5165 24.83 12.9165 23.45C13.3165 22.07 13.6865 20.72 14.0265 19.4C14.3665 18.08 14.6565 16.89 14.8965 15.83C15.1365 14.75 15.2765 13.88 15.3165 13.22L22.3965 13.07C22.4165 13.45 22.4965 14.19 22.6365 15.29C22.7965 16.37 22.9965 17.66 23.2365 19.16C23.4965 20.66 23.7765 22.24 24.0765 23.9C24.3765 25.54 24.6665 27.14 24.9465 28.7C25.2465 30.24 25.5265 31.61 25.7865 32.81C26.0665 33.99 26.3065 34.84 26.5065 35.36L25.1865 35.45C25.5665 33.37 25.8965 30.92 26.1765 28.1C26.4765 25.28 26.7265 22.35 26.9265 19.31C27.1265 16.27 27.2665 13.37 27.3465 10.61C27.4465 7.83 27.4965 5.47 27.4965 3.53L36.9465 2.57C36.9465 6.05 36.8065 9.59 36.5265 13.19C36.2465 16.79 35.8865 20.27 35.4465 23.63C35.0065 26.99 34.5565 30.06 34.0965 32.84C33.6365 35.62 33.2165 37.95 32.8365 39.83C32.4565 41.69 32.1965 42.93 32.0565 43.55L22.6065 44.45ZM52.959 44.33C52.499 44.41 51.849 44.47 51.009 44.51C50.189 44.55 49.339 44.57 48.459 44.57C47.419 44.57 46.449 44.53 45.549 44.45C44.649 44.39 43.989 44.28 43.569 44.12C43.729 42.92 43.869 41.36 43.989 39.44C44.129 37.5 44.239 35.33 44.319 32.93C44.419 30.53 44.469 28.01 44.469 25.37C44.469 22.67 44.419 19.92 44.319 17.12C44.239 14.32 44.129 11.62 43.989 9.02C43.849 6.4 43.719 4.01 43.599 1.85C43.739 1.79 44.179 1.7 44.919 1.58C45.659 1.46 46.519 1.34 47.499 1.22C48.479 1.08 49.409 0.959997 50.289 0.859998C51.169 0.759998 51.829 0.709998 52.269 0.709998C52.589 2.21 52.869 4 53.109 6.08C53.349 8.16 53.549 10.44 53.709 12.92C53.869 15.38 53.979 17.96 54.039 20.66C54.719 19.9 55.579 19.22 56.619 18.62C57.659 18 58.789 17.52 60.009 17.18C61.249 16.82 62.479 16.64 63.699 16.64C66.139 16.64 68.009 17.11 69.309 18.05C70.609 18.97 71.509 20.32 72.009 22.1C72.529 23.86 72.789 26.01 72.789 28.55C72.789 30.15 72.719 31.87 72.579 33.71C72.459 35.55 72.299 37.36 72.099 39.14C71.899 40.92 71.679 42.52 71.439 43.94C70.739 44.04 70.019 44.12 69.279 44.18C68.539 44.24 67.799 44.27 67.059 44.27C66.239 44.27 65.429 44.23 64.629 44.15C63.849 44.09 63.139 44 62.499 43.88C62.639 42.98 62.789 41.92 62.949 40.7C63.109 39.48 63.259 38.23 63.399 36.95C63.539 35.65 63.649 34.42 63.729 33.26C63.829 32.08 63.879 31.08 63.879 30.26C63.879 29.08 63.759 28.08 63.519 27.26C63.299 26.44 62.929 25.82 62.409 25.4C61.909 24.96 61.229 24.74 60.369 24.74C59.629 24.74 58.929 24.88 58.269 25.16C57.609 25.42 56.999 25.76 56.439 26.18C55.899 26.58 55.419 27 54.999 27.44C54.579 27.86 54.249 28.23 54.009 28.55C54.009 30.61 53.959 32.67 53.859 34.73C53.759 36.77 53.629 38.63 53.469 40.31C53.309 41.99 53.139 43.33 52.959 44.33ZM92.6504 44.51C90.1904 44.51 87.9404 44.18 85.9004 43.52C83.8604 42.84 82.2304 41.75 81.0104 40.25C79.8104 38.73 79.2104 36.72 79.2104 34.22C79.2104 31.72 79.9104 29.71 81.3104 28.19C82.7304 26.65 84.5904 25.54 86.8904 24.86C89.2104 24.16 91.7004 23.81 94.3604 23.81C95.4004 23.81 96.4004 23.89 97.3604 24.05C98.3204 24.21 99.1604 24.4 99.8804 24.62C100.62 24.84 101.15 25.05 101.47 25.25C101.45 24.73 101.34 24.18 101.14 23.6C100.96 23.02 100.7 22.53 100.36 22.13C99.7604 21.31 98.9404 20.63 97.9004 20.09C96.8804 19.53 95.5304 19.25 93.8504 19.25C92.1504 19.25 90.6504 19.64 89.3504 20.42C88.0504 21.18 87.0604 22.04 86.3804 23L79.0604 18.29C79.9604 17.01 81.1704 15.89 82.6904 14.93C84.2304 13.97 85.9704 13.22 87.9104 12.68C89.8704 12.14 91.9204 11.87 94.0604 11.87C97.6004 11.87 100.47 12.45 102.67 13.61C104.87 14.77 106.5 16.39 107.56 18.47C108.06 19.47 108.47 20.57 108.79 21.77C109.11 22.97 109.33 24.35 109.45 25.91C109.53 27.25 109.59 28.5 109.63 29.66C109.67 30.82 109.71 31.92 109.75 32.96C109.79 34.48 109.96 35.47 110.26 35.93C110.56 36.39 110.99 36.62 111.55 36.62C112.07 36.62 112.53 36.48 112.93 36.2C113.35 35.9 113.62 35.51 113.74 35.03L116.86 41C116.64 41.92 116.02 42.69 115 43.31C113.98 43.93 112.69 44.24 111.13 44.24C109.99 44.24 108.91 44.05 107.89 43.67C106.87 43.27 106.03 42.74 105.37 42.08C104.71 41.4 104.32 40.63 104.2 39.77C103.88 40.53 103.21 41.28 102.19 42.02C101.17 42.74 99.8604 43.34 98.2604 43.82C96.6604 44.28 94.7904 44.51 92.6504 44.51ZM94.6604 37.46C95.6004 37.46 96.5604 37.32 97.5404 37.04C98.5404 36.74 99.4404 36.37 100.24 35.93C101.06 35.49 101.69 35.04 102.13 34.58C102.09 33.96 102.05 33.32 102.01 32.66C101.99 32 101.99 31.44 102.01 30.98C101.57 30.8 100.73 30.61 99.4904 30.41C98.2704 30.19 96.9904 30.08 95.6504 30.08C94.4304 30.08 93.2904 30.21 92.2304 30.47C91.1704 30.73 90.3004 31.13 89.6204 31.67C88.9604 32.21 88.6304 32.91 88.6304 33.77C88.6304 34.69 88.8804 35.42 89.3804 35.96C89.8804 36.5 90.5804 36.89 91.4804 37.13C92.3804 37.35 93.4404 37.46 94.6604 37.46ZM141.916 40.07C141.536 40.81 140.936 41.6 140.116 42.44C139.316 43.26 138.266 43.96 136.966 44.54C135.686 45.14 134.126 45.44 132.286 45.44C129.866 45.44 127.886 44.93 126.346 43.91C124.826 42.89 123.696 41.53 122.956 39.83C122.236 38.13 121.876 36.27 121.876 34.25C121.876 33.15 121.886 31.98 121.906 30.74C121.946 29.48 121.986 28.24 122.026 27.02C122.066 25.78 122.106 24.61 122.146 23.51C122.206 22.39 122.256 21.41 122.296 20.57C122.356 19.73 122.396 19.08 122.416 18.62C120.836 18.78 119.376 18.96 118.036 19.16C116.696 19.34 115.766 19.49 115.246 19.61C115.046 18.49 114.896 17.35 114.796 16.19C114.696 15.03 114.616 14.02 114.556 13.16C114.516 12.3 114.496 11.77 114.496 11.57C115.656 11.41 116.896 11.27 118.216 11.15C119.536 11.01 120.926 10.91 122.386 10.85C122.366 10.37 122.346 9.62 122.326 8.6C122.306 7.58 122.276 6.66 122.236 5.84C122.216 5.1 122.176 4.36 122.116 3.62C122.056 2.86 122.006 2.25 121.966 1.79L130.846 1.01C130.846 1.25 130.846 1.81 130.846 2.69C130.866 3.57 130.876 4.63 130.876 5.87C130.876 6.49 130.886 7.21 130.906 8.03C130.926 8.83 130.946 9.62 130.966 10.4C131.626 10.36 132.396 10.32 133.276 10.28C134.156 10.24 134.856 10.21 135.376 10.19C136.216 10.15 136.976 10.13 137.656 10.13C138.336 10.11 138.896 10.1 139.336 10.1C139.796 10.1 140.106 10.11 140.266 10.13C140.386 11.07 140.466 12.27 140.506 13.73C140.546 15.17 140.566 16.45 140.566 17.57C140.366 17.55 139.716 17.56 138.616 17.6C137.516 17.62 136.436 17.66 135.376 17.72C134.636 17.74 133.816 17.78 132.916 17.84C132.016 17.9 131.306 17.96 130.786 18.02C130.766 18.44 130.736 19.02 130.696 19.76C130.676 20.48 130.646 21.3 130.606 22.22C130.586 23.12 130.556 24.06 130.516 25.04C130.496 26 130.476 26.93 130.456 27.83C130.436 28.73 130.426 29.53 130.426 30.23C130.426 31.55 130.486 32.74 130.606 33.8C130.746 34.84 131.036 35.67 131.476 36.29C131.936 36.89 132.636 37.19 133.576 37.19C134.196 37.19 134.726 37.01 135.166 36.65C135.606 36.29 135.966 35.87 136.246 35.39C136.546 34.89 136.806 34.45 137.026 34.07C137.286 34.43 137.646 34.91 138.106 35.51C138.586 36.09 139.086 36.7 139.606 37.34C140.146 37.98 140.626 38.55 141.046 39.05C141.486 39.55 141.776 39.89 141.916 40.07ZM152.712 16.43C152.132 16.07 151.502 15.56 150.822 14.9C150.142 14.24 149.612 13.58 149.232 12.92C149.572 12.72 150.032 12.4 150.612 11.96C151.212 11.52 151.772 11.05 152.292 10.55C152.812 10.05 153.102 9.61 153.162 9.23C153.042 9.35 152.832 9.46 152.532 9.56C152.252 9.66 151.912 9.71 151.512 9.71C150.212 9.71 149.222 9.32 148.542 8.54C147.862 7.74 147.522 6.81 147.522 5.75C147.522 4.15 148.072 2.89 149.172 1.97C150.292 1.03 151.632 0.559998 153.192 0.559998C154.972 0.559998 156.442 1.08 157.602 2.12C158.762 3.16 159.342 4.51 159.342 6.17C159.342 7.79 159.032 9.27 158.412 10.61C157.792 11.95 156.972 13.11 155.952 14.09C154.952 15.07 153.872 15.85 152.712 16.43ZM174.985 46.37C172.645 46.37 170.495 46.08 168.535 45.5C166.595 44.94 164.945 44.28 163.585 43.52C162.245 42.74 161.275 42.04 160.675 41.42C160.795 41.04 161.025 40.49 161.365 39.77C161.725 39.03 162.145 38.23 162.625 37.37C163.105 36.51 163.585 35.71 164.065 34.97C164.545 34.23 164.975 33.68 165.355 33.32C166.315 34.14 167.355 34.95 168.475 35.75C169.595 36.53 170.745 37.17 171.925 37.67C173.105 38.17 174.205 38.42 175.225 38.42C176.025 38.42 176.745 38.32 177.385 38.12C178.025 37.9 178.525 37.58 178.885 37.16C179.265 36.74 179.455 36.22 179.455 35.6C179.455 34.88 179.105 34.19 178.405 33.53C177.725 32.85 176.845 32.21 175.765 31.61C174.685 31.01 173.555 30.47 172.375 29.99C170.755 29.33 169.245 28.56 167.845 27.68C166.445 26.78 165.315 25.68 164.455 24.38C163.595 23.06 163.165 21.42 163.165 19.46C163.165 17.46 163.755 15.78 164.935 14.42C166.115 13.06 167.655 12.03 169.555 11.33C171.475 10.63 173.525 10.28 175.705 10.28C177.765 10.28 179.855 10.57 181.975 11.15C184.095 11.71 185.825 12.52 187.165 13.58C187.045 13.96 186.785 14.54 186.385 15.32C186.005 16.1 185.535 16.94 184.975 17.84C184.435 18.72 183.855 19.53 183.235 20.27C182.415 19.57 181.385 18.9 180.145 18.26C178.905 17.62 177.605 17.3 176.245 17.3C175.565 17.3 174.885 17.37 174.205 17.51C173.545 17.65 172.995 17.9 172.555 18.26C172.135 18.62 171.925 19.11 171.925 19.73C171.925 20.33 172.155 20.87 172.615 21.35C173.075 21.81 173.745 22.26 174.625 22.7C175.525 23.14 176.575 23.6 177.775 24.08C178.975 24.56 180.195 25.13 181.435 25.79C182.675 26.43 183.815 27.2 184.855 28.1C185.915 29 186.765 30.05 187.405 31.25C188.045 32.43 188.365 33.79 188.365 35.33C188.365 37.79 187.755 39.84 186.535 41.48C185.315 43.12 183.685 44.34 181.645 45.14C179.625 45.96 177.405 46.37 174.985 46.37ZM226.029 43.94C225.689 43.96 225.039 44 224.079 44.06C223.139 44.14 222.139 44.18 221.079 44.18C220.299 44.18 219.509 44.15 218.709 44.09C217.929 44.05 217.159 43.99 216.399 43.91C216.499 43.39 216.609 42.33 216.729 40.73C216.869 39.11 216.999 37.21 217.119 35.03C217.259 32.85 217.389 30.6 217.509 28.28C217.649 25.94 217.749 23.75 217.809 21.71C217.889 19.67 217.929 18.03 217.929 16.79C218.329 16.77 218.919 16.74 219.699 16.7C220.479 16.66 221.319 16.63 222.219 16.61C223.119 16.57 223.979 16.54 224.799 16.52C225.619 16.48 226.269 16.46 226.749 16.46C226.849 17.08 226.929 18.08 226.989 19.46C227.049 20.84 227.079 22.38 227.079 24.08C227.079 25.9 227.049 27.83 226.989 29.87C226.949 31.91 226.879 33.89 226.779 35.81C226.699 37.71 226.589 39.39 226.449 40.85C226.309 42.29 226.169 43.32 226.029 43.94ZM222.669 12.59C220.869 12.59 219.359 12.07 218.139 11.03C216.919 9.97 216.309 8.58 216.309 6.86C216.309 5.68 216.599 4.67 217.179 3.83C217.759 2.99 218.509 2.35 219.429 1.91C220.369 1.45 221.359 1.22 222.399 1.22C224.059 1.22 225.429 1.76 226.509 2.84C227.609 3.92 228.159 5.31 228.159 7.01C228.159 8.59 227.639 9.92 226.599 11C225.559 12.06 224.249 12.59 222.669 12.59ZM246.753 44.39C246.153 44.41 245.413 44.41 244.533 44.39C243.653 44.39 242.753 44.38 241.833 44.36C241.093 44.34 240.243 44.31 239.283 44.27C238.323 44.23 237.653 44.19 237.273 44.15C237.453 42.47 237.603 40.57 237.723 38.45C237.863 36.33 237.973 33.98 238.053 31.4C238.133 28.82 238.193 26 238.233 22.94C238.273 19.88 238.293 16.57 238.293 13.01C239.053 12.91 239.953 12.83 240.993 12.77C242.033 12.71 243.083 12.68 244.143 12.68C244.883 12.68 245.593 12.7 246.273 12.74C246.973 12.76 247.593 12.82 248.133 12.92C248.133 13.1 248.133 13.47 248.133 14.03C248.153 14.57 248.153 15.17 248.133 15.83C248.133 16.47 248.123 17.05 248.103 17.57C248.623 16.81 249.473 16.02 250.653 15.2C251.833 14.36 253.203 13.65 254.763 13.07C256.323 12.49 257.933 12.2 259.593 12.2C262.653 12.2 264.993 12.82 266.613 14.06C268.233 15.28 269.343 17.12 269.943 19.58C270.543 22.02 270.843 25.08 270.843 28.76C270.843 30.04 270.803 31.54 270.723 33.26C270.663 34.96 270.563 36.75 270.423 38.63C270.283 40.51 270.103 42.33 269.883 44.09C269.483 44.13 268.843 44.16 267.963 44.18C267.103 44.22 266.193 44.24 265.233 44.24C264.213 44.24 263.243 44.22 262.323 44.18C261.403 44.16 260.723 44.13 260.283 44.09C260.503 42.97 260.743 41.57 261.003 39.89C261.263 38.21 261.483 36.42 261.663 34.52C261.843 32.6 261.933 30.77 261.933 29.03C261.933 27.35 261.793 25.89 261.513 24.65C261.253 23.41 260.743 22.45 259.983 21.77C259.243 21.07 258.143 20.72 256.683 20.72C255.483 20.72 254.333 20.93 253.233 21.35C252.133 21.77 251.133 22.29 250.233 22.91C249.333 23.51 248.563 24.1 247.923 24.68C247.903 27.84 247.823 30.7 247.683 33.26C247.543 35.8 247.393 38.01 247.233 39.89C247.073 41.75 246.913 43.25 246.753 44.39ZM291.636 46.37C289.296 46.37 287.146 46.08 285.186 45.5C283.246 44.94 281.596 44.28 280.236 43.52C278.896 42.74 277.926 42.04 277.326 41.42C277.446 41.04 277.676 40.49 278.016 39.77C278.376 39.03 278.796 38.23 279.276 37.37C279.756 36.51 280.236 35.71 280.716 34.97C281.196 34.23 281.626 33.68 282.006 33.32C282.966 34.14 284.006 34.95 285.126 35.75C286.246 36.53 287.396 37.17 288.576 37.67C289.756 38.17 290.856 38.42 291.876 38.42C292.676 38.42 293.396 38.32 294.036 38.12C294.676 37.9 295.176 37.58 295.536 37.16C295.916 36.74 296.106 36.22 296.106 35.6C296.106 34.88 295.756 34.19 295.056 33.53C294.376 32.85 293.496 32.21 292.416 31.61C291.336 31.01 290.206 30.47 289.026 29.99C287.406 29.33 285.896 28.56 284.496 27.68C283.096 26.78 281.966 25.68 281.106 24.38C280.246 23.06 279.816 21.42 279.816 19.46C279.816 17.46 280.406 15.78 281.586 14.42C282.766 13.06 284.306 12.03 286.206 11.33C288.126 10.63 290.176 10.28 292.356 10.28C294.416 10.28 296.506 10.57 298.626 11.15C300.746 11.71 302.476 12.52 303.816 13.58C303.696 13.96 303.436 14.54 303.036 15.32C302.656 16.1 302.186 16.94 301.626 17.84C301.086 18.72 300.506 19.53 299.886 20.27C299.066 19.57 298.036 18.9 296.796 18.26C295.556 17.62 294.256 17.3 292.896 17.3C292.216 17.3 291.536 17.37 290.856 17.51C290.196 17.65 289.646 17.9 289.206 18.26C288.786 18.62 288.576 19.11 288.576 19.73C288.576 20.33 288.806 20.87 289.266 21.35C289.726 21.81 290.396 22.26 291.276 22.7C292.176 23.14 293.226 23.6 294.426 24.08C295.626 24.56 296.846 25.13 298.086 25.79C299.326 26.43 300.466 27.2 301.506 28.1C302.566 29 303.416 30.05 304.056 31.25C304.696 32.43 305.016 33.79 305.016 35.33C305.016 37.79 304.406 39.84 303.186 41.48C301.966 43.12 300.336 44.34 298.296 45.14C296.276 45.96 294.056 46.37 291.636 46.37ZM321.823 43.94C321.483 43.96 320.833 44 319.873 44.06C318.933 44.14 317.933 44.18 316.873 44.18C316.093 44.18 315.303 44.15 314.503 44.09C313.723 44.05 312.953 43.99 312.193 43.91C312.293 43.39 312.403 42.33 312.523 40.73C312.663 39.11 312.793 37.21 312.913 35.03C313.053 32.85 313.183 30.6 313.303 28.28C313.443 25.94 313.543 23.75 313.603 21.71C313.683 19.67 313.723 18.03 313.723 16.79C314.123 16.77 314.713 16.74 315.493 16.7C316.273 16.66 317.113 16.63 318.013 16.61C318.913 16.57 319.773 16.54 320.593 16.52C321.413 16.48 322.063 16.46 322.543 16.46C322.643 17.08 322.723 18.08 322.783 19.46C322.843 20.84 322.873 22.38 322.873 24.08C322.873 25.9 322.843 27.83 322.783 29.87C322.743 31.91 322.673 33.89 322.573 35.81C322.493 37.71 322.383 39.39 322.243 40.85C322.103 42.29 321.963 43.32 321.823 43.94ZM318.463 12.59C316.663 12.59 315.153 12.07 313.933 11.03C312.713 9.97 312.103 8.58 312.103 6.86C312.103 5.68 312.393 4.67 312.973 3.83C313.553 2.99 314.303 2.35 315.223 1.91C316.163 1.45 317.153 1.22 318.193 1.22C319.853 1.22 321.223 1.76 322.303 2.84C323.403 3.92 323.953 5.31 323.953 7.01C323.953 8.59 323.433 9.92 322.393 11C321.353 12.06 320.043 12.59 318.463 12.59ZM354.007 43.91C353.967 43.63 353.937 43.23 353.917 42.71C353.897 42.19 353.877 41.66 353.857 41.12C353.857 40.56 353.857 40.11 353.857 39.77C353.617 40.11 353.237 40.52 352.717 41C352.217 41.46 351.567 41.92 350.767 42.38C349.967 42.84 348.997 43.23 347.857 43.55C346.717 43.85 345.387 44 343.867 44C341.347 44 339.177 43.39 337.357 42.17C335.537 40.95 334.137 39.29 333.157 37.19C332.177 35.07 331.687 32.69 331.687 30.05C331.687 27.45 332.177 25.03 333.157 22.79C334.157 20.53 335.647 18.71 337.627 17.33C339.607 15.93 342.097 15.23 345.097 15.23C346.597 15.23 347.957 15.4 349.177 15.74C350.417 16.08 351.467 16.51 352.327 17.03C353.187 17.53 353.797 18.04 354.157 18.56C354.217 17.46 354.297 16.2 354.397 14.78C354.497 13.34 354.607 11.87 354.727 10.37C354.867 8.85 354.997 7.41 355.117 6.05C355.237 4.69 355.337 3.53 355.417 2.57C355.517 1.59 355.587 0.939998 355.627 0.619997C356.787 0.619997 358.087 0.689998 359.527 0.83C360.987 0.949998 362.277 1.16 363.397 1.46C363.057 6.04 362.787 10.62 362.587 15.2C362.387 19.76 362.247 24.43 362.167 29.21C362.107 33.97 362.077 38.96 362.077 44.18C361.617 44.18 360.857 44.17 359.797 44.15C358.757 44.13 357.687 44.1 356.587 44.06C355.487 44.02 354.627 43.97 354.007 43.91ZM346.357 35.27C347.237 35.27 348.047 35.17 348.787 34.97C349.527 34.77 350.207 34.5 350.827 34.16C351.447 33.8 351.987 33.42 352.447 33.02C352.927 32.6 353.327 32.18 353.647 31.76C353.647 31.36 353.647 30.87 353.647 30.29C353.647 29.69 353.647 29.09 353.647 28.49C353.667 27.89 353.677 27.32 353.677 26.78C353.697 26.24 353.717 25.82 353.737 25.52C353.297 25.1 352.687 24.69 351.907 24.29C351.127 23.89 350.267 23.57 349.327 23.33C348.407 23.07 347.467 22.94 346.507 22.94C344.547 22.94 343.017 23.53 341.917 24.71C340.837 25.87 340.297 27.38 340.297 29.24C340.297 31.2 340.817 32.7 341.857 33.74C342.917 34.76 344.417 35.27 346.357 35.27ZM400.036 38.63C399.476 39.31 398.776 39.98 397.936 40.64C397.096 41.3 396.086 41.9 394.906 42.44C393.746 42.96 392.416 43.38 390.916 43.7C389.416 44 387.736 44.15 385.876 44.15C382.856 44.15 380.176 43.58 377.836 42.44C375.496 41.28 373.666 39.57 372.346 37.31C371.046 35.03 370.396 32.2 370.396 28.82C370.396 25.44 371.076 22.5 372.436 20C373.796 17.48 375.696 15.53 378.136 14.15C380.576 12.75 383.426 12.05 386.686 12.05C390.806 12.05 394.046 13.2 396.406 15.5C398.786 17.78 400.026 20.94 400.126 24.98C400.146 25.72 400.136 26.39 400.096 26.99C400.056 27.59 399.976 28.23 399.856 28.91C399.556 28.89 398.916 28.87 397.936 28.85C396.956 28.83 395.846 28.81 394.606 28.79C393.386 28.75 392.226 28.72 391.126 28.7C390.046 28.68 389.246 28.67 388.726 28.67C386.986 28.67 385.296 28.75 383.656 28.91C382.036 29.07 380.676 29.24 379.576 29.42C379.576 29.78 379.596 30.14 379.636 30.5C379.696 30.84 379.776 31.17 379.876 31.49C380.136 32.31 380.586 33.01 381.226 33.59C381.886 34.17 382.666 34.62 383.566 34.94C384.486 35.24 385.456 35.39 386.476 35.39C387.396 35.39 388.236 35.28 388.996 35.06C389.776 34.82 390.486 34.51 391.126 34.13C391.766 33.75 392.346 33.34 392.866 32.9C393.406 32.44 393.906 31.99 394.366 31.55C394.486 31.65 394.796 31.95 395.296 32.45C395.796 32.93 396.356 33.53 396.976 34.25C397.596 34.95 398.186 35.69 398.746 36.47C399.306 37.25 399.736 37.97 400.036 38.63ZM379.906 23.81C380.806 23.67 381.916 23.54 383.236 23.42C384.556 23.3 386.086 23.24 387.826 23.24C388.766 23.24 389.596 23.25 390.316 23.27C391.056 23.29 391.576 23.31 391.876 23.33C391.876 22.91 391.816 22.45 391.696 21.95C391.536 21.27 391.216 20.62 390.736 20C390.276 19.38 389.676 18.88 388.936 18.5C388.216 18.12 387.346 17.93 386.326 17.93C385.046 17.93 383.926 18.21 382.966 18.77C382.026 19.33 381.296 20.06 380.776 20.96C380.256 21.86 379.966 22.81 379.906 23.81ZM56.7078 104.66C51.4078 104.66 47.4178 103.26 44.7378 100.46C42.0578 97.64 40.7178 93.55 40.7178 88.19C40.7178 84.61 41.4078 81.64 42.7878 79.28C44.1678 76.9 46.0778 75.11 48.5178 73.91C50.9778 72.71 53.8178 72.11 57.0378 72.11C60.3178 72.11 63.0378 72.86 65.1978 74.36C67.3778 75.86 69.0078 77.93 70.0878 80.57C71.1678 83.21 71.7078 86.26 71.7078 89.72C71.7078 92.74 71.1278 95.37 69.9678 97.61C68.8078 99.85 67.1078 101.59 64.8678 102.83C62.6478 104.05 59.9278 104.66 56.7078 104.66ZM56.3778 96.05C57.4778 96.05 58.4478 95.86 59.2878 95.48C60.1478 95.1 60.8678 94.56 61.4478 93.86C62.0478 93.14 62.4978 92.3 62.7978 91.34C63.0978 90.38 63.2478 89.33 63.2478 88.19C63.2478 86.41 62.9878 84.84 62.4678 83.48C61.9678 82.1 61.2178 81.03 60.2178 80.27C59.2378 79.49 58.0178 79.1 56.5578 79.1C54.9778 79.1 53.6878 79.5 52.6878 80.3C51.6878 81.1 50.9478 82.15 50.4678 83.45C50.0078 84.73 49.7778 86.1 49.7778 87.56C49.7778 90.02 50.3378 92.05 51.4578 93.65C52.5978 95.25 54.2378 96.05 56.3778 96.05ZM98.2841 74.66C98.7841 74.48 99.4941 74.35 100.414 74.27C101.354 74.17 102.264 74.12 103.144 74.12C103.884 74.12 104.704 74.15 105.604 74.21C106.504 74.27 107.234 74.34 107.794 74.42C108.054 76.04 108.254 77.68 108.394 79.34C108.534 80.98 108.604 82.6 108.604 84.2C108.604 87.14 108.344 89.91 107.824 92.51C107.324 95.11 106.494 97.4 105.334 99.38C104.174 101.36 102.624 102.91 100.684 104.03C98.7441 105.17 96.3541 105.74 93.5141 105.74C90.4941 105.74 88.0041 105.15 86.0441 103.97C84.0841 102.77 82.5541 101.11 81.4541 98.99C80.3541 96.85 79.5841 94.36 79.1441 91.52C78.7241 88.66 78.5141 85.58 78.5141 82.28C78.5141 80.82 78.5441 79.34 78.6041 77.84C78.6841 76.32 78.7841 74.81 78.9041 73.31C79.4241 73.27 80.1041 73.24 80.9441 73.22C81.8041 73.18 82.5841 73.17 83.2841 73.19C84.2841 73.19 85.2841 73.25 86.2841 73.37C87.3041 73.47 88.1041 73.61 88.6841 73.79C88.5441 75.15 88.4241 76.62 88.3241 78.2C88.2241 79.76 88.1741 81.33 88.1741 82.91C88.1741 85.55 88.3441 87.93 88.6841 90.05C89.0441 92.17 89.6341 93.85 90.4541 95.09C91.2741 96.33 92.3841 96.95 93.7841 96.95C95.1041 96.95 96.1541 96.39 96.9341 95.27C97.7341 94.15 98.3041 92.65 98.6441 90.77C99.0041 88.87 99.1841 86.75 99.1841 84.41C99.1841 82.65 99.0941 80.92 98.9141 79.22C98.7541 77.5 98.5441 75.98 98.2841 74.66ZM124.766 77.12C125.226 76.22 125.926 75.36 126.866 74.54C127.826 73.72 128.956 73.05 130.256 72.53C131.576 72.01 132.976 71.75 134.456 71.75C135.356 71.75 136.266 71.84 137.186 72.02C138.106 72.2 138.776 72.44 139.196 72.74L137.336 82.28C136.896 82.1 136.326 81.9 135.626 81.68C134.926 81.46 134.126 81.35 133.226 81.35C132.306 81.35 131.406 81.51 130.526 81.83C129.666 82.13 128.866 82.56 128.126 83.12C127.386 83.68 126.736 84.35 126.176 85.13C126.376 86.29 126.596 87.77 126.836 89.57C127.096 91.37 127.336 93.22 127.556 95.12C127.776 97.02 127.956 98.75 128.096 100.31C128.236 101.87 128.306 103.01 128.306 103.73C126.906 103.91 125.286 104.03 123.446 104.09C121.606 104.15 119.836 104.17 118.136 104.15C118.136 102.47 118.086 100.56 117.986 98.42C117.906 96.28 117.786 94.05 117.626 91.73C117.466 89.39 117.266 87.09 117.026 84.83C116.806 82.55 116.546 80.44 116.246 78.5C115.966 76.56 115.666 74.91 115.346 73.55C116.306 73.27 117.366 73.01 118.526 72.77C119.686 72.53 120.736 72.34 121.676 72.2C122.616 72.04 123.216 71.95 123.476 71.93C123.716 72.49 123.986 73.32 124.286 74.42C124.586 75.5 124.746 76.4 124.766 77.12ZM192.139 97.64C191.539 98.68 190.629 99.71 189.409 100.73C188.189 101.75 186.679 102.6 184.879 103.28C183.079 103.96 181.009 104.3 178.669 104.3C175.629 104.3 172.999 103.55 170.779 102.05C168.559 100.53 166.839 98.52 165.619 96.02C164.419 93.5 163.819 90.74 163.819 87.74C163.819 84.58 164.439 81.75 165.679 79.25C166.939 76.75 168.709 74.77 170.989 73.31C173.269 71.85 175.969 71.12 179.089 71.12C180.949 71.12 182.659 71.41 184.219 71.99C185.779 72.57 187.149 73.39 188.329 74.45C189.529 75.51 190.519 76.75 191.299 78.17L184.759 81.83C184.699 81.67 184.559 81.42 184.339 81.08C184.139 80.74 183.839 80.38 183.439 80C183.039 79.62 182.509 79.3 181.849 79.04C181.209 78.78 180.409 78.65 179.449 78.65C178.009 78.65 176.789 78.96 175.789 79.58C174.789 80.2 174.029 81.08 173.509 82.22C173.009 83.36 172.759 84.7 172.759 86.24C172.759 87.52 172.949 88.81 173.329 90.11C173.709 91.39 174.349 92.46 175.249 93.32C176.149 94.18 177.389 94.61 178.969 94.61C179.909 94.61 180.779 94.45 181.579 94.13C182.379 93.81 183.069 93.43 183.649 92.99C184.249 92.53 184.729 92.1 185.089 91.7C185.449 91.3 185.669 91.03 185.749 90.89L192.139 97.64ZM207.72 104.33C207.26 104.41 206.61 104.47 205.77 104.51C204.95 104.55 204.1 104.57 203.22 104.57C202.18 104.57 201.21 104.53 200.31 104.45C199.41 104.39 198.75 104.28 198.33 104.12C198.49 102.92 198.63 101.36 198.75 99.44C198.89 97.5 199 95.33 199.08 92.93C199.18 90.53 199.23 88.01 199.23 85.37C199.23 82.67 199.18 79.92 199.08 77.12C199 74.32 198.89 71.62 198.75 69.02C198.61 66.4 198.48 64.01 198.36 61.85C198.5 61.79 198.94 61.7 199.68 61.58C200.42 61.46 201.28 61.34 202.26 61.22C203.24 61.08 204.17 60.96 205.05 60.86C205.93 60.76 206.59 60.71 207.03 60.71C207.35 62.21 207.63 64 207.87 66.08C208.11 68.16 208.31 70.44 208.47 72.92C208.63 75.38 208.74 77.96 208.8 80.66C209.48 79.9 210.34 79.22 211.38 78.62C212.42 78 213.55 77.52 214.77 77.18C216.01 76.82 217.24 76.64 218.46 76.64C220.9 76.64 222.77 77.11 224.07 78.05C225.37 78.97 226.27 80.32 226.77 82.1C227.29 83.86 227.55 86.01 227.55 88.55C227.55 90.15 227.48 91.87 227.34 93.71C227.22 95.55 227.06 97.36 226.86 99.14C226.66 100.92 226.44 102.52 226.2 103.94C225.5 104.04 224.78 104.12 224.04 104.18C223.3 104.24 222.56 104.27 221.82 104.27C221 104.27 220.19 104.23 219.39 104.15C218.61 104.09 217.9 104 217.26 103.88C217.4 102.98 217.55 101.92 217.71 100.7C217.87 99.48 218.02 98.23 218.16 96.95C218.3 95.65 218.41 94.42 218.49 93.26C218.59 92.08 218.64 91.08 218.64 90.26C218.64 89.08 218.52 88.08 218.28 87.26C218.06 86.44 217.69 85.82 217.17 85.4C216.67 84.96 215.99 84.74 215.13 84.74C214.39 84.74 213.69 84.88 213.03 85.16C212.37 85.42 211.76 85.76 211.2 86.18C210.66 86.58 210.18 87 209.76 87.44C209.34 87.86 209.01 88.23 208.77 88.55C208.77 90.61 208.72 92.67 208.62 94.73C208.52 96.77 208.39 98.63 208.23 100.31C208.07 101.99 207.9 103.33 207.72 104.33ZM264.313 98.63C263.753 99.31 263.053 99.98 262.213 100.64C261.373 101.3 260.363 101.9 259.183 102.44C258.023 102.96 256.693 103.38 255.193 103.7C253.693 104 252.013 104.15 250.153 104.15C247.133 104.15 244.453 103.58 242.113 102.44C239.773 101.28 237.943 99.57 236.623 97.31C235.323 95.03 234.673 92.2 234.673 88.82C234.673 85.44 235.353 82.5 236.713 80C238.073 77.48 239.973 75.53 242.413 74.15C244.853 72.75 247.703 72.05 250.963 72.05C255.083 72.05 258.323 73.2 260.683 75.5C263.063 77.78 264.303 80.94 264.403 84.98C264.423 85.72 264.413 86.39 264.373 86.99C264.333 87.59 264.253 88.23 264.133 88.91C263.833 88.89 263.193 88.87 262.213 88.85C261.233 88.83 260.123 88.81 258.883 88.79C257.663 88.75 256.503 88.72 255.403 88.7C254.323 88.68 253.523 88.67 253.003 88.67C251.263 88.67 249.573 88.75 247.933 88.91C246.313 89.07 244.953 89.24 243.853 89.42C243.853 89.78 243.873 90.14 243.913 90.5C243.973 90.84 244.053 91.17 244.153 91.49C244.413 92.31 244.863 93.01 245.503 93.59C246.163 94.17 246.943 94.62 247.843 94.94C248.763 95.24 249.733 95.39 250.753 95.39C251.673 95.39 252.513 95.28 253.273 95.06C254.053 94.82 254.763 94.51 255.403 94.13C256.043 93.75 256.623 93.34 257.143 92.9C257.683 92.44 258.183 91.99 258.643 91.55C258.763 91.65 259.073 91.95 259.573 92.45C260.073 92.93 260.633 93.53 261.253 94.25C261.873 94.95 262.463 95.69 263.023 96.47C263.583 97.25 264.013 97.97 264.313 98.63ZM244.183 83.81C245.083 83.67 246.193 83.54 247.513 83.42C248.833 83.3 250.363 83.24 252.103 83.24C253.043 83.24 253.873 83.25 254.593 83.27C255.333 83.29 255.853 83.31 256.153 83.33C256.153 82.91 256.093 82.45 255.973 81.95C255.813 81.27 255.493 80.62 255.013 80C254.553 79.38 253.953 78.88 253.213 78.5C252.493 78.12 251.623 77.93 250.603 77.93C249.323 77.93 248.203 78.21 247.243 78.77C246.303 79.33 245.573 80.06 245.053 80.96C244.533 81.86 244.243 82.81 244.183 83.81ZM285.161 106.37C282.821 106.37 280.671 106.08 278.711 105.5C276.771 104.94 275.121 104.28 273.761 103.52C272.421 102.74 271.451 102.04 270.851 101.42C270.971 101.04 271.201 100.49 271.541 99.77C271.901 99.03 272.321 98.23 272.801 97.37C273.281 96.51 273.761 95.71 274.241 94.97C274.721 94.23 275.151 93.68 275.531 93.32C276.491 94.14 277.531 94.95 278.651 95.75C279.771 96.53 280.921 97.17 282.101 97.67C283.281 98.17 284.381 98.42 285.401 98.42C286.201 98.42 286.921 98.32 287.561 98.12C288.201 97.9 288.701 97.58 289.061 97.16C289.441 96.74 289.631 96.22 289.631 95.6C289.631 94.88 289.281 94.19 288.581 93.53C287.901 92.85 287.021 92.21 285.941 91.61C284.861 91.01 283.731 90.47 282.551 89.99C280.931 89.33 279.421 88.56 278.021 87.68C276.621 86.78 275.491 85.68 274.631 84.38C273.771 83.06 273.341 81.42 273.341 79.46C273.341 77.46 273.931 75.78 275.111 74.42C276.291 73.06 277.831 72.03 279.731 71.33C281.651 70.63 283.701 70.28 285.881 70.28C287.941 70.28 290.031 70.57 292.151 71.15C294.271 71.71 296.001 72.52 297.341 73.58C297.221 73.96 296.961 74.54 296.561 75.32C296.181 76.1 295.711 76.94 295.151 77.84C294.611 78.72 294.031 79.53 293.411 80.27C292.591 79.57 291.561 78.9 290.321 78.26C289.081 77.62 287.781 77.3 286.421 77.3C285.741 77.3 285.061 77.37 284.381 77.51C283.721 77.65 283.171 77.9 282.731 78.26C282.311 78.62 282.101 79.11 282.101 79.73C282.101 80.33 282.331 80.87 282.791 81.35C283.251 81.81 283.921 82.26 284.801 82.7C285.701 83.14 286.751 83.6 287.951 84.08C289.151 84.56 290.371 85.13 291.611 85.79C292.851 86.43 293.991 87.2 295.031 88.1C296.091 89 296.941 90.05 297.581 91.25C298.221 92.43 298.541 93.79 298.541 95.33C298.541 97.79 297.931 99.84 296.711 101.48C295.491 103.12 293.861 104.34 291.821 105.14C289.801 105.96 287.581 106.37 285.161 106.37ZM329.312 100.07C328.932 100.81 328.332 101.6 327.512 102.44C326.712 103.26 325.662 103.96 324.362 104.54C323.082 105.14 321.522 105.44 319.682 105.44C317.262 105.44 315.282 104.93 313.742 103.91C312.222 102.89 311.092 101.53 310.352 99.83C309.632 98.13 309.272 96.27 309.272 94.25C309.272 93.15 309.282 91.98 309.302 90.74C309.342 89.48 309.382 88.24 309.422 87.02C309.462 85.78 309.502 84.61 309.542 83.51C309.602 82.39 309.652 81.41 309.692 80.57C309.752 79.73 309.792 79.08 309.812 78.62C308.232 78.78 306.772 78.96 305.432 79.16C304.092 79.34 303.162 79.49 302.642 79.61C302.442 78.49 302.292 77.35 302.192 76.19C302.092 75.03 302.012 74.02 301.952 73.16C301.912 72.3 301.892 71.77 301.892 71.57C303.052 71.41 304.292 71.27 305.612 71.15C306.932 71.01 308.322 70.91 309.782 70.85C309.762 70.37 309.742 69.62 309.722 68.6C309.702 67.58 309.672 66.66 309.632 65.84C309.612 65.1 309.572 64.36 309.512 63.62C309.452 62.86 309.402 62.25 309.362 61.79L318.242 61.01C318.242 61.25 318.242 61.81 318.242 62.69C318.262 63.57 318.272 64.63 318.272 65.87C318.272 66.49 318.282 67.21 318.302 68.03C318.322 68.83 318.342 69.62 318.362 70.4C319.022 70.36 319.792 70.32 320.672 70.28C321.552 70.24 322.252 70.21 322.772 70.19C323.612 70.15 324.372 70.13 325.052 70.13C325.732 70.11 326.292 70.1 326.732 70.1C327.192 70.1 327.502 70.11 327.662 70.13C327.782 71.07 327.862 72.27 327.902 73.73C327.942 75.17 327.962 76.45 327.962 77.57C327.762 77.55 327.112 77.56 326.012 77.6C324.912 77.62 323.832 77.66 322.772 77.72C322.032 77.74 321.212 77.78 320.312 77.84C319.412 77.9 318.702 77.96 318.182 78.02C318.162 78.44 318.132 79.02 318.092 79.76C318.072 80.48 318.042 81.3 318.002 82.22C317.982 83.12 317.952 84.06 317.912 85.04C317.892 86 317.872 86.93 317.852 87.83C317.832 88.73 317.822 89.53 317.822 90.23C317.822 91.55 317.882 92.74 318.002 93.8C318.142 94.84 318.432 95.67 318.872 96.29C319.332 96.89 320.032 97.19 320.972 97.19C321.592 97.19 322.122 97.01 322.562 96.65C323.002 96.29 323.362 95.87 323.642 95.39C323.942 94.89 324.202 94.45 324.422 94.07C324.682 94.43 325.042 94.91 325.502 95.51C325.982 96.09 326.482 96.7 327.002 97.34C327.542 97.98 328.022 98.55 328.442 99.05C328.882 99.55 329.172 99.89 329.312 100.07ZM352.797 90.8C351.437 90.8 350.217 90.78 349.137 90.74C348.057 90.7 347.017 90.65 346.017 90.59C345.037 90.53 343.977 90.44 342.837 90.32C342.837 87.64 343.367 85.24 344.427 83.12C345.507 81 347.037 79.06 349.017 77.3C350.117 76.32 350.987 75.38 351.627 74.48C352.287 73.56 352.617 72.64 352.617 71.72C352.617 70.6 352.237 69.73 351.477 69.11C350.737 68.49 349.727 68.18 348.447 68.18C347.447 68.18 346.547 68.33 345.747 68.63C344.947 68.93 344.227 69.37 343.587 69.95C342.967 70.51 342.417 71.19 341.937 71.99C341.477 72.77 341.067 73.66 340.707 74.66L333.117 70.34C333.637 68.08 334.647 66.17 336.147 64.61C337.667 63.05 339.507 61.87 341.667 61.07C343.847 60.25 346.147 59.84 348.567 59.84C351.187 59.84 353.537 60.24 355.617 61.04C357.717 61.82 359.377 63.01 360.597 64.61C361.817 66.19 362.427 68.18 362.427 70.58C362.427 72.36 362.197 73.87 361.737 75.11C361.277 76.33 360.667 77.38 359.907 78.26C359.167 79.14 358.367 79.96 357.507 80.72C356.727 81.42 355.977 82.26 355.257 83.24C354.557 84.22 353.977 85.34 353.517 86.6C353.077 87.84 352.837 89.24 352.797 90.8ZM348.477 104.3C346.817 104.3 345.367 103.83 344.127 102.89C342.907 101.93 342.297 100.59 342.297 98.87C342.297 97.93 342.577 97.05 343.137 96.23C343.697 95.39 344.437 94.72 345.357 94.22C346.277 93.7 347.247 93.44 348.267 93.44C350.087 93.44 351.597 93.91 352.797 94.85C354.017 95.77 354.627 96.99 354.627 98.51C354.627 99.59 354.337 100.57 353.757 101.45C353.197 102.33 352.447 103.03 351.507 103.55C350.587 104.05 349.577 104.3 348.477 104.3Z" fill="black"/>
</svg>
