<svg width="401" height="120" viewBox="0 0 401 120" fill="none" xmlns="http://www.w3.org/2000/svg">
<path d="M22.6065 44.45C22.2865 43.45 21.9365 42.34 21.5565 41.12C21.1965 39.9 20.8265 38.66 20.4465 37.4C20.0865 36.12 19.7465 34.88 19.4265 33.68C19.1265 32.48 18.8465 31.38 18.5865 30.38C18.3465 29.38 18.1765 28.55 18.0765 27.89L19.2165 27.74C19.1365 28.02 18.9665 28.53 18.7065 29.27C18.4465 29.99 18.1365 30.86 17.7765 31.88C17.4165 32.9 17.0165 33.99 16.5765 35.15C16.1565 36.29 15.7165 37.42 15.2565 38.54C14.8165 39.66 14.3965 40.7 13.9965 41.66C13.6165 42.6 13.2865 43.38 13.0065 44L2.38648 43.58C2.20648 41.98 2.01648 40.07 1.81648 37.85C1.63648 35.61 1.45648 33.15 1.27648 30.47C1.09648 27.77 0.936478 24.93 0.796478 21.95C0.656478 18.97 0.546478 15.91 0.466478 12.77C0.386478 9.63 0.346478 6.51 0.346478 3.41L10.7865 3.8C10.7865 5.5 10.7665 7.42 10.7265 9.56C10.6865 11.68 10.6365 13.87 10.5765 16.13C10.5365 18.37 10.4965 20.56 10.4565 22.7C10.4165 24.84 10.3765 26.79 10.3365 28.55C10.3165 30.31 10.3165 31.76 10.3365 32.9L9.79648 33.44C10.0165 32.84 10.2865 32.02 10.6065 30.98C10.9465 29.92 11.3165 28.75 11.7165 27.47C12.1165 26.17 12.5165 24.83 12.9165 23.45C13.3165 22.07 13.6865 20.72 14.0265 19.4C14.3665 18.08 14.6565 16.89 14.8965 15.83C15.1365 14.75 15.2765 13.88 15.3165 13.22L22.3965 13.07C22.4165 13.45 22.4965 14.19 22.6365 15.29C22.7965 16.37 22.9965 17.66 23.2365 19.16C23.4965 20.66 23.7765 22.24 24.0765 23.9C24.3765 25.54 24.6665 27.14 24.9465 28.7C25.2465 30.24 25.5265 31.61 25.7865 32.81C26.0665 33.99 26.3065 34.84 26.5065 35.36L25.1865 35.45C25.5665 33.37 25.8965 30.92 26.1765 28.1C26.4765 25.28 26.7265 22.35 26.9265 19.31C27.1265 16.27 27.2665 13.37 27.3465 10.61C27.4465 7.83 27.4965 5.47 27.4965 3.53L36.9465 2.57C36.9465 6.05 36.8065 9.59 36.5265 13.19C36.2465 16.79 35.8865 20.27 35.4465 23.63C35.0065 26.99 34.5565 30.06 34.0965 32.84C33.6365 35.62 33.2165 37.95 32.8365 39.83C32.4565 41.69 32.1965 42.93 32.0565 43.55L22.6065 44.45ZM52.959 44.33C52.499 44.41 51.849 44.47 51.009 44.51C50.189 44.55 49.339 44.57 48.459 44.57C47.419 44.57 46.449 44.53 45.549 44.45C44.649 44.39 43.989 44.28 43.569 44.12C43.729 42.92 43.869 41.36 43.989 39.44C44.129 37.5 44.239 35.33 44.319 32.93C44.419 30.53 44.469 28.01 44.469 25.37C44.469 22.67 44.419 19.92 44.319 17.12C44.239 14.32 44.129 11.62 43.989 9.02C43.849 6.4 43.719 4.01 43.599 1.85C43.739 1.79 44.179 1.7 44.919 1.58C45.659 1.46 46.519 1.34 47.499 1.22C48.479 1.08 49.409 0.959997 50.289 0.859998C51.169 0.759998 51.829 0.709998 52.269 0.709998C52.589 2.21 52.869 4 53.109 6.08C53.349 8.16 53.549 10.44 53.709 12.92C53.869 15.38 53.979 17.96 54.039 20.66C54.719 19.9 55.579 19.22 56.619 18.62C57.659 18 58.789 17.52 60.009 17.18C61.249 16.82 62.479 16.64 63.699 16.64C66.139 16.64 68.009 17.11 69.309 18.05C70.609 18.97 71.509 20.32 72.009 22.1C72.529 23.86 72.789 26.01 72.789 28.55C72.789 30.15 72.719 31.87 72.579 33.71C72.459 35.55 72.299 37.36 72.099 39.14C71.899 40.92 71.679 42.52 71.439 43.94C70.739 44.04 70.019 44.12 69.279 44.18C68.539 44.24 67.799 44.27 67.059 44.27C66.239 44.27 65.429 44.23 64.629 44.15C63.849 44.09 63.139 44 62.499 43.88C62.639 42.98 62.789 41.92 62.949 40.7C63.109 39.48 63.259 38.23 63.399 36.95C63.539 35.65 63.649 34.42 63.729 33.26C63.829 32.08 63.879 31.08 63.879 30.26C63.879 29.08 63.759 28.08 63.519 27.26C63.299 26.44 62.929 25.82 62.409 25.4C61.909 24.96 61.229 24.74 60.369 24.74C59.629 24.74 58.929 24.88 58.269 25.16C57.609 25.42 56.999 25.76 56.439 26.18C55.899 26.58 55.419 27 54.999 27.44C54.579 27.86 54.249 28.23 54.009 28.55C54.009 30.61 53.959 32.67 53.859 34.73C53.759 36.77 53.629 38.63 53.469 40.31C53.309 41.99 53.139 43.33 52.959 44.33ZM92.6504 44.51C90.1904 44.51 87.9404 44.18 85.9004 43.52C83.8604 42.84 82.2304 41.75 81.0104 40.25C79.8104 38.73 79.2104 36.72 79.2104 34.22C79.2104 31.72 79.9104 29.71 81.3104 28.19C82.7304 26.65 84.5904 25.54 86.8904 24.86C89.2104 24.16 91.7004 23.81 94.3604 23.81C95.4004 23.81 96.4004 23.89 97.3604 24.05C98.3204 24.21 99.1604 24.4 99.8804 24.62C100.62 24.84 101.15 25.05 101.47 25.25C101.45 24.73 101.34 24.18 101.14 23.6C100.96 23.02 100.7 22.53 100.36 22.13C99.7604 21.31 98.9404 20.63 97.9004 20.09C96.8804 19.53 95.5304 19.25 93.8504 19.25C92.1504 19.25 90.6504 19.64 89.3504 20.42C88.0504 21.18 87.0604 22.04 86.3804 23L79.0604 18.29C79.9604 17.01 81.1704 15.89 82.6904 14.93C84.2304 13.97 85.9704 13.22 87.9104 12.68C89.8704 12.14 91.9204 11.87 94.0604 11.87C97.6004 11.87 100.47 12.45 102.67 13.61C104.87 14.77 106.5 16.39 107.56 18.47C108.06 19.47 108.47 20.57 108.79 21.77C109.11 22.97 109.33 24.35 109.45 25.91C109.53 27.25 109.59 28.5 109.63 29.66C109.67 30.82 109.71 31.92 109.75 32.96C109.79 34.48 109.96 35.47 110.26 35.93C110.56 36.39 110.99 36.62 111.55 36.62C112.07 36.62 112.53 36.48 112.93 36.2C113.35 35.9 113.62 35.51 113.74 35.03L116.86 41C116.64 41.92 116.02 42.69 115 43.31C113.98 43.93 112.69 44.24 111.13 44.24C109.99 44.24 108.91 44.05 107.89 43.67C106.87 43.27 106.03 42.74 105.37 42.08C104.71 41.4 104.32 40.63 104.2 39.77C103.88 40.53 103.21 41.28 102.19 42.02C101.17 42.74 99.8604 43.34 98.2604 43.82C96.6604 44.28 94.7904 44.51 92.6504 44.51ZM94.6604 37.46C95.6004 37.46 96.5604 37.32 97.5404 37.04C98.5404 36.74 99.4404 36.37 100.24 35.93C101.06 35.49 101.69 35.04 102.13 34.58C102.09 33.96 102.05 33.32 102.01 32.66C101.99 32 101.99 31.44 102.01 30.98C101.57 30.8 100.73 30.61 99.4904 30.41C98.2704 30.19 96.9904 30.08 95.6504 30.08C94.4304 30.08 93.2904 30.21 92.2304 30.47C91.1704 30.73 90.3004 31.13 89.6204 31.67C88.9604 32.21 88.6304 32.91 88.6304 33.77C88.6304 34.69 88.8804 35.42 89.3804 35.96C89.8804 36.5 90.5804 36.89 91.4804 37.13C92.3804 37.35 93.4404 37.46 94.6604 37.46ZM141.916 40.07C141.536 40.81 140.936 41.6 140.116 42.44C139.316 43.26 138.266 43.96 136.966 44.54C135.686 45.14 134.126 45.44 132.286 45.44C129.866 45.44 127.886 44.93 126.346 43.91C124.826 42.89 123.696 41.53 122.956 39.83C122.236 38.13 121.876 36.27 121.876 34.25C121.876 33.15 121.886 31.98 121.906 30.74C121.946 29.48 121.986 28.24 122.026 27.02C122.066 25.78 122.106 24.61 122.146 23.51C122.206 22.39 122.256 21.41 122.296 20.57C122.356 19.73 122.396 19.08 122.416 18.62C120.836 18.78 119.376 18.96 118.036 19.16C116.696 19.34 115.766 19.49 115.246 19.61C115.046 18.49 114.896 17.35 114.796 16.19C114.696 15.03 114.616 14.02 114.556 13.16C114.516 12.3 114.496 11.77 114.496 11.57C115.656 11.41 116.896 11.27 118.216 11.15C119.536 11.01 120.926 10.91 122.386 10.85C122.366 10.37 122.346 9.62 122.326 8.6C122.306 7.58 122.276 6.66 122.236 5.84C122.216 5.1 122.176 4.36 122.116 3.62C122.056 2.86 122.006 2.25 121.966 1.79L130.846 1.01C130.846 1.25 130.846 1.81 130.846 2.69C130.866 3.57 130.876 4.63 130.876 5.87C130.876 6.49 130.886 7.21 130.906 8.03C130.926 8.83 130.946 9.62 130.966 10.4C131.626 10.36 132.396 10.32 133.276 10.28C134.156 10.24 134.856 10.21 135.376 10.19C136.216 10.15 136.976 10.13 137.656 10.13C138.336 10.11 138.896 10.1 139.336 10.1C139.796 10.1 140.106 10.11 140.266 10.13C140.386 11.07 140.466 12.27 140.506 13.73C140.546 15.17 140.566 16.45 140.566 17.57C140.366 17.55 139.716 17.56 138.616 17.6C137.516 17.62 136.436 17.66 135.376 17.72C134.636 17.74 133.816 17.78 132.916 17.84C132.016 17.9 131.306 17.96 130.786 18.02C130.766 18.44 130.736 19.02 130.696 19.76C130.676 20.48 130.646 21.3 130.606 22.22C130.586 23.12 130.556 24.06 130.516 25.04C130.496 26 130.476 26.93 130.456 27.83C130.436 28.73 130.426 29.53 130.426 30.23C130.426 31.55 130.486 32.74 130.606 33.8C130.746 34.84 131.036 35.67 131.476 36.29C131.936 36.89 132.636 37.19 133.576 37.19C134.196 37.19 134.726 37.01 135.166 36.65C135.606 36.29 135.966 35.87 136.246 35.39C136.546 34.89 136.806 34.45 137.026 34.07C137.286 34.43 137.646 34.91 138.106 35.51C138.586 36.09 139.086 36.7 139.606 37.34C140.146 37.98 140.626 38.55 141.046 39.05C141.486 39.55 141.776 39.89 141.916 40.07ZM152.712 16.43C152.132 16.07 151.502 15.56 150.822 14.9C150.142 14.24 149.612 13.58 149.232 12.92C149.572 12.72 150.032 12.4 150.612 11.96C151.212 11.52 151.772 11.05 152.292 10.55C152.812 10.05 153.102 9.61 153.162 9.23C153.042 9.35 152.832 9.46 152.532 9.56C152.252 9.66 151.912 9.71 151.512 9.71C150.212 9.71 149.222 9.32 148.542 8.54C147.862 7.74 147.522 6.81 147.522 5.75C147.522 4.15 148.072 2.89 149.172 1.97C150.292 1.03 151.632 0.559998 153.192 0.559998C154.972 0.559998 156.442 1.08 157.602 2.12C158.762 3.16 159.342 4.51 159.342 6.17C159.342 7.79 159.032 9.27 158.412 10.61C157.792 11.95 156.972 13.11 155.952 14.09C154.952 15.07 153.872 15.85 152.712 16.43ZM174.985 46.37C172.645 46.37 170.495 46.08 168.535 45.5C166.595 44.94 164.945 44.28 163.585 43.52C162.245 42.74 161.275 42.04 160.675 41.42C160.795 41.04 161.025 40.49 161.365 39.77C161.725 39.03 162.145 38.23 162.625 37.37C163.105 36.51 163.585 35.71 164.065 34.97C164.545 34.23 164.975 33.68 165.355 33.32C166.315 34.14 167.355 34.95 168.475 35.75C169.595 36.53 170.745 37.17 171.925 37.67C173.105 38.17 174.205 38.42 175.225 38.42C176.025 38.42 176.745 38.32 177.385 38.12C178.025 37.9 178.525 37.58 178.885 37.16C179.265 36.74 179.455 36.22 179.455 35.6C179.455 34.88 179.105 34.19 178.405 33.53C177.725 32.85 176.845 32.21 175.765 31.61C174.685 31.01 173.555 30.47 172.375 29.99C170.755 29.33 169.245 28.56 167.845 27.68C166.445 26.78 165.315 25.68 164.455 24.38C163.595 23.06 163.165 21.42 163.165 19.46C163.165 17.46 163.755 15.78 164.935 14.42C166.115 13.06 167.655 12.03 169.555 11.33C171.475 10.63 173.525 10.28 175.705 10.28C177.765 10.28 179.855 10.57 181.975 11.15C184.095 11.71 185.825 12.52 187.165 13.58C187.045 13.96 186.785 14.54 186.385 15.32C186.005 16.1 185.535 16.94 184.975 17.84C184.435 18.72 183.855 19.53 183.235 20.27C182.415 19.57 181.385 18.9 180.145 18.26C178.905 17.62 177.605 17.3 176.245 17.3C175.565 17.3 174.885 17.37 174.205 17.51C173.545 17.65 172.995 17.9 172.555 18.26C172.135 18.62 171.925 19.11 171.925 19.73C171.925 20.33 172.155 20.87 172.615 21.35C173.075 21.81 173.745 22.26 174.625 22.7C175.525 23.14 176.575 23.6 177.775 24.08C178.975 24.56 180.195 25.13 181.435 25.79C182.675 26.43 183.815 27.2 184.855 28.1C185.915 29 186.765 30.05 187.405 31.25C188.045 32.43 188.365 33.79 188.365 35.33C188.365 37.79 187.755 39.84 186.535 41.48C185.315 43.12 183.685 44.34 181.645 45.14C179.625 45.96 177.405 46.37 174.985 46.37ZM226.029 43.94C225.689 43.96 225.039 44 224.079 44.06C223.139 44.14 222.139 44.18 221.079 44.18C220.299 44.18 219.509 44.15 218.709 44.09C217.929 44.05 217.159 43.99 216.399 43.91C216.499 43.39 216.609 42.33 216.729 40.73C216.869 39.11 216.999 37.21 217.119 35.03C217.259 32.85 217.389 30.6 217.509 28.28C217.649 25.94 217.749 23.75 217.809 21.71C217.889 19.67 217.929 18.03 217.929 16.79C218.329 16.77 218.919 16.74 219.699 16.7C220.479 16.66 221.319 16.63 222.219 16.61C223.119 16.57 223.979 16.54 224.799 16.52C225.619 16.48 226.269 16.46 226.749 16.46C226.849 17.08 226.929 18.08 226.989 19.46C227.049 20.84 227.079 22.38 227.079 24.08C227.079 25.9 227.049 27.83 226.989 29.87C226.949 31.91 226.879 33.89 226.779 35.81C226.699 37.71 226.589 39.39 226.449 40.85C226.309 42.29 226.169 43.32 226.029 43.94ZM222.669 12.59C220.869 12.59 219.359 12.07 218.139 11.03C216.919 9.97 216.309 8.58 216.309 6.86C216.309 5.68 216.599 4.67 217.179 3.83C217.759 2.99 218.509 2.35 219.429 1.91C220.369 1.45 221.359 1.22 222.399 1.22C224.059 1.22 225.429 1.76 226.509 2.84C227.609 3.92 228.159 5.31 228.159 7.01C228.159 8.59 227.639 9.92 226.599 11C225.559 12.06 224.249 12.59 222.669 12.59ZM246.753 44.39C246.153 44.41 245.413 44.41 244.533 44.39C243.653 44.39 242.753 44.38 241.833 44.36C241.093 44.34 240.243 44.31 239.283 44.27C238.323 44.23 237.653 44.19 237.273 44.15C237.453 42.47 237.603 40.57 237.723 38.45C237.863 36.33 237.973 33.98 238.053 31.4C238.133 28.82 238.193 26 238.233 22.94C238.273 19.88 238.293 16.57 238.293 13.01C239.053 12.91 239.953 12.83 240.993 12.77C242.033 12.71 243.083 12.68 244.143 12.68C244.883 12.68 245.593 12.7 246.273 12.74C246.973 12.76 247.593 12.82 248.133 12.92C248.133 13.1 248.133 13.47 248.133 14.03C248.153 14.57 248.153 15.17 248.133 15.83C248.133 16.47 248.123 17.05 248.103 17.57C248.623 16.81 249.473 16.02 250.653 15.2C251.833 14.36 253.203 13.65 254.763 13.07C256.323 12.49 257.933 12.2 259.593 12.2C262.653 12.2 264.993 12.82 266.613 14.06C268.233 15.28 269.343 17.12 269.943 19.58C270.543 22.02 270.843 25.08 270.843 28.76C270.843 30.04 270.803 31.54 270.723 33.26C270.663 34.96 270.563 36.75 270.423 38.63C270.283 40.51 270.103 42.33 269.883 44.09C269.483 44.13 268.843 44.16 267.963 44.18C267.103 44.22 266.193 44.24 265.233 44.24C264.213 44.24 263.243 44.22 262.323 44.18C261.403 44.16 260.723 44.13 260.283 44.09C260.503 42.97 260.743 41.57 261.003 39.89C261.263 38.21 261.483 36.42 261.663 34.52C261.843 32.6 261.933 30.77 261.933 29.03C261.933 27.35 261.793 25.89 261.513 24.65C261.253 23.41 260.743 22.45 259.983 21.77C259.243 21.07 258.143 20.72 256.683 20.72C255.483 20.72 254.333 20.93 253.233 21.35C252.133 21.77 251.133 22.29 250.233 22.91C249.333 23.51 248.563 24.1 247.923 24.68C247.903 27.84 247.823 30.7 247.683 33.26C247.543 35.8 247.393 38.01 247.233 39.89C247.073 41.75 246.913 43.25 246.753 44.39ZM291.636 46.37C289.296 46.37 287.146 46.08 285.186 45.5C283.246 44.94 281.596 44.28 280.236 43.52C278.896 42.74 277.926 42.04 277.326 41.42C277.446 41.04 277.676 40.49 278.016 39.77C278.376 39.03 278.796 38.23 279.276 37.37C279.756 36.51 280.236 35.71 280.716 34.97C281.196 34.23 281.626 33.68 282.006 33.32C282.966 34.14 284.006 34.95 285.126 35.75C286.246 36.53 287.396 37.17 288.576 37.67C289.756 38.17 290.856 38.42 291.876 38.42C292.676 38.42 293.396 38.32 294.036 38.12C294.676 37.9 295.176 37.58 295.536 37.16C295.916 36.74 296.106 36.22 296.106 35.6C296.106 34.88 295.756 34.19 295.056 33.53C294.376 32.85 293.496 32.21 292.416 31.61C291.336 31.01 290.206 30.47 289.026 29.99C287.406 29.33 285.896 28.56 284.496 27.68C283.096 26.78 281.966 25.68 281.106 24.38C280.246 23.06 279.816 21.42 279.816 19.46C279.816 17.46 280.406 15.78 281.586 14.42C282.766 13.06 284.306 12.03 286.206 11.33C288.126 10.63 290.176 10.28 292.356 10.28C294.416 10.28 296.506 10.57 298.626 11.15C300.746 11.71 302.476 12.52 303.816 13.58C303.696 13.96 303.436 14.54 303.036 15.32C302.656 16.1 302.186 16.94 301.626 17.84C301.086 18.72 300.506 19.53 299.886 20.27C299.066 19.57 298.036 18.9 296.796 18.26C295.556 17.62 294.256 17.3 292.896 17.3C292.216 17.3 291.536 17.37 290.856 17.51C290.196 17.65 289.646 17.9 289.206 18.26C288.786 18.62 288.576 19.11 288.576 19.73C288.576 20.33 288.806 20.87 289.266 21.35C289.726 21.81 290.396 22.26 291.276 22.7C292.176 23.14 293.226 23.6 294.426 24.08C295.626 24.56 296.846 25.13 298.086 25.79C299.326 26.43 300.466 27.2 301.506 28.1C302.566 29 303.416 30.05 304.056 31.25C304.696 32.43 305.016 33.79 305.016 35.33C305.016 37.79 304.406 39.84 303.186 41.48C301.966 43.12 300.336 44.34 298.296 45.14C296.276 45.96 294.056 46.37 291.636 46.37ZM321.823 43.94C321.483 43.96 320.833 44 319.873 44.06C318.933 44.14 317.933 44.18 316.873 44.18C316.093 44.18 315.303 44.15 314.503 44.09C313.723 44.05 312.953 43.99 312.193 43.91C312.293 43.39 312.403 42.33 312.523 40.73C312.663 39.11 312.793 37.21 312.913 35.03C313.053 32.85 313.183 30.6 313.303 28.28C313.443 25.94 313.543 23.75 313.603 21.71C313.683 19.67 313.723 18.03 313.723 16.79C314.123 16.77 314.713 16.74 315.493 16.7C316.273 16.66 317.113 16.63 318.013 16.61C318.913 16.57 319.773 16.54 320.593 16.52C321.413 16.48 322.063 16.46 322.543 16.46C322.643 17.08 322.723 18.08 322.783 19.46C322.843 20.84 322.873 22.38 322.873 24.08C322.873 25.9 322.843 27.83 322.783 29.87C322.743 31.91 322.673 33.89 322.573 35.81C322.493 37.71 322.383 39.39 322.243 40.85C322.103 42.29 321.963 43.32 321.823 43.94ZM318.463 12.59C316.663 12.59 315.153 12.07 313.933 11.03C312.713 9.97 312.103 8.58 312.103 6.86C312.103 5.68 312.393 4.67 312.973 3.83C313.553 2.99 314.303 2.35 315.223 1.91C316.163 1.45 317.153 1.22 318.193 1.22C319.853 1.22 321.223 1.76 322.303 2.84C323.403 3.92 323.953 5.31 323.953 7.01C323.953 8.59 323.433 9.92 322.393 11C321.353 12.06 320.043 12.59 318.463 12.59ZM354.007 43.91C353.967 43.63 353.937 43.23 353.917 42.71C353.897 42.19 353.877 41.66 353.857 41.12C353.857 40.56 353.857 40.11 353.857 39.77C353.617 40.11 353.237 40.52 352.717 41C352.217 41.46 351.567 41.92 350.767 42.38C349.967 42.84 348.997 43.23 347.857 43.55C346.717 43.85 345.387 44 343.867 44C341.347 44 339.177 43.39 337.357 42.17C335.537 40.95 334.137 39.29 333.157 37.19C332.177 35.07 331.687 32.69 331.687 30.05C331.687 27.45 332.177 25.03 333.157 22.79C334.157 20.53 335.647 18.71 337.627 17.33C339.607 15.93 342.097 15.23 345.097 15.23C346.597 15.23 347.957 15.4 349.177 15.74C350.417 16.08 351.467 16.51 352.327 17.03C353.187 17.53 353.797 18.04 354.157 18.56C354.217 17.46 354.297 16.2 354.397 14.78C354.497 13.34 354.607 11.87 354.727 10.37C354.867 8.85 354.997 7.41 355.117 6.05C355.237 4.69 355.337 3.53 355.417 2.57C355.517 1.59 355.587 0.939998 355.627 0.619997C356.787 0.619997 358.087 0.689998 359.527 0.83C360.987 0.949998 362.277 1.16 363.397 1.46C363.057 6.04 362.787 10.62 362.587 15.2C362.387 19.76 362.247 24.43 362.167 29.21C362.107 33.97 362.077 38.96 362.077 44.18C361.617 44.18 360.857 44.17 359.797 44.15C358.757 44.13 357.687 44.1 356.587 44.06C355.487 44.02 354.627 43.97 354.007 43.91ZM346.357 35.27C347.237 35.27 348.047 35.17 348.787 34.97C349.527 34.77 350.207 34.5 350.827 34.16C351.447 33.8 351.987 33.42 352.447 33.02C352.927 32.6 353.327 32.18 353.647 31.76C353.647 31.36 353.647 30.87 353.647 30.29C353.647 29.69 353.647 29.09 353.647 28.49C353.667 27.89 353.677 27.32 353.677 26.78C353.697 26.24 353.717 25.82 353.737 25.52C353.297 25.1 352.687 24.69 351.907 24.29C351.127 23.89 350.267 23.57 349.327 23.33C348.407 23.07 347.467 22.94 346.507 22.94C344.547 22.94 343.017 23.53 341.917 24.71C340.837 25.87 340.297 27.38 340.297 29.24C340.297 31.2 340.817 32.7 341.857 33.74C342.917 34.76 344.417 35.27 346.357 35.27ZM400.036 38.63C399.476 39.31 398.776 39.98 397.936 40.64C397.096 41.3 396.086 41.9 394.906 42.44C393.746 42.96 392.416 43.38 390.916 43.7C389.416 44 387.736 44.15 385.876 44.15C382.856 44.15 380.176 43.58 377.836 42.44C375.496 41.28 373.666 39.57 372.346 37.31C371.046 35.03 370.396 32.2 370.396 28.82C370.396 25.44 371.076 22.5 372.436 20C373.796 17.48 375.696 15.53 378.136 14.15C380.576 12.75 383.426 12.05 386.686 12.05C390.806 12.05 394.046 13.2 396.406 15.5C398.786 17.78 400.026 20.94 400.126 24.98C400.146 25.72 400.136 26.39 400.096 26.99C400.056 27.59 399.976 28.23 399.856 28.91C399.556 28.89 398.916 28.87 397.936 28.85C396.956 28.83 395.846 28.81 394.606 28.79C393.386 28.75 392.226 28.72 391.126 28.7C390.046 28.68 389.246 28.67 388.726 28.67C386.986 28.67 385.296 28.75 383.656 28.91C382.036 29.07 380.676 29.24 379.576 29.42C379.576 29.78 379.596 30.14 379.636 30.5C379.696 30.84 379.776 31.17 379.876 31.49C380.136 32.31 380.586 33.01 381.226 33.59C381.886 34.17 382.666 34.62 383.566 34.94C384.486 35.24 385.456 35.39 386.476 35.39C387.396 35.39 388.236 35.28 388.996 35.06C389.776 34.82 390.486 34.51 391.126 34.13C391.766 33.75 392.346 33.34 392.866 32.9C393.406 32.44 393.906 31.99 394.366 31.55C394.486 31.65 394.796 31.95 395.296 32.45C395.796 32.93 396.356 33.53 396.976 34.25C397.596 34.95 398.186 35.69 398.746 36.47C399.306 37.25 399.736 37.97 400.036 38.63ZM379.906 23.81C380.806 23.67 381.916 23.54 383.236 23.42C384.556 23.3 386.086 23.24 387.826 23.24C388.766 23.24 389.596 23.25 390.316 23.27C391.056 23.29 391.576 23.31 391.876 23.33C391.876 22.91 391.816 22.45 391.696 21.95C391.536 21.27 391.216 20.62 390.736 20C390.276 19.38 389.676 18.88 388.936 18.5C388.216 18.12 387.346 17.93 386.326 17.93C385.046 17.93 383.926 18.21 382.966 18.77C382.026 19.33 381.296 20.06 380.776 20.96C380.256 21.86 379.966 22.81 379.906 23.81ZM31.2781 104.66C25.9781 104.66 21.9881 103.26 19.3081 100.46C16.6281 97.64 15.2881 93.55 15.2881 88.19C15.2881 84.61 15.9781 81.64 17.3581 79.28C18.7381 76.9 20.6481 75.11 23.0881 73.91C25.5481 72.71 28.3881 72.11 31.6081 72.11C34.8881 72.11 37.6081 72.86 39.7681 74.36C41.9481 75.86 43.5781 77.93 44.6581 80.57C45.7381 83.21 46.2781 86.26 46.2781 89.72C46.2781 92.74 45.6981 95.37 44.5381 97.61C43.3781 99.85 41.6781 101.59 39.4381 102.83C37.2181 104.05 34.4981 104.66 31.2781 104.66ZM30.9481 96.05C32.0481 96.05 33.0181 95.86 33.8581 95.48C34.7181 95.1 35.4381 94.56 36.0181 93.86C36.6181 93.14 37.0681 92.3 37.3681 91.34C37.6681 90.38 37.8181 89.33 37.8181 88.19C37.8181 86.41 37.5581 84.84 37.0381 83.48C36.5381 82.1 35.7881 81.03 34.7881 80.27C33.8081 79.49 32.5881 79.1 31.1281 79.1C29.5481 79.1 28.2581 79.5 27.2581 80.3C26.2581 81.1 25.5181 82.15 25.0381 83.45C24.5781 84.73 24.3481 86.1 24.3481 87.56C24.3481 90.02 24.9081 92.05 26.0281 93.65C27.1681 95.25 28.8081 96.05 30.9481 96.05ZM72.8544 74.66C73.3544 74.48 74.0644 74.35 74.9844 74.27C75.9244 74.17 76.8344 74.12 77.7144 74.12C78.4544 74.12 79.2744 74.15 80.1744 74.21C81.0744 74.27 81.8044 74.34 82.3644 74.42C82.6244 76.04 82.8244 77.68 82.9644 79.34C83.1044 80.98 83.1744 82.6 83.1744 84.2C83.1744 87.14 82.9144 89.91 82.3944 92.51C81.8944 95.11 81.0644 97.4 79.9044 99.38C78.7444 101.36 77.1944 102.91 75.2544 104.03C73.3144 105.17 70.9244 105.74 68.0844 105.74C65.0644 105.74 62.5744 105.15 60.6144 103.97C58.6544 102.77 57.1244 101.11 56.0244 98.99C54.9244 96.85 54.1544 94.36 53.7144 91.52C53.2944 88.66 53.0844 85.58 53.0844 82.28C53.0844 80.82 53.1144 79.34 53.1744 77.84C53.2544 76.32 53.3544 74.81 53.4744 73.31C53.9944 73.27 54.6744 73.24 55.5144 73.22C56.3744 73.18 57.1544 73.17 57.8544 73.19C58.8544 73.19 59.8544 73.25 60.8544 73.37C61.8744 73.47 62.6744 73.61 63.2544 73.79C63.1144 75.15 62.9944 76.62 62.8944 78.2C62.7944 79.76 62.7444 81.33 62.7444 82.91C62.7444 85.55 62.9144 87.93 63.2544 90.05C63.6144 92.17 64.2044 93.85 65.0244 95.09C65.8444 96.33 66.9544 96.95 68.3544 96.95C69.6744 96.95 70.7244 96.39 71.5044 95.27C72.3044 94.15 72.8744 92.65 73.2144 90.77C73.5744 88.87 73.7544 86.75 73.7544 84.41C73.7544 82.65 73.6644 80.92 73.4844 79.22C73.3244 77.5 73.1144 75.98 72.8544 74.66ZM99.3364 77.12C99.7964 76.22 100.496 75.36 101.436 74.54C102.396 73.72 103.526 73.05 104.826 72.53C106.146 72.01 107.546 71.75 109.026 71.75C109.926 71.75 110.836 71.84 111.756 72.02C112.676 72.2 113.346 72.44 113.766 72.74L111.906 82.28C111.466 82.1 110.896 81.9 110.196 81.68C109.496 81.46 108.696 81.35 107.796 81.35C106.876 81.35 105.976 81.51 105.096 81.83C104.236 82.13 103.436 82.56 102.696 83.12C101.956 83.68 101.306 84.35 100.746 85.13C100.946 86.29 101.166 87.77 101.406 89.57C101.666 91.37 101.906 93.22 102.126 95.12C102.346 97.02 102.526 98.75 102.666 100.31C102.806 101.87 102.876 103.01 102.876 103.73C101.476 103.91 99.8564 104.03 98.0164 104.09C96.1764 104.15 94.4064 104.17 92.7064 104.15C92.7064 102.47 92.6564 100.56 92.5564 98.42C92.4764 96.28 92.3564 94.05 92.1964 91.73C92.0364 89.39 91.8364 87.09 91.5964 84.83C91.3764 82.55 91.1164 80.44 90.8164 78.5C90.5364 76.56 90.2364 74.91 89.9164 73.55C90.8764 73.27 91.9364 73.01 93.0964 72.77C94.2564 72.53 95.3064 72.34 96.2464 72.2C97.1864 72.04 97.7864 71.95 98.0464 71.93C98.2864 72.49 98.5564 73.32 98.8564 74.42C99.1564 75.5 99.3164 76.4 99.3364 77.12ZM164.849 100.07C164.469 100.81 163.869 101.6 163.049 102.44C162.249 103.26 161.199 103.96 159.899 104.54C158.619 105.14 157.059 105.44 155.219 105.44C152.799 105.44 150.819 104.93 149.279 103.91C147.759 102.89 146.629 101.53 145.889 99.83C145.169 98.13 144.809 96.27 144.809 94.25C144.809 93.15 144.819 91.98 144.839 90.74C144.879 89.48 144.919 88.24 144.959 87.02C144.999 85.78 145.039 84.61 145.079 83.51C145.139 82.39 145.189 81.41 145.229 80.57C145.289 79.73 145.329 79.08 145.349 78.62C143.769 78.78 142.309 78.96 140.969 79.16C139.629 79.34 138.699 79.49 138.179 79.61C137.979 78.49 137.829 77.35 137.729 76.19C137.629 75.03 137.549 74.02 137.489 73.16C137.449 72.3 137.429 71.77 137.429 71.57C138.589 71.41 139.829 71.27 141.149 71.15C142.469 71.01 143.859 70.91 145.319 70.85C145.299 70.37 145.279 69.62 145.259 68.6C145.239 67.58 145.209 66.66 145.169 65.84C145.149 65.1 145.109 64.36 145.049 63.62C144.989 62.86 144.939 62.25 144.899 61.79L153.779 61.01C153.779 61.25 153.779 61.81 153.779 62.69C153.799 63.57 153.809 64.63 153.809 65.87C153.809 66.49 153.819 67.21 153.839 68.03C153.859 68.83 153.879 69.62 153.899 70.4C154.559 70.36 155.329 70.32 156.209 70.28C157.089 70.24 157.789 70.21 158.309 70.19C159.149 70.15 159.909 70.13 160.589 70.13C161.269 70.11 161.829 70.1 162.269 70.1C162.729 70.1 163.039 70.11 163.199 70.13C163.319 71.07 163.399 72.27 163.439 73.73C163.479 75.17 163.499 76.45 163.499 77.57C163.299 77.55 162.649 77.56 161.549 77.6C160.449 77.62 159.369 77.66 158.309 77.72C157.569 77.74 156.749 77.78 155.849 77.84C154.949 77.9 154.239 77.96 153.719 78.02C153.699 78.44 153.669 79.02 153.629 79.76C153.609 80.48 153.579 81.3 153.539 82.22C153.519 83.12 153.489 84.06 153.449 85.04C153.429 86 153.409 86.93 153.389 87.83C153.369 88.73 153.359 89.53 153.359 90.23C153.359 91.55 153.419 92.74 153.539 93.8C153.679 94.84 153.969 95.67 154.409 96.29C154.869 96.89 155.569 97.19 156.509 97.19C157.129 97.19 157.659 97.01 158.099 96.65C158.539 96.29 158.899 95.87 159.179 95.39C159.479 94.89 159.739 94.45 159.959 94.07C160.219 94.43 160.579 94.91 161.039 95.51C161.519 96.09 162.019 96.7 162.539 97.34C163.079 97.98 163.559 98.55 163.979 99.05C164.419 99.55 164.709 99.89 164.849 100.07ZM190.794 74.66C191.294 74.48 192.004 74.35 192.924 74.27C193.864 74.17 194.774 74.12 195.654 74.12C196.394 74.12 197.214 74.15 198.114 74.21C199.014 74.27 199.744 74.34 200.304 74.42C200.564 76.04 200.764 77.68 200.904 79.34C201.044 80.98 201.114 82.6 201.114 84.2C201.114 87.14 200.854 89.91 200.334 92.51C199.834 95.11 199.004 97.4 197.844 99.38C196.684 101.36 195.134 102.91 193.194 104.03C191.254 105.17 188.864 105.74 186.024 105.74C183.004 105.74 180.514 105.15 178.554 103.97C176.594 102.77 175.064 101.11 173.964 98.99C172.864 96.85 172.094 94.36 171.654 91.52C171.234 88.66 171.024 85.58 171.024 82.28C171.024 80.82 171.054 79.34 171.114 77.84C171.194 76.32 171.294 74.81 171.414 73.31C171.934 73.27 172.614 73.24 173.454 73.22C174.314 73.18 175.094 73.17 175.794 73.19C176.794 73.19 177.794 73.25 178.794 73.37C179.814 73.47 180.614 73.61 181.194 73.79C181.054 75.15 180.934 76.62 180.834 78.2C180.734 79.76 180.684 81.33 180.684 82.91C180.684 85.55 180.854 87.93 181.194 90.05C181.554 92.17 182.144 93.85 182.964 95.09C183.784 96.33 184.894 96.95 186.294 96.95C187.614 96.95 188.664 96.39 189.444 95.27C190.244 94.15 190.814 92.65 191.154 90.77C191.514 88.87 191.694 86.75 191.694 84.41C191.694 82.65 191.604 80.92 191.424 79.22C191.264 77.5 191.054 75.98 190.794 74.66ZM210.526 104.24C210.426 102.94 210.326 101.28 210.226 99.26C210.146 97.24 210.066 95.05 209.986 92.69C209.926 90.31 209.866 87.95 209.806 85.61C209.766 83.27 209.736 81.11 209.716 79.13C209.696 77.13 209.686 75.52 209.686 74.3C210.166 74.18 210.806 74.06 211.606 73.94C212.406 73.8 213.256 73.68 214.156 73.58C215.056 73.46 215.906 73.37 216.706 73.31C217.526 73.23 218.186 73.19 218.686 73.19C218.706 73.51 218.726 73.92 218.746 74.42C218.766 74.9 218.776 75.4 218.776 75.92C218.796 76.44 218.806 76.91 218.806 77.33C218.806 77.75 218.806 78.07 218.806 78.29C218.926 77.91 219.206 77.42 219.646 76.82C220.086 76.22 220.686 75.62 221.446 75.02C222.226 74.42 223.166 73.92 224.266 73.52C225.366 73.1 226.636 72.89 228.076 72.89C229.456 72.89 230.626 73.15 231.586 73.67C232.546 74.19 233.346 74.87 233.986 75.71C234.626 76.55 235.126 77.46 235.486 78.44C235.666 78.92 235.806 79.41 235.906 79.91C236.026 80.41 236.116 80.9 236.176 81.38C236.616 79.92 237.346 78.53 238.366 77.21C239.406 75.87 240.696 74.78 242.236 73.94C243.776 73.08 245.546 72.65 247.546 72.65C249.946 72.65 251.916 73.08 253.456 73.94C255.016 74.8 256.226 76.07 257.086 77.75C257.946 79.43 258.546 81.49 258.886 83.93C259.226 86.37 259.396 89.16 259.396 92.3C259.396 93.54 259.366 94.84 259.306 96.2C259.266 97.56 259.206 98.93 259.126 100.31C259.046 101.69 258.966 103.03 258.886 104.33C258.166 104.37 257.416 104.4 256.636 104.42C255.856 104.46 255.076 104.48 254.296 104.48C253.516 104.48 252.716 104.46 251.896 104.42C251.096 104.4 250.286 104.36 249.466 104.3C249.866 101.32 250.196 98.58 250.456 96.08C250.716 93.56 250.846 91.35 250.846 89.45C250.846 86.67 250.526 84.55 249.886 83.09C249.266 81.63 248.196 80.9 246.676 80.9C245.296 80.9 244.176 81.32 243.316 82.16C242.456 83 241.786 84.16 241.306 85.64C240.826 87.12 240.476 88.84 240.256 90.8C240.056 92.74 239.916 94.82 239.836 97.04C239.796 98.16 239.756 99.33 239.716 100.55C239.676 101.77 239.656 103.01 239.656 104.27C239.256 104.29 238.686 104.31 237.946 104.33C237.226 104.37 236.466 104.39 235.666 104.39C234.726 104.39 233.816 104.37 232.936 104.33C232.076 104.31 231.446 104.27 231.046 104.21C231.026 102.85 231.016 101.57 231.016 100.37C231.016 99.17 231.016 97.94 231.016 96.68C231.016 94.4 230.956 92.3 230.836 90.38C230.736 88.44 230.516 86.76 230.176 85.34C229.836 83.9 229.326 82.78 228.646 81.98C227.986 81.18 227.086 80.78 225.946 80.78C225.166 80.78 224.406 80.95 223.666 81.29C222.926 81.63 222.246 82.07 221.626 82.61C221.026 83.15 220.516 83.75 220.096 84.41C219.696 85.05 219.416 85.69 219.256 86.33C219.376 89.51 219.506 92.41 219.646 95.03C219.786 97.65 219.916 99.79 220.036 101.45C220.156 103.09 220.236 104.08 220.276 104.42C220.056 104.44 219.596 104.46 218.896 104.48C218.196 104.5 217.586 104.51 217.066 104.51C215.806 104.51 214.546 104.48 213.286 104.42C212.026 104.36 211.106 104.3 210.526 104.24ZM268.649 104.24C268.549 102.94 268.449 101.28 268.349 99.26C268.269 97.24 268.189 95.05 268.109 92.69C268.049 90.31 267.989 87.95 267.929 85.61C267.889 83.27 267.859 81.11 267.839 79.13C267.819 77.13 267.809 75.52 267.809 74.3C268.289 74.18 268.929 74.06 269.729 73.94C270.529 73.8 271.379 73.68 272.279 73.58C273.179 73.46 274.029 73.37 274.829 73.31C275.649 73.23 276.309 73.19 276.809 73.19C276.829 73.51 276.849 73.92 276.869 74.42C276.889 74.9 276.899 75.4 276.899 75.92C276.919 76.44 276.929 76.91 276.929 77.33C276.929 77.75 276.929 78.07 276.929 78.29C277.049 77.91 277.329 77.42 277.769 76.82C278.209 76.22 278.809 75.62 279.569 75.02C280.349 74.42 281.289 73.92 282.389 73.52C283.489 73.1 284.759 72.89 286.199 72.89C287.579 72.89 288.749 73.15 289.709 73.67C290.669 74.19 291.469 74.87 292.109 75.71C292.749 76.55 293.249 77.46 293.609 78.44C293.789 78.92 293.929 79.41 294.029 79.91C294.149 80.41 294.239 80.9 294.299 81.38C294.739 79.92 295.469 78.53 296.489 77.21C297.529 75.87 298.819 74.78 300.359 73.94C301.899 73.08 303.669 72.65 305.669 72.65C308.069 72.65 310.039 73.08 311.579 73.94C313.139 74.8 314.349 76.07 315.209 77.75C316.069 79.43 316.669 81.49 317.009 83.93C317.349 86.37 317.519 89.16 317.519 92.3C317.519 93.54 317.489 94.84 317.429 96.2C317.389 97.56 317.329 98.93 317.249 100.31C317.169 101.69 317.089 103.03 317.009 104.33C316.289 104.37 315.539 104.4 314.759 104.42C313.979 104.46 313.199 104.48 312.419 104.48C311.639 104.48 310.839 104.46 310.019 104.42C309.219 104.4 308.409 104.36 307.589 104.3C307.989 101.32 308.319 98.58 308.579 96.08C308.839 93.56 308.969 91.35 308.969 89.45C308.969 86.67 308.649 84.55 308.009 83.09C307.389 81.63 306.319 80.9 304.799 80.9C303.419 80.9 302.299 81.32 301.439 82.16C300.579 83 299.909 84.16 299.429 85.64C298.949 87.12 298.599 88.84 298.379 90.8C298.179 92.74 298.039 94.82 297.959 97.04C297.919 98.16 297.879 99.33 297.839 100.55C297.799 101.77 297.779 103.01 297.779 104.27C297.379 104.29 296.809 104.31 296.069 104.33C295.349 104.37 294.589 104.39 293.789 104.39C292.849 104.39 291.939 104.37 291.059 104.33C290.199 104.31 289.569 104.27 289.169 104.21C289.149 102.85 289.139 101.57 289.139 100.37C289.139 99.17 289.139 97.94 289.139 96.68C289.139 94.4 289.079 92.3 288.959 90.38C288.859 88.44 288.639 86.76 288.299 85.34C287.959 83.9 287.449 82.78 286.769 81.98C286.109 81.18 285.209 80.78 284.069 80.78C283.289 80.78 282.529 80.95 281.789 81.29C281.049 81.63 280.369 82.07 279.749 82.61C279.149 83.15 278.639 83.75 278.219 84.41C277.819 85.05 277.539 85.69 277.379 86.33C277.499 89.51 277.629 92.41 277.769 95.03C277.909 97.65 278.039 99.79 278.159 101.45C278.279 103.09 278.359 104.08 278.399 104.42C278.179 104.44 277.719 104.46 277.019 104.48C276.319 104.5 275.709 104.51 275.189 104.51C273.929 104.51 272.669 104.48 271.409 104.42C270.149 104.36 269.229 104.3 268.649 104.24ZM337.183 119.81C334.123 119.81 331.383 119.35 328.963 118.43C326.543 117.51 324.553 116.53 322.993 115.49C323.233 114.83 323.603 113.98 324.103 112.94C324.623 111.92 325.153 110.92 325.693 109.94C326.233 108.98 326.673 108.26 327.013 107.78C327.713 108.24 328.623 108.75 329.743 109.31C330.883 109.87 332.123 110.36 333.463 110.78C334.803 111.2 336.143 111.41 337.483 111.41C338.943 111.41 340.163 111.03 341.143 110.27C342.143 109.51 342.953 108.5 343.573 107.24C344.193 105.98 344.643 104.59 344.923 103.07C345.223 101.55 345.383 100.02 345.403 98.48C344.963 99.24 344.353 99.96 343.573 100.64C342.793 101.3 341.883 101.84 340.843 102.26C339.823 102.66 338.683 102.86 337.423 102.86C334.363 102.86 331.973 102.03 330.253 100.37C328.553 98.69 327.363 96.42 326.683 93.56C326.023 90.7 325.693 87.5 325.693 83.96C325.693 82.58 325.723 81.14 325.783 79.64C325.843 78.14 325.913 76.58 325.993 74.96C326.333 74.86 326.843 74.8 327.523 74.78C328.203 74.74 328.943 74.72 329.743 74.72C330.843 74.72 331.923 74.75 332.983 74.81C334.043 74.87 334.763 74.94 335.143 75.02C335.083 75.36 334.993 75.98 334.873 76.88C334.753 77.78 334.643 78.85 334.543 80.09C334.463 81.33 334.423 82.6 334.423 83.9C334.423 85.16 334.483 86.41 334.603 87.65C334.723 88.87 334.933 89.98 335.233 90.98C335.553 91.98 336.003 92.78 336.583 93.38C337.163 93.98 337.903 94.28 338.803 94.28C340.183 94.28 341.303 93.78 342.163 92.78C343.023 91.78 343.663 90.38 344.083 88.58C344.523 86.78 344.783 84.69 344.863 82.31C344.883 81.55 344.903 80.8 344.923 80.06C344.943 79.3 344.953 78.59 344.953 77.93C344.953 77.27 344.943 76.71 344.923 76.25C344.923 75.77 344.913 75.45 344.893 75.29C345.373 75.25 345.843 75.22 346.303 75.2C346.763 75.16 347.223 75.14 347.683 75.14C349.523 75.14 351.343 75.34 353.143 75.74C353.243 78 353.293 80.58 353.293 83.48C353.293 85.32 353.273 87.29 353.233 89.39C353.193 91.47 353.123 93.6 353.023 95.78C352.943 97.96 352.843 100.14 352.723 102.32C352.543 105.74 351.863 108.76 350.683 111.38C349.523 114.02 347.823 116.08 345.583 117.56C343.343 119.06 340.543 119.81 337.183 119.81ZM378.227 90.8C376.867 90.8 375.647 90.78 374.567 90.74C373.487 90.7 372.447 90.65 371.447 90.59C370.467 90.53 369.407 90.44 368.267 90.32C368.267 87.64 368.797 85.24 369.857 83.12C370.937 81 372.467 79.06 374.447 77.3C375.547 76.32 376.417 75.38 377.057 74.48C377.717 73.56 378.047 72.64 378.047 71.72C378.047 70.6 377.667 69.73 376.907 69.11C376.167 68.49 375.157 68.18 373.877 68.18C372.877 68.18 371.977 68.33 371.177 68.63C370.377 68.93 369.657 69.37 369.017 69.95C368.397 70.51 367.847 71.19 367.367 71.99C366.907 72.77 366.497 73.66 366.137 74.66L358.547 70.34C359.067 68.08 360.077 66.17 361.577 64.61C363.097 63.05 364.937 61.87 367.097 61.07C369.277 60.25 371.577 59.84 373.997 59.84C376.617 59.84 378.967 60.24 381.047 61.04C383.147 61.82 384.807 63.01 386.027 64.61C387.247 66.19 387.857 68.18 387.857 70.58C387.857 72.36 387.627 73.87 387.167 75.11C386.707 76.33 386.097 77.38 385.337 78.26C384.597 79.14 383.797 79.96 382.937 80.72C382.157 81.42 381.407 82.26 380.687 83.24C379.987 84.22 379.407 85.34 378.947 86.6C378.507 87.84 378.267 89.24 378.227 90.8ZM373.907 104.3C372.247 104.3 370.797 103.83 369.557 102.89C368.337 101.93 367.727 100.59 367.727 98.87C367.727 97.93 368.007 97.05 368.567 96.23C369.127 95.39 369.867 94.72 370.787 94.22C371.707 93.7 372.677 93.44 373.697 93.44C375.517 93.44 377.027 93.91 378.227 94.85C379.447 95.77 380.057 96.99 380.057 98.51C380.057 99.59 379.767 100.57 379.187 101.45C378.627 102.33 377.877 103.03 376.937 103.55C376.017 104.05 375.007 104.3 373.907 104.3Z" fill="black"/>
</svg>
