<svg width="441" height="106" viewBox="0 0 441 106" fill="none" xmlns="http://www.w3.org/2000/svg">
<path d="M23.2444 44.45C22.9244 43.45 22.5744 42.34 22.1944 41.12C21.8344 39.9 21.4644 38.66 21.0844 37.4C20.7244 36.12 20.3844 34.88 20.0644 33.68C19.7644 32.48 19.4844 31.38 19.2244 30.38C18.9844 29.38 18.8144 28.55 18.7144 27.89L19.8544 27.74C19.7744 28.02 19.6044 28.53 19.3444 29.27C19.0844 29.99 18.7744 30.86 18.4144 31.88C18.0544 32.9 17.6544 33.99 17.2144 35.15C16.7944 36.29 16.3544 37.42 15.8944 38.54C15.4544 39.66 15.0344 40.7 14.6344 41.66C14.2544 42.6 13.9244 43.38 13.6444 44L3.02437 43.58C2.84437 41.98 2.65437 40.07 2.45437 37.85C2.27437 35.61 2.09437 33.15 1.91437 30.47C1.73437 27.77 1.57437 24.93 1.43437 21.95C1.29437 18.97 1.18437 15.91 1.10437 12.77C1.02437 9.63 0.984372 6.51 0.984372 3.41L11.4244 3.8C11.4244 5.5 11.4044 7.42 11.3644 9.56C11.3244 11.68 11.2744 13.87 11.2144 16.13C11.1744 18.37 11.1344 20.56 11.0944 22.7C11.0544 24.84 11.0144 26.79 10.9744 28.55C10.9544 30.31 10.9544 31.76 10.9744 32.9L10.4344 33.44C10.6544 32.84 10.9244 32.02 11.2444 30.98C11.5844 29.92 11.9544 28.75 12.3544 27.47C12.7544 26.17 13.1544 24.83 13.5544 23.45C13.9544 22.07 14.3244 20.72 14.6644 19.4C15.0044 18.08 15.2944 16.89 15.5344 15.83C15.7744 14.75 15.9144 13.88 15.9544 13.22L23.0344 13.07C23.0544 13.45 23.1344 14.19 23.2744 15.29C23.4344 16.37 23.6344 17.66 23.8744 19.16C24.1344 20.66 24.4144 22.24 24.7144 23.9C25.0144 25.54 25.3044 27.14 25.5844 28.7C25.8844 30.24 26.1644 31.61 26.4244 32.81C26.7044 33.99 26.9444 34.84 27.1444 35.36L25.8244 35.45C26.2044 33.37 26.5344 30.92 26.8144 28.1C27.1144 25.28 27.3644 22.35 27.5644 19.31C27.7644 16.27 27.9044 13.37 27.9844 10.61C28.0844 7.83 28.1344 5.47 28.1344 3.53L37.5844 2.57C37.5844 6.05 37.4444 9.59 37.1644 13.19C36.8844 16.79 36.5244 20.27 36.0844 23.63C35.6444 26.99 35.1944 30.06 34.7344 32.84C34.2744 35.62 33.8544 37.95 33.4744 39.83C33.0944 41.69 32.8344 42.93 32.6944 43.55L23.2444 44.45ZM53.5969 44.33C53.1369 44.41 52.4869 44.47 51.6469 44.51C50.8269 44.55 49.9769 44.57 49.0969 44.57C48.0569 44.57 47.0869 44.53 46.1869 44.45C45.2869 44.39 44.6269 44.28 44.2069 44.12C44.3669 42.92 44.5069 41.36 44.6269 39.44C44.7669 37.5 44.8769 35.33 44.9569 32.93C45.0569 30.53 45.1069 28.01 45.1069 25.37C45.1069 22.67 45.0569 19.92 44.9569 17.12C44.8769 14.32 44.7669 11.62 44.6269 9.02C44.4869 6.4 44.3569 4.01 44.2369 1.85C44.3769 1.79 44.8169 1.7 45.5569 1.58C46.2969 1.46 47.1569 1.34 48.1369 1.22C49.1169 1.08 50.0469 0.959997 50.9269 0.859998C51.8069 0.759998 52.4669 0.709998 52.9069 0.709998C53.2269 2.21 53.5069 4 53.7469 6.08C53.9869 8.16 54.1869 10.44 54.3469 12.92C54.5069 15.38 54.6169 17.96 54.6769 20.66C55.3569 19.9 56.2169 19.22 57.2569 18.62C58.2969 18 59.4269 17.52 60.6469 17.18C61.8869 16.82 63.1169 16.64 64.3369 16.64C66.7769 16.64 68.6469 17.11 69.9469 18.05C71.2469 18.97 72.1469 20.32 72.6469 22.1C73.1669 23.86 73.4269 26.01 73.4269 28.55C73.4269 30.15 73.3569 31.87 73.2169 33.71C73.0969 35.55 72.9369 37.36 72.7369 39.14C72.5369 40.92 72.3169 42.52 72.0769 43.94C71.3769 44.04 70.6569 44.12 69.9169 44.18C69.1769 44.24 68.4369 44.27 67.6969 44.27C66.8769 44.27 66.0669 44.23 65.2669 44.15C64.4869 44.09 63.7769 44 63.1369 43.88C63.2769 42.98 63.4269 41.92 63.5869 40.7C63.7469 39.48 63.8969 38.23 64.0369 36.95C64.1769 35.65 64.2869 34.42 64.3669 33.26C64.4669 32.08 64.5169 31.08 64.5169 30.26C64.5169 29.08 64.3969 28.08 64.1569 27.26C63.9369 26.44 63.5669 25.82 63.0469 25.4C62.5469 24.96 61.8669 24.74 61.0069 24.74C60.2669 24.74 59.5669 24.88 58.9069 25.16C58.2469 25.42 57.6369 25.76 57.0769 26.18C56.5369 26.58 56.0569 27 55.6369 27.44C55.2169 27.86 54.8869 28.23 54.6469 28.55C54.6469 30.61 54.5969 32.67 54.4969 34.73C54.3969 36.77 54.2669 38.63 54.1069 40.31C53.9469 41.99 53.7769 43.33 53.5969 44.33ZM93.2883 44.51C90.8283 44.51 88.5783 44.18 86.5383 43.52C84.4983 42.84 82.8683 41.75 81.6483 40.25C80.4483 38.73 79.8483 36.72 79.8483 34.22C79.8483 31.72 80.5483 29.71 81.9483 28.19C83.3683 26.65 85.2283 25.54 87.5283 24.86C89.8483 24.16 92.3383 23.81 94.9983 23.81C96.0383 23.81 97.0383 23.89 97.9983 24.05C98.9583 24.21 99.7983 24.4 100.518 24.62C101.258 24.84 101.788 25.05 102.108 25.25C102.088 24.73 101.978 24.18 101.778 23.6C101.598 23.02 101.338 22.53 100.998 22.13C100.398 21.31 99.5783 20.63 98.5383 20.09C97.5183 19.53 96.1683 19.25 94.4883 19.25C92.7883 19.25 91.2883 19.64 89.9883 20.42C88.6883 21.18 87.6983 22.04 87.0183 23L79.6983 18.29C80.5983 17.01 81.8083 15.89 83.3283 14.93C84.8683 13.97 86.6083 13.22 88.5483 12.68C90.5083 12.14 92.5583 11.87 94.6983 11.87C98.2383 11.87 101.108 12.45 103.308 13.61C105.508 14.77 107.138 16.39 108.198 18.47C108.698 19.47 109.108 20.57 109.428 21.77C109.748 22.97 109.968 24.35 110.088 25.91C110.168 27.25 110.228 28.5 110.268 29.66C110.308 30.82 110.348 31.92 110.388 32.96C110.428 34.48 110.598 35.47 110.898 35.93C111.198 36.39 111.628 36.62 112.188 36.62C112.708 36.62 113.168 36.48 113.568 36.2C113.988 35.9 114.258 35.51 114.378 35.03L117.498 41C117.278 41.92 116.658 42.69 115.638 43.31C114.618 43.93 113.328 44.24 111.768 44.24C110.628 44.24 109.548 44.05 108.528 43.67C107.508 43.27 106.668 42.74 106.008 42.08C105.348 41.4 104.958 40.63 104.838 39.77C104.518 40.53 103.848 41.28 102.828 42.02C101.808 42.74 100.498 43.34 98.8983 43.82C97.2983 44.28 95.4283 44.51 93.2883 44.51ZM95.2983 37.46C96.2383 37.46 97.1983 37.32 98.1783 37.04C99.1783 36.74 100.078 36.37 100.878 35.93C101.698 35.49 102.328 35.04 102.768 34.58C102.728 33.96 102.688 33.32 102.648 32.66C102.628 32 102.628 31.44 102.648 30.98C102.208 30.8 101.368 30.61 100.128 30.41C98.9083 30.19 97.6283 30.08 96.2883 30.08C95.0683 30.08 93.9283 30.21 92.8683 30.47C91.8083 30.73 90.9383 31.13 90.2583 31.67C89.5983 32.21 89.2683 32.91 89.2683 33.77C89.2683 34.69 89.5183 35.42 90.0183 35.96C90.5183 36.5 91.2183 36.89 92.1183 37.13C93.0183 37.35 94.0783 37.46 95.2983 37.46ZM142.554 40.07C142.174 40.81 141.574 41.6 140.754 42.44C139.954 43.26 138.904 43.96 137.604 44.54C136.324 45.14 134.764 45.44 132.924 45.44C130.504 45.44 128.524 44.93 126.984 43.91C125.464 42.89 124.334 41.53 123.594 39.83C122.874 38.13 122.514 36.27 122.514 34.25C122.514 33.15 122.524 31.98 122.544 30.74C122.584 29.48 122.624 28.24 122.664 27.02C122.704 25.78 122.744 24.61 122.784 23.51C122.844 22.39 122.894 21.41 122.934 20.57C122.994 19.73 123.034 19.08 123.054 18.62C121.474 18.78 120.014 18.96 118.674 19.16C117.334 19.34 116.404 19.49 115.884 19.61C115.684 18.49 115.534 17.35 115.434 16.19C115.334 15.03 115.254 14.02 115.194 13.16C115.154 12.3 115.134 11.77 115.134 11.57C116.294 11.41 117.534 11.27 118.854 11.15C120.174 11.01 121.564 10.91 123.024 10.85C123.004 10.37 122.984 9.62 122.964 8.6C122.944 7.58 122.914 6.66 122.874 5.84C122.854 5.1 122.814 4.36 122.754 3.62C122.694 2.86 122.644 2.25 122.604 1.79L131.484 1.01C131.484 1.25 131.484 1.81 131.484 2.69C131.504 3.57 131.514 4.63 131.514 5.87C131.514 6.49 131.524 7.21 131.544 8.03C131.564 8.83 131.584 9.62 131.604 10.4C132.264 10.36 133.034 10.32 133.914 10.28C134.794 10.24 135.494 10.21 136.014 10.19C136.854 10.15 137.614 10.13 138.294 10.13C138.974 10.11 139.534 10.1 139.974 10.1C140.434 10.1 140.744 10.11 140.904 10.13C141.024 11.07 141.104 12.27 141.144 13.73C141.184 15.17 141.204 16.45 141.204 17.57C141.004 17.55 140.354 17.56 139.254 17.6C138.154 17.62 137.074 17.66 136.014 17.72C135.274 17.74 134.454 17.78 133.554 17.84C132.654 17.9 131.944 17.96 131.424 18.02C131.404 18.44 131.374 19.02 131.334 19.76C131.314 20.48 131.284 21.3 131.244 22.22C131.224 23.12 131.194 24.06 131.154 25.04C131.134 26 131.114 26.93 131.094 27.83C131.074 28.73 131.064 29.53 131.064 30.23C131.064 31.55 131.124 32.74 131.244 33.8C131.384 34.84 131.674 35.67 132.114 36.29C132.574 36.89 133.274 37.19 134.214 37.19C134.834 37.19 135.364 37.01 135.804 36.65C136.244 36.29 136.604 35.87 136.884 35.39C137.184 34.89 137.444 34.45 137.664 34.07C137.924 34.43 138.284 34.91 138.744 35.51C139.224 36.09 139.724 36.7 140.244 37.34C140.784 37.98 141.264 38.55 141.684 39.05C142.124 39.55 142.414 39.89 142.554 40.07ZM153.35 16.43C152.77 16.07 152.14 15.56 151.46 14.9C150.78 14.24 150.25 13.58 149.87 12.92C150.21 12.72 150.67 12.4 151.25 11.96C151.85 11.52 152.41 11.05 152.93 10.55C153.45 10.05 153.74 9.61 153.8 9.23C153.68 9.35 153.47 9.46 153.17 9.56C152.89 9.66 152.55 9.71 152.15 9.71C150.85 9.71 149.86 9.32 149.18 8.54C148.5 7.74 148.16 6.81 148.16 5.75C148.16 4.15 148.71 2.89 149.81 1.97C150.93 1.03 152.27 0.559998 153.83 0.559998C155.61 0.559998 157.08 1.08 158.24 2.12C159.4 3.16 159.98 4.51 159.98 6.17C159.98 7.79 159.67 9.27 159.05 10.61C158.43 11.95 157.61 13.11 156.59 14.09C155.59 15.07 154.51 15.85 153.35 16.43ZM175.623 46.37C173.283 46.37 171.133 46.08 169.173 45.5C167.233 44.94 165.583 44.28 164.223 43.52C162.883 42.74 161.913 42.04 161.313 41.42C161.433 41.04 161.663 40.49 162.003 39.77C162.363 39.03 162.783 38.23 163.263 37.37C163.743 36.51 164.223 35.71 164.703 34.97C165.183 34.23 165.613 33.68 165.993 33.32C166.953 34.14 167.993 34.95 169.113 35.75C170.233 36.53 171.383 37.17 172.563 37.67C173.743 38.17 174.843 38.42 175.863 38.42C176.663 38.42 177.383 38.32 178.023 38.12C178.663 37.9 179.163 37.58 179.523 37.16C179.903 36.74 180.093 36.22 180.093 35.6C180.093 34.88 179.743 34.19 179.043 33.53C178.363 32.85 177.483 32.21 176.403 31.61C175.323 31.01 174.193 30.47 173.013 29.99C171.393 29.33 169.883 28.56 168.483 27.68C167.083 26.78 165.953 25.68 165.093 24.38C164.233 23.06 163.803 21.42 163.803 19.46C163.803 17.46 164.393 15.78 165.573 14.42C166.753 13.06 168.293 12.03 170.193 11.33C172.113 10.63 174.163 10.28 176.343 10.28C178.403 10.28 180.493 10.57 182.613 11.15C184.733 11.71 186.463 12.52 187.803 13.58C187.683 13.96 187.423 14.54 187.023 15.32C186.643 16.1 186.173 16.94 185.613 17.84C185.073 18.72 184.493 19.53 183.873 20.27C183.053 19.57 182.023 18.9 180.783 18.26C179.543 17.62 178.243 17.3 176.883 17.3C176.203 17.3 175.523 17.37 174.843 17.51C174.183 17.65 173.633 17.9 173.193 18.26C172.773 18.62 172.563 19.11 172.563 19.73C172.563 20.33 172.793 20.87 173.253 21.35C173.713 21.81 174.383 22.26 175.263 22.7C176.163 23.14 177.213 23.6 178.413 24.08C179.613 24.56 180.833 25.13 182.073 25.79C183.313 26.43 184.453 27.2 185.493 28.1C186.553 29 187.403 30.05 188.043 31.25C188.683 32.43 189.003 33.79 189.003 35.33C189.003 37.79 188.393 39.84 187.173 41.48C185.953 43.12 184.323 44.34 182.283 45.14C180.263 45.96 178.043 46.37 175.623 46.37ZM231.797 44.66C226.497 44.66 222.507 43.26 219.827 40.46C217.147 37.64 215.807 33.55 215.807 28.19C215.807 24.61 216.497 21.64 217.877 19.28C219.257 16.9 221.167 15.11 223.607 13.91C226.067 12.71 228.907 12.11 232.127 12.11C235.407 12.11 238.127 12.86 240.287 14.36C242.467 15.86 244.097 17.93 245.177 20.57C246.257 23.21 246.797 26.26 246.797 29.72C246.797 32.74 246.217 35.37 245.057 37.61C243.897 39.85 242.197 41.59 239.957 42.83C237.737 44.05 235.017 44.66 231.797 44.66ZM231.467 36.05C232.567 36.05 233.537 35.86 234.377 35.48C235.237 35.1 235.957 34.56 236.537 33.86C237.137 33.14 237.587 32.3 237.887 31.34C238.187 30.38 238.337 29.33 238.337 28.19C238.337 26.41 238.077 24.84 237.557 23.48C237.057 22.1 236.307 21.03 235.307 20.27C234.327 19.49 233.107 19.1 231.647 19.1C230.067 19.1 228.777 19.5 227.777 20.3C226.777 21.1 226.037 22.15 225.557 23.45C225.097 24.73 224.867 26.1 224.867 27.56C224.867 30.02 225.427 32.05 226.547 33.65C227.687 35.25 229.327 36.05 231.467 36.05ZM273.373 14.66C273.873 14.48 274.583 14.35 275.503 14.27C276.443 14.17 277.353 14.12 278.233 14.12C278.973 14.12 279.793 14.15 280.693 14.21C281.593 14.27 282.323 14.34 282.883 14.42C283.143 16.04 283.343 17.68 283.483 19.34C283.623 20.98 283.693 22.6 283.693 24.2C283.693 27.14 283.433 29.91 282.913 32.51C282.413 35.11 281.583 37.4 280.423 39.38C279.263 41.36 277.713 42.91 275.773 44.03C273.833 45.17 271.443 45.74 268.603 45.74C265.583 45.74 263.093 45.15 261.133 43.97C259.173 42.77 257.643 41.11 256.543 38.99C255.443 36.85 254.673 34.36 254.233 31.52C253.813 28.66 253.603 25.58 253.603 22.28C253.603 20.82 253.633 19.34 253.693 17.84C253.773 16.32 253.873 14.81 253.993 13.31C254.513 13.27 255.193 13.24 256.033 13.22C256.893 13.18 257.673 13.17 258.373 13.19C259.373 13.19 260.373 13.25 261.373 13.37C262.393 13.47 263.193 13.61 263.773 13.79C263.633 15.15 263.513 16.62 263.413 18.2C263.313 19.76 263.263 21.33 263.263 22.91C263.263 25.55 263.433 27.93 263.773 30.05C264.133 32.17 264.723 33.85 265.543 35.09C266.363 36.33 267.473 36.95 268.873 36.95C270.193 36.95 271.243 36.39 272.023 35.27C272.823 34.15 273.393 32.65 273.733 30.77C274.093 28.87 274.273 26.75 274.273 24.41C274.273 22.65 274.183 20.92 274.003 19.22C273.843 17.5 273.633 15.98 273.373 14.66ZM315.45 40.07C315.07 40.81 314.47 41.6 313.65 42.44C312.85 43.26 311.8 43.96 310.5 44.54C309.22 45.14 307.66 45.44 305.82 45.44C303.4 45.44 301.42 44.93 299.88 43.91C298.36 42.89 297.23 41.53 296.49 39.83C295.77 38.13 295.41 36.27 295.41 34.25C295.41 33.15 295.42 31.98 295.44 30.74C295.48 29.48 295.52 28.24 295.56 27.02C295.6 25.78 295.64 24.61 295.68 23.51C295.74 22.39 295.79 21.41 295.83 20.57C295.89 19.73 295.93 19.08 295.95 18.62C294.37 18.78 292.91 18.96 291.57 19.16C290.23 19.34 289.3 19.49 288.78 19.61C288.58 18.49 288.43 17.35 288.33 16.19C288.23 15.03 288.15 14.02 288.09 13.16C288.05 12.3 288.03 11.77 288.03 11.57C289.19 11.41 290.43 11.27 291.75 11.15C293.07 11.01 294.46 10.91 295.92 10.85C295.9 10.37 295.88 9.62 295.86 8.6C295.84 7.58 295.81 6.66 295.77 5.84C295.75 5.1 295.71 4.36 295.65 3.62C295.59 2.86 295.54 2.25 295.5 1.79L304.38 1.01C304.38 1.25 304.38 1.81 304.38 2.69C304.4 3.57 304.41 4.63 304.41 5.87C304.41 6.49 304.42 7.21 304.44 8.03C304.46 8.83 304.48 9.62 304.5 10.4C305.16 10.36 305.93 10.32 306.81 10.28C307.69 10.24 308.39 10.21 308.91 10.19C309.75 10.15 310.51 10.13 311.19 10.13C311.87 10.11 312.43 10.1 312.87 10.1C313.33 10.1 313.64 10.11 313.8 10.13C313.92 11.07 314 12.27 314.04 13.73C314.08 15.17 314.1 16.45 314.1 17.57C313.9 17.55 313.25 17.56 312.15 17.6C311.05 17.62 309.97 17.66 308.91 17.72C308.17 17.74 307.35 17.78 306.45 17.84C305.55 17.9 304.84 17.96 304.32 18.02C304.3 18.44 304.27 19.02 304.23 19.76C304.21 20.48 304.18 21.3 304.14 22.22C304.12 23.12 304.09 24.06 304.05 25.04C304.03 26 304.01 26.93 303.99 27.83C303.97 28.73 303.96 29.53 303.96 30.23C303.96 31.55 304.02 32.74 304.14 33.8C304.28 34.84 304.57 35.67 305.01 36.29C305.47 36.89 306.17 37.19 307.11 37.19C307.73 37.19 308.26 37.01 308.7 36.65C309.14 36.29 309.5 35.87 309.78 35.39C310.08 34.89 310.34 34.45 310.56 34.07C310.82 34.43 311.18 34.91 311.64 35.51C312.12 36.09 312.62 36.7 313.14 37.34C313.68 37.98 314.16 38.55 314.58 39.05C315.02 39.55 315.31 39.89 315.45 40.07ZM331.998 46.37C329.658 46.37 327.508 46.08 325.548 45.5C323.608 44.94 321.958 44.28 320.598 43.52C319.258 42.74 318.288 42.04 317.688 41.42C317.808 41.04 318.038 40.49 318.378 39.77C318.738 39.03 319.158 38.23 319.638 37.37C320.118 36.51 320.598 35.71 321.078 34.97C321.558 34.23 321.988 33.68 322.368 33.32C323.328 34.14 324.368 34.95 325.488 35.75C326.608 36.53 327.758 37.17 328.938 37.67C330.118 38.17 331.218 38.42 332.238 38.42C333.038 38.42 333.758 38.32 334.398 38.12C335.038 37.9 335.538 37.58 335.898 37.16C336.278 36.74 336.468 36.22 336.468 35.6C336.468 34.88 336.118 34.19 335.418 33.53C334.738 32.85 333.858 32.21 332.778 31.61C331.698 31.01 330.568 30.47 329.388 29.99C327.768 29.33 326.258 28.56 324.858 27.68C323.458 26.78 322.328 25.68 321.468 24.38C320.608 23.06 320.178 21.42 320.178 19.46C320.178 17.46 320.768 15.78 321.948 14.42C323.128 13.06 324.668 12.03 326.568 11.33C328.488 10.63 330.538 10.28 332.718 10.28C334.778 10.28 336.868 10.57 338.988 11.15C341.108 11.71 342.838 12.52 344.178 13.58C344.058 13.96 343.798 14.54 343.398 15.32C343.018 16.1 342.548 16.94 341.988 17.84C341.448 18.72 340.868 19.53 340.248 20.27C339.428 19.57 338.398 18.9 337.158 18.26C335.918 17.62 334.618 17.3 333.258 17.3C332.578 17.3 331.898 17.37 331.218 17.51C330.558 17.65 330.008 17.9 329.568 18.26C329.148 18.62 328.938 19.11 328.938 19.73C328.938 20.33 329.168 20.87 329.628 21.35C330.088 21.81 330.758 22.26 331.638 22.7C332.538 23.14 333.588 23.6 334.788 24.08C335.988 24.56 337.208 25.13 338.448 25.79C339.688 26.43 340.828 27.2 341.868 28.1C342.928 29 343.778 30.05 344.418 31.25C345.058 32.43 345.378 33.79 345.378 35.33C345.378 37.79 344.768 39.84 343.548 41.48C342.328 43.12 340.698 44.34 338.658 45.14C336.638 45.96 334.418 46.37 331.998 46.37ZM362.185 43.94C361.845 43.96 361.195 44 360.235 44.06C359.295 44.14 358.295 44.18 357.235 44.18C356.455 44.18 355.665 44.15 354.865 44.09C354.085 44.05 353.315 43.99 352.555 43.91C352.655 43.39 352.765 42.33 352.885 40.73C353.025 39.11 353.155 37.21 353.275 35.03C353.415 32.85 353.545 30.6 353.665 28.28C353.805 25.94 353.905 23.75 353.965 21.71C354.045 19.67 354.085 18.03 354.085 16.79C354.485 16.77 355.075 16.74 355.855 16.7C356.635 16.66 357.475 16.63 358.375 16.61C359.275 16.57 360.135 16.54 360.955 16.52C361.775 16.48 362.425 16.46 362.905 16.46C363.005 17.08 363.085 18.08 363.145 19.46C363.205 20.84 363.235 22.38 363.235 24.08C363.235 25.9 363.205 27.83 363.145 29.87C363.105 31.91 363.035 33.89 362.935 35.81C362.855 37.71 362.745 39.39 362.605 40.85C362.465 42.29 362.325 43.32 362.185 43.94ZM358.825 12.59C357.025 12.59 355.515 12.07 354.295 11.03C353.075 9.97 352.465 8.58 352.465 6.86C352.465 5.68 352.755 4.67 353.335 3.83C353.915 2.99 354.665 2.35 355.585 1.91C356.525 1.45 357.515 1.22 358.555 1.22C360.215 1.22 361.585 1.76 362.665 2.84C363.765 3.92 364.315 5.31 364.315 7.01C364.315 8.59 363.795 9.92 362.755 11C361.715 12.06 360.405 12.59 358.825 12.59ZM394.369 43.91C394.329 43.63 394.299 43.23 394.279 42.71C394.259 42.19 394.239 41.66 394.219 41.12C394.219 40.56 394.219 40.11 394.219 39.77C393.979 40.11 393.599 40.52 393.079 41C392.579 41.46 391.929 41.92 391.129 42.38C390.329 42.84 389.359 43.23 388.219 43.55C387.079 43.85 385.749 44 384.229 44C381.709 44 379.539 43.39 377.719 42.17C375.899 40.95 374.499 39.29 373.519 37.19C372.539 35.07 372.049 32.69 372.049 30.05C372.049 27.45 372.539 25.03 373.519 22.79C374.519 20.53 376.009 18.71 377.989 17.33C379.969 15.93 382.459 15.23 385.459 15.23C386.959 15.23 388.319 15.4 389.539 15.74C390.779 16.08 391.829 16.51 392.689 17.03C393.549 17.53 394.159 18.04 394.519 18.56C394.579 17.46 394.659 16.2 394.759 14.78C394.859 13.34 394.969 11.87 395.089 10.37C395.229 8.85 395.359 7.41 395.479 6.05C395.599 4.69 395.699 3.53 395.779 2.57C395.879 1.59 395.949 0.939998 395.989 0.619997C397.149 0.619997 398.449 0.689998 399.889 0.83C401.349 0.949998 402.639 1.16 403.759 1.46C403.419 6.04 403.149 10.62 402.949 15.2C402.749 19.76 402.609 24.43 402.529 29.21C402.469 33.97 402.439 38.96 402.439 44.18C401.979 44.18 401.219 44.17 400.159 44.15C399.119 44.13 398.049 44.1 396.949 44.06C395.849 44.02 394.989 43.97 394.369 43.91ZM386.719 35.27C387.599 35.27 388.409 35.17 389.149 34.97C389.889 34.77 390.569 34.5 391.189 34.16C391.809 33.8 392.349 33.42 392.809 33.02C393.289 32.6 393.689 32.18 394.009 31.76C394.009 31.36 394.009 30.87 394.009 30.29C394.009 29.69 394.009 29.09 394.009 28.49C394.029 27.89 394.039 27.32 394.039 26.78C394.059 26.24 394.079 25.82 394.099 25.52C393.659 25.1 393.049 24.69 392.269 24.29C391.489 23.89 390.629 23.57 389.689 23.33C388.769 23.07 387.829 22.94 386.869 22.94C384.909 22.94 383.379 23.53 382.279 24.71C381.199 25.87 380.659 27.38 380.659 29.24C380.659 31.2 381.179 32.7 382.219 33.74C383.279 34.76 384.779 35.27 386.719 35.27ZM440.399 38.63C439.839 39.31 439.139 39.98 438.299 40.64C437.459 41.3 436.449 41.9 435.269 42.44C434.109 42.96 432.779 43.38 431.279 43.7C429.779 44 428.099 44.15 426.239 44.15C423.219 44.15 420.539 43.58 418.199 42.44C415.859 41.28 414.029 39.57 412.709 37.31C411.409 35.03 410.759 32.2 410.759 28.82C410.759 25.44 411.439 22.5 412.799 20C414.159 17.48 416.059 15.53 418.499 14.15C420.939 12.75 423.789 12.05 427.049 12.05C431.169 12.05 434.409 13.2 436.769 15.5C439.149 17.78 440.389 20.94 440.489 24.98C440.509 25.72 440.499 26.39 440.459 26.99C440.419 27.59 440.339 28.23 440.219 28.91C439.919 28.89 439.279 28.87 438.299 28.85C437.319 28.83 436.209 28.81 434.969 28.79C433.749 28.75 432.589 28.72 431.489 28.7C430.409 28.68 429.609 28.67 429.089 28.67C427.349 28.67 425.659 28.75 424.019 28.91C422.399 29.07 421.039 29.24 419.939 29.42C419.939 29.78 419.959 30.14 419.999 30.5C420.059 30.84 420.139 31.17 420.239 31.49C420.499 32.31 420.949 33.01 421.589 33.59C422.249 34.17 423.029 34.62 423.929 34.94C424.849 35.24 425.819 35.39 426.839 35.39C427.759 35.39 428.599 35.28 429.359 35.06C430.139 34.82 430.849 34.51 431.489 34.13C432.129 33.75 432.709 33.34 433.229 32.9C433.769 32.44 434.269 31.99 434.729 31.55C434.849 31.65 435.159 31.95 435.659 32.45C436.159 32.93 436.719 33.53 437.339 34.25C437.959 34.95 438.549 35.69 439.109 36.47C439.669 37.25 440.099 37.97 440.399 38.63ZM420.269 23.81C421.169 23.67 422.279 23.54 423.599 23.42C424.919 23.3 426.449 23.24 428.189 23.24C429.129 23.24 429.959 23.25 430.679 23.27C431.419 23.29 431.939 23.31 432.239 23.33C432.239 22.91 432.179 22.45 432.059 21.95C431.899 21.27 431.579 20.62 431.099 20C430.639 19.38 430.039 18.88 429.299 18.5C428.579 18.12 427.709 17.93 426.689 17.93C425.409 17.93 424.289 18.21 423.329 18.77C422.389 19.33 421.659 20.06 421.139 20.96C420.619 21.86 420.329 22.81 420.269 23.81ZM47.9414 104.66C42.6414 104.66 38.6514 103.26 35.9714 100.46C33.2914 97.64 31.9514 93.55 31.9514 88.19C31.9514 84.61 32.6414 81.64 34.0214 79.28C35.4014 76.9 37.3114 75.11 39.7514 73.91C42.2114 72.71 45.0514 72.11 48.2714 72.11C51.5514 72.11 54.2714 72.86 56.4314 74.36C58.6114 75.86 60.2414 77.93 61.3214 80.57C62.4014 83.21 62.9414 86.26 62.9414 89.72C62.9414 92.74 62.3614 95.37 61.2014 97.61C60.0414 99.85 58.3414 101.59 56.1014 102.83C53.8814 104.05 51.1614 104.66 47.9414 104.66ZM47.6114 96.05C48.7114 96.05 49.6814 95.86 50.5214 95.48C51.3814 95.1 52.1014 94.56 52.6814 93.86C53.2814 93.14 53.7314 92.3 54.0314 91.34C54.3314 90.38 54.4814 89.33 54.4814 88.19C54.4814 86.41 54.2214 84.84 53.7014 83.48C53.2014 82.1 52.4514 81.03 51.4514 80.27C50.4714 79.49 49.2514 79.1 47.7914 79.1C46.2114 79.1 44.9214 79.5 43.9214 80.3C42.9214 81.1 42.1814 82.15 41.7014 83.45C41.2414 84.73 41.0114 86.1 41.0114 87.56C41.0114 90.02 41.5714 92.05 42.6914 93.65C43.8314 95.25 45.4714 96.05 47.6114 96.05ZM89.5177 74.66C90.0177 74.48 90.7277 74.35 91.6477 74.27C92.5877 74.17 93.4977 74.12 94.3777 74.12C95.1177 74.12 95.9377 74.15 96.8377 74.21C97.7377 74.27 98.4677 74.34 99.0277 74.42C99.2877 76.04 99.4877 77.68 99.6277 79.34C99.7677 80.98 99.8377 82.6 99.8377 84.2C99.8377 87.14 99.5777 89.91 99.0577 92.51C98.5577 95.11 97.7277 97.4 96.5677 99.38C95.4077 101.36 93.8577 102.91 91.9177 104.03C89.9777 105.17 87.5877 105.74 84.7477 105.74C81.7277 105.74 79.2377 105.15 77.2777 103.97C75.3177 102.77 73.7877 101.11 72.6877 98.99C71.5877 96.85 70.8177 94.36 70.3777 91.52C69.9577 88.66 69.7477 85.58 69.7477 82.28C69.7477 80.82 69.7777 79.34 69.8377 77.84C69.9177 76.32 70.0177 74.81 70.1377 73.31C70.6577 73.27 71.3377 73.24 72.1777 73.22C73.0377 73.18 73.8177 73.17 74.5177 73.19C75.5177 73.19 76.5177 73.25 77.5177 73.37C78.5377 73.47 79.3377 73.61 79.9177 73.79C79.7777 75.15 79.6577 76.62 79.5577 78.2C79.4577 79.76 79.4077 81.33 79.4077 82.91C79.4077 85.55 79.5777 87.93 79.9177 90.05C80.2777 92.17 80.8677 93.85 81.6877 95.09C82.5077 96.33 83.6177 96.95 85.0177 96.95C86.3377 96.95 87.3877 96.39 88.1677 95.27C88.9677 94.15 89.5377 92.65 89.8777 90.77C90.2377 88.87 90.4177 86.75 90.4177 84.41C90.4177 82.65 90.3277 80.92 90.1477 79.22C89.9877 77.5 89.7777 75.98 89.5177 74.66ZM116 77.12C116.46 76.22 117.16 75.36 118.1 74.54C119.06 73.72 120.19 73.05 121.49 72.53C122.81 72.01 124.21 71.75 125.69 71.75C126.59 71.75 127.5 71.84 128.42 72.02C129.34 72.2 130.01 72.44 130.43 72.74L128.57 82.28C128.13 82.1 127.56 81.9 126.86 81.68C126.16 81.46 125.36 81.35 124.46 81.35C123.54 81.35 122.64 81.51 121.76 81.83C120.9 82.13 120.1 82.56 119.36 83.12C118.62 83.68 117.97 84.35 117.41 85.13C117.61 86.29 117.83 87.77 118.07 89.57C118.33 91.37 118.57 93.22 118.79 95.12C119.01 97.02 119.19 98.75 119.33 100.31C119.47 101.87 119.54 103.01 119.54 103.73C118.14 103.91 116.52 104.03 114.68 104.09C112.84 104.15 111.07 104.17 109.37 104.15C109.37 102.47 109.32 100.56 109.22 98.42C109.14 96.28 109.02 94.05 108.86 91.73C108.7 89.39 108.5 87.09 108.26 84.83C108.04 82.55 107.78 80.44 107.48 78.5C107.2 76.56 106.9 74.91 106.58 73.55C107.54 73.27 108.6 73.01 109.76 72.77C110.92 72.53 111.97 72.34 112.91 72.2C113.85 72.04 114.45 71.95 114.71 71.93C114.95 72.49 115.22 73.32 115.52 74.42C115.82 75.5 115.98 76.4 116 77.12ZM157.782 104.21C157.722 103.51 157.662 102.34 157.602 100.7C157.542 99.04 157.472 97.09 157.392 94.85C157.312 92.59 157.232 90.17 157.152 87.59C157.072 84.99 157.002 82.39 156.942 79.79C156.882 77.17 156.822 74.69 156.762 72.35C156.702 70.01 156.652 67.94 156.612 66.14C156.572 64.34 156.552 62.99 156.552 62.09C156.832 62.03 157.792 61.86 159.432 61.58C161.092 61.28 163.122 60.95 165.522 60.59C165.522 61.85 165.532 63.57 165.552 65.75C165.592 67.93 165.652 70.33 165.732 72.95C165.812 75.55 165.922 78.14 166.062 80.72C166.502 80.26 167.052 79.78 167.712 79.28C168.372 78.78 169.122 78.32 169.962 77.9C170.802 77.46 171.702 77.11 172.662 76.85C173.642 76.57 174.652 76.43 175.692 76.43C178.032 76.43 180.072 76.97 181.812 78.05C183.572 79.13 184.932 80.74 185.892 82.88C186.872 85 187.362 87.62 187.362 90.74C187.362 94.8 186.282 98.02 184.122 100.4C181.982 102.76 179.082 103.94 175.422 103.94C173.982 103.94 172.692 103.75 171.552 103.37C170.432 102.97 169.492 102.51 168.732 101.99C167.992 101.45 167.462 100.98 167.142 100.58C167.162 100.96 167.182 101.44 167.202 102.02C167.242 102.6 167.272 103.13 167.292 103.61C167.332 104.09 167.352 104.41 167.352 104.57C165.632 104.59 163.922 104.57 162.222 104.51C160.522 104.45 159.042 104.35 157.782 104.21ZM166.872 93.86C167.192 94.06 167.652 94.3 168.252 94.58C168.852 94.86 169.552 95.11 170.352 95.33C171.152 95.53 171.982 95.63 172.842 95.63C174.922 95.63 176.432 95.16 177.372 94.22C178.312 93.26 178.782 91.88 178.782 90.08C178.782 89 178.612 88.01 178.272 87.11C177.932 86.19 177.402 85.46 176.682 84.92C175.962 84.38 175.022 84.11 173.862 84.11C172.582 84.11 171.462 84.33 170.502 84.77C169.542 85.21 168.732 85.74 168.072 86.36C167.432 86.98 166.922 87.54 166.542 88.04C166.542 88.2 166.552 88.48 166.572 88.88C166.592 89.26 166.612 89.7 166.632 90.2C166.672 90.7 166.702 91.2 166.722 91.7C166.762 92.2 166.792 92.64 166.812 93.02C166.832 93.4 166.852 93.68 166.872 93.86ZM210.469 104.66C205.169 104.66 201.179 103.26 198.499 100.46C195.819 97.64 194.479 93.55 194.479 88.19C194.479 84.61 195.169 81.64 196.549 79.28C197.929 76.9 199.839 75.11 202.279 73.91C204.739 72.71 207.579 72.11 210.799 72.11C214.079 72.11 216.799 72.86 218.959 74.36C221.139 75.86 222.769 77.93 223.849 80.57C224.929 83.21 225.469 86.26 225.469 89.72C225.469 92.74 224.889 95.37 223.729 97.61C222.569 99.85 220.869 101.59 218.629 102.83C216.409 104.05 213.689 104.66 210.469 104.66ZM210.139 96.05C211.239 96.05 212.209 95.86 213.049 95.48C213.909 95.1 214.629 94.56 215.209 93.86C215.809 93.14 216.259 92.3 216.559 91.34C216.859 90.38 217.009 89.33 217.009 88.19C217.009 86.41 216.749 84.84 216.229 83.48C215.729 82.1 214.979 81.03 213.979 80.27C212.999 79.49 211.779 79.1 210.319 79.1C208.739 79.1 207.449 79.5 206.449 80.3C205.449 81.1 204.709 82.15 204.229 83.45C203.769 84.73 203.539 86.1 203.539 87.56C203.539 90.02 204.099 92.05 205.219 93.65C206.359 95.25 207.999 96.05 210.139 96.05ZM255.804 100.07C255.424 100.81 254.824 101.6 254.004 102.44C253.204 103.26 252.154 103.96 250.854 104.54C249.574 105.14 248.014 105.44 246.174 105.44C243.754 105.44 241.774 104.93 240.234 103.91C238.714 102.89 237.584 101.53 236.844 99.83C236.124 98.13 235.764 96.27 235.764 94.25C235.764 93.15 235.774 91.98 235.794 90.74C235.834 89.48 235.874 88.24 235.914 87.02C235.954 85.78 235.994 84.61 236.034 83.51C236.094 82.39 236.144 81.41 236.184 80.57C236.244 79.73 236.284 79.08 236.304 78.62C234.724 78.78 233.264 78.96 231.924 79.16C230.584 79.34 229.654 79.49 229.134 79.61C228.934 78.49 228.784 77.35 228.684 76.19C228.584 75.03 228.504 74.02 228.444 73.16C228.404 72.3 228.384 71.77 228.384 71.57C229.544 71.41 230.784 71.27 232.104 71.15C233.424 71.01 234.814 70.91 236.274 70.85C236.254 70.37 236.234 69.62 236.214 68.6C236.194 67.58 236.164 66.66 236.124 65.84C236.104 65.1 236.064 64.36 236.004 63.62C235.944 62.86 235.894 62.25 235.854 61.79L244.734 61.01C244.734 61.25 244.734 61.81 244.734 62.69C244.754 63.57 244.764 64.63 244.764 65.87C244.764 66.49 244.774 67.21 244.794 68.03C244.814 68.83 244.834 69.62 244.854 70.4C245.514 70.36 246.284 70.32 247.164 70.28C248.044 70.24 248.744 70.21 249.264 70.19C250.104 70.15 250.864 70.13 251.544 70.13C252.224 70.11 252.784 70.1 253.224 70.1C253.684 70.1 253.994 70.11 254.154 70.13C254.274 71.07 254.354 72.27 254.394 73.73C254.434 75.17 254.454 76.45 254.454 77.57C254.254 77.55 253.604 77.56 252.504 77.6C251.404 77.62 250.324 77.66 249.264 77.72C248.524 77.74 247.704 77.78 246.804 77.84C245.904 77.9 245.194 77.96 244.674 78.02C244.654 78.44 244.624 79.02 244.584 79.76C244.564 80.48 244.534 81.3 244.494 82.22C244.474 83.12 244.444 84.06 244.404 85.04C244.384 86 244.364 86.93 244.344 87.83C244.324 88.73 244.314 89.53 244.314 90.23C244.314 91.55 244.374 92.74 244.494 93.8C244.634 94.84 244.924 95.67 245.364 96.29C245.824 96.89 246.524 97.19 247.464 97.19C248.084 97.19 248.614 97.01 249.054 96.65C249.494 96.29 249.854 95.87 250.134 95.39C250.434 94.89 250.694 94.45 250.914 94.07C251.174 94.43 251.534 94.91 251.994 95.51C252.474 96.09 252.974 96.7 253.494 97.34C254.034 97.98 254.514 98.55 254.934 99.05C255.374 99.55 255.664 99.89 255.804 100.07ZM286.271 100.07C285.891 100.81 285.291 101.6 284.471 102.44C283.671 103.26 282.621 103.96 281.321 104.54C280.041 105.14 278.481 105.44 276.641 105.44C274.221 105.44 272.241 104.93 270.701 103.91C269.181 102.89 268.051 101.53 267.311 99.83C266.591 98.13 266.231 96.27 266.231 94.25C266.231 93.15 266.241 91.98 266.261 90.74C266.301 89.48 266.341 88.24 266.381 87.02C266.421 85.78 266.461 84.61 266.501 83.51C266.561 82.39 266.611 81.41 266.651 80.57C266.711 79.73 266.751 79.08 266.771 78.62C265.191 78.78 263.731 78.96 262.391 79.16C261.051 79.34 260.121 79.49 259.601 79.61C259.401 78.49 259.251 77.35 259.151 76.19C259.051 75.03 258.971 74.02 258.911 73.16C258.871 72.3 258.851 71.77 258.851 71.57C260.011 71.41 261.251 71.27 262.571 71.15C263.891 71.01 265.281 70.91 266.741 70.85C266.721 70.37 266.701 69.62 266.681 68.6C266.661 67.58 266.631 66.66 266.591 65.84C266.571 65.1 266.531 64.36 266.471 63.62C266.411 62.86 266.361 62.25 266.321 61.79L275.201 61.01C275.201 61.25 275.201 61.81 275.201 62.69C275.221 63.57 275.231 64.63 275.231 65.87C275.231 66.49 275.241 67.21 275.261 68.03C275.281 68.83 275.301 69.62 275.321 70.4C275.981 70.36 276.751 70.32 277.631 70.28C278.511 70.24 279.211 70.21 279.731 70.19C280.571 70.15 281.331 70.13 282.011 70.13C282.691 70.11 283.251 70.1 283.691 70.1C284.151 70.1 284.461 70.11 284.621 70.13C284.741 71.07 284.821 72.27 284.861 73.73C284.901 75.17 284.921 76.45 284.921 77.57C284.721 77.55 284.071 77.56 282.971 77.6C281.871 77.62 280.791 77.66 279.731 77.72C278.991 77.74 278.171 77.78 277.271 77.84C276.371 77.9 275.661 77.96 275.141 78.02C275.121 78.44 275.091 79.02 275.051 79.76C275.031 80.48 275.001 81.3 274.961 82.22C274.941 83.12 274.911 84.06 274.871 85.04C274.851 86 274.831 86.93 274.811 87.83C274.791 88.73 274.781 89.53 274.781 90.23C274.781 91.55 274.841 92.74 274.961 93.8C275.101 94.84 275.391 95.67 275.831 96.29C276.291 96.89 276.991 97.19 277.931 97.19C278.551 97.19 279.081 97.01 279.521 96.65C279.961 96.29 280.321 95.87 280.601 95.39C280.901 94.89 281.161 94.45 281.381 94.07C281.641 94.43 282.001 94.91 282.461 95.51C282.941 96.09 283.441 96.7 283.961 97.34C284.501 97.98 284.981 98.55 285.401 99.05C285.841 99.55 286.131 99.89 286.271 100.07ZM305.325 104.66C300.025 104.66 296.035 103.26 293.355 100.46C290.675 97.64 289.335 93.55 289.335 88.19C289.335 84.61 290.025 81.64 291.405 79.28C292.785 76.9 294.695 75.11 297.135 73.91C299.595 72.71 302.435 72.11 305.655 72.11C308.935 72.11 311.655 72.86 313.815 74.36C315.995 75.86 317.625 77.93 318.705 80.57C319.785 83.21 320.325 86.26 320.325 89.72C320.325 92.74 319.745 95.37 318.585 97.61C317.425 99.85 315.725 101.59 313.485 102.83C311.265 104.05 308.545 104.66 305.325 104.66ZM304.995 96.05C306.095 96.05 307.065 95.86 307.905 95.48C308.765 95.1 309.485 94.56 310.065 93.86C310.665 93.14 311.115 92.3 311.415 91.34C311.715 90.38 311.865 89.33 311.865 88.19C311.865 86.41 311.605 84.84 311.085 83.48C310.585 82.1 309.835 81.03 308.835 80.27C307.855 79.49 306.635 79.1 305.175 79.1C303.595 79.1 302.305 79.5 301.305 80.3C300.305 81.1 299.565 82.15 299.085 83.45C298.625 84.73 298.395 86.1 298.395 87.56C298.395 90.02 298.955 92.05 300.075 93.65C301.215 95.25 302.855 96.05 304.995 96.05ZM328.901 104.24C328.801 102.94 328.701 101.28 328.601 99.26C328.521 97.24 328.441 95.05 328.361 92.69C328.301 90.31 328.241 87.95 328.181 85.61C328.141 83.27 328.111 81.11 328.091 79.13C328.071 77.13 328.061 75.52 328.061 74.3C328.541 74.18 329.181 74.06 329.981 73.94C330.781 73.8 331.631 73.68 332.531 73.58C333.431 73.46 334.281 73.37 335.081 73.31C335.901 73.23 336.561 73.19 337.061 73.19C337.081 73.51 337.101 73.92 337.121 74.42C337.141 74.9 337.151 75.4 337.151 75.92C337.171 76.44 337.181 76.91 337.181 77.33C337.181 77.75 337.181 78.07 337.181 78.29C337.301 77.91 337.581 77.42 338.021 76.82C338.461 76.22 339.061 75.62 339.821 75.02C340.601 74.42 341.541 73.92 342.641 73.52C343.741 73.1 345.011 72.89 346.451 72.89C347.831 72.89 349.001 73.15 349.961 73.67C350.921 74.19 351.721 74.87 352.361 75.71C353.001 76.55 353.501 77.46 353.861 78.44C354.041 78.92 354.181 79.41 354.281 79.91C354.401 80.41 354.491 80.9 354.551 81.38C354.991 79.92 355.721 78.53 356.741 77.21C357.781 75.87 359.071 74.78 360.611 73.94C362.151 73.08 363.921 72.65 365.921 72.65C368.321 72.65 370.291 73.08 371.831 73.94C373.391 74.8 374.601 76.07 375.461 77.75C376.321 79.43 376.921 81.49 377.261 83.93C377.601 86.37 377.771 89.16 377.771 92.3C377.771 93.54 377.741 94.84 377.681 96.2C377.641 97.56 377.581 98.93 377.501 100.31C377.421 101.69 377.341 103.03 377.261 104.33C376.541 104.37 375.791 104.4 375.011 104.42C374.231 104.46 373.451 104.48 372.671 104.48C371.891 104.48 371.091 104.46 370.271 104.42C369.471 104.4 368.661 104.36 367.841 104.3C368.241 101.32 368.571 98.58 368.831 96.08C369.091 93.56 369.221 91.35 369.221 89.45C369.221 86.67 368.901 84.55 368.261 83.09C367.641 81.63 366.571 80.9 365.051 80.9C363.671 80.9 362.551 81.32 361.691 82.16C360.831 83 360.161 84.16 359.681 85.64C359.201 87.12 358.851 88.84 358.631 90.8C358.431 92.74 358.291 94.82 358.211 97.04C358.171 98.16 358.131 99.33 358.091 100.55C358.051 101.77 358.031 103.01 358.031 104.27C357.631 104.29 357.061 104.31 356.321 104.33C355.601 104.37 354.841 104.39 354.041 104.39C353.101 104.39 352.191 104.37 351.311 104.33C350.451 104.31 349.821 104.27 349.421 104.21C349.401 102.85 349.391 101.57 349.391 100.37C349.391 99.17 349.391 97.94 349.391 96.68C349.391 94.4 349.331 92.3 349.211 90.38C349.111 88.44 348.891 86.76 348.551 85.34C348.211 83.9 347.701 82.78 347.021 81.98C346.361 81.18 345.461 80.78 344.321 80.78C343.541 80.78 342.781 80.95 342.041 81.29C341.301 81.63 340.621 82.07 340.001 82.61C339.401 83.15 338.891 83.75 338.471 84.41C338.071 85.05 337.791 85.69 337.631 86.33C337.751 89.51 337.881 92.41 338.021 95.03C338.161 97.65 338.291 99.79 338.411 101.45C338.531 103.09 338.611 104.08 338.651 104.42C338.431 104.44 337.971 104.46 337.271 104.48C336.571 104.5 335.961 104.51 335.441 104.51C334.181 104.51 332.921 104.48 331.661 104.42C330.401 104.36 329.481 104.3 328.901 104.24ZM402.564 90.8C401.204 90.8 399.984 90.78 398.904 90.74C397.824 90.7 396.784 90.65 395.784 90.59C394.804 90.53 393.744 90.44 392.604 90.32C392.604 87.64 393.134 85.24 394.194 83.12C395.274 81 396.804 79.06 398.784 77.3C399.884 76.32 400.754 75.38 401.394 74.48C402.054 73.56 402.384 72.64 402.384 71.72C402.384 70.6 402.004 69.73 401.244 69.11C400.504 68.49 399.494 68.18 398.214 68.18C397.214 68.18 396.314 68.33 395.514 68.63C394.714 68.93 393.994 69.37 393.354 69.95C392.734 70.51 392.184 71.19 391.704 71.99C391.244 72.77 390.834 73.66 390.474 74.66L382.884 70.34C383.404 68.08 384.414 66.17 385.914 64.61C387.434 63.05 389.274 61.87 391.434 61.07C393.614 60.25 395.914 59.84 398.334 59.84C400.954 59.84 403.304 60.24 405.384 61.04C407.484 61.82 409.144 63.01 410.364 64.61C411.584 66.19 412.194 68.18 412.194 70.58C412.194 72.36 411.964 73.87 411.504 75.11C411.044 76.33 410.434 77.38 409.674 78.26C408.934 79.14 408.134 79.96 407.274 80.72C406.494 81.42 405.744 82.26 405.024 83.24C404.324 84.22 403.744 85.34 403.284 86.6C402.844 87.84 402.604 89.24 402.564 90.8ZM398.244 104.3C396.584 104.3 395.134 103.83 393.894 102.89C392.674 101.93 392.064 100.59 392.064 98.87C392.064 97.93 392.344 97.05 392.904 96.23C393.464 95.39 394.204 94.72 395.124 94.22C396.044 93.7 397.014 93.44 398.034 93.44C399.854 93.44 401.364 93.91 402.564 94.85C403.784 95.77 404.394 96.99 404.394 98.51C404.394 99.59 404.104 100.57 403.524 101.45C402.964 102.33 402.214 103.03 401.274 103.55C400.354 104.05 399.344 104.3 398.244 104.3Z" fill="black"/>
</svg>
