<svg width="441" height="107" viewBox="0 0 441 107" fill="none" xmlns="http://www.w3.org/2000/svg">
<path d="M23.2444 44.45C22.9244 43.45 22.5744 42.34 22.1944 41.12C21.8344 39.9 21.4644 38.66 21.0844 37.4C20.7244 36.12 20.3844 34.88 20.0644 33.68C19.7644 32.48 19.4844 31.38 19.2244 30.38C18.9844 29.38 18.8144 28.55 18.7144 27.89L19.8544 27.74C19.7744 28.02 19.6044 28.53 19.3444 29.27C19.0844 29.99 18.7744 30.86 18.4144 31.88C18.0544 32.9 17.6544 33.99 17.2144 35.15C16.7944 36.29 16.3544 37.42 15.8944 38.54C15.4544 39.66 15.0344 40.7 14.6344 41.66C14.2544 42.6 13.9244 43.38 13.6444 44L3.02437 43.58C2.84437 41.98 2.65437 40.07 2.45437 37.85C2.27437 35.61 2.09437 33.15 1.91437 30.47C1.73437 27.77 1.57437 24.93 1.43437 21.95C1.29437 18.97 1.18437 15.91 1.10437 12.77C1.02437 9.63 0.984372 6.51 0.984372 3.41L11.4244 3.8C11.4244 5.5 11.4044 7.42 11.3644 9.56C11.3244 11.68 11.2744 13.87 11.2144 16.13C11.1744 18.37 11.1344 20.56 11.0944 22.7C11.0544 24.84 11.0144 26.79 10.9744 28.55C10.9544 30.31 10.9544 31.76 10.9744 32.9L10.4344 33.44C10.6544 32.84 10.9244 32.02 11.2444 30.98C11.5844 29.92 11.9544 28.75 12.3544 27.47C12.7544 26.17 13.1544 24.83 13.5544 23.45C13.9544 22.07 14.3244 20.72 14.6644 19.4C15.0044 18.08 15.2944 16.89 15.5344 15.83C15.7744 14.75 15.9144 13.88 15.9544 13.22L23.0344 13.07C23.0544 13.45 23.1344 14.19 23.2744 15.29C23.4344 16.37 23.6344 17.66 23.8744 19.16C24.1344 20.66 24.4144 22.24 24.7144 23.9C25.0144 25.54 25.3044 27.14 25.5844 28.7C25.8844 30.24 26.1644 31.61 26.4244 32.81C26.7044 33.99 26.9444 34.84 27.1444 35.36L25.8244 35.45C26.2044 33.37 26.5344 30.92 26.8144 28.1C27.1144 25.28 27.3644 22.35 27.5644 19.31C27.7644 16.27 27.9044 13.37 27.9844 10.61C28.0844 7.83 28.1344 5.47 28.1344 3.53L37.5844 2.57C37.5844 6.05 37.4444 9.59 37.1644 13.19C36.8844 16.79 36.5244 20.27 36.0844 23.63C35.6444 26.99 35.1944 30.06 34.7344 32.84C34.2744 35.62 33.8544 37.95 33.4744 39.83C33.0944 41.69 32.8344 42.93 32.6944 43.55L23.2444 44.45ZM53.5969 44.33C53.1369 44.41 52.4869 44.47 51.6469 44.51C50.8269 44.55 49.9769 44.57 49.0969 44.57C48.0569 44.57 47.0869 44.53 46.1869 44.45C45.2869 44.39 44.6269 44.28 44.2069 44.12C44.3669 42.92 44.5069 41.36 44.6269 39.44C44.7669 37.5 44.8769 35.33 44.9569 32.93C45.0569 30.53 45.1069 28.01 45.1069 25.37C45.1069 22.67 45.0569 19.92 44.9569 17.12C44.8769 14.32 44.7669 11.62 44.6269 9.02C44.4869 6.4 44.3569 4.01 44.2369 1.85C44.3769 1.79 44.8169 1.7 45.5569 1.58C46.2969 1.46 47.1569 1.34 48.1369 1.22C49.1169 1.08 50.0469 0.959997 50.9269 0.859998C51.8069 0.759998 52.4669 0.709998 52.9069 0.709998C53.2269 2.21 53.5069 4 53.7469 6.08C53.9869 8.16 54.1869 10.44 54.3469 12.92C54.5069 15.38 54.6169 17.96 54.6769 20.66C55.3569 19.9 56.2169 19.22 57.2569 18.62C58.2969 18 59.4269 17.52 60.6469 17.18C61.8869 16.82 63.1169 16.64 64.3369 16.64C66.7769 16.64 68.6469 17.11 69.9469 18.05C71.2469 18.97 72.1469 20.32 72.6469 22.1C73.1669 23.86 73.4269 26.01 73.4269 28.55C73.4269 30.15 73.3569 31.87 73.2169 33.71C73.0969 35.55 72.9369 37.36 72.7369 39.14C72.5369 40.92 72.3169 42.52 72.0769 43.94C71.3769 44.04 70.6569 44.12 69.9169 44.18C69.1769 44.24 68.4369 44.27 67.6969 44.27C66.8769 44.27 66.0669 44.23 65.2669 44.15C64.4869 44.09 63.7769 44 63.1369 43.88C63.2769 42.98 63.4269 41.92 63.5869 40.7C63.7469 39.48 63.8969 38.23 64.0369 36.95C64.1769 35.65 64.2869 34.42 64.3669 33.26C64.4669 32.08 64.5169 31.08 64.5169 30.26C64.5169 29.08 64.3969 28.08 64.1569 27.26C63.9369 26.44 63.5669 25.82 63.0469 25.4C62.5469 24.96 61.8669 24.74 61.0069 24.74C60.2669 24.74 59.5669 24.88 58.9069 25.16C58.2469 25.42 57.6369 25.76 57.0769 26.18C56.5369 26.58 56.0569 27 55.6369 27.44C55.2169 27.86 54.8869 28.23 54.6469 28.55C54.6469 30.61 54.5969 32.67 54.4969 34.73C54.3969 36.77 54.2669 38.63 54.1069 40.31C53.9469 41.99 53.7769 43.33 53.5969 44.33ZM93.2883 44.51C90.8283 44.51 88.5783 44.18 86.5383 43.52C84.4983 42.84 82.8683 41.75 81.6483 40.25C80.4483 38.73 79.8483 36.72 79.8483 34.22C79.8483 31.72 80.5483 29.71 81.9483 28.19C83.3683 26.65 85.2283 25.54 87.5283 24.86C89.8483 24.16 92.3383 23.81 94.9983 23.81C96.0383 23.81 97.0383 23.89 97.9983 24.05C98.9583 24.21 99.7983 24.4 100.518 24.62C101.258 24.84 101.788 25.05 102.108 25.25C102.088 24.73 101.978 24.18 101.778 23.6C101.598 23.02 101.338 22.53 100.998 22.13C100.398 21.31 99.5783 20.63 98.5383 20.09C97.5183 19.53 96.1683 19.25 94.4883 19.25C92.7883 19.25 91.2883 19.64 89.9883 20.42C88.6883 21.18 87.6983 22.04 87.0183 23L79.6983 18.29C80.5983 17.01 81.8083 15.89 83.3283 14.93C84.8683 13.97 86.6083 13.22 88.5483 12.68C90.5083 12.14 92.5583 11.87 94.6983 11.87C98.2383 11.87 101.108 12.45 103.308 13.61C105.508 14.77 107.138 16.39 108.198 18.47C108.698 19.47 109.108 20.57 109.428 21.77C109.748 22.97 109.968 24.35 110.088 25.91C110.168 27.25 110.228 28.5 110.268 29.66C110.308 30.82 110.348 31.92 110.388 32.96C110.428 34.48 110.598 35.47 110.898 35.93C111.198 36.39 111.628 36.62 112.188 36.62C112.708 36.62 113.168 36.48 113.568 36.2C113.988 35.9 114.258 35.51 114.378 35.03L117.498 41C117.278 41.92 116.658 42.69 115.638 43.31C114.618 43.93 113.328 44.24 111.768 44.24C110.628 44.24 109.548 44.05 108.528 43.67C107.508 43.27 106.668 42.74 106.008 42.08C105.348 41.4 104.958 40.63 104.838 39.77C104.518 40.53 103.848 41.28 102.828 42.02C101.808 42.74 100.498 43.34 98.8983 43.82C97.2983 44.28 95.4283 44.51 93.2883 44.51ZM95.2983 37.46C96.2383 37.46 97.1983 37.32 98.1783 37.04C99.1783 36.74 100.078 36.37 100.878 35.93C101.698 35.49 102.328 35.04 102.768 34.58C102.728 33.96 102.688 33.32 102.648 32.66C102.628 32 102.628 31.44 102.648 30.98C102.208 30.8 101.368 30.61 100.128 30.41C98.9083 30.19 97.6283 30.08 96.2883 30.08C95.0683 30.08 93.9283 30.21 92.8683 30.47C91.8083 30.73 90.9383 31.13 90.2583 31.67C89.5983 32.21 89.2683 32.91 89.2683 33.77C89.2683 34.69 89.5183 35.42 90.0183 35.96C90.5183 36.5 91.2183 36.89 92.1183 37.13C93.0183 37.35 94.0783 37.46 95.2983 37.46ZM142.554 40.07C142.174 40.81 141.574 41.6 140.754 42.44C139.954 43.26 138.904 43.96 137.604 44.54C136.324 45.14 134.764 45.44 132.924 45.44C130.504 45.44 128.524 44.93 126.984 43.91C125.464 42.89 124.334 41.53 123.594 39.83C122.874 38.13 122.514 36.27 122.514 34.25C122.514 33.15 122.524 31.98 122.544 30.74C122.584 29.48 122.624 28.24 122.664 27.02C122.704 25.78 122.744 24.61 122.784 23.51C122.844 22.39 122.894 21.41 122.934 20.57C122.994 19.73 123.034 19.08 123.054 18.62C121.474 18.78 120.014 18.96 118.674 19.16C117.334 19.34 116.404 19.49 115.884 19.61C115.684 18.49 115.534 17.35 115.434 16.19C115.334 15.03 115.254 14.02 115.194 13.16C115.154 12.3 115.134 11.77 115.134 11.57C116.294 11.41 117.534 11.27 118.854 11.15C120.174 11.01 121.564 10.91 123.024 10.85C123.004 10.37 122.984 9.62 122.964 8.6C122.944 7.58 122.914 6.66 122.874 5.84C122.854 5.1 122.814 4.36 122.754 3.62C122.694 2.86 122.644 2.25 122.604 1.79L131.484 1.01C131.484 1.25 131.484 1.81 131.484 2.69C131.504 3.57 131.514 4.63 131.514 5.87C131.514 6.49 131.524 7.21 131.544 8.03C131.564 8.83 131.584 9.62 131.604 10.4C132.264 10.36 133.034 10.32 133.914 10.28C134.794 10.24 135.494 10.21 136.014 10.19C136.854 10.15 137.614 10.13 138.294 10.13C138.974 10.11 139.534 10.1 139.974 10.1C140.434 10.1 140.744 10.11 140.904 10.13C141.024 11.07 141.104 12.27 141.144 13.73C141.184 15.17 141.204 16.45 141.204 17.57C141.004 17.55 140.354 17.56 139.254 17.6C138.154 17.62 137.074 17.66 136.014 17.72C135.274 17.74 134.454 17.78 133.554 17.84C132.654 17.9 131.944 17.96 131.424 18.02C131.404 18.44 131.374 19.02 131.334 19.76C131.314 20.48 131.284 21.3 131.244 22.22C131.224 23.12 131.194 24.06 131.154 25.04C131.134 26 131.114 26.93 131.094 27.83C131.074 28.73 131.064 29.53 131.064 30.23C131.064 31.55 131.124 32.74 131.244 33.8C131.384 34.84 131.674 35.67 132.114 36.29C132.574 36.89 133.274 37.19 134.214 37.19C134.834 37.19 135.364 37.01 135.804 36.65C136.244 36.29 136.604 35.87 136.884 35.39C137.184 34.89 137.444 34.45 137.664 34.07C137.924 34.43 138.284 34.91 138.744 35.51C139.224 36.09 139.724 36.7 140.244 37.34C140.784 37.98 141.264 38.55 141.684 39.05C142.124 39.55 142.414 39.89 142.554 40.07ZM153.35 16.43C152.77 16.07 152.14 15.56 151.46 14.9C150.78 14.24 150.25 13.58 149.87 12.92C150.21 12.72 150.67 12.4 151.25 11.96C151.85 11.52 152.41 11.05 152.93 10.55C153.45 10.05 153.74 9.61 153.8 9.23C153.68 9.35 153.47 9.46 153.17 9.56C152.89 9.66 152.55 9.71 152.15 9.71C150.85 9.71 149.86 9.32 149.18 8.54C148.5 7.74 148.16 6.81 148.16 5.75C148.16 4.15 148.71 2.89 149.81 1.97C150.93 1.03 152.27 0.559998 153.83 0.559998C155.61 0.559998 157.08 1.08 158.24 2.12C159.4 3.16 159.98 4.51 159.98 6.17C159.98 7.79 159.67 9.27 159.05 10.61C158.43 11.95 157.61 13.11 156.59 14.09C155.59 15.07 154.51 15.85 153.35 16.43ZM175.623 46.37C173.283 46.37 171.133 46.08 169.173 45.5C167.233 44.94 165.583 44.28 164.223 43.52C162.883 42.74 161.913 42.04 161.313 41.42C161.433 41.04 161.663 40.49 162.003 39.77C162.363 39.03 162.783 38.23 163.263 37.37C163.743 36.51 164.223 35.71 164.703 34.97C165.183 34.23 165.613 33.68 165.993 33.32C166.953 34.14 167.993 34.95 169.113 35.75C170.233 36.53 171.383 37.17 172.563 37.67C173.743 38.17 174.843 38.42 175.863 38.42C176.663 38.42 177.383 38.32 178.023 38.12C178.663 37.9 179.163 37.58 179.523 37.16C179.903 36.74 180.093 36.22 180.093 35.6C180.093 34.88 179.743 34.19 179.043 33.53C178.363 32.85 177.483 32.21 176.403 31.61C175.323 31.01 174.193 30.47 173.013 29.99C171.393 29.33 169.883 28.56 168.483 27.68C167.083 26.78 165.953 25.68 165.093 24.38C164.233 23.06 163.803 21.42 163.803 19.46C163.803 17.46 164.393 15.78 165.573 14.42C166.753 13.06 168.293 12.03 170.193 11.33C172.113 10.63 174.163 10.28 176.343 10.28C178.403 10.28 180.493 10.57 182.613 11.15C184.733 11.71 186.463 12.52 187.803 13.58C187.683 13.96 187.423 14.54 187.023 15.32C186.643 16.1 186.173 16.94 185.613 17.84C185.073 18.72 184.493 19.53 183.873 20.27C183.053 19.57 182.023 18.9 180.783 18.26C179.543 17.62 178.243 17.3 176.883 17.3C176.203 17.3 175.523 17.37 174.843 17.51C174.183 17.65 173.633 17.9 173.193 18.26C172.773 18.62 172.563 19.11 172.563 19.73C172.563 20.33 172.793 20.87 173.253 21.35C173.713 21.81 174.383 22.26 175.263 22.7C176.163 23.14 177.213 23.6 178.413 24.08C179.613 24.56 180.833 25.13 182.073 25.79C183.313 26.43 184.453 27.2 185.493 28.1C186.553 29 187.403 30.05 188.043 31.25C188.683 32.43 189.003 33.79 189.003 35.33C189.003 37.79 188.393 39.84 187.173 41.48C185.953 43.12 184.323 44.34 182.283 45.14C180.263 45.96 178.043 46.37 175.623 46.37ZM231.797 44.66C226.497 44.66 222.507 43.26 219.827 40.46C217.147 37.64 215.807 33.55 215.807 28.19C215.807 24.61 216.497 21.64 217.877 19.28C219.257 16.9 221.167 15.11 223.607 13.91C226.067 12.71 228.907 12.11 232.127 12.11C235.407 12.11 238.127 12.86 240.287 14.36C242.467 15.86 244.097 17.93 245.177 20.57C246.257 23.21 246.797 26.26 246.797 29.72C246.797 32.74 246.217 35.37 245.057 37.61C243.897 39.85 242.197 41.59 239.957 42.83C237.737 44.05 235.017 44.66 231.797 44.66ZM231.467 36.05C232.567 36.05 233.537 35.86 234.377 35.48C235.237 35.1 235.957 34.56 236.537 33.86C237.137 33.14 237.587 32.3 237.887 31.34C238.187 30.38 238.337 29.33 238.337 28.19C238.337 26.41 238.077 24.84 237.557 23.48C237.057 22.1 236.307 21.03 235.307 20.27C234.327 19.49 233.107 19.1 231.647 19.1C230.067 19.1 228.777 19.5 227.777 20.3C226.777 21.1 226.037 22.15 225.557 23.45C225.097 24.73 224.867 26.1 224.867 27.56C224.867 30.02 225.427 32.05 226.547 33.65C227.687 35.25 229.327 36.05 231.467 36.05ZM273.373 14.66C273.873 14.48 274.583 14.35 275.503 14.27C276.443 14.17 277.353 14.12 278.233 14.12C278.973 14.12 279.793 14.15 280.693 14.21C281.593 14.27 282.323 14.34 282.883 14.42C283.143 16.04 283.343 17.68 283.483 19.34C283.623 20.98 283.693 22.6 283.693 24.2C283.693 27.14 283.433 29.91 282.913 32.51C282.413 35.11 281.583 37.4 280.423 39.38C279.263 41.36 277.713 42.91 275.773 44.03C273.833 45.17 271.443 45.74 268.603 45.74C265.583 45.74 263.093 45.15 261.133 43.97C259.173 42.77 257.643 41.11 256.543 38.99C255.443 36.85 254.673 34.36 254.233 31.52C253.813 28.66 253.603 25.58 253.603 22.28C253.603 20.82 253.633 19.34 253.693 17.84C253.773 16.32 253.873 14.81 253.993 13.31C254.513 13.27 255.193 13.24 256.033 13.22C256.893 13.18 257.673 13.17 258.373 13.19C259.373 13.19 260.373 13.25 261.373 13.37C262.393 13.47 263.193 13.61 263.773 13.79C263.633 15.15 263.513 16.62 263.413 18.2C263.313 19.76 263.263 21.33 263.263 22.91C263.263 25.55 263.433 27.93 263.773 30.05C264.133 32.17 264.723 33.85 265.543 35.09C266.363 36.33 267.473 36.95 268.873 36.95C270.193 36.95 271.243 36.39 272.023 35.27C272.823 34.15 273.393 32.65 273.733 30.77C274.093 28.87 274.273 26.75 274.273 24.41C274.273 22.65 274.183 20.92 274.003 19.22C273.843 17.5 273.633 15.98 273.373 14.66ZM315.45 40.07C315.07 40.81 314.47 41.6 313.65 42.44C312.85 43.26 311.8 43.96 310.5 44.54C309.22 45.14 307.66 45.44 305.82 45.44C303.4 45.44 301.42 44.93 299.88 43.91C298.36 42.89 297.23 41.53 296.49 39.83C295.77 38.13 295.41 36.27 295.41 34.25C295.41 33.15 295.42 31.98 295.44 30.74C295.48 29.48 295.52 28.24 295.56 27.02C295.6 25.78 295.64 24.61 295.68 23.51C295.74 22.39 295.79 21.41 295.83 20.57C295.89 19.73 295.93 19.08 295.95 18.62C294.37 18.78 292.91 18.96 291.57 19.16C290.23 19.34 289.3 19.49 288.78 19.61C288.58 18.49 288.43 17.35 288.33 16.19C288.23 15.03 288.15 14.02 288.09 13.16C288.05 12.3 288.03 11.77 288.03 11.57C289.19 11.41 290.43 11.27 291.75 11.15C293.07 11.01 294.46 10.91 295.92 10.85C295.9 10.37 295.88 9.62 295.86 8.6C295.84 7.58 295.81 6.66 295.77 5.84C295.75 5.1 295.71 4.36 295.65 3.62C295.59 2.86 295.54 2.25 295.5 1.79L304.38 1.01C304.38 1.25 304.38 1.81 304.38 2.69C304.4 3.57 304.41 4.63 304.41 5.87C304.41 6.49 304.42 7.21 304.44 8.03C304.46 8.83 304.48 9.62 304.5 10.4C305.16 10.36 305.93 10.32 306.81 10.28C307.69 10.24 308.39 10.21 308.91 10.19C309.75 10.15 310.51 10.13 311.19 10.13C311.87 10.11 312.43 10.1 312.87 10.1C313.33 10.1 313.64 10.11 313.8 10.13C313.92 11.07 314 12.27 314.04 13.73C314.08 15.17 314.1 16.45 314.1 17.57C313.9 17.55 313.25 17.56 312.15 17.6C311.05 17.62 309.97 17.66 308.91 17.72C308.17 17.74 307.35 17.78 306.45 17.84C305.55 17.9 304.84 17.96 304.32 18.02C304.3 18.44 304.27 19.02 304.23 19.76C304.21 20.48 304.18 21.3 304.14 22.22C304.12 23.12 304.09 24.06 304.05 25.04C304.03 26 304.01 26.93 303.99 27.83C303.97 28.73 303.96 29.53 303.96 30.23C303.96 31.55 304.02 32.74 304.14 33.8C304.28 34.84 304.57 35.67 305.01 36.29C305.47 36.89 306.17 37.19 307.11 37.19C307.73 37.19 308.26 37.01 308.7 36.65C309.14 36.29 309.5 35.87 309.78 35.39C310.08 34.89 310.34 34.45 310.56 34.07C310.82 34.43 311.18 34.91 311.64 35.51C312.12 36.09 312.62 36.7 313.14 37.34C313.68 37.98 314.16 38.55 314.58 39.05C315.02 39.55 315.31 39.89 315.45 40.07ZM331.998 46.37C329.658 46.37 327.508 46.08 325.548 45.5C323.608 44.94 321.958 44.28 320.598 43.52C319.258 42.74 318.288 42.04 317.688 41.42C317.808 41.04 318.038 40.49 318.378 39.77C318.738 39.03 319.158 38.23 319.638 37.37C320.118 36.51 320.598 35.71 321.078 34.97C321.558 34.23 321.988 33.68 322.368 33.32C323.328 34.14 324.368 34.95 325.488 35.75C326.608 36.53 327.758 37.17 328.938 37.67C330.118 38.17 331.218 38.42 332.238 38.42C333.038 38.42 333.758 38.32 334.398 38.12C335.038 37.9 335.538 37.58 335.898 37.16C336.278 36.74 336.468 36.22 336.468 35.6C336.468 34.88 336.118 34.19 335.418 33.53C334.738 32.85 333.858 32.21 332.778 31.61C331.698 31.01 330.568 30.47 329.388 29.99C327.768 29.33 326.258 28.56 324.858 27.68C323.458 26.78 322.328 25.68 321.468 24.38C320.608 23.06 320.178 21.42 320.178 19.46C320.178 17.46 320.768 15.78 321.948 14.42C323.128 13.06 324.668 12.03 326.568 11.33C328.488 10.63 330.538 10.28 332.718 10.28C334.778 10.28 336.868 10.57 338.988 11.15C341.108 11.71 342.838 12.52 344.178 13.58C344.058 13.96 343.798 14.54 343.398 15.32C343.018 16.1 342.548 16.94 341.988 17.84C341.448 18.72 340.868 19.53 340.248 20.27C339.428 19.57 338.398 18.9 337.158 18.26C335.918 17.62 334.618 17.3 333.258 17.3C332.578 17.3 331.898 17.37 331.218 17.51C330.558 17.65 330.008 17.9 329.568 18.26C329.148 18.62 328.938 19.11 328.938 19.73C328.938 20.33 329.168 20.87 329.628 21.35C330.088 21.81 330.758 22.26 331.638 22.7C332.538 23.14 333.588 23.6 334.788 24.08C335.988 24.56 337.208 25.13 338.448 25.79C339.688 26.43 340.828 27.2 341.868 28.1C342.928 29 343.778 30.05 344.418 31.25C345.058 32.43 345.378 33.79 345.378 35.33C345.378 37.79 344.768 39.84 343.548 41.48C342.328 43.12 340.698 44.34 338.658 45.14C336.638 45.96 334.418 46.37 331.998 46.37ZM362.185 43.94C361.845 43.96 361.195 44 360.235 44.06C359.295 44.14 358.295 44.18 357.235 44.18C356.455 44.18 355.665 44.15 354.865 44.09C354.085 44.05 353.315 43.99 352.555 43.91C352.655 43.39 352.765 42.33 352.885 40.73C353.025 39.11 353.155 37.21 353.275 35.03C353.415 32.85 353.545 30.6 353.665 28.28C353.805 25.94 353.905 23.75 353.965 21.71C354.045 19.67 354.085 18.03 354.085 16.79C354.485 16.77 355.075 16.74 355.855 16.7C356.635 16.66 357.475 16.63 358.375 16.61C359.275 16.57 360.135 16.54 360.955 16.52C361.775 16.48 362.425 16.46 362.905 16.46C363.005 17.08 363.085 18.08 363.145 19.46C363.205 20.84 363.235 22.38 363.235 24.08C363.235 25.9 363.205 27.83 363.145 29.87C363.105 31.91 363.035 33.89 362.935 35.81C362.855 37.71 362.745 39.39 362.605 40.85C362.465 42.29 362.325 43.32 362.185 43.94ZM358.825 12.59C357.025 12.59 355.515 12.07 354.295 11.03C353.075 9.97 352.465 8.58 352.465 6.86C352.465 5.68 352.755 4.67 353.335 3.83C353.915 2.99 354.665 2.35 355.585 1.91C356.525 1.45 357.515 1.22 358.555 1.22C360.215 1.22 361.585 1.76 362.665 2.84C363.765 3.92 364.315 5.31 364.315 7.01C364.315 8.59 363.795 9.92 362.755 11C361.715 12.06 360.405 12.59 358.825 12.59ZM394.369 43.91C394.329 43.63 394.299 43.23 394.279 42.71C394.259 42.19 394.239 41.66 394.219 41.12C394.219 40.56 394.219 40.11 394.219 39.77C393.979 40.11 393.599 40.52 393.079 41C392.579 41.46 391.929 41.92 391.129 42.38C390.329 42.84 389.359 43.23 388.219 43.55C387.079 43.85 385.749 44 384.229 44C381.709 44 379.539 43.39 377.719 42.17C375.899 40.95 374.499 39.29 373.519 37.19C372.539 35.07 372.049 32.69 372.049 30.05C372.049 27.45 372.539 25.03 373.519 22.79C374.519 20.53 376.009 18.71 377.989 17.33C379.969 15.93 382.459 15.23 385.459 15.23C386.959 15.23 388.319 15.4 389.539 15.74C390.779 16.08 391.829 16.51 392.689 17.03C393.549 17.53 394.159 18.04 394.519 18.56C394.579 17.46 394.659 16.2 394.759 14.78C394.859 13.34 394.969 11.87 395.089 10.37C395.229 8.85 395.359 7.41 395.479 6.05C395.599 4.69 395.699 3.53 395.779 2.57C395.879 1.59 395.949 0.939998 395.989 0.619997C397.149 0.619997 398.449 0.689998 399.889 0.83C401.349 0.949998 402.639 1.16 403.759 1.46C403.419 6.04 403.149 10.62 402.949 15.2C402.749 19.76 402.609 24.43 402.529 29.21C402.469 33.97 402.439 38.96 402.439 44.18C401.979 44.18 401.219 44.17 400.159 44.15C399.119 44.13 398.049 44.1 396.949 44.06C395.849 44.02 394.989 43.97 394.369 43.91ZM386.719 35.27C387.599 35.27 388.409 35.17 389.149 34.97C389.889 34.77 390.569 34.5 391.189 34.16C391.809 33.8 392.349 33.42 392.809 33.02C393.289 32.6 393.689 32.18 394.009 31.76C394.009 31.36 394.009 30.87 394.009 30.29C394.009 29.69 394.009 29.09 394.009 28.49C394.029 27.89 394.039 27.32 394.039 26.78C394.059 26.24 394.079 25.82 394.099 25.52C393.659 25.1 393.049 24.69 392.269 24.29C391.489 23.89 390.629 23.57 389.689 23.33C388.769 23.07 387.829 22.94 386.869 22.94C384.909 22.94 383.379 23.53 382.279 24.71C381.199 25.87 380.659 27.38 380.659 29.24C380.659 31.2 381.179 32.7 382.219 33.74C383.279 34.76 384.779 35.27 386.719 35.27ZM440.399 38.63C439.839 39.31 439.139 39.98 438.299 40.64C437.459 41.3 436.449 41.9 435.269 42.44C434.109 42.96 432.779 43.38 431.279 43.7C429.779 44 428.099 44.15 426.239 44.15C423.219 44.15 420.539 43.58 418.199 42.44C415.859 41.28 414.029 39.57 412.709 37.31C411.409 35.03 410.759 32.2 410.759 28.82C410.759 25.44 411.439 22.5 412.799 20C414.159 17.48 416.059 15.53 418.499 14.15C420.939 12.75 423.789 12.05 427.049 12.05C431.169 12.05 434.409 13.2 436.769 15.5C439.149 17.78 440.389 20.94 440.489 24.98C440.509 25.72 440.499 26.39 440.459 26.99C440.419 27.59 440.339 28.23 440.219 28.91C439.919 28.89 439.279 28.87 438.299 28.85C437.319 28.83 436.209 28.81 434.969 28.79C433.749 28.75 432.589 28.72 431.489 28.7C430.409 28.68 429.609 28.67 429.089 28.67C427.349 28.67 425.659 28.75 424.019 28.91C422.399 29.07 421.039 29.24 419.939 29.42C419.939 29.78 419.959 30.14 419.999 30.5C420.059 30.84 420.139 31.17 420.239 31.49C420.499 32.31 420.949 33.01 421.589 33.59C422.249 34.17 423.029 34.62 423.929 34.94C424.849 35.24 425.819 35.39 426.839 35.39C427.759 35.39 428.599 35.28 429.359 35.06C430.139 34.82 430.849 34.51 431.489 34.13C432.129 33.75 432.709 33.34 433.229 32.9C433.769 32.44 434.269 31.99 434.729 31.55C434.849 31.65 435.159 31.95 435.659 32.45C436.159 32.93 436.719 33.53 437.339 34.25C437.959 34.95 438.549 35.69 439.109 36.47C439.669 37.25 440.099 37.97 440.399 38.63ZM420.269 23.81C421.169 23.67 422.279 23.54 423.599 23.42C424.919 23.3 426.449 23.24 428.189 23.24C429.129 23.24 429.959 23.25 430.679 23.27C431.419 23.29 431.939 23.31 432.239 23.33C432.239 22.91 432.179 22.45 432.059 21.95C431.899 21.27 431.579 20.62 431.099 20C430.639 19.38 430.039 18.88 429.299 18.5C428.579 18.12 427.709 17.93 426.689 17.93C425.409 17.93 424.289 18.21 423.329 18.77C422.389 19.33 421.659 20.06 421.139 20.96C420.619 21.86 420.329 22.81 420.269 23.81ZM77.2078 104.66C71.9078 104.66 67.9178 103.26 65.2378 100.46C62.5578 97.64 61.2178 93.55 61.2178 88.19C61.2178 84.61 61.9078 81.64 63.2878 79.28C64.6678 76.9 66.5778 75.11 69.0178 73.91C71.4778 72.71 74.3178 72.11 77.5378 72.11C80.8178 72.11 83.5378 72.86 85.6978 74.36C87.8778 75.86 89.5078 77.93 90.5878 80.57C91.6678 83.21 92.2078 86.26 92.2078 89.72C92.2078 92.74 91.6278 95.37 90.4678 97.61C89.3078 99.85 87.6078 101.59 85.3678 102.83C83.1478 104.05 80.4278 104.66 77.2078 104.66ZM76.8778 96.05C77.9778 96.05 78.9478 95.86 79.7878 95.48C80.6478 95.1 81.3678 94.56 81.9478 93.86C82.5478 93.14 82.9978 92.3 83.2978 91.34C83.5978 90.38 83.7478 89.33 83.7478 88.19C83.7478 86.41 83.4878 84.84 82.9678 83.48C82.4678 82.1 81.7178 81.03 80.7178 80.27C79.7378 79.49 78.5178 79.1 77.0578 79.1C75.4778 79.1 74.1878 79.5 73.1878 80.3C72.1878 81.1 71.4478 82.15 70.9678 83.45C70.5078 84.73 70.2778 86.1 70.2778 87.56C70.2778 90.02 70.8378 92.05 71.9578 93.65C73.0978 95.25 74.7378 96.05 76.8778 96.05ZM118.784 74.66C119.284 74.48 119.994 74.35 120.914 74.27C121.854 74.17 122.764 74.12 123.644 74.12C124.384 74.12 125.204 74.15 126.104 74.21C127.004 74.27 127.734 74.34 128.294 74.42C128.554 76.04 128.754 77.68 128.894 79.34C129.034 80.98 129.104 82.6 129.104 84.2C129.104 87.14 128.844 89.91 128.324 92.51C127.824 95.11 126.994 97.4 125.834 99.38C124.674 101.36 123.124 102.91 121.184 104.03C119.244 105.17 116.854 105.74 114.014 105.74C110.994 105.74 108.504 105.15 106.544 103.97C104.584 102.77 103.054 101.11 101.954 98.99C100.854 96.85 100.084 94.36 99.6441 91.52C99.2241 88.66 99.0141 85.58 99.0141 82.28C99.0141 80.82 99.0441 79.34 99.1041 77.84C99.1841 76.32 99.2841 74.81 99.4041 73.31C99.9241 73.27 100.604 73.24 101.444 73.22C102.304 73.18 103.084 73.17 103.784 73.19C104.784 73.19 105.784 73.25 106.784 73.37C107.804 73.47 108.604 73.61 109.184 73.79C109.044 75.15 108.924 76.62 108.824 78.2C108.724 79.76 108.674 81.33 108.674 82.91C108.674 85.55 108.844 87.93 109.184 90.05C109.544 92.17 110.134 93.85 110.954 95.09C111.774 96.33 112.884 96.95 114.284 96.95C115.604 96.95 116.654 96.39 117.434 95.27C118.234 94.15 118.804 92.65 119.144 90.77C119.504 88.87 119.684 86.75 119.684 84.41C119.684 82.65 119.594 80.92 119.414 79.22C119.254 77.5 119.044 75.98 118.784 74.66ZM145.266 77.12C145.726 76.22 146.426 75.36 147.366 74.54C148.326 73.72 149.456 73.05 150.756 72.53C152.076 72.01 153.476 71.75 154.956 71.75C155.856 71.75 156.766 71.84 157.686 72.02C158.606 72.2 159.276 72.44 159.696 72.74L157.836 82.28C157.396 82.1 156.826 81.9 156.126 81.68C155.426 81.46 154.626 81.35 153.726 81.35C152.806 81.35 151.906 81.51 151.026 81.83C150.166 82.13 149.366 82.56 148.626 83.12C147.886 83.68 147.236 84.35 146.676 85.13C146.876 86.29 147.096 87.77 147.336 89.57C147.596 91.37 147.836 93.22 148.056 95.12C148.276 97.02 148.456 98.75 148.596 100.31C148.736 101.87 148.806 103.01 148.806 103.73C147.406 103.91 145.786 104.03 143.946 104.09C142.106 104.15 140.336 104.17 138.636 104.15C138.636 102.47 138.586 100.56 138.486 98.42C138.406 96.28 138.286 94.05 138.126 91.73C137.966 89.39 137.766 87.09 137.526 84.83C137.306 82.55 137.046 80.44 136.746 78.5C136.466 76.56 136.166 74.91 135.846 73.55C136.806 73.27 137.866 73.01 139.026 72.77C140.186 72.53 141.236 72.34 142.176 72.2C143.116 72.04 143.716 71.95 143.976 71.93C144.216 72.49 144.486 73.32 144.786 74.42C145.086 75.5 145.246 76.4 145.266 77.12ZM212.639 97.64C212.039 98.68 211.129 99.71 209.909 100.73C208.689 101.75 207.179 102.6 205.379 103.28C203.579 103.96 201.509 104.3 199.169 104.3C196.129 104.3 193.499 103.55 191.279 102.05C189.059 100.53 187.339 98.52 186.119 96.02C184.919 93.5 184.319 90.74 184.319 87.74C184.319 84.58 184.939 81.75 186.179 79.25C187.439 76.75 189.209 74.77 191.489 73.31C193.769 71.85 196.469 71.12 199.589 71.12C201.449 71.12 203.159 71.41 204.719 71.99C206.279 72.57 207.649 73.39 208.829 74.45C210.029 75.51 211.019 76.75 211.799 78.17L205.259 81.83C205.199 81.67 205.059 81.42 204.839 81.08C204.639 80.74 204.339 80.38 203.939 80C203.539 79.62 203.009 79.3 202.349 79.04C201.709 78.78 200.909 78.65 199.949 78.65C198.509 78.65 197.289 78.96 196.289 79.58C195.289 80.2 194.529 81.08 194.009 82.22C193.509 83.36 193.259 84.7 193.259 86.24C193.259 87.52 193.449 88.81 193.829 90.11C194.209 91.39 194.849 92.46 195.749 93.32C196.649 94.18 197.889 94.61 199.469 94.61C200.409 94.61 201.279 94.45 202.079 94.13C202.879 93.81 203.569 93.43 204.149 92.99C204.749 92.53 205.229 92.1 205.589 91.7C205.949 91.3 206.169 91.03 206.249 90.89L212.639 97.64ZM228.22 104.33C227.76 104.41 227.11 104.47 226.27 104.51C225.45 104.55 224.6 104.57 223.72 104.57C222.68 104.57 221.71 104.53 220.81 104.45C219.91 104.39 219.25 104.28 218.83 104.12C218.99 102.92 219.13 101.36 219.25 99.44C219.39 97.5 219.5 95.33 219.58 92.93C219.68 90.53 219.73 88.01 219.73 85.37C219.73 82.67 219.68 79.92 219.58 77.12C219.5 74.32 219.39 71.62 219.25 69.02C219.11 66.4 218.98 64.01 218.86 61.85C219 61.79 219.44 61.7 220.18 61.58C220.92 61.46 221.78 61.34 222.76 61.22C223.74 61.08 224.67 60.96 225.55 60.86C226.43 60.76 227.09 60.71 227.53 60.71C227.85 62.21 228.13 64 228.37 66.08C228.61 68.16 228.81 70.44 228.97 72.92C229.13 75.38 229.24 77.96 229.3 80.66C229.98 79.9 230.84 79.22 231.88 78.62C232.92 78 234.05 77.52 235.27 77.18C236.51 76.82 237.74 76.64 238.96 76.64C241.4 76.64 243.27 77.11 244.57 78.05C245.87 78.97 246.77 80.32 247.27 82.1C247.79 83.86 248.05 86.01 248.05 88.55C248.05 90.15 247.98 91.87 247.84 93.71C247.72 95.55 247.56 97.36 247.36 99.14C247.16 100.92 246.94 102.52 246.7 103.94C246 104.04 245.28 104.12 244.54 104.18C243.8 104.24 243.06 104.27 242.32 104.27C241.5 104.27 240.69 104.23 239.89 104.15C239.11 104.09 238.4 104 237.76 103.88C237.9 102.98 238.05 101.92 238.21 100.7C238.37 99.48 238.52 98.23 238.66 96.95C238.8 95.65 238.91 94.42 238.99 93.26C239.09 92.08 239.14 91.08 239.14 90.26C239.14 89.08 239.02 88.08 238.78 87.26C238.56 86.44 238.19 85.82 237.67 85.4C237.17 84.96 236.49 84.74 235.63 84.74C234.89 84.74 234.19 84.88 233.53 85.16C232.87 85.42 232.26 85.76 231.7 86.18C231.16 86.58 230.68 87 230.26 87.44C229.84 87.86 229.51 88.23 229.27 88.55C229.27 90.61 229.22 92.67 229.12 94.73C229.02 96.77 228.89 98.63 228.73 100.31C228.57 101.99 228.4 103.33 228.22 104.33ZM284.813 98.63C284.253 99.31 283.553 99.98 282.713 100.64C281.873 101.3 280.863 101.9 279.683 102.44C278.523 102.96 277.193 103.38 275.693 103.7C274.193 104 272.513 104.15 270.653 104.15C267.633 104.15 264.953 103.58 262.613 102.44C260.273 101.28 258.443 99.57 257.123 97.31C255.823 95.03 255.173 92.2 255.173 88.82C255.173 85.44 255.853 82.5 257.213 80C258.573 77.48 260.473 75.53 262.913 74.15C265.353 72.75 268.203 72.05 271.463 72.05C275.583 72.05 278.823 73.2 281.183 75.5C283.563 77.78 284.803 80.94 284.903 84.98C284.923 85.72 284.913 86.39 284.873 86.99C284.833 87.59 284.753 88.23 284.633 88.91C284.333 88.89 283.693 88.87 282.713 88.85C281.733 88.83 280.623 88.81 279.383 88.79C278.163 88.75 277.003 88.72 275.903 88.7C274.823 88.68 274.023 88.67 273.503 88.67C271.763 88.67 270.073 88.75 268.433 88.91C266.813 89.07 265.453 89.24 264.353 89.42C264.353 89.78 264.373 90.14 264.413 90.5C264.473 90.84 264.553 91.17 264.653 91.49C264.913 92.31 265.363 93.01 266.003 93.59C266.663 94.17 267.443 94.62 268.343 94.94C269.263 95.24 270.233 95.39 271.253 95.39C272.173 95.39 273.013 95.28 273.773 95.06C274.553 94.82 275.263 94.51 275.903 94.13C276.543 93.75 277.123 93.34 277.643 92.9C278.183 92.44 278.683 91.99 279.143 91.55C279.263 91.65 279.573 91.95 280.073 92.45C280.573 92.93 281.133 93.53 281.753 94.25C282.373 94.95 282.963 95.69 283.523 96.47C284.083 97.25 284.513 97.97 284.813 98.63ZM264.683 83.81C265.583 83.67 266.693 83.54 268.013 83.42C269.333 83.3 270.863 83.24 272.603 83.24C273.543 83.24 274.373 83.25 275.093 83.27C275.833 83.29 276.353 83.31 276.653 83.33C276.653 82.91 276.593 82.45 276.473 81.95C276.313 81.27 275.993 80.62 275.513 80C275.053 79.38 274.453 78.88 273.713 78.5C272.993 78.12 272.123 77.93 271.103 77.93C269.823 77.93 268.703 78.21 267.743 78.77C266.803 79.33 266.073 80.06 265.553 80.96C265.033 81.86 264.743 82.81 264.683 83.81ZM305.661 106.37C303.321 106.37 301.171 106.08 299.211 105.5C297.271 104.94 295.621 104.28 294.261 103.52C292.921 102.74 291.951 102.04 291.351 101.42C291.471 101.04 291.701 100.49 292.041 99.77C292.401 99.03 292.821 98.23 293.301 97.37C293.781 96.51 294.261 95.71 294.741 94.97C295.221 94.23 295.651 93.68 296.031 93.32C296.991 94.14 298.031 94.95 299.151 95.75C300.271 96.53 301.421 97.17 302.601 97.67C303.781 98.17 304.881 98.42 305.901 98.42C306.701 98.42 307.421 98.32 308.061 98.12C308.701 97.9 309.201 97.58 309.561 97.16C309.941 96.74 310.131 96.22 310.131 95.6C310.131 94.88 309.781 94.19 309.081 93.53C308.401 92.85 307.521 92.21 306.441 91.61C305.361 91.01 304.231 90.47 303.051 89.99C301.431 89.33 299.921 88.56 298.521 87.68C297.121 86.78 295.991 85.68 295.131 84.38C294.271 83.06 293.841 81.42 293.841 79.46C293.841 77.46 294.431 75.78 295.611 74.42C296.791 73.06 298.331 72.03 300.231 71.33C302.151 70.63 304.201 70.28 306.381 70.28C308.441 70.28 310.531 70.57 312.651 71.15C314.771 71.71 316.501 72.52 317.841 73.58C317.721 73.96 317.461 74.54 317.061 75.32C316.681 76.1 316.211 76.94 315.651 77.84C315.111 78.72 314.531 79.53 313.911 80.27C313.091 79.57 312.061 78.9 310.821 78.26C309.581 77.62 308.281 77.3 306.921 77.3C306.241 77.3 305.561 77.37 304.881 77.51C304.221 77.65 303.671 77.9 303.231 78.26C302.811 78.62 302.601 79.11 302.601 79.73C302.601 80.33 302.831 80.87 303.291 81.35C303.751 81.81 304.421 82.26 305.301 82.7C306.201 83.14 307.251 83.6 308.451 84.08C309.651 84.56 310.871 85.13 312.111 85.79C313.351 86.43 314.491 87.2 315.531 88.1C316.591 89 317.441 90.05 318.081 91.25C318.721 92.43 319.041 93.79 319.041 95.33C319.041 97.79 318.431 99.84 317.211 101.48C315.991 103.12 314.361 104.34 312.321 105.14C310.301 105.96 308.081 106.37 305.661 106.37ZM349.812 100.07C349.432 100.81 348.832 101.6 348.012 102.44C347.212 103.26 346.162 103.96 344.862 104.54C343.582 105.14 342.022 105.44 340.182 105.44C337.762 105.44 335.782 104.93 334.242 103.91C332.722 102.89 331.592 101.53 330.852 99.83C330.132 98.13 329.772 96.27 329.772 94.25C329.772 93.15 329.782 91.98 329.802 90.74C329.842 89.48 329.882 88.24 329.922 87.02C329.962 85.78 330.002 84.61 330.042 83.51C330.102 82.39 330.152 81.41 330.192 80.57C330.252 79.73 330.292 79.08 330.312 78.62C328.732 78.78 327.272 78.96 325.932 79.16C324.592 79.34 323.662 79.49 323.142 79.61C322.942 78.49 322.792 77.35 322.692 76.19C322.592 75.03 322.512 74.02 322.452 73.16C322.412 72.3 322.392 71.77 322.392 71.57C323.552 71.41 324.792 71.27 326.112 71.15C327.432 71.01 328.822 70.91 330.282 70.85C330.262 70.37 330.242 69.62 330.222 68.6C330.202 67.58 330.172 66.66 330.132 65.84C330.112 65.1 330.072 64.36 330.012 63.62C329.952 62.86 329.902 62.25 329.862 61.79L338.742 61.01C338.742 61.25 338.742 61.81 338.742 62.69C338.762 63.57 338.772 64.63 338.772 65.87C338.772 66.49 338.782 67.21 338.802 68.03C338.822 68.83 338.842 69.62 338.862 70.4C339.522 70.36 340.292 70.32 341.172 70.28C342.052 70.24 342.752 70.21 343.272 70.19C344.112 70.15 344.872 70.13 345.552 70.13C346.232 70.11 346.792 70.1 347.232 70.1C347.692 70.1 348.002 70.11 348.162 70.13C348.282 71.07 348.362 72.27 348.402 73.73C348.442 75.17 348.462 76.45 348.462 77.57C348.262 77.55 347.612 77.56 346.512 77.6C345.412 77.62 344.332 77.66 343.272 77.72C342.532 77.74 341.712 77.78 340.812 77.84C339.912 77.9 339.202 77.96 338.682 78.02C338.662 78.44 338.632 79.02 338.592 79.76C338.572 80.48 338.542 81.3 338.502 82.22C338.482 83.12 338.452 84.06 338.412 85.04C338.392 86 338.372 86.93 338.352 87.83C338.332 88.73 338.322 89.53 338.322 90.23C338.322 91.55 338.382 92.74 338.502 93.8C338.642 94.84 338.932 95.67 339.372 96.29C339.832 96.89 340.532 97.19 341.472 97.19C342.092 97.19 342.622 97.01 343.062 96.65C343.502 96.29 343.862 95.87 344.142 95.39C344.442 94.89 344.702 94.45 344.922 94.07C345.182 94.43 345.542 94.91 346.002 95.51C346.482 96.09 346.982 96.7 347.502 97.34C348.042 97.98 348.522 98.55 348.942 99.05C349.382 99.55 349.672 99.89 349.812 100.07ZM373.297 90.8C371.937 90.8 370.717 90.78 369.637 90.74C368.557 90.7 367.517 90.65 366.517 90.59C365.537 90.53 364.477 90.44 363.337 90.32C363.337 87.64 363.867 85.24 364.927 83.12C366.007 81 367.537 79.06 369.517 77.3C370.617 76.32 371.487 75.38 372.127 74.48C372.787 73.56 373.117 72.64 373.117 71.72C373.117 70.6 372.737 69.73 371.977 69.11C371.237 68.49 370.227 68.18 368.947 68.18C367.947 68.18 367.047 68.33 366.247 68.63C365.447 68.93 364.727 69.37 364.087 69.95C363.467 70.51 362.917 71.19 362.437 71.99C361.977 72.77 361.567 73.66 361.207 74.66L353.617 70.34C354.137 68.08 355.147 66.17 356.647 64.61C358.167 63.05 360.007 61.87 362.167 61.07C364.347 60.25 366.647 59.84 369.067 59.84C371.687 59.84 374.037 60.24 376.117 61.04C378.217 61.82 379.877 63.01 381.097 64.61C382.317 66.19 382.927 68.18 382.927 70.58C382.927 72.36 382.697 73.87 382.237 75.11C381.777 76.33 381.167 77.38 380.407 78.26C379.667 79.14 378.867 79.96 378.007 80.72C377.227 81.42 376.477 82.26 375.757 83.24C375.057 84.22 374.477 85.34 374.017 86.6C373.577 87.84 373.337 89.24 373.297 90.8ZM368.977 104.3C367.317 104.3 365.867 103.83 364.627 102.89C363.407 101.93 362.797 100.59 362.797 98.87C362.797 97.93 363.077 97.05 363.637 96.23C364.197 95.39 364.937 94.72 365.857 94.22C366.777 93.7 367.747 93.44 368.767 93.44C370.587 93.44 372.097 93.91 373.297 94.85C374.517 95.77 375.127 96.99 375.127 98.51C375.127 99.59 374.837 100.57 374.257 101.45C373.697 102.33 372.947 103.03 372.007 103.55C371.087 104.05 370.077 104.3 368.977 104.3Z" fill="black"/>
</svg>
